<svg xmlns="http://www.w3.org/2000/svg" viewBox="0 0 2150 2150"><defs><style>.cls-1{fill:#4097DB;}</style></defs><title>Shatter.2x</title><g id="Layer_2" data-name="Layer 2"><g id="Layer_1-2" data-name="Layer 1"><path class="cls-1" d="M2150,48.18V21.71L2087.55,7.43,1942.76,138.68l-32.33-46.55-210.87,84.5,48-143.95L1701.19,0h-44.77L1717,42.72,1664.23,201l61.52,88.18L1576.56,416.82l-3.49-102.93L1528.59,227l69.07-73.52L1441.45,0h-36.81l156.94,154.16-64.23,68.38,50.13,98,3.83,113.19-282,60.3,26.29-133.32L1320,248.2l80.42-106.12L1323.78,0h-29.32l75.38,139.72-68.25,90.05h-138V87.55L1048.72,44.2l-21.59,50.73-237.48-91-1,2.72L786.43,0H759.27l46.79,141.94-143.8-23.48L559.37,227.56l-69-40L553.83,104,509.8,0h-28l42.47,100.34L464.52,179,249.31,195.86,181.5,81.7h86.92L286,0H259.58l-12,55.9H149.47L0,21.71V48.18L152.27,83l71,119.54L153.1,226.2,130.37,145,0,194.77v27.61l113.15-43.16,22.43,80.1L227,228.51,209.11,378.75,87.71,303.12,0,354.78v30l87.34-51.44L205.6,407,169.41,571.19l67.87,30.75-83.16,79.15L0,637v26.83L161.21,710l101.42-96.53,85,38.52L255.53,772.88l-.2,0,0,.15-.09.13.15,0,38,133.71-40.2,56.83L205.6,845.31,0,861.79v25.88l42.57-3.41L30.27,1037.4l162.93,40.31,92.35,36.94L56,1243.27,140.43,1272l-64.49,45.44L0,1266.71v31l76.34,51,94.3-66.45L376,1352.11l8.13,197.18L333,1688.63l-77-154.54L108.39,1606,0,1504.86v35.29L103.75,1637l140.52-68.54L267,1613.42,231.72,1767.3l-111,16.49L0,1893.67v34.88l132.31-120.4,120.62-17.92,32.24-140.76,36,71.33,5.5,10.87v0l90,39.32-31.9,149.88,73,47.48L275,2067.67l-59-141.35L0,2025.11v28.37l202.5-92.6L267,2115.41,259.58,2150H286l8-37.08L285,2091.6,488.64,1981H617.11L464.3,2108.65,481.79,2150h28l-14.29-33.77,155.83-130.17,97.52,132.4,10.4,31.54h27.17l-14.34-43.54L676.76,1977l137.46-19.87,148.44,115.6,119.23-80.44,103.06,75,101,67.05,8.46,15.68h29.32L1309,2122.53l10.64-148.71-8.17-29.25,87.6,31.82v168.08l5.63,5.53h36.79l-16.62-16.32V1971.57l87.85-120.18,47,225,1.34,6.32v.05l95.41,67.27h44.75l-111.61-78.72L1846.75,1965l38.66,122,172.86.09h18.4l73.33-33.54v-28.37l-58.37,26.69,17.16-85.74,41.21-37.51v-34.88l-48.37,44-78.35-332.22,1.27-1.56,49.2-134.93,76.25,71.19v-35.34l-87.13-81.35-61,167.49-88.67,107.8-148.81-121,63.22-84.28,188.52-61.08-41.22-100,66.57-89-6-29.83,24.71,24.07,89.85,60v-31l-73.55-49.13-50.06-48.77L2011.71,1096,2001,930.76l55.45-35.58,93.58-7.5V861.79l-82.55,6.62L2101.72,650,2150,663.79V637l-45.57-13.06,6.49-216.14,39.08-23v-30l-118,69.5-35.18-134,24.69-17.63,46.29-18.92L2150,222.38V194.77l-91.67,35-40.78,16.66-60-86.35L2094.91,35.58ZM1710.37,511.85l-49.17,89L1569,551.76l8-101.36,88.7-75.88-13.18,83.62Zm265.21,425.87,9.72,149.77-194.49,43.82,53.88-137.13L1754,928.44q-.84-2.52-1.68-5.17l-.43-1.33-24.25-79,139.58-15.61ZM1757,1146.83h0v.09l-.17,18.49-1.54,146.76-90.36,88.15v-74.69L1558,1318.7l26.52-103.4h0l1.46-5.76,4.21-149.19L1735.3,946.71l78.08,56.63Zm-302,408.31-110.83,53.47-24-102.64-3-13.07,0-.09-.08,0-104-41.3-28.87-129.92,118.92-67.43,72.41,96.24L1552.57,1236,1532,1317l-3.27,12.77v118.59Zm-223.58,190.08-103.93-32.59-72.5-30.36L1029.66,1591l22.24-31.78,93.35,10.06,61.62-92.4,79,31.39-70.09,90.9ZM1007.2,1578.08l-131.7,54.46-36.19-147.85,100.1-91.6,177.2,30.49,46.88-76.15,24.66,111L1132.48,1542l-93-10ZM600.35,1329.84,436,1160.81l337.2-15.65,187.48,157.12-35.77,69.06,0,0L820,1467.44H754l21.5-137.6Zm-9-879.73L738.12,595.74l10.45,3.14,94.95,28.47L806.18,761l-59.5,68.76L562.3,857.91l35.9-236L415.34,506.35Zm194.45-15.05,224.08,21.14L1066,576.1,964.88,722.77,836,750.2l39.22-140.27L751.37,572.78,765,445ZM971.17,237.42v90.46L1051.53,362l-40,68.4L806.37,411.08l22.29-99.3L717.9,230.69l107.62-58.22Zm106.25,131.46,189.84,1.91-25.72,130.45L1087.4,561,1033,444.72Zm484.15,277.56,5.25-66.65,91.63,48.81,107,112.27L1704,819.65l-2,2.57-5.38,3.44-88.75,57.15L1560.58,770l-152.3-97.43Zm-21.67,141,56,133.73L1703,852.24c5.8,19.69,15.39,49.84,21.84,69.92l-144.65,113.3-83-116.57-84.5,90.86-82.47,27.09L1309,881.91,1379.9,685.1Zm-371,513.17-91.3-76.29,29-99,113.23,12.61,92.47-68L1427,1032.19l67.47-72.54,70,98.22-4,142.28-178.8,115.59-71.59-95.16Zm-371.74-169,2.45-2.28L941.51,998.7l141,117.09-34.4,117.52L1150.71,1319l-46.91,76.2-148.91-25.63,38.22-73.79L811.27,1143.39ZM824.7,779,965.11,749.1,1018,866.82l266.43,25.54L1305,1043.23l-92.3,67.92-110.12-12.27L949,971.42h0l-.39-.31-8-6.67-.21.19L775.89,835.43Zm462.36,87.68-251.63-24.13L987.35,735.62l100.23-145.38h232.59l39,76.15ZM757.94,854.14,921.17,982.33,775.75,1116.26l-164.39-89.83-46.1-142.84Zm1107.64-52.55-125.81,14.06,59.68-76.46-117.24-123,52.85-95.64,155.29-36.71-32.08,153.43,96.67,61.19Zm-315.23-341.3-12.9,164.09-157.08,26.79L1336,564.44h-186.1l106.59-41.31ZM1062.76,77.08l75,28.31V255.57H1292l-19.45,89.48-199.79-2L997,310.82V231.68ZM797.86,34.66l219.16,84-39.68,93.23-141.9-63.28ZM671.63,146.14l114,18.6L669.74,227.41l130,95.21-19.41,86.46L740.88,428l-13,121.26L610.59,432.82,677.37,296l-95.07-55.1ZM468.26,204.6,643.65,306.22l-58.06,119L414.48,489.75,431.39,341,233.7,390.45l20.18-169.07ZM387.8,641.8,199.12,556.31l30.45-138.24,172-43L384.06,516.34h0l0,0,186.11,118.2L537,852.45,296.73,761.34ZM68.62,882.17l120.12-9.63,46.77,116.32-43.79,61.9-134-33.14ZM217.15,1059.5,321.63,911.79,285.49,784.67l247.57,93.89,4,1.5,2.41,7.48L590,1044.15l141.17,77.14L409,1136.22Zm-98.07,178L316.35,1127l83.14,33.25,183,188.19L464.73,1550.9l-55.14-10.4-8.54-207.11Zm232,476.7L405.48,1566l72.37,13.63,130.22-224H745.39l-21.5,137.6h91l36.86,150.62-129.63,74.79-45.7-77.75L431.49,1749.35ZM659.73,1953.9l-9.06,1.33H484.91L413.73,1909l29-136.41,223-98.74,40.37,68.65,92.37,190.9Zm304,87L828.13,1935.29l-93.82-193.9,137.88-79.57,134.88-55.76,24.66,88.72.56,2.07,2,4.72L1086.55,1826l-73.65-10.62,53.83,156Zm129.33-72.37-42-121.58,76.88,11.09-59.64-142.24,49.8,20.81L1237,1774l56.56,202.45-9,125.93-84.63-56.14Zm314.18-16.62L1302.89,1914l-44.45-159.15-15.88-148.19,57.53-74.61,26.19,113.86,127-61.31,141.9,52.41.27-.38,71.62,22.78-12.17,167.83-124.65-18.36-16.64-2.45Zm172.57,95.45-44-211.59L1653,1852.94l24.73,3.61,224-118.12,5.39,82.72-65,117.8Zm422.87-416.81,79.47,337-18.73,93.57h-159.1l-36.55-115.28L1933.36,1827l-6.76-103.77,6.71-8.16Zm-111,84-210.83,111.2L1694.27,1641l-83.14-26.38,50.2-70.5,77.89,46.48Zm-148.48-151.62-89.1-53.19L1585.57,1606l-107-39.56,76-110v-112.1l84.58,5.5V1461.5l116.1-113.21v65.23l48.55,68.75Zm202.2-234.23,36.18,87.77-156.87,50.83-43.76-62V1317.8l1.68-158.2,206.16-46.45,25.05,124.12Zm70.27-864.89,68.92-40.6-6.28,209.12-38,242.51-55.44,35.56-95.34-97.1,104.52-120.69L1887.21,625l31-147.74,2.15-10.28-23.22-105.52,77.18-55.12Zm-20.36-204.21-127,90.73L1891.81,457l-161.55,38.15-50.09-46.53,15.73-99.91,64.39-55.08-61.89-88.72L1901,123.73Z"/></g></g></svg>