<svg xmlns="http://www.w3.org/2000/svg" viewBox="0 0 179.98 178.92">
<defs><style>.cls-1{fill:#00B5E2;}</style></defs>
<title>Asset 7</title>
<g id="Layer_2" data-name="Layer 2">
<g id="Layer_1-2" data-name="Layer 1">
<g id="qasNRa">
<path class="cls-1" d="M180,11.41,174.6,8.35c-.95,2.49-1.86,4.87-2.8,7.35l-1.68-.62c1.17-3.12,2.32-6.16,3.51-9.33L180,9.25Z"/><path class="cls-1" d="M180,100.87l-5.38-3c-.94,2.46-1.86,4.87-2.81,7.34l-1.68-.61c1.19-3.14,2.33-6.18,3.52-9.33L180,98.71Z"/><path class="cls-1" d="M180,141.59l-5.68-6.17L169,139,168,137.62l6.55-4.59c1.84,1.94,3.65,3.86,5.46,5.79Z"/><path class="cls-1" d="M180,52.13l-5.69-6.2L169,49.57l-1-1.44,6.54-4.58L180,49.36Z"/><path class="cls-1" d="M27.62,178.92a4.51,4.51,0,0,0-2-4.43c-2.38-1.59-4.56-3.48-6.9-5.3l1-1.45c3,2.33,6.14,4.44,8.84,7,.87.81.65,2.77.92,4.2Z"/><path class="cls-1" d="M117.61,178.92a4.55,4.55,0,0,0-2-4.42c-2.38-1.59-4.57-3.48-6.91-5.31l1-1.44c3,2.32,6.13,4.43,8.83,7,.87.82.66,2.77.94,4.2Z"/><path class="cls-1" d="M0,168.12A14.44,14.44,0,0,0,2.06,166c1.34-2.11,2.53-4.32,3.85-6.6l1.59.84c-1.56,2.69-2.95,5.37-4.62,7.86-.64,1-1.9,1.49-2.88,2.22Z"/><path class="cls-1" d="M0,64.47c1.47-1,2.87-2.73,4.42-2.87s3.5,1.16,5.26,1.84c.28.11.54.25.9.42L10,65.48c-1.48-.59-2.86-1.22-4.3-1.65a2.76,2.76,0,0,0-1.92.2c-1.32.77-2.53,1.72-3.79,2.6Z"/><path class="cls-1" d="M0,78.66a15,15,0,0,0,2.06-2.17c1.33-2.12,2.53-4.32,3.85-6.62l1.59.84C6,73.41,4.56,76.09,2.89,78.59c-.64,1-1.91,1.5-2.89,2.23Z"/><path class="cls-1" d="M0,153.93c1.48-1,3-2.83,4.44-2.85,2,0,4,1.34,6.2,2.18L10,155a43.84,43.84,0,0,0-4.26-1.63,2.93,2.93,0,0,0-2.05.26c-1.29.73-2.47,1.65-3.69,2.5Z"/><path class="cls-1" d="M133.13,178.92l1.29-4.85,8,4.85H139l-3.45-2-.58,2Z"/><path class="cls-1" d="M43.13,178.92l1.34-4.85,8,4.85H49l-3.43-2-.6,2Z"/><path class="cls-1" d="M45,0,43,7.5l-1.77-.36c.67-2.47,1.3-4.81,1.92-7.14Z"/><path class="cls-1" d="M135,0c-.67,2.44-1.34,4.88-2.05,7.49l-1.77-.36,2-7.13Z"/><path class="cls-1" d="M180,170.59l-5,3.25-1.11-1.42,6.14-4Z"/><path class="cls-1" d="M180,81.13l-5,3.2L173.9,83,180,78.66Z"/><path class="cls-1" d="M73.55,178.92c-.13-.37-.44-.79-.35-1.09.48-1.6,1.06-3.17,1.64-4.88l1.69.55-1.36,4.08,1.48,1.34Z"/><path class="cls-1" d="M163.54,178.92c-.16-.32-.51-.7-.43-.95.51-1.65,1.1-3.28,1.71-5l1.66.55c-.46,1.43-.9,2.77-1.33,4.08l1.49,1.34Z"/><path class="cls-1" d="M0,139.12l4.52,4.69-1.44,1.32L0,141.9Z"/><path class="cls-1" d="M0,49.67l4.58,4.7-1.43,1.2L0,52.13Z"/><path class="cls-1" d="M53.06,0l2.87,1.88-.81,1.55L49.34,0Z"/><path class="cls-1" d="M143.06,0l2.84,1.89-.81,1.54L139.33,0Z"/><path class="cls-1" d="M167.26,0l2.54,1.93-.91,1.46-5-3.39Z"/><path class="cls-1" d="M77.27,0l2.57,1.93-.93,1.45L73.86,0Z"/><path class="cls-1" d="M0,99l4.29,2.21-.91,1.63-3.38-2Z"/><path class="cls-1" d="M0,9.56l4.3,2.18-.92,1.65L0,11.41Z"/><path class="cls-1" d="M29.48,0l.67,3.4-1.73.36L27.62,0Z"/><path class="cls-1" d="M119.47,0l.63,3.38-1.71.38L117.61,0Z"/><path class="cls-1" d="M180,156.4l-1.86-1.06,1.86-1.41Z"/><path class="cls-1" d="M180,66.63l-2-.7,2-1.46Z"/><path class="cls-1" d="M70.77,18.22l2.33-12,1.76.39c-.88,4.57-1.75,9.07-2.63,13.68l-7.12-1.07V31.07l-.33.14L55.34,20.56l1.31-1.21,6.61,7.39V17.07Z"/><path class="cls-1" d="M145.35,110.08l1.33-1.2,6.54,7.33v-9.66l7.51,1.14c.78-4,1.55-7.93,2.34-12l1.76.35c-.88,4.59-1.74,9.09-2.63,13.71l-7.08-1.07v11.85l-.37.17Z"/><path class="cls-1" d="M73.11,95.67l1.75.36-2.63,13.71-7.12-1.08v11.88l-.33.15-9.34-10.55,1.3-1.23,6.49,7.28v-9.63l7.52,1.13Z"/><path class="cls-1" d="M153.22,17.06l7.51,1.16c.78-4,1.56-8,2.35-12l1.74.39c-.86,4.53-1.73,9-2.62,13.69l-7.12-1.07v11.9l-.38.08-9.33-10.55,1.31-1.21,6.54,7.33Z"/><path class="cls-1" d="M68.37,86.18,51.83,78l14.79-8.93C67.21,74.82,67.77,80.36,68.37,86.18ZM65.1,72.07l-9.52,5.76L66.22,83.1C65.84,79.31,65.48,75.8,65.1,72.07Z"/><path class="cls-1" d="M141.79,78l14.8-8.93c.58,5.74,1.15,11.3,1.75,17.12Zm3.75-.15,10.66,5.26c-.39-3.83-.75-7.32-1.13-11Z"/><path class="cls-1" d="M11.33,149.82l-.57-17.2,16,9.22ZM23,141.75,13,136v10.93Z"/><path class="cls-1" d="M100.73,132.61l16,9.23-15.37,8C101.12,144,100.93,138.43,100.73,132.61ZM103,136v10.93l10-5.18Z"/><path class="cls-1" d="M116.68,52.36l-15.37,8c-.2-5.79-.39-11.35-.58-17.19Zm-3.75-.08-10-5.76V57.44Z"/><path class="cls-1" d="M53,118.19l-16.37-5.58c4.22-4,8.27-7.79,12.28-11.55Zm-5.11-13.64-8,7.26,10.62,3.61Z"/><path class="cls-1" d="M68.37,175.66l-16.54-8.2,14.79-8.94C67.21,164.28,67.77,169.81,68.37,175.66ZM65.1,161.54l-9.52,5.77,10.65,5.26C65.84,168.79,65.48,165.29,65.1,161.54Z"/><path class="cls-1" d="M156.59,158.52c.59,5.8,1.16,11.33,1.75,17.12l-16.54-8.18Zm-1.51,3-9.53,5.76,10.65,5.26C155.81,168.77,155.46,165.27,155.08,161.55Z"/><path class="cls-1" d="M10.76,43.13,26.7,52.36l-15.36,8ZM12.9,57.48,23,52.28,12.9,46.47Z"/><path class="cls-1" d="M48.92,11.66,53,28.7,36.64,23.14Zm-1,3.44L40,22.38l10.47,3.55C49.52,22,48.65,18.33,47.88,15.1Z"/><path class="cls-1" d="M138.82,100.84q2,8.34,4.14,17.35l-16.54-5.65C130.67,108.53,134.71,104.73,138.82,100.84Zm-9,11,10.67,3.61c-.95-4-1.83-7.65-2.66-11.09Z"/><path class="cls-1" d="M143,28.71l-16.59-5.66,12.46-11.71Q140.8,19.64,143,28.71Zm-5.1-13.65L130,22.39l10.43,3.55C139.49,22,138.62,18.33,137.85,15.06Z"/><path class="cls-1" d="M124.74,47.5c.38-4.32.74-8.49,1.12-12.78l1.76.15c-.27,3.38-.53,6.69-.82,10.27a58,58,0,0,0,6.39-1.43,5.82,5.82,0,0,1,5.71,1c3.26,2.23,6.69,4.2,10.12,6.32l-.89,1.54L145,50.62c-2.36-1.46-4.8-2.8-7.06-4.41a4.81,4.81,0,0,0-4.57-.7C130.61,46.29,127.77,46.82,124.74,47.5Z"/><path class="cls-1" d="M59.06,140.5,58.14,142c-3.11-1.92-6.29-3.63-9.17-5.74a6.87,6.87,0,0,0-6.7-1.05c-2.39.74-4.89,1.16-7.49,1.76l1.1-12.75,1.77.1-.82,10.29c2.32-.51,4.5-.82,6.56-1.49a5.61,5.61,0,0,1,5.31.85C52.05,136.27,55.56,138.32,59.06,140.5Z"/><path class="cls-1" d="M148.14,142.05c-3.69-2.29-7.29-4.47-10.83-6.74a3.47,3.47,0,0,0-3-.54c-3.08.8-6.2,1.45-9.55,2.22.37-4.29.73-8.47,1.1-12.78l1.77.18c-.27,3.41-.53,6.71-.82,10.25,2.83-.63,5.4-1.28,8-1.75a4,4,0,0,1,2.55.42c3.85,2.27,7.63,4.67,11.64,7.15Z"/><path class="cls-1" d="M34.77,47.53l1.12-12.81,1.76.15-.82,10.27a58.49,58.49,0,0,0,6.39-1.43,5.84,5.84,0,0,1,5.71,1C52.18,46.9,55.62,48.87,59,51l-.87,1.56C56.74,51.67,55.35,50.84,54,50c-2.1-1.3-4.24-2.53-6.27-3.94a4.29,4.29,0,0,0-3.87-.67C40.92,46.15,38,46.78,34.77,47.53Z"/><path class="cls-1" d="M22.62,93.67,23.77,95l-10.3,9.08V93.49L5.22,97,3.28,91.77l1.62-.68,1.38,3.48,8.78-3.75v9.42Z"/><path class="cls-1" d="M15.05,1.34v9.42L22.61,4.2l1.18,1.33L13.4,14.66V4L5.22,7.52,3.28,2.26,4.92,1.6,6.28,5.1Z"/><path class="cls-1" d="M105.26,100.05c2.56-2.22,4.9-4.27,7.31-6.37L113.74,95l-10.36,9.1V93.52L95.18,97l-1.93-5.26,1.64-.63,1.37,3.47,8.59-3.69C105,93.93,105.11,96.82,105.26,100.05Z"/><path class="cls-1" d="M93.24,2.26l1.64-.65,1.37,3.48,8.6-3.67c.14,3.08.26,6,.41,9.15l7.29-6.35,1.23,1.3-10.43,9.15V4.05L95.18,7.52Z"/><path class="cls-1" d="M108,110.47c3.39-1.22,6.43-2.35,9.48-3.37a3.82,3.82,0,0,0,2.7-2.72c.85-2.48,1.76-4.9,2.7-7.47l1.68.62c-1.19,3.28-2.3,6.46-3.52,9.59a2.46,2.46,0,0,1-1.37,1.06c-2.28.87-4.6,1.67-7.16,2.59l8.73,4.52-.8,1.61Z"/><path class="cls-1" d="M31.23,115.3l-.83,1.59L18,110.47c3.41-1.23,6.52-2.41,9.68-3.43a3.4,3.4,0,0,0,2.44-2.4c.82-2.57,1.81-5.09,2.77-7.75l1.68.66c-1.19,3.28-2.31,6.45-3.54,9.58a2.43,2.43,0,0,1-1.35,1.05c-2.28.88-4.59,1.67-7.15,2.59Z"/><path class="cls-1" d="M22.51,21.28l8.68,4.53-.75,1.62L18,21c.66-.28,1.1-.48,1.54-.64,2.91-1,5.83-2,8.7-3.14a3,3,0,0,0,1.49-1.48c1.08-2.7,2-5.46,3.08-8.32L34.54,8c-1.21,3.37-2.36,6.63-3.6,9.86-.14.37-.77.62-1.22.79C27.43,19.53,25.12,20.34,22.51,21.28Z"/><path class="cls-1" d="M113.28,21.28,122,25.81l-.75,1.62L108.81,21c.66-.28,1.1-.48,1.54-.64,2.91-1,5.83-2,8.7-3.14a3,3,0,0,0,1.49-1.48c1.08-2.7,2-5.46,3.08-8.32l1.69.57c-1.21,3.37-2.36,6.63-3.6,9.86-.14.37-.77.62-1.22.79C118.2,19.53,115.89,20.34,113.28,21.28Z"/><path class="cls-1" d="M74.57,63.55l4.86-6.87,4.44,13.26-1.71.58c-1.1-3.26-2.15-6.4-3.31-9.84l-4.42,6.19L67.64,55.53l1.48-1Z"/><path class="cls-1" d="M79.44,146.15l4.42,13.24-1.67.65c-1.11-3.26-2.18-6.43-3.34-9.89l-4.41,6.2L67.64,145l1.5-1c1.8,3,3.56,5.91,5.42,9Z"/><path class="cls-1" d="M169.4,56.66c1.53,4.56,3,8.86,4.44,13.29l-1.71.57-3.31-9.85-4.41,6.2-6.8-11.34,1.5-1,5.43,9C166.16,61.25,167.71,59.07,169.4,56.66Z"/><path class="cls-1" d="M43.13,75.65l-5.4-6.2-6.86,9.4-1.5-1L37.25,67l6.14,5.92L50.63,66l1.25,1.32Z"/><path class="cls-1" d="M30.83,168.38l-1.44-1.06,7.86-10.84,5.64,6.37,7.76-7.33,1.14,1.38-8.66,8.24c-1.75-2.06-3.45-4.09-5.33-6.32Z"/><path class="cls-1" d="M169.4,146.15l4.43,13.25-1.68.62-3.33-9.87-4.41,6.2L157.6,145l1.52-1c1.79,3,3.56,5.92,5.41,9C166.17,150.71,167.72,148.53,169.4,146.15Z"/><path class="cls-1" d="M127.4,156.22l5.69,6.43,7.42-7.05,1.33,1.23-8.67,8.25-5.48-6.14-6.87,9.41-1.46-1Z"/><path class="cls-1" d="M127.37,66.79,133,73.24c2.73-2.59,5.08-4.84,7.57-7.21l1.29,1.28-8.79,8.36-5.46-6.13-6.79,9.32-1.49-1Z"/><path class="cls-1" d="M101.41,22.14l1.76-.21c.22,4.22.44,8.3.67,12.65L93.71,34c.71,2.54,1.4,5,2.1,7.46l-1.67.58c-1-3.33-1.92-6.59-2.91-10l10.65.64Z"/><path class="cls-1" d="M11.43,111.77c1.38-.59,1.86-.24,1.91,1.07.11,3.67.32,7.35.51,11.22l-10.11-.54L5.85,131l-1.71.53-2.87-10,10.66.64Z"/><path class="cls-1" d="M95.82,131l-1.69.56-2.9-10,10.65.65c-.15-3.53-.31-7-.47-10.55l1.76-.2c.22,4.22.44,8.29.67,12.62l-10.13-.53C94.41,126,95.09,128.41,95.82,131Z"/><path class="cls-1" d="M1.26,32.05l10.66.65-.49-10.57,1.77-.19.67,12.65L3.73,34l2.11,7.43-1.68.63Z"/><path class="cls-1" d="M72.17,126.64,72,124.9l11.45-.62c-1-3.25-1.91-6.41-2.88-9.68l7-2.49.69,1.6-5.44,2c1,3.4,2,6.71,3.07,10.27Z"/><path class="cls-1" d="M175.86,36.55l-13.69.59-.2-1.72,11.47-.61c-.95-3.22-1.89-6.37-2.88-9.69l7-2.5.64,1.64-5.42,2C173.8,29.62,174.78,32.93,175.86,36.55Z"/><path class="cls-1" d="M175.86,126l-13.67.61-.24-1.72,11.49-.63-2.88-9.68,7-2.5.62,1.64-5.4,2C173.8,119.11,174.78,122.41,175.86,126Z"/><path class="cls-1" d="M82.82,26.26l3.07,10.28-13.71.61-.13-1.75,11.42-.58-2.88-9.7,7-2.5.63,1.63Z"/><path class="cls-1" d="M45.58,87.4C44.67,90.71,43.83,93.8,43,97l-1.77-.34c1.09-4,2.14-7.93,3.23-12L56,91.3l-.86,1.57Z"/><path class="cls-1" d="M132.93,97l-1.76-.34c1.09-4,2.14-7.94,3.23-12L146,91.3l-.87,1.57-9.55-5.47Z"/><path class="cls-1" d="M84.6,43.52l9.89,10.9-1.36,1.16-8.8-9.65-5.22,3.61L78,48.15Z"/><path class="cls-1" d="M84.6,133l9.85,10.85-1.33,1.21-8.78-9.65L79.08,139,78,137.62Z"/><path class="cls-1" d="M84.63,97.83l-2.8,7.35-1.68-.61c1.18-3.15,2.33-6.19,3.53-9.39l10.53,6.11-.83,1.57Z"/><path class="cls-1" d="M83.68,5.69l10.55,6.14-.88,1.54-8.71-5-2.81,7.34-1.68-.59Z"/><path class="cls-1" d="M64.21,36.29l.47,1.7-6.05,1.79,2.65,5.64-1.59.78c-1.2-2.51-2.4-5-3.64-7.56Z"/><path class="cls-1" d="M146,38.63l8.15-2.33.5,1.7-6,1.77,2.64,5.66-1.59.75Z"/><path class="cls-1" d="M64.23,125.75l.43,1.72-6,1.8,2.65,5.61-1.59.8-3.64-7.55Z"/><path class="cls-1" d="M146,128.12l8.13-2.34.53,1.69-6.06,1.8,2.63,5.61-1.57.82C148.47,133.21,147.3,130.78,146,128.12Z"/><path class="cls-1" d="M122.67,144.83l3.8,5.68-1.45,1-3-4.45-6.77,2.78-.78-1.61Z"/><path class="cls-1" d="M89.43,156.56l-1.05-1.43c1.87-1.35,3.64-2.66,5.45-3.92a1.42,1.42,0,0,1,1.11-.18c1.86.7,3.7,1.48,5.64,2.28L100,155c-1.39-.56-2.72-1-4-1.63a2,2,0,0,0-2.39.28C92.28,154.63,90.89,155.52,89.43,156.56Z"/><path class="cls-1" d="M74.87,83.45l1.65.59-1.38,4.14,4.71,3.17-.93,1.5-6-3.9Z"/><path class="cls-1" d="M124.86,61.68l-1.71.4-1.07-4.23-5.68-.12,0-1.77,7.15,0Z"/><path class="cls-1" d="M36,61.27l-1.5.92-2.35-3.67L26.75,60.2l-.58-1.66L33,56.32Z"/><path class="cls-1" d="M36,150.42l-1.5.92-2.35-3.67-5.43,1.68-.59-1.67,6.8-2.22Z"/><path class="cls-1" d="M98.07,63.18l-.71,1.61-4-1.71-3.53,4.45-1.43-1,4.37-5.66Z"/><path class="cls-1" d="M162.91,89c.63-1.83,1.25-3.6,1.9-5.48l1.67.53-1.37,4.17,4.73,3.17-.94,1.48Z"/><path class="cls-1" d="M154.94,94.2l.91,1.54L148.34,100l-1-1.51Z"/><path class="cls-1" d="M58.37,100l-.95-1.54,7.52-4.26,1,1.5Z"/><path class="cls-1" d="M154.91,4.74l1,1.51-7.49,4.28-1-1.49Z"/><path class="cls-1" d="M65.9,6.27l-7.51,4.26L57.4,9,65,4.73Z"/><path class="cls-1" d="M27.1,43.82l-1.75-.43,1.37-7.92,1.74.38Z"/><path class="cls-1" d="M116.69,124.91l1.73.46c-.44,2.61-.88,5.2-1.34,7.9l-1.76-.39C115.78,130.21,116.22,127.61,116.69,124.91Z"/><path class="cls-1" d="M26.72,124.94l1.74.39-1.36,8-1.75-.4Z"/><path class="cls-1" d="M116.68,35.44l1.74.44-1.34,7.88-1.75-.34C115.78,40.77,116.22,38.18,116.68,35.44Z"/><path class="cls-1" d="M106.83,65.26l1.74.52c-.74,2.36-1.44,4.64-2.17,7l-1.71-.47C105.4,70,106.1,67.66,106.83,65.26Z"/><path class="cls-1" d="M14.7,161.78c.75-2.42,1.43-4.65,2.16-7l1.75.48-2.19,7Z"/><path class="cls-1" d="M104.67,161.78l2.18-7.06,1.71.54-2.15,7Z"/><path class="cls-1" d="M16.86,65.26l1.74.52-2.18,7-1.69-.55Z"/><path class="cls-1" d="M126.48,86.42l-1.56-.83c1.17-2.06,2.31-4.07,3.52-6.18l1.61.83Z"/><path class="cls-1" d="M40.05,80.29l-3.53,6.12-1.59-.83,3.58-6.21Z"/><path class="cls-1" d="M126.48,175.92l-1.56-.87,3.54-6.17,1.58.86C128.84,171.81,127.68,173.83,126.48,175.92Z"/><path class="cls-1" d="M38.51,168.85l1.55.92c-1.2,2.06-2.34,4-3.54,6.12l-1.59-.84Z"/><path class="cls-1" d="M6,114.46,2.6,109.62,4,108.56l3.42,4.84Z"/><path class="cls-1" d="M2.57,20.13l1.48-1,3.38,4.83L6,25Z"/><path class="cls-1" d="M92.55,20.14,94,19.09l3.38,4.82L96,25Z"/><path class="cls-1" d="M95.94,114.45l-3.38-4.82L94,108.57c1.12,1.6,2.2,3.14,3.39,4.82Z"/><path class="cls-1" d="M109.93,37.13l-2.51.83-.86-2.55,2.53-.79Z"/><path class="cls-1" d="M77.77,167.7l-2.64-.49.46-2.54,2.65.41Z"/><path class="cls-1" d="M59.83,59.8l2.46-.91,1,2.46-2.53,1Z"/><path class="cls-1" d="M18.64,34.29l2.47-.91,1,2.46-2.54,1Z"/><path class="cls-1" d="M152.27,58.87l1,2.46-2.49,1-1-2.49Z"/><path class="cls-1" d="M99.64,175.05l-1.33-2.32,2.34-1.33c.45.79.83,1.49,1.31,2.34Z"/><path class="cls-1" d="M12,173.77,9.66,175l-1.33-2.29,2.35-1.35Z"/><path class="cls-1" d="M9.68,85.56,8.33,83.27l2.35-1.35L12,84.28Z"/><path class="cls-1" d="M165.57,164.63l2.64.47-.47,2.6-2.64-.49C165.25,166.36,165.39,165.62,165.57,164.63Z"/><path class="cls-1" d="M109.1,124.08l.82,2.52-2.51.85-.86-2.53Z"/><path class="cls-1" d="M162.46,114.25l1.46,2.19L161.76,118l-1.57-2.19Z"/><path class="cls-1" d="M99.63,85.57,98.3,83.26l2.35-1.34L102,84.27Z"/><path class="cls-1" d="M164,27l-2.22,1.47-1.54-2.13,2.21-1.56Z"/><path class="cls-1" d="M167.7,78.2l-2.62-.5c.19-.9.34-1.63.52-2.54l2.64.47Z"/><path class="cls-1" d="M74,116.44l-2.18,1.5-1.59-2.17,2.24-1.51Z"/><path class="cls-1" d="M62.32,148.35l1,2.49-2.48,1-1-2.5Z"/><path class="cls-1" d="M152.27,148.35l1,2.47-2.51,1-.95-2.48Z"/><path class="cls-1" d="M71.77,28.48l-1.54-2.19,2.21-1.53L74,27Z"/><path class="cls-1" d="M19.11,124.09l.84,2.49-2.49.88-.89-2.56Z"/><path class="cls-1" d="M75.63,75.15l2.63.49-.5,2.52-2.64-.41Z"/></g><circle class="cls-1" cx="22.88" cy="12.78" r="1.63"/><circle class="cls-1" cx="46.61" cy="34.22" r="1.63"/><circle class="cls-1" cx="71.18" cy="47.7" r="1.63"/><circle class="cls-1" cx="114.35" cy="12.67" r="1.63"/><circle class="cls-1" cx="136.88" cy="35.16" r="1.63"/><circle class="cls-1" cx="162.34" cy="47.7" r="1.63"/><circle class="cls-1" cx="117.85" cy="68.62" r="1.63"/><circle class="cls-1" cx="26.27" cy="67.66" r="1.63"/><circle class="cls-1" cx="22.11" cy="102.73" r="1.63"/><circle class="cls-1" cx="47.01" cy="124.08" r="1.63"/><circle class="cls-1" cx="112.3" cy="103.78" r="1.63"/><circle class="cls-1" cx="137.25" cy="124.66" r="1.63"/><circle class="cls-1" cx="71.18" cy="137.42" r="1.63"/><circle class="cls-1" cx="115.93" cy="157.85" r="1.63"/><circle class="cls-1" cx="161.2" cy="136.52" r="1.63"/><path class="cls-1" d="M138.36,149.59a13.8,13.8,0,0,1-3-.33,9.64,9.64,0,0,1-5.64-4.37l2-.88c.72,1.1,2.22,3,4.21,3.44,2.44.55,4.63.16,7.45-.45l.59,1.82A26.76,26.76,0,0,1,138.36,149.59Z"/><path class="cls-1" d="M47.75,60.06a13.71,13.71,0,0,1-3-.33,9.61,9.61,0,0,1-5.64-4.37l2-.88c.71,1.09,2.21,3,4.21,3.44,2.44.55,4.62.16,7.44-.45l.59,1.82A26.76,26.76,0,0,1,47.75,60.06Z"/><path class="cls-1" d="M138.44,60.06a13.8,13.8,0,0,1-3-.33,9.64,9.64,0,0,1-5.64-4.37l2.05-.88c.71,1.09,2.21,3,4.2,3.44,2.45.55,4.63.16,7.45-.45l.59,1.82A26.76,26.76,0,0,1,138.44,60.06Z"/><path class="cls-1" d="M48.74,149.68a13.77,13.77,0,0,1-3-.32A9.56,9.56,0,0,1,40.1,145l2-.88c.71,1.1,2.21,3,4.21,3.45,2.44.54,4.62.15,7.44-.45l.59,1.81A26.76,26.76,0,0,1,48.74,149.68Z"/><path class="cls-1" d="M115.46,82.11A16.57,16.57,0,0,1,118,84.93c2,2.81,2,6.34,1.62,8.81L117,92.86c.25-1.63.44-4.66-1.06-6.75-1.83-2.55-4.2-4-7.35-5.8l1-2.2A33.21,33.21,0,0,1,115.46,82.11Z"/><path class="cls-1" d="M25.37,82.11a16.57,16.57,0,0,1,2.55,2.82c2,2.81,2,6.34,1.62,8.81l-2.65-.88c.25-1.63.44-4.66-1.06-6.75-1.83-2.55-4.2-4-7.35-5.8l1-2.2A33.21,33.21,0,0,1,25.37,82.11Z"/><path class="cls-1" d="M94.65,77.56a17,17,0,0,1-2.3,3C90,83.1,86.5,83.74,84,83.84l.37-2.77C86,81,89,80.62,90.8,78.76,93,76.48,94,73.88,95.12,70.45l2.34.54A33.58,33.58,0,0,1,94.65,77.56Z"/><path class="cls-1" d="M95.08,166.69a17.25,17.25,0,0,1-2.3,3c-2.38,2.51-5.86,3.15-8.35,3.25l.37-2.77c1.64-.06,4.66-.44,6.43-2.31,2.16-2.27,3.15-4.88,4.32-8.31l2.34.54A33.67,33.67,0,0,1,95.08,166.69Z"/></g></g></svg>