<svg xmlns="http://www.w3.org/2000/svg" viewBox="0 0 2150 2150"><defs><style>.cls-1{fill:none;}.cls-2{fill:#FFAE3B;}</style></defs><title>XO.2x</title><g id="Layer_2" data-name="Layer 2"><g id="Layer_1-2" data-name="Layer 1"><path class="cls-1" d="M499.41,15.81a31.16,31.16,0,0,0,57.05,25.1,31.26,31.26,0,0,0-8.83-36.65L542.42,0H513.47l-5.24,4.27A30.75,30.75,0,0,0,499.41,15.81Z"/><path class="cls-1" d="M981.11,499.13a31.16,31.16,0,1,0,21.59,38.42A31.16,31.16,0,0,0,981.11,499.13Z"/><path class="cls-1" d="M1773.71,148.73a31.15,31.15,0,1,0-44.06,1A31.21,31.21,0,0,0,1773.71,148.73Z"/><path class="cls-1" d="M258.22,1447.73A31.16,31.16,0,0,0,273,1387.19a31.31,31.31,0,0,0-7.42-.9,31.17,31.17,0,0,0-7.36,61.44Z"/><path class="cls-1" d="M1529.28,1372.65a32,32,0,0,0-4.57-.33,31.28,31.28,0,1,0,4.57.33Z"/><path class="cls-1" d="M1273.57,379a31.16,31.16,0,0,0-1.62-62.28c-.54,0-1.09,0-1.65,0a31.16,31.16,0,0,0,3.27,62.24Z"/><path class="cls-1" d="M1352.51,1509.78a31.16,31.16,0,1,0-37.66-22.89A30.94,30.94,0,0,0,1352.51,1509.78Z"/><path class="cls-1" d="M604.58,1487.63a31.21,31.21,0,1,0-16.51-17.21A31,31,0,0,0,604.58,1487.63Z"/><path class="cls-1" d="M171.33,431a31.16,31.16,0,1,0-39.11-20.31A31.21,31.21,0,0,0,171.33,431Z"/><path class="cls-1" d="M2120.78,1241.51A18.83,18.83,0,1,1,2103.6,1208h0l46.4-23.79V944.39l-18.44,55.12a18.88,18.88,0,0,1-17.88,12.86,18.56,18.56,0,0,1-6-1,18.85,18.85,0,0,1-11.88-23.83L2117,924.35a18.8,18.8,0,0,1,33-5.17V0h-97.56l-.2,1a18.38,18.38,0,0,1-.66,2.52,18.7,18.7,0,0,1-9.51,10.82,18.63,18.63,0,0,1-8.3,1.95,18.79,18.79,0,0,1-6.08-1A51.52,51.52,0,0,1,2008.87,4l-4.28-4H1847.15l-2.09,3.09a14.43,14.43,0,0,0-1.89,12.39,18.83,18.83,0,1,1-36,11h0A52,52,0,0,1,1806.11,0H1632.19a50.48,50.48,0,0,1,1,6.17,14.52,14.52,0,0,0,15.85,13,18.84,18.84,0,0,1,3.71,37.49c-1.73.17-3.46.25-5.17.25a52.23,52.23,0,0,1-51.87-47,14.44,14.44,0,0,0-2.47-6.76L1591.09,0h-347.2l-.42,1.49a19.08,19.08,0,0,1-2.08,4.78l-34.93,56.78a18.83,18.83,0,0,1-32.08-19.74L1201,0H590.58A68.78,68.78,0,1,1,464.94.64c.09-.21.19-.43.29-.64H294.77a52.36,52.36,0,0,1,1,6.88,14.38,14.38,0,0,0,5,9.89,14.38,14.38,0,0,0,10.54,3.45,18.83,18.83,0,1,1,2.9,37.55c-1.37.11-2.73.16-4.09.16a51.79,51.79,0,0,1-33.85-12.57A51.8,51.8,0,0,1,258.23,9.78,14.48,14.48,0,0,0,255.93,3l-2-3H123.69l-2.37,3.25a194.42,194.42,0,0,1-15.14,17.59C101.37,26,96.39,31.3,93.11,36c-4,5.76-3.63,7.87-3.51,8.23a14.51,14.51,0,0,0,18.44,9,18.83,18.83,0,1,1,12.29,35.6A52.23,52.23,0,0,1,54,56.51C46,33.18,61.53,13.73,74.13,0H0V337.55l22.22-80a18.83,18.83,0,1,1,36.29,10.07L31.76,363.93a18.86,18.86,0,0,1-18.15,13.8A18.76,18.76,0,0,1,0,371.87V1184.2l42.57-21.83a18.84,18.84,0,0,1,17.19,33.52L0,1226.53v208l17.36,26a18.86,18.86,0,0,1-5.22,26.12,18.77,18.77,0,0,1-10.43,3.16c-.57,0-1.14,0-1.71-.09v330a85.41,85.41,0,0,1,57.05,4.54,18.83,18.83,0,1,1-15.43,34.35,47.87,47.87,0,0,0-39.35.12l-2.27,1v162.67a18.83,18.83,0,0,1,11.92,3h0a18.85,18.85,0,0,1,5.35,26.09L0,2077.65V2150H74.11l4.56-4.89c4.81-5.14,9.79-10.46,13.07-15.14,4.05-5.76,3.63-7.87,3.51-8.23a14.52,14.52,0,0,0-18.44-9,18.83,18.83,0,1,1-12.29-35.6,52.22,52.22,0,0,1,66.33,32.27c4.51,13.08,2.13,26.38-7.28,40.56H253.31a14.51,14.51,0,0,0-10.65-3.56c-1.36.11-2.71.16-4,.16a52.23,52.23,0,0,1-52-48.15,14.53,14.53,0,0,0-15.57-13.34,18.83,18.83,0,1,1-2.9-37.55,52.22,52.22,0,0,1,56,48,14.52,14.52,0,0,0,15.57,13.34,51.92,51.92,0,0,1,54.73,39.83l.31,1.28H465.17l1.23-2.46a68.78,68.78,0,0,1,123,0l1.23,2.46H1201l8.29-13.46a18.81,18.81,0,0,1,25.9-6.18,18.91,18.91,0,0,1,8.61,19.64h346.51a14.5,14.5,0,0,0-10.47-3.12,18.83,18.83,0,1,1-3.71-37.48,52.44,52.44,0,0,1,55.74,39.27l.33,1.33h173.87l.33-1.33a52.49,52.49,0,0,1,35.31-37.31,14.51,14.51,0,0,0,9.61-18.12,18.83,18.83,0,1,1,36-11,52.21,52.21,0,0,1-34.57,65.16,14.27,14.27,0,0,0-4.9,2.64H2005a52.29,52.29,0,0,1-9.91-50.87,14.53,14.53,0,0,0-9.06-18.4,18.83,18.83,0,0,1,12.14-35.65,52.21,52.21,0,0,1,32.57,66.18,14.54,14.54,0,0,0,9,18.4h0a18.89,18.89,0,0,1,12.56,20.34H2150v-72.35l-19.43,29.46a18.71,18.71,0,0,1-11.94,8.08,19,19,0,0,1-3.82.39,18.84,18.84,0,0,1-15.68-29.21l36.7-55.64a18.82,18.82,0,0,1,13.53-8.33l.64-.07V1859.77a47.76,47.76,0,0,0-21.6,22.82,18.83,18.83,0,0,1-34.36-15.43,85.35,85.35,0,0,1,54.44-47.11l1.52-.44v-329.9l-.7-.09a18.8,18.8,0,0,1-13.27-8.22L2099,1426a18.83,18.83,0,1,1,31.33-20.9l19.63,29.43v-208Zm-1.1-398.38c-2.61,4.08-6.51,6.51-10.7,6.67h-.43c-4.09,0-8-2.17-10.67-6a22.59,22.59,0,0,1-3.79-12.41,23.1,23.1,0,0,1,3.34-12.58c2.61-4.08,6.52-6.51,10.71-6.66s8.29,2,11.09,6a22.51,22.51,0,0,1,3.79,12.41A23.07,23.07,0,0,1,2119.68,843.13Zm3.18-150.62a68.77,68.77,0,0,1-66.79,53.06,69.25,69.25,0,0,1-15.94-1.86,68.82,68.82,0,1,1,82.73-51.2ZM1255,1352.32a18.83,18.83,0,1,1-34.26,15.65l-19.87-43.5-43.51,19.87a18.83,18.83,0,1,1-15.64-34.26l43.5-19.87-19.88-43.5a18.83,18.83,0,0,1,34.26-15.65l19.87,43.5,43.51-19.87a18.83,18.83,0,0,1,15.65,34.26l-43.51,19.87Zm-93.08,201.39a52.2,52.2,0,0,1-41.79,60.78,14.53,14.53,0,0,0-11.62,16.9,18.83,18.83,0,0,1-37,6.85,52.22,52.22,0,0,1,41.79-60.78,14.51,14.51,0,0,0,11.62-16.89,52.23,52.23,0,0,1,41.79-60.79,14.51,14.51,0,0,0,11.62-16.89,18.83,18.83,0,1,1,37-6.86,52.19,52.19,0,0,1-41.79,60.78A14.53,14.53,0,0,0,1161.87,1553.71ZM915.72,1660.93a52.23,52.23,0,0,1-69.89-23.59,14.54,14.54,0,0,0-19.43-6.56A18.83,18.83,0,1,1,809.69,1597a52.21,52.21,0,0,1,69.89,23.59,14.53,14.53,0,0,0,19.42,6.56,52.22,52.22,0,0,1,69.9,23.58,14.5,14.5,0,0,0,19.42,6.56h0a18.83,18.83,0,1,1,16.72,33.75,52.16,52.16,0,0,1-69.89-23.59A14.52,14.52,0,0,0,915.72,1660.93Zm9,137.11a19,19,0,0,1-13,6.18l-.94,0a18.81,18.81,0,1,1,14-6.21ZM782.11,1776a31.19,31.19,0,0,0-37.68-22.85,18.83,18.83,0,1,1-9-36.58,68.82,68.82,0,0,1,32.76,133.69,18.83,18.83,0,1,1-9-36.58A31.19,31.19,0,0,0,782.11,1776ZM670.89,1657.45a47.49,47.49,0,0,0-15.42,33.18,18.85,18.85,0,0,1-18.8,18h-.79a18.87,18.87,0,0,1-18-19.6,85.58,85.58,0,0,1,89-81.86,18.83,18.83,0,0,1-1.57,37.63A47.55,47.55,0,0,0,670.89,1657.45Zm.93,221.11a18.83,18.83,0,0,1-20.67-16.79l-6.86-66.3a18.83,18.83,0,1,1,37.46-3.88l6.86,66.3A18.84,18.84,0,0,1,671.82,1878.56ZM518.64,1312.81a68.7,68.7,0,1,1,41.82-14.19A68.75,68.75,0,0,1,518.64,1312.81Zm27.26,317-10.8,65.78a18.86,18.86,0,0,1-18.57,15.78,18.66,18.66,0,0,1-3.06-.25,18.87,18.87,0,0,1-15.54-21.64l10.81-65.77a18.84,18.84,0,0,1,21.63-15.54A18.86,18.86,0,0,1,545.9,1629.77Zm-400.51-34.62a18.83,18.83,0,0,1-29.77,23.07,85.58,85.58,0,0,1,15.2-119.94h0A18.83,18.83,0,1,1,153.89,1528,47.89,47.89,0,0,0,145.39,1595.15Zm-23-351.36a18.83,18.83,0,0,1-15.61-34.28l43.52-19.82-19.82-43.53a18.83,18.83,0,0,1,34.28-15.61l19.82,43.53,43.52-19.82a18.83,18.83,0,1,1,15.61,34.27l-43.52,19.82L220,1251.88a18.86,18.86,0,0,1-17.13,26.65,18.91,18.91,0,0,1-17.14-11L165.9,1224ZM375.06,525.3c.82,7,2.53,8.28,2.87,8.47a14.51,14.51,0,0,0,19.73-5.58,18.83,18.83,0,1,1,32.87,18.38,52.19,52.19,0,0,1-71,20.08c-23.61-13.2-22.95-41.54-22.47-62.23.17-7.05.34-14.33-.32-20-.82-7-2.53-8.29-2.87-8.48a14.51,14.51,0,0,0-19.73,5.58,18.83,18.83,0,1,1-32.87-18.37,52.22,52.22,0,0,1,71-20.09c23.62,13.21,23,41.55,22.47,62.24C374.57,512.34,374.4,519.62,375.06,525.3ZM556.16,362a18.83,18.83,0,1,1,27.07-26.19l33.25,34.38L650.86,337a18.82,18.82,0,0,1,26.63.44h0A18.87,18.87,0,0,1,677,364l-34.38,33.25,33.25,34.38a18.83,18.83,0,0,1-27.07,26.18l-33.25-34.38-34.38,33.25A18.83,18.83,0,0,1,555,429.64l34.38-33.24ZM704.88,934.89A31.14,31.14,0,0,0,760,918.3a18.83,18.83,0,0,1,37.47,3.78A68.92,68.92,0,0,1,729.05,984a67.81,67.81,0,0,1-6.95-.35,68.9,68.9,0,0,1-61.58-75.38A18.83,18.83,0,1,1,698,912.06,31,31,0,0,0,704.88,934.89Zm12-365.57A18.83,18.83,0,1,1,746.5,546l29.56,37.6,37.6-29.55a18.83,18.83,0,0,1,23.27,29.61l-37.6,29.55,29.56,37.6a18.83,18.83,0,0,1-29.61,23.28l-29.56-37.6-37.6,29.55a18.83,18.83,0,0,1-23.28-29.61l37.61-29.55Zm441.36-169.46a85.57,85.57,0,0,1-119.61,17.63,18.83,18.83,0,0,1,22.46-30.23A47.9,47.9,0,0,0,1128,377.4a18.85,18.85,0,0,1,26.35-3.89h0A18.86,18.86,0,0,1,1158.25,399.86ZM1438.2,559a18.83,18.83,0,1,1,13.13-35.3,52.22,52.22,0,0,1,30.7,67.08c-9.44,25.36-37.55,29-58.07,31.72-9.13,1.19-26.13,3.41-27.65,7.51a14.51,14.51,0,0,0,8.53,18.64,18.84,18.84,0,0,1-6.56,36.49,19,19,0,0,1-6.58-1.19A52.21,52.21,0,0,1,1361,616.85c9.43-25.36,37.54-29,58.07-31.72,9.13-1.19,26.13-3.41,27.65-7.51A14.51,14.51,0,0,0,1438.2,559Zm155.54-85.21a14.52,14.52,0,0,0-17.13-11.26,18.83,18.83,0,0,1-7.63-36.88,52.21,52.21,0,0,1,61.64,40.51c5.48,26.5-16.38,44.55-32.34,57.73-7.1,5.86-20.32,16.78-19.43,21A14.51,14.51,0,0,0,1596,556.18a18.83,18.83,0,1,1,7.63,36.88A52.11,52.11,0,0,1,1542,552.55c-5.48-26.5,16.37-44.55,32.33-57.72C1581.41,489,1594.62,478.05,1593.74,473.77Zm-20.33,208.12a51.77,51.77,0,0,1,15.8,36.65,14.51,14.51,0,0,0,14.49,14.3h.2a52.2,52.2,0,0,1,52.87,51.44,14.53,14.53,0,0,0,14.49,14.3h.21a18.83,18.83,0,0,1,.51,37.66h-.73a52.22,52.22,0,0,1-52.14-51.44,14.51,14.51,0,0,0-14.49-14.3h-.92a52.21,52.21,0,0,1-52.15-51.44,14.51,14.51,0,0,0-14.49-14.3h-.47a18.83,18.83,0,0,1-.25-37.66A51.77,51.77,0,0,1,1573.41,681.89Zm188.73,22.81a31.18,31.18,0,0,0,42.56-11.43,18.83,18.83,0,0,1,32.63,18.81,68.39,68.39,0,0,1-41.77,32.07,69.45,69.45,0,0,1-18,2.39,68.84,68.84,0,0,1-59.46-103.2,18.83,18.83,0,1,1,32.63,18.8A31.18,31.18,0,0,0,1762.14,704.7Zm284.08,359.37a18.85,18.85,0,0,1,6.17-25.91h0a18.85,18.85,0,0,1,25.91,6.17,68.83,68.83,0,0,1-117.22,72.17,18.84,18.84,0,0,1,32.08-19.75,31.16,31.16,0,1,0,53.06-32.68Zm-5.39-151.14-48.9,87.21a18.83,18.83,0,0,1-32.85-18.42l48.9-87.21a18.83,18.83,0,1,1,32.85,18.42Zm-59.25-405.52A47.87,47.87,0,0,0,1943,451.86a18.83,18.83,0,0,1,6.69-37.07,85.57,85.57,0,0,1,69,99.3,18.84,18.84,0,0,1-18.49,15.5,18.48,18.48,0,0,1-3.38-.31A18.85,18.85,0,0,1,1981.58,507.41ZM1915.39,809a47.44,47.44,0,0,0-25.4-26.34,18.83,18.83,0,0,1,.62-34.79,18.66,18.66,0,0,1,14.41.25,85.58,85.58,0,0,1,44.29,112.5,18.83,18.83,0,0,1-34.54-15A47.47,47.47,0,0,0,1915.39,809ZM1732.05,936.86a18.83,18.83,0,1,1,8.28-36.74L1787,910.64,1797.51,864a18.83,18.83,0,1,1,36.74,8.29l-10.52,46.65,46.65,10.53a18.83,18.83,0,1,1-8.29,36.74l-46.65-10.53-10.53,46.66a18.83,18.83,0,0,1-36.74-8.29l10.53-46.66Zm-40.64,170.89a31.2,31.2,0,0,0-38.84,20.82,18.83,18.83,0,0,1-36-10.89,68.82,68.82,0,0,1,131.77,39.8,18.83,18.83,0,0,1-36.06-10.89A31.19,31.19,0,0,0,1691.41,1107.75Zm-62-124.5a18.83,18.83,0,1,1,17.93,29.82,19.46,19.46,0,0,1-2.75.2,18.83,18.83,0,0,1-15.18-30Zm218.91,107.8a18.83,18.83,0,1,1,18.74,20.25c-.46,0-.93,0-1.4,0a18.81,18.81,0,0,1-17.34-20.2Zm36.36-449.69a18.83,18.83,0,1,1,17.21,30.24,19.72,19.72,0,0,1-2.3.14,18.82,18.82,0,0,1-14.91-30.38Zm39.5-87.79a52.18,52.18,0,0,1-73.1,9.91,14.52,14.52,0,0,0-20.32,2.76,18.83,18.83,0,0,1-30-22.81,52.22,52.22,0,0,1,73.1-9.92,14.52,14.52,0,0,0,20.32-2.75,18.83,18.83,0,0,1,30,22.81Zm-179.58-41-46.19,88.68a18.83,18.83,0,1,1-33.4-17.4l46.18-88.68a18.84,18.84,0,0,1,25.4-8h0a18.82,18.82,0,0,1,8,25.4ZM1531.35,912.92a84.9,84.9,0,0,1,62.2-20.28,18.83,18.83,0,0,1-2.94,37.55,47.88,47.88,0,0,0-51.41,43.95,18.86,18.86,0,0,1-18.76,17.36c-.49,0-1,0-1.49-.06a18.84,18.84,0,0,1-17.3-20.24A84.92,84.92,0,0,1,1531.35,912.92Zm-22.5-87.13a52.21,52.21,0,0,1-73.76,0,14.53,14.53,0,0,0-20.51,0,18.7,18.7,0,0,1-13.3,5.51h0A18.84,18.84,0,0,1,1388,799.07a51.82,51.82,0,0,1,36.86-15.23h0a51.8,51.8,0,0,1,36.87,15.29,14.4,14.4,0,0,0,10.25,4.24h0a14.39,14.39,0,0,0,10.24-4.23,18.83,18.83,0,1,1,26.61,26.65ZM1485.09,730a19,19,0,0,1-12.35,7.43,18.27,18.27,0,0,1-2.75.2,18.82,18.82,0,1,1,15.1-7.63ZM1368.48,956.67a14.53,14.53,0,0,0,12.16-16.52,18.83,18.83,0,1,1,37.23-5.66,52.2,52.2,0,0,1-43.72,59.41,14.51,14.51,0,0,0-12.15,16.51,18.82,18.82,0,0,1-15.79,21.45,18.21,18.21,0,0,1-2.84.22,18.87,18.87,0,0,1-18.61-16A52.22,52.22,0,0,1,1368.48,956.67Zm-134.19,142.11a18.83,18.83,0,0,1-9.4,33.5,19.38,19.38,0,0,1-2.28.14,18.71,18.71,0,0,1-11.6-4,52.22,52.22,0,0,1-8.78-73.24,14.51,14.51,0,0,0-2.44-20.36,52.22,52.22,0,0,1-8.77-73.24,14.52,14.52,0,0,0-2.44-20.36,18.83,18.83,0,1,1,23.27-29.61,52.22,52.22,0,0,1,8.78,73.24,14.51,14.51,0,0,0,2.44,20.36,52.21,52.21,0,0,1,8.77,73.24A14.52,14.52,0,0,0,1234.29,1098.78Zm7.2-266.25a18.83,18.83,0,1,1,31.08-21.27h0l37.63,55a18.83,18.83,0,0,1-31.09,21.27Zm50.1,321.45a18.67,18.67,0,0,1,9.44-10.89l59.61-29.83a18.83,18.83,0,0,1,16.85,33.69l-59.61,29.82a18.83,18.83,0,0,1-26.29-22.79Zm57.34-419.35a18.88,18.88,0,0,1-18.33,14.51,18.42,18.42,0,0,1-4.33-.51l-97.31-23a18.83,18.83,0,1,1,8.66-36.65l97.31,23A18.85,18.85,0,0,1,1348.93,734.63Zm-71.14-147a68.37,68.37,0,0,1-48,21.75c-.79,0-1.58,0-2.38,0a68.72,68.72,0,1,1,50.35-21.79Zm-223,737.52a18.82,18.82,0,0,1,9.76-24.77,18.85,18.85,0,0,1,24.78,9.77A68.82,68.82,0,0,1,963.05,1365a18.83,18.83,0,0,1,34.54-15,31.17,31.17,0,0,0,57.17-24.84Zm20.36-144.84a14.52,14.52,0,0,0-16.49,12.19,52.23,52.23,0,0,1-59.31,43.87,14.52,14.52,0,0,0-16.48,12.19,18.84,18.84,0,0,1-18.58,16,18,18,0,0,1-2.83-.22,18.83,18.83,0,0,1-15.84-21.41,52.22,52.22,0,0,1,59.31-43.86,14.52,14.52,0,0,0,16.48-12.19,52.23,52.23,0,0,1,59.31-43.87,14.5,14.5,0,0,0,16.48-12.19,18.83,18.83,0,1,1,37.25,5.58A52.22,52.22,0,0,1,1075.12,1180.27ZM872.58,1439.06a18.83,18.83,0,1,1,36.39,9.72l-17.2,64.4a18.87,18.87,0,0,1-18.2,14,18.48,18.48,0,0,1-4.85-.64,18.85,18.85,0,0,1-13.34-23Zm-8-147.15A18.83,18.83,0,1,1,880.07,1323c-.43,0-.86,0-1.29,0a18.82,18.82,0,0,1-14.24-31.17ZM863,1039.19a68.88,68.88,0,0,1,68.82-68.8h0a68.83,68.83,0,0,1,0,137.65h0A68.91,68.91,0,0,1,863,1039.19Zm126.4-371.84A18.83,18.83,0,0,1,993,704.84l-66.35,6.35q-.92.09-1.83.09a18.83,18.83,0,0,1-1.76-37.58l66.36-6.35Zm84.05,351.59a18.82,18.82,0,0,1,25.14-8.76h0a18.83,18.83,0,1,1-25.15,8.76Zm29.41-155c-8.34,3.92-23.85,11.21-24,15.57a14.51,14.51,0,0,0,13.8,15.16,18.83,18.83,0,0,1-.86,37.64c-.3,0-.6,0-.91,0a52.21,52.21,0,0,1-49.66-54.54c1.27-27,26.92-39.09,45.65-47.89,8.34-3.92,23.86-11.22,24.06-15.58a14.52,14.52,0,0,0-13.8-15.16,18.83,18.83,0,0,1,1.76-37.62A52.21,52.21,0,0,1,1148.52,816C1147.25,843.07,1121.6,855.12,1102.87,863.93Zm39.86-153.08-1,0a52.22,52.22,0,0,1-49.53-54.67A14.51,14.51,0,0,0,1078.49,641a18.83,18.83,0,1,1,1.85-37.62A52.23,52.23,0,0,1,1129.87,658a14.51,14.51,0,0,0,13.76,15.19,18.83,18.83,0,0,1-.9,37.64ZM1032.67,495.44a68.71,68.71,0,1,1-41.38-32.57A68.37,68.37,0,0,1,1032.67,495.44ZM915.73,808.28l31.76-35.77a18.83,18.83,0,0,1,28.16,25L943.9,833.28,979.66,865a18.83,18.83,0,1,1-25,28.16l-35.76-31.75-31.76,35.76a18.71,18.71,0,0,1-13,6.29c-.38,0-.76,0-1.14,0a18.83,18.83,0,0,1-14-31.34l31.76-35.76L855,804.68a18.83,18.83,0,1,1,25-28.16ZM860,1153.77h0a18.84,18.84,0,0,1,14.93,22,52.23,52.23,0,0,1-61.09,41.35,14.53,14.53,0,0,0-17,11.49,18.85,18.85,0,0,1-18.45,15.28,19.17,19.17,0,0,1-3.6-.35,18.86,18.86,0,0,1-14.93-22A52.21,52.21,0,0,1,821,1180.19a14.53,14.53,0,0,0,17-11.5A18.84,18.84,0,0,1,860,1153.77ZM757.12,1367.05a14.52,14.52,0,0,0-17.64-10.45A52.23,52.23,0,0,1,676,1319a14.5,14.5,0,0,0-17.64-10.45,18.83,18.83,0,0,1-9.34-36.48,52.21,52.21,0,0,1,63.47,37.58,14.52,14.52,0,0,0,17.64,10.45,52.21,52.21,0,0,1,63.48,37.58,14.52,14.52,0,0,0,17.64,10.45,18.83,18.83,0,0,1,9.35,36.48,52.13,52.13,0,0,1-63.48-37.58Zm20.44,147.28a18.9,18.9,0,0,1-12.42,7.31,18.65,18.65,0,0,1-2.58.18,18.82,18.82,0,1,1,15-7.49ZM628.88,738.84a14.37,14.37,0,0,0-10.1-4.58A18.83,18.83,0,1,1,620,696.62a52.2,52.2,0,0,1,50.46,53.8c-.87,27.05-26.35,39.48-45,48.56-8.27,4-23.68,11.56-23.82,15.93a14.52,14.52,0,0,0,14,15,18.84,18.84,0,0,1-.59,37.66h-.62A52.21,52.21,0,0,1,564,813.7c.87-27.05,26.34-39.48,44.94-48.56,8.28-4,23.68-11.56,23.82-15.93A14.37,14.37,0,0,0,628.88,738.84Zm-48,246.36a18.82,18.82,0,0,1-13,23.26,19.17,19.17,0,0,1-5.18.73,18.87,18.87,0,0,1-18.08-13.7l-18.22-64.12a18.83,18.83,0,0,1,36.23-10.29Zm-12.72,87.47,64.14-18.13a18.84,18.84,0,1,1,10.25,36.25l-64.14,18.13a18.84,18.84,0,0,1-10.25-36.25Zm93.15,93.1a18.84,18.84,0,1,1,.74,14.4A18.91,18.91,0,0,1,661.36,1165.77ZM745,1076.92a18.84,18.84,0,1,1,18.72,20.59,16.56,16.56,0,0,1-1.73-.08,18.83,18.83,0,0,1-17-20.51Zm42-259.11A18.83,18.83,0,0,1,765.86,849a85.56,85.56,0,0,1-22.8-118.73,18.84,18.84,0,0,1,26.15-5,18.85,18.85,0,0,1,5,26.16A47.89,47.89,0,0,0,787,817.81ZM595,547.43a68.9,68.9,0,0,1,16.92,95.85A18.75,18.75,0,0,1,599.74,651a19.48,19.48,0,0,1-3.31.29A18.84,18.84,0,0,1,581,621.68,31.16,31.16,0,0,0,530,585.94a18.83,18.83,0,1,1-30.85-21.6A68.89,68.89,0,0,1,595,547.43Zm-80,147a18.83,18.83,0,0,1,1.14,37.65c-.89,0-1.77,0-2.64,0a85.59,85.59,0,0,1-85.4-82.91,18.83,18.83,0,0,1,37.65-1.14A47.87,47.87,0,0,0,515,694.46ZM290.91,716.92c7,.62,14.27,1.26,20,1,7-.36,8.43-2,8.64-2.31a14.52,14.52,0,0,0-4.29-20.05A18.83,18.83,0,0,1,335.7,663.9,52.22,52.22,0,0,1,351.15,736c-14.7,22.72-42.94,20.22-63.55,18.4-7-.62-14.27-1.26-20-1-7,.36-8.44,2-8.64,2.31a14.52,14.52,0,0,0,4.29,20.05,18.83,18.83,0,0,1-20.46,31.62,52.22,52.22,0,0,1-15.45-72.13C242.05,712.6,270.29,715.1,290.91,716.92Zm39.37,342.3a18.83,18.83,0,0,1-25.62,27.61,52.22,52.22,0,0,1-2.74-73.72,14.52,14.52,0,0,0-.77-20.49,52.22,52.22,0,0,1-2.74-73.71,14.53,14.53,0,0,0-.76-20.49,18.83,18.83,0,0,1,25.62-27.6A52.2,52.2,0,0,1,326,944.53a14.52,14.52,0,0,0,.77,20.49h0a52.23,52.23,0,0,1,2.74,73.72A14.5,14.5,0,0,0,330.28,1059.22ZM274.51,597.76a18.68,18.68,0,0,1-12.41,7.33l-66,9.37a18.61,18.61,0,0,1-2.66.19,18.83,18.83,0,0,1-2.64-37.48l66-9.37a18.83,18.83,0,0,1,17.7,30ZM181.27,850.44a18.83,18.83,0,0,1-23.84,25.35L95.09,852.18A18.83,18.83,0,0,1,108.43,817l62.34,23.61A18.74,18.74,0,0,1,181.27,850.44ZM152.42,694.61a52.22,52.22,0,0,1-62.19,39.67,14.53,14.53,0,0,0-17.29,11,18.83,18.83,0,0,1-36.77-8.13,52.21,52.21,0,0,1,62.19-39.67,14.51,14.51,0,0,0,17.28-11,18.83,18.83,0,0,1,36.78,8.13ZM62.76,917.9A18.71,18.71,0,0,1,75,910.29a52.22,52.22,0,0,1,59.94,43,14.52,14.52,0,0,0,16.66,12,52.22,52.22,0,0,1,59.94,43,14.53,14.53,0,0,0,16.66,12,18.83,18.83,0,1,1,6.12,37.16,52.76,52.76,0,0,1-8.56.7,52.23,52.23,0,0,1-51.38-43.7,14.53,14.53,0,0,0-16.66-12,52.2,52.2,0,0,1-59.94-43,14.51,14.51,0,0,0-16.66-11.95A18.83,18.83,0,0,1,62.76,917.9Zm136,483.24a68.92,68.92,0,1,1,50.54,83.18A68.9,68.9,0,0,1,198.75,1401.14Zm136,185.79a18.82,18.82,0,0,1,22.49-14.26l65.05,14.56a18.83,18.83,0,0,1,6,34.28,18.64,18.64,0,0,1-10,2.94,19.64,19.64,0,0,1-4.16-.46l-65-14.57a18.84,18.84,0,0,1-14.26-22.49Zm16.81-343.38a14.51,14.51,0,0,0-11,17.33,18.83,18.83,0,1,1-36.74,8.27,52.21,52.21,0,0,1,39.43-62.34,14.52,14.52,0,0,0,11-17.33,18.83,18.83,0,0,1,36.74-8.27,52.2,52.2,0,0,1-39.43,62.34Zm25-406.75a18.82,18.82,0,0,1,2.6-26.5,52.22,52.22,0,0,1,73.42,7.21,14.51,14.51,0,0,0,20.4,2h0a18.83,18.83,0,0,1,23.9,29.11,52.22,52.22,0,0,1-73.41-7.22,14.52,14.52,0,0,0-20.41-2A18.84,18.84,0,0,1,376.6,836.8Zm36.56,529a18.85,18.85,0,0,1,24.77-9.79h0a18.83,18.83,0,1,1-24.77,9.79ZM439,1099.73H439a18.83,18.83,0,0,1-18.76-18.89l.33-100a18.85,18.85,0,0,1,18.83-18.77h.06A18.83,18.83,0,0,1,458.2,981l-.33,100A18.83,18.83,0,0,1,439,1099.73Zm115,331.75a68.9,68.9,0,1,1-1,52.66A68.41,68.41,0,0,1,554,1431.48Zm407.71,81.91a18.83,18.83,0,1,1,25.11-28.07,47.88,47.88,0,0,0,67.53-3.77,18.85,18.85,0,0,1,26.59-1.48h0a18.85,18.85,0,0,1,1.48,26.59,85.58,85.58,0,0,1-120.71,6.73Zm171.3-111.3a18.83,18.83,0,1,1,17.93,29.82,18.08,18.08,0,0,1-2.75.2,18.83,18.83,0,0,1-15.18-30Zm195.78,10.55a68.83,68.83,0,1,1-50.56,83.18A68.9,68.9,0,0,1,1328.82,1412.64Zm75.37,377.91a18.84,18.84,0,0,1,34.56-4l32.51,58.19a18.83,18.83,0,1,1-32.88,18.37l-32.51-58.19A18.74,18.74,0,0,1,1404.19,1790.55Zm5-512.38c-7-.75-14.25-1.52-20-1.34-7,.23-8.47,1.84-8.69,2.15a14.54,14.54,0,0,0,3.92,20.13,18.83,18.83,0,1,1-21,31.23,52.22,52.22,0,0,1-14.11-72.4c15.12-22.44,43.3-19.42,63.88-17.22,7,.75,14.25,1.53,20,1.34,7-.23,8.47-1.83,8.68-2.15a14.51,14.51,0,0,0-3.92-20.12,18.84,18.84,0,0,1,21-31.24h0a52.23,52.23,0,0,1,14.1,72.41C1457.93,1283.4,1429.74,1280.38,1409.17,1278.17Zm49.5-187.32a18.83,18.83,0,1,1,9.66-36.4l64.43,17.1a18.83,18.83,0,1,1-9.66,36.4Zm129.82,97.81c27,.89,39.46,26.38,48.53,45,4,8.28,11.54,23.69,15.9,23.83a14.52,14.52,0,0,0,15-14,18.83,18.83,0,1,1,37.64,1.24,52.22,52.22,0,0,1-52.09,50.45c-.58,0-1.17,0-1.75,0-27-.89-39.46-26.37-48.53-45-4-8.28-11.54-23.69-15.91-23.83a14.52,14.52,0,0,0-15,14,18.83,18.83,0,1,1-37.64-1.24A52.2,52.2,0,0,1,1588.49,1188.66Zm48.63,506.59a18.83,18.83,0,0,1-34.51,4.44l-33.16-57.82a18.83,18.83,0,0,1,32.67-18.74l33.16,57.83A18.73,18.73,0,0,1,1637.12,1695.25Zm-41.61-145.62a18.83,18.83,0,1,1-.58-14.39A19,19,0,0,1,1595.51,1549.63Zm-29.76,211.88a47.88,47.88,0,0,0,67.58,2.76h0a18.83,18.83,0,0,1,25.53,27.69,84.86,84.86,0,0,1-57.84,22.59c-1.19,0-2.39,0-3.58-.07a84.92,84.92,0,0,1-59.38-27.44,18.83,18.83,0,0,1,27.69-25.53Zm91.4-376.11a18.82,18.82,0,0,1,23.84-11.86,47.88,47.88,0,0,0,60.55-30.13,18.86,18.86,0,0,1,23.85-11.87h0a18.83,18.83,0,0,1,11.86,23.85A85.37,85.37,0,0,1,1669,1409.25a18.83,18.83,0,0,1-11.86-23.85ZM1776,1237.34a18.85,18.85,0,0,1,2.79-26.48,52.22,52.22,0,0,1,73.36,7.74,14.51,14.51,0,0,0,20.39,2.16,52.22,52.22,0,0,1,73.36,7.74,14.51,14.51,0,0,0,20.39,2.16,18.83,18.83,0,0,1,23.68,29.28,52.19,52.19,0,0,1-73.35-7.75,14.52,14.52,0,0,0-20.39-2.15,52.22,52.22,0,0,1-73.36-7.75,14.52,14.52,0,0,0-20.39-2.15A18.85,18.85,0,0,1,1776,1237.34Zm161.18,253a85,85,0,0,1,64-13.35,18.83,18.83,0,0,1-7,37,47.9,47.9,0,0,0-55.91,38.07,18.84,18.84,0,0,1-18.46,15.32,19.38,19.38,0,0,1-3.55-.33,18.83,18.83,0,0,1-15-22A84.93,84.93,0,0,1,1937.17,1490.35Zm73.45-96.85c-.47,0-.94,0-1.41,0a18.83,18.83,0,0,1-1.34-37.61,47.87,47.87,0,0,0,44.21-51.19,18.83,18.83,0,0,1,37.57-2.74A85.59,85.59,0,0,1,2010.62,1393.5ZM2095,405.38a18.81,18.81,0,0,1-18,13.29,18.77,18.77,0,0,1-5.51-.82A18.83,18.83,0,1,1,2095,405.38Zm7.23,103.07a18.81,18.81,0,1,1-14.1,3A18.93,18.93,0,0,1,2102.22,508.45Zm0-436A18.84,18.84,0,1,1,2121,92.77c-.49,0-1,0-1.46,0a18.84,18.84,0,0,1-17.29-20.26Zm-30.42,127a18.85,18.85,0,0,1,25.82-6.54h0a18.86,18.86,0,0,1,6.54,25.82L2070,276a18.68,18.68,0,0,1-11.55,8.61,19.08,19.08,0,0,1-4.66.59,18.85,18.85,0,0,1-16.15-28.48Zm-189-85.7,46.2-12.35L1916.63,55.2A18.83,18.83,0,1,1,1953,45.47l12.36,46.21,46.2-12.36a18.83,18.83,0,0,1,9.73,36.39l-46.2,12.35,12.35,46.2a18.84,18.84,0,0,1-13.33,23.06,18.5,18.5,0,0,1-4.86.64,18.86,18.86,0,0,1-18.19-14l-12.36-46.2-46.2,12.36a18.83,18.83,0,0,1-9.73-36.39Zm-49.17,140.43a18.83,18.83,0,0,1,24.9-9.43l91.16,41.09a18.83,18.83,0,1,1-15.48,34.34L1843,279.1a18.83,18.83,0,0,1-9.42-24.91ZM1826,329.84a18.84,18.84,0,0,1,24.54,10.34A68.82,68.82,0,0,1,1723,392.08a18.83,18.83,0,1,1,34.89-14.2,31.16,31.16,0,0,0,57.72-23.5A18.84,18.84,0,0,1,1826,329.84ZM1701.39,79.68A68.82,68.82,0,1,1,1752.75,196l-1.63,0a68.8,68.8,0,0,1-49.73-116.33Zm-88.68,201.18,2.39-47.76a18.83,18.83,0,0,1,37.62,1.88l-2.4,47.77,47.77,2.4a18.83,18.83,0,0,1-1.89,37.61l-47.76-2.4-2.4,47.77a18.85,18.85,0,0,1-18.8,17.89l-1,0a18.84,18.84,0,0,1-17.87-19.76l2.4-47.76-47.77-2.4a18.83,18.83,0,1,1,1.89-37.61ZM1483.26,50.35a52.23,52.23,0,0,1,73.32,8.17c16.89,21.14,5.59,47.13-2.67,66.11-3.67,8.45-10.5,24.17-7.78,27.58a14.51,14.51,0,0,0,20.38,2.27A18.83,18.83,0,1,1,1590,183.9a52.21,52.21,0,0,1-73.31-8.17c-16.89-21.14-5.59-47.13,2.67-66.11,3.67-8.45,10.5-24.17,7.78-27.58a14.51,14.51,0,0,0-20.38-2.27,18.83,18.83,0,0,1-23.52-29.42Zm-9.07,320.45h0a18.85,18.85,0,0,1,16.58,20.84A52.23,52.23,0,0,1,1433,437.56a14.5,14.5,0,0,0-16,12.76,18.85,18.85,0,0,1-18.68,16.7,17.67,17.67,0,0,1-2.17-.13,18.85,18.85,0,0,1-16.58-20.84,52.21,52.21,0,0,1,57.74-45.91,14.52,14.52,0,0,0,16-12.77A18.85,18.85,0,0,1,1474.19,370.8Zm-41.44-191.4h0a18.86,18.86,0,0,1,26,5.81A68.83,68.83,0,0,1,1342.51,259a18.83,18.83,0,1,1,31.8-20.18,31.16,31.16,0,0,0,52.63-33.39A18.85,18.85,0,0,1,1432.75,179.4Zm-180-96.64a18.86,18.86,0,0,1,21-16.41l47.47,5.81L1327,24.69a18.83,18.83,0,0,1,37.39,4.58l-5.81,47.47,47.47,5.81a18.83,18.83,0,0,1-4.58,37.39L1354,114.12l-5.81,47.48a18.86,18.86,0,0,1-18.68,16.54,19.85,19.85,0,0,1-2.3-.14,18.83,18.83,0,0,1-16.41-21l5.81-47.47-47.47-5.81A18.86,18.86,0,0,1,1252.76,82.76Zm15.57,196.41a68.82,68.82,0,1,1,7.21,137.46c-1.22.06-2.44.1-3.65.1a68.83,68.83,0,0,1-3.56-137.56Zm-88.78-93.48a14.52,14.52,0,0,0,16.17-12.61,18.85,18.85,0,0,1,21-16.36,18.84,18.84,0,0,1,16.37,21,52.14,52.14,0,0,1-58.19,45.34,14.53,14.53,0,0,0-16.17,12.6A52.21,52.21,0,0,1,1100.55,281a14.53,14.53,0,0,0-16.17,12.6A18.83,18.83,0,1,1,1047,289a52.22,52.22,0,0,1,58.19-45.34A14.52,14.52,0,0,0,1121.36,231,52.22,52.22,0,0,1,1179.55,185.69ZM972.14,104.32a18.72,18.72,0,0,1,12.08-7.87l47-8.77-8.77-47a18.83,18.83,0,0,1,37-6.91l8.77,47,47-8.77a18.83,18.83,0,1,1,6.91,37l-47,8.77,8.77,47a18.84,18.84,0,0,1-15,22,18.65,18.65,0,0,1-3.46.32,18.86,18.86,0,0,1-18.51-15.38l-8.77-47-47,8.77a18.83,18.83,0,0,1-19-29.16Zm-19.57,149.4a14.52,14.52,0,0,0,2.12,20.39,52.23,52.23,0,0,1,7.62,73.38,14.5,14.5,0,0,0,2.12,20.39,18.83,18.83,0,0,1-23.74,29.24,52.22,52.22,0,0,1-7.62-73.37,14.51,14.51,0,0,0-2.12-20.4A52.22,52.22,0,0,1,923.33,230a14.51,14.51,0,0,0-2.11-20.39A18.83,18.83,0,0,1,945,180.35,52.22,52.22,0,0,1,952.57,253.72ZM904.07,4.92a18.84,18.84,0,0,1,26,5.62,18.83,18.83,0,0,1-5.62,26,47.88,47.88,0,0,0-14.27,66.11,18.85,18.85,0,0,1-5.63,26,18.84,18.84,0,0,1-26-5.62A85.58,85.58,0,0,1,904.07,4.92ZM832.15,215.68h0a18.84,18.84,0,0,1-3.22,34.65,18.65,18.65,0,0,1-5.54.83,18.83,18.83,0,1,1,8.76-35.48Zm-54.51-88.17a18.81,18.81,0,0,1,26.45-3h0A18.83,18.83,0,0,1,794.5,158a20.74,20.74,0,0,1-2.09.11,18.82,18.82,0,0,1-14.77-30.55ZM798.7,389.4c8-4.54,22.94-13,22.82-17.33A14.54,14.54,0,0,0,806.62,358a18.83,18.83,0,0,1-1.06-37.65A52.22,52.22,0,0,1,859.17,371c.76,27-23.92,41-41.94,51.17-8,4.54-22.94,13-22.82,17.33a14.55,14.55,0,0,0,14.9,14.09,18.83,18.83,0,1,1,1.06,37.65l-1.5,0a52.23,52.23,0,0,1-52.11-50.7C756,413.53,780.68,399.58,798.7,389.4Zm-68-343.49a18.83,18.83,0,1,1,18.4,29.53,18.34,18.34,0,0,1-3,.25,18.83,18.83,0,0,1-15.36-29.78ZM652.15,86.64a18.83,18.83,0,0,1,25.59-7.36,52.23,52.23,0,0,1,20.39,70.89,14.51,14.51,0,0,0,5.66,19.71,52.22,52.22,0,0,1,20.39,70.89,14.52,14.52,0,0,0,5.66,19.7,18.83,18.83,0,0,1-18.23,33,52.21,52.21,0,0,1-20.39-70.9,14.52,14.52,0,0,0-5.66-19.7,52.2,52.2,0,0,1-20.39-70.89,14.52,14.52,0,0,0-5.66-19.71,18.8,18.8,0,0,1-7.36-25.59ZM503.74,201.28l99.62-8.54a18.83,18.83,0,1,1,3.21,37.53L507,238.81c-.55,0-1.09.07-1.64.07a18.83,18.83,0,0,1-1.57-37.6ZM463.64,417.5a18.83,18.83,0,1,1,11.69,33.56,18.48,18.48,0,0,1-2.1-.12,18.82,18.82,0,0,1-9.59-33.44ZM408.06,156.34a18.84,18.84,0,1,1,17.84,24.81,18.73,18.73,0,0,1-6-1,18.83,18.83,0,0,1-11.86-23.84ZM367.83,71.71a18.84,18.84,0,1,1,.95,14.38A19,19,0,0,1,367.83,71.71ZM354,293l-10.94-46.56a18.83,18.83,0,1,1,36.66-8.62l10.94,46.56,46.56-10.93a18.83,18.83,0,1,1,8.61,36.66l-46.56,10.94,10.94,46.56a18.83,18.83,0,1,1-36.67,8.61l-10.93-46.56L316.05,340.6a18.83,18.83,0,1,1-8.61-36.67ZM285,128.74a18.83,18.83,0,0,1,11,36,47.89,47.89,0,0,0-31.72,59.74,18.83,18.83,0,1,1-36,11A85.58,85.58,0,0,1,285,128.74ZM168.71,92a18.83,18.83,0,1,1,14.69,31.54l-.8,0A18.84,18.84,0,0,1,168.71,92ZM141.16,335.64A68.8,68.8,0,1,1,96.31,422,68.9,68.9,0,0,1,141.16,335.64ZM46.82,184.37h-.55a18.83,18.83,0,0,1-.15-37.66A85.56,85.56,0,0,1,132.3,231.5a18.83,18.83,0,0,1-18.68,19h-.15a18.85,18.85,0,0,1-18.83-18.68A47.88,47.88,0,0,0,46.82,184.37ZM8.32,456.67a18.82,18.82,0,1,1,18.78,19.9c-.35,0-.69,0-1,0A18.84,18.84,0,0,1,8.32,456.67Zm4.07,150.87a18.83,18.83,0,0,1,9.84-24.75l61.21-26.4A18.83,18.83,0,0,1,98.35,591L37.14,617.37a18.64,18.64,0,0,1-7.43,1.54A18.87,18.87,0,0,1,12.39,607.54ZM61.49,1088a18.84,18.84,0,1,1,10.13-10.25A18.91,18.91,0,0,1,61.49,1088Zm-38,235a18.85,18.85,0,0,1,22.42-14.36,84.91,84.91,0,0,1,53.66,37.43,84.91,84.91,0,0,1,11.53,64.39,18.85,18.85,0,0,1-18.35,14.8,18.84,18.84,0,0,1-18.44-22.87,47.87,47.87,0,0,0-36.46-57A18.85,18.85,0,0,1,23.44,1323Zm21.19,355.6a18.68,18.68,0,1,1,3.85-.39A19.2,19.2,0,0,1,44.63,1678.58Zm39.73,331.54a18.83,18.83,0,0,1-24.14-11.24l-22.84-62.62a18.85,18.85,0,0,1,11.24-24.14,18.84,18.84,0,0,1,24.14,11.24L95.6,1986A18.85,18.85,0,0,1,84.36,2010.12ZM116,1755.84a47.49,47.49,0,0,0-36.56-1.59A18.86,18.86,0,0,1,55.28,1743a18.83,18.83,0,0,1,11.24-24.14h0a85.58,85.58,0,0,1,109.61,51,18.83,18.83,0,1,1-35.38,12.91A47.5,47.5,0,0,0,116,1755.84ZM164.4,1976.4A18.83,18.83,0,1,1,152,1940.83a47.89,47.89,0,0,0,29.46-60.89,18.85,18.85,0,0,1,11.6-24h0a18.85,18.85,0,0,1,24,11.6A85.58,85.58,0,0,1,164.4,1976.4Zm70-333.78a18.6,18.6,0,0,1-4-.43,18.93,18.93,0,1,1,4,.43ZM336.8,1970.07l-35.21,56.6a18.83,18.83,0,1,1-32-19.9l35.21-56.6a18.83,18.83,0,1,1,32,19.9Zm-12.16-121.72h-.34a85.6,85.6,0,0,1-84-87,18.83,18.83,0,0,1,32.38-12.73A18.67,18.67,0,0,1,278,1762a47.87,47.87,0,0,0,47,48.67,18.83,18.83,0,0,1-.33,37.66Zm8.27-130.14a18.83,18.83,0,1,1-5.76-37.22,52.23,52.23,0,0,1,59.52,43.57,14.51,14.51,0,0,0,16.55,12.11h0a18.83,18.83,0,1,1,5.76,37.22,52.41,52.41,0,0,1-8.07.62,52.23,52.23,0,0,1-51.46-44.19A14.51,14.51,0,0,0,332.91,1718.21Zm105.21,348a51.79,51.79,0,0,1-27.95,28.49,14.53,14.53,0,0,0-7.68,19,18.85,18.85,0,0,1-10,24.69,18.64,18.64,0,0,1-7.33,1.5,18.86,18.86,0,0,1-17.36-11.47,52.21,52.21,0,0,1,27.61-68.4,14.52,14.52,0,0,0,7.68-19,18.83,18.83,0,1,1,34.66-14.73A51.81,51.81,0,0,1,438.12,2066.22Zm24.17-112.52a18.85,18.85,0,0,1-26.31-4.11l-39.29-53.85a18.83,18.83,0,1,1,30.43-22.2h0l39.29,53.85A18.85,18.85,0,0,1,462.29,1953.7ZM474.6,1533a53.6,53.6,0,0,1-7.13-.48,51.79,51.79,0,0,1-34.5-20.06,14.51,14.51,0,0,0-20.32-2.75,18.83,18.83,0,1,1-22.82-30,52.19,52.19,0,0,1,73.1,9.89,14.53,14.53,0,0,0,20.32,2.75,18.83,18.83,0,0,1,22.82,30A51.7,51.7,0,0,1,474.6,1533Zm77.16,504.14a19,19,0,0,1-11.34,8.9,18.66,18.66,0,0,1-5,.69,18.83,18.83,0,1,1,16.37-9.59ZM577.33,1941a52,52,0,0,1-37.18-15.55c-19-19.28-10.41-46.3-4.15-66,2.79-8.78,8-25.12,4.91-28.23a14.37,14.37,0,0,0-10.22-4.32h-.12A14.43,14.43,0,0,0,520.4,1831a18.69,18.69,0,0,1-13.2,5.41h-.15A18.83,18.83,0,0,1,494,1804.15a52.21,52.21,0,0,1,73.76.59c19,19.29,10.41,46.31,4.15,66-2.78,8.77-8,25.11-4.91,28.23a14.53,14.53,0,0,0,20.51.16h0A18.83,18.83,0,1,1,613.91,1926,52,52,0,0,1,577.33,1941ZM678.78,2136.1a18.83,18.83,0,0,1-26.15-5L615.18,2076a18.83,18.83,0,1,1,31.16-21.16h0l37.44,55.14A18.85,18.85,0,0,1,678.78,2136.1ZM700,2013a18.83,18.83,0,0,1-9-35.39l87.9-47.65a18.83,18.83,0,1,1,18,33.11L709,2010.69A18.75,18.75,0,0,1,700,2013Zm85.5,116.92h-1a18.83,18.83,0,0,1,.22-37.66h.8A47.9,47.9,0,0,0,833.32,2045a18.83,18.83,0,0,1,18.82-18.61h.23A18.83,18.83,0,0,1,871,2045.4,85.59,85.59,0,0,1,785.51,2129.89Zm165.81-124.42a52.2,52.2,0,0,1-52-48.89A14.52,14.52,0,0,0,884,1943a18.83,18.83,0,0,1-2.37-37.59,52.22,52.22,0,0,1,55.33,48.79,14.52,14.52,0,0,0,15.38,13.56h0a18.83,18.83,0,0,1,2.37,37.59C953.54,2005.44,952.43,2005.47,951.32,2005.47Zm42.35,102.89a18.81,18.81,0,0,1-17.56,12,18.68,18.68,0,0,1-6.8-1.27A18.83,18.83,0,1,1,982.92,2084h0a18.82,18.82,0,0,1,10.75,24.36Zm-6.24-202c-6.59-26.24,14.5-45.19,29.89-59,6.86-6.16,19.61-17.62,18.54-21.85a14.52,14.52,0,0,0-17.58-10.54,18.83,18.83,0,0,1-9.17-36.53,52.23,52.23,0,0,1,63.29,37.91c6.58,26.24-14.51,45.19-29.9,59l-3.68-4.09,3.68,4.09c-6.85,6.16-19.6,17.61-18.54,21.85a14.52,14.52,0,0,0,17.59,10.53,18.83,18.83,0,1,1,9.16,36.53,51.75,51.75,0,0,1-39.48-5.86A51.8,51.8,0,0,1,987.43,1906.39Zm135.7,222a18.85,18.85,0,0,1-18.41,15,19.15,19.15,0,0,1-3.83-.39,18.71,18.71,0,0,1-11.93-8.09l-55-83.5a18.84,18.84,0,0,1,31.46-20.72h0l55,83.5A18.72,18.72,0,0,1,1123.13,2128.37Zm13.38-300.06a47.87,47.87,0,0,0-13.68-66.24,18.83,18.83,0,1,1,20.69-31.47h0A85.57,85.57,0,0,1,1168,1849a18.83,18.83,0,0,1-31.47-20.69Zm118.79,145a18.85,18.85,0,0,1-26.46,3,31.16,31.16,0,0,0-38.77,48.79,18.83,18.83,0,0,1-23.43,29.49,68.82,68.82,0,0,1,85.63-107.77h0a18.84,18.84,0,0,1,3,26.46ZM1322.57,2128a19.11,19.11,0,0,1-4,.44,18.87,18.87,0,0,1-18.39-14.82l-21.32-97.69a18.83,18.83,0,1,1,36.79-8l21.32,97.69A18.85,18.85,0,0,1,1322.57,2128Zm27.73-237.53a18.82,18.82,0,0,1-18.33,14.65,18.85,18.85,0,0,1-16-8.8l-53.23-84.64a18.86,18.86,0,0,1,5.92-26,18.83,18.83,0,0,1,26,5.91h0l53.23,84.64A18.7,18.7,0,0,1,1350.3,1890.44Zm-20.46-177.12c-1.29.11-2.55.17-3.78.17-24.64,0-39.15-22.35-49.88-38.88-5-7.62-14.11-21.71-18.53-21.71h-.18a14.52,14.52,0,0,0-13.14,15.74,18.83,18.83,0,1,1-37.51,3.38,52.23,52.23,0,0,1,47.28-56.63c27-2.43,42.39,21.35,53.66,38.71,5,7.62,14.11,21.71,18.53,21.71h.17a14.52,14.52,0,0,0,13.14-15.74,18.83,18.83,0,1,1,37.51-3.38A52.21,52.21,0,0,1,1329.84,1713.32Zm106.77,414.28a18.94,18.94,0,0,1-13,5.25h-.37a18.85,18.85,0,1,1,13.42-5.25Zm40.11-56.53a18.87,18.87,0,0,1-26.21-4.76l-56.93-82.19a18.83,18.83,0,0,1,31-21.45l56.93,82.2A18.85,18.85,0,0,1,1476.72,2071.07Zm-3.8-374.17a18.7,18.7,0,0,1-13.09,5.31h-.32a18.83,18.83,0,0,1-12.79-32.36,47.89,47.89,0,0,0,1.09-67.63,18.83,18.83,0,0,1,27.06-26.19A85.59,85.59,0,0,1,1472.92,1696.9Zm-3.28-252.27a68.88,68.88,0,1,1,55.24,27.64A68.34,68.34,0,0,1,1469.64,1444.63Zm190.78,577.25a18.85,18.85,0,0,1-26.62,1l-35-32.57-32.58,35a18.83,18.83,0,1,1-27.57-25.66l32.57-35-35-32.58a18.83,18.83,0,1,1,25.66-27.57l35,32.58,32.58-35a18.83,18.83,0,1,1,27.57,25.66l-32.58,35,35,32.58a18.83,18.83,0,0,1,1,26.61Zm17-494.19a18.83,18.83,0,0,1-5.16-36.94l64.1-18.27a18.83,18.83,0,1,1,10.32,36.22L1682.6,1527A18.79,18.79,0,0,1,1677.44,1527.69Zm124.44,504.45a18.72,18.72,0,0,1-11.58,8.58,47.89,47.89,0,0,0-34.78,58,18.85,18.85,0,0,1-13.69,22.84,18.53,18.53,0,0,1-4.58.57,18.85,18.85,0,0,1-18.26-14.26,85.58,85.58,0,0,1,62.16-103.69,18.84,18.84,0,0,1,20.73,28ZM1826.41,1861a68.91,68.91,0,0,1-68.68,65.12c-1.24,0-2.49,0-3.75-.1a18.83,18.83,0,0,1,2-37.61,31.16,31.16,0,0,0,3.36-62.23,18.83,18.83,0,0,1,2-37.61A68.89,68.89,0,0,1,1826.41,1861ZM1853,1671a18.85,18.85,0,0,1-24.63,10.11l-44.13-18.43-18.44,44.13a18.75,18.75,0,0,1-10.22,10.16,19,19,0,0,1-7.16,1.42,18.86,18.86,0,0,1-17.37-26.1l18.43-44.13-44.13-18.44a18.83,18.83,0,0,1,14.52-34.75l44.13,18.43,18.44-44.13a18.83,18.83,0,0,1,34.79.11,18.66,18.66,0,0,1,0,14.41L1798.71,1628l44.13,18.44A18.85,18.85,0,0,1,1853,1671Zm-.44-229.15a68.57,68.57,0,0,1-46.09-17.71,18.83,18.83,0,1,1,25.24-28,31.16,31.16,0,1,0,41.76-46.26,18.83,18.83,0,0,1,25.24-28,68.8,68.8,0,0,1-46.15,119.88Zm97.31,497.78-18.71,64A18.86,18.86,0,0,1,1913,2017.2a18.84,18.84,0,0,1-18.07-24.12l18.71-64a18.83,18.83,0,0,1,36.15,10.57Zm20.83-89.32a18.85,18.85,0,0,1-18.57,15.8,18.54,18.54,0,0,1-3-.25A52.21,52.21,0,0,1,1906,1806a14.53,14.53,0,0,0-12-16.65,18.83,18.83,0,1,1,6.06-37.17,52.23,52.23,0,0,1,43.08,59.88,14.52,14.52,0,0,0,12,16.65A18.85,18.85,0,0,1,1970.66,1850.35Zm25.45-159.22a68.9,68.9,0,0,1-90-37,18.83,18.83,0,1,1,34.75-14.51,31.16,31.16,0,1,0,57.51-24,18.84,18.84,0,0,1,34.76-14.52A68.9,68.9,0,0,1,1996.11,1691.13Zm77.31,288.78a19,19,0,0,1-12.34,7.44,18.35,18.35,0,0,1-2.77.21,18.83,18.83,0,1,1,15.11-7.65Zm9-201.68-45.65,48.57a18.83,18.83,0,1,1-27.45-25.79l45.66-48.57a18.83,18.83,0,1,1,27.44,25.79Zm48.7-153.89a18.83,18.83,0,1,1-33.3-17.58,47.88,47.88,0,0,0-20-64.62,18.83,18.83,0,1,1,17.59-33.31h0A85.59,85.59,0,0,1,2131.09,1624.34Z"/><path class="cls-1" d="M2055.84,645.59a31.16,31.16,0,1,0,26.55,14.76A30.92,30.92,0,0,0,2055.84,645.59Z"/><path class="cls-1" d="M1248.79,517.82a31.14,31.14,0,1,0,1.48,44h0a31.2,31.2,0,0,0-1.48-44Z"/><path class="cls-1" d="M522.62,1213.14a32.09,32.09,0,0,0-4.14-.27A31.16,31.16,0,0,0,493.84,1263a31.16,31.16,0,1,0,28.78-49.85Z"/><path class="cls-1" d="M931.83,1070.37a31.16,31.16,0,0,0,0-62.32h0a31.16,31.16,0,0,0,0,62.32Z"/><path class="cls-1" d="M515.13,2150h25.69l-.34-.16A30.94,30.94,0,0,0,515.13,2150Z"/><path class="cls-2" d="M2094,1867.16a18.83,18.83,0,0,0,34.36,15.43,47.76,47.76,0,0,1,21.6-22.82v-40.16l-1.52.44A85.35,85.35,0,0,0,2094,1867.16Z"/><path class="cls-2" d="M2104.26,1399.83A18.83,18.83,0,0,0,2099,1426l37,55.45a18.8,18.8,0,0,0,13.27,8.22l.7.09v-55.23l-19.63-29.43A18.85,18.85,0,0,0,2104.26,1399.83Z"/><path class="cls-2" d="M2140.82,912.46A18.84,18.84,0,0,0,2117,924.35l-21.15,63.21a18.85,18.85,0,0,0,11.88,23.83,18.56,18.56,0,0,0,6,1,18.88,18.88,0,0,0,17.88-12.86L2150,944.39V919.18A18.7,18.7,0,0,0,2140.82,912.46Z"/><path class="cls-2" d="M2119.5,92.72c.48,0,1,0,1.46,0a18.59,18.59,0,1,0-1.46,0Z"/><path class="cls-2" d="M2080.3,523.58a18.81,18.81,0,1,0,7.82-12.11A19,19,0,0,0,2080.3,523.58Z"/><path class="cls-2" d="M67.92,1170.54a18.84,18.84,0,0,0-25.35-8.17L0,1184.2v42.33l59.76-30.64A18.85,18.85,0,0,0,67.92,1170.54Z"/><path class="cls-2" d="M8.58,377a18.65,18.65,0,0,0,5,.69,18.86,18.86,0,0,0,18.15-13.8l26.75-96.34a18.83,18.83,0,1,0-36.29-10.07L0,337.55v34.32A18.66,18.66,0,0,0,8.58,377Z"/><path class="cls-2" d="M11.92,2025.38h0a18.83,18.83,0,0,0-11.92-3v55.29l17.27-26.18A18.85,18.85,0,0,0,11.92,2025.38Z"/><path class="cls-2" d="M60.37,1670a18.85,18.85,0,1,0-15.74,8.54,19.2,19.2,0,0,0,3.85-.39A19,19,0,0,0,60.37,1670Z"/><path class="cls-2" d="M1180.56,69.22a18.69,18.69,0,0,0,9.83,2.8,18.88,18.88,0,0,0,16.07-9l34.93-56.78a19.08,19.08,0,0,0,2.08-4.78l.42-1.49H1201l-26.64,43.31A18.85,18.85,0,0,0,1180.56,69.22Z"/><path class="cls-2" d="M2027.69,15.31a18.79,18.79,0,0,0,6.08,1,18.63,18.63,0,0,0,8.3-1.95,18.7,18.7,0,0,0,9.51-10.82,18.38,18.38,0,0,0,.66-2.52l.2-1h-47.85l4.28,4A51.52,51.52,0,0,0,2027.69,15.31Z"/><path class="cls-2" d="M1595.71,9.88a52.23,52.23,0,0,0,51.87,47c1.71,0,3.44-.08,5.17-.25A18.84,18.84,0,0,0,1649,19.17a14.52,14.52,0,0,1-15.85-13,50.48,50.48,0,0,0-1-6.17h-41.1l2.15,3.12A14.44,14.44,0,0,1,1595.71,9.88Z"/><path class="cls-2" d="M258.23,9.78a51.8,51.8,0,0,0,18.08,35.58,51.79,51.79,0,0,0,33.85,12.57c1.36,0,2.72,0,4.09-.16a18.83,18.83,0,0,0-2.9-37.55,14.38,14.38,0,0,1-10.54-3.45,14.38,14.38,0,0,1-5-9.89,52.36,52.36,0,0,0-1-6.88H254l2,3A14.48,14.48,0,0,1,258.23,9.78Z"/><path class="cls-2" d="M735.05,72.18a19,19,0,0,0,11,3.51,18.34,18.34,0,0,0,3-.25,18.83,18.83,0,1,0-14-3.26Z"/><path class="cls-2" d="M555.65,2115.36a68.74,68.74,0,0,0-89.25,32.18l-1.23,2.46h50a30.94,30.94,0,0,1,25.35-.16l.34.16h49.85l-1.23-2.46A68.92,68.92,0,0,0,555.65,2115.36Z"/><path class="cls-2" d="M130.85,2109.44a52.22,52.22,0,0,0-66.33-32.27,18.83,18.83,0,1,0,12.29,35.6,14.52,14.52,0,0,1,18.44,9c.12.36.54,2.47-3.51,8.23-3.28,4.68-8.26,10-13.07,15.14L74.11,2150h49.46C133,2135.82,135.36,2122.52,130.85,2109.44Z"/><path class="cls-2" d="M1883.54,2121.93a51.79,51.79,0,0,0,3.81-39.73,18.83,18.83,0,0,0-36,11,14.51,14.51,0,0,1-9.61,18.12,52.49,52.49,0,0,0-35.31,37.31l-.33,1.33h41.79a14.27,14.27,0,0,1,4.9-2.64A51.79,51.79,0,0,0,1883.54,2121.93Z"/><path class="cls-2" d="M982.92,2084h0a18.83,18.83,0,1,0-13.61,35.11,18.68,18.68,0,0,0,6.8,1.27,18.83,18.83,0,0,0,6.81-36.38Z"/><path class="cls-2" d="M1424,2095.2a18.83,18.83,0,1,0-.76,37.65h.37a18.83,18.83,0,0,0,.39-37.65Z"/><path class="cls-2" d="M549.29,442.87a18.83,18.83,0,0,0,31.92,13.85l34.38-33.25,33.25,34.38a18.83,18.83,0,0,0,27.07-26.18l-33.25-34.38L677,364a18.87,18.87,0,0,0,.45-26.63h0a18.82,18.82,0,0,0-26.63-.44l-34.38,33.24-33.25-34.38A18.83,18.83,0,1,0,556.16,362l33.25,34.38L555,429.64A18.7,18.7,0,0,0,549.29,442.87Z"/><path class="cls-2" d="M866.35,771.8A18.83,18.83,0,0,0,855,804.68l35.76,31.76L859,872.2a18.84,18.84,0,0,0,14,31.34c.38,0,.76,0,1.14,0a18.71,18.71,0,0,0,13-6.29l31.76-35.76,35.76,31.75a18.83,18.83,0,0,0,25-28.16L943.9,833.28l31.75-35.76a18.83,18.83,0,0,0-28.16-25l-31.76,35.77L880,776.52A18.69,18.69,0,0,0,866.35,771.8Z"/><path class="cls-2" d="M1287.88,1264a18.82,18.82,0,0,0-25-9.3l-43.51,19.87-19.87-43.5a18.83,18.83,0,0,0-34.26,15.65l19.88,43.5-43.5,19.87a18.83,18.83,0,1,0,15.64,34.26l43.51-19.87,19.87,43.5a18.83,18.83,0,1,0,34.26-15.65l-19.88-43.5,43.51-19.87A18.87,18.87,0,0,0,1287.88,1264Z"/><path class="cls-2" d="M1892.51,150.15l46.2-12.36,12.36,46.2a18.86,18.86,0,0,0,18.19,14,18.84,18.84,0,0,0,16.3-9.41,18.69,18.69,0,0,0,1.89-14.29l-12.35-46.2,46.2-12.35a18.83,18.83,0,0,0-9.73-36.39l-46.2,12.36L1953,45.47a18.83,18.83,0,0,0-36.38,9.73L1929,101.41l-46.2,12.35a18.83,18.83,0,0,0,9.73,36.39Z"/><path class="cls-2" d="M1624.44,1962.69l32.58-35a18.83,18.83,0,1,0-27.57-25.66l-32.58,35-35-32.58A18.83,18.83,0,1,0,1536.2,1932l35,32.58-32.57,35a18.83,18.83,0,0,0,27.57,25.66l32.58-35,35,32.57a18.83,18.83,0,1,0,25.66-27.57Z"/><path class="cls-2" d="M705.68,662.92a18.85,18.85,0,0,0,26.44,3.16l37.6-29.55,29.56,37.6a18.83,18.83,0,0,0,29.61-23.28l-29.56-37.6,37.6-29.55a18.83,18.83,0,1,0-23.27-29.61l-37.6,29.55L746.5,546a18.83,18.83,0,1,0-29.61,23.28l29.56,37.6-37.61,29.55A18.86,18.86,0,0,0,705.68,662.92Z"/><path class="cls-2" d="M185.73,1267.49a18.78,18.78,0,0,0,24.94,9.33,18.84,18.84,0,0,0,9.33-24.94l-19.82-43.53,43.52-19.82a18.83,18.83,0,1,0-15.61-34.27l-43.52,19.82-19.82-43.53a18.83,18.83,0,0,0-34.28,15.61l19.82,43.53-43.52,19.82a18.83,18.83,0,0,0,15.61,34.28L165.9,1224Z"/><path class="cls-2" d="M1545.19,296.33a18.85,18.85,0,0,0,17.86,19.75l47.77,2.4-2.4,47.76A18.84,18.84,0,0,0,1626.29,386l1,0a18.85,18.85,0,0,0,18.8-17.89l2.4-47.77,47.76,2.4A18.85,18.85,0,0,0,1716,304.9a18.82,18.82,0,0,0-17.86-19.75l-47.77-2.4,2.4-47.77a18.83,18.83,0,1,0-37.62-1.88l-2.39,47.76-47.77-2.39A18.86,18.86,0,0,0,1545.19,296.33Z"/><path class="cls-2" d="M293.41,326.57a18.84,18.84,0,0,0,22.64,14l46.56-10.94,10.93,46.56a18.83,18.83,0,0,0,36.67-8.61l-10.94-46.56,46.56-10.94a18.83,18.83,0,1,0-8.61-36.66l-46.56,10.93-10.94-46.56a18.83,18.83,0,0,0-36.66,8.62L354,293l-46.56,10.93A18.86,18.86,0,0,0,293.41,326.57Z"/><path class="cls-2" d="M1842.84,1646.4,1798.71,1628l18.44-44.13A18.83,18.83,0,0,0,1807,1559.2a18.85,18.85,0,0,0-24.63,10.11L1764,1613.44,1719.83,1595a18.83,18.83,0,0,0-14.52,34.75l44.13,18.44L1731,1692.33a18.83,18.83,0,1,0,34.75,14.52l18.44-44.13,44.13,18.43a18.83,18.83,0,1,0,14.51-34.75Z"/><path class="cls-2" d="M1269.16,103.74l47.47,5.81L1310.82,157a18.83,18.83,0,0,0,16.41,21,19.85,19.85,0,0,0,2.3.14,18.86,18.86,0,0,0,18.68-16.54l5.81-47.48,47.47,5.82a18.83,18.83,0,0,0,4.58-37.39l-47.47-5.81,5.81-47.47A18.83,18.83,0,0,0,1327,24.69l-5.81,47.47-47.47-5.81a18.83,18.83,0,0,0-4.58,37.39Z"/><path class="cls-2" d="M1782.4,1016.55a18.79,18.79,0,0,0,22.51-14.22l10.53-46.66,46.65,10.53a18.83,18.83,0,1,0,8.29-36.74l-46.65-10.53,10.52-46.65a18.83,18.83,0,1,0-36.74-8.29L1787,910.64l-46.66-10.52a18.83,18.83,0,1,0-8.28,36.74l46.65,10.52L1768.17,994A18.85,18.85,0,0,0,1782.4,1016.55Z"/><path class="cls-2" d="M991.12,133.48l47-8.77,8.77,47a18.86,18.86,0,0,0,18.51,15.38,18.65,18.65,0,0,0,3.46-.32,18.84,18.84,0,0,0,15-22l-8.77-47,47-8.77a18.83,18.83,0,1,0-6.91-37l-47,8.77-8.77-47a18.83,18.83,0,0,0-37,6.91l8.77,47-47,8.77a18.83,18.83,0,0,0,6.9,37Z"/><path class="cls-2" d="M1082.45,1506.66a18.85,18.85,0,0,0-1.48-26.59h0a18.85,18.85,0,0,0-26.59,1.48,47.88,47.88,0,0,1-67.53,3.77,18.83,18.83,0,1,0-25.11,28.07,85.58,85.58,0,0,0,120.71-6.73Z"/><path class="cls-2" d="M37.8,1345.41a47.87,47.87,0,0,1,36.46,57,18.83,18.83,0,0,0,36.79,8.07,84.91,84.91,0,0,0-11.53-64.39,84.91,84.91,0,0,0-53.66-37.43,18.83,18.83,0,0,0-8.06,36.79Z"/><path class="cls-2" d="M2000.16,529.59a18.84,18.84,0,0,0,18.49-15.5,85.57,85.57,0,0,0-69-99.3,18.83,18.83,0,0,0-6.69,37.07,47.87,47.87,0,0,1,38.58,55.55,18.85,18.85,0,0,0,15.2,21.87A18.48,18.48,0,0,0,2000.16,529.59Z"/><path class="cls-2" d="M1539.14,1760.43a18.83,18.83,0,0,0-1.08,26.61,84.92,84.92,0,0,0,59.38,27.44c1.19,0,2.39.07,3.58.07a84.86,84.86,0,0,0,57.84-22.59,18.83,18.83,0,0,0-25.53-27.69h0a47.88,47.88,0,0,1-67.58-2.76A18.86,18.86,0,0,0,1539.14,1760.43Z"/><path class="cls-2" d="M1904.21,1559.15a18.76,18.76,0,0,0,12.06,7.91,19.38,19.38,0,0,0,3.55.33,18.84,18.84,0,0,0,18.46-15.32,47.9,47.9,0,0,1,55.91-38.07,18.83,18.83,0,1,0,7-37,85.56,85.56,0,0,0-99.93,68A18.69,18.69,0,0,0,1904.21,1559.15Z"/><path class="cls-2" d="M1924.53,870.34a18.82,18.82,0,0,0,24.78-9.75A85.58,85.58,0,0,0,1905,748.09a18.84,18.84,0,0,0-24.78,9.76,18.86,18.86,0,0,0,9.75,24.78,47.88,47.88,0,0,1,24.78,62.93A18.86,18.86,0,0,0,1924.53,870.34Z"/><path class="cls-2" d="M769.21,725.23a18.84,18.84,0,0,0-26.15,5A85.56,85.56,0,0,0,765.86,849,18.83,18.83,0,1,0,787,817.81a47.89,47.89,0,0,1-12.76-66.42A18.85,18.85,0,0,0,769.21,725.23Z"/><path class="cls-2" d="M237.46,246.64a18.83,18.83,0,0,0,26.83-22.15A47.89,47.89,0,0,1,296,164.75a18.83,18.83,0,1,0-11-36,85.58,85.58,0,0,0-56.68,106.79A18.69,18.69,0,0,0,237.46,246.64Z"/><path class="cls-2" d="M1795.41,2006.3a18.66,18.66,0,0,0-14.26-2.11A85.58,85.58,0,0,0,1719,2107.88a18.85,18.85,0,0,0,18.26,14.26,18.53,18.53,0,0,0,4.58-.57,18.85,18.85,0,0,0,13.69-22.84,47.89,47.89,0,0,1,34.78-58,18.84,18.84,0,0,0,5.11-34.42Z"/><path class="cls-2" d="M852.37,2026.35h-.23A18.83,18.83,0,0,0,833.32,2045a47.9,47.9,0,0,1-47.81,47.27h-.8a18.83,18.83,0,0,0-.22,37.66h1A85.59,85.59,0,0,0,871,2045.4a18.83,18.83,0,0,0-18.61-19.05Z"/><path class="cls-2" d="M890.41,131.29a18.83,18.83,0,0,0,19.8-28.61,47.88,47.88,0,0,1,14.27-66.11A18.83,18.83,0,0,0,904.07,4.92a85.58,85.58,0,0,0-25.52,118.17A18.71,18.71,0,0,0,890.41,131.29Z"/><path class="cls-2" d="M1506.11,984.9a18.68,18.68,0,0,0,12.84,6.54c.5,0,1,.06,1.49.06a18.86,18.86,0,0,0,18.76-17.36,47.88,47.88,0,0,1,51.41-43.95,18.83,18.83,0,0,0,2.94-37.55,85.58,85.58,0,0,0-91.9,78.56A18.7,18.7,0,0,0,1506.11,984.9Z"/><path class="cls-2" d="M465.78,648.1a18.83,18.83,0,0,0-37.65,1.14,85.59,85.59,0,0,0,85.4,82.91c.87,0,1.75,0,2.64,0A18.83,18.83,0,0,0,515,694.46,47.87,47.87,0,0,1,465.78,648.1Z"/><path class="cls-2" d="M1669,1409.25a85.59,85.59,0,0,0,108.24-53.86,18.83,18.83,0,0,0-11.86-23.85h0a18.86,18.86,0,0,0-23.85,11.87,47.88,47.88,0,0,1-60.55,30.13,18.83,18.83,0,0,0-12,35.71Z"/><path class="cls-2" d="M150.48,1793.41a18.84,18.84,0,0,0,25.64-23.53,85.58,85.58,0,0,0-109.61-51h0A18.83,18.83,0,0,0,55.28,1743a18.86,18.86,0,0,0,24.14,11.24,47.88,47.88,0,0,1,61.32,28.54A18.67,18.67,0,0,0,150.48,1793.41Z"/><path class="cls-2" d="M1152.22,1857.48A18.84,18.84,0,0,0,1168,1849a85.57,85.57,0,0,0-24.46-118.4h0a18.83,18.83,0,1,0-20.69,31.47,47.87,47.87,0,0,1,13.68,66.24,18.82,18.82,0,0,0,15.71,29.17Z"/><path class="cls-2" d="M1128,377.4a47.9,47.9,0,0,1-66.92,9.86,18.83,18.83,0,0,0-22.46,30.23,85.57,85.57,0,0,0,119.61-17.63,18.86,18.86,0,0,0-3.88-26.35h0A18.85,18.85,0,0,0,1128,377.4Z"/><path class="cls-2" d="M705.25,1644.84a18.83,18.83,0,1,0,1.57-37.63,85.58,85.58,0,0,0-89,81.86,18.87,18.87,0,0,0,18,19.6h.79a18.85,18.85,0,0,0,18.8-18,47.89,47.89,0,0,1,49.78-45.79Z"/><path class="cls-2" d="M2089.65,1302a18.83,18.83,0,0,0-37.57,2.74,47.87,47.87,0,0,1-44.21,51.19,18.83,18.83,0,0,0,1.34,37.61c.47,0,.94,0,1.41,0A85.59,85.59,0,0,0,2089.65,1302Z"/><path class="cls-2" d="M41.62,1858.54a18.83,18.83,0,0,0,15.43-34.35,85.41,85.41,0,0,0-57-4.54v40l2.27-1A47.87,47.87,0,0,1,41.62,1858.54Z"/><path class="cls-2" d="M94.64,231.81a18.85,18.85,0,0,0,18.83,18.68h.15a18.83,18.83,0,0,0,18.68-19,85.56,85.56,0,0,0-86.18-84.79,18.83,18.83,0,0,0,.15,37.66h.55A47.88,47.88,0,0,1,94.64,231.81Z"/><path class="cls-2" d="M193.08,1856h0a18.85,18.85,0,0,0-11.6,24A47.89,47.89,0,0,1,152,1940.83a18.83,18.83,0,1,0,12.38,35.57,85.58,85.58,0,0,0,52.65-108.83A18.85,18.85,0,0,0,193.08,1856Z"/><path class="cls-2" d="M325,1810.69A47.87,47.87,0,0,1,278,1762a18.85,18.85,0,0,0-18.49-19.17,18.88,18.88,0,0,0-19.17,18.49,85.6,85.6,0,0,0,84,87h.34a18.83,18.83,0,0,0,.33-37.66Z"/><path class="cls-2" d="M1448.24,1575.59a18.85,18.85,0,0,0-.43,26.62,47.89,47.89,0,0,1-1.09,67.63,18.83,18.83,0,0,0,12.79,32.36h.32a18.7,18.7,0,0,0,13.09-5.31,85.59,85.59,0,0,0,1.95-120.88A18.86,18.86,0,0,0,1448.24,1575.59Z"/><path class="cls-2" d="M2095.41,1508.83a18.83,18.83,0,0,0-17.59,33.31,47.88,47.88,0,0,1,20,64.62,18.83,18.83,0,1,0,33.3,17.58,85.59,85.59,0,0,0-35.68-115.51Z"/><path class="cls-2" d="M153.89,1528a18.83,18.83,0,1,0-23.07-29.76h0a85.58,85.58,0,0,0-15.2,119.94,18.83,18.83,0,1,0,29.77-23.07A47.89,47.89,0,0,1,153.89,1528Z"/><path class="cls-2" d="M2103.6,1208a18.83,18.83,0,0,0,17.18,33.52l29.22-15V1184.2L2103.6,1208Z"/><path class="cls-2" d="M1424.54,1962.67a18.83,18.83,0,0,0-31,21.45l56.93,82.19a18.83,18.83,0,1,0,31-21.44Z"/><path class="cls-2" d="M1736.58,487.15h0a18.84,18.84,0,0,0-25.4,8L1665,583.83a18.83,18.83,0,1,0,33.4,17.4l46.19-88.68a18.82,18.82,0,0,0-8-25.4Z"/><path class="cls-2" d="M493.22,234.45a18.68,18.68,0,0,0,12.09,4.43c.55,0,1.09,0,1.64-.07l99.62-8.54a18.83,18.83,0,1,0-3.21-37.53l-99.62,8.54a18.83,18.83,0,0,0-10.52,33.17Z"/><path class="cls-2" d="M1315.63,2007.87a18.83,18.83,0,1,0-36.79,8l21.32,97.69a18.87,18.87,0,0,0,18.39,14.82,19.11,19.11,0,0,0,4-.44,18.85,18.85,0,0,0,14.38-22.41Z"/><path class="cls-2" d="M2033.62,887.29a18.86,18.86,0,0,0-25.64,7.22l-48.9,87.21a18.83,18.83,0,0,0,32.85,18.42l48.9-87.21a18.82,18.82,0,0,0-7.21-25.64Z"/><path class="cls-2" d="M457.87,1081l.33-100a18.83,18.83,0,0,0-18.77-18.9h-.06a18.85,18.85,0,0,0-18.83,18.77l-.33,100A18.83,18.83,0,0,0,439,1099.73H439A18.83,18.83,0,0,0,457.87,1081Z"/><path class="cls-2" d="M1843,279.1l91.16,41.09a18.71,18.71,0,0,0,14.4.44,18.83,18.83,0,0,0,1.08-34.78l-91.16-41.09A18.83,18.83,0,0,0,1843,279.1Z"/><path class="cls-2" d="M804.45,1937.51a18.83,18.83,0,0,0-25.53-7.58L691,1977.58A18.83,18.83,0,1,0,709,2010.69L796.87,1963A18.85,18.85,0,0,0,804.45,1937.51Z"/><path class="cls-2" d="M1334.93,712l-97.31-23a18.83,18.83,0,1,0-8.66,36.65l97.31,23a18.42,18.42,0,0,0,4.33.51,18.83,18.83,0,0,0,4.33-37.16Z"/><path class="cls-2" d="M1294.65,1791.59h0a18.83,18.83,0,0,0-31.88,20.06l53.23,84.64a18.84,18.84,0,0,0,26,5.91,18.84,18.84,0,0,0,5.91-26Z"/><path class="cls-2" d="M1065.41,2030.71h0a18.84,18.84,0,1,0-31.46,20.72l55,83.5a18.71,18.71,0,0,0,11.93,8.09,19.15,19.15,0,0,0,3.83.39,18.84,18.84,0,0,0,15.69-29.2Z"/><path class="cls-2" d="M646.34,2054.8h0A18.83,18.83,0,1,0,615.18,2076l37.45,55.14a18.83,18.83,0,1,0,31.15-21.16Z"/><path class="cls-2" d="M72.76,1923.36a18.83,18.83,0,0,0-35.38,12.9l22.84,62.62A18.83,18.83,0,0,0,95.6,1986Z"/><path class="cls-2" d="M1235.21,2130.36a18.81,18.81,0,0,0-25.9,6.18L1201,2150h42.8A18.91,18.91,0,0,0,1235.21,2130.36Z"/><path class="cls-2" d="M12.14,1486.62a18.86,18.86,0,0,0,5.22-26.12L0,1434.48v55.21c.57,0,1.14.09,1.71.09A18.77,18.77,0,0,0,12.14,1486.62Z"/><path class="cls-2" d="M573.34,1109.63a18.93,18.93,0,0,0,5.12-.71l64.14-18.13a18.84,18.84,0,0,0-10.25-36.25l-64.14,18.13a18.84,18.84,0,0,0,5.13,37Z"/><path class="cls-2" d="M906.1,694.24a18.84,18.84,0,0,0,18.71,17q.91,0,1.83-.09L993,704.84a18.83,18.83,0,1,0-3.58-37.49h0l-66.36,6.35A18.85,18.85,0,0,0,906.1,694.24Z"/><path class="cls-2" d="M2035.6,271a18.83,18.83,0,0,0,18.22,14.22,19.08,19.08,0,0,0,4.66-.59A18.68,18.68,0,0,0,2070,276l34.12-57.27a18.86,18.86,0,0,0-6.54-25.82h0a18.85,18.85,0,0,0-25.82,6.54l-34.12,57.27A18.7,18.7,0,0,0,2035.6,271Z"/><path class="cls-2" d="M1309.48,1178.76a18.73,18.73,0,0,0,8.4-2l59.61-29.82a18.83,18.83,0,1,0-16.85-33.69L1301,1143.09a18.83,18.83,0,0,0,8.45,35.67Z"/><path class="cls-2" d="M2055,1752.44,2009.29,1801a18.83,18.83,0,0,0,27.45,25.79l45.65-48.57a18.83,18.83,0,1,0-27.44-25.79Z"/><path class="cls-2" d="M1937,1916.31a18.84,18.84,0,0,0-23.36,12.79l-18.71,64a18.83,18.83,0,1,0,36.15,10.57l18.71-64a18.84,18.84,0,0,0-12.79-23.36Z"/><path class="cls-2" d="M1438.38,1863.06a18.83,18.83,0,1,0,32.88-18.37l-32.51-58.19a18.83,18.83,0,1,0-32.88,18.37Z"/><path class="cls-2" d="M2135.83,2030.73l-36.7,55.64a18.84,18.84,0,0,0,15.68,29.21,19,19,0,0,0,3.82-.39,18.71,18.71,0,0,0,11.94-8.08l19.43-29.46v-55.32l-.64.07A18.82,18.82,0,0,0,2135.83,2030.73Z"/><path class="cls-2" d="M330.76,1944.13a18.84,18.84,0,0,0-25.94,6l-35.21,56.6a18.83,18.83,0,0,0,32,19.9l35.21-56.6A18.86,18.86,0,0,0,330.76,1944.13Z"/><path class="cls-2" d="M1758,1499.75a18.84,18.84,0,0,0-21.62-27.27l-64.1,18.27A18.83,18.83,0,0,0,1682.6,1527l64.1-18.27A18.67,18.67,0,0,0,1758,1499.75Z"/><path class="cls-2" d="M98.35,591a18.83,18.83,0,0,0-14.91-34.59l-61.21,26.4a18.83,18.83,0,1,0,14.91,34.58Z"/><path class="cls-2" d="M1294.69,895.74a18.83,18.83,0,0,0,15.52-29.46l-37.63-55h0a18.83,18.83,0,1,0-31.08,21.27l37.63,55A18.84,18.84,0,0,0,1294.69,895.74Z"/><path class="cls-2" d="M270.77,571.39a18.75,18.75,0,0,0-14-3.59l-66,9.37a18.83,18.83,0,0,0,2.64,37.48,18.61,18.61,0,0,0,2.66-.19l66-9.37a18.83,18.83,0,0,0,8.67-33.7Z"/><path class="cls-2" d="M539.46,908.11a18.85,18.85,0,0,0-13,23.26l18.22,64.12a18.87,18.87,0,0,0,18.08,13.7,19.17,19.17,0,0,0,5.18-.73,18.82,18.82,0,0,0,13-23.26l-18.21-64.12A18.85,18.85,0,0,0,539.46,908.11Z"/><path class="cls-2" d="M1527.92,1108.59a18.84,18.84,0,0,0,4.84-37l-64.43-17.1a18.83,18.83,0,1,0-9.66,36.4l64.43,17.1A18.68,18.68,0,0,0,1527.92,1108.59Z"/><path class="cls-2" d="M516.34,1611.42a18.66,18.66,0,0,0-7.6,12.25l-10.81,65.77a18.87,18.87,0,0,0,15.54,21.64,18.66,18.66,0,0,0,3.06.25,18.86,18.86,0,0,0,18.57-15.78l10.8-65.78a18.83,18.83,0,0,0-29.56-18.35Z"/><path class="cls-2" d="M427.12,1873.54h0a18.83,18.83,0,1,0-30.43,22.2L436,1949.59a18.83,18.83,0,0,0,30.43-22.2Z"/><path class="cls-2" d="M108.43,817a18.83,18.83,0,0,0-13.34,35.22l62.34,23.61a18.83,18.83,0,1,0,13.34-35.22Z"/><path class="cls-2" d="M674.89,1778.91a18.83,18.83,0,0,0-30.6,16.56l6.86,66.3a18.83,18.83,0,0,0,37.46-3.88l-6.86-66.3A18.71,18.71,0,0,0,674.89,1778.91Z"/><path class="cls-2" d="M349,1609.42l65,14.57a19.64,19.64,0,0,0,4.16.46,18.88,18.88,0,0,0,18.34-14.73,18.86,18.86,0,0,0-14.26-22.49l-65.05-14.56a18.83,18.83,0,0,0-8.23,36.75Z"/><path class="cls-2" d="M1590.71,1614.33a18.83,18.83,0,0,0-21.26,27.54l33.16,57.82a18.83,18.83,0,1,0,32.67-18.73l-33.16-57.83A18.7,18.7,0,0,0,1590.71,1614.33Z"/><path class="cls-2" d="M868.72,1526.51a18.48,18.48,0,0,0,4.85.64,18.87,18.87,0,0,0,18.2-14l17.2-64.4a18.83,18.83,0,0,0-36.39-9.72l-17.2,64.4A18.85,18.85,0,0,0,868.72,1526.51Z"/><path class="cls-2" d="M2019.67,618.22a68.8,68.8,0,0,0,20.46,125.49,69.25,69.25,0,0,0,15.94,1.86,68.83,68.83,0,1,0-36.4-127.35Zm52.62,85a31.16,31.16,0,1,1,10.1-42.89A31,31,0,0,1,2072.29,703.24Z"/><path class="cls-2" d="M931.83,1108a68.83,68.83,0,0,0,0-137.65h0a68.83,68.83,0,0,0,0,137.65Zm-31.16-68.84a31.21,31.21,0,0,1,31.16-31.15h0a31.16,31.16,0,0,1,0,62.32h0A31.2,31.2,0,0,1,900.67,1039.2Z"/><path class="cls-2" d="M1580,1362.31a68.79,68.79,0,1,0-14,96.32A68.38,68.38,0,0,0,1580,1362.31ZM1555.62,1408a31.16,31.16,0,1,1-30.91-35.63,32,32,0,0,1,4.57.33,31.1,31.1,0,0,1,26.34,35.3Z"/><path class="cls-2" d="M1203.21,351.51a68.91,68.91,0,0,0,68.68,65.22c1.21,0,2.43,0,3.65-.1a68.82,68.82,0,1,0-72.33-65.12Zm45.58-24.45a31,31,0,0,1,21.51-10.28c.56,0,1.11,0,1.65,0a31.19,31.19,0,1,1-23.16,10.32Z"/><path class="cls-2" d="M96.31,422a68.82,68.82,0,1,0,44.85-86.39A68.38,68.38,0,0,0,96.31,422Zm56.21-50.48a31.16,31.16,0,1,1-20.3,39.11A31,31,0,0,1,152.52,371.55Z"/><path class="cls-2" d="M463.81,53.3a68.77,68.77,0,0,0,64,43.89A68.76,68.76,0,0,0,590.58,0H542.42l5.21,4.26a31.11,31.11,0,0,1-8.41,53.13,31.17,31.17,0,0,1-39.81-41.58,30.75,30.75,0,0,1,8.82-11.54L513.47,0H465.23c-.1.21-.2.43-.29.64A68.39,68.39,0,0,0,463.81,53.3Z"/><path class="cls-2" d="M991.29,462.87a68.92,68.92,0,1,0,41.38,32.57A68.37,68.37,0,0,0,991.29,462.87Zm11.41,74.68a31.17,31.17,0,1,1-21.59-38.42A31.2,31.2,0,0,1,1002.7,537.55Z"/><path class="cls-2" d="M589.48,1522.13a68.9,68.9,0,1,0-36.47-38A68.55,68.55,0,0,0,589.48,1522.13Zm-1-75.54a31.21,31.21,0,1,1-.46,23.83A31.22,31.22,0,0,1,588.53,1446.59Z"/><path class="cls-2" d="M1751.12,196l1.63,0a68.7,68.7,0,1,0-1.63,0Zm-22.49-90.32a31.2,31.2,0,1,1-8.6,22.24A31.08,31.08,0,0,1,1728.63,105.69Z"/><path class="cls-2" d="M1274.51,490.31a68.82,68.82,0,1,0-47.07,119.07c.8,0,1.59,0,2.38,0a68.82,68.82,0,0,0,44.69-119Zm-24.24,71.56h0a31.2,31.2,0,1,1,8.37-22.33A31,31,0,0,1,1250.27,561.87Z"/><path class="cls-2" d="M249.29,1484.32a68.89,68.89,0,0,0,83.18-50.54,68.82,68.82,0,1,0-83.18,50.54Zm-13.95-74.25a31.24,31.24,0,0,1,30.24-23.78,31.31,31.31,0,0,1,7.42.9,31.15,31.15,0,1,1-37.66,22.88Z"/><path class="cls-2" d="M1345.13,1548.34a68.83,68.83,0,1,0-66.87-52.52A68.36,68.36,0,0,0,1345.13,1548.34Zm-7.39-99.1a30.8,30.8,0,0,1,7.39-.9,31.21,31.21,0,1,1-7.39.9Z"/><path class="cls-2" d="M586.77,1253a68.7,68.7,0,1,0-26.31,45.62A68.35,68.35,0,0,0,586.77,1253Zm-49.24,15.74a31.16,31.16,0,0,1-37.94-49.45,30.87,30.87,0,0,1,18.89-6.42,32.09,32.09,0,0,1,4.14.27,31.15,31.15,0,0,1,14.91,55.6Z"/><path class="cls-2" d="M1252.27,1946.87h0a68.82,68.82,0,0,0-85.63,107.77,18.83,18.83,0,1,0,23.43-29.49,31.16,31.16,0,0,1,38.77-48.79,18.83,18.83,0,0,0,23.43-29.49Z"/><path class="cls-2" d="M1431,228.88a31.15,31.15,0,0,1-56.71,9.9,18.83,18.83,0,1,0-31.8,20.18,68.83,68.83,0,0,0,116.23-73.75,18.86,18.86,0,0,0-26-5.81h0a18.85,18.85,0,0,0-5.81,26A31,31,0,0,1,1431,228.88Z"/><path class="cls-2" d="M1815.73,340a18.66,18.66,0,0,0-.09,14.41,31.16,31.16,0,0,1-57.72,23.5,18.83,18.83,0,0,0-34.89,14.2,68.82,68.82,0,0,0,127.49-51.9,18.83,18.83,0,0,0-34.79-.21Z"/><path class="cls-2" d="M1761.4,1788.59a18.83,18.83,0,0,0-2,37.61,31.16,31.16,0,0,1-3.36,62.23,18.83,18.83,0,1,0-2,37.61c1.26.06,2.51.1,3.75.1a68.83,68.83,0,0,0,3.67-137.55Z"/><path class="cls-2" d="M1752.58,647.85a18.84,18.84,0,0,0-34.5-4.51,68.82,68.82,0,0,0,119.25,68.74,18.83,18.83,0,1,0-32.63-18.81,31.16,31.16,0,1,1-54-31.13A18.73,18.73,0,0,0,1752.58,647.85Z"/><path class="cls-2" d="M1903.63,1419.21a68.89,68.89,0,0,0-5-97.2,18.83,18.83,0,0,0-25.24,28,31.16,31.16,0,1,1-41.76,46.26,18.83,18.83,0,1,0-25.24,28,68.88,68.88,0,0,0,97.2-5Z"/><path class="cls-2" d="M1713.66,1160.93a18.83,18.83,0,0,0,34.63-3.45,68.82,68.82,0,0,0-131.77-39.8,18.83,18.83,0,0,0,36,10.89,31.16,31.16,0,0,1,59.66,18A18.75,18.75,0,0,0,1713.66,1160.93Z"/><path class="cls-2" d="M499.13,564.34A18.83,18.83,0,1,0,530,585.94a31.2,31.2,0,0,1,43.4-7.65A31.2,31.2,0,0,1,581,621.68a18.84,18.84,0,0,0,15.39,29.64,19.48,19.48,0,0,0,3.31-.29,18.75,18.75,0,0,0,12.16-7.75,68.83,68.83,0,0,0-112.77-78.94Z"/><path class="cls-2" d="M1038.59,1366.11a31.22,31.22,0,0,1-41-16.16,18.83,18.83,0,1,0-34.54,15,68.82,68.82,0,0,0,126.25-54.84,18.83,18.83,0,0,0-34.79.59,18.66,18.66,0,0,0,.25,14.41A31.2,31.2,0,0,1,1038.59,1366.11Z"/><path class="cls-2" d="M759.26,1813.64a18.83,18.83,0,1,0,9,36.58,68.82,68.82,0,0,0-32.76-133.69,18.83,18.83,0,0,0,9,36.58,31.16,31.16,0,0,1,14.83,60.53Z"/><path class="cls-2" d="M681.14,891.43a18.85,18.85,0,0,0-20.62,16.85,68.9,68.9,0,0,0,61.58,75.38,67.81,67.81,0,0,0,6.95.35,68.92,68.92,0,0,0,68.42-61.93A18.83,18.83,0,0,0,760,918.3a31.16,31.16,0,0,1-62-6.24A18.87,18.87,0,0,0,681.14,891.43Z"/><path class="cls-2" d="M2036,1107a31.19,31.19,0,0,1-42.87-10.2,18.84,18.84,0,0,0-32.08,19.75,68.39,68.39,0,0,0,42.7,30.84,69.48,69.48,0,0,0,16.09,1.9,68.83,68.83,0,0,0,58.43-104.91,18.85,18.85,0,0,0-25.91-6.17h0a18.85,18.85,0,0,0-6.17,25.91A31.2,31.2,0,0,1,2036,1107Z"/><path class="cls-2" d="M2033.1,1601.1a18.84,18.84,0,0,0-34.76,14.52,31.16,31.16,0,0,1-57.51,24,18.83,18.83,0,0,0-34.75,14.51,68.82,68.82,0,1,0,127-53Z"/><path class="cls-2" d="M1148.52,816a52.21,52.21,0,0,0-49.66-54.55,18.83,18.83,0,0,0-1.76,37.62,14.52,14.52,0,0,1,13.8,15.16c-.2,4.36-15.72,11.66-24.06,15.58-18.73,8.8-44.38,20.86-45.65,47.89a52.21,52.21,0,0,0,49.66,54.54c.31,0,.61,0,.91,0a18.83,18.83,0,0,0,.86-37.64,14.51,14.51,0,0,1-13.8-15.16c.2-4.36,15.71-11.65,24-15.57C1121.6,855.12,1147.25,843.07,1148.52,816Z"/><path class="cls-2" d="M1506.78,79.77A14.51,14.51,0,0,1,1527.16,82c2.72,3.41-4.11,19.13-7.78,27.58-8.26,19-19.56,45-2.67,66.11A52.21,52.21,0,0,0,1590,183.9a18.83,18.83,0,0,0-23.51-29.42,14.51,14.51,0,0,1-20.38-2.27c-2.72-3.41,4.11-19.13,7.78-27.58,8.26-19,19.56-45,2.67-66.11a52.23,52.23,0,0,0-73.32-8.17,18.83,18.83,0,0,0,23.52,29.42Z"/><path class="cls-2" d="M1050.71,1944.29a18.83,18.83,0,1,0-9.16-36.53,14.52,14.52,0,0,1-17.59-10.53c-1.06-4.24,11.69-15.69,18.54-21.85l-3.68-4.09,3.68,4.09c15.39-13.83,36.48-32.78,29.9-59a52.23,52.23,0,0,0-63.29-37.91,18.83,18.83,0,0,0,9.17,36.53,14.52,14.52,0,0,1,17.58,10.54c1.07,4.23-11.68,15.69-18.54,21.85-15.39,13.83-36.48,32.78-29.89,59a52.29,52.29,0,0,0,50.53,39.49A52.33,52.33,0,0,0,1050.71,1944.29Z"/><path class="cls-2" d="M609,765.14c-18.6,9.08-44.07,21.51-44.94,48.56a52.21,52.21,0,0,0,50.46,53.81h.62a18.84,18.84,0,0,0,.59-37.66,14.52,14.52,0,0,1-14-15c.14-4.37,15.55-11.89,23.82-15.93,18.6-9.08,44.08-21.51,45-48.56A52.2,52.2,0,0,0,620,696.62a18.83,18.83,0,1,0-1.21,37.64,14.52,14.52,0,0,1,14,15C632.66,753.58,617.26,761.1,609,765.14Z"/><path class="cls-2" d="M227.36,735.32a52.22,52.22,0,0,0,15.45,72.13,18.83,18.83,0,0,0,20.46-31.62A14.52,14.52,0,0,1,259,755.78c.2-.32,1.6-1.95,8.64-2.31,5.71-.3,13,.34,20,1,20.61,1.82,48.85,4.32,63.55-18.4A52.22,52.22,0,0,0,335.7,663.9a18.83,18.83,0,1,0-20.46,31.62,14.52,14.52,0,0,1,4.29,20.05c-.21.32-1.6,1.95-8.64,2.31-5.71.3-13-.34-20-1C270.29,715.1,242.05,712.6,227.36,735.32Z"/><path class="cls-2" d="M1574.3,494.83c-16,13.17-37.81,31.22-32.33,57.72a52.11,52.11,0,0,0,61.64,40.51,18.83,18.83,0,0,0-7.63-36.88,14.51,14.51,0,0,1-17.13-11.26c-.89-4.27,12.33-15.19,19.43-21,16-13.18,37.82-31.23,32.34-57.73A52.21,52.21,0,0,0,1569,425.63a18.83,18.83,0,1,0,7.63,36.88,14.52,14.52,0,0,1,17.13,11.26C1594.62,478.05,1581.41,489,1574.3,494.83Z"/><path class="cls-2" d="M773.09,477a51.8,51.8,0,0,0,35.78,14.27l1.5,0a18.83,18.83,0,1,0-1.06-37.65,14.55,14.55,0,0,1-14.9-14.09c-.12-4.36,14.8-12.79,22.82-17.33,18-10.18,42.7-24.13,41.94-51.17a52.22,52.22,0,0,0-53.61-50.68,18.86,18.86,0,0,0-18.29,19.36A18.84,18.84,0,0,0,806.62,358a14.54,14.54,0,0,1,14.9,14.09c.12,4.36-14.8,12.79-22.82,17.33-18,10.18-42.7,24.13-41.94,51.17A51.8,51.8,0,0,0,773.09,477Z"/><path class="cls-2" d="M1419.08,585.13c-20.53,2.69-48.64,6.36-58.07,31.72a52.21,52.21,0,0,0,30.69,67.08,18.73,18.73,0,0,0,14.41-.53,18.83,18.83,0,0,0-1.27-34.77,14.51,14.51,0,0,1-8.53-18.64c1.52-4.1,18.52-6.32,27.65-7.51,20.52-2.69,48.63-6.36,58.07-31.72a52.22,52.22,0,0,0-30.7-67.08A18.83,18.83,0,1,0,1438.2,559a14.51,14.51,0,0,1,8.53,18.64C1445.21,581.72,1428.21,583.94,1419.08,585.13Z"/><path class="cls-2" d="M619.54,1912.75a18.83,18.83,0,0,0-32-13.58h0A14.53,14.53,0,0,1,567,1899c-3.06-3.12,2.13-19.46,4.91-28.23,6.26-19.73,14.83-46.75-4.15-66a52.21,52.21,0,0,0-73.76-.59,18.83,18.83,0,0,0,13.06,32.25h.15a18.69,18.69,0,0,0,13.2-5.41,14.43,14.43,0,0,1,10.17-4.15h.12a14.37,14.37,0,0,1,10.22,4.32c3.06,3.11-2.12,19.45-4.91,28.23-6.26,19.73-14.83,46.75,4.15,66a52.23,52.23,0,0,0,73.76.6A18.75,18.75,0,0,0,619.54,1912.75Z"/><path class="cls-2" d="M1370.43,1643.92a18.84,18.84,0,0,0-30.83,16.15,14.52,14.52,0,0,1-13.14,15.74h-.17c-4.42,0-13.58-14.09-18.53-21.71-11.27-17.36-26.71-41.14-53.66-38.71a52.23,52.23,0,0,0-47.28,56.63,18.83,18.83,0,1,0,37.51-3.38,14.52,14.52,0,0,1,13.14-15.74h.18c4.42,0,13.58,14.09,18.53,21.71,10.73,16.53,25.24,38.88,49.88,38.88,1.23,0,2.49-.06,3.78-.17a52.21,52.21,0,0,0,47.27-56.63A18.72,18.72,0,0,0,1370.43,1643.92Z"/><path class="cls-2" d="M352.27,443.06a52.22,52.22,0,0,0-71,20.09,18.83,18.83,0,0,0,32.87,18.37,14.51,14.51,0,0,1,19.73-5.58c.34.19,2.05,1.48,2.87,8.48.66,5.67.49,12.95.32,20-.48,20.69-1.14,49,22.47,62.23a52.19,52.19,0,0,0,71-20.08,18.83,18.83,0,1,0-32.87-18.38,14.51,14.51,0,0,1-19.73,5.58c-.34-.19-2.05-1.48-2.87-8.47-.66-5.68-.49-13-.32-20C375.22,484.61,375.89,456.27,352.27,443.06Z"/><path class="cls-2" d="M54,56.51a52.08,52.08,0,0,0,66.33,32.27A18.83,18.83,0,1,0,108,53.18a14.51,14.51,0,0,1-18.44-9c-.12-.36-.54-2.47,3.51-8.23,3.28-4.68,8.26-10,13.07-15.14A194.42,194.42,0,0,0,121.32,3.25L123.69,0H74.13C61.53,13.73,46,33.18,54,56.51Z"/><path class="cls-2" d="M1552.85,1258.52a18.82,18.82,0,0,0,19.44-18.2,14.52,14.52,0,0,1,15-14c4.37.14,11.88,15.55,15.91,23.83,9.07,18.61,21.48,44.09,48.53,45,.58,0,1.17,0,1.75,0a52.22,52.22,0,0,0,52.09-50.45,18.83,18.83,0,0,0-37.64-1.24,14.52,14.52,0,0,1-15,14c-4.36-.14-11.87-15.55-15.9-23.83-9.07-18.6-21.49-44.09-48.53-45a52.2,52.2,0,0,0-53.84,50.42,18.82,18.82,0,0,0,18.2,19.44Z"/><path class="cls-2" d="M1473.05,1261a52.23,52.23,0,0,0-14.1-72.41h0a18.84,18.84,0,0,0-21,31.24,14.51,14.51,0,0,1,3.92,20.12c-.21.32-1.64,1.92-8.68,2.15-5.72.19-13-.59-20-1.34-20.58-2.2-48.76-5.22-63.88,17.22a52.22,52.22,0,0,0,14.11,72.4,18.83,18.83,0,1,0,21-31.23,14.54,14.54,0,0,1-3.92-20.13c.22-.31,1.65-1.92,8.69-2.15,5.71-.18,13,.59,20,1.34C1429.74,1280.38,1457.93,1283.4,1473.05,1261Z"/><path class="cls-2" d="M1324.76,1016.08a18.87,18.87,0,0,0,18.61,16,18.21,18.21,0,0,0,2.84-.22,18.82,18.82,0,0,0,15.79-21.45,14.51,14.51,0,0,1,12.15-16.51,52.2,52.2,0,0,0,43.72-59.41,18.83,18.83,0,0,0-37.23,5.66,14.53,14.53,0,0,1-12.16,16.52A52.22,52.22,0,0,0,1324.76,1016.08Z"/><path class="cls-2" d="M1955.11,1828.73a14.52,14.52,0,0,1-12-16.65,52.23,52.23,0,0,0-43.08-59.88,18.83,18.83,0,1,0-6.06,37.17,14.53,14.53,0,0,1,12,16.65A52.21,52.21,0,0,0,1949,1865.9a18.54,18.54,0,0,0,3,.25,18.83,18.83,0,0,0,3-37.42Z"/><path class="cls-2" d="M1161.52,693a18.84,18.84,0,0,0-17.89-19.74A14.51,14.51,0,0,1,1129.87,658a52.23,52.23,0,0,0-49.53-54.67,18.83,18.83,0,1,0-1.85,37.62,14.51,14.51,0,0,1,13.76,15.19,52.22,52.22,0,0,0,49.53,54.67l1,0a18.85,18.85,0,0,0,18.79-17.9Z"/><path class="cls-2" d="M838,1168.69a14.53,14.53,0,0,1-17,11.5,52.21,52.21,0,0,0-61.09,41.35,18.86,18.86,0,0,0,14.93,22,19.17,19.17,0,0,0,3.6.35,18.85,18.85,0,0,0,18.45-15.28,14.53,14.53,0,0,1,17-11.49,52.23,52.23,0,0,0,61.09-41.35,18.84,18.84,0,0,0-14.93-22h0A18.84,18.84,0,0,0,838,1168.69Z"/><path class="cls-2" d="M2039.83,2129.66h0a14.54,14.54,0,0,1-9-18.4,52.21,52.21,0,0,0-32.57-66.18,18.83,18.83,0,1,0-12.14,35.65,14.53,14.53,0,0,1,9.06,18.4A52.29,52.29,0,0,0,2005,2150h47.36A18.89,18.89,0,0,0,2039.83,2129.66Z"/><path class="cls-2" d="M1920.59,527.18a18.84,18.84,0,0,0-26.39,3.58,14.52,14.52,0,0,1-20.32,2.75,52.22,52.22,0,0,0-73.1,9.92,18.83,18.83,0,0,0,30,22.81,14.52,14.52,0,0,1,20.32-2.76,52.22,52.22,0,0,0,73.1-9.91A18.86,18.86,0,0,0,1920.59,527.18Z"/><path class="cls-2" d="M1576.15,2109.4a18.83,18.83,0,1,0,3.71,37.48,14.5,14.5,0,0,1,10.47,3.12h41.89l-.33-1.33A52.44,52.44,0,0,0,1576.15,2109.4Z"/><path class="cls-2" d="M1453.35,387.37a14.52,14.52,0,0,1-16,12.77,52.21,52.21,0,0,0-57.74,45.91,18.85,18.85,0,0,0,16.58,20.84,17.67,17.67,0,0,0,2.17.13,18.85,18.85,0,0,0,18.68-16.7,14.5,14.5,0,0,1,16-12.76,52.23,52.23,0,0,0,57.74-45.92,18.85,18.85,0,0,0-16.58-20.84h0A18.85,18.85,0,0,0,1453.35,387.37Z"/><path class="cls-2" d="M1807.17,26.52h0a18.83,18.83,0,1,0,36-11,14.43,14.43,0,0,1,1.89-12.39L1847.15,0h-41A52,52,0,0,0,1807.17,26.52Z"/><path class="cls-2" d="M370.2,1764.42a51.83,51.83,0,0,0,30.71,10.09,52.41,52.41,0,0,0,8.07-.62,18.83,18.83,0,1,0-5.76-37.22h0a14.51,14.51,0,0,1-16.55-12.11A52.23,52.23,0,0,0,327.15,1681a18.83,18.83,0,1,0,5.76,37.22,14.51,14.51,0,0,1,16.54,12.11A51.84,51.84,0,0,0,370.2,1764.42Z"/><path class="cls-2" d="M967.6,1999a18.83,18.83,0,0,0-15.31-31.25h0a14.52,14.52,0,0,1-15.38-13.56,52.22,52.22,0,0,0-55.33-48.79A18.83,18.83,0,0,0,884,1943a14.52,14.52,0,0,1,15.38,13.56,52.2,52.2,0,0,0,52,48.89c1.11,0,2.22,0,3.34-.1A18.74,18.74,0,0,0,967.6,1999Z"/><path class="cls-2" d="M391,1181.21a18.83,18.83,0,0,0-36.74,8.27,14.52,14.52,0,0,1-11,17.33,52.21,52.21,0,0,0-39.43,62.34,18.83,18.83,0,0,0,36.74-8.27,14.51,14.51,0,0,1,11-17.33A52.2,52.2,0,0,0,391,1181.21Z"/><path class="cls-2" d="M138.1,672.16a18.83,18.83,0,0,0-22.46,14.32,14.51,14.51,0,0,1-17.28,11,52.21,52.21,0,0,0-62.19,39.67,18.83,18.83,0,0,0,36.77,8.13,14.53,14.53,0,0,1,17.29-11,52.22,52.22,0,0,0,62.19-39.67,18.83,18.83,0,0,0-14.32-22.45Z"/><path class="cls-2" d="M513.32,1509.91a18.83,18.83,0,0,0-30.07-17.5,14.53,14.53,0,0,1-20.32-2.75,52.19,52.19,0,0,0-73.1-9.89,18.83,18.83,0,1,0,22.82,30,14.51,14.51,0,0,1,20.32,2.75,51.79,51.79,0,0,0,34.5,20.06,53.6,53.6,0,0,0,7.13.48,51.7,51.7,0,0,0,31.47-10.65A18.7,18.7,0,0,0,513.32,1509.91Z"/><path class="cls-2" d="M1482.24,799.14a14.39,14.39,0,0,1-10.24,4.23h0a14.4,14.4,0,0,1-10.25-4.24,51.8,51.8,0,0,0-36.87-15.29h0A51.82,51.82,0,0,0,1388,799.07a18.84,18.84,0,0,0,13.29,32.16h0a18.7,18.7,0,0,0,13.3-5.51,14.53,14.53,0,0,1,20.51,0,52.21,52.21,0,0,0,73.76,0,18.83,18.83,0,1,0-26.61-26.65Z"/><path class="cls-2" d="M413.72,836.19a14.45,14.45,0,0,1,9.79,5.22,52.22,52.22,0,0,0,73.41,7.22A18.83,18.83,0,1,0,473,819.52h0a14.51,14.51,0,0,1-20.4-2,52.22,52.22,0,0,0-73.42-7.21,18.83,18.83,0,0,0,23.9,29.11A14.42,14.42,0,0,1,413.72,836.19Z"/><path class="cls-2" d="M427.5,2016.21A18.83,18.83,0,0,0,403.12,2041a14.52,14.52,0,0,1-7.68,19,52.21,52.21,0,0,0-27.61,68.4,18.86,18.86,0,0,0,17.36,11.47,18.64,18.64,0,0,0,7.33-1.5,18.85,18.85,0,0,0,10-24.69,14.53,14.53,0,0,1,7.68-19,52.21,52.21,0,0,0,27.61-68.4A18.72,18.72,0,0,0,427.5,2016.21Z"/><path class="cls-2" d="M343.39,1001.31A51.84,51.84,0,0,0,326.78,965h0a14.52,14.52,0,0,1-.77-20.49,52.2,52.2,0,0,0-2.74-73.71,18.83,18.83,0,1,0-25.62,27.6,14.53,14.53,0,0,1,.76,20.49,52.22,52.22,0,0,0,2.74,73.71,14.52,14.52,0,0,1,.77,20.49,52.22,52.22,0,0,0,2.74,73.72,18.83,18.83,0,1,0,25.62-27.61,14.5,14.5,0,0,1-.76-20.48A51.83,51.83,0,0,0,343.39,1001.31Z"/><path class="cls-2" d="M1121.36,231a14.52,14.52,0,0,1-16.17,12.61A52.22,52.22,0,0,0,1047,289a18.83,18.83,0,0,0,37.38,4.63,14.53,14.53,0,0,1,16.17-12.6,52.21,52.21,0,0,0,58.19-45.34,14.53,14.53,0,0,1,16.17-12.6,52.14,52.14,0,0,0,58.19-45.34,18.83,18.83,0,0,0-37.38-4.64,14.52,14.52,0,0,1-16.17,12.61A52.22,52.22,0,0,0,1121.36,231Z"/><path class="cls-2" d="M935.15,1667.48a52.16,52.16,0,0,0,69.89,23.59,18.83,18.83,0,1,0-16.72-33.75h0a14.5,14.5,0,0,1-19.42-6.56,52.22,52.22,0,0,0-69.9-23.58,14.53,14.53,0,0,1-19.42-6.56A52.21,52.21,0,0,0,809.69,1597a18.83,18.83,0,1,0,16.71,33.75,14.54,14.54,0,0,1,19.43,6.56,52.23,52.23,0,0,0,69.89,23.59A14.52,14.52,0,0,1,935.15,1667.48Z"/><path class="cls-2" d="M1517.77,686.19a18.83,18.83,0,0,0,18.82,18.57h.47a14.51,14.51,0,0,1,14.49,14.3,52.21,52.21,0,0,0,52.15,51.44h.92a14.51,14.51,0,0,1,14.49,14.3,52.22,52.22,0,0,0,52.14,51.44h.73a18.83,18.83,0,1,0-.51-37.66h-.21a14.53,14.53,0,0,1-14.49-14.3,52.2,52.2,0,0,0-52.87-51.44h-.2a14.51,14.51,0,0,1-14.49-14.3,52.23,52.23,0,0,0-52.87-51.44A18.85,18.85,0,0,0,1517.77,686.19Z"/><path class="cls-2" d="M1242.6,1040a51.85,51.85,0,0,0-19.53-34.8,14.51,14.51,0,0,1-2.44-20.36,52.22,52.22,0,0,0-8.78-73.24,18.83,18.83,0,1,0-23.27,29.61,14.52,14.52,0,0,1,2.44,20.36,52.22,52.22,0,0,0,8.77,73.24,14.51,14.51,0,0,1,2.44,20.36,52.22,52.22,0,0,0,8.78,73.24,18.71,18.71,0,0,0,11.6,4,19.38,19.38,0,0,0,2.28-.14,18.83,18.83,0,0,0,9.4-33.5,14.52,14.52,0,0,1-2.45-20.36A51.8,51.8,0,0,0,1242.6,1040Z"/><path class="cls-2" d="M659.51,112.23a14.52,14.52,0,0,1,5.66,19.71,52.2,52.2,0,0,0,20.39,70.89,14.52,14.52,0,0,1,5.66,19.7,52.21,52.21,0,0,0,20.39,70.9,18.83,18.83,0,0,0,18.23-33,14.52,14.52,0,0,1-5.66-19.7,52.22,52.22,0,0,0-20.39-70.89,14.51,14.51,0,0,1-5.66-19.71,52.23,52.23,0,0,0-20.39-70.89,18.83,18.83,0,1,0-18.23,33Z"/><path class="cls-2" d="M67.08,944.18a18.76,18.76,0,0,0,14,3.28,14.51,14.51,0,0,1,16.66,11.95,52.2,52.2,0,0,0,59.94,43,14.53,14.53,0,0,1,16.66,12,52.23,52.23,0,0,0,51.38,43.7,52.76,52.76,0,0,0,8.56-.7,18.83,18.83,0,1,0-6.12-37.16,14.53,14.53,0,0,1-16.66-12,52.22,52.22,0,0,0-59.94-43,14.52,14.52,0,0,1-16.66-12,52.22,52.22,0,0,0-59.94-43,18.84,18.84,0,0,0-7.92,33.89Z"/><path class="cls-2" d="M1134.42,1136.41a18.83,18.83,0,0,0-37.25-5.58,14.5,14.5,0,0,1-16.48,12.19,52.23,52.23,0,0,0-59.31,43.87,14.52,14.52,0,0,1-16.48,12.19,52.22,52.22,0,0,0-59.31,43.86,18.83,18.83,0,0,0,15.84,21.41,18,18,0,0,0,2.83.22,18.84,18.84,0,0,0,18.58-16,14.52,14.52,0,0,1,16.48-12.19,52.23,52.23,0,0,0,59.31-43.87,14.52,14.52,0,0,1,16.49-12.19A52.22,52.22,0,0,0,1134.42,1136.41Z"/><path class="cls-2" d="M1802.47,1240.14a14.52,14.52,0,0,1,20.39,2.15,52.22,52.22,0,0,0,73.36,7.75,14.52,14.52,0,0,1,20.39,2.15,52.19,52.19,0,0,0,73.35,7.75,18.83,18.83,0,0,0-23.68-29.28,14.51,14.51,0,0,1-20.39-2.16,52.22,52.22,0,0,0-73.36-7.74,14.51,14.51,0,0,1-20.39-2.16,52.22,52.22,0,0,0-73.36-7.74,18.83,18.83,0,0,0,23.69,29.28Z"/><path class="cls-2" d="M239.76,2108.89a14.52,14.52,0,0,1-15.57-13.34,52.22,52.22,0,0,0-56-48,18.83,18.83,0,1,0,2.9,37.55,14.53,14.53,0,0,1,15.57,13.34,52.23,52.23,0,0,0,52,48.15c1.34,0,2.69,0,4-.16a14.51,14.51,0,0,1,10.65,3.56H294.8l-.31-1.28A51.92,51.92,0,0,0,239.76,2108.89Z"/><path class="cls-2" d="M820.6,1404.63a18.83,18.83,0,0,0-9.35-36.48,14.52,14.52,0,0,1-17.64-10.45,52.21,52.21,0,0,0-63.48-37.58,14.52,14.52,0,0,1-17.64-10.45A52.21,52.21,0,0,0,649,1272.09a18.83,18.83,0,0,0,9.34,36.48A14.5,14.5,0,0,1,676,1319a52.23,52.23,0,0,0,63.48,37.58,14.52,14.52,0,0,1,17.64,10.45,52.13,52.13,0,0,0,63.48,37.58Z"/><path class="cls-2" d="M1173.49,1536.81a52.19,52.19,0,0,0,41.79-60.78,18.83,18.83,0,0,0-37,6.86,14.51,14.51,0,0,1-11.62,16.89,52.23,52.23,0,0,0-41.79,60.79,14.51,14.51,0,0,1-11.62,16.89,52.22,52.22,0,0,0-41.79,60.78,18.83,18.83,0,1,0,37-6.85,14.53,14.53,0,0,1,11.62-16.9,52.2,52.2,0,0,0,41.79-60.78A14.53,14.53,0,0,1,1173.49,1536.81Z"/><path class="cls-2" d="M918.47,183.1a18.85,18.85,0,0,0,2.75,26.49A14.51,14.51,0,0,1,923.33,230,52.22,52.22,0,0,0,931,303.35a14.51,14.51,0,0,1,2.12,20.4,52.22,52.22,0,0,0,7.62,73.37,18.83,18.83,0,0,0,23.74-29.24,14.5,14.5,0,0,1-2.12-20.39,52.23,52.23,0,0,0-7.62-73.38,14.52,14.52,0,0,1-2.12-20.39A52.22,52.22,0,0,0,945,180.35,18.85,18.85,0,0,0,918.47,183.1Z"/><path class="cls-2" d="M672.8,1189.83a19.07,19.07,0,0,0,6.29,1.07,18.82,18.82,0,1,0-17-10.73A19,19,0,0,0,672.8,1189.83Z"/><path class="cls-2" d="M866.41,1318.47a18.94,18.94,0,0,0,12.37,4.61c.43,0,.86,0,1.29,0a18.84,18.84,0,1,0-13.66-4.57Z"/><path class="cls-2" d="M773.86,1488a18.83,18.83,0,1,0-11.3,33.86,18.65,18.65,0,0,0,2.58-.18,18.83,18.83,0,0,0,8.72-33.68Z"/><path class="cls-2" d="M806.71,223.56a18.82,18.82,0,0,0,16.68,27.6,18.65,18.65,0,0,0,5.54-.83,18.84,18.84,0,0,0,3.22-34.65h0a18.83,18.83,0,0,0-25.44,7.88Z"/><path class="cls-2" d="M2108.14,812.15c-4.19.15-8.1,2.58-10.71,6.66a23.1,23.1,0,0,0-3.34,12.58,22.59,22.59,0,0,0,3.79,12.41c2.71,3.83,6.58,6,10.67,6h.43c4.19-.16,8.09-2.59,10.7-6.67a23.07,23.07,0,0,0,3.34-12.58,22.51,22.51,0,0,0-3.79-12.41C2116.43,814.18,2112.36,812,2108.14,812.15Z"/><path class="cls-2" d="M460.62,444a19,19,0,0,0,12.61,7,18.48,18.48,0,0,0,2.1.12,18.82,18.82,0,1,0-14.71-7.1Z"/><path class="cls-2" d="M2082.52,381.85a18.83,18.83,0,1,0-11.07,36,18.77,18.77,0,0,0,5.51.82,18.83,18.83,0,0,0,5.56-36.82Z"/><path class="cls-2" d="M544.59,2011.52a18.83,18.83,0,1,0-9.2,35.23,18.66,18.66,0,0,0,5-.69,18.82,18.82,0,0,0,4.17-34.54Z"/><path class="cls-2" d="M1865.65,1111.25c.47,0,.94,0,1.4,0a18.71,18.71,0,1,0-1.4,0Z"/><path class="cls-2" d="M762,1097.43a16.56,16.56,0,0,0,1.73.08,18.78,18.78,0,1,0-1.73-.08Z"/><path class="cls-2" d="M1584.33,1525.46a18.83,18.83,0,1,0,10.6,9.78A18.94,18.94,0,0,0,1584.33,1525.46Z"/><path class="cls-2" d="M26.06,476.54c.35,0,.69,0,1,0a18.82,18.82,0,1,0-1,0Z"/><path class="cls-2" d="M923.36,1771.44a18.83,18.83,0,1,0-12.6,32.81l.94,0a18.83,18.83,0,0,0,11.66-32.78Z"/><path class="cls-2" d="M252.81,1627.83a18.83,18.83,0,1,0-22.43,14.36,18.6,18.6,0,0,0,4,.43,18.83,18.83,0,0,0,18.44-14.79Z"/><path class="cls-2" d="M423,1390.57a18.83,18.83,0,0,0,15-34.56h0a18.83,18.83,0,1,0-15,34.56Z"/><path class="cls-2" d="M182.6,123.56l.8,0a18.7,18.7,0,1,0-.8,0Z"/><path class="cls-2" d="M1082.21,1044.09a18.83,18.83,0,0,0,16.4-33.91h0a18.83,18.83,0,0,0-16.39,33.91Z"/><path class="cls-2" d="M1888,667.78a19,19,0,0,0,11.6,4,19.72,19.72,0,0,0,2.3-.14,18.84,18.84,0,1,0-13.9-3.82Z"/><path class="cls-2" d="M2069.45,1953.58a18.83,18.83,0,1,0-11.14,34,18.35,18.35,0,0,0,2.77-.21,18.83,18.83,0,0,0,8.37-33.77Z"/><path class="cls-2" d="M419.92,180.18a18.73,18.73,0,0,0,6,1,18.78,18.78,0,1,0-6-1Z"/><path class="cls-2" d="M1633.35,1009.59a19,19,0,0,0,11.23,3.68,19.46,19.46,0,0,0,2.75-.2,18.83,18.83,0,1,0-14-3.48Z"/><path class="cls-2" d="M1481.13,703.67a18.83,18.83,0,1,0-11.14,34,18.27,18.27,0,0,0,2.75-.2,18.83,18.83,0,0,0,8.39-33.77Z"/><path class="cls-2" d="M1137,1428.43a18.94,18.94,0,0,0,11.23,3.68,18.08,18.08,0,0,0,2.75-.2,18.83,18.83,0,1,0-14-3.48Z"/><path class="cls-2" d="M379.62,95.59a18.84,18.84,0,1,0-10.84-9.5A18.81,18.81,0,0,0,379.62,95.59Z"/><path class="cls-2" d="M71.54,1063.29a18.84,18.84,0,1,0,.08,14.42A19,19,0,0,0,71.54,1063.29Z"/><path class="cls-2" d="M780.65,154a19,19,0,0,0,11.76,4.09,20.74,20.74,0,0,0,2.09-.11,18.83,18.83,0,0,0,9.59-33.45h0A18.83,18.83,0,1,0,780.65,154Z"/></g></g></svg>