<?xml version="1.0" standalone="no"?>
<!DOCTYPE svg PUBLIC "-//W3C//DTD SVG 1.1//EN" "http://www.w3.org/Graphics/SVG/1.1/DTD/svg11.dtd" >
<svg xmlns="http://www.w3.org/2000/svg" xmlns:xlink="http://www.w3.org/1999/xlink" version="1.1">
<metadata>
Created by FontForge 20170731 at Tue Nov 30 23:39:28 2021
 By Aleksey,,,
Copyright (c) 2015 by Fontsmith Ltd. All rights reserved. This font may not be altered in any way without prior permission of Fontsmith Ltd.
</metadata>
<defs>
<font id="Telefonica-ExtraLight" horiz-adv-x="0" >
  <font-face 
    font-family="Telefonica ExtraLight"
    font-weight="250"
    font-stretch="normal"
    units-per-em="2048"
    panose-1="0 0 3 0 0 0 0 0 0 0"
    ascent="1536"
    descent="-512"
    x-height="1004"
    cap-height="1401"
    bbox="-768 -539 2267 2419"
    underline-thickness="55"
    underline-position="-259"
    unicode-range="U+000D-FB02"
  />
<missing-glyph horiz-adv-x="1314" 
d="M176 0v1352h963v-1352h-963zM657 762l326 491h-655zM274 184l326 494l-326 489v-983zM1044 184v983l-327 -489zM328 100h655l-326 490z" />
    <glyph glyph-name="fi" unicode="fi" horiz-adv-x="948" 
d="M225 0v948h-180v43l180 15v194q0 162 82 236q80 63 234 63q100 0 188 -18v-56q-83 17 -190 17q-142 0 -199 -60q-30 -30 -42.5 -74.5t-12.5 -125.5v-178h503v-1004h-59v948h-444v-948h-60z" />
    <glyph glyph-name="fl" unicode="fl" horiz-adv-x="964" 
d="M225 0v948h-180v43l180 15v194q0 162 82 236q80 63 234 63q109 0 247 -20v-1479h-59v1427q-92 15 -190 15q-142 0 -199 -60q-30 -30 -42.5 -74.5t-12.5 -125.5v-178h290v-56h-290v-948h-60z" />
    <glyph glyph-name=".notdef" horiz-adv-x="1314" 
d="M176 0v1352h963v-1352h-963zM657 762l326 491h-655zM274 184l326 494l-326 489v-983zM1044 184v983l-327 -489zM328 100h655l-326 490z" />
    <glyph glyph-name=".null" 
 />
    <glyph glyph-name="nonmarkingreturn" horiz-adv-x="682" 
 />
    <glyph glyph-name="CR" unicode="&#xd;" horiz-adv-x="399" 
 />
    <glyph glyph-name="space" unicode=" " horiz-adv-x="399" 
 />
    <glyph glyph-name="exclam" unicode="!" horiz-adv-x="507" 
d="M229 317l-10 1084h72l-10 -1084h-52zM252 -29q-55 0 -55 54v8q0 55 55 55h4q55 0 55 -55v-8q0 -54 -55 -54h-4z" />
    <glyph glyph-name="quotedbl" unicode="&#x22;" horiz-adv-x="624" 
d="M186 1071l-8 330h58l-9 -330h-41zM397 1071l-8 330h57l-8 -330h-41z" />
    <glyph glyph-name="numbersign" unicode="#" horiz-adv-x="1046" 
d="M156 0l92 467h-162v53h170l68 361h-238v53h248l90 467h57l-90 -467h350l90 467h58l-90 -467h159v-53h-170l-67 -361h237v-53h-247l-93 -467h-57l92 467h-348l-92 -467h-57zM313 520h351l67 361h-350z" />
    <glyph glyph-name="dollar" unicode="$" horiz-adv-x="1046" 
d="M514 -266v239q-237 0 -385 56v59q102 -31 187.5 -43.5t197.5 -11.5v659q-150 62 -210 102q-142 96 -153 259q-1 16 -1 32q0 163 100 250q91 83 264 92v197h53v-197q146 -3 285 -45v-55q-146 43 -285 43v-629q48 -20 76.5 -32.5t71.5 -35.5t68.5 -43.5t55.5 -52t46 -65
t27.5 -79.5t11.5 -99q0 -162 -93.5 -251t-263.5 -108v-241h-53zM514 758v612q-144 -9 -222.5 -77t-78.5 -197q0 -49 10.5 -90t33 -73t47 -56.5t63 -47t69.5 -37t78 -34.5zM567 37q119 13 183 59q108 77 108 240q0 71 -22.5 126t-67 94.5t-89.5 65t-112 52.5v-637z" />
    <glyph glyph-name="percent" unicode="%" horiz-adv-x="1761" 
d="M403 600q-135 0 -201.5 98t-66.5 316t66.5 315.5t201.5 97.5q134 0 200.5 -97.5t66.5 -315.5t-66.5 -316t-200.5 -98zM504 -29l690 1456h61l-690 -1456h-61zM403 651q111 0 160 81.5t49 281.5q0 198 -50 280t-159 82t-159.5 -81t-50.5 -281q0 -203 51 -283t159 -80z
M1360 -29q-135 0 -201.5 98t-66.5 316t66.5 316t201.5 98q134 0 200 -98t66 -316t-66 -316t-200 -98zM1360 23q111 0 160 81t49 281q0 198 -50 280.5t-159 82.5t-160 -81.5t-51 -281.5q0 -104 13.5 -175t41 -111.5t65.5 -58t91 -17.5z" />
    <glyph glyph-name="ampersand" unicode="&#x26;" horiz-adv-x="1345" 
d="M1208 -68l-213 242q-174 -207 -450 -207q-174 0 -289 104.5t-115 272.5q0 273 314 442q-111 133 -150 203t-39 156q0 129 79.5 201.5t201.5 72.5q116 0 190 -68t74 -188q0 -238 -268 -391l452 -508q88 124 101 393h59q-3 -276 -123 -440l219 -244zM508 813
q133 79 189.5 162.5t56.5 185.5q0 92 -59 148.5t-150 56.5q-100 0 -160.5 -59.5t-60.5 -159.5q0 -80 39.5 -147t144.5 -187zM549 25q253 0 409 190l-466 533q-146 -82 -218.5 -177t-72.5 -233q0 -143 97 -228t251 -85z" />
    <glyph glyph-name="quotesingle" unicode="'" horiz-adv-x="413" 
d="M186 1071l-8 330h58l-9 -330h-41z" />
    <glyph glyph-name="parenleft" unicode="(" horiz-adv-x="610" 
d="M543 -461q-367 331 -367 985q0 658 367 989l26 -22q-321 -368 -321 -967q0 -312 82.5 -546t240.5 -414z" />
    <glyph glyph-name="parenright" unicode=")" horiz-adv-x="610" 
d="M68 -461l-29 25q158 180 240.5 414t82.5 546q0 599 -321 967l27 22q366 -330 366 -989q0 -655 -366 -985z" />
    <glyph glyph-name="asterisk" unicode="*" horiz-adv-x="839" 
d="M213 678l-49 37l221 284l-324 115l19 53l315 -125l-8 359h64l-9 -359l318 125l18 -53l-325 -115l221 -284l-49 -37l-205 293z" />
    <glyph glyph-name="plus" unicode="+" horiz-adv-x="993" 
d="M469 391v271h-272v53h272v272h57v-272h271v-53h-271v-271h-57z" />
    <glyph glyph-name="comma" unicode="," horiz-adv-x="442" 
d="M211 -225v196q-55 5 -55 54v8q0 55 55 55h4q28 0 41.5 -20.5t13.5 -73.5q0 -97 -28 -219h-31z" />
    <glyph glyph-name="hyphen" unicode="-" horiz-adv-x="636" 
d="M147 504v57h342v-57h-342z" />
    <glyph glyph-name="period" unicode="." horiz-adv-x="442" 
d="M219 -29q-55 0 -55 54v8q0 55 55 55h4q26 0 41 -14.5t15 -40.5v-8q0 -54 -56 -54h-4z" />
    <glyph glyph-name="slash" unicode="/" horiz-adv-x="882" 
d="M115 -29l592 1456h61l-592 -1456h-61z" />
    <glyph glyph-name="zero" unicode="0" horiz-adv-x="1046" 
d="M524 -29q-229 0 -332.5 184.5t-103.5 542.5q0 359 103.5 544t332.5 185q228 0 331 -185.5t103 -543.5t-103 -542.5t-331 -184.5zM524 31q73 0 130.5 21t98 62.5t68.5 97.5t44 133t23 162t7 191q0 128 -10 226.5t-35 184t-66.5 141t-107 87t-152.5 31.5
q-88 0 -153.5 -31.5t-107 -86.5t-66.5 -141.5t-35 -184.5t-10 -226t10 -226t35 -183.5t66.5 -140.5t107 -86t153.5 -31z" />
    <glyph glyph-name="one" unicode="1" horiz-adv-x="1046" 
d="M270 0v53h246v1303h-229v45q126 12 192 12q54 0 75 -14.5t21 -52.5v-1293h207v-53h-512z" />
    <glyph glyph-name="two" unicode="2" horiz-adv-x="1046" 
d="M199 55h708v-55h-768q-6 12 -6 29q0 23 14.5 46.5t65.5 86.5l362 450q131 162 186.5 271.5t55.5 212.5q0 272 -360 272q-81 0 -285 -27v48q34 13 125.5 25.5t177.5 12.5q213 0 316 -98q90 -88 90 -237q0 -112 -52.5 -220t-199.5 -288z" />
    <glyph glyph-name="three" unicode="3" horiz-adv-x="1046" 
d="M446 -29q-70 0 -160 10t-141 25v51q127 -26 279 -26q214 0 313 102q80 82 80 238q0 143 -76 219q-100 100 -311 100h-10v49h12q180 0 266 81.5t86 248.5q0 146 -71 219q-79 82 -254 82q-166 0 -295 -37v51q128 43 307 43q188 0 283 -90q94 -91 94 -262q0 -273 -215 -354
q114 -30 182 -116t68 -230q0 -93 -28.5 -169t-72.5 -122q-107 -113 -336 -113z" />
    <glyph glyph-name="four" unicode="4" horiz-adv-x="1046" 
d="M768 0v365h-668q-6 18 -6 34q0 10 2.5 22.5t5 20.5t10.5 32t13 38l295 889h61l-325 -981h612v375h57v-375h170v-55h-170v-365h-57z" />
    <glyph glyph-name="five" unicode="5" horiz-adv-x="1046" 
d="M442 -29q-70 0 -141 10.5t-102 22.5v55q90 -28 229 -28q403 0 403 352q0 170 -92 262q-45 45 -119 68.5t-208 23.5h-176q-7 42 -7 82l17 582h565v-58h-506l-18 -548h149q234 0 346 -103q55 -50 84 -131t29 -178q0 -200 -121.5 -306t-331.5 -106z" />
    <glyph glyph-name="six" unicode="6" horiz-adv-x="1046" 
d="M565 -29q-224 0 -317.5 167.5t-93.5 529.5q0 494 155 649q58 56 145 83t181 27q90 0 201 -24v-51q-89 14 -191 14q-75 0 -133.5 -13.5t-102 -38t-75.5 -65.5t-52.5 -88.5t-34 -116t-20 -138.5t-10.5 -165q69 31 163 53.5t181 22.5q377 0 377 -399q0 -207 -96 -327
t-277 -120zM563 29q151 0 232.5 104t81.5 287q0 185 -84 261.5t-250 76.5q-174 0 -326 -70v-35q0 -311 80.5 -467.5t265.5 -156.5z" />
    <glyph glyph-name="seven" unicode="7" horiz-adv-x="1046" 
d="M903 1401q2 -6 2 -17q0 -12 -26 -92l-418 -1292h-72l445 1341h-674v60h743z" />
    <glyph glyph-name="eight" unicode="8" horiz-adv-x="1046" 
d="M524 -29q-186 0 -303 106.5t-117 270.5q0 151 96.5 258.5t235.5 157.5q-55 29 -95 57t-78.5 68.5t-58.5 93.5t-20 117q0 143 95 235t245 92q153 0 248.5 -87.5t95.5 -227.5q0 -134 -73 -217t-211 -139q45 -22 75.5 -37.5t71.5 -40t68.5 -47t56.5 -54t46.5 -65t28.5 -76
t11 -90.5q0 -180 -116 -277.5t-302 -97.5zM520 786q149 56 218 134.5t69 187.5q0 120 -76.5 191t-202.5 71q-128 0 -204 -75.5t-76 -192.5q0 -48 15.5 -89t37.5 -70.5t61.5 -60t72.5 -50t85 -46.5zM524 31q100 0 178 32t126.5 102.5t48.5 170.5q0 75 -26.5 134t-91 108
t-104.5 72t-133 67l-24 12q-162 -54 -245 -150.5t-83 -226.5q0 -140 100.5 -230.5t253.5 -90.5z" />
    <glyph glyph-name="nine" unicode="9" horiz-adv-x="1046" 
d="M481 1427q224 0 318 -167t94 -529q0 -493 -156 -649q-58 -57 -144.5 -84t-180.5 -27q-85 0 -201 25v51q89 -14 190 -14q75 0 133.5 13.5t102.5 37.5t75.5 65.5t52 88.5t34 115.5t20 138.5t10.5 165q-68 -31 -162 -53t-182 -22q-376 0 -376 399q0 207 95.5 326.5
t276.5 119.5zM483 1370q-151 0 -232 -103.5t-81 -287.5q0 -185 84 -261.5t250 -76.5q173 0 325 70v34q0 311 -80.5 468t-265.5 157z" />
    <glyph glyph-name="colon" unicode=":" horiz-adv-x="442" 
d="M219 702q-55 0 -55 54v8q0 55 55 55h4q26 0 41 -14.5t15 -40.5v-8q0 -54 -56 -54h-4zM219 -29q-55 0 -55 54v8q0 55 55 55h4q26 0 41 -14.5t15 -40.5v-8q0 -54 -56 -54h-4z" />
    <glyph glyph-name="semicolon" unicode=";" horiz-adv-x="444" 
d="M219 702q-55 0 -55 54v8q0 55 55 55h4q26 0 41 -14.5t15 -40.5v-8q0 -54 -56 -54h-4zM219 -225v196q-55 5 -55 54v8q0 55 55 55h4q28 0 42 -20.5t14 -73.5q0 -93 -29 -219h-31z" />
    <glyph glyph-name="less" unicode="&#x3c;" horiz-adv-x="993" 
d="M795 346l-596 297v62l596 296v-61l-539 -266l539 -266v-62z" />
    <glyph glyph-name="equal" unicode="=" horiz-adv-x="993" 
d="M197 825v54h600v-54h-600zM197 483v54h600v-54h-600z" />
    <glyph glyph-name="greater" unicode="&#x3e;" horiz-adv-x="993" 
d="M199 346v62l538 266l-538 266v61l596 -296v-62z" />
    <glyph glyph-name="question" unicode="?" horiz-adv-x="804" 
d="M262 317q-6 30 -6 70q0 84 29.5 148t113.5 165l21 25q136 162 178.5 236.5t42.5 160.5q0 124 -86 193q-71 57 -236 57q-102 0 -221 -29l-8 43q33 15 106.5 28t147.5 13q161 0 250 -67q54 -40 81 -96.5t27 -143.5q0 -97 -41 -173.5t-157 -213.5q-52 -61 -73.5 -86.5
t-49.5 -64t-35.5 -57.5t-17 -55t-10.5 -67.5t-1 -85.5h-55zM293 -29q-55 0 -55 54v8q0 55 55 55h4q55 0 55 -55v-8q0 -54 -55 -54h-4z" />
    <glyph glyph-name="at" unicode="@" horiz-adv-x="1519" 
d="M791 -29q-328 0 -512.5 195t-184.5 534q0 338 181.5 532.5t490.5 194.5q297 0 474 -177.5t177 -483.5q0 -228 -117 -336q-82 -76 -215 -76q-94 0 -149 41q-98 -49 -207 -49q-110 0 -163.5 53.5t-53.5 143.5q0 82 39 131q29 38 77.5 51.5t129.5 13.5h164v74q0 121 -37 158
t-150 37q-64 0 -145 -11l-2 47q78 17 174 17q122 0 170 -53q25 -28 35 -67t10 -128v-383q46 -22 115 -22q104 0 172 61q96 86 96 289q0 287 -161 449.5t-433 162.5q-196 0 -336 -88t-208 -239t-68 -349q0 -315 171 -490t486 -175q92 0 208 13.5t189 29.5v-52
q-76 -20 -199.5 -34.5t-217.5 -14.5zM748 397q46 0 95.5 12.5t78.5 30.5v250h-185q-102 0 -139 -47q-29 -39 -29 -102q0 -69 40 -106.5t139 -37.5z" />
    <glyph glyph-name="A" unicode="A" horiz-adv-x="1081" 
d="M53 0l436 1401h80l459 -1401h-65l-127 395h-596l-121 -395h-66zM258 451h559l-287 890z" />
    <glyph glyph-name="B" unicode="B" horiz-adv-x="1138" 
d="M193 0v1401h366q112 0 171.5 -19.5t100.5 -60.5q87 -87 87 -248q0 -277 -224 -323q161 -12 237.5 -101.5t76.5 -261.5q0 -180 -86 -283q-52 -59 -126.5 -81.5t-215.5 -22.5h-387zM256 764h256q178 0 260 75t82 220q0 146 -70 219q-34 36 -91 52t-171 16h-266v-582z
M256 55h270q148 0 222 19.5t120 66.5q76 79 76 248q0 83 -18 140.5t-64 103.5q-42 42 -113 60t-210 18h-283v-656z" />
    <glyph glyph-name="C" unicode="C" horiz-adv-x="1056" 
d="M690 -29q-130 0 -230 38t-175 120t-114.5 220.5t-39.5 330.5q0 194 40 339t114.5 233.5t174 131.5t224.5 43q156 0 293 -53l-14 -57q-136 49 -267 49q-112 0 -200.5 -37t-157 -116t-105 -214t-36.5 -321q0 -337 124.5 -490t380.5 -153q33 0 64 2t61.5 7t46 8t46 10
t34.5 8l11 -58q-138 -41 -275 -41z" />
    <glyph glyph-name="D" unicode="D" horiz-adv-x="1249" 
d="M193 0v1401h305q166 0 272 -25t186 -96q81 -73 121.5 -207.5t40.5 -367.5q0 -224 -40 -366.5t-122 -219.5q-124 -119 -399 -119h-364zM254 55h285q251 0 368 111q146 140 146 549q0 210 -34.5 331.5t-105.5 186.5q-72 65 -169 89t-240 24h-250v-1291z" />
    <glyph glyph-name="E" unicode="E" horiz-adv-x="1001" 
d="M193 0v1401h669l-12 -55h-596v-607h498v-55h-498v-629h629v-55h-690z" />
    <glyph glyph-name="F" unicode="F" horiz-adv-x="917" 
d="M193 0v1401h647l-13 -55h-573v-607h471v-55h-471v-684h-61z" />
    <glyph glyph-name="G" unicode="G" horiz-adv-x="1177" 
d="M721 -29q-590 0 -590 705q0 379 160 565t442 186q155 0 285 -47l-14 -57q-157 43 -263 43q-264 0 -404 -170.5t-140 -513.5q0 -125 18.5 -225t54 -170t82 -119.5t107.5 -78t125.5 -41.5t140.5 -13q152 0 250 24v553h-256v56h313v-656q-47 -17 -137 -29t-174 -12z" />
    <glyph glyph-name="H" unicode="H" horiz-adv-x="1280" 
d="M193 0v1401h61v-664h772v664h61v-1401h-61v682h-772v-682h-61z" />
    <glyph glyph-name="I" unicode="I" horiz-adv-x="446" 
d="M193 0v1401h61v-1401h-61z" />
    <glyph glyph-name="J" unicode="J" horiz-adv-x="677" 
d="M190 -29q-60 0 -100 9l-8 57q24 -6 98 -6q41 0 74.5 4.5t58.5 10.5t44.5 19.5t32.5 25.5t21.5 34t13.5 39t7.5 47.5t3 52.5t0.5 60v1077h62v-1077q0 -53 -1 -81.5t-7 -72.5t-17.5 -67.5t-33.5 -53t-54.5 -43.5t-81.5 -24.5t-113 -10.5z" />
    <glyph glyph-name="K" unicode="K" horiz-adv-x="1099" 
d="M193 0v1401h61v-838l666 838h71l-461 -582l494 -819h-70l-462 774l-238 -297v-477h-61z" />
    <glyph glyph-name="L" unicode="L" horiz-adv-x="946" 
d="M193 0v1401h61v-1346h602v-55h-663z" />
    <glyph glyph-name="M" unicode="M" horiz-adv-x="1574" 
d="M193 0v1401h61l528 -1028l543 1028h57v-1401h-57v1282l-514 -973h-61l-500 973v-1282h-57z" />
    <glyph glyph-name="N" unicode="N" horiz-adv-x="1333" 
d="M193 0v1401h45l845 -1278v1278h58v-1401h-47l-844 1278v-1278h-57z" />
    <glyph glyph-name="O" unicode="O" horiz-adv-x="1267" 
d="M635 -29q-504 0 -504 727q0 729 504 729q502 0 502 -729q0 -727 -502 -727zM635 35q231 0 333.5 167.5t102.5 495.5q0 329 -103 498.5t-333 169.5q-118 0 -203 -44.5t-136 -132t-75 -208.5t-24 -283q0 -328 103 -495.5t335 -167.5z" />
    <glyph glyph-name="P" unicode="P" horiz-adv-x="1101" 
d="M193 0v1401h389q216 0 309 -98q102 -108 102 -324q0 -212 -94 -317q-89 -105 -274 -105h-371v-557h-61zM254 612h346q99 0 155 20.5t97 67.5q42 50 59 114t17 161q0 188 -82 282q-77 89 -273 89h-319v-734z" />
    <glyph glyph-name="Q" unicode="Q" horiz-adv-x="1271" 
d="M1133 -186l-256 125q-40 21 -74 26.5t-119 5.5h-49q-504 0 -504 727q0 729 504 729q502 0 502 -729q0 -568 -306 -692q130 -23 330 -143q-12 -30 -28 -49zM635 35q231 0 333.5 167.5t102.5 495.5q0 329 -103 498.5t-333 169.5q-118 0 -203 -44.5t-136 -132t-75 -208.5
t-24 -283q0 -328 103 -495.5t335 -167.5z" />
    <glyph glyph-name="R" unicode="R" horiz-adv-x="1134" 
d="M193 0v1401h374q127 0 206 -28t128 -85q94 -109 94 -299q0 -70 -13.5 -131.5t-43 -118t-85 -97t-132.5 -58.5l295 -584h-68l-284 575q-32 -4 -91 -4h-319v-571h-61zM254 627h330q157 0 235 65q111 93 111 293q0 171 -80 264q-82 97 -279 97h-317v-719z" />
    <glyph glyph-name="S" unicode="S" horiz-adv-x="1044" 
d="M467 -29q-102 0 -196 17.5t-148 38.5l14 59q159 -51 328 -51q186 0 280 63q109 73 109 234q0 72 -24.5 128.5t-65.5 93.5t-94.5 66.5t-112.5 52.5t-117.5 47t-112 55.5t-94.5 71t-65.5 100.5t-24.5 138q0 162 101 250q105 92 305 92q146 0 297 -45l-15 -57
q-139 41 -270 41q-356 0 -356 -272q0 -89 39.5 -152.5t102 -101t138.5 -68t152.5 -64t139 -77t102 -119t39.5 -178.5q0 -184 -119 -273.5t-332 -89.5z" />
    <glyph glyph-name="T" unicode="T" horiz-adv-x="1087" 
d="M516 0v1346h-455v55h975l-12 -55h-446v-1346h-62z" />
    <glyph glyph-name="U" unicode="U" horiz-adv-x="1273" 
d="M641 -29q-256 0 -367 129q-94 107 -94 346v955h62v-952q0 -220 86 -316q92 -100 309 -100q200 0 297 90q54 50 78 123t24 192v963h58v-977q0 -123 -27 -203t-88 -139q-116 -111 -338 -111z" />
    <glyph glyph-name="V" unicode="V" horiz-adv-x="1107" 
d="M522 0l-459 1401h66l432 -1344l420 1344h63l-442 -1401h-80z" />
    <glyph glyph-name="W" unicode="W" horiz-adv-x="1685" 
d="M457 0l-394 1401h64l369 -1325l313 1325h76l329 -1325l345 1325h63l-367 -1401h-79l-328 1315l-311 -1315h-80z" />
    <glyph glyph-name="X" unicode="X" horiz-adv-x="927" 
d="M59 0l375 696l-381 705h68l346 -651l334 651h63l-364 -701l379 -700h-68l-346 645l-340 -645h-66z" />
    <glyph glyph-name="Y" unicode="Y" horiz-adv-x="1056" 
d="M487 0v573l-430 828h68l395 -770l414 770h65l-450 -828v-573h-62z" />
    <glyph glyph-name="Z" unicode="Z" horiz-adv-x="1077" 
d="M199 55h768v-55h-840v49l754 1297h-762v55h833v-47z" />
    <glyph glyph-name="bracketleft" unicode="[" horiz-adv-x="645" 
d="M266 -424v1913h307v-57h-245v-1799h245v-57h-307z" />
    <glyph glyph-name="backslash" unicode="\" horiz-adv-x="882" 
d="M707 -29l-592 1456h61l592 -1456h-61z" />
    <glyph glyph-name="bracketright" unicode="]" horiz-adv-x="645" 
d="M72 -424v57h245v1799h-245v57h307v-1913h-307z" />
    <glyph glyph-name="asciicircum" unicode="^" horiz-adv-x="993" 
d="M150 899l321 502h53l322 -502h-64l-282 447l-285 -447h-65z" />
    <glyph glyph-name="underscore" unicode="_" horiz-adv-x="880" 
d="M86 -113v56h709v-56h-709z" />
    <glyph glyph-name="grave" unicode="`" horiz-adv-x="798" 
d="M563 1176l-362 270l57 67l332 -305z" />
    <glyph glyph-name="a" unicode="a" horiz-adv-x="966" 
d="M422 -29q-143 0 -233.5 78t-90.5 234q0 125 70 198q46 48 119.5 68t187.5 20h279v107q0 168 -62 233q-63 66 -219 66q-138 0 -283 -37l-6 51q150 43 295 43q182 0 260 -84q74 -81 74 -246v-702h-45l-8 68q-67 -40 -157 -68.5t-181 -28.5zM438 29q94 0 177.5 27t138.5 61
v397h-271q-193 0 -264 -68q-59 -56 -59 -163q0 -128 74 -191t204 -63z" />
    <glyph glyph-name="b" unicode="b" horiz-adv-x="1024" 
d="M539 -29q-170 0 -326 103l-6 -74h-47v1464h59v-520q156 88 305 88q385 0 385 -530q0 -531 -370 -531zM528 31q74 0 130.5 26t92 68.5t58 102.5t31 123t8.5 136q0 251 -81.5 369.5t-248.5 118.5q-141 0 -299 -88v-760q147 -96 309 -96z" />
    <glyph glyph-name="c" unicode="c" horiz-adv-x="860" 
d="M578 -29q-113 0 -196.5 27.5t-144.5 88.5t-91.5 164t-30.5 249q0 279 111 405.5t325 126.5q129 0 225 -39l-6 -53q-112 35 -215 35q-93 0 -160.5 -23.5t-118 -77t-75.5 -147t-25 -227.5q0 -252 96 -360.5t312 -108.5q98 0 186 18l8 -53q-97 -25 -200 -25z" />
    <glyph glyph-name="d" unicode="d" horiz-adv-x="1026" 
d="M508 -29q-208 0 -300.5 133.5t-92.5 395.5q0 532 397 532q157 0 295 -78v510h59v-1464h-45l-8 63q-58 -37 -142.5 -64.5t-162.5 -27.5zM512 31q63 0 123 14.5t91 28.5t81 39v784q-80 43 -143 60.5t-140 17.5q-179 0 -263.5 -113.5t-84.5 -355.5q0 -244 78 -359.5
t258 -115.5z" />
    <glyph glyph-name="e" unicode="e" horiz-adv-x="989" 
d="M559 -29q-230 0 -337 135t-107 394q0 112 22 205.5t66.5 168t120.5 116.5t176 42q190 0 281 -127t91 -391v-22q0 -13 -5 -18t-19 -5h-672q3 -218 92.5 -328t292.5 -110q139 0 256 32l8 -55q-44 -14 -121.5 -25.5t-144.5 -11.5zM176 524h637q0 235 -77.5 343t-235.5 108
t-240 -122.5t-84 -328.5z" />
    <glyph glyph-name="f" unicode="f" horiz-adv-x="563" 
d="M225 0v950h-180v41l180 13v200q0 88 13 138.5t49 84.5q75 72 219 72q65 0 119 -12v-57q-58 12 -113 12q-124 0 -180 -56q-29 -29 -38 -71t-9 -127v-184h286v-54h-286v-950h-60z" />
    <glyph glyph-name="g" unicode="g" horiz-adv-x="995" 
d="M852 0q68 -68 68 -188q0 -132 -80 -209q-95 -92 -332 -92q-217 0 -321.5 71.5t-104.5 204.5q0 81 35 152t92 106q-59 33 -59 119q0 55 28 116.5t76 96.5q-131 93 -131 295q0 176 99 268t263 92q88 0 142 -20l131 252q23 -8 49 -25l-129 -250q168 -96 168 -317
q0 -179 -99.5 -268t-265.5 -89q-102 0 -180 35q-35 -24 -63.5 -76t-28.5 -104q0 -41 20 -61q19 -19 54.5 -25.5t105.5 -5.5h176q121 0 181.5 -16.5t105.5 -61.5zM182 672q0 -144 78 -221.5t221 -77.5q150 0 227.5 80.5t77.5 218.5q0 145 -76 224t-225 79q-148 0 -225.5 -80
t-77.5 -223zM506 -432q192 0 272 60t80 182q0 121 -69.5 165.5t-213.5 44.5h-196q-91 0 -121 9q-59 -43 -87 -105.5t-28 -128.5q0 -111 85 -169t278 -58z" />
    <glyph glyph-name="h" unicode="h" horiz-adv-x="1056" 
d="M821 952q47 -42 64.5 -100.5t17.5 -142.5v-709h-59v670q0 93 -15 146t-51 89q-32 32 -90 51t-131 19q-152 0 -338 -101v-874h-59v1464h59v-536q172 104 354 104q161 0 248 -80z" />
    <glyph glyph-name="i" unicode="i" horiz-adv-x="380" 
d="M188 1221q-25 0 -36 10.5t-11 36.5v8q0 26 11 36.5t36 10.5h5q25 0 36 -10.5t11 -36.5v-8q0 -26 -11 -36.5t-36 -10.5h-5zM160 0v1004h59v-1004h-59z" />
    <glyph glyph-name="j" unicode="j" horiz-adv-x="387" 
d="M195 1221q-25 0 -36.5 10.5t-11.5 36.5v8q0 26 11.5 36.5t36.5 10.5h4q25 0 36 -10.5t11 -36.5v-8q0 -26 -11 -36.5t-36 -10.5h-4zM-100 -487l-11 53q145 -3 220 65q30 27 43.5 75t13.5 138v1160h59v-1160q0 -102 -15 -157.5t-52 -92.5q-81 -81 -258 -81z" />
    <glyph glyph-name="k" unicode="k" horiz-adv-x="948" 
d="M160 0v1464h65v-1050l551 590h82l-348 -373l385 -631h-74l-354 588l-242 -258v-330h-65z" />
    <glyph glyph-name="l" unicode="l" horiz-adv-x="378" 
d="M160 0v1464h59v-1464h-59z" />
    <glyph glyph-name="m" unicode="m" horiz-adv-x="1681" 
d="M160 0v1004h45l8 -74q156 102 332 102q177 0 276 -104q173 104 371 104q169 0 258 -80q42 -39 60 -96t18 -147v-709h-62v668q0 96 -13 148t-48 87q-72 72 -227 72q-151 0 -330 -90q29 -63 29 -176v-709h-60v668q0 100 -15 152t-46 83q-37 35 -99 53.5t-129 18.5
q-138 0 -309 -96v-879h-59z" />
    <glyph glyph-name="n" unicode="n" horiz-adv-x="1056" 
d="M160 0v1004h45l8 -78q176 106 360 106q161 0 248 -80q47 -42 64.5 -100.5t17.5 -142.5v-709h-59v670q0 93 -15 146t-51 89q-32 32 -90 51t-131 19q-152 0 -338 -101v-874h-59z" />
    <glyph glyph-name="o" unicode="o" horiz-adv-x="1042" 
d="M522 -29q-211 0 -309 134t-98 397q0 264 98 397t309 133q210 0 308 -134t98 -396t-98.5 -396.5t-307.5 -134.5zM522 31q185 0 264.5 117.5t79.5 353.5t-79.5 354.5t-264.5 118.5q-187 0 -266.5 -118.5t-79.5 -354.5t79.5 -353.5t266.5 -117.5z" />
    <glyph glyph-name="p" unicode="p" horiz-adv-x="1021" 
d="M160 -461v1465h45l8 -80q55 39 141.5 73.5t169.5 34.5q93 0 161.5 -27.5t119.5 -88t76.5 -163t25.5 -247.5q0 -98 -10 -175.5t-36 -146.5t-68.5 -114.5t-109 -72t-155.5 -26.5q-92 0 -176 33t-133 70v-535h-59zM522 31q79 0 137 24t93.5 64t57 102.5t29 130t7.5 156.5
q0 248 -79.5 357.5t-252.5 109.5q-138 0 -295 -103v-737q52 -42 135 -73t168 -31z" />
    <glyph glyph-name="q" unicode="q" horiz-adv-x="1026" 
d="M807 -461v520q-60 -36 -142.5 -62t-156.5 -26q-208 0 -300.5 133.5t-92.5 395.5q0 532 397 532q159 0 301 -82l8 54h45v-1453zM512 31q62 0 123 15.5t90.5 28.5t81.5 40v782q-80 43 -143 60.5t-140 17.5q-179 0 -263.5 -113.5t-84.5 -355.5q0 -244 78 -359.5t258 -115.5z
" />
    <glyph glyph-name="r" unicode="r" horiz-adv-x="595" 
d="M160 0v1004h45l8 -84q139 112 311 112q23 0 31 -2v-61q-18 2 -47 2q-152 0 -289 -103v-868h-59z" />
    <glyph glyph-name="s" unicode="s" horiz-adv-x="790" 
d="M367 -29q-65 0 -137 10t-113 23l6 53q109 -28 237 -28q150 0 227 54t77 157q0 67 -31.5 113.5t-81.5 72t-111 44.5t-122 39.5t-111 48.5t-81.5 79.5t-31.5 124.5q0 71 26.5 124t74 84.5t109 46.5t136.5 15q116 0 217 -28l-6 -56q-121 27 -213 27q-282 0 -282 -213
q0 -53 24.5 -92t64.5 -61t91 -42.5t104.5 -35t104.5 -38.5t91 -53.5t64.5 -81t24.5 -118.5q0 -124 -88 -196.5t-270 -72.5z" />
    <glyph glyph-name="t" unicode="t" horiz-adv-x="653" 
d="M459 -29q-123 0 -185 62q-31 31 -44 77t-13 123v717h-180v41l180 13v227q29 13 59 16v-243h273v-54h-273v-667q0 -76 9.5 -126t38.5 -81q44 -47 137 -47q79 0 153 18l7 -49q-78 -27 -162 -27z" />
    <glyph glyph-name="u" unicode="u" horiz-adv-x="1052" 
d="M481 -29q-158 0 -245 80q-46 42 -64 101t-18 143v709h59v-670q0 -93 15 -146.5t51 -89.5q69 -69 219 -69q152 0 336 100v875h59v-1004h-45l-8 78q-178 -107 -359 -107z" />
    <glyph glyph-name="v" unicode="v" horiz-adv-x="849" 
d="M393 0l-348 1004h64l319 -936l315 936h62l-342 -1004h-70z" />
    <glyph glyph-name="w" unicode="w" horiz-adv-x="1329" 
d="M336 0l-297 1004h65l269 -926l260 926h59l301 -926l228 926h63l-254 -1004h-72l-294 911l-256 -911h-72z" />
    <glyph glyph-name="x" unicode="x" horiz-adv-x="811" 
d="M53 0l316 500l-316 504h68l280 -457l289 457h68l-322 -502l318 -502h-68l-285 457l-282 -457h-66z" />
    <glyph glyph-name="y" unicode="y" horiz-adv-x="1052" 
d="M557 -489q-92 0 -139 14l-15 55q61 -12 134 -12q162 0 233 59q38 30 51 83t13 143v221q-173 -103 -353 -103q-158 0 -245 80q-46 42 -64 101t-18 143v709h59v-670q0 -90 15 -146t51 -90q72 -69 217 -69q154 0 338 100v875h59v-1156q0 -193 -72 -260q-83 -77 -264 -77z
" />
    <glyph glyph-name="z" unicode="z" horiz-adv-x="835" 
d="M98 0v37l574 913h-561v54h643v-35l-574 -914h580v-55h-662z" />
    <glyph glyph-name="braceleft" unicode="{" horiz-adv-x="671" 
d="M502 -424q-97 0 -140 40.5t-43 141.5v414q0 117 -21 182.5t-63.5 98t-123.5 53.5v53q120 28 164 98t44 236v414q0 100 42.5 141t140.5 41h67v-57h-61q-80 0 -104.5 -28.5t-24.5 -115.5v-391q0 -175 -37 -252t-143 -113q52 -20 82 -41.5t54 -61t34 -102t10 -159.5v-391
q0 -86 23.5 -115t105.5 -29h61v-57h-67z" />
    <glyph glyph-name="bar" unicode="|" horiz-adv-x="425" 
d="M184 -518v2040h58v-2040h-58z" />
    <glyph glyph-name="braceright" unicode="}" horiz-adv-x="671" 
d="M172 -424h-68v57h62q82 0 105.5 29t23.5 115v391q0 97 10 159.5t34 102t54 61t82 41.5q-106 36 -143 113t-37 252v391q0 87 -24.5 115.5t-104.5 28.5h-62v57h68q98 0 140 -41t42 -141v-414q0 -165 44.5 -235.5t164.5 -98.5v-53q-120 -30 -164.5 -97t-44.5 -237v-414
q0 -102 -42.5 -142t-139.5 -40z" />
    <glyph glyph-name="asciitilde" unicode="~" horiz-adv-x="995" 
d="M696 680q-68 0 -194.5 34t-196.5 34q-77 0 -94 -64l-45 10q5 48 39.5 81.5t95.5 33.5q76 0 204 -34t189 -34q69 0 92 64l45 -12q-6 -54 -42 -83.5t-93 -29.5z" />
    <glyph glyph-name="uni00A0" unicode="&#xa0;" horiz-adv-x="399" 
 />
    <glyph glyph-name="exclamdown" unicode="&#xa1;" horiz-adv-x="507" 
d="M256 1012q55 0 55 -54v-8q0 -55 -55 -55h-4q-55 0 -55 55v8q0 54 55 54h4zM279 666l10 -1084h-72l10 1084h52z" />
    <glyph glyph-name="cent" unicode="&#xa2;" horiz-adv-x="1046" 
d="M575 -293v266q-133 8 -221 61t-137 168.5t-49 297.5q0 269 103.5 396.5t303.5 135.5v221h54v-221q116 -5 200 -39v-51q-118 35 -200 37v-952q104 0 202 20v-51q-89 -25 -202 -25v-264h-54zM575 29v950q-172 -9 -259 -119t-87 -360q0 -234 82 -345.5t264 -125.5z" />
    <glyph glyph-name="sterling" unicode="&#xa3;" horiz-adv-x="1046" 
d="M174 0q-6 12 -6 31q0 25 13.5 42.5t60.5 63.5q85 82 117 154t32 164q0 114 -45 247h-166v35l152 11q-58 157 -58 294q0 189 105 287t299 98q155 0 270 -36v-48q-147 27 -250 27q-360 0 -360 -326q0 -120 55 -290h357v-52h-340q43 -127 43 -249q0 -116 -48 -203t-174 -195
h736v-55h-793z" />
    <glyph glyph-name="currency" unicode="&#xa4;" horiz-adv-x="1046" 
d="M154 289l-35 35l166 168q-32 37 -53 97.5t-21 127.5q0 66 21.5 125.5t54.5 97.5l-168 170l35 35l165 -166q77 74 205 74q122 0 201 -76l168 168l35 -35l-166 -168q32 -37 53 -97.5t21 -127.5t-21 -127.5t-53 -97.5l166 -168l-35 -35l-168 168q-79 -76 -201 -76
q-123 0 -202 76zM524 432q80 0 139.5 44.5t87 107.5t27.5 133q0 69 -27.5 132.5t-87 107.5t-139.5 44t-140 -44t-88 -107.5t-28 -132.5t28 -132.5t88 -108t140 -44.5z" />
    <glyph glyph-name="yen" unicode="&#xa5;" horiz-adv-x="1048" 
d="M485 0v334h-290v51h290v152h-290v51h286l-383 813h66l352 -770l375 770h61l-407 -813h284v-51h-288v-152h288v-51h-288v-334h-56z" />
    <glyph glyph-name="brokenbar" unicode="&#xa6;" horiz-adv-x="423" 
d="M184 731v791h58v-791h-58zM184 -518v792h58v-792h-58z" />
    <glyph glyph-name="section" unicode="&#xa7;" horiz-adv-x="1056" 
d="M487 -29q-127 0 -241 31l6 53q106 -28 229 -28q332 0 332 209q0 148 -188 190l-172 39q-149 34 -208 95.5t-59 158.5q0 161 133 237q-124 66 -124 209q0 126 95.5 194t264.5 68q117 0 219 -30l-10 -49q-101 24 -203 24q-145 0 -227 -49.5t-82 -151.5q0 -150 192 -198
l166 -41q147 -37 203.5 -95.5t56.5 -154.5q0 -155 -129 -233q129 -69 129 -216q0 -262 -383 -262zM688 467q125 70 125 209q0 86 -49.5 128.5t-177.5 74.5l-150 36q-48 12 -67 21q-125 -61 -125 -213q0 -92 49 -133.5t153 -65.5l181 -41q39 -9 61 -16z" />
    <glyph glyph-name="dieresis" unicode="&#xa8;" horiz-adv-x="798" 
d="M219 1260q-31 0 -49 17t-18 48v8q0 31 18 49.5t49 18.5h4q31 0 49.5 -18.5t18.5 -49.5v-8q0 -30 -18.5 -47.5t-49.5 -17.5h-4zM575 1260q-31 0 -49 17t-18 48v8q0 31 18 49.5t49 18.5h5q31 0 49 -18.5t18 -49.5v-8q0 -31 -18 -48t-49 -17h-5z" />
    <glyph glyph-name="copyright" unicode="&#xa9;" horiz-adv-x="1654" 
d="M827 -29q-342 0 -523 189t-181 540q0 350 180.5 538.5t523.5 188.5t524 -188.5t181 -538.5q0 -351 -181 -540t-524 -189zM827 29q310 0 478 172.5t168 498.5q0 328 -170 499t-476 171q-303 0 -474 -172.5t-171 -497.5q0 -327 168 -499t477 -172zM862 342q-130 0 -204 87
t-74 276q0 179 68 271.5t198 92.5q90 0 149 -25l-6 -49q-67 23 -131 23q-114 0 -168.5 -76t-54.5 -237q0 -89 18.5 -152.5t52 -96.5t71 -47t83.5 -14q58 0 127 15v-50q-63 -18 -129 -18z" />
    <glyph glyph-name="ordfeminine" unicode="&#xaa;" horiz-adv-x="802" 
d="M354 719q-104 0 -162.5 53.5t-58.5 153.5q0 85 43 135q54 61 199 61h188v68q0 98 -44 140t-134 42q-75 0 -170 -18l-6 49q34 9 90 16.5t90 7.5q124 0 179 -58.5t55 -188.5v-447h-48l-8 45q-44 -25 -103 -42t-110 -17zM365 772q46 0 102.5 14t95.5 37v248h-194
q-98 0 -136 -37.5t-38 -109.5q0 -67 40.5 -109.5t129.5 -42.5z" />
    <glyph glyph-name="guillemotleft" unicode="&#xab;" horiz-adv-x="997" 
d="M487 152l-241 286q-49 60 -49 99q0 38 49 98l241 287l39 -29l-264 -356l264 -357zM805 152l-242 286q-49 60 -49 99q0 38 49 98l242 287l39 -29l-264 -356l264 -357z" />
    <glyph glyph-name="logicalnot" unicode="&#xac;" horiz-adv-x="993" 
d="M741 485v346h-544v54h600v-400h-56z" />
    <glyph glyph-name="uni00AD" unicode="&#xad;" horiz-adv-x="636" 
d="M147 504v57h342v-57h-342z" />
    <glyph glyph-name="registered" unicode="&#xae;" horiz-adv-x="1654" 
d="M827 -29q-342 0 -523 189t-181 540q0 350 180.5 538.5t523.5 188.5t524 -188.5t181 -538.5q0 -351 -181 -540t-524 -189zM827 29q310 0 478 172.5t168 498.5q0 328 -170 499t-476 171q-303 0 -474 -172.5t-171 -497.5q0 -327 168 -499t477 -172zM633 358v703h186
q132 0 187 -55q31 -32 43 -66.5t12 -87.5q0 -155 -131 -193l145 -301h-67l-134 293h-182v-293h-59zM692 707h142q89 0 127 33t38 120q0 75 -42 109.5t-128 34.5h-137v-297z" />
    <glyph glyph-name="macron" unicode="&#xaf;" horiz-adv-x="798" 
d="M170 1282v55h457v-55h-457z" />
    <glyph glyph-name="degree" unicode="&#xb0;" horiz-adv-x="858" 
d="M430 733q-127 0 -215 93t-88 253q0 161 88.5 254.5t214.5 93.5q125 0 213 -94t88 -254t-88 -253t-213 -93zM430 791q112 0 176 79t64 209q0 131 -64 211t-176 80q-114 0 -178 -80t-64 -211q0 -130 64 -209t178 -79z" />
    <glyph glyph-name="plusminus" unicode="&#xb1;" horiz-adv-x="993" 
d="M469 391v271h-272v53h272v272h57v-272h271v-53h-271v-271h-57zM197 0v53h600v-53h-600z" />
    <glyph glyph-name="uni00B2" unicode="&#xb2;" horiz-adv-x="915" 
d="M209 756q-4 12 -4 24q0 16 9.5 33.5t41.5 56.5l188 232q86 105 116 162t30 104q0 141 -193 141q-90 0 -164 -20v51q75 23 177 23q121 0 182 -54q57 -50 57 -141q0 -64 -31 -121.5t-129 -177.5l-215 -260h379v-53h-444z" />
    <glyph glyph-name="uni00B3" unicode="&#xb3;" horiz-adv-x="915" 
d="M403 723q-99 0 -167 20v52q97 -19 155 -19q102 0 156.5 48t54.5 132q0 77 -49.5 127t-153.5 50h-28v53h28q98 0 145.5 42t47.5 113q0 65 -31 107q-42 57 -170 57q-77 0 -149 -16v51q82 19 159 19q146 0 207 -78q41 -52 41 -140q0 -85 -43 -129.5t-108 -52.5
q72 -13 116.5 -64.5t44.5 -142.5q0 -113 -70.5 -171t-185.5 -58z" />
    <glyph glyph-name="acute" unicode="&#xb4;" horiz-adv-x="798" 
d="M229 1176l-26 32l332 305l57 -67z" />
    <glyph glyph-name="uni00B5" unicode="&#xb5;" horiz-adv-x="1058" 
d="M160 -461v1465h59v-670q0 -93 15 -146.5t51 -89.5q69 -69 219 -69q152 0 336 100v875h59v-1004h-45l-8 78q-178 -107 -359 -107q-90 0 -160.5 27.5t-107.5 77.5v-537h-59z" />
    <glyph glyph-name="paragraph" unicode="&#xb6;" horiz-adv-x="1099" 
d="M504 -416v1157q-200 0 -305 85t-105 243q0 152 97 242t235 90h582v-55h-144v-1762h-61v1762h-238v-1762h-61z" />
    <glyph glyph-name="periodcentered" unicode="&#xb7;" horiz-adv-x="442" 
d="M219 702q-55 0 -55 54v8q0 55 55 55h4q26 0 41 -14.5t15 -40.5v-8q0 -54 -56 -54h-4z" />
    <glyph glyph-name="cedilla" unicode="&#xb8;" horiz-adv-x="798" 
d="M383 -389q-63 0 -125 16v43q74 -12 117 -12q110 0 110 66q0 29 -22.5 47t-54.5 27t-64.5 18t-55 28.5t-22.5 51.5q0 54 43 100h31q-27 -43 -27 -72q0 -31 23.5 -48t56.5 -24.5t66 -17.5t56.5 -36.5t23.5 -71.5q0 -51 -38.5 -83t-117.5 -32z" />
    <glyph glyph-name="uni00B9" unicode="&#xb9;" horiz-adv-x="915" 
d="M272 756v51h181v676h-170v49q99 12 180 12q22 0 33.5 -5.5t13.5 -13t2 -22.5v-696h147v-51h-387z" />
    <glyph glyph-name="ordmasculine" unicode="&#xba;" horiz-adv-x="860" 
d="M430 719q-136 0 -214.5 92.5t-78.5 261.5t78.5 261.5t214.5 92.5t214.5 -92.5t78.5 -261.5t-78.5 -261.5t-214.5 -92.5zM430 776q232 0 232 297q0 147 -58.5 223t-173.5 76q-231 0 -231 -299q0 -297 231 -297z" />
    <glyph glyph-name="guillemotright" unicode="&#xbb;" horiz-adv-x="997" 
d="M193 152l-39 28l264 357l-264 356l39 29l241 -287q49 -60 49 -98q0 -39 -49 -99zM510 152l-39 28l264 357l-264 356l39 29l242 -287q49 -60 49 -98q0 -39 -49 -99z" />
    <glyph glyph-name="onequarter" unicode="&#xbc;" horiz-adv-x="1712" 
d="M489 -29l691 1456h61l-690 -1456h-62zM236 612v52h180v675h-170v50q99 12 180 12q22 0 33.5 -5.5t13.5 -13t2 -22.5v-696h148v-52h-387zM1362 0v211h-383q-6 12 -6 31q0 21 12 53l180 498h60l-195 -533h332v229h53v-229h86v-49h-86v-211h-53z" />
    <glyph glyph-name="onehalf" unicode="&#xbd;" horiz-adv-x="1712" 
d="M489 -29l691 1456h61l-690 -1456h-62zM236 612v52h180v675h-170v50q99 12 180 12q22 0 33.5 -5.5t13.5 -13t2 -22.5v-696h148v-52h-387zM1038 0q-4 12 -4 25q0 16 9.5 33.5t41.5 56.5l189 231q86 104 115.5 161t29.5 105q0 142 -192 142q-86 0 -164 -21v51q75 23 176 23
q122 0 182 -53q58 -51 58 -142q0 -64 -31 -121.5t-129 -177.5l-215 -260h379v-53h-445z" />
    <glyph glyph-name="threequarters" unicode="&#xbe;" horiz-adv-x="1712" 
d="M510 -29l690 1456h62l-691 -1456h-61zM387 590q-100 0 -168 20v52q97 -19 156 -19q102 0 156.5 48t54.5 132q0 77 -49.5 126.5t-153.5 49.5h-29v54h29q98 0 145 41.5t47 113.5q0 67 -30 107q-42 57 -170 57q-78 0 -150 -16v51q77 18 160 18q147 0 207 -77q41 -52 41 -140
q0 -84 -43 -129t-109 -53q72 -13 117 -65t45 -142q0 -113 -70.5 -171t-185.5 -58zM1391 0v211h-383q-7 14 -7 31q0 18 13 53l180 498h59l-194 -533h332v229h53v-229h86v-49h-86v-211h-53z" />
    <glyph glyph-name="questiondown" unicode="&#xbf;" horiz-adv-x="806" 
d="M514 989q55 0 55 -53v-8q0 -26 -14.5 -41t-40.5 -15h-4q-26 0 -40.5 15t-14.5 41v8q0 53 55 53h4zM545 643q6 -30 6 -70q0 -84 -29.5 -148t-113.5 -165l-21 -24q-136 -161 -178.5 -236.5t-42.5 -161.5q0 -123 86 -192q72 -58 235 -58q103 0 222 29l8 -43
q-33 -15 -106.5 -28t-147.5 -13q-159 0 -250 68q-109 79 -109 239q0 96 41.5 172.5t157.5 214.5q52 60 74 86t49 64.5t34.5 57.5t17 55t10.5 67.5t1 85.5h56z" />
    <glyph glyph-name="Agrave" unicode="&#xc0;" horiz-adv-x="1081" 
d="M696 1520l-362 270l57 68l332 -306zM53 0l436 1401h80l459 -1401h-65l-127 395h-596l-121 -395h-66zM258 451h559l-287 890z" />
    <glyph glyph-name="Aacute" unicode="&#xc1;" horiz-adv-x="1081" 
d="M403 1520l-26 32l332 306l57 -68zM53 0l436 1401h80l459 -1401h-65l-127 395h-596l-121 -395h-66zM258 451h559l-287 890z" />
    <glyph glyph-name="Acircumflex" unicode="&#xc2;" horiz-adv-x="1081" 
d="M281 1493l-33 33l241 258h80l242 -258l-31 -33l-250 236zM53 0l436 1401h80l459 -1401h-65l-127 395h-596l-121 -395h-66zM258 451h559l-287 890z" />
    <glyph glyph-name="Atilde" unicode="&#xc3;" horiz-adv-x="1081" 
d="M655 1579q-49 0 -127 44t-118 44q-57 0 -91 -82l-47 12q28 140 136 140q41 0 85 -22.5t85 -45t75 -22.5q54 0 90 82l45 -13q-27 -137 -133 -137zM53 0l436 1401h80l459 -1401h-65l-127 395h-596l-121 -395h-66zM258 451h559l-287 890z" />
    <glyph glyph-name="Adieresis" unicode="&#xc4;" horiz-adv-x="1081" 
d="M350 1604q-31 0 -49 17t-18 48v8q0 31 18 49.5t49 18.5h4q31 0 49.5 -18.5t18.5 -49.5v-8q0 -30 -18.5 -47.5t-49.5 -17.5h-4zM707 1604q-31 0 -49.5 17.5t-18.5 47.5v8q0 31 18.5 49.5t49.5 18.5h4q31 0 49 -18.5t18 -49.5v-8q0 -31 -18 -48t-49 -17h-4zM53 0l436 1401
h80l459 -1401h-65l-127 395h-596l-121 -395h-66zM258 451h559l-287 890z" />
    <glyph glyph-name="Aring" unicode="&#xc5;" horiz-adv-x="1081" 
d="M524 1548q-101 0 -154 57t-53 150t54 150t155 57h9q101 0 154.5 -57t53.5 -150q0 -92 -55 -149.5t-156 -57.5h-8zM379 1757v-6q0 -72 37.5 -110.5t105.5 -38.5h10q73 0 111.5 38.5t38.5 110.5v6q0 73 -37 111.5t-110 38.5h-11q-69 0 -107 -39t-38 -111zM317 1757v-2v-2v4
zM743 1757v-4v2v2zM569 1401l459 -1401h-65l-127 395h-596l-121 -395h-66l436 1401h80zM258 451h559l-287 890z" />
    <glyph glyph-name="AE" unicode="&#xc6;" horiz-adv-x="1644" 
d="M20 0l787 1401h698l-12 -55h-596v-607h498v-55h-498v-627h629v-57h-690v387h-531l-219 -387h-66zM336 442h500v895z" />
    <glyph glyph-name="Ccedilla" unicode="&#xc7;" horiz-adv-x="1056" 
d="M690 -29h-10q-12 -27 -12 -47q0 -31 23 -48t56 -24.5t66.5 -17.5t56.5 -36.5t23 -71.5q0 -51 -38.5 -83t-117.5 -32q-63 0 -125 16v43q74 -12 117 -12q111 0 111 66q0 29 -22.5 47t-55 27t-64.5 18t-54.5 28.5t-22.5 51.5q0 38 24 77q-514 26 -514 707q0 194 40 339
t114.5 233.5t174 131.5t224.5 43q156 0 293 -53l-14 -57q-136 49 -267 49q-112 0 -200.5 -37t-157 -116t-105 -214t-36.5 -321q0 -337 124.5 -490t380.5 -153q33 0 64 2t61.5 7t46 8t46 10t34.5 8l11 -58q-138 -41 -275 -41z" />
    <glyph glyph-name="Egrave" unicode="&#xc8;" horiz-adv-x="1001" 
d="M688 1520l-362 270l57 68l332 -306zM193 0v1401h669l-12 -55h-596v-607h498v-55h-498v-629h629v-55h-690z" />
    <glyph glyph-name="Eacute" unicode="&#xc9;" horiz-adv-x="1001" 
d="M401 1520l-26 32l332 306l57 -68zM193 0v1401h669l-12 -55h-596v-607h498v-55h-498v-629h629v-55h-690z" />
    <glyph glyph-name="Ecircumflex" unicode="&#xca;" horiz-adv-x="1001" 
d="M272 1493l-32 33l241 258h80l242 -258l-31 -33l-250 236zM193 0v1401h669l-12 -55h-596v-607h498v-55h-498v-629h629v-55h-690z" />
    <glyph glyph-name="Edieresis" unicode="&#xcb;" horiz-adv-x="1001" 
d="M342 1604q-31 0 -49.5 17.5t-18.5 47.5v8q0 31 18.5 49.5t49.5 18.5h4q31 0 49.5 -18.5t18.5 -49.5v-8q0 -30 -18.5 -47.5t-49.5 -17.5h-4zM698 1604q-31 0 -49 17t-18 48v8q0 31 18 49.5t49 18.5h4q31 0 49.5 -18.5t18.5 -49.5v-8q0 -30 -18.5 -47.5t-49.5 -17.5h-4z
M193 0v1401h669l-12 -55h-596v-607h498v-55h-498v-629h629v-55h-690z" />
    <glyph glyph-name="Igrave" unicode="&#xcc;" horiz-adv-x="446" 
d="M389 1520l-362 270l57 68l332 -306zM193 0v1401h61v-1401h-61z" />
    <glyph glyph-name="Iacute" unicode="&#xcd;" horiz-adv-x="446" 
d="M96 1520l-26 32l331 306l58 -68zM193 0v1401h61v-1401h-61z" />
    <glyph glyph-name="Icircumflex" unicode="&#xce;" horiz-adv-x="446" 
d="M-27 1493l-32 33l241 258h80l242 -258l-31 -33l-250 236zM193 0v1401h61v-1401h-61z" />
    <glyph glyph-name="Idieresis" unicode="&#xcf;" horiz-adv-x="446" 
d="M43 1604q-31 0 -49.5 17.5t-18.5 47.5v8q0 31 18.5 49.5t49.5 18.5h4q31 0 49.5 -18.5t18.5 -49.5v-8q0 -30 -18.5 -47.5t-49.5 -17.5h-4zM399 1604q-31 0 -49 17t-18 48v8q0 31 18 49.5t49 18.5h4q31 0 49.5 -18.5t18.5 -49.5v-8q0 -30 -18.5 -47.5t-49.5 -17.5h-4z
M193 0v1401h61v-1401h-61z" />
    <glyph glyph-name="Eth" unicode="&#xd0;" horiz-adv-x="1218" 
d="M926 1280q80 -73 120.5 -207t40.5 -368q0 -225 -39.5 -367t-121.5 -219q-124 -119 -400 -119h-364v682h-170v29l170 26v664h305q166 0 272.5 -25t186.5 -96zM877 166q145 139 145 549q0 210 -34 331.5t-105 186.5q-72 65 -169.5 89t-240.5 24h-250v-609h338v-55h-338
v-627h285q252 0 369 111z" />
    <glyph glyph-name="Ntilde" unicode="&#xd1;" horiz-adv-x="1333" 
d="M793 1579q-39 0 -83.5 22t-86.5 44t-76 22q-56 0 -90 -82l-47 12q28 140 135 140q51 0 129 -45t117 -45q54 0 90 82l45 -13q-27 -137 -133 -137zM193 0v1401h45l845 -1278v1278h58v-1401h-47l-844 1278v-1278h-57z" />
    <glyph glyph-name="Ograve" unicode="&#xd2;" horiz-adv-x="1267" 
d="M801 1520l-363 270l58 68l331 -306zM635 -29q-504 0 -504 727q0 729 504 729q502 0 502 -729q0 -727 -502 -727zM635 35q231 0 333.5 167.5t102.5 495.5q0 329 -103 498.5t-333 169.5q-118 0 -203 -44.5t-136 -132t-75 -208.5t-24 -283q0 -328 103 -495.5t335 -167.5z
" />
    <glyph glyph-name="Oacute" unicode="&#xd3;" horiz-adv-x="1267" 
d="M508 1520l-27 32l332 306l57 -68zM635 -29q-504 0 -504 727q0 729 504 729q502 0 502 -729q0 -727 -502 -727zM635 35q231 0 333.5 167.5t102.5 495.5q0 329 -103 498.5t-333 169.5q-118 0 -203 -44.5t-136 -132t-75 -208.5t-24 -283q0 -328 103 -495.5t335 -167.5z" />
    <glyph glyph-name="Ocircumflex" unicode="&#xd4;" horiz-adv-x="1267" 
d="M385 1493l-33 33l242 258h80l241 -258l-30 -33l-250 236zM635 -29q-504 0 -504 727q0 729 504 729q502 0 502 -729q0 -727 -502 -727zM635 35q231 0 333.5 167.5t102.5 495.5q0 329 -103 498.5t-333 169.5q-118 0 -203 -44.5t-136 -132t-75 -208.5t-24 -283
q0 -328 103 -495.5t335 -167.5z" />
    <glyph glyph-name="Otilde" unicode="&#xd5;" horiz-adv-x="1267" 
d="M760 1579q-48 0 -127 44t-119 44q-56 0 -90 -82l-47 12q28 140 135 140q51 0 129 -45t117 -45q54 0 90 82l45 -13q-27 -137 -133 -137zM635 -29q-504 0 -504 727q0 729 504 729q502 0 502 -729q0 -727 -502 -727zM635 35q231 0 333.5 167.5t102.5 495.5q0 329 -103 498.5
t-333 169.5q-118 0 -203 -44.5t-136 -132t-75 -208.5t-24 -283q0 -328 103 -495.5t335 -167.5z" />
    <glyph glyph-name="Odieresis" unicode="&#xd6;" horiz-adv-x="1267" 
d="M455 1604q-31 0 -49.5 17.5t-18.5 47.5v8q0 31 18.5 49.5t49.5 18.5h4q31 0 49 -18.5t18 -49.5v-8q0 -31 -18 -48t-49 -17h-4zM811 1604q-31 0 -49.5 17.5t-18.5 47.5v8q0 31 18.5 49.5t49.5 18.5h4q31 0 49.5 -18.5t18.5 -49.5v-8q0 -30 -18.5 -47.5t-49.5 -17.5h-4z
M635 -29q-504 0 -504 727q0 729 504 729q502 0 502 -729q0 -727 -502 -727zM635 35q231 0 333.5 167.5t102.5 495.5q0 329 -103 498.5t-333 169.5q-118 0 -203 -44.5t-136 -132t-75 -208.5t-24 -283q0 -328 103 -495.5t335 -167.5z" />
    <glyph glyph-name="multiply" unicode="&#xd7;" horiz-adv-x="993" 
d="M305 461l-37 37l193 192l-193 193l37 37l193 -193l192 193l37 -37l-192 -193l192 -192l-37 -37l-192 192z" />
    <glyph glyph-name="Oslash" unicode="&#xd8;" horiz-adv-x="1267" 
d="M266 -152l82 209q-217 164 -217 641q0 729 504 729q132 0 231 -51l70 174h61l-82 -207q222 -162 222 -645q0 -727 -502 -727q-136 0 -238 54l-69 -177h-62zM373 119l471 1198q-85 49 -209 49q-118 0 -203 -44.5t-136 -132t-75 -208.5t-24 -283q0 -433 176 -579zM635 35
q231 0 333.5 167.5t102.5 495.5q0 440 -178 586l-473 -1198q86 -51 215 -51z" />
    <glyph glyph-name="Ugrave" unicode="&#xd9;" horiz-adv-x="1273" 
d="M803 1520l-363 270l58 68l331 -306zM641 -29q-256 0 -367 129q-94 107 -94 346v955h62v-952q0 -220 86 -316q92 -100 309 -100q200 0 297 90q54 50 78 123t24 192v963h58v-977q0 -123 -27 -203t-88 -139q-116 -111 -338 -111z" />
    <glyph glyph-name="Uacute" unicode="&#xda;" horiz-adv-x="1273" 
d="M510 1520l-27 32l332 306l57 -68zM641 -29q-256 0 -367 129q-94 107 -94 346v955h62v-952q0 -220 86 -316q92 -100 309 -100q200 0 297 90q54 50 78 123t24 192v963h58v-977q0 -123 -27 -203t-88 -139q-116 -111 -338 -111z" />
    <glyph glyph-name="Ucircumflex" unicode="&#xdb;" horiz-adv-x="1273" 
d="M387 1493l-33 33l242 258h80l242 -258l-31 -33l-250 236zM641 -29q-256 0 -367 129q-94 107 -94 346v955h62v-952q0 -220 86 -316q92 -100 309 -100q200 0 297 90q54 50 78 123t24 192v963h58v-977q0 -123 -27 -203t-88 -139q-116 -111 -338 -111z" />
    <glyph glyph-name="Udieresis" unicode="&#xdc;" horiz-adv-x="1273" 
d="M457 1604q-31 0 -49.5 17.5t-18.5 47.5v8q0 31 18.5 49.5t49.5 18.5h4q31 0 49 -18.5t18 -49.5v-8q0 -31 -18 -48t-49 -17h-4zM813 1604q-31 0 -49.5 17.5t-18.5 47.5v8q0 31 18.5 49.5t49.5 18.5h4q31 0 49.5 -18.5t18.5 -49.5v-8q0 -30 -18.5 -47.5t-49.5 -17.5h-4z
M641 -29q-256 0 -367 129q-94 107 -94 346v955h62v-952q0 -220 86 -316q92 -100 309 -100q200 0 297 90q54 50 78 123t24 192v963h58v-977q0 -123 -27 -203t-88 -139q-116 -111 -338 -111z" />
    <glyph glyph-name="Yacute" unicode="&#xdd;" horiz-adv-x="1056" 
d="M393 1520l-26 32l331 306l58 -68zM487 0v573l-430 828h68l395 -770l414 770h65l-450 -828v-573h-62z" />
    <glyph glyph-name="Thorn" unicode="&#xde;" horiz-adv-x="1097" 
d="M193 0v1401h61v-234h328q216 0 309 -98q102 -108 102 -324q0 -212 -94 -317q-89 -104 -274 -104h-371v-324h-61zM254 379h346q99 0 155 20.5t97 67.5q42 50 59 113.5t17 160.5q0 189 -82 283q-76 88 -273 88h-319v-733z" />
    <glyph glyph-name="germandbls" unicode="&#xdf;" horiz-adv-x="1157" 
d="M733 -29q-138 0 -252 29l6 55q107 -26 244 -26q299 0 299 213q0 61 -26.5 109.5t-69.5 80t-94.5 58t-103.5 51.5t-95 52.5t-69.5 68t-26.5 92.5q0 45 18 83.5t47 66.5t64.5 54.5t70.5 53.5t64 56t47 69t18 86q0 95 -69 157t-191 62q-155 0 -247 -96q-48 -50 -65 -125
t-17 -183v-1038h-60v948h-180v43l180 13v28q0 118 20.5 203.5t78.5 146.5q111 117 290 117q149 0 234.5 -77t85.5 -197q0 -61 -24.5 -112.5t-61 -84.5t-79.5 -66t-79.5 -59.5t-61 -63.5t-24.5 -79t27 -76.5t70 -59.5t95 -49.5t104 -53.5t95 -64.5t70 -90t27 -122.5
q0 -64 -21.5 -113t-55.5 -78.5t-82.5 -48.5t-96.5 -26t-103 -7z" />
    <glyph glyph-name="agrave" unicode="&#xe0;" horiz-adv-x="966" 
d="M651 1176l-362 270l57 67l332 -305zM422 -29q-143 0 -233.5 78t-90.5 234q0 125 70 198q46 48 119.5 68t187.5 20h279v107q0 168 -62 233q-63 66 -219 66q-138 0 -283 -37l-6 51q150 43 295 43q182 0 260 -84q74 -81 74 -246v-702h-45l-8 68q-67 -40 -157 -68.5
t-181 -28.5zM438 29q94 0 177.5 27t138.5 61v397h-271q-193 0 -264 -68q-59 -56 -59 -163q0 -128 74 -191t204 -63z" />
    <glyph glyph-name="aacute" unicode="&#xe1;" horiz-adv-x="966" 
d="M315 1176l-26 32l332 305l57 -67zM422 -29q-143 0 -233.5 78t-90.5 234q0 125 70 198q46 48 119.5 68t187.5 20h279v107q0 168 -62 233q-63 66 -219 66q-138 0 -283 -37l-6 51q150 43 295 43q182 0 260 -84q74 -81 74 -246v-702h-45l-8 68q-67 -40 -157 -68.5t-181 -28.5
zM438 29q94 0 177.5 27t138.5 61v397h-271q-193 0 -264 -68q-59 -56 -59 -163q0 -128 74 -191t204 -63z" />
    <glyph glyph-name="acircumflex" unicode="&#xe2;" horiz-adv-x="966" 
d="M233 1194l-32 33l241 258h80l242 -258l-31 -33l-250 236zM422 -29q-143 0 -233.5 78t-90.5 234q0 125 70 198q46 48 119.5 68t187.5 20h279v107q0 168 -62 233q-63 66 -219 66q-138 0 -283 -37l-6 51q150 43 295 43q182 0 260 -84q74 -81 74 -246v-702h-45l-8 68
q-67 -40 -157 -68.5t-181 -28.5zM438 29q94 0 177.5 27t138.5 61v397h-271q-193 0 -264 -68q-59 -56 -59 -163q0 -128 74 -191t204 -63z" />
    <glyph glyph-name="atilde" unicode="&#xe3;" horiz-adv-x="966" 
d="M608 1247q-48 0 -127 44t-119 44q-56 0 -90 -82l-47 13q28 139 135 139q51 0 129 -45t117 -45q54 0 90 82l45 -13q-27 -137 -133 -137zM422 -29q-143 0 -233.5 78t-90.5 234q0 125 70 198q46 48 119.5 68t187.5 20h279v107q0 168 -62 233q-63 66 -219 66q-138 0 -283 -37
l-6 51q150 43 295 43q182 0 260 -84q74 -81 74 -246v-702h-45l-8 68q-67 -40 -157 -68.5t-181 -28.5zM438 29q94 0 177.5 27t138.5 61v397h-271q-193 0 -264 -68q-59 -56 -59 -163q0 -128 74 -191t204 -63z" />
    <glyph glyph-name="adieresis" unicode="&#xe4;" horiz-adv-x="966" 
d="M303 1260q-31 0 -49 17t-18 48v8q0 31 18 49.5t49 18.5h4q31 0 49.5 -18.5t18.5 -49.5v-8q0 -30 -18.5 -47.5t-49.5 -17.5h-4zM659 1260q-31 0 -49 17t-18 48v8q0 31 18 49.5t49 18.5h5q31 0 49 -18.5t18 -49.5v-8q0 -31 -18 -48t-49 -17h-5zM422 -29q-143 0 -233.5 78
t-90.5 234q0 125 70 198q46 48 119.5 68t187.5 20h279v107q0 168 -62 233q-63 66 -219 66q-138 0 -283 -37l-6 51q150 43 295 43q182 0 260 -84q74 -81 74 -246v-702h-45l-8 68q-67 -40 -157 -68.5t-181 -28.5zM438 29q94 0 177.5 27t138.5 61v397h-271q-193 0 -264 -68
q-59 -56 -59 -163q0 -128 74 -191t204 -63z" />
    <glyph glyph-name="aring" unicode="&#xe5;" horiz-adv-x="966" 
d="M477 1204q-101 0 -154 57t-53 150t54 150t155 57h8q101 0 155 -57t54 -150q0 -92 -55 -149.5t-156 -57.5h-8zM332 1413v-6q0 -72 37.5 -111t105.5 -39h10q73 0 111.5 39t38.5 111v6q0 73 -37.5 111.5t-110.5 38.5h-10q-69 0 -107 -39t-38 -111zM270 1413v-2v-2v4z
M696 1413v-4v2v2zM739 948q74 -81 74 -246v-702h-45l-8 68q-67 -40 -157 -68.5t-181 -28.5q-143 0 -233.5 78t-90.5 234q0 125 70 198q46 48 119.5 68t187.5 20h279v107q0 168 -62 233q-63 66 -219 66q-138 0 -283 -37l-6 51q150 43 295 43q182 0 260 -84zM754 117v397h-271
q-193 0 -264 -68q-59 -56 -59 -163q0 -128 74 -191t204 -63q94 0 177.5 27t138.5 61z" />
    <glyph glyph-name="ae" unicode="&#xe6;" horiz-adv-x="1611" 
d="M424 -29q-148 0 -237 79t-89 233q0 125 70 198q46 48 119.5 68t187.5 20h275v109q0 166 -64 233q-61 64 -219 64q-130 0 -277 -39l-10 53q150 43 295 43q182 0 260 -84q50 -52 64 -143q13 30 24.5 51.5t40.5 57.5t62.5 59t89.5 41t123 18q184 0 274 -129t90 -389v-22
q0 -13 -5 -18t-19 -5h-672q3 -221 93.5 -329.5t293.5 -108.5q137 0 254 32l8 -55q-44 -14 -121.5 -25.5t-144.5 -11.5q-236 0 -348 150q-75 -64 -190 -107t-228 -43zM807 524h637q0 231 -76.5 341t-228.5 110q-164 0 -246.5 -119t-85.5 -332zM442 31q215 0 371 133
q-63 104 -63 350h-267q-193 0 -264 -68q-59 -56 -59 -163q0 -128 74.5 -190t207.5 -62z" />
    <glyph glyph-name="ccedilla" unicode="&#xe7;" horiz-adv-x="860" 
d="M487 -76q0 -31 23.5 -48t56.5 -24.5t66 -17.5t56.5 -36.5t23.5 -71.5q0 -51 -38.5 -83t-117.5 -32q-63 0 -125 16v43q74 -12 117 -12q110 0 110 66q0 29 -22.5 47t-54.5 27t-64.5 18t-55 28.5t-22.5 51.5q0 39 29 81q-175 26 -264.5 149.5t-89.5 373.5q0 279 111 405.5
t325 126.5q129 0 225 -39l-6 -53q-112 35 -215 35q-93 0 -160.5 -23.5t-118 -77t-75.5 -147t-25 -227.5q0 -252 96 -360.5t312 -108.5q98 0 186 18l8 -53q-97 -25 -200 -25q-26 0 -76 4q-15 -30 -15 -51z" />
    <glyph glyph-name="egrave" unicode="&#xe8;" horiz-adv-x="989" 
d="M672 1176l-363 270l58 67l331 -305zM559 -29q-230 0 -337 135t-107 394q0 112 22 205.5t66.5 168t120.5 116.5t176 42q190 0 281 -127t91 -391v-22q0 -13 -5 -18t-19 -5h-672q3 -218 92.5 -328t292.5 -110q139 0 256 32l8 -55q-44 -14 -121.5 -25.5t-144.5 -11.5z
M176 524h637q0 235 -77.5 343t-235.5 108t-240 -122.5t-84 -328.5z" />
    <glyph glyph-name="eacute" unicode="&#xe9;" horiz-adv-x="989" 
d="M336 1176l-27 32l332 305l57 -67zM559 -29q-230 0 -337 135t-107 394q0 112 22 205.5t66.5 168t120.5 116.5t176 42q190 0 281 -127t91 -391v-22q0 -13 -5 -18t-19 -5h-672q3 -218 92.5 -328t292.5 -110q139 0 256 32l8 -55q-44 -14 -121.5 -25.5t-144.5 -11.5zM176 524
h637q0 235 -77.5 343t-235.5 108t-240 -122.5t-84 -328.5z" />
    <glyph glyph-name="ecircumflex" unicode="&#xea;" horiz-adv-x="989" 
d="M254 1194l-33 33l242 258h80l241 -258l-30 -33l-250 236zM559 -29q-230 0 -337 135t-107 394q0 112 22 205.5t66.5 168t120.5 116.5t176 42q190 0 281 -127t91 -391v-22q0 -13 -5 -18t-19 -5h-672q3 -218 92.5 -328t292.5 -110q139 0 256 32l8 -55q-44 -14 -121.5 -25.5
t-144.5 -11.5zM176 524h637q0 235 -77.5 343t-235.5 108t-240 -122.5t-84 -328.5z" />
    <glyph glyph-name="edieresis" unicode="&#xeb;" horiz-adv-x="989" 
d="M324 1260q-31 0 -49.5 17.5t-18.5 47.5v8q0 31 18.5 49.5t49.5 18.5h4q31 0 49 -18.5t18 -49.5v-8q0 -31 -18 -48t-49 -17h-4zM680 1260q-31 0 -49.5 17.5t-18.5 47.5v8q0 31 18.5 49.5t49.5 18.5h4q31 0 49.5 -18.5t18.5 -49.5v-8q0 -30 -18.5 -47.5t-49.5 -17.5h-4z
M559 -29q-230 0 -337 135t-107 394q0 112 22 205.5t66.5 168t120.5 116.5t176 42q190 0 281 -127t91 -391v-22q0 -13 -5 -18t-19 -5h-672q3 -218 92.5 -328t292.5 -110q139 0 256 32l8 -55q-44 -14 -121.5 -25.5t-144.5 -11.5zM176 524h637q0 235 -77.5 343t-235.5 108
t-240 -122.5t-84 -328.5z" />
    <glyph glyph-name="igrave" unicode="&#xec;" horiz-adv-x="378" 
d="M358 1176l-362 270l57 67l332 -305zM160 0v1004h59v-1004h-59z" />
    <glyph glyph-name="iacute" unicode="&#xed;" horiz-adv-x="378" 
d="M23 1176l-27 32l332 305l57 -67zM160 0v1004h59v-1004h-59z" />
    <glyph glyph-name="icircumflex" unicode="&#xee;" horiz-adv-x="378" 
d="M-59 1194l-33 33l242 258h79l242 -258l-31 -33l-250 236zM160 0v1004h59v-1004h-59z" />
    <glyph glyph-name="idieresis" unicode="&#xef;" horiz-adv-x="378" 
d="M10 1260q-31 0 -49 17t-18 48v8q0 31 18 49.5t49 18.5h4q31 0 49.5 -18.5t18.5 -49.5v-8q0 -30 -18.5 -47.5t-49.5 -17.5h-4zM367 1260q-31 0 -49.5 17.5t-18.5 47.5v8q0 31 18.5 49.5t49.5 18.5h4q31 0 49 -18.5t18 -49.5v-8q0 -31 -18 -48t-49 -17h-4zM160 0v1004h59
v-1004h-59z" />
    <glyph glyph-name="eth" unicode="&#xf0;" horiz-adv-x="1077" 
d="M530 -29q-191 0 -301 125t-110 369q0 238 109.5 363.5t312.5 125.5q149 0 313 -69q-62 222 -240 444l-159 -117l-27 37l156 113q-95 105 -205 182l35 41q136 -100 217 -188l168 121l26 -37l-163 -117q292 -346 292 -809q0 -293 -111 -438.5t-313 -145.5zM532 29
q361 0 361 516q0 145 -27 280q-178 72 -311 72q-186 0 -280.5 -111.5t-94.5 -320.5q0 -200 87 -318t265 -118z" />
    <glyph glyph-name="ntilde" unicode="&#xf1;" horiz-adv-x="1056" 
d="M653 1247q-49 0 -127 44t-118 44q-57 0 -91 -82l-47 13q28 139 136 139q41 0 85 -22.5t85 -45t75 -22.5q54 0 90 82l45 -13q-27 -137 -133 -137zM160 0v1004h45l8 -78q176 106 360 106q161 0 248 -80q47 -42 64.5 -100.5t17.5 -142.5v-709h-59v670q0 93 -15 146t-51 89
q-32 32 -90 51t-131 19q-152 0 -338 -101v-874h-59z" />
    <glyph glyph-name="ograve" unicode="&#xf2;" horiz-adv-x="1042" 
d="M690 1176l-362 270l57 67l332 -305zM522 -29q-211 0 -309 134t-98 397q0 264 98 397t309 133q210 0 308 -134t98 -396t-98.5 -396.5t-307.5 -134.5zM522 31q185 0 264.5 117.5t79.5 353.5t-79.5 354.5t-264.5 118.5q-187 0 -266.5 -118.5t-79.5 -354.5t79.5 -353.5
t266.5 -117.5z" />
    <glyph glyph-name="oacute" unicode="&#xf3;" horiz-adv-x="1042" 
d="M354 1176l-26 32l331 305l58 -67zM522 -29q-211 0 -309 134t-98 397q0 264 98 397t309 133q210 0 308 -134t98 -396t-98.5 -396.5t-307.5 -134.5zM522 31q185 0 264.5 117.5t79.5 353.5t-79.5 354.5t-264.5 118.5q-187 0 -266.5 -118.5t-79.5 -354.5t79.5 -353.5
t266.5 -117.5z" />
    <glyph glyph-name="ocircumflex" unicode="&#xf4;" horiz-adv-x="1042" 
d="M272 1194l-32 33l241 258h80l242 -258l-31 -33l-250 236zM522 -29q-211 0 -309 134t-98 397q0 264 98 397t309 133q210 0 308 -134t98 -396t-98.5 -396.5t-307.5 -134.5zM522 31q185 0 264.5 117.5t79.5 353.5t-79.5 354.5t-264.5 118.5q-187 0 -266.5 -118.5
t-79.5 -354.5t79.5 -353.5t266.5 -117.5z" />
    <glyph glyph-name="otilde" unicode="&#xf5;" horiz-adv-x="1042" 
d="M647 1247q-49 0 -127.5 44t-118.5 44q-56 0 -90 -82l-47 13q28 139 135 139q51 0 129 -45t117 -45q54 0 90 82l45 -13q-27 -137 -133 -137zM522 -29q-211 0 -309 134t-98 397q0 264 98 397t309 133q210 0 308 -134t98 -396t-98.5 -396.5t-307.5 -134.5zM522 31
q185 0 264.5 117.5t79.5 353.5t-79.5 354.5t-264.5 118.5q-187 0 -266.5 -118.5t-79.5 -354.5t79.5 -353.5t266.5 -117.5z" />
    <glyph glyph-name="odieresis" unicode="&#xf6;" horiz-adv-x="1042" 
d="M342 1260q-31 0 -49.5 17.5t-18.5 47.5v8q0 31 18.5 49.5t49.5 18.5h4q31 0 49.5 -18.5t18.5 -49.5v-8q0 -30 -18.5 -47.5t-49.5 -17.5h-4zM698 1260q-31 0 -49 17t-18 48v8q0 31 18 49.5t49 18.5h4q31 0 49.5 -18.5t18.5 -49.5v-8q0 -30 -18.5 -47.5t-49.5 -17.5h-4z
M522 -29q-211 0 -309 134t-98 397q0 264 98 397t309 133q210 0 308 -134t98 -396t-98.5 -396.5t-307.5 -134.5zM522 31q185 0 264.5 117.5t79.5 353.5t-79.5 354.5t-264.5 118.5q-187 0 -266.5 -118.5t-79.5 -354.5t79.5 -353.5t266.5 -117.5z" />
    <glyph glyph-name="divide" unicode="&#xf7;" horiz-adv-x="993" 
d="M485 915q-55 0 -55 54v8q0 55 55 55h4q26 0 41 -14.5t15 -40.5v-8q0 -54 -56 -54h-4zM197 662v53h600v-53h-600zM485 322q-55 0 -55 53v8q0 55 55 55h4q26 0 41 -14.5t15 -40.5v-8q0 -53 -56 -53h-4z" />
    <glyph glyph-name="oslash" unicode="&#xf8;" horiz-adv-x="1042" 
d="M205 -188l90 217q-180 115 -180 473q0 264 98 397t309 133q98 0 174 -31l80 191h60l-91 -217q183 -112 183 -473q0 -262 -98.5 -396.5t-307.5 -134.5q-108 0 -178 33l-80 -192h-59zM317 86l359 862q-73 27 -154 27q-187 0 -266.5 -118.5t-79.5 -354.5q0 -316 141 -416z
M522 31q185 0 264.5 117.5t79.5 353.5q0 319 -143 418l-356 -861q67 -28 155 -28z" />
    <glyph glyph-name="ugrave" unicode="&#xf9;" horiz-adv-x="1052" 
d="M694 1176l-362 270l57 67l332 -305zM481 -29q-158 0 -245 80q-46 42 -64 101t-18 143v709h59v-670q0 -93 15 -146.5t51 -89.5q69 -69 219 -69q152 0 336 100v875h59v-1004h-45l-8 78q-178 -107 -359 -107z" />
    <glyph glyph-name="uacute" unicode="&#xfa;" horiz-adv-x="1052" 
d="M358 1176l-26 32l332 305l57 -67zM481 -29q-158 0 -245 80q-46 42 -64 101t-18 143v709h59v-670q0 -93 15 -146.5t51 -89.5q69 -69 219 -69q152 0 336 100v875h59v-1004h-45l-8 78q-178 -107 -359 -107z" />
    <glyph glyph-name="ucircumflex" unicode="&#xfb;" horiz-adv-x="1052" 
d="M276 1194l-32 33l241 258h80l242 -258l-31 -33l-250 236zM481 -29q-158 0 -245 80q-46 42 -64 101t-18 143v709h59v-670q0 -93 15 -146.5t51 -89.5q69 -69 219 -69q152 0 336 100v875h59v-1004h-45l-8 78q-178 -107 -359 -107z" />
    <glyph glyph-name="udieresis" unicode="&#xfc;" horiz-adv-x="1052" 
d="M346 1260q-31 0 -49 17t-18 48v8q0 31 18 49.5t49 18.5h4q31 0 49.5 -18.5t18.5 -49.5v-8q0 -30 -18.5 -47.5t-49.5 -17.5h-4zM702 1260q-31 0 -49 17t-18 48v8q0 31 18 49.5t49 18.5h5q31 0 49 -18.5t18 -49.5v-8q0 -31 -18 -48t-49 -17h-5zM481 -29q-158 0 -245 80
q-46 42 -64 101t-18 143v709h59v-670q0 -93 15 -146.5t51 -89.5q69 -69 219 -69q152 0 336 100v875h59v-1004h-45l-8 78q-178 -107 -359 -107z" />
    <glyph glyph-name="yacute" unicode="&#xfd;" horiz-adv-x="1052" 
d="M358 1176l-26 32l332 305l57 -67zM557 -489q-92 0 -139 14l-15 55q61 -12 134 -12q162 0 233 59q38 30 51 83t13 143v221q-173 -103 -353 -103q-158 0 -245 80q-46 42 -64 101t-18 143v709h59v-670q0 -90 15 -146t51 -90q72 -69 217 -69q154 0 338 100v875h59v-1156
q0 -193 -72 -260q-83 -77 -264 -77z" />
    <glyph glyph-name="thorn" unicode="&#xfe;" horiz-adv-x="1021" 
d="M524 1032q93 0 161.5 -27.5t119.5 -88t76.5 -163t25.5 -247.5q0 -98 -10 -175.5t-36 -146.5t-68.5 -114.5t-109 -72t-155.5 -26.5q-92 0 -176 33t-133 70v-535h-59v1925h59v-536q59 39 141.5 71.5t163.5 32.5zM522 31q79 0 137 24t93.5 64t57 102.5t29 130t7.5 156.5
q0 248 -79.5 357.5t-252.5 109.5q-138 0 -295 -103v-737q52 -42 135 -73t168 -31z" />
    <glyph glyph-name="ydieresis" unicode="&#xff;" horiz-adv-x="1052" 
d="M346 1260q-31 0 -49 17t-18 48v8q0 31 18 49.5t49 18.5h4q31 0 49.5 -18.5t18.5 -49.5v-8q0 -30 -18.5 -47.5t-49.5 -17.5h-4zM702 1260q-31 0 -49 17t-18 48v8q0 31 18 49.5t49 18.5h5q31 0 49 -18.5t18 -49.5v-8q0 -31 -18 -48t-49 -17h-5zM557 -489q-92 0 -139 14
l-15 55q61 -12 134 -12q162 0 233 59q38 30 51 83t13 143v221q-173 -103 -353 -103q-158 0 -245 80q-46 42 -64 101t-18 143v709h59v-670q0 -90 15 -146t51 -90q72 -69 217 -69q154 0 338 100v875h59v-1156q0 -193 -72 -260q-83 -77 -264 -77z" />
    <glyph glyph-name="Amacron" unicode="&#x100;" horiz-adv-x="1081" 
d="M301 1669v55h457v-55h-457zM53 0l436 1401h80l459 -1401h-65l-127 395h-596l-121 -395h-66zM258 451h559l-287 890z" />
    <glyph glyph-name="amacron" unicode="&#x101;" horiz-adv-x="966" 
d="M254 1282v55h457v-55h-457zM422 -29q-143 0 -233.5 78t-90.5 234q0 125 70 198q46 48 119.5 68t187.5 20h279v107q0 168 -62 233q-63 66 -219 66q-138 0 -283 -37l-6 51q150 43 295 43q182 0 260 -84q74 -81 74 -246v-702h-45l-8 68q-67 -40 -157 -68.5t-181 -28.5z
M438 29q94 0 177.5 27t138.5 61v397h-271q-193 0 -264 -68q-59 -56 -59 -163q0 -128 74 -191t204 -63z" />
    <glyph glyph-name="Abreve" unicode="&#x102;" horiz-adv-x="1081" 
d="M530 1532q-109 0 -167 64t-64 171h49q9 -73 52 -122.5t130 -49.5q160 0 183 172h47q-6 -107 -64 -171t-166 -64zM53 0l436 1401h80l459 -1401h-65l-127 395h-596l-121 -395h-66zM258 451h559l-287 890z" />
    <glyph glyph-name="abreve" unicode="&#x103;" horiz-adv-x="966" 
d="M483 1192q-109 0 -167 64t-64 171h49q9 -73 52 -122.5t130 -49.5q160 0 183 172h47q-6 -107 -64 -171t-166 -64zM422 -29q-143 0 -233.5 78t-90.5 234q0 125 70 198q46 48 119.5 68t187.5 20h279v107q0 168 -62 233q-63 66 -219 66q-138 0 -283 -37l-6 51q150 43 295 43
q182 0 260 -84q74 -81 74 -246v-702h-45l-8 68q-67 -40 -157 -68.5t-181 -28.5zM438 29q94 0 177.5 27t138.5 61v397h-271q-193 0 -264 -68q-59 -56 -59 -163q0 -128 74 -191t204 -63z" />
    <glyph glyph-name="Aogonek" unicode="&#x104;" horiz-adv-x="1081" 
d="M909 -406q-83 0 -130.5 44.5t-47.5 123.5q0 98 66.5 176.5t154.5 92.5l-116 364h-596l-121 -395h-66l436 1401h80l459 -1401h-10q-76 0 -129 -41q-41 -31 -69.5 -82.5t-28.5 -105.5q0 -61 35.5 -93t103.5 -32q56 0 114 10v-41q-79 -21 -135 -21zM258 451h559l-287 888z
" />
    <glyph glyph-name="aogonek" unicode="&#x105;" horiz-adv-x="966" 
d="M739 -406q-74 0 -121 45t-47 123q0 169 195 256l-6 50q-67 -40 -157 -68.5t-181 -28.5q-143 0 -233.5 78t-90.5 234q0 125 70 198q46 48 119.5 68t187.5 20h279v107q0 168 -62 233q-63 66 -219 66q-138 0 -283 -37l-6 51q150 43 295 43q182 0 260 -84q74 -81 74 -246
v-702q-74 -31 -128 -87.5t-54 -141.5q0 -62 34 -93.5t95 -31.5q35 0 53 2v-45q-37 -9 -74 -9zM438 29q94 0 177.5 27t138.5 61v397h-271q-193 0 -264 -68q-59 -56 -59 -163q0 -128 74 -191t204 -63z" />
    <glyph glyph-name="Cacute" unicode="&#x106;" horiz-adv-x="1056" 
d="M545 1520l-27 32l332 306l57 -68zM690 -29q-130 0 -230 38t-175 120t-114.5 220.5t-39.5 330.5q0 194 40 339t114.5 233.5t174 131.5t224.5 43q156 0 293 -53l-14 -57q-136 49 -267 49q-112 0 -200.5 -37t-157 -116t-105 -214t-36.5 -321q0 -337 124.5 -490t380.5 -153
q33 0 64 2t61.5 7t46 8t46 10t34.5 8l11 -58q-138 -41 -275 -41z" />
    <glyph glyph-name="cacute" unicode="&#x107;" horiz-adv-x="860" 
d="M385 1176l-27 32l332 305l58 -67zM578 -29q-113 0 -196.5 27.5t-144.5 88.5t-91.5 164t-30.5 249q0 279 111 405.5t325 126.5q129 0 225 -39l-6 -53q-112 35 -215 35q-93 0 -160.5 -23.5t-118 -77t-75.5 -147t-25 -227.5q0 -252 96 -360.5t312 -108.5q98 0 186 18l8 -53
q-97 -25 -200 -25z" />
    <glyph glyph-name="Ccircumflex" unicode="&#x108;" horiz-adv-x="1056" 
d="M422 1493l-33 33l242 258h80l241 -258l-30 -33l-250 236zM690 -29q-130 0 -230 38t-175 120t-114.5 220.5t-39.5 330.5q0 194 40 339t114.5 233.5t174 131.5t224.5 43q156 0 293 -53l-14 -57q-136 49 -267 49q-112 0 -200.5 -37t-157 -116t-105 -214t-36.5 -321
q0 -337 124.5 -490t380.5 -153q33 0 64 2t61.5 7t46 8t46 10t34.5 8l11 -58q-138 -41 -275 -41z" />
    <glyph glyph-name="ccircumflex" unicode="&#x109;" horiz-adv-x="860" 
d="M303 1194l-33 33l242 258h80l242 -258l-31 -33l-250 236zM578 -29q-113 0 -196.5 27.5t-144.5 88.5t-91.5 164t-30.5 249q0 279 111 405.5t325 126.5q129 0 225 -39l-6 -53q-112 35 -215 35q-93 0 -160.5 -23.5t-118 -77t-75.5 -147t-25 -227.5q0 -252 96 -360.5
t312 -108.5q98 0 186 18l8 -53q-97 -25 -200 -25z" />
    <glyph glyph-name="Cdotaccent" unicode="&#x10a;" horiz-adv-x="1056" 
d="M666 1618q-58 0 -58 57v17q0 57 58 57h12q57 0 57 -57v-17q0 -57 -57 -57h-12zM690 -29q-130 0 -230 38t-175 120t-114.5 220.5t-39.5 330.5q0 194 40 339t114.5 233.5t174 131.5t224.5 43q156 0 293 -53l-14 -57q-136 49 -267 49q-112 0 -200.5 -37t-157 -116t-105 -214
t-36.5 -321q0 -337 124.5 -490t380.5 -153q33 0 64 2t61.5 7t46 8t46 10t34.5 8l11 -58q-138 -41 -275 -41z" />
    <glyph glyph-name="cdotaccent" unicode="&#x10b;" horiz-adv-x="860" 
d="M547 1274q-58 0 -58 57v17q0 57 58 57h12q57 0 57 -57v-17q0 -57 -57 -57h-12zM578 -29q-113 0 -196.5 27.5t-144.5 88.5t-91.5 164t-30.5 249q0 279 111 405.5t325 126.5q129 0 225 -39l-6 -53q-112 35 -215 35q-93 0 -160.5 -23.5t-118 -77t-75.5 -147t-25 -227.5
q0 -252 96 -360.5t312 -108.5q98 0 186 18l8 -53q-97 -25 -200 -25z" />
    <glyph glyph-name="Ccaron" unicode="&#x10c;" horiz-adv-x="1056" 
d="M631 1493l-242 258l33 33l250 -236l250 236l30 -33l-241 -258h-80zM690 -29q-130 0 -230 38t-175 120t-114.5 220.5t-39.5 330.5q0 194 40 339t114.5 233.5t174 131.5t224.5 43q156 0 293 -53l-14 -57q-136 49 -267 49q-112 0 -200.5 -37t-157 -116t-105 -214t-36.5 -321
q0 -337 124.5 -490t380.5 -153q33 0 64 2t61.5 7t46 8t46 10t34.5 8l11 -58q-138 -41 -275 -41z" />
    <glyph glyph-name="ccaron" unicode="&#x10d;" horiz-adv-x="860" 
d="M512 1192l-242 258l33 33l250 -236l250 236l31 -33l-242 -258h-80zM578 -29q-113 0 -196.5 27.5t-144.5 88.5t-91.5 164t-30.5 249q0 279 111 405.5t325 126.5q129 0 225 -39l-6 -53q-112 35 -215 35q-93 0 -160.5 -23.5t-118 -77t-75.5 -147t-25 -227.5
q0 -252 96 -360.5t312 -108.5q98 0 186 18l8 -53q-97 -25 -200 -25z" />
    <glyph glyph-name="Dcaron" unicode="&#x10e;" horiz-adv-x="1249" 
d="M584 1493l-242 258l33 33l250 -236l249 236l31 -33l-241 -258h-80zM193 0v1401h305q166 0 272 -25t186 -96q81 -73 121.5 -207.5t40.5 -367.5q0 -224 -40 -366.5t-122 -219.5q-124 -119 -399 -119h-364zM254 55h285q251 0 368 111q146 140 146 549q0 210 -34.5 331.5
t-105.5 186.5q-72 65 -169 89t-240 24h-250v-1291z" />
    <glyph glyph-name="dcaron" unicode="&#x10f;" horiz-adv-x="1017" 
d="M508 -29q-208 0 -300.5 133.5t-92.5 395.5q0 532 397 532q157 0 295 -78v510h59v-1464h-45l-8 63q-58 -37 -142.5 -64.5t-162.5 -27.5zM1022 1163v166q-41 8 -41 51v4q0 20 13 31.5t32 11.5h4q26 0 38.5 -15.5t12.5 -53.5q0 -123 -28 -195h-31zM512 31q63 0 123 14.5
t91 28.5t81 39v784q-80 43 -143 60.5t-140 17.5q-179 0 -263.5 -113.5t-84.5 -355.5q0 -244 78 -359.5t258 -115.5z" />
    <glyph glyph-name="Dcroat" unicode="&#x110;" horiz-adv-x="1216" 
d="M924 1280q80 -73 120.5 -207t40.5 -368q0 -225 -39.5 -367t-121.5 -219q-124 -119 -400 -119h-364v682h-168v29l168 26v664h305q166 0 272.5 -25t186.5 -96zM874 166q146 140 146 549q0 210 -34 331.5t-105 186.5q-72 65 -169.5 89t-240.5 24h-250v-609h340v-55h-340
v-627h285q251 0 368 111z" />
    <glyph glyph-name="dcroat" unicode="&#x111;" horiz-adv-x="1036" 
d="M1028 1264v-39h-162v-1225h-45l-8 63q-58 -37 -142.5 -64.5t-162.5 -27.5q-208 0 -300.5 133.5t-92.5 395.5q0 532 397 532q157 0 295 -78v271h-272v53h272v186h59v-188zM807 113v784q-80 43 -143 60.5t-140 17.5q-179 0 -263.5 -113.5t-84.5 -355.5q0 -244 78 -359.5
t258 -115.5q63 0 123 14.5t91 28.5t81 39z" />
    <glyph glyph-name="Emacron" unicode="&#x112;" horiz-adv-x="1001" 
d="M293 1669v55h457v-55h-457zM193 0v1401h669l-12 -55h-596v-607h498v-55h-498v-629h629v-55h-690z" />
    <glyph glyph-name="emacron" unicode="&#x113;" horiz-adv-x="989" 
d="M274 1282v55h457v-55h-457zM559 -29q-230 0 -337 135t-107 394q0 112 22 205.5t66.5 168t120.5 116.5t176 42q190 0 281 -127t91 -391v-22q0 -13 -5 -18t-19 -5h-672q3 -218 92.5 -328t292.5 -110q139 0 256 32l8 -55q-44 -14 -121.5 -25.5t-144.5 -11.5zM176 524h637
q0 235 -77.5 343t-235.5 108t-240 -122.5t-84 -328.5z" />
    <glyph glyph-name="Ebreve" unicode="&#x114;" horiz-adv-x="1001" 
d="M526 1532q-109 0 -167 64t-64 171h49q9 -73 52 -122.5t130 -49.5q160 0 183 172h47q-6 -107 -64 -171t-166 -64zM193 0v1401h669l-12 -55h-596v-607h498v-55h-498v-629h629v-55h-690z" />
    <glyph glyph-name="ebreve" unicode="&#x115;" horiz-adv-x="989" 
d="M504 1192q-109 0 -167.5 64t-64.5 171h50q9 -73 52 -122.5t130 -49.5q159 0 182 172h47q-6 -107 -63.5 -171t-165.5 -64zM559 -29q-230 0 -337 135t-107 394q0 112 22 205.5t66.5 168t120.5 116.5t176 42q190 0 281 -127t91 -391v-22q0 -13 -5 -18t-19 -5h-672
q3 -218 92.5 -328t292.5 -110q139 0 256 32l8 -55q-44 -14 -121.5 -25.5t-144.5 -11.5zM176 524h637q0 235 -77.5 343t-235.5 108t-240 -122.5t-84 -328.5z" />
    <glyph glyph-name="Edotaccent" unicode="&#x116;" horiz-adv-x="1001" 
d="M516 1618q-57 0 -57 57v17q0 57 57 57h12q58 0 58 -57v-17q0 -57 -58 -57h-12zM193 0v1401h669l-12 -55h-596v-607h498v-55h-498v-629h629v-55h-690z" />
    <glyph glyph-name="edotaccent" unicode="&#x117;" horiz-adv-x="989" 
d="M498 1274q-58 0 -58 57v17q0 57 58 57h12q57 0 57 -57v-17q0 -57 -57 -57h-12zM559 -29q-230 0 -337 135t-107 394q0 112 22 205.5t66.5 168t120.5 116.5t176 42q190 0 281 -127t91 -391v-22q0 -13 -5 -18t-19 -5h-672q3 -218 92.5 -328t292.5 -110q139 0 256 32l8 -55
q-44 -14 -121.5 -25.5t-144.5 -11.5zM176 524h637q0 235 -77.5 343t-235.5 108t-240 -122.5t-84 -328.5z" />
    <glyph glyph-name="Eogonek" unicode="&#x118;" horiz-adv-x="999" 
d="M768 -406q-83 0 -130.5 44.5t-47.5 123.5q0 76 40 140t99 98h-536v1401h669l-12 -55h-596v-607h498v-55h-498v-629h629v-55h-37q-62 0 -119 -57q-78 -78 -78 -172q0 -61 35.5 -93t103.5 -32q58 0 115 10v-41q-79 -21 -135 -21z" />
    <glyph glyph-name="eogonek" unicode="&#x119;" horiz-adv-x="989" 
d="M719 -406q-83 0 -130.5 44.5t-47.5 123.5q0 65 31 123.5t79 91.5q-24 -6 -92 -6q-230 0 -337 135t-107 394q0 112 22 205.5t66.5 168t120.5 116.5t176 42q190 0 281 -127t91 -391v-22q0 -13 -5 -18t-19 -5h-672q3 -218 92.5 -328t292.5 -110q139 0 256 32l8 -55
q-59 -16 -92.5 -31t-66.5 -47q-66 -66 -66 -159q0 -61 35.5 -93t103.5 -32q57 0 115 10v-41q-79 -21 -135 -21zM176 524h637q0 235 -77.5 343t-235.5 108t-240 -122.5t-84 -328.5z" />
    <glyph glyph-name="Ecaron" unicode="&#x11a;" horiz-adv-x="1001" 
d="M492 1493l-242 258l33 33l249 -236l250 236l31 -33l-242 -258h-79zM193 0v1401h669l-12 -55h-596v-607h498v-55h-498v-629h629v-55h-690z" />
    <glyph glyph-name="ecaron" unicode="&#x11b;" horiz-adv-x="989" 
d="M463 1192l-242 258l33 33l250 -236l250 236l30 -33l-241 -258h-80zM559 -29q-230 0 -337 135t-107 394q0 112 22 205.5t66.5 168t120.5 116.5t176 42q190 0 281 -127t91 -391v-22q0 -13 -5 -18t-19 -5h-672q3 -218 92.5 -328t292.5 -110q139 0 256 32l8 -55
q-44 -14 -121.5 -25.5t-144.5 -11.5zM176 524h637q0 235 -77.5 343t-235.5 108t-240 -122.5t-84 -328.5z" />
    <glyph glyph-name="Gcircumflex" unicode="&#x11c;" horiz-adv-x="1177" 
d="M442 1493l-32 33l241 258h80l242 -258l-31 -33l-250 236zM721 -29q-590 0 -590 705q0 379 160 565t442 186q155 0 285 -47l-14 -57q-157 43 -263 43q-264 0 -404 -170.5t-140 -513.5q0 -125 18.5 -225t54 -170t82 -119.5t107.5 -78t125.5 -41.5t140.5 -13q152 0 250 24
v553h-256v56h313v-656q-47 -17 -137 -29t-174 -12z" />
    <glyph glyph-name="gcircumflex" unicode="&#x11d;" horiz-adv-x="995" 
d="M248 1194l-33 33l242 258h80l241 -258l-30 -33l-250 236zM508 -489q-217 0 -321.5 71.5t-104.5 204.5q0 81 35 152t92 106q-59 35 -59 119q0 55 27 116t75 97q-129 92 -129 295q0 176 99 268t263 92q127 0 199 -47l131 156q24 -9 43 -33l-131 -152q119 -99 119 -284
q0 -179 -99.5 -268t-265.5 -89q-102 0 -180 35q-35 -24 -63.5 -76t-28.5 -104q0 -41 20 -61q19 -19 54.5 -25.5t105.5 -5.5h176q121 0 181.5 -16.5t105.5 -61.5q68 -68 68 -188q0 -132 -80 -209q-95 -92 -332 -92zM481 373q150 0 227.5 80.5t77.5 218.5q0 145 -76 224
t-225 79q-148 0 -225.5 -80t-77.5 -223q0 -144 78 -221.5t221 -77.5zM506 -432q192 0 272 60t80 182q0 121 -69.5 165.5t-213.5 44.5h-196q-91 0 -121 9q-59 -43 -87 -105.5t-28 -128.5q0 -111 85 -169t278 -58z" />
    <glyph glyph-name="Gbreve" unicode="&#x11e;" horiz-adv-x="1177" 
d="M692 1532q-109 0 -167 64t-64 171h49q9 -73 52 -122.5t130 -49.5q159 0 182 172h48q-6 -107 -64 -171t-166 -64zM721 -29q-590 0 -590 705q0 379 160 565t442 186q155 0 285 -47l-14 -57q-157 43 -263 43q-264 0 -404 -170.5t-140 -513.5q0 -125 18.5 -225t54 -170
t82 -119.5t107.5 -78t125.5 -41.5t140.5 -13q152 0 250 24v553h-256v56h313v-656q-47 -17 -137 -29t-174 -12z" />
    <glyph glyph-name="gbreve" unicode="&#x11f;" horiz-adv-x="995" 
d="M498 1192q-109 0 -167.5 64t-64.5 171h49q9 -72 52.5 -122t130.5 -50q159 0 182 172h47q-6 -107 -63.5 -171t-165.5 -64zM508 -489q-217 0 -321.5 71.5t-104.5 204.5q0 81 35 152t92 106q-59 35 -59 119q0 55 27 116t75 97q-129 92 -129 295q0 176 99 268t263 92
q127 0 199 -47l131 156q24 -9 43 -33l-131 -152q119 -99 119 -284q0 -179 -99.5 -268t-265.5 -89q-102 0 -180 35q-35 -24 -63.5 -76t-28.5 -104q0 -41 20 -61q19 -19 54.5 -25.5t105.5 -5.5h176q121 0 181.5 -16.5t105.5 -61.5q68 -68 68 -188q0 -132 -80 -209
q-95 -92 -332 -92zM481 373q150 0 227.5 80.5t77.5 218.5q0 145 -76 224t-225 79q-148 0 -225.5 -80t-77.5 -223q0 -144 78 -221.5t221 -77.5zM506 -432q192 0 272 60t80 182q0 121 -69.5 165.5t-213.5 44.5h-196q-91 0 -121 9q-59 -43 -87 -105.5t-28 -128.5
q0 -111 85 -169t278 -58z" />
    <glyph glyph-name="Gdotaccent" unicode="&#x120;" horiz-adv-x="1177" 
d="M686 1618q-57 0 -57 57v17q0 57 57 57h12q58 0 58 -57v-17q0 -57 -58 -57h-12zM721 -29q-590 0 -590 705q0 379 160 565t442 186q155 0 285 -47l-14 -57q-157 43 -263 43q-264 0 -404 -170.5t-140 -513.5q0 -125 18.5 -225t54 -170t82 -119.5t107.5 -78t125.5 -41.5
t140.5 -13q152 0 250 24v553h-256v56h313v-656q-47 -17 -137 -29t-174 -12z" />
    <glyph glyph-name="gdotaccent" unicode="&#x121;" horiz-adv-x="995" 
d="M471 1274q-57 0 -57 57v17q0 57 57 57h12q58 0 58 -57v-17q0 -57 -58 -57h-12zM852 0q68 -68 68 -188q0 -132 -80 -209q-95 -92 -332 -92q-217 0 -321.5 71.5t-104.5 204.5q0 81 35 152t92 106q-59 33 -59 119q0 55 28 116.5t76 96.5q-131 93 -131 295q0 176 99 268
t263 92q88 0 142 -20l131 252q23 -8 49 -25l-129 -250q168 -96 168 -317q0 -179 -99.5 -268t-265.5 -89q-102 0 -180 35q-35 -24 -63.5 -76t-28.5 -104q0 -41 20 -61q19 -19 54.5 -25.5t105.5 -5.5h176q121 0 181.5 -16.5t105.5 -61.5zM182 672q0 -144 78 -221.5t221 -77.5
q150 0 227.5 80.5t77.5 218.5q0 145 -76 224t-225 79q-148 0 -225.5 -80t-77.5 -223zM506 -432q192 0 272 60t80 182q0 121 -69.5 165.5t-213.5 44.5h-196q-91 0 -121 9q-59 -43 -87 -105.5t-28 -128.5q0 -111 85 -169t278 -58z" />
    <glyph glyph-name="Gcommaaccent" unicode="&#x122;" horiz-adv-x="1177" 
d="M721 -29q-590 0 -590 705q0 379 160 565t442 186q155 0 285 -47l-14 -57q-157 43 -263 43q-264 0 -404 -170.5t-140 -513.5q0 -125 18.5 -225t54 -170t82 -119.5t107.5 -78t125.5 -41.5t140.5 -13q152 0 250 24v553h-256v56h313v-656q-47 -17 -137 -29t-174 -12z
M682 -408v166q-41 8 -41 52v4q0 20 13 31.5t32 11.5h4q26 0 38.5 -16t12.5 -54q0 -123 -28 -195h-31z" />
    <glyph glyph-name="gcommaaccent" unicode="&#x123;" horiz-adv-x="995" 
d="M494 1495v-166q41 -8 41 -51v-4q0 -20 -13.5 -31.5t-32.5 -11.5h-4q-26 0 -38.5 15.5t-12.5 53.5q0 121 29 195h31zM508 -489q-217 0 -321.5 71.5t-104.5 204.5q0 81 35 152t92 106q-59 35 -59 119q0 55 27 116t75 97q-129 92 -129 295q0 176 99 268t263 92
q127 0 199 -47l131 156q24 -9 43 -33l-131 -152q119 -99 119 -284q0 -179 -99.5 -268t-265.5 -89q-102 0 -180 35q-35 -24 -63.5 -76t-28.5 -104q0 -41 20 -61q19 -19 54.5 -25.5t105.5 -5.5h176q121 0 181.5 -16.5t105.5 -61.5q68 -68 68 -188q0 -132 -80 -209
q-95 -92 -332 -92zM481 373q150 0 227.5 80.5t77.5 218.5q0 145 -76 224t-225 79q-148 0 -225.5 -80t-77.5 -223q0 -144 78 -221.5t221 -77.5zM506 -432q192 0 272 60t80 182q0 121 -69.5 165.5t-213.5 44.5h-196q-91 0 -121 9q-59 -43 -87 -105.5t-28 -128.5
q0 -111 85 -169t278 -58z" />
    <glyph glyph-name="Hcircumflex" unicode="&#x124;" horiz-adv-x="1280" 
d="M391 1493l-33 33l242 258h80l242 -258l-31 -33l-250 236zM193 0v1401h61v-664h772v664h61v-1401h-61v682h-772v-682h-61z" />
    <glyph glyph-name="hcircumflex" unicode="&#x125;" horiz-adv-x="1056" 
d="M438 1411l-250 236l-249 -236l-33 33l241 258h80l242 -258zM821 952q47 -42 64.5 -100.5t17.5 -142.5v-709h-59v670q0 93 -15 146t-51 89q-32 32 -90 51t-131 19q-152 0 -338 -101v-874h-59v1464h59v-536q172 104 354 104q161 0 248 -80z" />
    <glyph glyph-name="Hbar" unicode="&#x126;" horiz-adv-x="1359" 
d="M1274 1120v-53h-146v-1067h-61v682h-772v-682h-62v1067h-145v53h145v281h62v-281h772v281h61v-281h146zM1067 737v330h-772v-330h772z" />
    <glyph glyph-name="hbar" unicode="&#x127;" horiz-adv-x="1060" 
d="M823 952q47 -42 64.5 -100.5t17.5 -142.5v-709h-59v670q0 93 -15 146t-51 89q-32 32 -90 51t-131 19q-152 0 -338 -101v-874h-59v1225h-162v39l162 12v188h59v-186h273v-53h-273v-297q172 104 354 104q161 0 248 -80z" />
    <glyph glyph-name="Itilde" unicode="&#x128;" horiz-adv-x="446" 
d="M348 1579q-48 0 -127 44t-119 44q-56 0 -90 -82l-47 12q28 140 135 140q51 0 129 -45t117 -45q54 0 90 82l45 -13q-27 -137 -133 -137zM193 0v1401h61v-1401h-61z" />
    <glyph glyph-name="itilde" unicode="&#x129;" horiz-adv-x="378" 
d="M315 1247q-49 0 -127 44t-118 44q-56 0 -90 -82l-48 13q28 139 136 139q41 0 85 -22.5t85 -45t75 -22.5q54 0 90 82l46 -13q-27 -137 -134 -137zM160 0v1004h59v-1004h-59z" />
    <glyph glyph-name="Imacron" unicode="&#x12a;" horiz-adv-x="446" 
d="M-6 1669v55h457v-55h-457zM193 0v1401h61v-1401h-61z" />
    <glyph glyph-name="imacron" unicode="&#x12b;" horiz-adv-x="378" 
d="M-39 1282v55h457v-55h-457zM160 0v1004h59v-1004h-59z" />
    <glyph glyph-name="Ibreve" unicode="&#x12c;" horiz-adv-x="446" 
d="M223 1532q-109 0 -167 64t-64 171h49q9 -73 52 -122.5t130 -49.5q160 0 183 172h47q-6 -107 -64 -171t-166 -64zM193 0v1401h61v-1401h-61z" />
    <glyph glyph-name="ibreve" unicode="&#x12d;" horiz-adv-x="378" 
d="M190 1192q-109 0 -167 64t-64 171h49q9 -73 52 -122.5t130 -49.5q160 0 183 172h47q-6 -107 -64 -171t-166 -64zM160 0v1004h59v-1004h-59z" />
    <glyph glyph-name="Iogonek" unicode="&#x12e;" horiz-adv-x="446" 
d="M174 -406q-83 0 -130.5 44.5t-47.5 123.5q0 95 61.5 169.5t135.5 93.5v1376h61v-1401h-2q-62 0 -119 -57q-78 -78 -78 -172q0 -61 36 -93t104 -32q57 0 114 10v-41q-79 -21 -135 -21z" />
    <glyph glyph-name="iogonek" unicode="&#x12f;" horiz-adv-x="380" 
d="M188 1221q-25 0 -36 10.5t-11 36.5v8q0 26 11 36.5t36 10.5h5q25 0 36 -10.5t11 -36.5v-8q0 -26 -11 -36.5t-36 -10.5h-5zM145 -406q-74 0 -121 45t-47 123q0 88 50.5 151.5t132.5 100.5v990h59v-1004q-74 -31 -128 -87.5t-54 -141.5q0 -62 34 -93.5t95 -31.5q35 0 53 2
v-45q-37 -9 -74 -9z" />
    <glyph glyph-name="Idotaccent" unicode="&#x130;" horiz-adv-x="446" 
d="M217 1618q-57 0 -57 57v17q0 57 57 57h12q58 0 58 -57v-17q0 -57 -58 -57h-12zM193 0v1401h61v-1401h-61z" />
    <glyph glyph-name="dotlessi" unicode="&#x131;" horiz-adv-x="378" 
d="M160 0v1004h59v-1004h-59z" />
    <glyph glyph-name="IJ" unicode="&#x132;" horiz-adv-x="1124" 
d="M193 0v1401h61v-1401h-61zM637 -29q-59 0 -100 9l-9 57q24 -6 99 -6q41 0 74.5 4.5t58.5 10.5t44.5 19.5t32.5 25.5t21.5 34t13.5 39t7.5 47.5t3 52.5t0.5 60v1077h61v-1077q0 -75 -2.5 -113.5t-18 -93t-46.5 -80.5t-91 -46t-149 -20z" />
    <glyph glyph-name="ij" unicode="&#x133;" horiz-adv-x="768" 
d="M188 1221q-25 0 -36 10.5t-11 36.5v8q0 26 11 36.5t36 10.5h5q25 0 36 -10.5t11 -36.5v-8q0 -26 -11 -36.5t-36 -10.5h-5zM575 1221q-25 0 -36 10.5t-11 36.5v8q0 26 11 36.5t36 10.5h5q25 0 36 -10.5t11 -36.5v-8q0 -26 -11 -36.5t-36 -10.5h-5zM160 0v1004h59v-1004
h-59zM281 -487l-11 53q144 -3 219 65q30 27 44 75.5t14 137.5v1160h59v-1160q0 -102 -15 -157.5t-52 -92.5q-81 -81 -258 -81z" />
    <glyph glyph-name="Jcircumflex" unicode="&#x134;" horiz-adv-x="677" 
d="M217 1493l-33 33l242 258h80l242 -258l-31 -33l-250 236zM190 -29q-60 0 -100 9l-8 57q24 -6 98 -6q41 0 74.5 4.5t58.5 10.5t44.5 19.5t32.5 25.5t21.5 34t13.5 39t7.5 47.5t3 52.5t0.5 60v1077h62v-1077q0 -53 -1 -81.5t-7 -72.5t-17.5 -67.5t-33.5 -53t-54.5 -43.5
t-81.5 -24.5t-113 -10.5z" />
    <glyph glyph-name="jcircumflex" unicode="&#x135;" horiz-adv-x="387" 
d="M-55 1194l-33 33l242 258h79l242 -258l-31 -33l-249 236zM-100 -487l-11 53q145 -3 220 65q30 27 43.5 75t13.5 138v1160h59v-1160q0 -102 -15 -157.5t-52 -92.5q-81 -81 -258 -81z" />
    <glyph glyph-name="Kcommaaccent" unicode="&#x136;" horiz-adv-x="1099" 
d="M193 0v1401h61v-838l666 838h71l-461 -582l494 -819h-70l-462 774l-238 -297v-477h-61zM541 -408v166q-41 8 -41 52v4q0 20 13 31.5t32 11.5h4q26 0 38.5 -16t12.5 -54q0 -121 -29 -195h-30z" />
    <glyph glyph-name="kcommaaccent" unicode="&#x137;" horiz-adv-x="948" 
d="M160 0v1464h65v-1050l551 590h82l-348 -373l385 -631h-74l-354 588l-242 -258v-330h-65zM465 -408v166q-41 8 -41 52v4q0 20 13 31.5t32 11.5h4q26 0 38.5 -16t12.5 -54q0 -123 -28 -195h-31z" />
    <glyph glyph-name="kgreenlandic" unicode="&#x138;" horiz-adv-x="948" 
d="M160 0v1004h65v-590l551 590h82l-348 -373l385 -631h-74l-354 588l-242 -258v-330h-65z" />
    <glyph glyph-name="Lacute" unicode="&#x139;" horiz-adv-x="946" 
d="M96 1520l-26 32l331 306l58 -68zM193 0v1401h61v-1346h602v-55h-663z" />
    <glyph glyph-name="lacute" unicode="&#x13a;" horiz-adv-x="378" 
d="M61 1583l-26 33l332 305l57 -68zM160 0v1464h59v-1464h-59z" />
    <glyph glyph-name="Lcommaaccent" unicode="&#x13b;" horiz-adv-x="946" 
d="M193 0v1401h61v-1346h602v-55h-663zM543 -408v166q-41 8 -41 52v4q0 20 13 31.5t32 11.5h4q26 0 38.5 -16t12.5 -54q0 -121 -29 -195h-30z" />
    <glyph glyph-name="lcommaaccent" unicode="&#x13c;" horiz-adv-x="378" 
d="M160 0v1464h59v-1464h-59zM180 -408v166q-41 8 -41 52v4q0 20 13 31.5t32 11.5h4q26 0 39 -16t13 -54q0 -121 -29 -195h-31z" />
    <glyph glyph-name="Lcaron" unicode="&#x13d;" horiz-adv-x="946" 
d="M455 1163v166q-41 8 -41 51v4q0 20 13 31.5t32 11.5h4q26 0 38.5 -15.5t12.5 -53.5q0 -121 -29 -195h-30zM193 0v1401h61v-1346h602v-55h-663z" />
    <glyph glyph-name="lcaron" unicode="&#x13e;" horiz-adv-x="370" 
d="M160 0v1464h59v-1464h-59zM375 1163v166q-41 8 -41 51v4q0 20 13 31.5t32 11.5h4q26 0 38.5 -15.5t12.5 -53.5q0 -123 -28 -195h-31z" />
    <glyph glyph-name="Ldot" unicode="&#x13f;" horiz-adv-x="946" 
d="M193 0v1401h61v-1346h602v-55h-663zM647 702q-55 0 -55 54v8q0 55 55 55h4q26 0 41 -14.5t15 -40.5v-8q0 -54 -56 -54h-4z" />
    <glyph glyph-name="ldot" unicode="&#x140;" horiz-adv-x="378" 
d="M160 0v1464h59v-1464h-59zM467 631q-57 0 -57 57v17q0 57 57 57h12q58 0 58 -57v-17q0 -57 -58 -57h-12z" />
    <glyph glyph-name="Lslash" unicode="&#x141;" horiz-adv-x="946" 
d="M188 0v557l-168 -108l-28 47l196 125v780h62v-748l221 142l29 -47l-250 -158v-535h602v-55h-664z" />
    <glyph glyph-name="lslash" unicode="&#x142;" horiz-adv-x="569" 
d="M244 0v698l-168 -106l-29 45l197 123v704h59v-671l232 149l28 -45l-260 -166v-731h-59z" />
    <glyph glyph-name="Nacute" unicode="&#x143;" horiz-adv-x="1333" 
d="M541 1520l-27 32l332 306l57 -68zM193 0v1401h45l845 -1278v1278h58v-1401h-47l-844 1278v-1278h-57z" />
    <glyph glyph-name="nacute" unicode="&#x144;" horiz-adv-x="1056" 
d="M360 1176l-26 32l332 305l57 -67zM160 0v1004h45l8 -78q176 106 360 106q161 0 248 -80q47 -42 64.5 -100.5t17.5 -142.5v-709h-59v670q0 93 -15 146t-51 89q-32 32 -90 51t-131 19q-152 0 -338 -101v-874h-59z" />
    <glyph glyph-name="Ncommaaccent" unicode="&#x145;" horiz-adv-x="1333" 
d="M193 0v1401h45l845 -1278v1278h58v-1401h-47l-844 1278v-1278h-57zM637 -408v166q-41 8 -41 52v4q0 20 13 31.5t32 11.5h4q26 0 38.5 -16t12.5 -54q0 -123 -28 -195h-31z" />
    <glyph glyph-name="ncommaaccent" unicode="&#x146;" horiz-adv-x="1056" 
d="M160 0v1004h45l8 -78q176 106 360 106q161 0 248 -80q47 -42 64.5 -100.5t17.5 -142.5v-709h-59v670q0 93 -15 146t-51 89q-32 32 -90 51t-131 19q-152 0 -338 -101v-874h-59zM518 -408v166q-41 8 -41 52v4q0 20 13 31.5t32 11.5h4q26 0 39 -16t13 -54q0 -121 -29 -195
h-31z" />
    <glyph glyph-name="Ncaron" unicode="&#x147;" horiz-adv-x="1333" 
d="M627 1493l-242 258l33 33l250 -236l250 236l30 -33l-241 -258h-80zM193 0v1401h45l845 -1278v1278h58v-1401h-47l-844 1278v-1278h-57z" />
    <glyph glyph-name="ncaron" unicode="&#x148;" horiz-adv-x="1056" 
d="M487 1192l-241 258l33 33l249 -236l250 236l31 -33l-242 -258h-80zM160 0v1004h45l8 -78q176 106 360 106q161 0 248 -80q47 -42 64.5 -100.5t17.5 -142.5v-709h-59v670q0 93 -15 146t-51 89q-32 32 -90 51t-131 19q-152 0 -338 -101v-874h-59z" />
    <glyph glyph-name="napostrophe" unicode="&#x149;" horiz-adv-x="1056" 
d="M-8 1114v197q-55 5 -55 53v8q0 55 55 55h4q28 0 41.5 -20.5t13.5 -73.5q0 -97 -28 -219h-31zM160 0v1004h45l8 -78q176 106 360 106q161 0 248 -80q47 -42 64.5 -100.5t17.5 -142.5v-709h-59v670q0 93 -15 146t-51 89q-32 32 -90 51t-131 19q-152 0 -338 -101v-874h-59z
" />
    <glyph glyph-name="Eng" unicode="&#x14a;" horiz-adv-x="1333" 
d="M834 -489q-65 0 -101 8v53q24 -6 94 -6q146 0 205 53q33 29 42 86.5t9 190.5v120l-833 1262v-1278h-57v1401h45l845 -1278v1278h58v-1489q0 -171 -11.5 -230.5t-54.5 -101.5q-72 -69 -241 -69z" />
    <glyph glyph-name="eng" unicode="&#x14b;" horiz-adv-x="1056" 
d="M578 -487l-11 53q144 -3 219 65q30 27 44 75.5t14 137.5v826q0 93 -15 146t-51 89q-32 32 -90 51t-131 19q-152 0 -338 -101v-874h-59v1004h45l8 -78q176 106 360 106q161 0 248 -80q47 -42 64.5 -100.5t17.5 -142.5v-865q0 -102 -15 -157.5t-52 -92.5q-81 -81 -258 -81z
" />
    <glyph glyph-name="Omacron" unicode="&#x14c;" horiz-adv-x="1267" 
d="M406 1669v55h456v-55h-456zM635 -29q-504 0 -504 727q0 729 504 729q502 0 502 -729q0 -727 -502 -727zM635 35q231 0 333.5 167.5t102.5 495.5q0 329 -103 498.5t-333 169.5q-118 0 -203 -44.5t-136 -132t-75 -208.5t-24 -283q0 -328 103 -495.5t335 -167.5z" />
    <glyph glyph-name="omacron" unicode="&#x14d;" horiz-adv-x="1042" 
d="M293 1282v55h457v-55h-457zM522 -29q-211 0 -309 134t-98 397q0 264 98 397t309 133q210 0 308 -134t98 -396t-98.5 -396.5t-307.5 -134.5zM522 31q185 0 264.5 117.5t79.5 353.5t-79.5 354.5t-264.5 118.5q-187 0 -266.5 -118.5t-79.5 -354.5t79.5 -353.5t266.5 -117.5z
" />
    <glyph glyph-name="Obreve" unicode="&#x14e;" horiz-adv-x="1267" 
d="M635 1532q-109 0 -167.5 64t-64.5 171h50q9 -73 52 -122.5t130 -49.5q159 0 182 172h47q-6 -107 -63.5 -171t-165.5 -64zM635 -29q-504 0 -504 727q0 729 504 729q502 0 502 -729q0 -727 -502 -727zM635 35q231 0 333.5 167.5t102.5 495.5q0 329 -103 498.5t-333 169.5
q-118 0 -203 -44.5t-136 -132t-75 -208.5t-24 -283q0 -328 103 -495.5t335 -167.5z" />
    <glyph glyph-name="obreve" unicode="&#x14f;" horiz-adv-x="1042" 
d="M522 1192q-109 0 -167 64t-64 171h49q9 -73 52 -122.5t130 -49.5q160 0 183 172h47q-6 -107 -64 -171t-166 -64zM522 -29q-211 0 -309 134t-98 397q0 264 98 397t309 133q210 0 308 -134t98 -396t-98.5 -396.5t-307.5 -134.5zM522 31q185 0 264.5 117.5t79.5 353.5
t-79.5 354.5t-264.5 118.5q-187 0 -266.5 -118.5t-79.5 -354.5t79.5 -353.5t266.5 -117.5z" />
    <glyph glyph-name="Ohungarumlaut" unicode="&#x150;" horiz-adv-x="1267" 
d="M371 1548l-37 35l287 369l75 -68zM739 1548l-37 35l287 369l76 -68zM635 -29q-504 0 -504 727q0 729 504 729q502 0 502 -729q0 -727 -502 -727zM635 35q231 0 333.5 167.5t102.5 495.5q0 329 -103 498.5t-333 169.5q-118 0 -203 -44.5t-136 -132t-75 -208.5t-24 -283
q0 -328 103 -495.5t335 -167.5z" />
    <glyph glyph-name="ohungarumlaut" unicode="&#x151;" horiz-adv-x="1042" 
d="M254 1202l-37 35l287 369l76 -68zM623 1202l-37 35l286 369l76 -68zM522 -29q-211 0 -309 134t-98 397q0 264 98 397t309 133q210 0 308 -134t98 -396t-98.5 -396.5t-307.5 -134.5zM522 31q185 0 264.5 117.5t79.5 353.5t-79.5 354.5t-264.5 118.5q-187 0 -266.5 -118.5
t-79.5 -354.5t79.5 -353.5t266.5 -117.5z" />
    <glyph glyph-name="OE" unicode="&#x152;" horiz-adv-x="1718" 
d="M791 0q-203 0 -314.5 33t-193.5 133q-68 86 -110 226t-42 308q0 183 42.5 324t113.5 223q81 94 189 124t298 30h805l-12 -55h-596v-607h497v-55h-497v-627h628v-57h-808zM764 57h145v1289h-157q-158 0 -249 -30t-157 -104q-149 -162 -149 -512q0 -342 139 -499
q66 -80 167.5 -112t260.5 -32z" />
    <glyph glyph-name="oe" unicode="&#x153;" horiz-adv-x="1740" 
d="M522 -29q-211 0 -309 134t-98 397q0 264 98 397t309 133q163 0 251.5 -75.5t125.5 -208.5q12 50 37.5 97.5t67 91t106 69.5t141.5 26q190 0 281.5 -127t91.5 -391v-25q0 -12 -5 -17t-20 -5h-671q3 -218 92 -327t293 -109q139 0 256 32l8 -55q-44 -14 -121.5 -25.5
t-144.5 -11.5q-174 0 -276.5 76t-135.5 205q-77 -281 -377 -281zM522 31q185 0 264.5 117.5t79.5 353.5t-79.5 354.5t-264.5 118.5q-187 0 -266.5 -118.5t-79.5 -354.5t79.5 -353.5t266.5 -117.5zM928 524h637q0 235 -78 343t-236 108q-157 0 -239 -122.5t-84 -328.5z" />
    <glyph glyph-name="Racute" unicode="&#x154;" horiz-adv-x="1134" 
d="M440 1520l-26 32l331 306l58 -68zM193 0v1401h374q127 0 206 -28t128 -85q94 -109 94 -299q0 -70 -13.5 -131.5t-43 -118t-85 -97t-132.5 -58.5l295 -584h-68l-284 575q-32 -4 -91 -4h-319v-571h-61zM254 627h330q157 0 235 65q111 93 111 293q0 171 -80 264
q-82 97 -279 97h-317v-719z" />
    <glyph glyph-name="racute" unicode="&#x155;" horiz-adv-x="595" 
d="M213 1176l-27 32l332 305l57 -67zM160 0v1004h45l8 -84q139 112 311 112q23 0 31 -2v-61q-18 2 -47 2q-152 0 -289 -103v-868h-59z" />
    <glyph glyph-name="Rcommaaccent" unicode="&#x156;" horiz-adv-x="1134" 
d="M193 0v1401h374q127 0 206 -28t128 -85q94 -109 94 -299q0 -70 -13.5 -131.5t-43 -118t-85 -97t-132.5 -58.5l295 -584h-68l-284 575q-32 -4 -91 -4h-319v-571h-61zM254 627h330q157 0 235 65q111 93 111 293q0 171 -80 264q-82 97 -279 97h-317v-719zM557 -408v166
q-41 8 -41 52v4q0 20 13 31.5t32 11.5h4q26 0 38.5 -16t12.5 -54q0 -123 -28 -195h-31z" />
    <glyph glyph-name="rcommaaccent" unicode="&#x157;" horiz-adv-x="595" 
d="M160 0v1004h45l8 -84q139 112 311 112q23 0 31 -2v-61q-18 2 -47 2q-152 0 -289 -103v-868h-59zM180 -408v166q-41 8 -41 52v4q0 20 13 31.5t32 11.5h4q26 0 39 -16t13 -54q0 -121 -29 -195h-31z" />
    <glyph glyph-name="Rcaron" unicode="&#x158;" horiz-adv-x="1134" 
d="M526 1493l-241 258l32 33l250 -236l250 236l31 -33l-242 -258h-80zM193 0v1401h374q127 0 206 -28t128 -85q94 -109 94 -299q0 -70 -13.5 -131.5t-43 -118t-85 -97t-132.5 -58.5l295 -584h-68l-284 575q-32 -4 -91 -4h-319v-571h-61zM254 627h330q157 0 235 65
q111 93 111 293q0 171 -80 264q-82 97 -279 97h-317v-719z" />
    <glyph glyph-name="rcaron" unicode="&#x159;" horiz-adv-x="595" 
d="M340 1192l-242 258l33 33l250 -236l250 236l31 -33l-242 -258h-80zM160 0v1004h45l8 -84q139 112 311 112q23 0 31 -2v-61q-18 2 -47 2q-152 0 -289 -103v-868h-59z" />
    <glyph glyph-name="Sacute" unicode="&#x15a;" horiz-adv-x="1044" 
d="M395 1520l-26 32l331 306l58 -68zM467 -29q-102 0 -196 17.5t-148 38.5l14 59q159 -51 328 -51q186 0 280 63q109 73 109 234q0 72 -24.5 128.5t-65.5 93.5t-94.5 66.5t-112.5 52.5t-117.5 47t-112 55.5t-94.5 71t-65.5 100.5t-24.5 138q0 162 101 250q105 92 305 92
q146 0 297 -45l-15 -57q-139 41 -270 41q-356 0 -356 -272q0 -89 39.5 -152.5t102 -101t138.5 -68t152.5 -64t139 -77t102 -119t39.5 -178.5q0 -184 -119 -273.5t-332 -89.5z" />
    <glyph glyph-name="sacute" unicode="&#x15b;" horiz-adv-x="790" 
d="M248 1176l-27 32l332 305l57 -67zM367 -29q-65 0 -137 10t-113 23l6 53q109 -28 237 -28q150 0 227 54t77 157q0 67 -31.5 113.5t-81.5 72t-111 44.5t-122 39.5t-111 48.5t-81.5 79.5t-31.5 124.5q0 71 26.5 124t74 84.5t109 46.5t136.5 15q116 0 217 -28l-6 -56
q-121 27 -213 27q-282 0 -282 -213q0 -53 24.5 -92t64.5 -61t91 -42.5t104.5 -35t104.5 -38.5t91 -53.5t64.5 -81t24.5 -118.5q0 -124 -88 -196.5t-270 -72.5z" />
    <glyph glyph-name="Scircumflex" unicode="&#x15c;" horiz-adv-x="1044" 
d="M272 1493l-32 33l241 258h80l242 -258l-31 -33l-250 236zM467 -29q-102 0 -196 17.5t-148 38.5l14 59q159 -51 328 -51q186 0 280 63q109 73 109 234q0 72 -24.5 128.5t-65.5 93.5t-94.5 66.5t-112.5 52.5t-117.5 47t-112 55.5t-94.5 71t-65.5 100.5t-24.5 138
q0 162 101 250q105 92 305 92q146 0 297 -45l-15 -57q-139 41 -270 41q-356 0 -356 -272q0 -89 39.5 -152.5t102 -101t138.5 -68t152.5 -64t139 -77t102 -119t39.5 -178.5q0 -184 -119 -273.5t-332 -89.5z" />
    <glyph glyph-name="scircumflex" unicode="&#x15d;" horiz-adv-x="790" 
d="M166 1194l-33 33l242 258h80l241 -258l-30 -33l-250 236zM367 -29q-65 0 -137 10t-113 23l6 53q109 -28 237 -28q150 0 227 54t77 157q0 67 -31.5 113.5t-81.5 72t-111 44.5t-122 39.5t-111 48.5t-81.5 79.5t-31.5 124.5q0 71 26.5 124t74 84.5t109 46.5t136.5 15
q116 0 217 -28l-6 -56q-121 27 -213 27q-282 0 -282 -213q0 -53 24.5 -92t64.5 -61t91 -42.5t104.5 -35t104.5 -38.5t91 -53.5t64.5 -81t24.5 -118.5q0 -124 -88 -196.5t-270 -72.5z" />
    <glyph glyph-name="Scedilla" unicode="&#x15e;" horiz-adv-x="1044" 
d="M918 334q0 -180 -112.5 -269t-316.5 -94q-12 -27 -12 -47q0 -31 23 -48t56.5 -24.5t66.5 -17.5t56 -36.5t23 -71.5q0 -51 -38 -83t-117 -32q-63 0 -125 16v43q74 -12 117 -12q110 0 110 66q0 29 -22.5 47t-54.5 27t-64.5 18t-55 28.5t-22.5 51.5q0 34 25 75
q-99 1 -190.5 18.5t-141.5 37.5l14 59q159 -51 328 -51q186 0 280 63q109 73 109 234q0 72 -24.5 128.5t-65.5 93.5t-94.5 66.5t-112.5 52.5t-117.5 47t-112 55.5t-94.5 71t-65.5 100.5t-24.5 138q0 162 101 250q105 92 305 92q146 0 297 -45l-15 -57q-139 41 -270 41
q-356 0 -356 -272q0 -89 39.5 -152.5t102 -101t138.5 -68t152.5 -64t139 -77t102 -119t39.5 -178.5z" />
    <glyph glyph-name="scedilla" unicode="&#x15f;" horiz-adv-x="790" 
d="M725 240q0 -121 -84 -193.5t-258 -75.5q-12 -27 -12 -47q0 -31 23 -48t56 -24.5t66.5 -17.5t56.5 -36.5t23 -71.5q0 -51 -38.5 -83t-117.5 -32q-63 0 -125 16v43q74 -12 117 -12q111 0 111 66q0 29 -22.5 47t-55 27t-64.5 18t-54.5 28.5t-22.5 51.5q0 41 24 75
q-130 3 -231 33l6 53q109 -28 237 -28q150 0 227 54t77 157q0 67 -31.5 113.5t-81.5 72t-111 44.5t-122 39.5t-111 48.5t-81.5 79.5t-31.5 124.5q0 71 26.5 124t74 84.5t109 46.5t136.5 15q116 0 217 -28l-6 -56q-121 27 -213 27q-282 0 -282 -213q0 -53 24.5 -92t64.5 -61
t91 -42.5t104.5 -35t104.5 -38.5t91 -53.5t64.5 -81t24.5 -118.5z" />
    <glyph glyph-name="Scaron" unicode="&#x160;" horiz-adv-x="1044" 
d="M481 1493l-241 258l32 33l250 -236l250 236l31 -33l-242 -258h-80zM467 -29q-102 0 -196 17.5t-148 38.5l14 59q159 -51 328 -51q186 0 280 63q109 73 109 234q0 72 -24.5 128.5t-65.5 93.5t-94.5 66.5t-112.5 52.5t-117.5 47t-112 55.5t-94.5 71t-65.5 100.5t-24.5 138
q0 162 101 250q105 92 305 92q146 0 297 -45l-15 -57q-139 41 -270 41q-356 0 -356 -272q0 -89 39.5 -152.5t102 -101t138.5 -68t152.5 -64t139 -77t102 -119t39.5 -178.5q0 -184 -119 -273.5t-332 -89.5z" />
    <glyph glyph-name="scaron" unicode="&#x161;" horiz-adv-x="790" 
d="M375 1192l-242 258l33 33l250 -236l250 236l30 -33l-241 -258h-80zM367 -29q-65 0 -137 10t-113 23l6 53q109 -28 237 -28q150 0 227 54t77 157q0 67 -31.5 113.5t-81.5 72t-111 44.5t-122 39.5t-111 48.5t-81.5 79.5t-31.5 124.5q0 71 26.5 124t74 84.5t109 46.5
t136.5 15q116 0 217 -28l-6 -56q-121 27 -213 27q-282 0 -282 -213q0 -53 24.5 -92t64.5 -61t91 -42.5t104.5 -35t104.5 -38.5t91 -53.5t64.5 -81t24.5 -118.5q0 -124 -88 -196.5t-270 -72.5z" />
    <glyph glyph-name="uni0162" unicode="&#x162;" horiz-adv-x="1087" 
d="M516 0v1346h-455v55h975l-12 -55h-446v-1346h-62zM535 -408v166q-41 8 -41 52v4q0 20 13 31.5t32 11.5h4q26 0 38.5 -16t12.5 -54q0 -121 -29 -195h-30z" />
    <glyph glyph-name="uni0163" unicode="&#x163;" horiz-adv-x="653" 
d="M459 -29q-123 0 -185 62q-31 31 -44 77t-13 123v717h-180v41l180 13v227q29 13 59 16v-243h273v-54h-273v-667q0 -76 9.5 -126t38.5 -81q44 -47 137 -47q79 0 153 18l7 -49q-78 -27 -162 -27zM422 -408v166q-41 8 -41 52v4q0 20 13 31.5t32 11.5h4q26 0 38.5 -16
t12.5 -54q0 -123 -28 -195h-31z" />
    <glyph glyph-name="Tcaron" unicode="&#x164;" horiz-adv-x="1087" 
d="M506 1493l-242 258l33 33l250 -236l250 236l30 -33l-241 -258h-80zM516 0v1346h-455v55h975l-12 -55h-446v-1346h-62z" />
    <glyph glyph-name="tcaron" unicode="&#x165;" horiz-adv-x="653" 
d="M436 1161v166q-41 8 -41 51v4q0 20 13 31.5t32 11.5h4q26 0 39 -15.5t13 -53.5q0 -121 -29 -195h-31zM459 -29q-123 0 -185 62q-31 31 -44 77t-13 123v717h-180v41l180 13v227q29 13 59 16v-243h273v-54h-273v-667q0 -76 9.5 -126t38.5 -81q44 -47 137 -47q79 0 153 18
l7 -49q-78 -27 -162 -27z" />
    <glyph glyph-name="Tbar" unicode="&#x166;" horiz-adv-x="1087" 
d="M516 0v680h-283v53h283v613h-455v55h975l-12 -55h-446v-613h282v-53h-282v-680h-62z" />
    <glyph glyph-name="tbar" unicode="&#x167;" horiz-adv-x="653" 
d="M614 47l7 -49q-78 -27 -162 -27q-123 0 -185 62q-31 31 -44 77t-13 123v265h-156v41l156 12v399h-180v41l180 13v227q29 13 59 16v-243h273v-54h-273v-399h256v-53h-256v-215q0 -76 9.5 -126t38.5 -81q44 -47 137 -47q79 0 153 18z" />
    <glyph glyph-name="Utilde" unicode="&#x168;" horiz-adv-x="1273" 
d="M762 1579q-48 0 -127 44t-119 44q-56 0 -90 -82l-47 12q28 140 135 140q51 0 129 -45t117 -45q54 0 90 82l45 -13q-27 -137 -133 -137zM641 -29q-256 0 -367 129q-94 107 -94 346v955h62v-952q0 -220 86 -316q92 -100 309 -100q200 0 297 90q54 50 78 123t24 192v963h58
v-977q0 -123 -27 -203t-88 -139q-116 -111 -338 -111z" />
    <glyph glyph-name="utilde" unicode="&#x169;" horiz-adv-x="1052" 
d="M651 1247q-40 0 -84 22t-85.5 44t-75.5 22q-57 0 -91 -82l-47 13q28 139 135 139q51 0 129 -45t117 -45q54 0 90 82l45 -13q-27 -137 -133 -137zM481 -29q-158 0 -245 80q-46 42 -64 101t-18 143v709h59v-670q0 -93 15 -146.5t51 -89.5q69 -69 219 -69q152 0 336 100v875
h59v-1004h-45l-8 78q-178 -107 -359 -107z" />
    <glyph glyph-name="Umacron" unicode="&#x16a;" horiz-adv-x="1273" 
d="M408 1669v55h456v-55h-456zM641 -29q-256 0 -367 129q-94 107 -94 346v955h62v-952q0 -220 86 -316q92 -100 309 -100q200 0 297 90q54 50 78 123t24 192v963h58v-977q0 -123 -27 -203t-88 -139q-116 -111 -338 -111z" />
    <glyph glyph-name="umacron" unicode="&#x16b;" horiz-adv-x="1052" 
d="M297 1282v55h457v-55h-457zM481 -29q-158 0 -245 80q-46 42 -64 101t-18 143v709h59v-670q0 -93 15 -146.5t51 -89.5q69 -69 219 -69q152 0 336 100v875h59v-1004h-45l-8 78q-178 -107 -359 -107z" />
    <glyph glyph-name="Ubreve" unicode="&#x16c;" horiz-adv-x="1273" 
d="M637 1532q-109 0 -167 64t-64 171h49q9 -73 52 -122.5t130 -49.5q159 0 182 172h47q-6 -107 -63.5 -171t-165.5 -64zM641 -29q-256 0 -367 129q-94 107 -94 346v955h62v-952q0 -220 86 -316q92 -100 309 -100q200 0 297 90q54 50 78 123t24 192v963h58v-977
q0 -123 -27 -203t-88 -139q-116 -111 -338 -111z" />
    <glyph glyph-name="ubreve" unicode="&#x16d;" horiz-adv-x="1052" 
d="M526 1192q-109 0 -167 64t-64 171h49q9 -73 52 -122.5t130 -49.5q160 0 183 172h47q-6 -107 -64 -171t-166 -64zM481 -29q-158 0 -245 80q-46 42 -64 101t-18 143v709h59v-670q0 -93 15 -146.5t51 -89.5q69 -69 219 -69q152 0 336 100v875h59v-1004h-45l-8 78
q-178 -107 -359 -107z" />
    <glyph glyph-name="Uring" unicode="&#x16e;" horiz-adv-x="1273" 
d="M631 1548q-101 0 -154 57t-53 150t54 150t155 57h8q101 0 155 -57t54 -150q0 -92 -55 -149.5t-156 -57.5h-8zM485 1757v-6q0 -71 38 -110t106 -39h10q73 0 111 38.5t38 110.5v6q0 73 -37 111.5t-110 38.5h-10q-69 0 -107.5 -39t-38.5 -111zM424 1757v-2v-2v4zM850 1757
v-4v2v2zM1036 1401h58v-977q0 -123 -27 -203t-88 -139q-116 -111 -338 -111q-256 0 -367 129q-94 107 -94 346v955h62v-952q0 -220 86 -316q92 -100 309 -100q200 0 297 90q54 50 78 123t24 192v963z" />
    <glyph glyph-name="uring" unicode="&#x16f;" horiz-adv-x="1052" 
d="M520 1204q-101 0 -154 57t-53 150t54 150t155 57h8q101 0 155 -57t54 -150q0 -92 -55 -149.5t-156 -57.5h-8zM375 1413v-6q0 -72 37.5 -111t105.5 -39h10q73 0 111.5 39t38.5 111v6q0 73 -37.5 111.5t-110.5 38.5h-10q-69 0 -107 -39t-38 -111zM313 1413v-2v-2v4z
M739 1413v-4v2v2zM834 1004h59v-1004h-45l-8 78q-178 -107 -359 -107q-158 0 -245 80q-46 42 -64 101t-18 143v709h59v-670q0 -93 15 -146.5t51 -89.5q69 -69 219 -69q152 0 336 100v875z" />
    <glyph glyph-name="Uhungarumlaut" unicode="&#x170;" horiz-adv-x="1273" 
d="M373 1548l-37 35l287 369l75 -68zM741 1548l-36 35l286 369l76 -68zM641 -29q-256 0 -367 129q-94 107 -94 346v955h62v-952q0 -220 86 -316q92 -100 309 -100q200 0 297 90q54 50 78 123t24 192v963h58v-977q0 -123 -27 -203t-88 -139q-116 -111 -338 -111z" />
    <glyph glyph-name="uhungarumlaut" unicode="&#x171;" horiz-adv-x="1052" 
d="M258 1202l-37 35l287 369l76 -68zM627 1202l-37 35l287 369l75 -68zM481 -29q-158 0 -245 80q-46 42 -64 101t-18 143v709h59v-670q0 -93 15 -146.5t51 -89.5q69 -69 219 -69q152 0 336 100v875h59v-1004h-45l-8 78q-178 -107 -359 -107z" />
    <glyph glyph-name="Uogonek" unicode="&#x172;" horiz-adv-x="1273" 
d="M700 -406q-83 0 -130.5 44.5t-47.5 123.5q0 117 99 209q-239 6 -347 129q-94 107 -94 346v955h62v-952q0 -220 86 -316q92 -100 309 -100q200 0 297 90q54 50 78 123t24 192v963h58v-977q0 -123 -27 -203t-88 -139q-102 -99 -287 -109q-55 -45 -82.5 -98.5t-27.5 -103.5
q0 -61 35.5 -93t103.5 -32q58 0 115 10v-41q-79 -21 -136 -21z" />
    <glyph glyph-name="uogonek" unicode="&#x173;" horiz-adv-x="1052" 
d="M819 -406q-74 0 -121 45t-47 123q0 169 195 256l-6 60q-178 -107 -359 -107q-158 0 -245 80q-46 42 -64 101t-18 143v709h59v-670q0 -93 15 -146.5t51 -89.5q69 -69 219 -69q152 0 336 100v875h59v-1004q-74 -31 -128 -87.5t-54 -141.5q0 -62 34 -93.5t95 -31.5
q35 0 53 2v-45q-38 -9 -74 -9z" />
    <glyph glyph-name="Wcircumflex" unicode="&#x174;" horiz-adv-x="1685" 
d="M598 1493l-33 33l242 258h80l241 -258l-30 -33l-250 236zM457 0l-394 1401h64l369 -1325l313 1325h76l329 -1325l345 1325h63l-367 -1401h-79l-328 1315l-311 -1315h-80z" />
    <glyph glyph-name="wcircumflex" unicode="&#x175;" horiz-adv-x="1329" 
d="M416 1194l-33 33l242 258h80l241 -258l-31 -33l-249 236zM336 0l-297 1004h65l269 -926l260 926h59l301 -926l228 926h63l-254 -1004h-72l-294 911l-256 -911h-72z" />
    <glyph glyph-name="Ycircumflex" unicode="&#x176;" horiz-adv-x="1056" 
d="M270 1493l-32 33l241 258h80l242 -258l-31 -33l-250 236zM487 0v573l-430 828h68l395 -770l414 770h65l-450 -828v-573h-62z" />
    <glyph glyph-name="ycircumflex" unicode="&#x177;" horiz-adv-x="1052" 
d="M276 1194l-32 33l241 258h80l242 -258l-31 -33l-250 236zM557 -489q-92 0 -139 14l-15 55q61 -12 134 -12q162 0 233 59q38 30 51 83t13 143v221q-173 -103 -353 -103q-158 0 -245 80q-46 42 -64 101t-18 143v709h59v-670q0 -90 15 -146t51 -90q72 -69 217 -69
q154 0 338 100v875h59v-1156q0 -193 -72 -260q-83 -77 -264 -77z" />
    <glyph glyph-name="Ydieresis" unicode="&#x178;" horiz-adv-x="1056" 
d="M340 1604q-31 0 -49.5 17.5t-18.5 47.5v8q0 31 18.5 49.5t49.5 18.5h4q31 0 49.5 -18.5t18.5 -49.5v-8q0 -30 -18.5 -47.5t-49.5 -17.5h-4zM696 1604q-31 0 -49 17t-18 48v8q0 31 18 49.5t49 18.5h4q31 0 49.5 -18.5t18.5 -49.5v-8q0 -30 -18.5 -47.5t-49.5 -17.5h-4z
M487 0v573l-430 828h68l395 -770l414 770h65l-450 -828v-573h-62z" />
    <glyph glyph-name="Zacute" unicode="&#x179;" horiz-adv-x="1077" 
d="M754 1790l-363 -270l-26 32l331 306zM199 55h768v-55h-840v49l754 1297h-762v55h833v-47z" />
    <glyph glyph-name="zacute" unicode="&#x17a;" horiz-adv-x="835" 
d="M250 1176l-27 32l332 305l57 -67zM98 0v37l574 913h-561v54h643v-35l-574 -914h580v-55h-662z" />
    <glyph glyph-name="Zdotaccent" unicode="&#x17b;" horiz-adv-x="1077" 
d="M512 1618q-57 0 -57 57v17q0 57 57 57h12q58 0 58 -57v-17q0 -57 -58 -57h-12zM199 55h768v-55h-840v49l754 1297h-762v55h833v-47z" />
    <glyph glyph-name="zdotaccent" unicode="&#x17c;" horiz-adv-x="835" 
d="M412 1274q-58 0 -58 57v17q0 57 58 57h12q57 0 57 -57v-17q0 -57 -57 -57h-12zM98 0v37l574 913h-561v54h643v-35l-574 -914h580v-55h-662z" />
    <glyph glyph-name="Zcaron" unicode="&#x17d;" horiz-adv-x="1077" 
d="M557 1493h-80l-241 258l32 33l250 -236l250 236l31 -33zM199 55h768v-55h-840v49l754 1297h-762v55h833v-47z" />
    <glyph glyph-name="zcaron" unicode="&#x17e;" horiz-adv-x="835" 
d="M377 1192l-242 258l33 33l250 -236l250 236l30 -33l-241 -258h-80zM98 0v37l574 913h-561v54h643v-35l-574 -914h580v-55h-662z" />
    <glyph glyph-name="longs" unicode="&#x17f;" horiz-adv-x="514" 
d="M225 0v948h-180v43l180 13v200q0 88 13 138.5t49 84.5q75 72 219 72q65 0 119 -12v-57q-58 12 -113 12q-124 0 -180 -56q-29 -29 -38 -71t-9 -127v-1188h-60z" />
    <glyph glyph-name="florin" unicode="&#x192;" horiz-adv-x="1046" 
d="M182 -539q-64 0 -114 13v53q58 -10 106 -10q126 0 184 61q55 58 64 195l59 870h-245v35l249 14l35 484q11 155 72 223q73 82 225 82q46 0 115 -11v-57q-58 10 -115 10q-70 -1 -110 -15t-70 -46q-50 -54 -57 -172l-35 -496h276v-51h-282l-62 -874q-11 -154 -71 -224
q-72 -84 -224 -84z" />
    <glyph glyph-name="uni01CD" unicode="&#x1cd;" horiz-adv-x="1081" 
d="M489 1493l-241 258l33 33l249 -236l250 236l31 -33l-242 -258h-80zM53 0l436 1401h80l459 -1401h-65l-127 395h-596l-121 -395h-66zM258 451h559l-287 890z" />
    <glyph glyph-name="uni01CE" unicode="&#x1ce;" horiz-adv-x="966" 
d="M455 1192l-242 258l33 33l250 -236l249 236l31 -33l-241 -258h-80zM422 -29q-143 0 -233.5 78t-90.5 234q0 125 70 198q46 48 119.5 68t187.5 20h279v107q0 168 -62 233q-63 66 -219 66q-138 0 -283 -37l-6 51q150 43 295 43q182 0 260 -84q74 -81 74 -246v-702h-45
l-8 68q-67 -40 -157 -68.5t-181 -28.5zM438 29q94 0 177.5 27t138.5 61v397h-271q-193 0 -264 -68q-59 -56 -59 -163q0 -128 74 -191t204 -63z" />
    <glyph glyph-name="Aringacute" unicode="&#x1fa;" horiz-adv-x="1081" 
d="M766 2351l-363 -270l-26 33l332 305zM524 1548q-101 0 -154 57t-53 150t54 150t155 57h9q101 0 154.5 -57t53.5 -150q0 -92 -55 -149.5t-156 -57.5h-8zM379 1757v-6q0 -72 37.5 -110.5t105.5 -38.5h10q73 0 111.5 38.5t38.5 110.5v6q0 73 -37 111.5t-110 38.5h-11
q-69 0 -107 -39t-38 -111zM317 1757v-2v-2v4zM743 1757v-4v2v2zM569 1401l459 -1401h-65l-127 395h-596l-121 -395h-66l436 1401h80zM258 451h559l-287 890z" />
    <glyph glyph-name="aringacute" unicode="&#x1fb;" horiz-adv-x="966" 
d="M678 2060l-363 -270l-26 33l332 305zM477 1204q-101 0 -154 57t-53 150t54 150t155 57h8q101 0 155 -57t54 -150q0 -92 -55 -149.5t-156 -57.5h-8zM332 1413v-6q0 -72 37.5 -111t105.5 -39h10q73 0 111.5 39t38.5 111v6q0 73 -37.5 111.5t-110.5 38.5h-10q-69 0 -107 -39
t-38 -111zM270 1413v-2v-2v4zM696 1413v-4v2v2zM739 948q74 -81 74 -246v-702h-45l-8 68q-67 -40 -157 -68.5t-181 -28.5q-143 0 -233.5 78t-90.5 234q0 125 70 198q46 48 119.5 68t187.5 20h279v107q0 168 -62 233q-63 66 -219 66q-138 0 -283 -37l-6 51q150 43 295 43
q182 0 260 -84zM754 117v397h-271q-193 0 -264 -68q-59 -56 -59 -163q0 -128 74 -191t204 -63q94 0 177.5 27t138.5 61z" />
    <glyph glyph-name="AEacute" unicode="&#x1fc;" horiz-adv-x="1644" 
d="M1004 1520l-27 32l332 306l57 -68zM20 0l787 1401h698l-12 -55h-596v-607h498v-55h-498v-627h629v-57h-690v387h-531l-219 -387h-66zM336 442h500v895z" />
    <glyph glyph-name="aeacute" unicode="&#x1fd;" horiz-adv-x="1611" 
d="M721 1176l-27 32l332 305l57 -67zM424 -29q-148 0 -237 79t-89 233q0 125 70 198q46 48 119.5 68t187.5 20h275v109q0 166 -64 233q-61 64 -219 64q-130 0 -277 -39l-10 53q150 43 295 43q182 0 260 -84q50 -52 64 -143q13 30 24.5 51.5t40.5 57.5t62.5 59t89.5 41
t123 18q184 0 274 -129t90 -389v-22q0 -13 -5 -18t-19 -5h-672q3 -221 93.5 -329.5t293.5 -108.5q137 0 254 32l8 -55q-44 -14 -121.5 -25.5t-144.5 -11.5q-236 0 -348 150q-75 -64 -190 -107t-228 -43zM807 524h637q0 231 -76.5 341t-228.5 110q-164 0 -246.5 -119
t-85.5 -332zM442 31q215 0 371 133q-63 104 -63 350h-267q-193 0 -264 -68q-59 -56 -59 -163q0 -128 74.5 -190t207.5 -62z" />
    <glyph glyph-name="Oslashacute" unicode="&#x1fe;" horiz-adv-x="1267" 
d="M510 1520l-27 32l332 306l57 -68zM266 -152l82 209q-217 164 -217 641q0 729 504 729q132 0 231 -51l70 174h61l-82 -207q222 -162 222 -645q0 -727 -502 -727q-136 0 -238 54l-69 -177h-62zM373 119l471 1198q-85 49 -209 49q-118 0 -203 -44.5t-136 -132t-75 -208.5
t-24 -283q0 -433 176 -579zM635 35q231 0 333.5 167.5t102.5 495.5q0 440 -178 586l-473 -1198q86 -51 215 -51z" />
    <glyph glyph-name="oslashacute" unicode="&#x1ff;" horiz-adv-x="1042" 
d="M416 1176l-27 32l332 305l57 -67zM205 -188l90 217q-180 115 -180 473q0 264 98 397t309 133q98 0 174 -31l80 191h60l-91 -217q183 -112 183 -473q0 -262 -98.5 -396.5t-307.5 -134.5q-108 0 -178 33l-80 -192h-59zM317 86l359 862q-73 27 -154 27q-187 0 -266.5 -118.5
t-79.5 -354.5q0 -316 141 -416zM522 31q185 0 264.5 117.5t79.5 353.5q0 319 -143 418l-356 -861q67 -28 155 -28z" />
    <glyph glyph-name="Scommaaccent" unicode="&#x218;" horiz-adv-x="1044" 
d="M467 -29q-102 0 -196 17.5t-148 38.5l14 59q159 -51 328 -51q186 0 280 63q109 73 109 234q0 72 -24.5 128.5t-65.5 93.5t-94.5 66.5t-112.5 52.5t-117.5 47t-112 55.5t-94.5 71t-65.5 100.5t-24.5 138q0 162 101 250q105 92 305 92q146 0 297 -45l-15 -57
q-139 41 -270 41q-356 0 -356 -272q0 -89 39.5 -152.5t102 -101t138.5 -68t152.5 -64t139 -77t102 -119t39.5 -178.5q0 -184 -119 -273.5t-332 -89.5zM492 -408v166q-41 8 -41 52v4q0 20 13 31.5t32 11.5h4q26 0 38.5 -16t12.5 -54q0 -121 -29 -195h-30z" />
    <glyph glyph-name="scommaaccent" unicode="&#x219;" horiz-adv-x="790" 
d="M367 -29q-65 0 -137 10t-113 23l6 53q109 -28 237 -28q150 0 227 54t77 157q0 67 -31.5 113.5t-81.5 72t-111 44.5t-122 39.5t-111 48.5t-81.5 79.5t-31.5 124.5q0 71 26.5 124t74 84.5t109 46.5t136.5 15q116 0 217 -28l-6 -56q-121 27 -213 27q-282 0 -282 -213
q0 -53 24.5 -92t64.5 -61t91 -42.5t104.5 -35t104.5 -38.5t91 -53.5t64.5 -81t24.5 -118.5q0 -124 -88 -196.5t-270 -72.5zM385 -408v166q-41 8 -41 52v4q0 20 13 31.5t32 11.5h4q26 0 38.5 -16t12.5 -54q0 -123 -28 -195h-31z" />
    <glyph glyph-name="uni021A" unicode="&#x21a;" horiz-adv-x="1087" 
d="M516 0v1346h-455v55h975l-12 -55h-446v-1346h-62zM535 -408v166q-41 8 -41 52v4q0 20 13 31.5t32 11.5h4q26 0 38.5 -16t12.5 -54q0 -121 -29 -195h-30z" />
    <glyph glyph-name="uni021B" unicode="&#x21b;" horiz-adv-x="653" 
d="M459 -29q-123 0 -185 62q-31 31 -44 77t-13 123v717h-180v41l180 13v227q29 13 59 16v-243h273v-54h-273v-667q0 -76 9.5 -126t38.5 -81q44 -47 137 -47q79 0 153 18l7 -49q-78 -27 -162 -27zM422 -408v166q-41 8 -41 52v4q0 20 13 31.5t32 11.5h4q26 0 38.5 -16
t12.5 -54q0 -123 -28 -195h-31z" />
    <glyph glyph-name="uni0237" unicode="&#x237;" horiz-adv-x="387" 
d="M-100 -487l-11 53q145 -3 220 65q30 27 43.5 75t13.5 138v1160h59v-1160q0 -102 -15 -157.5t-52 -92.5q-81 -81 -258 -81z" />
    <glyph glyph-name="circumflex" unicode="&#x2c6;" horiz-adv-x="798" 
d="M150 1194l-33 33l241 258h80l242 -258l-31 -33l-250 236z" />
    <glyph glyph-name="caron" unicode="&#x2c7;" horiz-adv-x="798" 
d="M358 1192l-241 258l33 33l249 -236l250 236l31 -33l-242 -258h-80z" />
    <glyph glyph-name="breve" unicode="&#x2d8;" horiz-adv-x="798" 
d="M401 1192q-109 0 -167 64t-64 171h49q9 -73 52 -122.5t130 -49.5q160 0 183 172h47q-6 -107 -64 -171t-166 -64z" />
    <glyph glyph-name="dotaccent" unicode="&#x2d9;" horiz-adv-x="798" 
d="M393 1274q-57 0 -57 57v17q0 57 57 57h13q57 0 57 -57v-17q0 -57 -57 -57h-13z" />
    <glyph glyph-name="ring" unicode="&#x2da;" horiz-adv-x="798" 
d="M403 1618q101 0 155 -57t54 -150q0 -92 -55 -149.5t-156 -57.5h-8q-101 0 -154 57t-53 150t54 150t155 57h8zM551 1407v6q0 73 -37.5 111.5t-110.5 38.5h-10q-69 0 -107 -39t-38 -111v-6q0 -72 37.5 -111t105.5 -39h10q73 0 111.5 39t38.5 111zM186 1409v4v-2v-2z
M612 1413v-4v2v2z" />
    <glyph glyph-name="ogonek" unicode="&#x2db;" horiz-adv-x="798" 
d="M420 -406q-83 0 -130.5 44.5t-47.5 123.5q0 91 56.5 163.5t137.5 109.5l68 -4q-100 -48 -151.5 -120t-51.5 -140q0 -61 35.5 -93t103.5 -32q58 0 115 10v-41q-79 -21 -135 -21z" />
    <glyph glyph-name="tilde" unicode="&#x2dc;" horiz-adv-x="798" 
d="M524 1247q-48 0 -127 44t-118 44q-57 0 -91 -82l-47 13q28 139 135 139q51 0 129 -45t117 -45q54 0 90 82l45 -13q-27 -137 -133 -137z" />
    <glyph glyph-name="hungarumlaut" unicode="&#x2dd;" horiz-adv-x="798" 
d="M68 1202l-37 35l286 369l76 -68zM436 1202l-37 35l287 369l76 -68z" />
    <glyph glyph-name="gravecomb" unicode="&#x300;" 
d="M-236 1176l-362 270l57 67l332 -305z" />
    <glyph glyph-name="acutecomb" unicode="&#x301;" 
d="M-569 1176l-27 32l332 305l57 -67z" />
    <glyph glyph-name="uni0302" unicode="&#x302;" 
d="M-649 1194l-33 33l242 258h80l241 -258l-31 -33l-249 236z" />
    <glyph glyph-name="tildecomb" unicode="&#x303;" 
d="M-274 1247q-48 0 -127.5 44t-118.5 44q-56 0 -90 -82l-47 13q28 139 135 139q51 0 129 -45t117 -45q54 0 90 82l45 -13q-27 -137 -133 -137z" />
    <glyph glyph-name="uni0304" unicode="&#x304;" 
d="M-629 1282v55h457v-55h-457z" />
    <glyph glyph-name="uni0306" unicode="&#x306;" 
d="M-397 1192q-109 0 -167.5 64t-64.5 171h49q9 -72 52.5 -122t130.5 -50q159 0 182 172h47q-6 -107 -63.5 -171t-165.5 -64z" />
    <glyph glyph-name="uni0307" unicode="&#x307;" 
d="M-406 1274q-57 0 -57 57v17q0 57 57 57h13q57 0 57 -57v-17q0 -57 -57 -57h-13z" />
    <glyph glyph-name="uni0308" unicode="&#x308;" 
d="M-580 1260q-31 0 -49 17t-18 48v8q0 31 18 49.5t49 18.5h5q31 0 49 -18.5t18 -49.5v-8q0 -31 -18 -48t-49 -17h-5zM-223 1260q-31 0 -49.5 17.5t-18.5 47.5v8q0 31 18.5 49.5t49.5 18.5h4q31 0 49 -18.5t18 -49.5v-8q0 -31 -18 -48t-49 -17h-4z" />
    <glyph glyph-name="uni030A" unicode="&#x30a;" 
d="M-395 1618q101 0 155 -57t54 -150q0 -92 -55 -149.5t-156 -57.5h-9q-101 0 -153.5 57t-52.5 150t54 150t155 57h8zM-248 1407v6q0 73 -37 111.5t-110 38.5h-11q-69 0 -107 -39t-38 -111v-6q0 -72 37.5 -111t105.5 -39h11q73 0 111 39t38 111zM-612 1409v4v-2v-2z
M-186 1413v-4v2v2z" />
    <glyph glyph-name="uni030B" unicode="&#x30b;" 
d="M-731 1202l-37 35l287 369l75 -68zM-362 1202l-37 35l286 369l76 -68z" />
    <glyph glyph-name="uni030C" unicode="&#x30c;" 
d="M-440 1192l-242 258l33 33l250 -236l249 236l31 -33l-241 -258h-80z" />
    <glyph glyph-name="uni0326" unicode="&#x326;" 
d="M-416 -408v166q-41 8 -41 52v4q0 20 13 31.5t32 11.5h4q26 0 39 -16t13 -54q0 -121 -29 -195h-31z" />
    <glyph glyph-name="uni0327" unicode="&#x327;" 
d="M-414 -389q-63 0 -125 16v43q74 -12 117 -12q111 0 111 66q0 29 -22.5 47t-54.5 27t-64.5 18t-55 28.5t-22.5 51.5q0 54 43 100h30q-26 -42 -26 -72q0 -31 23 -48t56 -24.5t66.5 -17.5t56.5 -36.5t23 -71.5q0 -51 -38.5 -83t-117.5 -32z" />
    <glyph glyph-name="uni0328" unicode="&#x328;" 
d="M-377 -406q-83 0 -130.5 44.5t-47.5 123.5q0 91 57 163.5t138 109.5l67 -4q-100 -48 -151.5 -120t-51.5 -140q0 -61 36 -93t104 -32q56 0 114 10v-41q-79 -21 -135 -21z" />
    <glyph glyph-name="uni0394" unicode="&#x394;" horiz-adv-x="1208" 
d="M84 0v12q0 25 12 60l461 1329h86l465 -1313q16 -47 16 -68v-20h-1040zM158 55h891l-451 1286z" />
    <glyph glyph-name="uni03A9" unicode="&#x3a9;" horiz-adv-x="1300" 
d="M180 0v55h326q-77 52 -140.5 120.5t-115.5 158t-81.5 204.5t-29.5 244q0 294 136 469.5t376 175.5q239 0 374.5 -174.5t135.5 -468.5q0 -130 -29.5 -245.5t-82 -205t-116 -158t-140.5 -120.5h327v-55h-385v25q0 28 6.5 39t30.5 30q159 128 241.5 296t82.5 396
q0 126 -26.5 230t-79 183t-139 123t-200.5 44t-201 -44t-140 -123t-79 -183.5t-26 -231.5q0 -228 81.5 -392.5t243.5 -297.5q24 -19 29.5 -29.5t5.5 -39.5v-25h-385z" />
    <glyph glyph-name="uni03BC" unicode="&#x3bc;" horiz-adv-x="1058" 
d="M160 -461v1465h59v-670q0 -93 15 -146.5t51 -89.5q69 -69 219 -69q152 0 336 100v875h59v-1004h-45l-8 78q-178 -107 -359 -107q-90 0 -160.5 27.5t-107.5 77.5v-537h-59z" />
    <glyph glyph-name="pi" unicode="&#x3c0;" horiz-adv-x="1222" 
d="M254 0v932h-184v55h1083v-55h-180v-932h-60v932h-600v-932h-59z" />
    <glyph glyph-name="Wgrave" unicode="&#x1e80;" horiz-adv-x="1685" 
d="M1014 1520l-363 270l58 68l331 -306zM457 0l-394 1401h64l369 -1325l313 1325h76l329 -1325l345 1325h63l-367 -1401h-79l-328 1315l-311 -1315h-80z" />
    <glyph glyph-name="wgrave" unicode="&#x1e81;" horiz-adv-x="1329" 
d="M834 1176l-363 270l57 67l332 -305zM336 0l-297 1004h65l269 -926l260 926h59l301 -926l228 926h63l-254 -1004h-72l-294 911l-256 -911h-72z" />
    <glyph glyph-name="Wacute" unicode="&#x1e82;" horiz-adv-x="1685" 
d="M721 1520l-27 32l332 306l57 -68zM457 0l-394 1401h64l369 -1325l313 1325h76l329 -1325l345 1325h63l-367 -1401h-79l-328 1315l-311 -1315h-80z" />
    <glyph glyph-name="wacute" unicode="&#x1e83;" horiz-adv-x="1329" 
d="M498 1176l-27 32l332 305l57 -67zM336 0l-297 1004h65l269 -926l260 926h59l301 -926l228 926h63l-254 -1004h-72l-294 911l-256 -911h-72z" />
    <glyph glyph-name="Wdieresis" unicode="&#x1e84;" horiz-adv-x="1685" 
d="M668 1604q-31 0 -49.5 17.5t-18.5 47.5v8q0 31 18.5 49.5t49.5 18.5h4q31 0 49 -18.5t18 -49.5v-8q0 -31 -18 -48t-49 -17h-4zM1024 1604q-31 0 -49.5 17.5t-18.5 47.5v8q0 31 18.5 49.5t49.5 18.5h4q31 0 49.5 -18.5t18.5 -49.5v-8q0 -30 -18.5 -47.5t-49.5 -17.5h-4z
M457 0l-394 1401h64l369 -1325l313 1325h76l329 -1325l345 1325h63l-367 -1401h-79l-328 1315l-311 -1315h-80z" />
    <glyph glyph-name="wdieresis" unicode="&#x1e85;" horiz-adv-x="1329" 
d="M485 1260q-31 0 -49 17t-18 48v8q0 31 18 49.5t49 18.5h4q31 0 49.5 -18.5t18.5 -49.5v-8q0 -30 -18.5 -47.5t-49.5 -17.5h-4zM842 1260q-31 0 -49.5 17.5t-18.5 47.5v8q0 31 18.5 49.5t49.5 18.5h4q31 0 49 -18.5t18 -49.5v-8q0 -31 -18 -48t-49 -17h-4zM336 0
l-297 1004h65l269 -926l260 926h59l301 -926l228 926h63l-254 -1004h-72l-294 911l-256 -911h-72z" />
    <glyph glyph-name="Ygrave" unicode="&#x1ef2;" horiz-adv-x="1056" 
d="M686 1520l-362 270l57 68l332 -306zM487 0v573l-430 828h68l395 -770l414 770h65l-450 -828v-573h-62z" />
    <glyph glyph-name="ygrave" unicode="&#x1ef3;" horiz-adv-x="1052" 
d="M694 1176l-362 270l57 67l332 -305zM557 -489q-92 0 -139 14l-15 55q61 -12 134 -12q162 0 233 59q38 30 51 83t13 143v221q-173 -103 -353 -103q-158 0 -245 80q-46 42 -64 101t-18 143v709h59v-670q0 -90 15 -146t51 -90q72 -69 217 -69q154 0 338 100v875h59v-1156
q0 -193 -72 -260q-83 -77 -264 -77z" />
    <glyph glyph-name="endash" unicode="&#x2013;" horiz-adv-x="1024" 
d="M0 504v57h1024v-57h-1024z" />
    <glyph glyph-name="emdash" unicode="&#x2014;" horiz-adv-x="2048" 
d="M0 504v57h2048v-57h-2048z" />
    <glyph glyph-name="quoteleft" unicode="&#x2018;" horiz-adv-x="423" 
d="M225 1427v-196q56 -5 56 -53v-9q0 -26 -15 -40.5t-41 -14.5h-4q-28 0 -41.5 20.5t-13.5 73.5q0 93 29 219h30z" />
    <glyph glyph-name="quoteright" unicode="&#x2019;" horiz-adv-x="423" 
d="M199 1114v197q-56 5 -56 53v8q0 26 15 40.5t41 14.5h4q28 0 41.5 -20.5t13.5 -73.5q0 -93 -29 -219h-30z" />
    <glyph glyph-name="quotesinglbase" unicode="&#x201a;" horiz-adv-x="423" 
d="M199 -225v196q-56 5 -56 54v8q0 26 15 40.5t41 14.5h4q28 0 41.5 -20.5t13.5 -73.5q0 -93 -29 -219h-30z" />
    <glyph glyph-name="quotedblleft" unicode="&#x201c;" horiz-adv-x="606" 
d="M225 1427v-196q56 -5 56 -53v-9q0 -26 -15 -40.5t-41 -14.5h-4q-28 0 -41.5 20.5t-13.5 73.5q0 93 29 219h30zM408 1427v-196q55 -5 55 -53v-9q0 -55 -55 -55h-5q-28 0 -41.5 20.5t-13.5 73.5q0 93 29 219h31z" />
    <glyph glyph-name="quotedblright" unicode="&#x201d;" horiz-adv-x="606" 
d="M199 1114v197q-56 5 -56 53v8q0 26 15 40.5t41 14.5h4q28 0 41.5 -20.5t13.5 -73.5q0 -93 -29 -219h-30zM381 1114v197q-55 5 -55 53v8q0 55 55 55h4q28 0 41.5 -20.5t13.5 -73.5q0 -97 -28 -219h-31z" />
    <glyph glyph-name="quotedblbase" unicode="&#x201e;" horiz-adv-x="604" 
d="M199 -225v196q-56 5 -56 54v8q0 26 15 40.5t41 14.5h4q28 0 41.5 -20.5t13.5 -73.5q0 -93 -29 -219h-30zM379 -225v196q-55 5 -55 54v8q0 55 55 55h4q28 0 41.5 -20.5t13.5 -73.5q0 -97 -28 -219h-31z" />
    <glyph glyph-name="dagger" unicode="&#x2020;" horiz-adv-x="954" 
d="M449 -485l8 1306l-404 -10v57l404 -10l-8 543h59l-10 -543l403 10v-57l-403 10l10 -1306h-59z" />
    <glyph glyph-name="daggerdbl" unicode="&#x2021;" horiz-adv-x="954" 
d="M449 -485l8 544l-404 -10v57l404 -10v725l-404 -10v57l404 -10l-8 543h59l-10 -543l403 10v-57l-403 10v-725l403 10v-57l-403 10l10 -544h-59z" />
    <glyph glyph-name="bullet" unicode="&#x2022;" horiz-adv-x="724" 
d="M342 473q-97 0 -147 53t-50 168v17q0 115 50 168t147 53h41q97 0 147 -53t50 -168v-17q0 -115 -50 -168t-147 -53h-41z" />
    <glyph glyph-name="ellipsis" unicode="&#x2026;" horiz-adv-x="1331" 
d="M219 -29q-55 0 -55 54v8q0 55 55 55h4q26 0 41 -14.5t15 -40.5v-8q0 -54 -56 -54h-4zM664 -29q-56 0 -56 54v8q0 26 15 40.5t41 14.5h4q55 0 55 -55v-8q0 -54 -55 -54h-4zM1108 -29q-55 0 -55 54v8q0 55 55 55h4q55 0 55 -55v-8q0 -54 -55 -54h-4z" />
    <glyph glyph-name="perthousand" unicode="&#x2030;" horiz-adv-x="2398" 
d="M403 600q-135 0 -201.5 98t-66.5 316t66.5 315.5t201.5 97.5q134 0 200.5 -97.5t66.5 -315.5t-66.5 -316t-200.5 -98zM504 -29l690 1456h61l-690 -1456h-61zM403 651q111 0 160 81.5t49 281.5q0 198 -50 280t-159 82t-159.5 -81t-50.5 -281q0 -203 51 -283t159 -80z
M1360 -29q-135 0 -201.5 98t-66.5 316t66.5 316t201.5 98q134 0 200 -98t66 -316t-66 -316t-200 -98zM2001 -29q-135 0 -201.5 98t-66.5 316t66.5 316t201.5 98q134 0 200 -98t66 -316t-66 -316t-200 -98zM1360 23q111 0 160 81t49 281q0 198 -50 280.5t-159 82.5
t-160 -81.5t-51 -281.5q0 -104 13.5 -175t41 -111.5t65.5 -58t91 -17.5zM2001 23q111 0 160 81t49 281q0 198 -50 280.5t-159 82.5t-160 -81.5t-51 -281.5q0 -104 13.5 -175t41 -111.5t65.5 -58t91 -17.5z" />
    <glyph glyph-name="guilsinglleft" unicode="&#x2039;" horiz-adv-x="669" 
d="M475 152l-242 286q-49 60 -49 99q0 38 49 98l242 287l39 -29l-264 -356l264 -357z" />
    <glyph glyph-name="guilsinglright" unicode="&#x203a;" horiz-adv-x="669" 
d="M195 152l-39 28l264 357l-264 356l39 29l241 -287q49 -60 49 -98q0 -39 -49 -99z" />
    <glyph glyph-name="fraction" unicode="&#x2044;" horiz-adv-x="690" 
d="M-31 -29l690 1456h62l-690 -1456h-62z" />
    <glyph glyph-name="Euro" unicode="&#x20ac;" horiz-adv-x="1046" 
d="M721 -29q-243 0 -377 136.5t-158 424.5h-145v35l139 15q-2 33 -2 182h-137v35l141 14q19 326 170 481q130 133 363 133q127 0 266 -47v-53q-130 45 -270 45q-189 0 -301 -106q-150 -142 -166 -451h485v-51h-489q0 -154 2 -180h487v-52h-483q23 -262 138.5 -383.5
t334.5 -121.5q113 0 278 28v-49q-140 -35 -276 -35z" />
    <glyph glyph-name="uni2113" unicode="&#x2113;" horiz-adv-x="378" 
d="M160 0v1464h59v-1464h-59z" />
    <glyph glyph-name="uni2116" unicode="&#x2116;" horiz-adv-x="1982" 
d="M193 0v1401h45l845 -1278v1278h58v-1401h-47l-844 1278v-1278h-57zM1610 498q-132 0 -221 96.5t-89 263.5t89 264t221 97q130 0 219.5 -97t89.5 -264t-89.5 -263.5t-219.5 -96.5zM1610 551q115 0 183.5 82t68.5 225t-68.5 225t-183.5 82t-183.5 -82t-68.5 -225t68.5 -225
t183.5 -82z" />
    <glyph glyph-name="trademark" unicode="&#x2122;" horiz-adv-x="1282" 
d="M248 758v594h-207v49h469v-49h-207v-594h-55zM623 758v643h53l229 -471l242 471h53v-643h-51v542l-217 -423h-53l-207 423v-542h-49z" />
    <glyph glyph-name="uni2126" unicode="&#x2126;" horiz-adv-x="1300" 
d="M180 0v55h326q-77 52 -140.5 120.5t-115.5 158t-81.5 204.5t-29.5 244q0 294 136 469.5t376 175.5q239 0 374.5 -174.5t135.5 -468.5q0 -130 -29.5 -245.5t-82 -205t-116 -158t-140.5 -120.5h327v-55h-385v25q0 28 6.5 39t30.5 30q159 128 241.5 296t82.5 396
q0 126 -26.5 230t-79 183t-139 123t-200.5 44t-201 -44t-140 -123t-79 -183.5t-26 -231.5q0 -228 81.5 -392.5t243.5 -297.5q24 -19 29.5 -29.5t5.5 -39.5v-25h-385z" />
    <glyph glyph-name="estimated" unicode="&#x212e;" horiz-adv-x="1748" 
d="M877 -29q-166 0 -316.5 57.5t-260 154.5t-174.5 232t-65 283q0 199 109.5 367t297.5 265t409 97q164 0 313.5 -57.5t259 -154.5t174 -232.5t64.5 -284.5v-16h-1315q-15 0 -15 -12v-398q0 -21 23 -47q94 -98 223.5 -153.5t274.5 -55.5q155 0 290.5 63.5t229.5 174.5h121
q-117 -131 -285 -207t-358 -76zM373 721h1003q15 0 15 12v402q0 24 -25 49q-95 95 -221.5 147.5t-265.5 52.5q-146 0 -273.5 -54t-224.5 -152q-23 -26 -23 -54v-391q0 -12 15 -12z" />
    <glyph glyph-name="partialdiff" unicode="&#x2202;" horiz-adv-x="1046" 
d="M498 -29q-185 0 -282 118t-97 329q0 399 379 399q170 0 344 -69q-12 413 -144 536q-92 86 -278 86q-112 0 -191 -12v49q86 20 207 20q208 0 312 -104q157 -157 157 -657q0 -131 -11.5 -233.5t-40.5 -191t-75 -147t-116.5 -91t-163.5 -32.5zM498 29q79 0 139 30t99 82
t63.5 129t34.5 164t10 193v65q-171 68 -336 68q-74 0 -129.5 -15t-102.5 -51.5t-71.5 -105.5t-24.5 -168q0 -186 83 -288.5t235 -102.5z" />
    <glyph glyph-name="uni2206" unicode="&#x2206;" horiz-adv-x="1208" 
d="M84 0v12q0 25 12 60l461 1329h86l465 -1313q16 -47 16 -68v-20h-1040zM158 55h891l-451 1286z" />
    <glyph glyph-name="product" unicode="&#x220f;" horiz-adv-x="1449" 
d="M311 -461v1807h-205v55h1237v-55h-204v-1807h-62v1807h-704v-1807h-62z" />
    <glyph glyph-name="summation" unicode="&#x2211;" horiz-adv-x="1191" 
d="M135 -461v49l645 899l-624 867v47h905v-55h-825l618 -859l-641 -893h848v-55h-926z" />
    <glyph glyph-name="minus" unicode="&#x2212;" horiz-adv-x="993" 
d="M197 662v53h600v-53h-600z" />
    <glyph glyph-name="radical" unicode="&#x221a;" horiz-adv-x="1273" 
d="M631 0l-355 950h-129v54h170l345 -918l487 1411h59l-516 -1497h-61z" />
    <glyph glyph-name="infinity" unicode="&#x221e;" horiz-adv-x="1413" 
d="M1022 369q-54 0 -97.5 18t-79 55.5t-58.5 72.5t-54 91q-141 -233 -330 -233q-77 0 -134 28t-87.5 76.5t-44.5 103.5t-14 119q0 62 14.5 116t44.5 100t83.5 73t125.5 27q57 0 103.5 -17t81.5 -51t60 -69t52 -86q60 99 142 159t180 60q62 0 111.5 -19t80.5 -50t51.5 -74.5
t28.5 -88.5t8 -96q0 -62 -14.5 -115.5t-44.5 -99.5t-83.5 -73t-125.5 -27zM401 426q95 0 165 57t139 174q-22 45 -37 74t-39 69t-47.5 65.5t-53 49.5t-64 36t-73.5 12q-95 0 -153 -69.5t-58 -191.5q0 -130 57.5 -203t163.5 -73zM1022 422q96 0 153.5 68t57.5 192
q0 130 -58 203t-163 73q-92 0 -160.5 -53.5t-134.5 -161.5q6 -12 26.5 -54t29 -57.5t29 -51.5t34 -52t36.5 -41t43.5 -36t48.5 -20t58 -9z" />
    <glyph glyph-name="integral" unicode="&#x222b;" horiz-adv-x="1028" 
d="M281 -489q-64 0 -121 10v55q63 -10 116 -10q115 0 164 49q30 30 37.5 72t7.5 137v1411q0 93 12.5 141.5t47.5 81.5q34 33 80.5 48.5t124.5 15.5q57 0 120 -11v-55q-62 10 -116 10q-115 0 -164 -49q-30 -30 -37.5 -72t-7.5 -137v-1411q0 -93 -12.5 -141.5t-47.5 -81.5
q-34 -33 -80 -48t-124 -15z" />
    <glyph glyph-name="approxequal" unicode="&#x2248;" horiz-adv-x="993" 
d="M684 788q-68 0 -194.5 38t-174.5 38q-29 0 -43 -14.5t-22 -48.5l-51 8q7 63 34.5 90t75.5 27q63 0 189.5 -38t179.5 -38q31 0 45 15t20 48l52 -8q-7 -63 -35 -90t-76 -27zM684 424q-68 0 -194.5 38t-174.5 38q-29 0 -43 -14.5t-22 -49.5l-51 8q7 63 34.5 90t75.5 27
q63 0 189.5 -38t179.5 -38q31 0 45 15.5t20 48.5l52 -8q-7 -63 -35 -90t-76 -27z" />
    <glyph glyph-name="notequal" unicode="&#x2260;" horiz-adv-x="1769" 
d="M1585 729v-57h-670v-672h-61v672h-670v57h670v672h61v-672h670z" />
    <glyph glyph-name="lessequal" unicode="&#x2264;" horiz-adv-x="993" 
d="M795 346l-596 297v62l596 296v-61l-539 -266l539 -266v-62zM197 0v53h600v-53h-600z" />
    <glyph glyph-name="greaterequal" unicode="&#x2265;" horiz-adv-x="993" 
d="M199 346v62l538 266l-538 266v61l596 -296v-62zM197 0v53h600v-53h-600z" />
    <glyph glyph-name="lozenge" unicode="&#x25ca;" horiz-adv-x="1099" 
d="M518 0l-383 594q-27 43 -36 63t-9 43q0 22 9 41.5t36 65.5l383 594h66l381 -594q27 -42 36 -63t9 -44q0 -22 -8.5 -41t-36.5 -65l-381 -594h-66zM551 61l405 639l-405 639l-408 -639z" />
    <glyph glyph-name="uniF8FF" unicode="&#xf8ff;" horiz-adv-x="1241" 
d="M205 0v1401h831v-135h-692v-1127h154v-139h-293zM481 430v137h420v142h-420v415h555v-139h-413v-137h413v-418h-555z" />
    <glyph glyph-name="i.loclTRK" horiz-adv-x="378" 
d="M184 1274q-57 0 -57 57v17q0 57 57 57h13q57 0 57 -57v-17q0 -57 -57 -57h-13zM160 0v1004h59v-1004h-59z" />
    <glyph glyph-name="notequal.ss01" horiz-adv-x="993" 
d="M293 172l106 311h-202v54h223l98 288h-321v54h340l108 315h57l-108 -315h203v-54h-222l-98 -288h320v-54h-340l-107 -311h-57z" />
    <glyph glyph-name="plus.ss01" horiz-adv-x="1769" 
d="M1585 729v-57h-670v-672h-61v672h-670v57h670v672h61v-672h670z" />
    <glyph glyph-name="uni0308.case" 
d="M-580 1604q-31 0 -49 17t-18 48v8q0 31 18 49.5t49 18.5h5q31 0 49 -18.5t18 -49.5v-8q0 -31 -18 -48t-49 -17h-5zM-223 1604q-31 0 -49.5 17.5t-18.5 47.5v8q0 31 18.5 49.5t49.5 18.5h4q31 0 49 -18.5t18 -49.5v-8q0 -31 -18 -48t-49 -17h-4z" />
    <glyph glyph-name="uni0307.case" 
d="M-406 1618q-57 0 -57 57v17q0 57 57 57h13q57 0 57 -57v-17q0 -57 -57 -57h-13z" />
    <glyph glyph-name="gravecomb.case" 
d="M-236 1520l-362 270l57 68l332 -306z" />
    <glyph glyph-name="acutecomb.case" 
d="M-563 1520l-27 32l332 306l57 -68z" />
    <glyph glyph-name="uni030B.case" 
d="M-731 1548l-37 35l287 369l75 -68zM-362 1548l-37 35l286 369l76 -68z" />
    <glyph glyph-name="uni0302.case" 
d="M-647 1493l-33 33l242 258h80l241 -258l-30 -33l-250 236z" />
    <glyph glyph-name="uni030C.case" 
d="M-440 1493l-242 258l33 33l250 -236l249 236l31 -33l-241 -258h-80z" />
    <glyph glyph-name="uni0306.case" 
d="M-397 1532q-109 0 -167.5 64t-64.5 171h49q9 -72 52.5 -122t130.5 -50q159 0 182 172h47q-6 -107 -63.5 -171t-165.5 -64z" />
    <glyph glyph-name="uni030A.case" 
d="M-395 1962q101 0 155 -57t54 -150q0 -92 -55 -149.5t-156 -57.5h-9q-101 0 -153.5 57t-52.5 150t54 150t155 57h8zM-248 1751v6q0 73 -37 111.5t-110 38.5h-11q-69 0 -107 -39t-38 -111v-6q0 -72 37.5 -110.5t105.5 -38.5h11q73 0 111 38.5t38 110.5zM-612 1753v4v-2v-2z
M-186 1757v-4v2v2z" />
    <glyph glyph-name="tildecomb.case" 
d="M-274 1579q-48 0 -127.5 44t-118.5 44q-56 0 -90 -82l-47 12q28 140 135 140q51 0 129 -45t117 -45q54 0 90 82l45 -13q-27 -137 -133 -137z" />
    <glyph glyph-name="uni0304.case" 
d="M-629 1669v55h457v-55h-457z" />
    <glyph glyph-name="acute.case" horiz-adv-x="798" 
d="M236 1520l-27 32l332 306l57 -68z" />
    <glyph glyph-name="breve.case" horiz-adv-x="798" 
d="M401 1532q-109 0 -167 64t-64 171h49q9 -73 52 -122.5t130 -49.5q160 0 183 172h47q-6 -107 -64 -171t-166 -64z" />
    <glyph glyph-name="caron.case" horiz-adv-x="798" 
d="M358 1493l-241 258l33 33l249 -236l250 236l31 -33l-242 -258h-80z" />
    <glyph glyph-name="circumflex.case" horiz-adv-x="798" 
d="M152 1493l-33 33l241 258h80l242 -258l-31 -33l-250 236z" />
    <glyph glyph-name="dieresis.case" horiz-adv-x="798" 
d="M219 1604q-31 0 -49 17t-18 48v8q0 31 18 49.5t49 18.5h4q31 0 49.5 -18.5t18.5 -49.5v-8q0 -30 -18.5 -47.5t-49.5 -17.5h-4zM575 1604q-31 0 -49 17t-18 48v8q0 31 18 49.5t49 18.5h5q31 0 49 -18.5t18 -49.5v-8q0 -31 -18 -48t-49 -17h-5z" />
    <glyph glyph-name="dotaccent.case" horiz-adv-x="798" 
d="M393 1618q-57 0 -57 57v17q0 57 57 57h13q57 0 57 -57v-17q0 -57 -57 -57h-13z" />
    <glyph glyph-name="grave.case" horiz-adv-x="798" 
d="M563 1520l-362 270l57 68l332 -306z" />
    <glyph glyph-name="hungarumlaut.case" horiz-adv-x="798" 
d="M68 1548l-37 35l286 369l76 -68zM436 1548l-37 35l287 369l76 -68z" />
    <glyph glyph-name="macron.case" horiz-adv-x="798" 
d="M170 1669v55h457v-55h-457z" />
    <glyph glyph-name="ring.case" horiz-adv-x="798" 
d="M403 1962q101 0 155 -57t54 -150q0 -92 -55 -149.5t-156 -57.5h-8q-101 0 -154 57t-53 150t54 150t155 57h8zM551 1751v6q0 73 -37.5 111.5t-110.5 38.5h-10q-69 0 -107 -39t-38 -111v-6q0 -72 37.5 -110.5t105.5 -38.5h10q73 0 111.5 38.5t38.5 110.5zM186 1753v4v-2v-2
zM612 1757v-4v2v2z" />
    <glyph glyph-name="tilde.case" horiz-adv-x="798" 
d="M524 1579q-48 0 -127 44t-118 44q-57 0 -91 -82l-47 12q28 140 135 140q51 0 129 -45t117 -45q54 0 90 82l45 -13q-27 -137 -133 -137z" />
    </font>
</defs>
</svg>
