<?xml version="1.0" standalone="no"?>
<!DOCTYPE svg PUBLIC "-//W3C//DTD SVG 1.1//EN" "http://www.w3.org/Graphics/SVG/1.1/DTD/svg11.dtd" >
<svg xmlns="http://www.w3.org/2000/svg" xmlns:xlink="http://www.w3.org/1999/xlink" version="1.1">
<metadata>
Created by FontForge 20170731 at Tue Nov 30 23:39:28 2021
 By Aleksey,,,
Copyright (c) 2009 by Fontsmith Ltd. All rights reserved. This font may not be altered in any way without prior permission of Fontsmith Ltd.
</metadata>
<defs>
<font id="Telefonica-RegularItalic" horiz-adv-x="1085" >
  <font-face 
    font-family="Telefonica"
    font-weight="400"
    font-style="italic"
    font-stretch="normal"
    units-per-em="2048"
    panose-1="0 0 5 0 0 0 0 0 0 0"
    ascent="1536"
    descent="-512"
    x-height="1004"
    cap-height="1401"
    bbox="-817 -596 2535 2404"
    underline-thickness="124"
    underline-position="-329"
    slope="-10"
    unicode-range="U+000D-FB02"
  />
<missing-glyph horiz-adv-x="1314" 
d="M176 0v1352h963v-1352h-963zM657 762l326 491h-655zM274 184l326 494l-326 489v-983zM1044 184v983l-327 -489zM328 100h655l-326 490z" />
    <glyph glyph-name="fi" unicode="fi" horiz-adv-x="1077" 
d="M16 -461l236 1338h-178l16 98l182 26l19 103q35 202 127 291q107 104 336 104q96 0 217 -22l-23 -129q-102 12 -192 12q-149 0 -217 -68q-58 -55 -80 -188l-17 -100h572l-178 -1004h-168l155 877h-403l-236 -1338h-168z" />
    <glyph glyph-name="fl" unicode="fl" horiz-adv-x="1079" 
d="M16 -461l236 1338h-178l16 98l182 26l19 103q35 202 127 291q107 104 336 104q174 0 346 -31l-258 -1468h-168l237 1350q-88 10 -155 10q-149 0 -217 -68q-58 -55 -80 -188l-17 -100h260l-22 -127h-260l-236 -1338h-168z" />
    <glyph glyph-name=".notdef" horiz-adv-x="1314" 
d="M176 0v1352h963v-1352h-963zM657 762l326 491h-655zM274 184l326 494l-326 489v-983zM1044 184v983l-327 -489zM328 100h655l-326 490z" />
    <glyph glyph-name=".null" horiz-adv-x="0" 
 />
    <glyph glyph-name="nonmarkingreturn" horiz-adv-x="682" 
 />
    <glyph glyph-name="CR" unicode="&#xd;" horiz-adv-x="409" 
 />
    <glyph glyph-name="space" unicode=" " horiz-adv-x="409" 
 />
    <glyph glyph-name="exclam" unicode="!" horiz-adv-x="507" 
d="M162 375l151 1026h179l-207 -1026h-123zM150 -29q-84 0 -84 76q0 85 38 123q31 31 84 31h15q84 0 84 -76q0 -84 -39 -123q-31 -31 -84 -31h-14z" />
    <glyph glyph-name="quotedbl" unicode="&#x22;" horiz-adv-x="774" 
d="M193 971l55 430h164l-97 -430h-122zM502 971l55 430h164l-96 -430h-123z" />
    <glyph glyph-name="numbersign" unicode="#" horiz-adv-x="1107" 
d="M74 0l157 436h-139l21 121h161l105 285h-217l20 121h242l158 438h133l-160 -438h266l158 438h133l-160 -438h142l-21 -121h-164l-104 -285h221l-20 -121h-244l-158 -436h-133l158 436h-264l-158 -436h-133zM408 557h264l104 285h-264z" />
    <glyph glyph-name="dollar" unicode="$" horiz-adv-x="1107" 
d="M367 -279l43 250q-180 3 -349 60l39 143q170 -53 320 -53h16l94 532q-47 25 -77.5 42.5t-71.5 45t-67 55.5t-50.5 64.5t-36.5 81t-12 96.5q0 170 121 275q122 103 332 112l45 252h116l-45 -254q156 -10 289 -61l-45 -133q-126 40 -270 47l-88 -502q58 -30 94 -51.5
t83 -57.5t73.5 -70.5t45.5 -84.5t19 -107q0 -186 -131 -301q-115 -103 -326 -125l-45 -256h-116zM563 834l78 440q-117 -9 -182 -62q-72 -59 -72 -153q0 -70 45.5 -122t130.5 -103zM555 131q102 19 164 66q92 69 92 178q0 72 -45 124t-127 99z" />
    <glyph glyph-name="percent" unicode="%" horiz-adv-x="1851" 
d="M461 627q-129 0 -209 86t-80 231q0 93 27 179t76 154t125.5 109t168.5 41q129 0 209 -86t80 -231q0 -93 -27 -179t-76 -154t-125.5 -109t-168.5 -41zM426 -37l958 1456h160l-958 -1456h-160zM471 758q99 0 162 84q76 103 76 264q0 93 -41.5 141.5t-108.5 48.5
q-99 0 -162 -84q-75 -102 -75 -264q0 -93 41 -141.5t108 -48.5zM1339 -29q-129 0 -208.5 86.5t-79.5 231.5q0 93 27 179t76 154t125.5 109t168.5 41q129 0 209 -86t80 -231q0 -125 -45.5 -233.5t-138 -179.5t-214.5 -71zM1350 102q98 0 161 84q38 51 57 122.5t19 142.5
q0 93 -41 141.5t-108 48.5q-99 0 -162 -84q-76 -103 -76 -264q0 -93 41.5 -142t108.5 -49z" />
    <glyph glyph-name="ampersand" unicode="&#x26;" horiz-adv-x="1349" 
d="M1059 -68l-146 195q-199 -160 -454 -160q-170 0 -281.5 95t-111.5 262q0 143 93 253t287 203q-61 86 -85.5 154.5t-24.5 138.5q0 152 100 251t264 99q129 0 203 -67.5t74 -179.5q0 -242 -326 -414l301 -412q99 126 156 348h135q-59 -276 -211 -458l156 -215zM592 844
q122 70 183 151t61 162q0 67 -36.5 104t-109.5 37q-91 0 -148 -60t-57 -153q0 -48 22 -102.5t85 -138.5zM506 109q179 0 332 124l-332 457q-266 -136 -266 -336q0 -115 69.5 -180t196.5 -65z" />
    <glyph glyph-name="quotesingle" unicode="'" horiz-adv-x="464" 
d="M193 971l55 430h164l-97 -430h-122z" />
    <glyph glyph-name="parenleft" unicode="(" horiz-adv-x="667" 
d="M401 -465q-129 138 -199.5 328.5t-70.5 412.5q0 345 152 676.5t450 577.5l94 -82q-491 -506 -510 -1155q-9 -384 187 -688z" />
    <glyph glyph-name="parenright" unicode=")" horiz-adv-x="667" 
d="M-74 -465l-94 82q491 506 510 1155q9 386 -186 688l102 70q129 -138 199.5 -329t70.5 -413q0 -345 -152 -676t-450 -577z" />
    <glyph glyph-name="asterisk" unicode="*" horiz-adv-x="880" 
d="M279 643l-101 94l240 240l-275 88l68 135l252 -129l33 330h151l-78 -330l295 125l21 -139l-307 -88l159 -240l-125 -86l-120 264z" />
    <glyph glyph-name="plus" unicode="+" 
d="M442 330l50 280h-267l23 129h266l51 281h129l-49 -281h270l-22 -129h-270l-50 -280h-131z" />
    <glyph glyph-name="comma" unicode="," horiz-adv-x="454" 
d="M76 -289l45 256q-76 17 -76 88q0 35 11.5 67t27.5 48q31 31 84 31h10q88 0 88 -82q0 -30 -6 -60q-13 -72 -44 -173t-62 -175h-78z" />
    <glyph glyph-name="hyphen" unicode="-" horiz-adv-x="645" 
d="M119 459l26 145h406l-27 -145h-405z" />
    <glyph glyph-name="period" unicode="." horiz-adv-x="454" 
d="M133 -29q-84 0 -84 76q0 84 39 123q31 31 84 31h14q84 0 84 -76q0 -84 -39 -123q-31 -31 -84 -31h-14z" />
    <glyph glyph-name="slash" unicode="/" horiz-adv-x="847" 
d="M-53 -29l844 1456h165l-843 -1456h-166z" />
    <glyph glyph-name="zero" unicode="0" horiz-adv-x="1107" 
d="M463 -29q-183 0 -281 123.5t-98 358.5q0 146 30.5 298t99 301t165.5 242q139 133 323 133q183 0 281 -123t98 -358q0 -146 -30.5 -298t-99 -301.5t-165.5 -242.5q-139 -133 -323 -133zM471 117q145 0 250 143q92 127 140 326.5t48 361.5q0 165 -54.5 249.5t-160.5 84.5
q-145 0 -250 -143q-92 -127 -140 -326.5t-48 -361.5q0 -165 54.5 -249.5t160.5 -84.5z" />
    <glyph glyph-name="one" unicode="1" horiz-adv-x="1107" 
d="M168 0l22 131h238l203 1147h-234l21 115q154 22 287 22q57 0 78.5 -14t21.5 -49q0 -16 -8 -62l-205 -1159h209l-23 -131h-610z" />
    <glyph glyph-name="two" unicode="2" horiz-adv-x="1107" 
d="M47 0q-2 10 -2 23q0 50 21 88t92 110l385 393q170 173 234.5 277.5t64.5 202.5q0 92 -58 141q-65 53 -219 53q-121 0 -276 -31l22 132q143 38 303 38q212 0 318 -98q86 -83 86 -213q0 -138 -76 -258t-287 -328l-399 -395h616l-22 -135h-803z" />
    <glyph glyph-name="three" unicode="3" horiz-adv-x="1107" 
d="M354 -29q-164 0 -297 35l23 135q126 -28 264 -28q193 0 303 88q107 86 107 235q0 109 -74 162t-231 53h-35l20 127h33q162 0 265.5 81.5t103.5 217.5q0 94 -52 146q-65 65 -229 65q-115 0 -262 -24l24 131q142 32 283 32q214 0 315 -98q93 -90 93 -235q0 -124 -75.5 -224
t-197.5 -145q91 -35 143 -106.5t52 -174.5q0 -119 -47 -211.5t-128.5 -148.5t-183 -84.5t-217.5 -28.5z" />
    <glyph glyph-name="four" unicode="4" horiz-adv-x="1107" 
d="M616 0l62 342h-625q0 52 13 91.5t55 121.5l436 846h170l-481 -922h456l62 355h164l-62 -355h166l-24 -137h-166l-62 -342h-164z" />
    <glyph glyph-name="five" unicode="5" horiz-adv-x="1107" 
d="M352 -29q-140 0 -268 33l25 133q128 -22 233 -22q212 0 324 106q108 97 108 260q0 101 -55 150q-69 61 -281 61h-200q-2 12 -2 39q0 35 14 98l125 572h659l-24 -135h-516l-97 -437h80q269 0 381 -104q90 -87 90 -240q0 -210 -147 -354q-166 -160 -449 -160z" />
    <glyph glyph-name="six" unicode="6" horiz-adv-x="1107" 
d="M506 -29q-186 0 -289.5 126.5t-103.5 344.5q0 214 63 420q76 247 234 398q178 167 438 167q96 0 201 -24l-25 -129q-118 16 -184 16q-208 0 -342 -147q-119 -130 -176 -361q176 78 329 78q174 0 258 -84q90 -87 90 -254q0 -121 -40 -233.5t-125 -192.5
q-131 -125 -328 -125zM526 111q119 0 199 86q111 114 111 309q0 103 -54 160t-168 57q-144 0 -315 -61q-18 -105 -18 -224q0 -154 65 -243q65 -84 180 -84z" />
    <glyph glyph-name="seven" unicode="7" horiz-adv-x="1107" 
d="M260 0l672 1266h-664l25 135h825q2 -14 2 -25q0 -58 -43 -143l-624 -1233h-193z" />
    <glyph glyph-name="eight" unicode="8" horiz-adv-x="1107" 
d="M485 -31q-188 0 -299.5 96t-111.5 250q0 127 85.5 237.5t254.5 190.5q-158 118 -158 297q0 165 119.5 275t308.5 110q102 0 185 -35.5t136 -109t54 -174.5q0 -109 -78.5 -205t-232.5 -168q125 -76 185 -157t60 -181q0 -184 -143 -305t-365 -121zM631 799
q141 70 205.5 137.5t64.5 157.5t-62 141t-163 51q-114 0 -186 -62t-72 -161q0 -75 46.5 -134.5t166.5 -129.5zM496 111q138 0 231.5 73t93.5 189q0 30 -9 58.5t-21.5 50.5t-38 46t-45 40t-56.5 38t-59.5 34.5t-65.5 35.5q-144 -73 -213 -156t-69 -186t68 -163t184 -60z" />
    <glyph glyph-name="nine" unicode="9" horiz-adv-x="1107" 
d="M317 -29q-91 0 -200 25l24 129q118 -16 185 -16q208 0 342 147q119 130 176 360q-174 -77 -330 -77q-174 0 -258 84q-90 87 -90 254q0 121 40.5 233.5t125.5 192.5q130 124 327 124q186 0 290 -127t104 -344q0 -210 -64 -419q-77 -248 -233 -398q-179 -168 -439 -168z
M551 676q144 0 315 61q19 111 19 224q0 152 -66 243q-65 84 -180 84q-119 0 -199 -86q-110 -113 -110 -309q0 -104 53 -160q54 -57 168 -57z" />
    <glyph glyph-name="colon" unicode=":" horiz-adv-x="454" 
d="M244 608q-84 0 -84 76q0 84 39 123q31 31 84 31h14q84 0 84 -76q0 -84 -39 -123q-31 -31 -84 -31h-14zM133 -29q-84 0 -84 76q0 84 39 123q31 31 84 31h14q84 0 84 -76q0 -84 -39 -123q-31 -31 -84 -31h-14z" />
    <glyph glyph-name="semicolon" unicode=";" horiz-adv-x="450" 
d="M240 608q-84 0 -84 76q0 84 39 123q31 31 84 31h14q84 0 84 -76q0 -84 -39 -123q-31 -31 -84 -31h-14zM76 -289l45 256q-76 17 -76 88q0 35 11.5 67t27.5 48q31 31 84 31h10q88 0 88 -82q0 -30 -6 -60q-13 -72 -44 -173t-62 -175h-78z" />
    <glyph glyph-name="less" unicode="&#x3c;" 
d="M803 268l-608 338l24 139l727 340l-26 -153l-570 -262l479 -256z" />
    <glyph glyph-name="equal" unicode="=" 
d="M289 795l22 129h668l-23 -129h-667zM225 426l23 129h667l-22 -129h-668z" />
    <glyph glyph-name="greater" unicode="&#x3e;" 
d="M197 268l26 158l570 256l-480 262l27 141l606 -340l-24 -139z" />
    <glyph glyph-name="question" unicode="?" horiz-adv-x="839" 
d="M258 375q0 65 23.5 125.5t61 108.5t82.5 95t90 92t82.5 90.5t61 100.5t23.5 113q0 85 -51 133q-57 51 -185 51q-113 0 -241 -33l-10 129q50 20 129 33.5t155 13.5q197 0 291 -88q90 -83 90 -217q0 -68 -23 -130t-61.5 -112t-85 -97t-95.5 -93.5t-92 -92.5t-76.5 -103.5
t-45.5 -118.5h-123zM248 -29q-84 0 -84 76q0 84 39 123q31 31 84 31h14q84 0 84 -76q0 -84 -39 -123q-31 -31 -84 -31h-14z" />
    <glyph glyph-name="at" unicode="@" horiz-adv-x="1601" 
d="M770 -29q-299 0 -479 166.5t-180 458.5q0 140 38 267.5t110.5 229.5t171 177.5t225.5 116t268 40.5q147 0 267.5 -44.5t198.5 -121.5t120 -178.5t42 -218.5q0 -100 -27.5 -196t-77.5 -174.5t-128.5 -126.5t-173.5 -48q-131 0 -182 84q-117 -84 -232 -84
q-114 0 -176.5 78.5t-62.5 202.5q0 197 110.5 332t280.5 135q100 0 174 -55l22 37l95 -9l-93 -458q-8 -46 -8 -64q0 -42 23 -64t63 -22q66 0 116 44.5t76.5 114t39 138.5t12.5 133q0 201 -129.5 314.5t-358.5 113.5q-133 0 -251 -49t-206 -137t-139 -220.5t-51 -289.5
q0 -249 145 -369.5t400 -120.5q81 0 197 13.5t182 29.5l-14 -122q-185 -54 -408 -54zM770 438q77 0 168 56v24q0 41 20 144l56 274q-59 25 -117 25q-119 0 -190.5 -101t-71.5 -242q0 -92 33 -136t102 -44z" />
    <glyph glyph-name="A" unicode="A" horiz-adv-x="1183" 
d="M-57 0l675 1401h201l225 -1401h-178l-55 373h-514l-176 -373h-178zM365 516h426l-101 684h-2z" />
    <glyph glyph-name="B" unicode="B" horiz-adv-x="1185" 
d="M68 0l247 1401h336q250 0 350 -103q76 -79 76 -208q0 -117 -67.5 -212t-173.5 -139q100 -27 161.5 -100.5t61.5 -179.5q0 -119 -52.5 -218t-150.5 -157q-141 -84 -389 -84h-399zM389 795h164q170 0 256 77q88 79 88 211q0 84 -49 127q-55 47 -201 47h-176zM272 143h162
q219 0 320 70q116 80 116 240q0 104 -73 151q-74 47 -254 47h-181z" />
    <glyph glyph-name="C" unicode="C" horiz-adv-x="1112" 
d="M612 -29q-251 0 -378.5 140t-127.5 401q0 193 74 390t195 321q198 204 497 204q160 0 293 -57l-53 -133q-124 41 -242 41q-225 0 -372 -170q-94 -107 -148.5 -267t-54.5 -329q0 -196 91 -292.5t280 -96.5q113 0 260 31l-6 -142q-146 -41 -308 -41z" />
    <glyph glyph-name="D" unicode="D" horiz-adv-x="1284" 
d="M68 0l247 1401h310q169 0 290.5 -34t200.5 -120q119 -129 119 -377q0 -177 -67.5 -365t-202.5 -317q-195 -188 -514 -188h-383zM272 143h174q232 0 379 140q110 103 167 263.5t57 332.5q0 196 -91 284q-54 53 -143.5 73.5t-234.5 20.5h-109z" />
    <glyph glyph-name="E" unicode="E" horiz-adv-x="1054" 
d="M68 0l247 1401h785l-41 -144h-588l-84 -473h479l-26 -149h-480l-88 -492h623l-27 -143h-800z" />
    <glyph glyph-name="F" unicode="F" horiz-adv-x="999" 
d="M68 0l247 1401h766l-41 -144h-569l-84 -473h459l-27 -149h-459l-112 -635h-180z" />
    <glyph glyph-name="G" unicode="G" horiz-adv-x="1263" 
d="M645 -29q-256 0 -397 138q-68 65 -105 170.5t-37 238.5q0 202 72 390t205 321q198 198 502 198q192 0 332 -57l-48 -135q-133 43 -274 43q-237 0 -383 -158q-100 -107 -158.5 -267t-58.5 -333q0 -199 92.5 -299t271.5 -100q108 0 209 22l74 424h-217l25 142h391
l-119 -680q-183 -58 -377 -58z" />
    <glyph glyph-name="H" unicode="H" horiz-adv-x="1316" 
d="M68 0l247 1401h181l-109 -619h631l108 619h181l-248 -1401h-180l112 635h-631l-112 -635h-180z" />
    <glyph glyph-name="I" unicode="I" horiz-adv-x="514" 
d="M72 0l247 1401h181l-248 -1401h-180z" />
    <glyph glyph-name="J" unicode="J" horiz-adv-x="741" 
d="M143 -29q-93 0 -159 17l8 141q68 -10 143 -10q110 0 164 51q51 51 76 201l182 1030h180l-182 -1030q-24 -133 -51.5 -200.5t-73.5 -111.5q-91 -88 -287 -88z" />
    <glyph glyph-name="K" unicode="K" horiz-adv-x="1189" 
d="M68 0l247 1401h181l-129 -723l696 723h213l-576 -584l349 -817h-195l-281 690l-249 -256l-76 -434h-180z" />
    <glyph glyph-name="L" unicode="L" horiz-adv-x="987" 
d="M68 0l247 1401h181l-224 -1258h600l-26 -143h-778z" />
    <glyph glyph-name="M" unicode="M" horiz-adv-x="1589" 
d="M68 0l247 1401h138l325 -934l643 934h158l-248 -1401h-172l182 1030l-514 -737h-149l-262 741l-183 -1034h-165z" />
    <glyph glyph-name="N" unicode="N" horiz-adv-x="1361" 
d="M68 0l247 1401h136l542 -1100l195 1100h164l-248 -1401h-135l-543 1100l-195 -1100h-163z" />
    <glyph glyph-name="O" unicode="O" horiz-adv-x="1298" 
d="M569 -29q-223 0 -343 140t-120 385q0 204 71 411.5t196 341.5q167 178 413 178q223 0 343 -139.5t120 -384.5q0 -204 -70.5 -411.5t-195.5 -341.5q-168 -179 -414 -179zM578 127q194 0 319 186q76 114 120 279.5t44 318.5q0 76 -16 139.5t-48.5 114t-88.5 79t-130 28.5
q-193 0 -319 -187q-76 -114 -120 -279.5t-44 -318.5q0 -76 16 -139.5t48.5 -114t88 -78.5t130.5 -28z" />
    <glyph glyph-name="P" unicode="P" horiz-adv-x="1132" 
d="M68 0l247 1401h371q248 0 361 -101q98 -89 98 -247q0 -231 -141 -375q-74 -74 -185 -115t-244 -41h-235l-92 -522h-180zM365 666h182q211 0 315 110q99 107 99 266q0 104 -64 158q-65 57 -238 57h-188z" />
    <glyph glyph-name="Q" unicode="Q" horiz-adv-x="1298" 
d="M1087 -225l-284 145q-61 31 -102.5 41t-116.5 10h-15q-223 0 -343 140t-120 385q0 204 71 411.5t196 341.5q167 178 413 178q223 0 343 -139.5t120 -384.5q0 -204 -70.5 -411.5t-195.5 -341.5q-55 -61 -133 -107q89 -8 185 -40t153 -75q-12 -28 -46 -79t-55 -74zM578 127
q194 0 319 186q76 114 120 279.5t44 318.5q0 76 -16 139.5t-48.5 114t-88.5 79t-130 28.5q-193 0 -319 -187q-76 -114 -120 -279.5t-44 -318.5q0 -76 16 -139.5t48.5 -114t88 -78.5t130.5 -28z" />
    <glyph glyph-name="R" unicode="R" horiz-adv-x="1181" 
d="M68 -2l247 1401h379q253 0 367 -111q88 -88 88 -237q0 -101 -36 -195.5t-105 -161.5q-89 -86 -211 -125l198 -571h-188l-172 541q-33 -4 -105 -4h-188l-94 -537h-180zM369 680h196q193 0 295 102q50 50 77.5 118.5t27.5 143.5q0 92 -47 142q-35 37 -94 53t-156 16h-197z
" />
    <glyph glyph-name="S" unicode="S" horiz-adv-x="1062" 
d="M385 -29q-187 0 -362 60l38 143q170 -53 320 -53q195 0 299 76q92 69 92 178q0 60 -33 108t-85.5 82t-116 66t-127 68.5t-116 80t-85.5 109.5t-33 149q0 170 121 275q132 114 381 114q82 0 180 -17.5t176 -47.5l-45 -133q-69 22 -157.5 35.5t-159.5 13.5q-171 0 -252 -66
q-72 -59 -72 -153q0 -58 33 -105.5t85.5 -83t116.5 -69t128 -70.5t116.5 -80.5t85.5 -107t33 -140.5q0 -186 -131 -301q-146 -131 -430 -131z" />
    <glyph glyph-name="T" unicode="T" horiz-adv-x="1144" 
d="M381 0l221 1257h-436l27 144h1062l-41 -144h-432l-221 -1257h-180z" />
    <glyph glyph-name="U" unicode="U" horiz-adv-x="1310" 
d="M575 -29q-199 0 -320.5 99t-121.5 284q0 68 23 199l149 848h180l-149 -844q-21 -126 -21 -180q0 -126 73 -188t208 -62q173 0 274 106q83 83 119 289l156 879h164l-162 -914q-24 -134 -61 -215.5t-99 -146.5q-71 -74 -177.5 -114t-234.5 -40z" />
    <glyph glyph-name="V" unicode="V" horiz-adv-x="1179" 
d="M399 0l-219 1401h178l172 -1202h5l567 1202h184l-684 -1401h-203z" />
    <glyph glyph-name="W" unicode="W" horiz-adv-x="1775" 
d="M330 0l-150 1401h178l109 -1192h4l477 1192h178l91 -1184h4l493 1184h168l-602 -1401h-201l-84 1118h-4l-452 -1118h-209z" />
    <glyph glyph-name="X" unicode="X" 
d="M-45 0l522 698l-266 703h176l201 -570l393 570h190l-522 -711l264 -690h-176l-200 553l-387 -553h-195z" />
    <glyph glyph-name="Y" unicode="Y" horiz-adv-x="1155" 
d="M383 0l100 561l-309 840h184l240 -678l483 678h193l-612 -832l-101 -569h-178z" />
    <glyph glyph-name="Z" unicode="Z" horiz-adv-x="1095" 
d="M-8 0l16 104l905 1153h-690l23 144h911l-16 -111l-901 -1147h702l-24 -143h-926z" />
    <glyph glyph-name="bracketleft" unicode="[" horiz-adv-x="684" 
d="M70 -424l338 1913h399l-23 -133h-225l-291 -1647h224l-23 -133h-399z" />
    <glyph glyph-name="backslash" unicode="\" horiz-adv-x="847" 
d="M549 -29l-340 1456h147l340 -1456h-147z" />
    <glyph glyph-name="bracketright" unicode="]" horiz-adv-x="684" 
d="M-131 -424l22 133h226l291 1647h-224l23 133h399l-338 -1913h-399z" />
    <glyph glyph-name="asciicircum" unicode="^" 
d="M176 815l428 586h133l228 -586h-148l-164 457l-319 -457h-158z" />
    <glyph glyph-name="underscore" unicode="_" horiz-adv-x="862" 
d="M-61 -182l22 125h774l-22 -125h-774z" />
    <glyph glyph-name="grave" unicode="`" horiz-adv-x="823" 
d="M592 1145l-334 280l102 115l299 -319z" />
    <glyph glyph-name="a" unicode="a" 
d="M395 -29q-151 0 -234 112t-83 288q0 138 44.5 274t129.5 232q135 155 346 155q71 0 141.5 -26t122.5 -68l29 66h129l-137 -766q-15 -89 -15 -201v-37h-155l-8 72q-152 -101 -310 -101zM453 115q61 0 131 23.5t125 58.5l112 630q-106 64 -221 64q-129 0 -219 -100
q-62 -71 -96.5 -182t-34.5 -234q0 -260 203 -260z" />
    <glyph glyph-name="b" unicode="b" horiz-adv-x="1081" 
d="M481 -29q-71 0 -141.5 26.5t-122.5 68.5l-29 -66h-129l260 1464h168l-92 -520q143 88 289 88q151 0 234 -111.5t83 -287.5q0 -138 -44.5 -274t-129.5 -232q-136 -156 -346 -156zM479 115q129 0 219 100q62 71 96.5 181t34.5 233q0 260 -202 260q-61 0 -131 -23.5
t-125 -58.5l-113 -631q101 -61 221 -61z" />
    <glyph glyph-name="c" unicode="c" horiz-adv-x="872" 
d="M483 -29q-196 0 -302.5 104.5t-106.5 311.5q0 140 48 269.5t136 217.5q158 158 410 158q120 0 229 -41l-29 -129q-102 31 -198 31q-182 0 -279 -105q-70 -73 -106.5 -178.5t-36.5 -216.5q0 -116 45 -184q61 -96 239 -96q122 0 236 26l-6 -125q-140 -43 -279 -43z" />
    <glyph glyph-name="d" unicode="d" horiz-adv-x="1089" 
d="M395 -29q-151 0 -234 112t-83 288q0 138 44.5 274t129.5 232q135 155 346 155q65 0 131.5 -22.5t118.5 -59.5l90 514h168l-219 -1226q-15 -89 -15 -201v-37h-155l-8 72q-152 -101 -314 -101zM453 115q61 0 133.5 23.5t126.5 58.5l112 630q-102 62 -225 62
q-128 0 -219 -101q-62 -71 -96.5 -180.5t-34.5 -232.5q0 -260 203 -260z" />
    <glyph glyph-name="e" unicode="e" horiz-adv-x="1017" 
d="M518 -29q-230 0 -340 113q-104 107 -104 301q0 146 46.5 278.5t131.5 223.5q64 68 148.5 106.5t177.5 38.5q170 0 264 -104q92 -103 92 -289q0 -69 -12 -139q-6 -35 -17.5 -45.5t-42.5 -10.5h-612q-2 -20 -2 -57q0 -139 69 -205q72 -69 244 -69q121 0 256 30l-10 -133
q-156 -39 -289 -39zM264 569h500q6 41 6 76q0 118 -53 182q-54 64 -148 64q-110 0 -192 -88t-113 -234z" />
    <glyph glyph-name="f" unicode="f" horiz-adv-x="657" 
d="M16 -461l236 1340h-178l16 96l184 26l25 140q34 187 123 270q95 88 270 88q98 0 191 -22l-21 -131q-102 12 -170 12q-105 0 -153 -45q-50 -47 -72 -170l-25 -139h281l-23 -125h-280l-236 -1340h-168z" />
    <glyph glyph-name="g" unicode="g" horiz-adv-x="1081" 
d="M360 -489q-114 0 -210 26l8 133q106 -18 188 -18q157 0 225 74q66 69 91 213l20 118q-140 -86 -287 -86q-151 0 -234 112t-83 288q0 138 44.5 274t129.5 232q135 155 344 155q71 0 142.5 -26.5t123.5 -67.5l29 66h131l-195 -1082q-35 -194 -129 -295q-110 -116 -338 -116
zM453 115q61 0 131 23.5t125 58.5l112 630q-102 62 -221 62q-128 0 -219 -101q-62 -71 -96.5 -180.5t-34.5 -232.5q0 -260 203 -260z" />
    <glyph glyph-name="h" unicode="h" horiz-adv-x="1099" 
d="M59 0l258 1464h168l-94 -530q74 46 159 72t161 26q133 0 211.5 -70t78.5 -200q0 -50 -16 -141l-108 -621h-168l110 618q12 77 12 117q0 79 -44 113.5t-130 34.5q-133 0 -288 -74l-142 -809h-168z" />
    <glyph glyph-name="i" unicode="i" horiz-adv-x="473" 
d="M354 1194q-82 0 -82 66q0 81 37 118q29 29 84 29h13q81 0 81 -66q0 -82 -36 -118q-29 -29 -84 -29h-13zM63 0l179 1004h168l-179 -1004h-168z" />
    <glyph glyph-name="j" unicode="j" horiz-adv-x="473" 
d="M354 1194q-82 0 -82 66q0 81 37 118q29 29 84 29h13q81 0 81 -66q0 -82 -36 -118q-29 -29 -84 -29h-13zM-287 -483l6 133q95 4 150 22.5t92 53.5q33 31 55.5 86.5t40.5 154.5l185 1037h168l-181 -1014q-27 -154 -59.5 -230.5t-89.5 -132.5q-116 -110 -367 -110z" />
    <glyph glyph-name="k" unicode="k" horiz-adv-x="1007" 
d="M59 0l258 1464h168l-170 -958l529 498h200l-434 -400l273 -604h-176l-213 498l-213 -199l-54 -299h-168z" />
    <glyph glyph-name="l" unicode="l" horiz-adv-x="468" 
d="M61 0l258 1464h168l-258 -1464h-168z" />
    <glyph glyph-name="m" unicode="m" horiz-adv-x="1697" 
d="M59 0l179 1004h141l-6 -78q174 106 329 106q172 0 244 -119q193 119 367 119q131 0 208.5 -70.5t77.5 -199.5q0 -50 -16 -141l-108 -621h-168l110 618q13 83 13 117q0 148 -168 148q-128 0 -283 -70q4 -32 4 -51q0 -50 -16 -141l-109 -621h-168l111 618q12 77 12 117
q0 148 -164 148q-125 0 -280 -76l-142 -807h-168z" />
    <glyph glyph-name="n" unicode="n" horiz-adv-x="1101" 
d="M59 0l179 1004h141l-2 -80q76 51 166 79.5t170 28.5q133 0 212 -70t79 -200q0 -44 -17 -141l-108 -621h-168l110 618q13 83 13 117q0 78 -44.5 112t-130.5 34q-64 0 -142.5 -20t-145.5 -52l-144 -809h-168z" />
    <glyph glyph-name="o" unicode="o" horiz-adv-x="1073" 
d="M457 -29q-183 0 -283 111t-100 293q0 151 48.5 285t135.5 223q146 149 358 149q183 0 283 -110.5t100 -292.5q0 -151 -48.5 -285t-135.5 -223q-147 -150 -358 -150zM471 117q141 0 231 110q60 72 91.5 175t31.5 214q0 122 -56 196.5t-167 74.5q-141 0 -231 -111
q-60 -72 -91.5 -175t-31.5 -214q0 -122 56 -196t167 -74z" />
    <glyph glyph-name="p" unicode="p" horiz-adv-x="1081" 
d="M-20 -461l258 1465h143l4 -64q152 92 299 92q151 0 234 -111.5t83 -287.5q0 -138 -44.5 -274t-129.5 -232q-136 -156 -346 -156q-129 0 -243 78l-91 -510h-167zM479 115q129 0 219 100q62 71 96.5 181t34.5 233q0 258 -202 258q-61 0 -131.5 -22.5t-124.5 -57.5
l-113 -631q101 -61 221 -61z" />
    <glyph glyph-name="q" unicode="q" horiz-adv-x="1081" 
d="M594 -473l92 530q-140 -86 -291 -86t-234 112t-83 288q0 138 44.5 274t129.5 232q135 155 346 155q71 0 141.5 -26t122.5 -68l29 66h131l-258 -1453zM453 115q61 0 132 23.5t126 58.5l110 630q-102 62 -221 62q-128 0 -219 -101q-62 -71 -96.5 -180.5t-34.5 -232.5
q0 -260 203 -260z" />
    <glyph glyph-name="r" unicode="r" horiz-adv-x="681" 
d="M59 0l179 1004h139l-6 -86q155 114 299 114q30 0 65 -6l-26 -154q-57 5 -88 5q-129 0 -252 -72l-142 -805h-168z" />
    <glyph glyph-name="s" unicode="s" horiz-adv-x="856" 
d="M322 -29q-79 0 -165.5 16.5t-140.5 39.5l29 131q143 -47 279 -47q123 0 193.5 44.5t70.5 118.5q0 39 -19.5 68.5t-51.5 48t-73 36.5t-83.5 33t-83.5 38.5t-73 52t-51.5 75t-19.5 105.5q0 142 108.5 221.5t274.5 79.5q151 0 279 -41l-31 -127q-131 31 -244 31
q-109 0 -171 -39.5t-62 -114.5q0 -39 25 -68.5t65.5 -50t89 -39.5t97 -43t89 -54.5t65.5 -80.5t25 -114q0 -107 -58 -180.5t-151 -106.5t-212 -33z" />
    <glyph glyph-name="t" unicode="t" horiz-adv-x="712" 
d="M358 -29q-109 0 -167 59t-58 163q0 37 17 137l96 549h-178l16 96l184 26l41 230q95 31 174 31l-47 -258h277l-23 -125h-276l-99 -555q-14 -75 -14 -113q0 -52 28.5 -76t94.5 -24q76 0 188 22l-14 -125q-136 -37 -240 -37z" />
    <glyph glyph-name="u" unicode="u" horiz-adv-x="1103" 
d="M389 -29q-133 0 -212 70.5t-79 200.5q0 44 17 141l108 621h168l-110 -619q-13 -83 -13 -117q0 -79 44 -113t130 -34q137 0 285 74l143 809h168l-137 -766q-14 -83 -14 -201v-37h-156l-6 80q-76 -51 -166 -80t-170 -29z" />
    <glyph glyph-name="v" unicode="v" horiz-adv-x="935" 
d="M283 0l-177 1004h170l130 -830l407 830h178l-522 -1004h-186z" />
    <glyph glyph-name="w" unicode="w" horiz-adv-x="1431" 
d="M217 0l-111 1004h166l76 -826l359 826h170l92 -836l348 836h164l-445 -1004h-194l-90 768l-340 -768h-195z" />
    <glyph glyph-name="x" unicode="x" horiz-adv-x="954" 
d="M-35 0l422 502l-240 502h170l189 -392l295 392h186l-424 -510l238 -494h-172l-185 385l-292 -385h-187z" />
    <glyph glyph-name="y" unicode="y" horiz-adv-x="1097" 
d="M381 -489q-117 0 -213 26l8 133q106 -18 191 -18q157 0 225 74q64 67 90 213l23 127q-73 -44 -157.5 -69.5t-158.5 -25.5q-133 0 -212 70.5t-79 200.5q0 44 17 141l108 621h168l-110 -619q-13 -83 -13 -117q0 -79 44 -113t130 -34q63 0 141 20.5t144 53.5l143 809h168
l-190 -1082q-35 -194 -129 -295q-110 -116 -338 -116z" />
    <glyph glyph-name="z" unicode="z" horiz-adv-x="843" 
d="M-16 0l16 94l641 785h-498l21 125h704l-16 -101l-635 -778h508l-23 -125h-718z" />
    <glyph glyph-name="braceleft" unicode="{" horiz-adv-x="720" 
d="M457 -424q-149 0 -207 55q-43 40 -43 111q0 43 8 92l59 336q15 96 15 127q0 63 -27 98q-37 45 -151 68l24 139q121 21 174 68q33 28 54 78t38 141l60 338q24 138 80 194q37 38 96.5 53t155.5 15h49l-23 -133h-35q-85 0 -112 -27t-41 -112l-58 -324q-21 -119 -46 -178
t-70 -103q-53 -50 -129 -80q80 -38 110 -96q25 -48 25 -112q0 -46 -17 -150l-59 -336q-6 -38 -6 -61q0 -33 16 -49q22 -19 97 -19h34l-22 -133h-49z" />
    <glyph glyph-name="bar" unicode="|" horiz-adv-x="471" 
d="M-33 -518l365 2066h141l-364 -2066h-142z" />
    <glyph glyph-name="braceright" unicode="}" horiz-adv-x="720" 
d="M-129 -424l23 133h34q86 0 113 27t41 112l57 324q21 119 46.5 178t70.5 103q52 49 129 79q-81 38 -111 97q-24 47 -24 112q0 52 16 150l60 336q6 37 6 61q0 32 -17 49q-22 19 -96 19h-35l23 133h49q149 0 207 -55q43 -40 43 -111q0 -43 -8 -92l-60 -336q-14 -89 -14 -127
q0 -64 27 -98q37 -45 151 -68l-24 -139q-123 -21 -175 -68q-33 -28 -54 -78t-38 -141l-59 -338q-24 -138 -80 -194q-37 -38 -96.5 -53t-155.5 -15h-49z" />
    <glyph glyph-name="asciitilde" unicode="~" 
d="M276 635l-100 22q22 102 75.5 151.5t143.5 49.5q68 0 187.5 -41t177.5 -41q74 0 106 88l101 -22q-22 -102 -75.5 -151.5t-143.5 -49.5q-68 0 -187.5 41t-177.5 41q-75 0 -107 -88z" />
    <glyph glyph-name="uni00A0" unicode="&#xa0;" horiz-adv-x="409" 
 />
    <glyph glyph-name="exclamdown" unicode="&#xa1;" horiz-adv-x="507" 
d="M322 1032q84 0 84 -76q0 -83 -39 -122q-31 -31 -84 -31h-15q-84 0 -84 76q0 83 39 122q31 31 84 31h15zM309 629l-151 -1026h-178l206 1026h123z" />
    <glyph glyph-name="cent" unicode="&#xa2;" horiz-adv-x="1107" 
d="M440 -258l41 235q-153 22 -235 125t-82 285q0 140 48 269.5t136 217.5q129 129 320 152l41 236h116l-41 -232q104 -3 203 -39l-29 -127q-102 31 -198 31l-137 -784q121 0 235 26l-6 -123q-115 -36 -254 -43l-41 -229h-117zM508 123l133 760q-93 -22 -160 -92
q-70 -72 -106.5 -179t-36.5 -219q0 -116 45 -184q38 -62 125 -86z" />
    <glyph glyph-name="sterling" unicode="&#xa3;" horiz-adv-x="1107" 
d="M66 0q-5 20 -5 35q0 43 14.5 74t55.5 73q110 114 147 197.5t37 216.5q0 33 -2 74h-184l16 94l166 16q-4 46 -4 138q0 261 137 389q126 120 383 120q148 0 277 -34l-21 -129q-123 24 -252 24q-195 0 -272 -86q-45 -52 -64.5 -123.5t-19.5 -177.5q0 -86 2 -113h354
l-20 -118h-330q2 -35 2 -70q0 -145 -47.5 -246t-171.5 -219h701l-23 -135h-876z" />
    <glyph glyph-name="currency" unicode="&#xa4;" horiz-adv-x="1107" 
d="M143 248l-73 90l180 158q-31 67 -31 153q0 160 100 281l-120 153l96 82l119 -151q105 65 231 65q122 0 197 -63l178 158l74 -91l-183 -157q31 -67 31 -152q0 -169 -111 -293l121 -151l-96 -82l-123 153q-94 -57 -217 -57q-120 0 -194 59zM539 473q101 0 174 85.5
t73 215.5q0 81 -41 128.5t-122 47.5q-101 0 -174.5 -85.5t-73.5 -215.5q0 -81 41.5 -128.5t122.5 -47.5z" />
    <glyph glyph-name="yen" unicode="&#xa5;" horiz-adv-x="1105" 
d="M342 0l53 301h-268l20 117h269l18 96h-268l20 117h240l-240 770h166l199 -680l446 680h185l-525 -770h238l-21 -117h-272l-18 -96h272l-20 -117h-273l-53 -301h-168z" />
    <glyph glyph-name="brokenbar" unicode="&#xa6;" horiz-adv-x="471" 
d="M190 752l142 796h141l-141 -796h-142zM-33 -518l139 797h142l-139 -797h-142z" />
    <glyph glyph-name="section" unicode="&#xa7;" horiz-adv-x="1112" 
d="M457 -29q-166 0 -305 49l26 127q144 -43 295 -43q115 0 179.5 41t64.5 117q0 40 -28.5 68t-73.5 45t-100 32.5t-110 36t-100 49t-73.5 78.5t-28.5 117q0 176 178 258q-92 65 -92 189q0 142 106 217t271 75q150 0 278 -41l-31 -122q-135 30 -243 30q-230 0 -230 -145
q0 -43 28 -73.5t72.5 -48.5t98.5 -34t108 -37t98.5 -49t72.5 -78t28 -118q3 -166 -176 -254q98 -64 98 -185q0 -124 -84 -202q-105 -99 -327 -99zM641 514q72 22 112 71.5t40 106.5q0 26 -7.5 48t-25 38.5t-34.5 29t-47 24.5t-51 19t-57.5 18t-56.5 18q-77 -20 -117.5 -68.5
t-40.5 -111.5q0 -31 13 -56t29 -40.5t50.5 -31t56.5 -23t68.5 -21.5t67.5 -21z" />
    <glyph glyph-name="dieresis" unicode="&#xa8;" horiz-adv-x="823" 
d="M201 1245q-86 0 -86 68q0 86 39 125q28 28 86 28h8q86 0 86 -67q0 -86 -39 -125q-29 -29 -86 -29h-8zM580 1245q-86 0 -86 68q0 87 38 125q28 28 86 28h9q86 0 86 -67q0 -86 -39 -125q-29 -29 -86 -29h-8z" />
    <glyph glyph-name="copyright" unicode="&#xa9;" horiz-adv-x="1587" 
d="M733 -29q-287 0 -454.5 168.5t-167.5 440.5q0 178 56 333t157.5 269t253 179.5t333.5 65.5q287 0 455 -168.5t168 -439.5q0 -238 -95.5 -429.5t-279.5 -305t-426 -113.5zM756 92q193 0 339 93t223 256t77 372q0 229 -135.5 361.5t-370.5 132.5q-193 0 -339 -93t-223 -256
t-77 -372q0 -229 135.5 -361.5t370.5 -132.5zM784 342q-124 0 -190 71t-66 199q0 84 23.5 163.5t68 145.5t118 106t165.5 40q80 0 164 -31l-27 -90q-67 21 -131 21q-66 0 -117.5 -31t-81 -82t-44.5 -111.5t-15 -126.5q0 -174 168 -174q66 0 152 21l-4 -92q-92 -29 -183 -29z
" />
    <glyph glyph-name="ordfeminine" unicode="&#xaa;" horiz-adv-x="817" 
d="M383 711q-97 0 -149 51t-52 137q0 91 62 156q77 80 260 80h133l10 55q4 24 4 37q0 50 -31 70t-104 20q-91 0 -194 -21l12 107q118 24 217 24q119 0 175 -42t56 -130q0 -17 -8 -71l-80 -459h-102l-4 45q-101 -59 -205 -59zM430 825q79 0 158 33l30 174h-124
q-110 0 -150 -43q-29 -32 -29 -80q0 -84 115 -84z" />
    <glyph glyph-name="guillemotleft" unicode="&#xab;" horiz-adv-x="1050" 
d="M381 113l-211 307q-43 60 -43 100q0 31 16.5 59t65.5 74l317 308l76 -76l-307 -348l176 -359zM760 113l-211 307q-43 60 -43 100q0 31 16.5 59t65.5 74l317 308l76 -76l-307 -348l176 -359z" />
    <glyph glyph-name="logicalnot" unicode="&#xac;" 
d="M702 426l66 369h-543l23 129h665l-84 -498h-127z" />
    <glyph glyph-name="uni00AD" unicode="&#xad;" horiz-adv-x="645" 
d="M119 459l26 145h406l-27 -145h-405z" />
    <glyph glyph-name="registered" unicode="&#xae;" horiz-adv-x="1587" 
d="M733 -29q-287 0 -454.5 168.5t-167.5 440.5q0 178 56 333t157.5 269t253 179.5t333.5 65.5q287 0 455 -168.5t168 -439.5q0 -238 -95.5 -429.5t-279.5 -305t-426 -113.5zM756 92q193 0 339 93t223 256t77 372q0 229 -135.5 361.5t-370.5 132.5q-193 0 -339 -93t-223 -256
t-77 -372q0 -229 135.5 -361.5t370.5 -132.5zM543 358l125 701h200q126 0 183 -45q55 -46 55 -131q0 -77 -44.5 -146t-117.5 -90l90 -289h-121l-82 269h-124l-48 -269h-116zM723 721h102q73 0 116.5 38.5t43.5 114.5q0 46 -28.5 68.5t-92.5 22.5h-98z" />
    <glyph glyph-name="macron" unicode="&#xaf;" horiz-adv-x="823" 
d="M137 1251l25 138h524l-24 -138h-525z" />
    <glyph glyph-name="degree" unicode="&#xb0;" horiz-adv-x="948" 
d="M469 698q-133 0 -209 78.5t-76 218.5q0 84 32 169.5t91 146.5q113 116 291 116q133 0 209 -78.5t76 -218.5q0 -84 -32 -168.5t-91 -146.5q-114 -117 -291 -117zM492 825q90 0 153 66q41 44 64.5 108.5t23.5 130.5q0 170 -158 170q-91 0 -153 -65q-41 -44 -64.5 -108.5
t-23.5 -131.5q0 -170 158 -170z" />
    <glyph glyph-name="plusminus" unicode="&#xb1;" 
d="M453 334l49 276h-271l23 129h270l47 275h127l-49 -275h273l-23 -129h-272l-47 -276h-127zM123 0l22 129h668l-22 -129h-668z" />
    <glyph glyph-name="uni00B2" unicode="&#xb2;" horiz-adv-x="946" 
d="M217 610q-4 16 -4 33q0 35 16 62t70 79l195 187q104 100 139 152.5t35 99.5q0 88 -131 88q-94 0 -211 -23l18 109q111 30 225 30q116 0 183 -51.5t67 -146.5q0 -68 -39.5 -133.5t-152.5 -165.5l-228 -203h340l-20 -117h-502z" />
    <glyph glyph-name="uni00B3" unicode="&#xb3;" horiz-adv-x="946" 
d="M406 592q-109 0 -205 29l18 110q99 -22 187 -22q92 0 142 42t50 119q0 54 -34.5 77.5t-117.5 23.5h-40l18 104h43q88 0 134 38.5t46 103.5q0 50 -32.5 72t-108.5 22q-60 0 -174 -15l18 111q78 20 193 20q144 0 205 -61q49 -49 49 -137q0 -62 -37 -117t-109 -84
q50 -17 77.5 -56.5t27.5 -94.5q0 -74 -27.5 -130.5t-76.5 -89.5t-110.5 -49t-135.5 -16z" />
    <glyph glyph-name="acute" unicode="&#xb4;" horiz-adv-x="823" 
d="M227 1145l-57 90l410 319l79 -129z" />
    <glyph glyph-name="uni00B5" unicode="&#xb5;" horiz-adv-x="1116" 
d="M-18 -461l258 1465h166l-111 -619q-12 -77 -12 -117q0 -79 44.5 -114t129.5 -35q132 0 284 76l144 809h166l-136 -766q-14 -83 -14 -201v-37h-156l-6 80q-76 -51 -166 -80t-170 -29q-104 0 -172 41l-84 -473h-165z" />
    <glyph glyph-name="paragraph" unicode="&#xb6;" horiz-adv-x="1208" 
d="M328 -416l190 1084q-154 0 -239.5 73.5t-85.5 210.5q0 202 110 318q125 131 365 131h565l-25 -135h-141l-297 -1682h-147l297 1682h-148l-297 -1682h-147z" />
    <glyph glyph-name="periodcentered" unicode="&#xb7;" horiz-adv-x="454" 
d="M229 612q-84 0 -84 76q0 84 39 123q31 31 84 31h15q84 0 84 -76q0 -84 -39 -123q-31 -31 -84 -31h-15z" />
    <glyph glyph-name="cedilla" unicode="&#xb8;" horiz-adv-x="823" 
d="M342 -469q-72 0 -149 25l18 106q66 -16 131 -16q113 0 113 63q0 25 -31 43.5t-67.5 30t-67.5 38.5t-31 66q0 65 74 127h92q-31 -44 -31 -75q0 -19 20 -32.5t48.5 -25t57.5 -26.5t49 -45.5t20 -73.5q0 -86 -56 -142q-63 -63 -190 -63z" />
    <glyph glyph-name="uni00B9" unicode="&#xb9;" horiz-adv-x="946" 
d="M238 610l18 113h166l102 580h-157l18 106q113 10 217 10q43 0 61.5 -16t12.5 -53l-111 -627h148l-19 -113h-456z" />
    <glyph glyph-name="ordmasculine" unicode="&#xba;" horiz-adv-x="843" 
d="M451 711q-125 0 -194 72.5t-69 197.5q0 106 36 200.5t102 155.5q96 90 249 90q125 0 194 -72.5t69 -197.5q0 -106 -36 -200.5t-102 -155.5q-96 -90 -249 -90zM471 829q81 0 139 58q84 87 84 270q0 152 -139 152q-81 0 -139 -58q-84 -87 -84 -270q0 -152 139 -152z" />
    <glyph glyph-name="guillemotright" unicode="&#xbb;" horiz-adv-x="1050" 
d="M145 113l-75 75l307 349l-176 358l90 66l211 -308q43 -60 43 -100q0 -31 -16.5 -59t-65.5 -74zM524 113l-75 75l307 349l-176 358l90 66l211 -308q43 -60 43 -100q0 -31 -16.5 -59t-65.5 -74z" />
    <glyph glyph-name="onequarter" unicode="&#xbc;" horiz-adv-x="1925" 
d="M451 -29l958 1456h160l-959 -1456h-159zM266 610l19 113h166l102 580h-158l19 106q113 10 217 10q43 0 61.5 -16t12.5 -53l-111 -627h147l-18 -113h-457zM1413 0l35 195h-356q-5 20 -5 28q0 41 37 107l254 489h133l-258 -506h215l33 183h135l-32 -183h94l-21 -118h-94
l-35 -195h-135z" />
    <glyph glyph-name="onehalf" unicode="&#xbd;" horiz-adv-x="1925" 
d="M432 -29l959 1456h159l-958 -1456h-160zM246 610l18 113h166l102 580h-157l18 106q113 10 217 10q43 0 61.5 -16t12.5 -53l-111 -627h148l-19 -113h-456zM1130 4q-4 16 -4 33q0 35 16 62t70 79l195 187q104 100 139 152t35 99q0 89 -131 89q-94 0 -211 -23l18 109
q111 30 226 30q116 0 183 -51.5t67 -146.5q0 -68 -39.5 -133.5t-153.5 -165.5l-227 -203h340l-21 -117h-502z" />
    <glyph glyph-name="threequarters" unicode="&#xbe;" horiz-adv-x="1925" 
d="M438 592q-109 0 -205 29l19 110q99 -22 186 -22q92 0 142.5 42t50.5 119q0 54 -34.5 77.5t-117.5 23.5h-41l19 104h43q88 0 134 38.5t46 103.5q0 50 -32.5 72t-108.5 22q-60 0 -174 -15l18 111q78 20 192 20q144 0 205 -61q49 -49 49 -137q0 -62 -36.5 -117t-108.5 -84
q50 -17 77 -56.5t27 -94.5q0 -74 -27.5 -130.5t-76.5 -89.5t-110.5 -49t-135.5 -16zM451 -29l958 1456h160l-959 -1456h-159zM1413 0l35 195h-356q-5 20 -5 28q0 41 37 107l254 489h133l-258 -506h215l33 183h135l-32 -183h94l-21 -118h-94l-35 -195h-135z" />
    <glyph glyph-name="questiondown" unicode="&#xbf;" horiz-adv-x="839" 
d="M578 1032q84 0 84 -76q0 -83 -39 -122q-31 -31 -84 -31h-15q-84 0 -84 76q0 83 39 122q31 31 84 31h15zM567 629q0 -65 -23.5 -125.5t-61 -108.5t-82.5 -95t-90 -92t-82.5 -90.5t-61 -100.5t-23.5 -113q0 -84 52 -133q58 -52 184 -52q114 0 242 33l10 -129
q-50 -20 -129.5 -33.5t-155.5 -13.5q-197 0 -291 88q-90 83 -90 217q0 68 23 130.5t61.5 112t85 96.5t95.5 93.5t92 93t76.5 104t45.5 118.5h123z" />
    <glyph glyph-name="Agrave" unicode="&#xc0;" horiz-adv-x="1183" 
d="M918 1534l-334 281l102 114l299 -319zM-57 0l675 1401h201l225 -1401h-178l-55 373h-514l-176 -373h-178zM365 516h426l-101 684h-2z" />
    <glyph glyph-name="Aacute" unicode="&#xc1;" horiz-adv-x="1183" 
d="M600 1534l-57 90l409 320l80 -129zM-57 0l675 1401h201l225 -1401h-178l-55 373h-514l-176 -373h-178zM365 516h426l-101 684h-2z" />
    <glyph glyph-name="Acircumflex" unicode="&#xc2;" horiz-adv-x="1183" 
d="M1010 1536l-211 219l-287 -217l-59 59l292 301h142l184 -301zM-57 0l675 1401h201l225 -1401h-178l-55 373h-514l-176 -373h-178zM365 516h426l-101 684h-2z" />
    <glyph glyph-name="Atilde" unicode="&#xc3;" horiz-adv-x="1183" 
d="M535 1620l-91 16q18 107 72.5 160t132.5 53q56 0 143.5 -40t120.5 -40q69 0 95 82l90 -16q-18 -107 -72.5 -160t-132.5 -53q-56 0 -143.5 40t-120.5 40q-68 0 -94 -82zM-57 0l675 1401h201l225 -1401h-178l-55 373h-514l-176 -373h-178zM365 516h426l-101 684h-2z" />
    <glyph glyph-name="Adieresis" unicode="&#xc4;" horiz-adv-x="1183" 
d="M555 1622q-86 0 -86 68q0 86 39 125q28 28 86 28h8q86 0 86 -67q0 -86 -39 -125q-29 -29 -86 -29h-8zM934 1622q-86 0 -86 68q0 86 39 125q28 28 86 28h8q86 0 86 -67q0 -86 -39 -125q-29 -29 -86 -29h-8zM-57 0l675 1401h201l225 -1401h-178l-55 373h-514l-176 -373
h-178zM365 516h426l-101 684h-2z" />
    <glyph glyph-name="Aring" unicode="&#xc5;" horiz-adv-x="1183" 
d="M739 1546q-92 0 -144 48t-52 126q0 140 67.5 209.5t194.5 69.5h10q92 0 144.5 -48t52.5 -126q0 -140 -67.5 -209.5t-194.5 -69.5h-11zM754 1651h8q137 0 137 159q0 41 -26 62.5t-72 21.5h-8q-138 0 -138 -159q0 -41 26.5 -62.5t72.5 -21.5zM-57 0l675 1401h201l225 -1401
h-178l-55 373h-514l-176 -373h-178zM365 516h426l-101 684h-2z" />
    <glyph glyph-name="AE" unicode="&#xc6;" horiz-adv-x="1808" 
d="M-68 0l1049 1401h872l-41 -144h-587l-84 -473h479l-27 -149h-479l-88 -492h623l-27 -143h-801l66 373h-488l-274 -373h-193zM506 516h407l127 723h-2z" />
    <glyph glyph-name="Ccedilla" unicode="&#xc7;" horiz-adv-x="1112" 
d="M483 -469q-72 0 -149 25l18 106q66 -16 131 -16q113 0 113 63q0 25 -31 43.5t-67.5 30t-67.5 38.5t-31 66q0 52 47 105q-340 82 -340 520q0 193 74 390t195 321q198 204 497 204q160 0 293 -57l-53 -133q-124 41 -242 41q-225 0 -372 -170q-94 -107 -148.5 -267
t-54.5 -329q0 -196 91 -292.5t280 -96.5q113 0 260 31l-6 -142q-146 -41 -308 -41q-25 0 -71 4q-6 -21 -6 -36q0 -19 20 -32.5t48.5 -25t57 -26.5t48.5 -45.5t20 -73.5q0 -87 -55 -142q-63 -63 -191 -63z" />
    <glyph glyph-name="Egrave" unicode="&#xc8;" horiz-adv-x="1054" 
d="M903 1534l-334 281l103 114l299 -319zM68 0l247 1401h785l-41 -144h-588l-84 -473h479l-26 -149h-480l-88 -492h623l-27 -143h-800z" />
    <glyph glyph-name="Eacute" unicode="&#xc9;" horiz-adv-x="1054" 
d="M586 1534l-58 90l410 320l80 -129zM68 0l247 1401h785l-41 -144h-588l-84 -473h479l-26 -149h-480l-88 -492h623l-27 -143h-800z" />
    <glyph glyph-name="Ecircumflex" unicode="&#xca;" horiz-adv-x="1054" 
d="M995 1536l-211 219l-286 -217l-60 59l293 301h141l185 -301zM68 0l247 1401h785l-41 -144h-588l-84 -473h479l-26 -149h-480l-88 -492h623l-27 -143h-800z" />
    <glyph glyph-name="Edieresis" unicode="&#xcb;" horiz-adv-x="1054" 
d="M541 1622q-86 0 -86 68q0 86 39 125q28 28 86 28h8q86 0 86 -67q0 -86 -39 -125q-29 -29 -86 -29h-8zM920 1622q-86 0 -86 68q0 87 38 125q28 28 86 28h9q86 0 86 -67q0 -86 -39 -125q-29 -29 -86 -29h-8zM68 0l247 1401h785l-41 -144h-588l-84 -473h479l-26 -149h-480
l-88 -492h623l-27 -143h-800z" />
    <glyph glyph-name="Igrave" unicode="&#xcc;" horiz-adv-x="514" 
d="M606 1534l-334 281l103 114l299 -319zM72 0l247 1401h181l-248 -1401h-180z" />
    <glyph glyph-name="Iacute" unicode="&#xcd;" horiz-adv-x="514" 
d="M289 1534l-58 90l410 320l80 -129zM72 0l247 1401h181l-248 -1401h-180z" />
    <glyph glyph-name="Icircumflex" unicode="&#xce;" horiz-adv-x="514" 
d="M698 1536l-211 219l-286 -217l-60 59l293 301h141l185 -301zM72 0l247 1401h181l-248 -1401h-180z" />
    <glyph glyph-name="Idieresis" unicode="&#xcf;" horiz-adv-x="514" 
d="M244 1622q-86 0 -86 68q0 86 39 125q28 28 86 28h8q86 0 86 -67q0 -86 -39 -125q-29 -29 -86 -29h-8zM623 1622q-86 0 -86 68q0 87 38 125q28 28 87 28h8q86 0 86 -67q0 -86 -39 -125q-29 -29 -86 -29h-8zM72 0l247 1401h181l-248 -1401h-180z" />
    <glyph glyph-name="Eth" unicode="&#xd0;" horiz-adv-x="1316" 
d="M100 0l113 639h-184l24 139h185l110 623h309q169 0 291 -34t201 -120q119 -129 119 -377q0 -177 -68 -365t-203 -317q-195 -188 -514 -188h-383zM305 143h174q232 0 379 140q110 103 166.5 263t56.5 333q0 197 -90 284q-54 53 -144 73.5t-235 20.5h-108l-86 -479h282
l-24 -139h-283z" />
    <glyph glyph-name="Ntilde" unicode="&#xd1;" horiz-adv-x="1361" 
d="M647 1620l-90 16q18 107 72.5 160t132.5 53q56 0 143.5 -40t120.5 -40q68 0 94 82l90 -16q-18 -107 -72 -160t-132 -53q-56 0 -144 40t-121 40q-68 0 -94 -82zM68 0l247 1401h136l542 -1100l195 1100h164l-248 -1401h-135l-543 1100l-195 -1100h-163z" />
    <glyph glyph-name="Ograve" unicode="&#xd2;" horiz-adv-x="1298" 
d="M997 1534l-333 281l102 114l299 -319zM569 -29q-223 0 -343 140t-120 385q0 204 71 411.5t196 341.5q167 178 413 178q223 0 343 -139.5t120 -384.5q0 -204 -70.5 -411.5t-195.5 -341.5q-168 -179 -414 -179zM578 127q194 0 319 186q76 114 120 279.5t44 318.5
q0 76 -16 139.5t-48.5 114t-88.5 79t-130 28.5q-193 0 -319 -187q-76 -114 -120 -279.5t-44 -318.5q0 -76 16 -139.5t48.5 -114t88 -78.5t130.5 -28z" />
    <glyph glyph-name="Oacute" unicode="&#xd3;" horiz-adv-x="1298" 
d="M680 1534l-57 90l409 320l80 -129zM569 -29q-223 0 -343 140t-120 385q0 204 71 411.5t196 341.5q167 178 413 178q223 0 343 -139.5t120 -384.5q0 -204 -70.5 -411.5t-195.5 -341.5q-168 -179 -414 -179zM578 127q194 0 319 186q76 114 120 279.5t44 318.5
q0 76 -16 139.5t-48.5 114t-88.5 79t-130 28.5q-193 0 -319 -187q-76 -114 -120 -279.5t-44 -318.5q0 -76 16 -139.5t48.5 -114t88 -78.5t130.5 -28z" />
    <glyph glyph-name="Ocircumflex" unicode="&#xd4;" horiz-adv-x="1298" 
d="M1090 1536l-211 219l-287 -217l-60 59l293 301h142l184 -301zM569 -29q-223 0 -343 140t-120 385q0 204 71 411.5t196 341.5q167 178 413 178q223 0 343 -139.5t120 -384.5q0 -204 -70.5 -411.5t-195.5 -341.5q-168 -179 -414 -179zM578 127q194 0 319 186
q76 114 120 279.5t44 318.5q0 76 -16 139.5t-48.5 114t-88.5 79t-130 28.5q-193 0 -319 -187q-76 -114 -120 -279.5t-44 -318.5q0 -76 16 -139.5t48.5 -114t88 -78.5t130.5 -28z" />
    <glyph glyph-name="Otilde" unicode="&#xd5;" horiz-adv-x="1298" 
d="M614 1620l-90 16q18 107 72.5 160t132.5 53q56 0 143.5 -40t120.5 -40q68 0 94 82l91 -16q-18 -107 -72.5 -160t-132.5 -53q-56 0 -143.5 40t-120.5 40q-69 0 -95 -82zM569 -29q-223 0 -343 140t-120 385q0 204 71 411.5t196 341.5q167 178 413 178q223 0 343 -139.5
t120 -384.5q0 -204 -70.5 -411.5t-195.5 -341.5q-168 -179 -414 -179zM578 127q194 0 319 186q76 114 120 279.5t44 318.5q0 76 -16 139.5t-48.5 114t-88.5 79t-130 28.5q-193 0 -319 -187q-76 -114 -120 -279.5t-44 -318.5q0 -76 16 -139.5t48.5 -114t88 -78.5t130.5 -28z
" />
    <glyph glyph-name="Odieresis" unicode="&#xd6;" horiz-adv-x="1298" 
d="M635 1622q-86 0 -86 68q0 86 39 125q28 28 86 28h8q86 0 86 -67q0 -86 -39 -125q-29 -29 -86 -29h-8zM1014 1622q-86 0 -86 68q0 86 39 125q28 28 86 28h8q86 0 86 -67q0 -86 -39 -125q-29 -29 -86 -29h-8zM569 -29q-223 0 -343 140t-120 385q0 204 71 411.5t196 341.5
q167 178 413 178q223 0 343 -139.5t120 -384.5q0 -204 -70.5 -411.5t-195.5 -341.5q-168 -179 -414 -179zM578 127q194 0 319 186q76 114 120 279.5t44 318.5q0 76 -16 139.5t-48.5 114t-88.5 79t-130 28.5q-193 0 -319 -187q-76 -114 -120 -279.5t-44 -318.5
q0 -76 16 -139.5t48.5 -114t88 -78.5t130.5 -28z" />
    <glyph glyph-name="multiply" unicode="&#xd7;" 
d="M717 387l-160 197l-223 -195l-78 92l225 195l-155 192l102 88l156 -192l225 197l78 -93l-228 -196l160 -197z" />
    <glyph glyph-name="Oslash" unicode="&#xd8;" horiz-adv-x="1298" 
d="M143 -152l123 224q-160 138 -160 424q0 204 71 411.5t196 341.5q167 178 413 178q114 0 201 -38l88 161h139l-122 -225q157 -139 157 -422q0 -204 -70.5 -411.5t-195.5 -341.5q-168 -179 -414 -179q-108 0 -200 37l-86 -160h-140zM356 238l551 1005q-60 29 -129 29
q-193 0 -319 -187q-76 -114 -120 -279.5t-44 -318.5q0 -155 61 -249zM578 127q194 0 319 186q76 114 120 279.5t44 318.5t-62 248l-550 -1005q62 -27 129 -27z" />
    <glyph glyph-name="Ugrave" unicode="&#xd9;" horiz-adv-x="1310" 
d="M954 1534l-333 281l102 114l299 -319zM575 -29q-199 0 -320.5 99t-121.5 284q0 68 23 199l149 848h180l-149 -844q-21 -126 -21 -180q0 -126 73 -188t208 -62q173 0 274 106q83 83 119 289l156 879h164l-162 -914q-24 -134 -61 -215.5t-99 -146.5q-71 -74 -177.5 -114
t-234.5 -40z" />
    <glyph glyph-name="Uacute" unicode="&#xda;" horiz-adv-x="1310" 
d="M698 1534l-57 90l410 320l79 -129zM575 -29q-199 0 -320.5 99t-121.5 284q0 68 23 199l149 848h180l-149 -844q-21 -126 -21 -180q0 -126 73 -188t208 -62q173 0 274 106q83 83 119 289l156 879h164l-162 -914q-24 -134 -61 -215.5t-99 -146.5q-71 -74 -177.5 -114
t-234.5 -40z" />
    <glyph glyph-name="Ucircumflex" unicode="&#xdb;" horiz-adv-x="1310" 
d="M1087 1536l-210 219l-287 -217l-60 59l293 301h142l184 -301zM575 -29q-199 0 -320.5 99t-121.5 284q0 68 23 199l149 848h180l-149 -844q-21 -126 -21 -180q0 -126 73 -188t208 -62q173 0 274 106q83 83 119 289l156 879h164l-162 -914q-24 -134 -61 -215.5t-99 -146.5
q-71 -74 -177.5 -114t-234.5 -40z" />
    <glyph glyph-name="Udieresis" unicode="&#xdc;" horiz-adv-x="1310" 
d="M653 1622q-86 0 -86 68q0 86 39 125q28 28 86 28h8q86 0 86 -67q0 -87 -38 -125q-29 -29 -86 -29h-9zM1032 1622q-86 0 -86 68q0 86 39 125q28 28 86 28h8q86 0 86 -67q0 -86 -39 -125q-29 -29 -86 -29h-8zM575 -29q-199 0 -320.5 99t-121.5 284q0 68 23 199l149 848h180
l-149 -844q-21 -126 -21 -180q0 -126 73 -188t208 -62q173 0 274 106q83 83 119 289l156 879h164l-162 -914q-24 -134 -61 -215.5t-99 -146.5q-71 -74 -177.5 -114t-234.5 -40z" />
    <glyph glyph-name="Yacute" unicode="&#xdd;" horiz-adv-x="1155" 
d="M608 1534l-57 90l410 320l79 -129zM383 0l100 561l-309 840h184l240 -678l483 678h193l-612 -832l-101 -569h-178z" />
    <glyph glyph-name="Thorn" unicode="&#xde;" horiz-adv-x="1144" 
d="M68 0l247 1401h183l-47 -256h190q247 0 360 -101q99 -90 99 -247q0 -230 -142 -375q-74 -74 -184.5 -115t-243.5 -41h-235l-47 -266h-180zM319 410h183q211 0 315 110q98 106 98 266q0 105 -63 158q-65 57 -238 57h-188z" />
    <glyph glyph-name="germandbls" unicode="&#xdf;" horiz-adv-x="1269" 
d="M16 -461l236 1342h-178l16 94l184 26l5 23q43 236 166.5 355.5t336.5 119.5q161 0 259 -71.5t98 -198.5q0 -60 -21 -112t-55 -90t-74.5 -71.5t-81.5 -61t-75 -54t-55 -55.5t-21 -60q0 -37 30 -68t74.5 -52t97 -50t97 -59.5t74.5 -82t30 -116.5q0 -156 -120 -241t-304 -85
q-170 0 -307 45l33 129q133 -34 268 -34q119 0 191.5 43.5t72.5 128.5q0 38 -22 68t-57 51t-77.5 41t-84.5 43.5t-77 52t-57 72t-22 98.5q0 47 21 88.5t54 73t73 62t80.5 61t73.5 63t54 75t21 91.5q0 64 -48.5 101.5t-138.5 37.5q-146 0 -227 -84q-84 -87 -123 -305
l-252 -1434h-168z" />
    <glyph glyph-name="agrave" unicode="&#xe0;" 
d="M784 1145l-333 280l102 115l299 -319zM395 -29q-151 0 -234 112t-83 288q0 138 44.5 274t129.5 232q135 155 346 155q71 0 141.5 -26t122.5 -68l29 66h129l-137 -766q-15 -89 -15 -201v-37h-155l-8 72q-152 -101 -310 -101zM453 115q61 0 131 23.5t125 58.5l112 630
q-106 64 -221 64q-129 0 -219 -100q-62 -71 -96.5 -182t-34.5 -234q0 -260 203 -260z" />
    <glyph glyph-name="aacute" unicode="&#xe1;" 
d="M530 1145l-57 90l410 319l80 -129zM395 -29q-151 0 -234 112t-83 288q0 138 44.5 274t129.5 232q135 155 346 155q71 0 141.5 -26t122.5 -68l29 66h129l-137 -766q-15 -89 -15 -201v-37h-155l-8 72q-152 -101 -310 -101zM453 115q61 0 131 23.5t125 58.5l112 630
q-106 64 -221 64q-129 0 -219 -100q-62 -71 -96.5 -182t-34.5 -234q0 -260 203 -260z" />
    <glyph glyph-name="acircumflex" unicode="&#xe2;" 
d="M930 1147l-211 219l-287 -217l-59 59l293 301h141l184 -301zM395 -29q-151 0 -234 112t-83 288q0 138 44.5 274t129.5 232q135 155 346 155q71 0 141.5 -26t122.5 -68l29 66h129l-137 -766q-15 -89 -15 -201v-37h-155l-8 72q-152 -101 -310 -101zM453 115q61 0 131 23.5
t125 58.5l112 630q-106 64 -221 64q-129 0 -219 -100q-62 -71 -96.5 -182t-34.5 -234q0 -260 203 -260z" />
    <glyph glyph-name="atilde" unicode="&#xe3;" 
d="M420 1231l-90 16q18 107 72.5 160t132.5 53q56 0 143.5 -40t120.5 -40q68 0 94 82l90 -16q-18 -107 -72.5 -160t-132.5 -53q-56 0 -143.5 40t-120.5 40q-68 0 -94 -82zM395 -29q-151 0 -234 112t-83 288q0 138 44.5 274t129.5 232q135 155 346 155q71 0 141.5 -26
t122.5 -68l29 66h129l-137 -766q-15 -89 -15 -201v-37h-155l-8 72q-152 -101 -310 -101zM453 115q61 0 131 23.5t125 58.5l112 630q-106 64 -221 64q-129 0 -219 -100q-62 -71 -96.5 -182t-34.5 -234q0 -260 203 -260z" />
    <glyph glyph-name="adieresis" unicode="&#xe4;" 
d="M506 1245q-86 0 -86 68q0 86 39 125q28 28 86 28h8q86 0 86 -67q0 -86 -39 -125q-29 -29 -86 -29h-8zM885 1245q-86 0 -86 68q0 86 39 125q28 28 86 28h8q86 0 86 -67q0 -86 -39 -125q-29 -29 -86 -29h-8zM395 -29q-151 0 -234 112t-83 288q0 138 44.5 274t129.5 232
q135 155 346 155q71 0 141.5 -26t122.5 -68l29 66h129l-137 -766q-15 -89 -15 -201v-37h-155l-8 72q-152 -101 -310 -101zM453 115q61 0 131 23.5t125 58.5l112 630q-106 64 -221 64q-129 0 -219 -100q-62 -71 -96.5 -182t-34.5 -234q0 -260 203 -260z" />
    <glyph glyph-name="aring" unicode="&#xe5;" 
d="M645 1157q-92 0 -144 48t-52 126q0 140 67.5 209.5t194.5 69.5h10q92 0 144.5 -48t52.5 -126q0 -140 -68 -209.5t-195 -69.5h-10zM659 1262h9q137 0 137 159q0 41 -26 62.5t-72 21.5h-9q-137 0 -137 -159q0 -41 26 -62.5t72 -21.5zM395 -29q-151 0 -234 112t-83 288
q0 138 44.5 274t129.5 232q135 155 346 155q71 0 141.5 -26t122.5 -68l29 66h129l-137 -766q-15 -89 -15 -201v-37h-155l-8 72q-152 -101 -310 -101zM453 115q61 0 131 23.5t125 58.5l112 630q-106 64 -221 64q-129 0 -219 -100q-62 -71 -96.5 -182t-34.5 -234
q0 -260 203 -260z" />
    <glyph glyph-name="ae" unicode="&#xe6;" horiz-adv-x="1632" 
d="M401 -29q-158 0 -249 80.5t-91 218.5q0 120 70 193q103 106 363 106h221q24 85 24 144q0 96 -53 139t-178 43q-91 0 -272 -29l18 131q146 35 305 35q122 0 199.5 -32t118.5 -101q136 133 315 133q170 0 264 -104q94 -105 94 -289q0 -69 -12 -139q-6 -35 -17 -45.5
t-42 -10.5h-611q-2 -20 -2 -57q0 -138 70 -205q72 -69 244 -69q119 0 254 30l-11 -133q-156 -39 -288 -39q-244 0 -355 129q-185 -129 -379 -129zM883 569h495q6 41 6 74q0 120 -53 184q-54 64 -147 64q-111 0 -193 -88q-75 -81 -108 -234zM428 109q75 0 156.5 26.5
t136.5 65.5q-31 79 -31 184q0 45 2 59h-198q-153 0 -211 -47q-52 -43 -52 -123q0 -79 50.5 -122t146.5 -43z" />
    <glyph glyph-name="ccedilla" unicode="&#xe7;" horiz-adv-x="872" 
d="M403 -469q-72 0 -149 25l18 106q66 -16 131 -16q113 0 113 63q0 25 -31 43.5t-67.5 30t-67.5 38.5t-31 66q0 50 41 97q-139 30 -213.5 130.5t-74.5 272.5q0 140 48 269.5t136 217.5q158 158 412 158q120 0 229 -41l-29 -129q-102 31 -198 31q-182 0 -279 -105
q-70 -73 -106.5 -178.5t-36.5 -216.5q0 -116 45 -184q61 -96 239 -96q122 0 236 26l-6 -125q-140 -43 -279 -43h-22q-6 -18 -6 -32q0 -19 20 -32.5t48.5 -25t57 -26.5t48.5 -45.5t20 -73.5q0 -87 -55 -142q-63 -63 -191 -63z" />
    <glyph glyph-name="egrave" unicode="&#xe8;" horiz-adv-x="1017" 
d="M750 1145l-334 280l102 115l299 -319zM518 -29q-230 0 -340 113q-104 107 -104 301q0 146 46.5 278.5t131.5 223.5q64 68 148.5 106.5t177.5 38.5q170 0 264 -104q92 -103 92 -289q0 -69 -12 -139q-6 -35 -17.5 -45.5t-42.5 -10.5h-612q-2 -20 -2 -57q0 -139 69 -205
q72 -69 244 -69q121 0 256 30l-10 -133q-156 -39 -289 -39zM264 569h500q6 41 6 76q0 118 -53 182q-54 64 -148 64q-110 0 -192 -88t-113 -234z" />
    <glyph glyph-name="eacute" unicode="&#xe9;" horiz-adv-x="1017" 
d="M471 1145l-57 90l409 319l80 -129zM518 -29q-230 0 -340 113q-104 107 -104 301q0 146 46.5 278.5t131.5 223.5q64 68 148.5 106.5t177.5 38.5q170 0 264 -104q92 -103 92 -289q0 -69 -12 -139q-6 -35 -17.5 -45.5t-42.5 -10.5h-612q-2 -20 -2 -57q0 -139 69 -205
q72 -69 244 -69q121 0 256 30l-10 -133q-156 -39 -289 -39zM264 569h500q6 41 6 76q0 118 -53 182q-54 64 -148 64q-110 0 -192 -88t-113 -234z" />
    <glyph glyph-name="ecircumflex" unicode="&#xea;" horiz-adv-x="1017" 
d="M862 1147l-211 219l-286 -217l-60 59l293 301h141l185 -301zM518 -29q-230 0 -340 113q-104 107 -104 301q0 146 46.5 278.5t131.5 223.5q64 68 148.5 106.5t177.5 38.5q170 0 264 -104q92 -103 92 -289q0 -69 -12 -139q-6 -35 -17.5 -45.5t-42.5 -10.5h-612
q-2 -20 -2 -57q0 -139 69 -205q72 -69 244 -69q121 0 256 30l-10 -133q-156 -39 -289 -39zM264 569h500q6 41 6 76q0 118 -53 182q-54 64 -148 64q-110 0 -192 -88t-113 -234z" />
    <glyph glyph-name="edieresis" unicode="&#xeb;" horiz-adv-x="1017" 
d="M426 1245q-86 0 -86 68q0 86 39 125q28 28 86 28h8q86 0 86 -67q0 -86 -39 -125q-29 -29 -86 -29h-8zM805 1245q-86 0 -86 68q0 86 39 125q28 28 86 28h8q86 0 86 -67q0 -86 -39 -125q-29 -29 -86 -29h-8zM518 -29q-230 0 -340 113q-104 107 -104 301q0 146 46.5 278.5
t131.5 223.5q64 68 148.5 106.5t177.5 38.5q170 0 264 -104q92 -103 92 -289q0 -69 -12 -139q-6 -35 -17.5 -45.5t-42.5 -10.5h-612q-2 -20 -2 -57q0 -139 69 -205q72 -69 244 -69q121 0 256 30l-10 -133q-156 -39 -289 -39zM264 569h500q6 41 6 76q0 118 -53 182
q-54 64 -148 64q-110 0 -192 -88t-113 -234z" />
    <glyph glyph-name="igrave" unicode="&#xec;" horiz-adv-x="471" 
d="M516 1145l-334 280l103 115l299 -319zM63 0l179 1004h166l-179 -1004h-166z" />
    <glyph glyph-name="iacute" unicode="&#xed;" horiz-adv-x="471" 
d="M197 1145l-58 90l410 319l80 -129zM63 0l179 1004h166l-179 -1004h-166z" />
    <glyph glyph-name="icircumflex" unicode="&#xee;" horiz-adv-x="471" 
d="M596 1147l-211 219l-287 -217l-59 59l293 301h141l184 -301zM63 0l179 1004h166l-179 -1004h-166z" />
    <glyph glyph-name="idieresis" unicode="&#xef;" horiz-adv-x="471" 
d="M172 1245q-86 0 -86 68q0 86 39 125q28 28 86 28h8q86 0 86 -67q0 -86 -39 -125q-29 -29 -86 -29h-8zM551 1245q-86 0 -86 68q0 86 39 125q28 28 86 28h8q86 0 86 -67q0 -86 -39 -125q-29 -29 -86 -29h-8zM63 0l179 1004h166l-179 -1004h-166z" />
    <glyph glyph-name="eth" unicode="&#xf0;" horiz-adv-x="1087" 
d="M481 -29q-193 0 -294 112t-101 296q0 269 143 432q130 145 336 145q70 0 143.5 -22t127.5 -57q-15 184 -129 376l-164 -118l-68 92l168 123q-62 83 -139 157l92 82q89 -77 160 -157l188 137l68 -92l-185 -136q181 -256 181 -565q0 -125 -20.5 -241.5t-63 -219
t-103.5 -179t-148.5 -121t-191.5 -44.5zM481 111q102 0 178.5 74.5t118.5 205.5q58 166 58 359q-47 31 -115 51t-133 20q-163 0 -244 -121q-88 -127 -88 -313q0 -129 58 -202.5t167 -73.5z" />
    <glyph glyph-name="ntilde" unicode="&#xf1;" horiz-adv-x="1101" 
d="M524 1231l-90 16q18 107 72.5 160t132.5 53q56 0 143.5 -40t120.5 -40q68 0 94 82l90 -16q-18 -107 -72 -160t-132 -53q-56 0 -144 40t-121 40q-68 0 -94 -82zM59 0l179 1004h141l-2 -80q76 51 166 79.5t170 28.5q133 0 212 -70t79 -200q0 -44 -17 -141l-108 -621h-168
l110 618q13 83 13 117q0 78 -44.5 112t-130.5 34q-64 0 -142.5 -20t-145.5 -52l-144 -809h-168z" />
    <glyph glyph-name="ograve" unicode="&#xf2;" horiz-adv-x="1073" 
d="M829 1145l-333 280l102 115l299 -319zM457 -29q-183 0 -283 111t-100 293q0 151 48.5 285t135.5 223q146 149 358 149q183 0 283 -110.5t100 -292.5q0 -151 -48.5 -285t-135.5 -223q-147 -150 -358 -150zM471 117q141 0 231 110q60 72 91.5 175t31.5 214q0 122 -56 196.5
t-167 74.5q-141 0 -231 -111q-60 -72 -91.5 -175t-31.5 -214q0 -122 56 -196t167 -74z" />
    <glyph glyph-name="oacute" unicode="&#xf3;" horiz-adv-x="1073" 
d="M510 1145l-57 90l409 319l80 -129zM457 -29q-183 0 -283 111t-100 293q0 151 48.5 285t135.5 223q146 149 358 149q183 0 283 -110.5t100 -292.5q0 -151 -48.5 -285t-135.5 -223q-147 -150 -358 -150zM471 117q141 0 231 110q60 72 91.5 175t31.5 214q0 122 -56 196.5
t-167 74.5q-141 0 -231 -111q-60 -72 -91.5 -175t-31.5 -214q0 -122 56 -196t167 -74z" />
    <glyph glyph-name="ocircumflex" unicode="&#xf4;" horiz-adv-x="1073" 
d="M909 1147l-211 219l-286 -217l-60 59l293 301h141l185 -301zM457 -29q-183 0 -283 111t-100 293q0 151 48.5 285t135.5 223q146 149 358 149q183 0 283 -110.5t100 -292.5q0 -151 -48.5 -285t-135.5 -223q-147 -150 -358 -150zM471 117q141 0 231 110q60 72 91.5 175
t31.5 214q0 122 -56 196.5t-167 74.5q-141 0 -231 -111q-60 -72 -91.5 -175t-31.5 -214q0 -122 56 -196t167 -74z" />
    <glyph glyph-name="otilde" unicode="&#xf5;" horiz-adv-x="1073" 
d="M461 1231l-90 16q18 107 72 160t132 53q56 0 144 -40t121 -40q68 0 94 82l90 -16q-18 -107 -72.5 -160t-132.5 -53q-56 0 -143.5 40t-120.5 40q-68 0 -94 -82zM457 -29q-183 0 -283 111t-100 293q0 151 48.5 285t135.5 223q146 149 358 149q183 0 283 -110.5t100 -292.5
q0 -151 -48.5 -285t-135.5 -223q-147 -150 -358 -150zM471 117q141 0 231 110q60 72 91.5 175t31.5 214q0 122 -56 196.5t-167 74.5q-141 0 -231 -111q-60 -72 -91.5 -175t-31.5 -214q0 -122 56 -196t167 -74z" />
    <glyph glyph-name="odieresis" unicode="&#xf6;" horiz-adv-x="1073" 
d="M485 1245q-86 0 -86 68q0 86 39 125q28 28 86 28h8q86 0 86 -67q0 -87 -38 -125q-29 -29 -86 -29h-9zM864 1245q-86 0 -86 68q0 86 39 125q28 28 86 28h8q86 0 86 -67q0 -86 -39 -125q-29 -29 -86 -29h-8zM457 -29q-183 0 -283 111t-100 293q0 151 48.5 285t135.5 223
q146 149 358 149q183 0 283 -110.5t100 -292.5q0 -151 -48.5 -285t-135.5 -223q-147 -150 -358 -150zM471 117q141 0 231 110q60 72 91.5 175t31.5 214q0 122 -56 196.5t-167 74.5q-141 0 -231 -111q-60 -72 -91.5 -175t-31.5 -214q0 -122 56 -196t167 -74z" />
    <glyph glyph-name="divide" unicode="&#xf7;" 
d="M608 883q-82 0 -82 65q0 82 37 119q29 29 84 29h8q82 0 82 -66q0 -82 -37 -119q-28 -28 -84 -28h-8zM225 610l23 129h667l-22 -129h-668zM500 254q-82 0 -82 65q0 82 37 119q29 29 84 29h8q82 0 82 -66q0 -81 -37 -118q-29 -29 -84 -29h-8z" />
    <glyph glyph-name="oslash" unicode="&#xf8;" horiz-adv-x="1073" 
d="M125 -158l102 193q-155 106 -155 340q0 151 48.5 285t135.5 223q146 149 360 149q76 0 134 -18l79 147h129l-106 -198q73 -52 111 -138t38 -196q0 -151 -48.5 -285t-135.5 -223q-147 -150 -360 -150q-62 0 -125 17l-78 -146h-129zM309 184l367 690q-37 13 -74 13
q-141 0 -231 -111q-60 -72 -91.5 -175t-31.5 -214q0 -133 61 -203zM471 117q141 0 231 110q60 72 91.5 175t31.5 214q0 123 -55 193l-367 -684q27 -8 68 -8z" />
    <glyph glyph-name="ugrave" unicode="&#xf9;" horiz-adv-x="1103" 
d="M772 1145l-334 280l103 115l299 -319zM389 -29q-133 0 -212 70.5t-79 200.5q0 44 17 141l108 621h168l-110 -619q-13 -83 -13 -117q0 -79 44 -113t130 -34q137 0 285 74l143 809h168l-137 -766q-14 -83 -14 -201v-37h-156l-6 80q-76 -51 -166 -80t-170 -29z" />
    <glyph glyph-name="uacute" unicode="&#xfa;" horiz-adv-x="1103" 
d="M514 1145l-57 90l409 319l80 -129zM389 -29q-133 0 -212 70.5t-79 200.5q0 44 17 141l108 621h168l-110 -619q-13 -83 -13 -117q0 -79 44 -113t130 -34q137 0 285 74l143 809h168l-137 -766q-14 -83 -14 -201v-37h-156l-6 80q-76 -51 -166 -80t-170 -29z" />
    <glyph glyph-name="ucircumflex" unicode="&#xfb;" horiz-adv-x="1103" 
d="M913 1147l-211 219l-286 -217l-60 59l293 301h142l184 -301zM389 -29q-133 0 -212 70.5t-79 200.5q0 44 17 141l108 621h168l-110 -619q-13 -83 -13 -117q0 -79 44 -113t130 -34q137 0 285 74l143 809h168l-137 -766q-14 -83 -14 -201v-37h-156l-6 80q-76 -51 -166 -80
t-170 -29z" />
    <glyph glyph-name="udieresis" unicode="&#xfc;" horiz-adv-x="1103" 
d="M489 1245q-86 0 -86 68q0 86 39 125q28 28 86 28h9q86 0 86 -67q0 -86 -39 -125q-29 -29 -86 -29h-9zM868 1245q-86 0 -86 68q0 86 39 125q28 28 86 28h8q86 0 86 -67q0 -87 -38 -125q-29 -29 -86 -29h-9zM389 -29q-133 0 -212 70.5t-79 200.5q0 44 17 141l108 621h168
l-110 -619q-13 -83 -13 -117q0 -79 44 -113t130 -34q137 0 285 74l143 809h168l-137 -766q-14 -83 -14 -201v-37h-156l-6 80q-76 -51 -166 -80t-170 -29z" />
    <glyph glyph-name="yacute" unicode="&#xfd;" horiz-adv-x="1097" 
d="M510 1145l-57 90l409 319l80 -129zM381 -489q-117 0 -213 26l8 133q106 -18 191 -18q157 0 225 74q64 67 90 213l23 127q-73 -44 -157.5 -69.5t-158.5 -25.5q-133 0 -212 70.5t-79 200.5q0 44 17 141l108 621h168l-110 -619q-13 -83 -13 -117q0 -79 44 -113t130 -34
q63 0 141 20.5t144 53.5l143 809h168l-190 -1082q-35 -194 -129 -295q-110 -116 -338 -116z" />
    <glyph glyph-name="thorn" unicode="&#xfe;" horiz-adv-x="1081" 
d="M-20 -461l339 1925h168l-90 -518q144 86 289 86q102 0 175 -53.5t108 -142.5t35 -203q0 -138 -44.5 -274t-130.5 -232q-136 -156 -346 -156q-131 0 -245 78l-91 -510h-167zM479 115q129 0 219 100q62 71 96.5 181t34.5 233q0 258 -202 258q-61 0 -131.5 -22.5
t-124.5 -57.5l-111 -631q101 -61 219 -61z" />
    <glyph glyph-name="ydieresis" unicode="&#xff;" horiz-adv-x="1097" 
d="M485 1245q-86 0 -86 68q0 86 39 125q28 28 86 28h8q86 0 86 -67q0 -87 -38 -125q-29 -29 -86 -29h-9zM864 1245q-86 0 -86 68q0 86 39 125q28 28 86 28h8q86 0 86 -67q0 -86 -39 -125q-29 -29 -86 -29h-8zM381 -489q-117 0 -213 26l8 133q106 -18 191 -18q157 0 225 74
q64 67 90 213l23 127q-73 -44 -157.5 -69.5t-158.5 -25.5q-133 0 -212 70.5t-79 200.5q0 44 17 141l108 621h168l-110 -619q-13 -83 -13 -117q0 -79 44 -113t130 -34q63 0 141 20.5t144 53.5l143 809h168l-190 -1082q-35 -194 -129 -295q-110 -116 -338 -116z" />
    <glyph glyph-name="Amacron" unicode="&#x100;" horiz-adv-x="1183" 
d="M494 1640l24 138h524l-24 -138h-524zM-57 0l675 1401h201l225 -1401h-178l-55 373h-514l-176 -373h-178zM365 516h426l-101 684h-2z" />
    <glyph glyph-name="amacron" unicode="&#x101;" 
d="M418 1251l24 138h525l-25 -138h-524zM395 -29q-151 0 -234 112t-83 288q0 138 44.5 274t129.5 232q135 155 346 155q71 0 141.5 -26t122.5 -68l29 66h129l-137 -766q-15 -89 -15 -201v-37h-155l-8 72q-152 -101 -310 -101zM453 115q61 0 131 23.5t125 58.5l112 630
q-106 64 -221 64q-129 0 -219 -100q-62 -71 -96.5 -182t-34.5 -234q0 -260 203 -260z" />
    <glyph glyph-name="Abreve" unicode="&#x102;" horiz-adv-x="1183" 
d="M748 1563q-133 0 -197 76t-45 202l112 4q-6 -155 138 -155q145 0 190 155l113 -4q-9 -123 -94 -199q-85 -79 -217 -79zM-57 0l675 1401h201l225 -1401h-178l-55 373h-514l-176 -373h-178zM365 516h426l-101 684h-2z" />
    <glyph glyph-name="abreve" unicode="&#x103;" 
d="M680 1174q-133 0 -197 76t-45 202l113 4q-6 -156 137 -156q145 0 191 156l112 -4q-9 -123 -94 -199q-85 -79 -217 -79zM395 -29q-151 0 -234 112t-83 288q0 138 44.5 274t129.5 232q135 155 346 155q71 0 141.5 -26t122.5 -68l29 66h129l-137 -766q-15 -89 -15 -201v-37
h-155l-8 72q-152 -101 -310 -101zM453 115q61 0 131 23.5t125 58.5l112 630q-106 64 -221 64q-129 0 -219 -100q-62 -71 -96.5 -182t-34.5 -234q0 -260 203 -260z" />
    <glyph glyph-name="Aogonek" unicode="&#x104;" horiz-adv-x="1183" 
d="M852 -455q-103 0 -156 47q-49 46 -49 121q0 167 217 295l-53 365h-514l-176 -373h-178l675 1401h201l225 -1401q-79 0 -155 -76q-98 -98 -98 -184q0 -80 100 -80q59 0 131 14l-21 -108q-73 -21 -149 -21zM365 516h426l-101 684h-2z" />
    <glyph glyph-name="aogonek" unicode="&#x105;" 
d="M676 -455q-103 0 -156 47q-49 46 -49 121q0 84 56.5 159.5t181.5 150.5l-4 49q-152 -101 -310 -101q-151 0 -234 112t-83 288q0 138 44.5 274t129.5 232q135 155 346 155q71 0 141.5 -26t122.5 -68l29 66h129l-137 -766q-15 -89 -15 -201v-37q-79 0 -155 -76
q-99 -99 -99 -184q0 -80 101 -80q59 0 131 14l-21 -108q-74 -21 -149 -21zM453 115q61 0 131 23.5t125 58.5l112 630q-106 64 -221 64q-129 0 -219 -100q-62 -71 -96.5 -182t-34.5 -234q0 -260 203 -260z" />
    <glyph glyph-name="Cacute" unicode="&#x106;" horiz-adv-x="1112" 
d="M690 1534l-57 90l409 320l80 -129zM612 -29q-251 0 -378.5 140t-127.5 401q0 193 74 390t195 321q198 204 497 204q160 0 293 -57l-53 -133q-124 41 -242 41q-225 0 -372 -170q-94 -107 -148.5 -267t-54.5 -329q0 -196 91 -292.5t280 -96.5q113 0 260 31l-6 -142
q-146 -41 -308 -41z" />
    <glyph glyph-name="cacute" unicode="&#x107;" horiz-adv-x="872" 
d="M485 1145l-57 90l410 319l80 -129zM483 -29q-196 0 -302.5 104.5t-106.5 311.5q0 140 48 269.5t136 217.5q158 158 410 158q120 0 229 -41l-29 -129q-102 31 -198 31q-182 0 -279 -105q-70 -73 -106.5 -178.5t-36.5 -216.5q0 -116 45 -184q61 -96 239 -96q122 0 236 26
l-6 -125q-140 -43 -279 -43z" />
    <glyph glyph-name="Ccircumflex" unicode="&#x108;" horiz-adv-x="1112" 
d="M1100 1536l-211 219l-287 -217l-59 59l293 301h141l184 -301zM612 -29q-251 0 -378.5 140t-127.5 401q0 193 74 390t195 321q198 204 497 204q160 0 293 -57l-53 -133q-124 41 -242 41q-225 0 -372 -170q-94 -107 -148.5 -267t-54.5 -329q0 -196 91 -292.5t280 -96.5
q113 0 260 31l-6 -142q-146 -41 -308 -41z" />
    <glyph glyph-name="ccircumflex" unicode="&#x109;" horiz-adv-x="872" 
d="M885 1147l-211 219l-287 -217l-59 59l293 301h141l184 -301zM483 -29q-196 0 -302.5 104.5t-106.5 311.5q0 140 48 269.5t136 217.5q158 158 410 158q120 0 229 -41l-29 -129q-102 31 -198 31q-182 0 -279 -105q-70 -73 -106.5 -178.5t-36.5 -216.5q0 -116 45 -184
q61 -96 239 -96q122 0 236 26l-6 -125q-140 -43 -279 -43z" />
    <glyph glyph-name="Cdotaccent" unicode="&#x10a;" horiz-adv-x="1112" 
d="M846 1597q-90 0 -90 72q0 93 41 131q28 31 90 31h10q90 0 90 -72q0 -93 -41 -131q-28 -31 -90 -31h-10zM612 -29q-251 0 -378.5 140t-127.5 401q0 193 74 390t195 321q198 204 497 204q160 0 293 -57l-53 -133q-124 41 -242 41q-225 0 -372 -170q-94 -107 -148.5 -267
t-54.5 -329q0 -196 91 -292.5t280 -96.5q113 0 260 31l-6 -142q-146 -41 -308 -41z" />
    <glyph glyph-name="cdotaccent" unicode="&#x10b;" horiz-adv-x="872" 
d="M643 1208q-90 0 -90 72q0 93 41 131q28 31 90 31h10q90 0 90 -72q0 -93 -41 -131q-28 -31 -90 -31h-10zM483 -29q-196 0 -302.5 104.5t-106.5 311.5q0 140 48 269.5t136 217.5q158 158 410 158q120 0 229 -41l-29 -129q-102 31 -198 31q-182 0 -279 -105
q-70 -73 -106.5 -178.5t-36.5 -216.5q0 -116 45 -184q61 -96 239 -96q122 0 236 26l-6 -125q-140 -43 -279 -43z" />
    <glyph glyph-name="Ccaron" unicode="&#x10c;" horiz-adv-x="1112" 
d="M752 1559l-185 301l62 61l211 -219l286 217l60 -59l-293 -301h-141zM612 -29q-251 0 -378.5 140t-127.5 401q0 193 74 390t195 321q198 204 497 204q160 0 293 -57l-53 -133q-124 41 -242 41q-225 0 -372 -170q-94 -107 -148.5 -267t-54.5 -329q0 -196 91 -292.5
t280 -96.5q113 0 260 31l-6 -142q-146 -41 -308 -41z" />
    <glyph glyph-name="ccaron" unicode="&#x10d;" horiz-adv-x="872" 
d="M549 1169l-184 301l61 62l211 -219l287 217l59 -60l-293 -301h-141zM483 -29q-196 0 -302.5 104.5t-106.5 311.5q0 140 48 269.5t136 217.5q158 158 410 158q120 0 229 -41l-29 -129q-102 31 -198 31q-182 0 -279 -105q-70 -73 -106.5 -178.5t-36.5 -216.5
q0 -116 45 -184q61 -96 239 -96q122 0 236 26l-6 -125q-140 -43 -279 -43z" />
    <glyph glyph-name="Dcaron" unicode="&#x10e;" horiz-adv-x="1284" 
d="M735 1559l-184 301l61 61l211 -219l287 217l59 -59l-292 -301h-142zM68 0l247 1401h310q169 0 290.5 -34t200.5 -120q119 -129 119 -377q0 -177 -67.5 -365t-202.5 -317q-195 -188 -514 -188h-383zM272 143h174q232 0 379 140q110 103 167 263.5t57 332.5q0 196 -91 284
q-54 53 -143.5 73.5t-234.5 20.5h-109z" />
    <glyph glyph-name="dcaron" unicode="&#x10f;" horiz-adv-x="1294" 
d="M395 -29q-151 0 -234 112t-83 288q0 138 44.5 274t129.5 232q135 155 346 155q65 0 131.5 -22.5t118.5 -59.5l90 514h168l-219 -1226q-15 -89 -15 -201v-37h-155l-8 72q-152 -101 -314 -101zM1223 985l39 234q-72 15 -72 81q0 56 31 91.5t82 35.5h8q40 0 63 -18.5
t23 -54.5q0 -27 -6 -54q-28 -150 -95 -315h-73zM453 115q61 0 133.5 23.5t126.5 58.5l112 630q-102 62 -225 62q-128 0 -219 -101q-62 -71 -96.5 -180.5t-34.5 -232.5q0 -260 203 -260z" />
    <glyph glyph-name="Dcroat" unicode="&#x110;" horiz-adv-x="1316" 
d="M100 0l113 639h-184l24 139h185l110 623h309q169 0 291 -34t201 -120q119 -129 119 -377q0 -177 -68 -365t-203 -317q-195 -188 -514 -188h-383zM305 143h174q232 0 379 140q110 103 166.5 263t56.5 333q0 197 -90 284q-54 53 -144 73.5t-235 20.5h-108l-86 -479h282
l-24 -139h-283z" />
    <glyph glyph-name="dcroat" unicode="&#x111;" horiz-adv-x="1089" 
d="M395 -29q-151 0 -234 112t-83 288q0 138 44.5 274t129.5 232q135 155 346 155q65 0 131.5 -22.5t118.5 -59.5l41 232h-359l21 114h356l31 168h168l-31 -168l154 -16l-19 -98h-155l-168 -944q-15 -89 -15 -201v-37h-155l-8 72q-152 -101 -314 -101zM453 115
q61 0 133.5 23.5t126.5 58.5l112 630q-102 62 -225 62q-128 0 -219 -101q-62 -71 -96.5 -180.5t-34.5 -232.5q0 -260 203 -260z" />
    <glyph glyph-name="Emacron" unicode="&#x112;" horiz-adv-x="1054" 
d="M479 1640l25 138h524l-24 -138h-525zM68 0l247 1401h785l-41 -144h-588l-84 -473h479l-26 -149h-480l-88 -492h623l-27 -143h-800z" />
    <glyph glyph-name="emacron" unicode="&#x113;" horiz-adv-x="1017" 
d="M379 1251l24 138h525l-25 -138h-524zM518 -29q-230 0 -340 113q-104 107 -104 301q0 146 46.5 278.5t131.5 223.5q64 68 148.5 106.5t177.5 38.5q170 0 264 -104q92 -103 92 -289q0 -69 -12 -139q-6 -35 -17.5 -45.5t-42.5 -10.5h-612q-2 -20 -2 -57q0 -139 69 -205
q72 -69 244 -69q121 0 256 30l-10 -133q-156 -39 -289 -39zM264 569h500q6 41 6 76q0 118 -53 182q-54 64 -148 64q-110 0 -192 -88t-113 -234z" />
    <glyph glyph-name="Ebreve" unicode="&#x114;" horiz-adv-x="1054" 
d="M733 1563q-133 0 -196.5 76t-44.5 202l112 4q-3 -77 29.5 -116t107.5 -39q146 0 191 155l112 -4q-9 -123 -94 -199q-85 -79 -217 -79zM68 0l247 1401h785l-41 -144h-588l-84 -473h479l-26 -149h-480l-88 -492h623l-27 -143h-800z" />
    <glyph glyph-name="ebreve" unicode="&#x115;" horiz-adv-x="1017" 
d="M621 1174q-133 0 -197 76t-45 202l113 4q-6 -156 137 -156q144 0 190 156l113 -4q-9 -123 -94 -199q-85 -79 -217 -79zM518 -29q-230 0 -340 113q-104 107 -104 301q0 146 46.5 278.5t131.5 223.5q64 68 148.5 106.5t177.5 38.5q170 0 264 -104q92 -103 92 -289
q0 -69 -12 -139q-6 -35 -17.5 -45.5t-42.5 -10.5h-612q-2 -20 -2 -57q0 -139 69 -205q72 -69 244 -69q121 0 256 30l-10 -133q-156 -39 -289 -39zM264 569h500q6 41 6 76q0 118 -53 182q-54 64 -148 64q-110 0 -192 -88t-113 -234z" />
    <glyph glyph-name="Edotaccent" unicode="&#x116;" horiz-adv-x="1054" 
d="M741 1597q-90 0 -90 72q0 93 41 131q28 31 90 31h11q90 0 90 -72q0 -93 -41 -131q-28 -31 -90 -31h-11zM68 0l247 1401h785l-41 -144h-588l-84 -473h479l-26 -149h-480l-88 -492h623l-27 -143h-800z" />
    <glyph glyph-name="edotaccent" unicode="&#x117;" horiz-adv-x="1017" 
d="M629 1208q-90 0 -90 72q0 93 41 131q28 31 90 31h10q90 0 90 -72q0 -93 -41 -131q-28 -31 -90 -31h-10zM518 -29q-230 0 -340 113q-104 107 -104 301q0 146 46.5 278.5t131.5 223.5q64 68 148.5 106.5t177.5 38.5q170 0 264 -104q92 -103 92 -289q0 -69 -12 -139
q-6 -35 -17.5 -45.5t-42.5 -10.5h-612q-2 -20 -2 -57q0 -139 69 -205q72 -69 244 -69q121 0 256 30l-10 -133q-156 -39 -289 -39zM264 569h500q6 41 6 76q0 118 -53 182q-54 64 -148 64q-110 0 -192 -88t-113 -234z" />
    <glyph glyph-name="Eogonek" unicode="&#x118;" horiz-adv-x="1054" 
d="M647 -455q-102 0 -155 47q-50 47 -50 121q0 165 199 287h-573l247 1401h785l-41 -144h-588l-84 -473h479l-26 -149h-480l-88 -492h623l-27 -143h-28q-80 0 -156 -76q-98 -98 -98 -184q0 -80 100 -80q59 0 131 14l-20 -108q-74 -21 -150 -21z" />
    <glyph glyph-name="eogonek" unicode="&#x119;" horiz-adv-x="1017" 
d="M598 -455q-103 0 -156 47q-49 46 -49 121q0 142 160 258h-35q-230 0 -340 113q-104 107 -104 301q0 146 46.5 278.5t131.5 223.5q64 68 148.5 106.5t177.5 38.5q170 0 264 -104q92 -103 92 -289q0 -69 -12 -139q-6 -35 -17.5 -45.5t-42.5 -10.5h-612q-2 -20 -2 -57
q0 -139 69 -205q72 -69 244 -69q121 0 256 30l-10 -133q-129 -31 -207 -125q-63 -78 -63 -145q0 -80 100 -80q59 0 131 14l-20 -108q-74 -21 -150 -21zM264 569h500q6 41 6 76q0 118 -53 182q-54 64 -148 64q-110 0 -192 -88t-113 -234z" />
    <glyph glyph-name="Ecaron" unicode="&#x11a;" horiz-adv-x="1054" 
d="M647 1559l-184 301l61 61l211 -219l287 217l59 -59l-293 -301h-141zM68 0l247 1401h785l-41 -144h-588l-84 -473h479l-26 -149h-480l-88 -492h623l-27 -143h-800z" />
    <glyph glyph-name="ecaron" unicode="&#x11b;" horiz-adv-x="1017" 
d="M535 1169l-185 301l62 62l211 -219l286 217l60 -60l-293 -301h-141zM518 -29q-230 0 -340 113q-104 107 -104 301q0 146 46.5 278.5t131.5 223.5q64 68 148.5 106.5t177.5 38.5q170 0 264 -104q92 -103 92 -289q0 -69 -12 -139q-6 -35 -17.5 -45.5t-42.5 -10.5h-612
q-2 -20 -2 -57q0 -139 69 -205q72 -69 244 -69q121 0 256 30l-10 -133q-156 -39 -289 -39zM264 569h500q6 41 6 76q0 118 -53 182q-54 64 -148 64q-110 0 -192 -88t-113 -234z" />
    <glyph glyph-name="Gcircumflex" unicode="&#x11c;" horiz-adv-x="1263" 
d="M1178 1536l-211 219l-287 -217l-59 59l292 301h142l184 -301zM645 -29q-256 0 -397 138q-68 65 -105 170.5t-37 238.5q0 202 72 390t205 321q198 198 502 198q192 0 332 -57l-48 -135q-133 43 -274 43q-237 0 -383 -158q-100 -107 -158.5 -267t-58.5 -333
q0 -199 92.5 -299t271.5 -100q108 0 209 22l74 424h-217l25 142h391l-119 -680q-183 -58 -377 -58z" />
    <glyph glyph-name="gcircumflex" unicode="&#x11d;" horiz-adv-x="1081" 
d="M872 1147l-210 219l-287 -217l-60 59l293 301h142l184 -301zM360 -489q-114 0 -210 26l8 133q106 -18 188 -18q157 0 225 74q66 69 91 213l20 118q-140 -86 -287 -86q-151 0 -234 112t-83 288q0 138 44.5 274t129.5 232q135 155 344 155q71 0 142.5 -26.5t123.5 -67.5
l29 66h131l-195 -1082q-35 -194 -129 -295q-110 -116 -338 -116zM453 115q61 0 131 23.5t125 58.5l112 630q-102 62 -221 62q-128 0 -219 -101q-62 -71 -96.5 -180.5t-34.5 -232.5q0 -260 203 -260z" />
    <glyph glyph-name="Gbreve" unicode="&#x11e;" horiz-adv-x="1263" 
d="M915 1563q-133 0 -196.5 76t-44.5 202l112 4q-6 -155 138 -155q145 0 190 155l113 -4q-9 -123 -94 -199q-85 -79 -218 -79zM645 -29q-256 0 -397 138q-68 65 -105 170.5t-37 238.5q0 202 72 390t205 321q198 198 502 198q192 0 332 -57l-48 -135q-133 43 -274 43
q-237 0 -383 -158q-100 -107 -158.5 -267t-58.5 -333q0 -199 92.5 -299t271.5 -100q108 0 209 22l74 424h-217l25 142h391l-119 -680q-183 -58 -377 -58z" />
    <glyph glyph-name="gbreve" unicode="&#x11f;" horiz-adv-x="1081" 
d="M623 1174q-133 0 -197 76t-45 202l113 4q-6 -156 137 -156q144 0 190 156l113 -4q-9 -123 -94 -199q-85 -79 -217 -79zM360 -489q-114 0 -210 26l8 133q106 -18 188 -18q157 0 225 74q66 69 91 213l20 118q-140 -86 -287 -86q-151 0 -234 112t-83 288q0 138 44.5 274
t129.5 232q135 155 344 155q71 0 142.5 -26.5t123.5 -67.5l29 66h131l-195 -1082q-35 -194 -129 -295q-110 -116 -338 -116zM453 115q61 0 131 23.5t125 58.5l112 630q-102 62 -221 62q-128 0 -219 -101q-62 -71 -96.5 -180.5t-34.5 -232.5q0 -260 203 -260z" />
    <glyph glyph-name="Gdotaccent" unicode="&#x120;" horiz-adv-x="1263" 
d="M924 1597q-90 0 -90 72q0 94 40 131q28 31 91 31h10q90 0 90 -72q0 -93 -41 -131q-28 -31 -90 -31h-10zM645 -29q-256 0 -397 138q-68 65 -105 170.5t-37 238.5q0 202 72 390t205 321q198 198 502 198q192 0 332 -57l-48 -135q-133 43 -274 43q-237 0 -383 -158
q-100 -107 -158.5 -267t-58.5 -333q0 -199 92.5 -299t271.5 -100q108 0 209 22l74 424h-217l25 142h391l-119 -680q-183 -58 -377 -58z" />
    <glyph glyph-name="gdotaccent" unicode="&#x121;" horiz-adv-x="1081" 
d="M631 1208q-90 0 -90 72q0 93 41 131q28 31 90 31h10q90 0 90 -72q0 -93 -41 -131q-28 -31 -90 -31h-10zM360 -489q-114 0 -210 26l8 133q106 -18 188 -18q157 0 225 74q66 69 91 213l20 118q-140 -86 -287 -86q-151 0 -234 112t-83 288q0 138 44.5 274t129.5 232
q135 155 344 155q71 0 142.5 -26.5t123.5 -67.5l29 66h131l-195 -1082q-35 -194 -129 -295q-110 -116 -338 -116zM453 115q61 0 131 23.5t125 58.5l112 630q-102 62 -221 62q-128 0 -219 -101q-62 -71 -96.5 -180.5t-34.5 -232.5q0 -260 203 -260z" />
    <glyph glyph-name="Gcommaaccent" unicode="&#x122;" horiz-adv-x="1263" 
d="M645 -29q-256 0 -397 138q-68 65 -105 170.5t-37 238.5q0 202 72 390t205 321q198 198 502 198q192 0 332 -57l-48 -135q-133 43 -274 43q-237 0 -383 -158q-100 -107 -158.5 -267t-58.5 -333q0 -199 92.5 -299t271.5 -100q108 0 209 22l74 424h-217l25 142h391
l-119 -680q-183 -58 -377 -58zM498 -594l39 234q-72 15 -72 81q0 56 31 91.5t82 35.5h8q40 0 63 -18.5t23 -54.5q0 -27 -6 -54q-28 -150 -95 -315h-73z" />
    <glyph glyph-name="gcommaaccent" unicode="&#x123;" horiz-adv-x="1081" 
d="M643 1165q-39 0 -62.5 19t-23.5 55q0 26 6 53q12 64 40 157.5t54 158.5h74l-39 -234q72 -15 72 -82q0 -56 -31 -91.5t-82 -35.5h-8zM360 -489q-114 0 -210 26l8 133q106 -18 188 -18q157 0 225 74q66 69 91 213l20 118q-140 -86 -287 -86q-151 0 -234 112t-83 288
q0 138 44.5 274t129.5 232q135 155 344 155q71 0 142.5 -26.5t123.5 -67.5l29 66h131l-195 -1082q-35 -194 -129 -295q-110 -116 -338 -116zM453 115q61 0 131 23.5t125 58.5l112 630q-102 62 -221 62q-128 0 -219 -101q-62 -71 -96.5 -180.5t-34.5 -232.5q0 -260 203 -260z
" />
    <glyph glyph-name="Hcircumflex" unicode="&#x124;" horiz-adv-x="1316" 
d="M1079 1536l-211 219l-286 -217l-60 59l293 301h141l185 -301zM68 0l247 1401h181l-109 -619h631l108 619h181l-248 -1401h-180l112 635h-631l-112 -635h-180z" />
    <glyph glyph-name="hcircumflex" unicode="&#x125;" horiz-adv-x="1099" 
d="M657 1462l-211 219l-286 -217l-60 60l293 301h142l184 -301zM59 0l258 1464h168l-94 -530q74 46 159 72t161 26q133 0 211.5 -70t78.5 -200q0 -50 -16 -141l-108 -621h-168l110 618q12 77 12 117q0 79 -44 113.5t-130 34.5q-133 0 -288 -74l-142 -809h-168z" />
    <glyph glyph-name="Hbar" unicode="&#x126;" horiz-adv-x="1357" 
d="M88 0l184 1040h-163l22 127h164l41 234h180l-41 -234h631l41 234h180l-41 -234h164l-23 -127h-163l-185 -1040h-180l113 635h-631l-113 -635h-180zM408 782h630l45 258h-630z" />
    <glyph glyph-name="hbar" unicode="&#x127;" horiz-adv-x="1099" 
d="M59 0l207 1182h-151l14 98l158 14l30 170h168l-30 -168h356l-16 -114h-361l-43 -248q74 46 159 72t161 26q133 0 211.5 -70t78.5 -200q0 -50 -16 -141l-108 -621h-168l110 618q12 77 12 117q0 79 -44 113.5t-130 34.5q-133 0 -288 -74l-142 -809h-168z" />
    <glyph glyph-name="Itilde" unicode="&#x128;" horiz-adv-x="514" 
d="M223 1620l-90 16q18 107 72.5 160t132.5 53q56 0 143.5 -40t120.5 -40q68 0 94 82l90 -16q-18 -107 -72 -160t-132 -53q-56 0 -144 40t-121 40q-68 0 -94 -82zM72 0l247 1401h181l-248 -1401h-180z" />
    <glyph glyph-name="itilde" unicode="&#x129;" horiz-adv-x="471" 
d="M147 1231l-90 16q18 107 72.5 160t132.5 53q56 0 143.5 -40t120.5 -40q69 0 95 82l90 -16q-18 -107 -72.5 -160t-132.5 -53q-56 0 -143.5 40t-120.5 40q-69 0 -95 -82zM63 0l179 1004h166l-179 -1004h-166z" />
    <glyph glyph-name="Imacron" unicode="&#x12a;" horiz-adv-x="514" 
d="M182 1640l25 138h524l-24 -138h-525zM72 0l247 1401h181l-248 -1401h-180z" />
    <glyph glyph-name="imacron" unicode="&#x12b;" horiz-adv-x="471" 
d="M104 1251l25 138h524l-24 -138h-525zM63 0l179 1004h166l-179 -1004h-166z" />
    <glyph glyph-name="Ibreve" unicode="&#x12c;" horiz-adv-x="514" 
d="M436 1563q-133 0 -196.5 76t-44.5 202l112 4q-3 -77 29.5 -116t107.5 -39q146 0 191 155l113 -4q-9 -122 -95 -199q-85 -79 -217 -79zM72 0l247 1401h181l-248 -1401h-180z" />
    <glyph glyph-name="ibreve" unicode="&#x12d;" horiz-adv-x="471" 
d="M346 1174q-133 0 -197 76t-45 202l113 4q-6 -156 137 -156q145 0 191 156l112 -4q-9 -123 -94 -199q-85 -79 -217 -79zM63 0l179 1004h166l-179 -1004h-166z" />
    <glyph glyph-name="Iogonek" unicode="&#x12e;" horiz-adv-x="514" 
d="M51 -455q-102 0 -155 47q-50 47 -50 121q0 172 228 301l245 1387h181l-248 -1401h-8q-80 0 -156 -76q-98 -98 -98 -184q0 -80 100 -80q59 0 131 14l-20 -108q-73 -21 -150 -21z" />
    <glyph glyph-name="iogonek" unicode="&#x12f;" horiz-adv-x="473" 
d="M354 1194q-82 0 -82 66q0 81 37 118q29 29 84 29h13q81 0 81 -66q0 -82 -36 -118q-29 -29 -84 -29h-13zM39 -455q-103 0 -156 47q-49 46 -49 121q0 178 232 305l176 986h168l-179 -1004q-79 0 -155 -76q-99 -99 -99 -184q0 -80 101 -80q59 0 131 14l-21 -108
q-73 -21 -149 -21z" />
    <glyph glyph-name="Idotaccent" unicode="&#x130;" horiz-adv-x="514" 
d="M444 1597q-90 0 -90 72q0 93 41 131q28 31 90 31h11q90 0 90 -72q0 -93 -41 -131q-28 -31 -90 -31h-11zM72 0l247 1401h181l-248 -1401h-180z" />
    <glyph glyph-name="dotlessi" unicode="&#x131;" horiz-adv-x="471" 
d="M63 0l179 1004h166l-179 -1004h-166z" />
    <glyph glyph-name="IJ" unicode="&#x132;" horiz-adv-x="1255" 
d="M72 0l247 1401h181l-248 -1401h-180zM657 -29q-93 0 -159 17l8 141q68 -10 143 -10q110 0 164 51q51 51 76 201l182 1030h180l-182 -1030q-24 -133 -51.5 -200.5t-73.5 -111.5q-91 -88 -287 -88z" />
    <glyph glyph-name="ij" unicode="&#x133;" horiz-adv-x="946" 
d="M354 1194q-82 0 -82 66q0 81 37 118q29 29 84 29h13q81 0 81 -66q0 -82 -36 -118q-29 -29 -84 -29h-13zM827 1194q-82 0 -82 66q0 81 37 118q29 29 84 29h13q82 0 82 -66q0 -81 -37 -118q-29 -29 -84 -29h-13zM63 0l179 1004h168l-179 -1004h-168zM186 -483l7 133
q95 4 149.5 22.5t91.5 53.5q33 31 55.5 86.5t40.5 154.5l185 1037h168l-181 -1014q-27 -154 -59.5 -230.5t-89.5 -132.5q-116 -110 -367 -110z" />
    <glyph glyph-name="Jcircumflex" unicode="&#x134;" horiz-adv-x="741" 
d="M907 1536l-211 219l-286 -217l-60 59l293 301h141l185 -301zM143 -29q-93 0 -159 17l8 141q68 -10 143 -10q110 0 164 51q51 51 76 201l182 1030h180l-182 -1030q-24 -133 -51.5 -200.5t-73.5 -111.5q-91 -88 -287 -88z" />
    <glyph glyph-name="jcircumflex" unicode="&#x135;" horiz-adv-x="473" 
d="M598 1147l-211 219l-287 -217l-59 59l293 301h141l184 -301zM-287 -483l6 133q95 4 150 22.5t92 53.5q33 31 55.5 86.5t40.5 154.5l185 1037h168l-181 -1014q-27 -154 -59.5 -230.5t-89.5 -132.5q-116 -110 -367 -110z" />
    <glyph glyph-name="Kcommaaccent" unicode="&#x136;" horiz-adv-x="1189" 
d="M68 0l247 1401h181l-129 -723l696 723h213l-576 -584l349 -817h-195l-281 690l-249 -256l-76 -434h-180zM446 -594l39 234q-71 15 -71 81q0 56 30.5 91.5t81.5 35.5h9q40 0 63 -18.5t23 -54.5q0 -23 -7 -54q-12 -64 -40 -157t-54 -158h-74z" />
    <glyph glyph-name="kcommaaccent" unicode="&#x137;" horiz-adv-x="1007" 
d="M59 0l258 1464h168l-170 -958l529 498h200l-434 -400l273 -604h-176l-213 498l-213 -199l-54 -299h-168zM344 -594l39 234q-72 15 -72 81q0 56 31 91.5t82 35.5h8q40 0 63 -18.5t23 -54.5q0 -27 -6 -54q-12 -64 -40 -157t-54 -158h-74z" />
    <glyph glyph-name="kgreenlandic" unicode="&#x138;" horiz-adv-x="1009" 
d="M61 0l177 1004h168l-89 -498l529 498h201l-435 -400l273 -604h-176l-213 498l-213 -199l-54 -299h-168z" />
    <glyph glyph-name="Lacute" unicode="&#x139;" horiz-adv-x="987" 
d="M336 1534l-57 90l409 320l80 -129zM68 0l247 1401h181l-224 -1258h600l-26 -143h-778z" />
    <glyph glyph-name="lacute" unicode="&#x13a;" horiz-adv-x="468" 
d="M272 1534l-57 90l410 320l80 -129zM61 0l258 1464h168l-258 -1464h-168z" />
    <glyph glyph-name="Lcommaaccent" unicode="&#x13b;" horiz-adv-x="987" 
d="M68 0l247 1401h181l-224 -1258h600l-26 -143h-778zM369 -594l39 234q-72 15 -72 81q0 56 31 91.5t82 35.5h8q40 0 63 -18.5t23 -54.5q0 -27 -6 -54q-28 -150 -95 -315h-73z" />
    <glyph glyph-name="lcommaaccent" unicode="&#x13c;" horiz-adv-x="468" 
d="M61 0l258 1464h168l-258 -1464h-168zM16 -596l39 234q-71 15 -71 81q0 56 30.5 91.5t81.5 35.5h8q40 0 63 -18.5t23 -54.5q0 -27 -6 -54q-12 -64 -40 -157t-54 -158h-74z" />
    <glyph glyph-name="Lcaron" unicode="&#x13d;" horiz-adv-x="987" 
d="M692 985l39 234q-72 15 -72 81q0 56 31 91.5t82 35.5h8q40 0 63 -18.5t23 -54.5q0 -27 -6 -54q-12 -64 -40 -157t-54 -158h-74zM68 0l247 1401h181l-224 -1258h600l-26 -143h-778z" />
    <glyph glyph-name="lcaron" unicode="&#x13e;" horiz-adv-x="675" 
d="M61 0l258 1464h168l-258 -1464h-168zM604 985l39 234q-72 15 -72 81q0 56 31 91.5t82 35.5h8q40 0 63 -18.5t23 -54.5q0 -27 -6 -54q-12 -64 -40 -157t-54 -158h-74z" />
    <glyph glyph-name="Ldot" unicode="&#x13f;" horiz-adv-x="987" 
d="M68 0l247 1401h181l-224 -1258h600l-26 -143h-778zM731 565q-90 0 -90 72q0 93 41 131q28 31 90 31h10q90 0 90 -72q0 -93 -41 -131q-28 -31 -90 -31h-10z" />
    <glyph glyph-name="ldot" unicode="&#x140;" horiz-adv-x="776" 
d="M61 0l258 1464h168l-258 -1464h-168zM614 608q-90 0 -90 72q0 93 41 131q28 31 90 31h11q90 0 90 -72q0 -93 -41 -131q-28 -31 -90 -31h-11z" />
    <glyph glyph-name="Lslash" unicode="&#x141;" horiz-adv-x="1017" 
d="M98 0l97 547l-152 -90l-63 118l245 148l121 678h180l-98 -559l279 168l65 -119l-377 -225l-92 -523h600l-26 -143h-779z" />
    <glyph glyph-name="lslash" unicode="&#x142;" horiz-adv-x="641" 
d="M156 0l110 627l-178 -107l-57 123l266 160l117 661h168l-97 -549l201 121l57 -123l-290 -174l-129 -739h-168z" />
    <glyph glyph-name="Nacute" unicode="&#x143;" horiz-adv-x="1361" 
d="M713 1534l-58 90l410 320l80 -129zM68 0l247 1401h136l542 -1100l195 1100h164l-248 -1401h-135l-543 1100l-195 -1100h-163z" />
    <glyph glyph-name="nacute" unicode="&#x144;" horiz-adv-x="1101" 
d="M573 1145l-57 90l410 319l80 -129zM59 0l179 1004h141l-2 -80q76 51 166 79.5t170 28.5q133 0 212 -70t79 -200q0 -44 -17 -141l-108 -621h-168l110 618q13 83 13 117q0 78 -44.5 112t-130.5 34q-64 0 -142.5 -20t-145.5 -52l-144 -809h-168z" />
    <glyph glyph-name="Ncommaaccent" unicode="&#x145;" horiz-adv-x="1361" 
d="M68 0l247 1401h136l542 -1100l195 1100h164l-248 -1401h-135l-543 1100l-195 -1100h-163zM481 -594l39 234q-71 15 -71 81q0 56 30.5 91.5t81.5 35.5h8q40 0 63 -18.5t23 -54.5q0 -27 -6 -54q-12 -64 -40 -157t-54 -158h-74z" />
    <glyph glyph-name="ncommaaccent" unicode="&#x146;" horiz-adv-x="1101" 
d="M59 0l179 1004h141l-2 -80q76 51 166 79.5t170 28.5q133 0 212 -70t79 -200q0 -44 -17 -141l-108 -621h-168l110 618q13 83 13 117q0 78 -44.5 112t-130.5 34q-64 0 -142.5 -20t-145.5 -52l-144 -809h-168zM362 -594l39 234q-71 15 -71 81q0 56 30.5 91.5t81.5 35.5h9
q40 0 63 -18.5t23 -54.5q0 -23 -7 -54q-12 -64 -40 -157t-54 -158h-74z" />
    <glyph glyph-name="Ncaron" unicode="&#x147;" horiz-adv-x="1361" 
d="M774 1559l-184 301l61 61l211 -219l287 217l59 -59l-293 -301h-141zM68 0l247 1401h136l542 -1100l195 1100h164l-248 -1401h-135l-543 1100l-195 -1100h-163z" />
    <glyph glyph-name="ncaron" unicode="&#x148;" horiz-adv-x="1101" 
d="M637 1169l-184 301l61 62l211 -219l287 217l59 -60l-293 -301h-141zM59 0l179 1004h141l-2 -80q76 51 166 79.5t170 28.5q133 0 212 -70t79 -200q0 -44 -17 -141l-108 -621h-168l110 618q13 83 13 117q0 78 -44.5 112t-130.5 34q-64 0 -142.5 -20t-145.5 -52l-144 -809
h-168z" />
    <glyph glyph-name="napostrophe" unicode="&#x149;" horiz-adv-x="1265" 
d="M133 938l45 256q-76 17 -76 88q0 35 11.5 67t27.5 48q30 30 84 30h11q88 0 88 -81q0 -25 -7 -60q-13 -72 -44 -173t-62 -175h-78zM223 0l178 1004h142l-2 -80q76 51 166 79.5t170 28.5q133 0 211.5 -70t78.5 -200q0 -50 -16 -141l-109 -621h-168l111 618q12 77 12 117
q0 79 -44 112.5t-130 33.5q-64 0 -142.5 -20t-145.5 -52l-144 -809h-168z" />
    <glyph glyph-name="Eng" unicode="&#x14a;" horiz-adv-x="1361" 
d="M678 -489q-98 0 -160 16l8 141q68 -10 158 -10q110 0 164 51q51 51 76 201l20 121l-518 1069l-195 -1100h-163l247 1401h136l542 -1100l195 1100h164l-262 -1491q-24 -133 -51.5 -200t-73.5 -111q-91 -88 -287 -88z" />
    <glyph glyph-name="eng" unicode="&#x14b;" horiz-adv-x="1101" 
d="M360 -483l7 133q95 4 149.5 22.5t91.5 53.5q64 61 97 241l116 651q13 83 13 117q0 78 -44.5 112t-130.5 34q-64 0 -142.5 -20t-145.5 -52l-144 -809h-168l179 1004h141l-2 -80q76 51 166 79.5t170 28.5q133 0 212 -70t79 -200q0 -44 -17 -141l-110 -631
q-27 -153 -59.5 -230t-90.5 -133q-116 -110 -367 -110z" />
    <glyph glyph-name="Omacron" unicode="&#x14c;" horiz-adv-x="1298" 
d="M573 1640l25 138h524l-24 -138h-525zM569 -29q-223 0 -343 140t-120 385q0 204 71 411.5t196 341.5q167 178 413 178q223 0 343 -139.5t120 -384.5q0 -204 -70.5 -411.5t-195.5 -341.5q-168 -179 -414 -179zM578 127q194 0 319 186q76 114 120 279.5t44 318.5
q0 76 -16 139.5t-48.5 114t-88.5 79t-130 28.5q-193 0 -319 -187q-76 -114 -120 -279.5t-44 -318.5q0 -76 16 -139.5t48.5 -114t88 -78.5t130.5 -28z" />
    <glyph glyph-name="omacron" unicode="&#x14d;" horiz-adv-x="1073" 
d="M418 1251l24 138h525l-25 -138h-524zM457 -29q-183 0 -283 111t-100 293q0 151 48.5 285t135.5 223q146 149 358 149q183 0 283 -110.5t100 -292.5q0 -151 -48.5 -285t-135.5 -223q-147 -150 -358 -150zM471 117q141 0 231 110q60 72 91.5 175t31.5 214q0 122 -56 196.5
t-167 74.5q-141 0 -231 -111q-60 -72 -91.5 -175t-31.5 -214q0 -122 56 -196t167 -74z" />
    <glyph glyph-name="Obreve" unicode="&#x14e;" horiz-adv-x="1298" 
d="M827 1563q-133 0 -196.5 76t-44.5 202l112 4q-6 -155 138 -155q145 0 190 155l113 -4q-9 -122 -95 -199q-85 -79 -217 -79zM569 -29q-223 0 -343 140t-120 385q0 204 71 411.5t196 341.5q167 178 413 178q223 0 343 -139.5t120 -384.5q0 -204 -70.5 -411.5t-195.5 -341.5
q-168 -179 -414 -179zM578 127q194 0 319 186q76 114 120 279.5t44 318.5q0 76 -16 139.5t-48.5 114t-88.5 79t-130 28.5q-193 0 -319 -187q-76 -114 -120 -279.5t-44 -318.5q0 -76 16 -139.5t48.5 -114t88 -78.5t130.5 -28z" />
    <glyph glyph-name="obreve" unicode="&#x14f;" horiz-adv-x="1073" 
d="M659 1174q-133 0 -196.5 76t-44.5 202l112 4q-6 -156 138 -156t190 156l113 -4q-9 -123 -94 -199q-85 -79 -218 -79zM457 -29q-183 0 -283 111t-100 293q0 151 48.5 285t135.5 223q146 149 358 149q183 0 283 -110.5t100 -292.5q0 -151 -48.5 -285t-135.5 -223
q-147 -150 -358 -150zM471 117q141 0 231 110q60 72 91.5 175t31.5 214q0 122 -56 196.5t-167 74.5q-141 0 -231 -111q-60 -72 -91.5 -175t-31.5 -214q0 -122 56 -196t167 -74z" />
    <glyph glyph-name="Ohungarumlaut" unicode="&#x150;" horiz-adv-x="1298" 
d="M559 1546l-70 70l355 385l96 -115zM920 1546l-70 70l354 385l96 -115zM569 -29q-223 0 -343 140t-120 385q0 204 71 411.5t196 341.5q167 178 413 178q223 0 343 -139.5t120 -384.5q0 -204 -70.5 -411.5t-195.5 -341.5q-168 -179 -414 -179zM578 127q194 0 319 186
q76 114 120 279.5t44 318.5q0 76 -16 139.5t-48.5 114t-88.5 79t-130 28.5q-193 0 -319 -187q-76 -114 -120 -279.5t-44 -318.5q0 -76 16 -139.5t48.5 -114t88 -78.5t130.5 -28z" />
    <glyph glyph-name="ohungarumlaut" unicode="&#x151;" horiz-adv-x="1073" 
d="M393 1157l-69 70l354 385l96 -115zM754 1157l-70 70l354 385l97 -115zM457 -29q-183 0 -283 111t-100 293q0 151 48.5 285t135.5 223q146 149 358 149q183 0 283 -110.5t100 -292.5q0 -151 -48.5 -285t-135.5 -223q-147 -150 -358 -150zM471 117q141 0 231 110
q60 72 91.5 175t31.5 214q0 122 -56 196.5t-167 74.5q-141 0 -231 -111q-60 -72 -91.5 -175t-31.5 -214q0 -122 56 -196t167 -74z" />
    <glyph glyph-name="OE" unicode="&#x152;" horiz-adv-x="1810" 
d="M727 0q-330 0 -489 172q-132 146 -132 383q0 185 70.5 362.5t188.5 290.5q104 101 253.5 147t370.5 46h866l-40 -144h-588l-84 -473h479l-27 -149h-479l-88 -492h623l-27 -143h-897zM788 139h60l199 1123h-72q-156 0 -271 -33.5t-202 -114.5q-100 -92 -153.5 -243
t-53.5 -314q0 -92 26.5 -170.5t73.5 -128.5q56 -59 147 -89t246 -30z" />
    <glyph glyph-name="oe" unicode="&#x153;" horiz-adv-x="1757" 
d="M457 -29q-183 0 -284 111t-101 293q0 151 48.5 285t135.5 223q146 149 360 149q120 0 205.5 -49t130.5 -139l37 43q64 68 149.5 106.5t178.5 38.5q170 0 264 -104q94 -105 94 -289q0 -69 -12 -139q-6 -35 -17 -45.5t-42 -10.5h-615q-2 -20 -2 -57q0 -138 70 -205
q72 -69 243 -69q121 0 256 30l-10 -133q-156 -39 -289 -39q-296 0 -401 195q-68 -91 -173 -143t-226 -52zM1004 569h499q6 41 6 76q0 118 -53 182q-54 64 -147 64q-111 0 -193 -88q-81 -86 -112 -234zM471 117q141 0 231 110q60 72 91.5 175t31.5 214q0 122 -56 196.5
t-167 74.5q-141 0 -231 -111q-60 -72 -91.5 -175t-31.5 -214q0 -122 56 -196t167 -74z" />
    <glyph glyph-name="Racute" unicode="&#x154;" horiz-adv-x="1181" 
d="M594 1534l-57 90l409 320l80 -129zM68 -2l247 1401h379q253 0 367 -111q88 -88 88 -237q0 -101 -36 -195.5t-105 -161.5q-89 -86 -211 -125l198 -571h-188l-172 541q-33 -4 -105 -4h-188l-94 -537h-180zM369 680h196q193 0 295 102q50 50 77.5 118.5t27.5 143.5
q0 92 -47 142q-35 37 -94 53t-156 16h-197z" />
    <glyph glyph-name="racute" unicode="&#x155;" horiz-adv-x="681" 
d="M381 1145l-57 90l409 319l80 -129zM59 0l179 1004h139l-6 -86q155 114 299 114q30 0 65 -6l-26 -154q-57 5 -88 5q-129 0 -252 -72l-142 -805h-168z" />
    <glyph glyph-name="Rcommaaccent" unicode="&#x156;" horiz-adv-x="1181" 
d="M68 -2l247 1401h379q253 0 367 -111q88 -88 88 -237q0 -101 -36 -195.5t-105 -161.5q-89 -86 -211 -125l198 -571h-188l-172 541q-33 -4 -105 -4h-188l-94 -537h-180zM369 680h196q193 0 295 102q50 50 77.5 118.5t27.5 143.5q0 92 -47 142q-35 37 -94 53t-156 16h-197z
M408 -594l38 234q-71 15 -71 81q0 56 30.5 91.5t81.5 35.5h9q40 0 63 -18.5t23 -54.5q0 -23 -7 -54q-12 -64 -40 -157t-54 -158h-73z" />
    <glyph glyph-name="rcommaaccent" unicode="&#x157;" horiz-adv-x="681" 
d="M59 0l179 1004h139l-6 -86q155 114 299 114q30 0 65 -6l-26 -154q-57 5 -88 5q-129 0 -252 -72l-142 -805h-168zM20 -594l39 234q-71 15 -71 81q0 56 30.5 91.5t81.5 35.5h9q40 0 63 -18.5t23 -54.5q0 -23 -7 -54q-12 -64 -40 -157t-54 -158h-74z" />
    <glyph glyph-name="Rcaron" unicode="&#x158;" horiz-adv-x="1181" 
d="M655 1559l-184 301l61 61l211 -219l287 217l60 -59l-293 -301h-142zM68 -2l247 1401h379q253 0 367 -111q88 -88 88 -237q0 -101 -36 -195.5t-105 -161.5q-89 -86 -211 -125l198 -571h-188l-172 541q-33 -4 -105 -4h-188l-94 -537h-180zM369 680h196q193 0 295 102
q50 50 77.5 118.5t27.5 143.5q0 92 -47 142q-35 37 -94 53t-156 16h-197z" />
    <glyph glyph-name="rcaron" unicode="&#x159;" horiz-adv-x="681" 
d="M444 1169l-184 301l62 62l210 -219l287 217l60 -60l-293 -301h-142zM59 0l179 1004h139l-6 -86q155 114 299 114q30 0 65 -6l-26 -154q-57 5 -88 5q-129 0 -252 -72l-142 -805h-168z" />
    <glyph glyph-name="Sacute" unicode="&#x15a;" horiz-adv-x="1062" 
d="M563 1534l-57 90l409 320l80 -129zM385 -29q-187 0 -362 60l38 143q170 -53 320 -53q195 0 299 76q92 69 92 178q0 60 -33 108t-85.5 82t-116 66t-127 68.5t-116 80t-85.5 109.5t-33 149q0 170 121 275q132 114 381 114q82 0 180 -17.5t176 -47.5l-45 -133
q-69 22 -157.5 35.5t-159.5 13.5q-171 0 -252 -66q-72 -59 -72 -153q0 -58 33 -105.5t85.5 -83t116.5 -69t128 -70.5t116.5 -80.5t85.5 -107t33 -140.5q0 -186 -131 -301q-146 -131 -430 -131z" />
    <glyph glyph-name="sacute" unicode="&#x15b;" horiz-adv-x="856" 
d="M403 1145l-57 90l410 319l80 -129zM322 -29q-79 0 -165.5 16.5t-140.5 39.5l29 131q143 -47 279 -47q123 0 193.5 44.5t70.5 118.5q0 39 -19.5 68.5t-51.5 48t-73 36.5t-83.5 33t-83.5 38.5t-73 52t-51.5 75t-19.5 105.5q0 142 108.5 221.5t274.5 79.5q151 0 279 -41
l-31 -127q-131 31 -244 31q-109 0 -171 -39.5t-62 -114.5q0 -39 25 -68.5t65.5 -50t89 -39.5t97 -43t89 -54.5t65.5 -80.5t25 -114q0 -107 -58 -180.5t-151 -106.5t-212 -33z" />
    <glyph glyph-name="Scircumflex" unicode="&#x15c;" horiz-adv-x="1062" 
d="M973 1536l-211 219l-287 -217l-59 59l293 301h141l184 -301zM385 -29q-187 0 -362 60l38 143q170 -53 320 -53q195 0 299 76q92 69 92 178q0 60 -33 108t-85.5 82t-116 66t-127 68.5t-116 80t-85.5 109.5t-33 149q0 170 121 275q132 114 381 114q82 0 180 -17.5
t176 -47.5l-45 -133q-69 22 -157.5 35.5t-159.5 13.5q-171 0 -252 -66q-72 -59 -72 -153q0 -58 33 -105.5t85.5 -83t116.5 -69t128 -70.5t116.5 -80.5t85.5 -107t33 -140.5q0 -186 -131 -301q-146 -131 -430 -131z" />
    <glyph glyph-name="scircumflex" unicode="&#x15d;" horiz-adv-x="856" 
d="M803 1147l-211 219l-287 -217l-59 59l293 301h141l184 -301zM322 -29q-79 0 -165.5 16.5t-140.5 39.5l29 131q143 -47 279 -47q123 0 193.5 44.5t70.5 118.5q0 39 -19.5 68.5t-51.5 48t-73 36.5t-83.5 33t-83.5 38.5t-73 52t-51.5 75t-19.5 105.5q0 142 108.5 221.5
t274.5 79.5q151 0 279 -41l-31 -127q-131 31 -244 31q-109 0 -171 -39.5t-62 -114.5q0 -39 25 -68.5t65.5 -50t89 -39.5t97 -43t89 -54.5t65.5 -80.5t25 -114q0 -107 -58 -180.5t-151 -106.5t-212 -33z" />
    <glyph glyph-name="Scedilla" unicode="&#x15e;" horiz-adv-x="1062" 
d="M381 -469q-73 0 -150 25l19 106q66 -16 131 -16q113 0 113 63q0 25 -31 43.5t-67.5 30t-67.5 38.5t-31 66q0 44 33 86q-174 10 -307 58l38 143q170 -53 320 -53q195 0 299 76q92 69 92 178q0 60 -33 108t-85.5 82t-116 66t-127 68.5t-116 80t-85.5 109.5t-33 149
q0 170 121 275q132 114 381 114q82 0 180 -17.5t176 -47.5l-45 -133q-69 22 -157.5 35.5t-159.5 13.5q-171 0 -252 -66q-72 -59 -72 -153q0 -58 33 -105.5t85.5 -83t116.5 -69t128 -70.5t116.5 -80.5t85.5 -107t33 -140.5q0 -186 -131 -301q-132 -117 -377 -129
q-6 -12 -6 -34q0 -19 20 -32.5t49 -25t57.5 -26.5t48.5 -45.5t20 -73.5q0 -86 -56 -142q-63 -63 -190 -63z" />
    <glyph glyph-name="scedilla" unicode="&#x15f;" horiz-adv-x="856" 
d="M299 -469q-72 0 -149 25l18 106q66 -16 131 -16q113 0 113 63q0 25 -31 43.5t-67.5 30t-67.5 38.5t-31 66q0 44 33 88q-142 13 -232 52l29 131q143 -47 279 -47q123 0 193.5 44.5t70.5 118.5q0 39 -19.5 68.5t-51.5 48t-73 36.5t-83.5 33t-83.5 38.5t-73 52t-51.5 75
t-19.5 105.5q0 142 108.5 221.5t274.5 79.5q151 0 279 -41l-31 -127q-131 31 -244 31q-109 0 -171 -39.5t-62 -114.5q0 -39 25 -68.5t65.5 -50t89 -39.5t97 -43t89 -54.5t65.5 -80.5t25 -114q0 -77 -30 -137t-83 -98.5t-122.5 -59t-151.5 -23.5q-6 -18 -6 -34
q0 -19 20 -32.5t49 -25t57.5 -26.5t48.5 -45.5t20 -73.5q0 -86 -56 -142q-63 -63 -190 -63z" />
    <glyph glyph-name="Scaron" unicode="&#x160;" horiz-adv-x="1062" 
d="M625 1559l-185 301l62 61l211 -219l286 217l60 -59l-293 -301h-141zM385 -29q-187 0 -362 60l38 143q170 -53 320 -53q195 0 299 76q92 69 92 178q0 60 -33 108t-85.5 82t-116 66t-127 68.5t-116 80t-85.5 109.5t-33 149q0 170 121 275q132 114 381 114q82 0 180 -17.5
t176 -47.5l-45 -133q-69 22 -157.5 35.5t-159.5 13.5q-171 0 -252 -66q-72 -59 -72 -153q0 -58 33 -105.5t85.5 -83t116.5 -69t128 -70.5t116.5 -80.5t85.5 -107t33 -140.5q0 -186 -131 -301q-146 -131 -430 -131z" />
    <glyph glyph-name="scaron" unicode="&#x161;" horiz-adv-x="856" 
d="M467 1169l-184 301l61 62l211 -219l287 217l59 -60l-293 -301h-141zM322 -29q-79 0 -165.5 16.5t-140.5 39.5l29 131q143 -47 279 -47q123 0 193.5 44.5t70.5 118.5q0 39 -19.5 68.5t-51.5 48t-73 36.5t-83.5 33t-83.5 38.5t-73 52t-51.5 75t-19.5 105.5
q0 142 108.5 221.5t274.5 79.5q151 0 279 -41l-31 -127q-131 31 -244 31q-109 0 -171 -39.5t-62 -114.5q0 -39 25 -68.5t65.5 -50t89 -39.5t97 -43t89 -54.5t65.5 -80.5t25 -114q0 -107 -58 -180.5t-151 -106.5t-212 -33z" />
    <glyph glyph-name="uni0162" unicode="&#x162;" horiz-adv-x="1144" 
d="M381 0l221 1257h-436l27 144h1062l-41 -144h-432l-221 -1257h-180zM348 -594l39 234q-72 15 -72 81q0 56 31 91.5t82 35.5h8q40 0 63 -18.5t23 -54.5q0 -27 -6 -54q-12 -64 -40 -157t-54 -158h-74z" />
    <glyph glyph-name="uni0163" unicode="&#x163;" horiz-adv-x="712" 
d="M358 -29q-109 0 -167 59t-58 163q0 37 17 137l96 549h-178l16 96l184 26l41 230q95 31 174 31l-47 -258h277l-23 -125h-276l-99 -555q-14 -75 -14 -113q0 -52 28.5 -76t94.5 -24q76 0 188 22l-14 -125q-136 -37 -240 -37zM225 -594l39 234q-71 15 -71 81q0 56 30.5 91.5
t81.5 35.5h8q40 0 63 -18.5t23 -54.5q0 -27 -6 -54q-12 -64 -40 -157t-54 -158h-74z" />
    <glyph glyph-name="Tcaron" unicode="&#x164;" horiz-adv-x="1144" 
d="M666 1559l-185 301l62 61l211 -219l286 217l60 -59l-293 -301h-141zM381 0l221 1257h-436l27 144h1062l-41 -144h-432l-221 -1257h-180z" />
    <glyph glyph-name="tcaron" unicode="&#x165;" horiz-adv-x="712" 
d="M610 1139l39 233q-71 15 -71 82q0 56 30.5 91.5t81.5 35.5h8q39 0 62.5 -19t23.5 -55q0 -26 -6 -53q-12 -64 -40 -157t-54 -158h-74zM358 -29q-109 0 -167 59t-58 163q0 37 17 137l96 549h-178l16 96l184 26l41 230q95 31 174 31l-47 -258h277l-23 -125h-276l-99 -555
q-14 -75 -14 -113q0 -52 28.5 -76t94.5 -24q76 0 188 22l-14 -125q-136 -37 -240 -37z" />
    <glyph glyph-name="Tbar" unicode="&#x166;" horiz-adv-x="1144" 
d="M381 0l106 604h-282l24 139h283l90 514h-436l27 144h1062l-41 -144h-432l-90 -514h283l-25 -139h-282l-107 -604h-180z" />
    <glyph glyph-name="tbar" unicode="&#x167;" horiz-adv-x="712" 
d="M358 -29q-109 0 -167 59t-58 163q0 37 17 137l24 143h-151l14 98l158 15l51 293h-178l16 96l184 26l41 230q95 31 174 31l-47 -258h277l-23 -125h-276l-52 -291h254l-16 -115h-258l-27 -149q-14 -75 -14 -113q0 -52 28.5 -76t94.5 -24q76 0 188 22l-14 -125
q-136 -37 -240 -37z" />
    <glyph glyph-name="Utilde" unicode="&#x168;" horiz-adv-x="1310" 
d="M633 1620l-90 16q18 107 72.5 160t132.5 53q56 0 143.5 -40t120.5 -40q68 0 94 82l90 -16q-18 -107 -72.5 -160t-132.5 -53q-56 0 -143.5 40t-120.5 40q-68 0 -94 -82zM575 -29q-199 0 -320.5 99t-121.5 284q0 68 23 199l149 848h180l-149 -844q-21 -126 -21 -180
q0 -126 73 -188t208 -62q173 0 274 106q83 83 119 289l156 879h164l-162 -914q-24 -134 -61 -215.5t-99 -146.5q-71 -74 -177.5 -114t-234.5 -40z" />
    <glyph glyph-name="utilde" unicode="&#x169;" horiz-adv-x="1103" 
d="M465 1231l-90 16q18 107 72.5 160t132.5 53q56 0 143.5 -40t120.5 -40q68 0 94 82l90 -16q-18 -107 -72.5 -160t-132.5 -53q-56 0 -143.5 40t-120.5 40q-68 0 -94 -82zM389 -29q-133 0 -212 70.5t-79 200.5q0 44 17 141l108 621h168l-110 -619q-13 -83 -13 -117
q0 -79 44 -113t130 -34q137 0 285 74l143 809h168l-137 -766q-14 -83 -14 -201v-37h-156l-6 80q-76 -51 -166 -80t-170 -29z" />
    <glyph glyph-name="Umacron" unicode="&#x16a;" horiz-adv-x="1310" 
d="M592 1640l24 138h525l-25 -138h-524zM575 -29q-199 0 -320.5 99t-121.5 284q0 68 23 199l149 848h180l-149 -844q-21 -126 -21 -180q0 -126 73 -188t208 -62q173 0 274 106q83 83 119 289l156 879h164l-162 -914q-24 -134 -61 -215.5t-99 -146.5q-71 -74 -177.5 -114
t-234.5 -40z" />
    <glyph glyph-name="umacron" unicode="&#x16b;" horiz-adv-x="1103" 
d="M422 1251l24 138h525l-25 -138h-524zM389 -29q-133 0 -212 70.5t-79 200.5q0 44 17 141l108 621h168l-110 -619q-13 -83 -13 -117q0 -79 44 -113t130 -34q137 0 285 74l143 809h168l-137 -766q-14 -83 -14 -201v-37h-156l-6 80q-76 -51 -166 -80t-170 -29z" />
    <glyph glyph-name="Ubreve" unicode="&#x16c;" horiz-adv-x="1310" 
d="M846 1563q-133 0 -197 76t-45 202l113 4q-3 -77 29.5 -116t107.5 -39q145 0 190 155l113 -4q-9 -123 -94 -199q-85 -79 -217 -79zM575 -29q-199 0 -320.5 99t-121.5 284q0 68 23 199l149 848h180l-149 -844q-21 -126 -21 -180q0 -126 73 -188t208 -62q173 0 274 106
q83 83 119 289l156 879h164l-162 -914q-24 -134 -61 -215.5t-99 -146.5q-71 -74 -177.5 -114t-234.5 -40z" />
    <glyph glyph-name="ubreve" unicode="&#x16d;" horiz-adv-x="1103" 
d="M664 1174q-133 0 -197 76t-45 202l113 4q-6 -156 137 -156q144 0 190 156l113 -4q-9 -123 -94 -199q-85 -79 -217 -79zM389 -29q-133 0 -212 70.5t-79 200.5q0 44 17 141l108 621h168l-110 -619q-13 -83 -13 -117q0 -79 44 -113t130 -34q137 0 285 74l143 809h168
l-137 -766q-14 -83 -14 -201v-37h-156l-6 80q-76 -51 -166 -80t-170 -29z" />
    <glyph glyph-name="Uring" unicode="&#x16e;" horiz-adv-x="1310" 
d="M838 1546q-92 0 -144.5 48t-52.5 126q0 140 67.5 209.5t194.5 69.5h10q92 0 144.5 -48t52.5 -126q0 -140 -67.5 -209.5t-194.5 -69.5h-10zM852 1651h8q137 0 137 159q0 41 -26 62.5t-72 21.5h-8q-137 0 -137 -159q0 -41 26 -62.5t72 -21.5zM575 -29q-199 0 -320.5 99
t-121.5 284q0 68 23 199l149 848h180l-149 -844q-21 -126 -21 -180q0 -126 73 -188t208 -62q173 0 274 106q83 83 119 289l156 879h164l-162 -914q-24 -134 -61 -215.5t-99 -146.5q-71 -74 -177.5 -114t-234.5 -40z" />
    <glyph glyph-name="uring" unicode="&#x16f;" horiz-adv-x="1103" 
d="M670 1157q-92 0 -144.5 48t-52.5 126q0 140 67.5 209.5t194.5 69.5h10q92 0 144.5 -48t52.5 -126q0 -140 -67.5 -209.5t-194.5 -69.5h-10zM684 1262h8q137 0 137 159q0 41 -26 62.5t-72 21.5h-8q-137 0 -137 -159q0 -41 26 -62.5t72 -21.5zM389 -29q-133 0 -212 70.5
t-79 200.5q0 44 17 141l108 621h168l-110 -619q-13 -83 -13 -117q0 -79 44 -113t130 -34q137 0 285 74l143 809h168l-137 -766q-14 -83 -14 -201v-37h-156l-6 80q-76 -51 -166 -80t-170 -29z" />
    <glyph glyph-name="Uhungarumlaut" unicode="&#x170;" horiz-adv-x="1310" 
d="M578 1546l-70 70l354 385l96 -115zM938 1546l-70 70l355 385l96 -115zM575 -29q-199 0 -320.5 99t-121.5 284q0 68 23 199l149 848h180l-149 -844q-21 -126 -21 -180q0 -126 73 -188t208 -62q173 0 274 106q83 83 119 289l156 879h164l-162 -914q-24 -134 -61 -215.5
t-99 -146.5q-71 -74 -177.5 -114t-234.5 -40z" />
    <glyph glyph-name="uhungarumlaut" unicode="&#x171;" horiz-adv-x="1103" 
d="M397 1157l-69 70l354 385l96 -115zM758 1157l-70 70l354 385l97 -115zM389 -29q-133 0 -212 70.5t-79 200.5q0 44 17 141l108 621h168l-110 -619q-13 -83 -13 -117q0 -79 44 -113t130 -34q137 0 285 74l143 809h168l-137 -766q-14 -83 -14 -201v-37h-156l-6 80
q-76 -51 -166 -80t-170 -29z" />
    <glyph glyph-name="Uogonek" unicode="&#x172;" horiz-adv-x="1310" 
d="M543 -455q-103 0 -156 47q-49 46 -49 121q0 144 164 262q-169 18 -269 115t-100 264q0 68 23 199l149 848h180l-149 -844q-21 -126 -21 -180q0 -126 73 -188t208 -62q173 0 274 106q83 83 119 289l156 879h164l-162 -914q-24 -134 -61 -215.5t-99 -146.5
q-128 -135 -352 -150q-154 -126 -154 -235q0 -80 101 -80q59 0 131 14l-21 -108q-74 -21 -149 -21z" />
    <glyph glyph-name="uogonek" unicode="&#x173;" horiz-adv-x="1103" 
d="M694 -455q-102 0 -155 47q-50 47 -50 121q0 169 240 310l-4 57q-76 -51 -166 -80t-170 -29q-133 0 -212 70.5t-79 200.5q0 44 17 141l108 621h168l-110 -619q-13 -83 -13 -117q0 -79 44 -113t130 -34q137 0 285 74l143 809h168l-137 -766q-14 -83 -14 -201v-37
q-80 0 -156 -76q-98 -98 -98 -184q0 -80 100 -80q59 0 131 14l-20 -108q-74 -21 -150 -21z" />
    <glyph glyph-name="Wcircumflex" unicode="&#x174;" horiz-adv-x="1775" 
d="M1325 1536l-211 219l-287 -217l-59 59l293 301h141l184 -301zM330 0l-150 1401h178l109 -1192h4l477 1192h178l91 -1184h4l493 1184h168l-602 -1401h-201l-84 1118h-4l-452 -1118h-209z" />
    <glyph glyph-name="wcircumflex" unicode="&#x175;" horiz-adv-x="1431" 
d="M1077 1147l-211 219l-286 -217l-60 59l293 301h141l185 -301zM217 0l-111 1004h166l76 -826l359 826h170l92 -836l348 836h164l-445 -1004h-194l-90 768l-340 -768h-195z" />
    <glyph glyph-name="Ycircumflex" unicode="&#x176;" horiz-adv-x="1155" 
d="M1018 1536l-211 219l-287 -217l-59 59l293 301h141l184 -301zM383 0l100 561l-309 840h184l240 -678l483 678h193l-612 -832l-101 -569h-178z" />
    <glyph glyph-name="ycircumflex" unicode="&#x177;" horiz-adv-x="1097" 
d="M909 1147l-211 219l-286 -217l-60 59l293 301h141l185 -301zM381 -489q-117 0 -213 26l8 133q106 -18 191 -18q157 0 225 74q64 67 90 213l23 127q-73 -44 -157.5 -69.5t-158.5 -25.5q-133 0 -212 70.5t-79 200.5q0 44 17 141l108 621h168l-110 -619q-13 -83 -13 -117
q0 -79 44 -113t130 -34q63 0 141 20.5t144 53.5l143 809h168l-190 -1082q-35 -194 -129 -295q-110 -116 -338 -116z" />
    <glyph glyph-name="Ydieresis" unicode="&#x178;" horiz-adv-x="1155" 
d="M563 1622q-86 0 -86 68q0 86 39 125q28 28 86 28h8q86 0 86 -67q0 -86 -39 -125q-29 -29 -86 -29h-8zM942 1622q-86 0 -86 68q0 86 39 125q28 28 86 28h8q86 0 86 -67q0 -86 -39 -125q-29 -29 -86 -29h-8zM383 0l100 561l-309 840h184l240 -678l483 678h193l-612 -832
l-101 -569h-178z" />
    <glyph glyph-name="Zacute" unicode="&#x179;" horiz-adv-x="1095" 
d="M580 1534l-58 90l410 320l80 -129zM-8 0l16 104l905 1153h-690l23 144h911l-16 -111l-901 -1147h702l-24 -143h-926z" />
    <glyph glyph-name="zacute" unicode="&#x17a;" horiz-adv-x="843" 
d="M397 1145l-57 90l410 319l79 -129zM-16 0l16 94l641 785h-498l21 125h704l-16 -101l-635 -778h508l-23 -125h-718z" />
    <glyph glyph-name="Zdotaccent" unicode="&#x17b;" horiz-adv-x="1095" 
d="M735 1597q-90 0 -90 72q0 93 41 131q28 31 90 31h10q91 0 91 -72q0 -93 -41 -131q-28 -31 -91 -31h-10zM-8 0l16 104l905 1153h-690l23 144h911l-16 -111l-901 -1147h702l-24 -143h-926z" />
    <glyph glyph-name="zdotaccent" unicode="&#x17c;" horiz-adv-x="843" 
d="M555 1208q-90 0 -90 72q0 93 41 131q28 31 90 31h10q90 0 90 -72q0 -93 -41 -131q-28 -31 -90 -31h-10zM-16 0l16 94l641 785h-498l21 125h704l-16 -101l-635 -778h508l-23 -125h-718z" />
    <glyph glyph-name="Zcaron" unicode="&#x17d;" horiz-adv-x="1095" 
d="M641 1559l-184 301l61 61l211 -219l287 217l59 -59l-293 -301h-141zM-8 0l16 104l905 1153h-690l23 144h911l-16 -111l-901 -1147h702l-24 -143h-926z" />
    <glyph glyph-name="zcaron" unicode="&#x17e;" horiz-adv-x="843" 
d="M461 1169l-185 301l62 62l211 -219l287 217l59 -60l-293 -301h-141zM-16 0l16 94l641 785h-498l21 125h704l-16 -101l-635 -778h508l-23 -125h-718z" />
    <glyph glyph-name="longs" unicode="&#x17f;" horiz-adv-x="657" 
d="M16 -461l236 1340h-178l16 96l184 26l25 140q34 187 123 270q95 88 270 88q98 0 191 -22l-21 -131q-102 12 -170 12q-105 0 -153 -45q-50 -47 -72 -170l-283 -1604h-168z" />
    <glyph glyph-name="florin" unicode="&#x192;" horiz-adv-x="1107" 
d="M33 -481q-78 0 -152 16l21 125q83 -10 133 -10q119 0 182 69q32 35 53 85t45 143l168 649h-225l16 92l238 23l96 381q53 212 152.5 309.5t290.5 97.5q77 0 151 -16l-20 -125q-83 10 -133 10q-119 0 -183 -70q-32 -35 -53 -85t-45 -142l-90 -356h256l-21 -119h-264
l-174 -670q-55 -213 -153.5 -310t-288.5 -97z" />
    <glyph glyph-name="uni01CD" unicode="&#x1cd;" horiz-adv-x="1183" 
d="M662 1559l-185 301l62 61l211 -219l286 217l60 -59l-293 -301h-141zM-57 0l675 1401h201l225 -1401h-178l-55 373h-514l-176 -373h-178zM365 516h426l-101 684h-2z" />
    <glyph glyph-name="uni01CE" unicode="&#x1ce;" 
d="M594 1169l-184 301l61 62l211 -219l287 217l59 -60l-293 -301h-141zM395 -29q-151 0 -234 112t-83 288q0 138 44.5 274t129.5 232q135 155 346 155q71 0 141.5 -26t122.5 -68l29 66h129l-137 -766q-15 -89 -15 -201v-37h-155l-8 72q-152 -101 -310 -101zM453 115
q61 0 131 23.5t125 58.5l112 630q-106 64 -221 64q-129 0 -219 -100q-62 -71 -96.5 -182t-34.5 -234q0 -260 203 -260z" />
    <glyph glyph-name="Aringacute" unicode="&#x1fa;" horiz-adv-x="1183" 
d="M662 1995l-58 90l410 319l80 -129zM733 1493q-92 0 -144 48t-52 126q0 140 67.5 209.5t194.5 69.5h10q92 0 144.5 -48t52.5 -126q0 -140 -68 -209.5t-195 -69.5h-10zM748 1597h8q137 0 137 160q0 41 -26 62.5t-72 21.5h-9q-137 0 -137 -160q0 -41 26.5 -62.5t72.5 -21.5z
M-57 0l675 1401h201l225 -1401h-178l-55 373h-514l-176 -373h-178zM365 516h426l-101 684h-2z" />
    <glyph glyph-name="aringacute" unicode="&#x1fb;" 
d="M582 1632l-58 90l410 320l80 -129zM645 1128q-92 0 -144 48.5t-52 126.5q0 140 67.5 209t194.5 69h10q92 0 144.5 -48t52.5 -126q0 -140 -68 -209.5t-195 -69.5h-10zM659 1233h9q137 0 137 160q0 41 -26 62.5t-72 21.5h-9q-137 0 -137 -160q0 -41 26 -62.5t72 -21.5z
M395 -29q-151 0 -234 112t-83 288q0 138 44.5 274t129.5 232q135 155 346 155q71 0 141.5 -26t122.5 -68l29 66h129l-137 -766q-15 -89 -15 -201v-37h-155l-8 72q-152 -101 -310 -101zM453 115q61 0 131 23.5t125 58.5l112 630q-106 64 -221 64q-129 0 -219 -100
q-62 -71 -96.5 -182t-34.5 -234q0 -260 203 -260z" />
    <glyph glyph-name="AEacute" unicode="&#x1fc;" horiz-adv-x="1808" 
d="M1276 1534l-57 90l409 320l80 -129zM-68 0l1049 1401h872l-41 -144h-587l-84 -473h479l-27 -149h-479l-88 -492h623l-27 -143h-801l66 373h-488l-274 -373h-193zM506 516h407l127 723h-2z" />
    <glyph glyph-name="aeacute" unicode="&#x1fd;" horiz-adv-x="1632" 
d="M807 1145l-57 90l409 319l80 -129zM401 -29q-158 0 -249 80.5t-91 218.5q0 120 70 193q103 106 363 106h221q24 85 24 144q0 96 -53 139t-178 43q-91 0 -272 -29l18 131q146 35 305 35q122 0 199.5 -32t118.5 -101q136 133 315 133q170 0 264 -104q94 -105 94 -289
q0 -69 -12 -139q-6 -35 -17 -45.5t-42 -10.5h-611q-2 -20 -2 -57q0 -138 70 -205q72 -69 244 -69q119 0 254 30l-11 -133q-156 -39 -288 -39q-244 0 -355 129q-185 -129 -379 -129zM883 569h495q6 41 6 74q0 120 -53 184q-54 64 -147 64q-111 0 -193 -88q-75 -81 -108 -234z
M428 109q75 0 156.5 26.5t136.5 65.5q-31 79 -31 184q0 45 2 59h-198q-153 0 -211 -47q-52 -43 -52 -123q0 -79 50.5 -122t146.5 -43z" />
    <glyph glyph-name="Oslashacute" unicode="&#x1fe;" horiz-adv-x="1298" 
d="M680 1534l-57 90l409 320l80 -129zM143 -152l123 224q-160 138 -160 424q0 204 71 411.5t196 341.5q167 178 413 178q114 0 201 -38l88 161h139l-122 -225q157 -139 157 -422q0 -204 -70.5 -411.5t-195.5 -341.5q-168 -179 -414 -179q-108 0 -200 37l-86 -160h-140z
M356 238l551 1005q-60 29 -129 29q-193 0 -319 -187q-76 -114 -120 -279.5t-44 -318.5q0 -155 61 -249zM578 127q194 0 319 186q76 114 120 279.5t44 318.5t-62 248l-550 -1005q62 -27 129 -27z" />
    <glyph glyph-name="oslashacute" unicode="&#x1ff;" horiz-adv-x="1073" 
d="M498 1145l-58 90l410 319l80 -129zM125 -158l102 193q-155 106 -155 340q0 151 48.5 285t135.5 223q146 149 360 149q76 0 134 -18l79 147h129l-106 -198q73 -52 111 -138t38 -196q0 -151 -48.5 -285t-135.5 -223q-147 -150 -360 -150q-62 0 -125 17l-78 -146h-129z
M309 184l367 690q-37 13 -74 13q-141 0 -231 -111q-60 -72 -91.5 -175t-31.5 -214q0 -133 61 -203zM471 117q141 0 231 110q60 72 91.5 175t31.5 214q0 123 -55 193l-367 -684q27 -8 68 -8z" />
    <glyph glyph-name="Scommaaccent" unicode="&#x218;" horiz-adv-x="1062" 
d="M385 -29q-187 0 -362 60l38 143q170 -53 320 -53q195 0 299 76q92 69 92 178q0 60 -33 108t-85.5 82t-116 66t-127 68.5t-116 80t-85.5 109.5t-33 149q0 170 121 275q132 114 381 114q82 0 180 -17.5t176 -47.5l-45 -133q-69 22 -157.5 35.5t-159.5 13.5q-171 0 -252 -66
q-72 -59 -72 -153q0 -58 33 -105.5t85.5 -83t116.5 -69t128 -70.5t116.5 -80.5t85.5 -107t33 -140.5q0 -186 -131 -301q-146 -131 -430 -131zM307 -594l39 234q-72 15 -72 81q0 56 31 91.5t82 35.5h8q40 0 63 -18.5t23 -54.5q0 -27 -6 -54q-12 -64 -40 -157t-54 -158h-74z
" />
    <glyph glyph-name="scommaaccent" unicode="&#x219;" horiz-adv-x="856" 
d="M322 -29q-79 0 -165.5 16.5t-140.5 39.5l29 131q143 -47 279 -47q123 0 193.5 44.5t70.5 118.5q0 39 -19.5 68.5t-51.5 48t-73 36.5t-83.5 33t-83.5 38.5t-73 52t-51.5 75t-19.5 105.5q0 142 108.5 221.5t274.5 79.5q151 0 279 -41l-31 -127q-131 31 -244 31
q-109 0 -171 -39.5t-62 -114.5q0 -39 25 -68.5t65.5 -50t89 -39.5t97 -43t89 -54.5t65.5 -80.5t25 -114q0 -107 -58 -180.5t-151 -106.5t-212 -33zM207 -594l39 234q-72 15 -72 81q0 56 31 91.5t82 35.5h8q40 0 63 -18.5t23 -54.5q0 -27 -6 -54q-12 -64 -40 -157t-54 -158
h-74z" />
    <glyph glyph-name="uni021A" unicode="&#x21a;" horiz-adv-x="1144" 
d="M381 0l221 1257h-436l27 144h1062l-41 -144h-432l-221 -1257h-180zM348 -594l39 234q-72 15 -72 81q0 56 31 91.5t82 35.5h8q40 0 63 -18.5t23 -54.5q0 -27 -6 -54q-12 -64 -40 -157t-54 -158h-74z" />
    <glyph glyph-name="uni021B" unicode="&#x21b;" horiz-adv-x="712" 
d="M358 -29q-109 0 -167 59t-58 163q0 37 17 137l96 549h-178l16 96l184 26l41 230q95 31 174 31l-47 -258h277l-23 -125h-276l-99 -555q-14 -75 -14 -113q0 -52 28.5 -76t94.5 -24q76 0 188 22l-14 -125q-136 -37 -240 -37zM225 -594l39 234q-71 15 -71 81q0 56 30.5 91.5
t81.5 35.5h8q40 0 63 -18.5t23 -54.5q0 -27 -6 -54q-12 -64 -40 -157t-54 -158h-74z" />
    <glyph glyph-name="uni0237" unicode="&#x237;" horiz-adv-x="473" 
d="M-287 -483l6 133q95 4 150 22.5t92 53.5q33 31 55.5 86.5t40.5 154.5l185 1037h168l-181 -1014q-27 -154 -59.5 -230.5t-89.5 -132.5q-116 -110 -367 -110z" />
    <glyph glyph-name="circumflex" unicode="&#x2c6;" horiz-adv-x="823" 
d="M659 1147l-210 219l-287 -217l-60 59l293 301h142l184 -301z" />
    <glyph glyph-name="caron" unicode="&#x2c7;" horiz-adv-x="823" 
d="M287 1169l-185 301l62 62l211 -219l287 217l59 -60l-293 -301h-141z" />
    <glyph glyph-name="breve" unicode="&#x2d8;" horiz-adv-x="823" 
d="M379 1174q-133 0 -197 76t-45 202l113 4q-6 -156 137 -156q145 0 191 156l112 -4q-9 -123 -94 -199q-85 -79 -217 -79z" />
    <glyph glyph-name="dotaccent" unicode="&#x2d9;" horiz-adv-x="823" 
d="M385 1208q-90 0 -90 72q0 93 41 131q28 31 90 31h10q90 0 90 -72q0 -93 -41 -131q-28 -31 -90 -31h-10z" />
    <glyph glyph-name="ring" unicode="&#x2da;" horiz-adv-x="823" 
d="M373 1157q-92 0 -144.5 48t-52.5 126q0 140 67.5 209.5t194.5 69.5h11q92 0 144 -48t52 -126q0 -140 -67.5 -209.5t-194.5 -69.5h-10zM387 1262h8q137 0 137 159q0 41 -26 62.5t-72 21.5h-8q-137 0 -137 -159q0 -41 26 -62.5t72 -21.5z" />
    <glyph glyph-name="ogonek" unicode="&#x2db;" horiz-adv-x="823" 
d="M428 -455q-103 0 -156 47q-49 46 -49 121q0 90 66 171.5t190 146.5h121q-111 -71 -172 -148.5t-61 -142.5q0 -80 100 -80q59 0 131 14l-20 -108q-74 -21 -150 -21z" />
    <glyph glyph-name="tilde" unicode="&#x2dc;" horiz-adv-x="823" 
d="M174 1231l-90 16q18 107 72.5 160t132.5 53q56 0 143.5 -40t120.5 -40q68 0 94 82l90 -16q-18 -107 -72.5 -160t-132.5 -53q-56 0 -143.5 40t-120.5 40q-68 0 -94 -82z" />
    <glyph glyph-name="hungarumlaut" unicode="&#x2dd;" horiz-adv-x="823" 
d="M76 1157l-70 70l354 385l97 -115zM436 1157l-69 70l354 385l96 -115z" />
    <glyph glyph-name="gravecomb" unicode="&#x300;" horiz-adv-x="0" 
d="M-231 1145l-334 280l102 115l299 -319z" />
    <glyph glyph-name="acutecomb" unicode="&#x301;" horiz-adv-x="0" 
d="M-596 1145l-57 90l409 319l80 -129z" />
    <glyph glyph-name="uni0302" unicode="&#x302;" horiz-adv-x="0" 
d="M-164 1147l-211 219l-287 -217l-59 59l293 301h141l185 -301z" />
    <glyph glyph-name="tildecomb" unicode="&#x303;" horiz-adv-x="0" 
d="M-649 1231l-90 16q18 107 72 160t132 53q56 0 144 -40t121 -40q68 0 94 82l90 -16q-18 -107 -72.5 -160t-132.5 -53q-56 0 -143.5 40t-120.5 40q-68 0 -94 -82z" />
    <glyph glyph-name="uni0304" unicode="&#x304;" horiz-adv-x="0" 
d="M-686 1251l24 138h525l-25 -138h-524z" />
    <glyph glyph-name="uni0306" unicode="&#x306;" horiz-adv-x="0" 
d="M-444 1174q-133 0 -197 76t-45 202l113 4q-6 -156 137 -156q144 0 190 156l113 -4q-9 -123 -94 -199q-85 -79 -217 -79z" />
    <glyph glyph-name="uni0307" unicode="&#x307;" horiz-adv-x="0" 
d="M-438 1208q-90 0 -90 72q0 93 41 131q28 31 90 31h10q90 0 90 -72q0 -93 -41 -131q-28 -31 -90 -31h-10z" />
    <glyph glyph-name="uni0308" unicode="&#x308;" horiz-adv-x="0" 
d="M-623 1245q-86 0 -86 68q0 86 39 125q28 28 86 28h9q86 0 86 -67q0 -86 -39 -125q-29 -29 -86 -29h-9zM-244 1245q-86 0 -86 68q0 86 39 125q28 28 86 28h8q86 0 86 -67q0 -86 -39 -125q-29 -29 -86 -29h-8z" />
    <glyph glyph-name="uni030A" unicode="&#x30a;" horiz-adv-x="0" 
d="M-451 1157q-92 0 -144 48t-52 126q0 140 67.5 209.5t194.5 69.5h10q92 0 144.5 -48t52.5 -126q0 -140 -67.5 -209.5t-194.5 -69.5h-11zM-436 1262h8q137 0 137 159q0 41 -26 62.5t-72 21.5h-8q-138 0 -138 -159q0 -41 26.5 -62.5t72.5 -21.5z" />
    <glyph glyph-name="uni030B" unicode="&#x30b;" horiz-adv-x="0" 
d="M-748 1157l-69 70l354 385l96 -115zM-387 1157l-70 70l355 385l96 -115z" />
    <glyph glyph-name="uni030C" unicode="&#x30c;" horiz-adv-x="0" 
d="M-537 1169l-184 301l62 62l210 -219l287 217l60 -60l-293 -301h-142z" />
    <glyph glyph-name="uni0326" unicode="&#x326;" horiz-adv-x="0" 
d="M-483 -594l39 234q-72 15 -72 81q0 56 31 91.5t82 35.5h8q40 0 63 -18.5t23 -54.5q0 -27 -6 -54q-28 -150 -95 -315h-73z" />
    <glyph glyph-name="uni0327" unicode="&#x327;" horiz-adv-x="0" 
d="M-481 -469q-73 0 -150 25l19 106q66 -16 131 -16q112 0 112 63q0 25 -30.5 43.5t-67.5 30t-67.5 38.5t-30.5 66q0 65 73 127h93q-31 -44 -31 -75q0 -19 20 -32.5t48.5 -25t57 -26.5t48.5 -45.5t20 -73.5q0 -87 -55 -142q-63 -63 -190 -63z" />
    <glyph glyph-name="uni0328" unicode="&#x328;" horiz-adv-x="0" 
d="M-395 -455q-103 0 -156 47q-49 46 -49 121q0 90 66 171.5t190 146.5h121q-111 -71 -172.5 -148.5t-61.5 -142.5q0 -80 101 -80q59 0 131 14l-21 -108q-74 -21 -149 -21z" />
    <glyph glyph-name="uni0394" unicode="&#x394;" horiz-adv-x="1255" 
d="M-12 0l10 66q7 43 37 102l635 1233h202l220 -1233q4 -28 4 -53q0 -42 -6 -72l-9 -43h-1093zM195 133h727l-181 1088z" />
    <glyph glyph-name="uni03A9" unicode="&#x3a9;" horiz-adv-x="1363" 
d="M66 0l22 135h262q-94 83 -145 207.5t-51 269.5q0 196 60.5 361t168.5 276q178 178 457 178q218 0 338 -132.5t120 -364.5q0 -251 -113 -459.5t-313 -335.5h263l-23 -135h-450l14 86q5 25 15.5 40t43.5 42q182 145 282.5 344.5t100.5 417.5q0 168 -80 256t-227 88
q-175 0 -295 -123q-80 -83 -132 -229t-52 -310q0 -258 168 -444q23 -26 28 -42t2 -40l-14 -86h-450z" />
    <glyph glyph-name="uni03BC" unicode="&#x3bc;" horiz-adv-x="1116" 
d="M-18 -461l258 1465h166l-111 -619q-12 -77 -12 -117q0 -79 44.5 -114t129.5 -35q132 0 284 76l144 809h166l-136 -766q-14 -83 -14 -201v-37h-156l-6 80q-76 -51 -166 -80t-170 -29q-104 0 -172 41l-84 -473h-165z" />
    <glyph glyph-name="pi" unicode="&#x3c0;" horiz-adv-x="1239" 
d="M129 0l154 874h-166l22 123h1133l-23 -123h-166l-153 -874h-166l154 874h-469l-154 -874h-166z" />
    <glyph glyph-name="Wgrave" unicode="&#x1e80;" horiz-adv-x="1775" 
d="M1233 1534l-334 281l102 114l299 -319zM330 0l-150 1401h178l109 -1192h4l477 1192h178l91 -1184h4l493 1184h168l-602 -1401h-201l-84 1118h-4l-452 -1118h-209z" />
    <glyph glyph-name="wgrave" unicode="&#x1e81;" horiz-adv-x="1431" 
d="M997 1145l-333 280l102 115l299 -319zM217 0l-111 1004h166l76 -826l359 826h170l92 -836l348 836h164l-445 -1004h-194l-90 768l-340 -768h-195z" />
    <glyph glyph-name="Wacute" unicode="&#x1e82;" horiz-adv-x="1775" 
d="M915 1534l-57 90l410 320l80 -129zM330 0l-150 1401h178l109 -1192h4l477 1192h178l91 -1184h4l493 1184h168l-602 -1401h-201l-84 1118h-4l-452 -1118h-209z" />
    <glyph glyph-name="wacute" unicode="&#x1e83;" horiz-adv-x="1431" 
d="M678 1145l-57 90l409 319l80 -129zM217 0l-111 1004h166l76 -826l359 826h170l92 -836l348 836h164l-445 -1004h-194l-90 768l-340 -768h-195z" />
    <glyph glyph-name="Wdieresis" unicode="&#x1e84;" horiz-adv-x="1775" 
d="M870 1622q-86 0 -86 68q0 86 39 125q28 28 86 28h9q86 0 86 -67q0 -86 -39 -125q-29 -29 -86 -29h-9zM1249 1622q-86 0 -86 68q0 86 39 125q28 28 86 28h8q86 0 86 -67q0 -86 -39 -125q-29 -29 -86 -29h-8zM330 0l-150 1401h178l109 -1192h4l477 1192h178l91 -1184h4
l493 1184h168l-602 -1401h-201l-84 1118h-4l-452 -1118h-209z" />
    <glyph glyph-name="wdieresis" unicode="&#x1e85;" horiz-adv-x="1431" 
d="M653 1245q-86 0 -86 68q0 86 39 125q28 28 86 28h8q86 0 86 -67q0 -87 -38 -125q-29 -29 -86 -29h-9zM1032 1245q-86 0 -86 68q0 86 39 125q28 28 86 28h8q86 0 86 -67q0 -86 -39 -125q-29 -29 -86 -29h-8zM217 0l-111 1004h166l76 -826l359 826h170l92 -836l348 836h164
l-445 -1004h-194l-90 768l-340 -768h-195z" />
    <glyph glyph-name="Ygrave" unicode="&#x1ef2;" horiz-adv-x="1155" 
d="M844 1534l-334 281l102 114l299 -319zM383 0l100 561l-309 840h184l240 -678l483 678h193l-612 -832l-101 -569h-178z" />
    <glyph glyph-name="ygrave" unicode="&#x1ef3;" horiz-adv-x="1097" 
d="M764 1145l-334 280l102 115l299 -319zM381 -489q-117 0 -213 26l8 133q106 -18 191 -18q157 0 225 74q64 67 90 213l23 127q-73 -44 -157.5 -69.5t-158.5 -25.5q-133 0 -212 70.5t-79 200.5q0 44 17 141l108 621h168l-110 -619q-13 -83 -13 -117q0 -79 44 -113t130 -34
q63 0 141 20.5t144 53.5l143 809h168l-190 -1082q-35 -194 -129 -295q-110 -116 -338 -116z" />
    <glyph glyph-name="endash" unicode="&#x2013;" horiz-adv-x="1024" 
d="M-12 459l26 145h1018l-26 -145h-1018z" />
    <glyph glyph-name="emdash" unicode="&#x2014;" horiz-adv-x="2048" 
d="M-12 459l26 145h2042l-26 -145h-2042z" />
    <glyph glyph-name="quoteleft" unicode="&#x2018;" horiz-adv-x="438" 
d="M313 938q-88 0 -88 82q0 29 6 59q13 71 44.5 172t62.5 176h78l-45 -256q75 -17 75 -88q0 -35 -11 -66.5t-27 -47.5q-31 -31 -84 -31h-11z" />
    <glyph glyph-name="quoteright" unicode="&#x2019;" horiz-adv-x="438" 
d="M215 938l45 256q-76 17 -76 88q0 35 11.5 67t27.5 48q30 30 84 30h10q89 0 89 -81q0 -25 -7 -60q-13 -72 -44 -173t-62 -175h-78z" />
    <glyph glyph-name="quotesinglbase" unicode="&#x201a;" horiz-adv-x="438" 
d="M27 -313l45 256q-76 17 -76 88q0 35 11.5 66.5t27.5 47.5q31 31 84 31h10q88 0 88 -82q0 -29 -6 -59q-13 -71 -44.5 -172t-62.5 -176h-77z" />
    <glyph glyph-name="quotedblleft" unicode="&#x201c;" horiz-adv-x="772" 
d="M313 938q-88 0 -88 82q0 29 6 59q13 71 44.5 172t62.5 176h78l-45 -256q75 -17 75 -88q0 -35 -11 -66.5t-27 -47.5q-31 -31 -84 -31h-11zM647 938q-88 0 -88 82q0 29 6 59q13 71 44.5 172t62.5 176h78l-45 -256q75 -17 75 -88q0 -35 -11.5 -66.5t-27.5 -47.5
q-31 -31 -84 -31h-10z" />
    <glyph glyph-name="quotedblright" unicode="&#x201d;" horiz-adv-x="772" 
d="M215 938l45 256q-76 17 -76 88q0 35 11.5 67t27.5 48q30 30 84 30h10q89 0 89 -81q0 -25 -7 -60q-13 -72 -44 -173t-62 -175h-78zM549 938l45 256q-76 17 -76 88q0 35 11.5 67t27.5 48q30 30 84 30h10q88 0 88 -81q0 -30 -6 -60q-13 -72 -44 -173t-62 -175h-78z" />
    <glyph glyph-name="quotedblbase" unicode="&#x201e;" horiz-adv-x="772" 
d="M27 -313l45 256q-76 17 -76 88q0 35 11.5 66.5t27.5 47.5q31 31 84 31h10q88 0 88 -82q0 -29 -6 -59q-13 -71 -44.5 -172t-62.5 -176h-77zM360 -313l46 256q-76 17 -76 88q0 35 11.5 66.5t27.5 47.5q31 31 84 31h10q88 0 88 -82q0 -29 -6 -59q-13 -71 -44.5 -172
t-62.5 -176h-78z" />
    <glyph glyph-name="dagger" unicode="&#x2020;" horiz-adv-x="1034" 
d="M240 -485l235 1259l-385 -18l27 159l381 -22l65 508h170l-106 -508l387 22l-27 -159l-383 18l-198 -1259h-166z" />
    <glyph glyph-name="daggerdbl" unicode="&#x2021;" horiz-adv-x="1034" 
d="M238 -485l106 508l-387 -23l27 160l383 -19l108 633l-385 -18l27 159l381 -22l65 508h170l-106 -508l387 22l-27 -159l-383 18l-108 -633l385 19l-27 -160l-381 23l-65 -508h-170z" />
    <glyph glyph-name="bullet" unicode="&#x2022;" horiz-adv-x="724" 
d="M330 438q-101 0 -150.5 42t-46.5 136q0 85 25 160t65 115q67 67 197 67h35q100 0 148 -41.5t48 -136.5q0 -85 -25 -159.5t-65 -114.5q-68 -68 -196 -68h-35z" />
    <glyph glyph-name="ellipsis" unicode="&#x2026;" horiz-adv-x="1363" 
d="M133 -29q-84 0 -84 76q0 84 39 123q31 31 84 31h14q84 0 84 -76q0 -84 -39 -123q-31 -31 -84 -31h-14zM588 -29q-84 0 -84 76q0 84 39 123q31 31 84 31h14q84 0 84 -76q0 -84 -39 -123q-31 -31 -84 -31h-14zM1042 -29q-84 0 -84 76q0 84 39 123q31 31 84 31h15
q84 0 84 -76q0 -84 -39 -123q-31 -31 -84 -31h-15z" />
    <glyph glyph-name="perthousand" unicode="&#x2030;" horiz-adv-x="2650" 
d="M461 627q-129 0 -209 86t-80 231q0 93 27 179t76 154t125.5 109t168.5 41q129 0 209 -86t80 -231q0 -93 -27 -179t-76 -154t-125.5 -109t-168.5 -41zM426 -37l958 1456h160l-958 -1456h-160zM471 758q99 0 162 84q76 103 76 264q0 93 -41.5 141.5t-108.5 48.5
q-99 0 -162 -84q-75 -102 -75 -264q0 -93 41 -141.5t108 -48.5zM1339 -29q-129 0 -208.5 86.5t-79.5 231.5q0 93 27 179t76 154t125.5 109t168.5 41q129 0 209 -86t80 -231q0 -125 -45.5 -233.5t-138 -179.5t-214.5 -71zM2138 -29q-129 0 -209 86.5t-80 231.5
q0 125 45.5 233.5t138 179t214.5 70.5q129 0 208.5 -86t79.5 -231q0 -125 -45 -233.5t-137.5 -179.5t-214.5 -71zM1350 102q98 0 161 84q38 51 57 122.5t19 142.5q0 93 -41 141.5t-108 48.5q-99 0 -162 -84q-76 -103 -76 -264q0 -93 41.5 -142t108.5 -49zM2148 102
q99 0 162 84q38 51 57 122.5t19 142.5q0 93 -41.5 141.5t-108.5 48.5q-98 0 -161 -84q-76 -103 -76 -264q0 -93 41 -142t108 -49z" />
    <glyph glyph-name="guilsinglleft" unicode="&#x2039;" horiz-adv-x="671" 
d="M381 113l-211 307q-43 60 -43 100q0 31 16.5 59t65.5 74l317 308l76 -76l-307 -348l176 -359z" />
    <glyph glyph-name="guilsinglright" unicode="&#x203a;" horiz-adv-x="671" 
d="M141 113l-75 75l307 349l-176 358l90 66l211 -308q43 -60 43 -100q0 -31 -16.5 -59t-65.5 -74z" />
    <glyph glyph-name="fraction" unicode="&#x2044;" horiz-adv-x="815" 
d="M-123 -29l959 1456h159l-958 -1456h-160z" />
    <glyph glyph-name="Euro" unicode="&#x20ac;" horiz-adv-x="1107" 
d="M698 -29q-124 0 -214.5 37.5t-144 108t-77 164.5t-18.5 213h-170l16 94l162 18q3 37 18 125h-155l16 94l168 19q77 280 248.5 431.5t417.5 151.5q131 0 243 -38l-24 -129q-124 28 -217 28q-189 0 -316 -122.5t-182 -317.5h399l-20 -117h-408q-14 -85 -18 -121h405
l-20 -116h-391q-6 -189 66 -286t249 -97q104 0 283 39l-21 -132q-146 -47 -295 -47z" />
    <glyph glyph-name="uni2113" unicode="&#x2113;" horiz-adv-x="468" 
d="M61 0l258 1464h168l-258 -1464h-168z" />
    <glyph glyph-name="uni2116" unicode="&#x2116;" horiz-adv-x="2144" 
d="M96 0l248 1401h135l543 -1100l195 1100h163l-247 -1401h-136l-542 1100l-195 -1100h-164zM1706 485q-147 0 -230 86.5t-83 225.5q0 199 116 321q107 113 281 113q147 0 230 -86t83 -225q0 -200 -116 -322q-107 -113 -281 -113zM1716 612q110 0 175 86t65 217
q0 89 -48 139t-128 50q-110 0 -175 -86t-65 -217q0 -89 48 -139t128 -50z" />
    <glyph glyph-name="trademark" unicode="&#x2122;" horiz-adv-x="1361" 
d="M250 739l96 557h-194l18 105h524l-18 -105h-195l-96 -557h-135zM674 739l114 662h115l129 -406l271 406h120l-114 -662h-121l72 422l-213 -323h-82l-101 327l-73 -426h-117z" />
    <glyph glyph-name="uni2126" unicode="&#x2126;" horiz-adv-x="1363" 
d="M66 0l22 135h262q-94 83 -145 207.5t-51 269.5q0 196 60.5 361t168.5 276q178 178 457 178q218 0 338 -132.5t120 -364.5q0 -251 -113 -459.5t-313 -335.5h263l-23 -135h-450l14 86q5 25 15.5 40t43.5 42q182 145 282.5 344.5t100.5 417.5q0 168 -80 256t-227 88
q-175 0 -295 -123q-80 -83 -132 -229t-52 -310q0 -258 168 -444q23 -26 28 -42t2 -40l-14 -86h-450z" />
    <glyph glyph-name="estimated" unicode="&#x212e;" horiz-adv-x="1871" 
d="M967 -29q-221 0 -408.5 97t-297 264.5t-109.5 365.5q0 199 109.5 367t297 265t408.5 97q164 0 313.5 -57.5t259 -154.5t174 -232.5t64.5 -284.5v-16h-1315q-14 0 -14 -12v-398q0 -22 22 -47q94 -98 223.5 -153.5t274.5 -55.5q155 0 290.5 63.5t229.5 174.5h121
q-117 -131 -285 -207t-358 -76zM463 721h1003q15 0 15 12v402q0 24 -25 49q-95 95 -221.5 147.5t-265.5 52.5q-146 0 -273.5 -54t-224.5 -152q-22 -25 -22 -54v-391q0 -12 14 -12z" />
    <glyph glyph-name="partialdiff" unicode="&#x2202;" horiz-adv-x="1107" 
d="M477 -29q-186 0 -288.5 110t-102.5 286q0 103 31.5 192.5t90 156t149 104.5t202.5 38q163 0 328 -88q10 120 10 184q0 185 -72 263q-35 38 -89 55.5t-144 17.5q-85 0 -180 -10l22 125q77 22 178 22q214 0 322 -108q121 -121 121 -363q0 -226 -51 -442.5t-162 -357.5
q-144 -185 -365 -185zM485 109q69 0 130.5 34.5t105.5 94.5q103 136 149 409q-59 23 -93.5 35.5t-94 24.5t-115.5 12q-154 0 -235.5 -93t-81.5 -257q0 -132 61.5 -197t173.5 -63z" />
    <glyph glyph-name="uni2206" unicode="&#x2206;" horiz-adv-x="1255" 
d="M-12 0l10 66q7 43 37 102l635 1233h202l220 -1233q4 -28 4 -53q0 -42 -6 -72l-9 -43h-1093zM195 133h727l-181 1088z" />
    <glyph glyph-name="product" unicode="&#x220f;" horiz-adv-x="1458" 
d="M88 -461l303 1725h-180l25 137h1265l-24 -137h-181l-303 -1725h-178l303 1725h-549l-303 -1725h-178z" />
    <glyph glyph-name="summation" unicode="&#x2211;" horiz-adv-x="1230" 
d="M-41 -461l21 119l739 817l-451 807l21 119h971l-25 -135h-776l448 -803l-706 -780h766l-25 -144h-983z" />
    <glyph glyph-name="minus" unicode="&#x2212;" 
d="M225 610l23 129h667l-22 -129h-668z" />
    <glyph glyph-name="radical" unicode="&#x221a;" horiz-adv-x="1316" 
d="M518 0l-168 879h-141l22 125h252l154 -822l651 1315h156l-748 -1497h-178z" />
    <glyph glyph-name="infinity" unicode="&#x221e;" horiz-adv-x="1378" 
d="M932 330q-168 0 -234 192q-156 -188 -327 -188q-117 0 -178.5 75t-61.5 216q0 89 33.5 177.5t93.5 151.5q97 105 246 105q168 0 239 -189q152 187 322 187q112 0 176 -78t64 -211q0 -91 -34.5 -184.5t-90.5 -151.5q-94 -102 -248 -102zM965 477q85 0 141.5 80t56.5 205
q0 74 -34.5 113.5t-98.5 39.5q-61 0 -119.5 -36t-132.5 -125q37 -144 61 -190q45 -86 126 -87zM406 473q62 0 123 39t133 129q-27 108 -57.5 169t-60.5 81t-71 20q-71 0 -121 -53q-37 -39 -59.5 -99.5t-22.5 -127.5q0 -78 36.5 -118t99.5 -40z" />
    <glyph glyph-name="integral" unicode="&#x222b;" horiz-adv-x="1044" 
d="M113 -489q-79 0 -162 14l22 129q55 -10 109 -10q120 0 167.5 46.5t72.5 184.5l219 1231q25 142 54.5 216.5t72.5 115.5q85 82 254 82q72 0 161 -15l-22 -129q-52 10 -109 10q-119 0 -166.5 -46t-72.5 -185l-219 -1231q-25 -142 -54.5 -216.5t-72.5 -115.5
q-84 -81 -254 -81z" />
    <glyph glyph-name="approxequal" unicode="&#x2248;" 
d="M758 766q-61 0 -172 39t-150 39q-30 0 -49.5 -16t-32.5 -54l-86 12q43 183 183 183q60 0 170 -38t151 -38q30 0 49.5 15.5t32.5 52.5l86 -15q-42 -180 -182 -180zM692 389q-61 0 -171.5 39t-149.5 39q-30 0 -49.5 -16t-32.5 -54l-86 13q43 182 182 182q60 0 170.5 -38
t151.5 -38q30 0 49 15.5t32 52.5l86 -15q-42 -180 -182 -180z" />
    <glyph glyph-name="notequal" unicode="&#x2260;" horiz-adv-x="1814" 
d="M1659 788l-31 -174h-610l-109 -614h-182l109 614h-609l31 174h608l107 613h182l-106 -613h610z" />
    <glyph glyph-name="lessequal" unicode="&#x2264;" 
d="M836 268l-609 338l25 139l727 340l-27 -153l-569 -262l479 -256zM123 0l22 129h668l-22 -129h-668z" />
    <glyph glyph-name="greaterequal" unicode="&#x2265;" 
d="M172 268l27 158l569 256l-479 262l26 141l607 -340l-25 -139zM123 0l22 129h668l-22 -129h-668z" />
    <glyph glyph-name="lozenge" unicode="&#x25ca;" horiz-adv-x="1148" 
d="M389 0l-252 573q-26 62 -26 103q0 30 14 60t57 85l455 580h180l252 -574q27 -65 27 -102q0 -32 -15.5 -63t-56.5 -82l-455 -580h-180zM487 117l476 606l-244 561l-475 -606z" />
    <glyph glyph-name="uniF8FF" unicode="&#xf8ff;" horiz-adv-x="1241" 
d="M205 0v1401h831v-135h-692v-1127h154v-139h-293zM481 430v137h420v142h-420v415h555v-139h-413v-137h413v-418h-555z" />
    <glyph glyph-name="i.loclTRK" horiz-adv-x="471" 
d="M354 1208q-90 0 -90 72q0 93 41 131q28 31 90 31h11q90 0 90 -72q0 -93 -41 -131q-28 -31 -90 -31h-11zM63 0l179 1004h166l-179 -1004h-166z" />
    <glyph glyph-name="notequal.ss01" 
d="M264 139l146 287h-185l23 129h227l123 240h-309l22 129h353l147 288h131l-147 -288h184l-23 -129h-227l-123 -240h309l-22 -129h-352l-146 -287h-131z" />
    <glyph glyph-name="plus.ss01" horiz-adv-x="1814" 
d="M1659 788l-31 -174h-610l-109 -614h-182l109 614h-609l31 174h608l107 613h182l-106 -613h610z" />
    <glyph glyph-name="uni0308.case" horiz-adv-x="0" 
d="M-598 1622q-86 0 -86 68q0 86 39 125q28 28 86 28h8q86 0 86 -67q0 -86 -39 -125q-29 -29 -86 -29h-8zM-219 1622q-86 0 -86 68q0 86 39 125q28 28 86 28h8q86 0 86 -67q0 -86 -39 -125q-29 -29 -86 -29h-8z" />
    <glyph glyph-name="uni0307.case" horiz-adv-x="0" 
d="M-410 1597q-90 0 -90 72q0 93 41 131q28 31 90 31h11q90 0 90 -72q0 -93 -41 -131q-28 -31 -90 -31h-11z" />
    <glyph glyph-name="gravecomb.case" horiz-adv-x="0" 
d="M-203 1534l-334 281l103 114l299 -319z" />
    <glyph glyph-name="acutecomb.case" horiz-adv-x="0" 
d="M-567 1534l-58 90l410 320l80 -129z" />
    <glyph glyph-name="uni030B.case" horiz-adv-x="0" 
d="M-719 1546l-69 70l354 385l96 -115zM-358 1546l-70 70l354 385l97 -115z" />
    <glyph glyph-name="uni0302.case" horiz-adv-x="0" 
d="M-135 1536l-211 219l-287 -217l-59 59l293 301h141l184 -301z" />
    <glyph glyph-name="uni030C.case" horiz-adv-x="0" 
d="M-508 1559l-184 301l61 61l211 -219l287 217l59 -59l-293 -301h-141z" />
    <glyph glyph-name="uni0306.case" horiz-adv-x="0" 
d="M-416 1563q-133 0 -196.5 76t-44.5 202l112 4q-3 -77 29.5 -116t107.5 -39q146 0 191 155l113 -4q-9 -122 -95 -199q-85 -79 -217 -79z" />
    <glyph glyph-name="uni030A.case" horiz-adv-x="0" 
d="M-422 1546q-92 0 -144 48t-52 126q0 140 67.5 209.5t194.5 69.5h10q92 0 144 -48t52 -126q0 -140 -67.5 -209.5t-194.5 -69.5h-10zM-408 1651h9q137 0 137 159q0 41 -26 62.5t-72 21.5h-9q-137 0 -137 -159q0 -41 26 -62.5t72 -21.5z" />
    <glyph glyph-name="tildecomb.case" horiz-adv-x="0" 
d="M-621 1620l-90 16q18 107 72.5 160t132.5 53q56 0 143.5 -40t120.5 -40q69 0 95 82l90 -16q-18 -107 -72.5 -160t-132.5 -53q-56 0 -143.5 40t-120.5 40q-69 0 -95 -82z" />
    <glyph glyph-name="uni0304.case" horiz-adv-x="0" 
d="M-657 1640l24 138h524l-24 -138h-524z" />
    <glyph glyph-name="acute.case" horiz-adv-x="823" 
d="M256 1534l-57 90l409 320l80 -129z" />
    <glyph glyph-name="breve.case" horiz-adv-x="823" 
d="M408 1563q-133 0 -197 76t-45 202l113 4q-3 -77 29.5 -116t107.5 -39q145 0 190 155l113 -4q-9 -123 -94 -199q-85 -79 -217 -79z" />
    <glyph glyph-name="caron.case" horiz-adv-x="823" 
d="M315 1559l-184 301l62 61l210 -219l287 217l60 -59l-293 -301h-142z" />
    <glyph glyph-name="circumflex.case" horiz-adv-x="823" 
d="M688 1536l-211 219l-287 -217l-59 59l293 301h141l185 -301z" />
    <glyph glyph-name="dieresis.case" horiz-adv-x="823" 
d="M225 1622q-86 0 -86 68q0 86 39 125q28 28 86 28h8q86 0 86 -67q0 -86 -39 -125q-29 -29 -86 -29h-8zM604 1622q-86 0 -86 68q0 86 39 125q28 28 86 28h8q86 0 86 -67q0 -86 -39 -125q-29 -29 -86 -29h-8z" />
    <glyph glyph-name="dotaccent.case" horiz-adv-x="823" 
d="M414 1597q-90 0 -90 72q0 93 41 131q28 31 90 31h10q90 0 90 -72q0 -93 -41 -131q-28 -31 -90 -31h-10z" />
    <glyph glyph-name="grave.case" horiz-adv-x="823" 
d="M621 1534l-334 281l102 114l299 -319z" />
    <glyph glyph-name="hungarumlaut.case" horiz-adv-x="823" 
d="M104 1546l-69 70l354 385l96 -115zM465 1546l-70 70l355 385l96 -115z" />
    <glyph glyph-name="macron.case" horiz-adv-x="823" 
d="M166 1640l24 138h525l-25 -138h-524z" />
    <glyph glyph-name="ring.case" horiz-adv-x="823" 
d="M401 1546q-92 0 -144 48t-52 126q0 140 67.5 209.5t194.5 69.5h10q92 0 144.5 -48t52.5 -126q0 -140 -67.5 -209.5t-194.5 -69.5h-11zM416 1651h8q137 0 137 159q0 41 -26 62.5t-72 21.5h-8q-138 0 -138 -159q0 -41 26.5 -62.5t72.5 -21.5z" />
    <glyph glyph-name="tilde.case" horiz-adv-x="823" 
d="M203 1620l-90 16q18 107 72 160t132 53q56 0 144 -40t121 -40q68 0 94 82l90 -16q-18 -107 -72.5 -160t-132.5 -53q-56 0 -143.5 40t-120.5 40q-68 0 -94 -82z" />
    </font>
</defs>
</svg>
