<?xml version="1.0" standalone="no"?>
<!DOCTYPE svg PUBLIC "-//W3C//DTD SVG 1.1//EN" "http://www.w3.org/Graphics/SVG/1.1/DTD/svg11.dtd" >
<svg xmlns="http://www.w3.org/2000/svg" xmlns:xlink="http://www.w3.org/1999/xlink" version="1.1">
<metadata>
Created by FontForge 20170731 at Tue Nov 30 23:39:27 2021
 By Aleksey,,,
Copyright (c) 2009 by Fontsmith Ltd. All rights reserved. This font may not be altered in any way without prior permission of Fontsmith Ltd.
</metadata>
<defs>
<font id="Telefonica-Bold" horiz-adv-x="1228" >
  <font-face 
    font-family="Telefonica"
    font-weight="700"
    font-stretch="normal"
    units-per-em="2048"
    panose-1="0 0 8 0 0 0 0 0 0 0"
    ascent="1536"
    descent="-512"
    x-height="1004"
    cap-height="1401"
    bbox="-852 -737 2771 2546"
    underline-thickness="198"
    underline-position="-403"
    unicode-range="U+000D-FB02"
  />
<missing-glyph horiz-adv-x="1314" 
d="M176 0v1352h963v-1352h-963zM657 762l326 491h-655zM274 184l326 494l-326 489v-983zM1044 184v983l-327 -489zM328 100h655l-326 490z" />
    <glyph glyph-name="fi" unicode="fi" horiz-adv-x="1265" 
d="M201 0v813h-172v178l172 10v140q0 153 73 235q57 64 151 93.5t241 29.5q161 0 274 -22v-209q-82 12 -199 12q-137 0 -192 -33.5t-55 -122.5v-120h643v-1004h-293v813h-350v-813h-293z" />
    <glyph glyph-name="fl" unicode="fl" horiz-adv-x="1265" 
d="M201 0v813h-172v178l172 10v140q0 94 19.5 157.5t64.5 108.5q47 47 129.5 69.5t259.5 22.5q259 0 463 -24v-1475h-293v1270q-122 10 -185 10q-103 0 -137 -37q-28 -28 -28 -119v-120h217v-191h-217v-813h-293z" />
    <glyph glyph-name=".notdef" horiz-adv-x="1314" 
d="M176 0v1352h963v-1352h-963zM657 762l326 491h-655zM274 184l326 494l-326 489v-983zM1044 184v983l-327 -489zM328 100h655l-326 490z" />
    <glyph glyph-name=".null" horiz-adv-x="0" 
 />
    <glyph glyph-name="nonmarkingreturn" horiz-adv-x="682" 
 />
    <glyph glyph-name="CR" unicode="&#xd;" horiz-adv-x="460" 
 />
    <glyph glyph-name="space" unicode=" " horiz-adv-x="460" 
 />
    <glyph glyph-name="exclam" unicode="!" horiz-adv-x="593" 
d="M184 438l-45 963h307l-45 -963h-217zM291 -29q-75 0 -112.5 33.5t-37.5 108.5v24q0 75 37.5 108.5t112.5 33.5h14q75 0 112.5 -33.5t37.5 -108.5v-24q0 -75 -37.5 -108.5t-112.5 -33.5h-14z" />
    <glyph glyph-name="quotedbl" unicode="&#x22;" horiz-adv-x="976" 
d="M162 860l-35 541h285l-33 -541h-217zM600 860l-35 541h285l-33 -541h-217z" />
    <glyph glyph-name="numbersign" unicode="#" horiz-adv-x="1220" 
d="M162 0l78 418h-131v186h163l35 193h-198v186h247l78 418h219l-78 -418h189l78 418h219l-78 -418h127v-186h-176l-33 -193h211v-186h-246l-78 -418h-219l74 418h-184l-78 -418h-219zM494 604h186l35 193h-189z" />
    <glyph glyph-name="dollar" unicode="$" 
d="M514 -262v235q-203 5 -391 70v246q212 -74 424 -74q274 0 274 170q0 44 -24.5 75.5t-66 51.5t-95.5 36.5t-114 33t-119.5 36.5t-113.5 53t-95.5 77t-66 113t-24.5 157q0 180 110.5 281t301.5 122v217h186v-213q181 -10 312 -53v-242q-85 23 -196.5 38.5t-184.5 15.5
q-228 0 -228 -152q0 -44 24.5 -76t66 -52t95.5 -36t114 -33t119.5 -37t113.5 -53t95.5 -77t66 -112.5t24.5 -156.5q0 -185 -116 -295q-113 -107 -306 -127v-239h-186z" />
    <glyph glyph-name="percent" unicode="%" horiz-adv-x="2045" 
d="M467 573q-182 0 -273.5 110t-91.5 318q0 207 91.5 316.5t273.5 109.5q183 0 276 -110t93 -316q0 -208 -93 -318t-276 -110zM522 -29l748 1456h252l-748 -1456h-252zM467 768q72 0 100.5 57t28.5 176q0 117 -28.5 174.5t-100.5 57.5q-71 0 -99 -57t-28 -175
q0 -119 27.5 -176t99.5 -57zM1577 -29q-182 0 -274.5 109.5t-92.5 316.5q0 208 92.5 318t274.5 110t274.5 -110t92.5 -318q0 -207 -92.5 -316.5t-274.5 -109.5zM1577 166q72 0 100.5 57t28.5 174q0 119 -28.5 176.5t-100.5 57.5q-73 0 -100 -57t-27 -177q0 -118 27 -174.5
t100 -56.5z" />
    <glyph glyph-name="ampersand" unicode="&#x26;" horiz-adv-x="1419" 
d="M1192 -76l-184 185q-177 -138 -437 -138q-224 0 -359.5 112.5t-135.5 301.5q0 127 74 228.5t221 158.5q-80 89 -113 162.5t-33 155.5q0 151 102.5 244t270.5 93q163 0 259.5 -86t96.5 -231q0 -101 -65.5 -188t-183.5 -142l317 -336q31 44 59.5 126t36.5 143h203
q-9 -106 -53 -225.5t-101 -196.5l191 -201zM596 893q74 60 105.5 107.5t31.5 103.5q0 55 -35 88t-98 33q-61 0 -97 -33t-36 -86q0 -49 28 -94.5t101 -118.5zM623 201q134 0 235 63l-375 391q-58 -38 -91.5 -98.5t-33.5 -128.5q0 -101 69.5 -164t195.5 -63z" />
    <glyph glyph-name="quotesingle" unicode="'" horiz-adv-x="538" 
d="M162 860l-35 541h285l-33 -541h-217z" />
    <glyph glyph-name="parenleft" unicode="(" horiz-adv-x="735" 
d="M578 -465q-245 162 -369.5 419t-124.5 578t124.5 580t369.5 420l135 -154q-307 -314 -307 -846q0 -529 307 -843z" />
    <glyph glyph-name="parenright" unicode=")" horiz-adv-x="735" 
d="M158 -465l-135 154q307 314 307 843q0 530 -307 844l135 154q245 -161 369 -419t124 -579t-124 -578.5t-369 -418.5z" />
    <glyph glyph-name="asterisk" unicode="*" horiz-adv-x="942" 
d="M301 592l-147 123l196 239l-293 82l74 181l264 -115l-22 299h190l-16 -299l264 115l74 -181l-293 -82l196 -239l-147 -123l-170 260z" />
    <glyph glyph-name="plus" unicode="+" 
d="M518 281v286h-287v193h287v287h193v-287h286v-193h-286v-286h-193z" />
    <glyph glyph-name="comma" unicode="," horiz-adv-x="489" 
d="M207 -326v291q-67 23 -94 58.5t-27 101.5q0 74 38.5 114t111.5 40h14q73 0 111 -40t38 -114v-55q0 -103 -14 -223t-31 -173h-147z" />
    <glyph glyph-name="hyphen" unicode="-" horiz-adv-x="684" 
d="M94 410v243h496v-243h-496z" />
    <glyph glyph-name="period" unicode="." horiz-adv-x="489" 
d="M238 -29q-75 0 -112.5 33.5t-37.5 108.5v24q0 75 37.5 108.5t112.5 33.5h14q75 0 112 -33.5t37 -108.5v-24q0 -75 -37 -108.5t-112 -33.5h-14z" />
    <glyph glyph-name="slash" unicode="/" horiz-adv-x="983" 
d="M53 -29l617 1456h260l-617 -1456h-260z" />
    <glyph glyph-name="zero" unicode="0" 
d="M614 -29q-285 0 -410.5 179t-125.5 548t125.5 549t410.5 180t411 -180t126 -549t-126 -548t-411 -179zM614 207q86 0 135 42t73 149t24 300q0 194 -24 306t-73.5 160t-134.5 48t-134.5 -48t-73 -160t-23.5 -306q0 -193 24 -300t72.5 -149t134.5 -42z" />
    <glyph glyph-name="one" unicode="1" 
d="M254 0v209h238v989h-228v199q168 24 326 24q109 0 151.5 -30.5t42.5 -108.5v-1073h201v-209h-731z" />
    <glyph glyph-name="two" unicode="2" 
d="M156 0q-9 24 -9 66q0 64 18.5 112t63.5 103l273 331q126 152 173.5 233.5t47.5 164.5q0 89 -55 135q-62 53 -213 53q-127 0 -275 -27v218q156 38 326 38q289 0 420 -131q100 -100 100 -272q0 -128 -65 -246t-234 -303l-244 -266h566v-209h-893z" />
    <glyph glyph-name="three" unicode="3" 
d="M518 -29q-183 0 -338 33v221q141 -24 281 -24q161 0 231 47q76 51 76 162q0 103 -70 153q-38 27 -100 38t-172 11h-39v205h49q96 0 151.5 14t92.5 46q55 48 55 143q0 86 -47 127q-59 53 -221 53q-137 0 -274 -20v217q141 30 321 30q285 0 412 -127q96 -96 96 -258
q0 -217 -186 -309q235 -85 235 -346q0 -169 -98 -270q-140 -146 -455 -146z" />
    <glyph glyph-name="four" unicode="4" 
d="M707 0v322h-617q-8 28 -8 71q0 96 43 213l291 795h282l-315 -860h324v333h292v-333h164v-219h-164v-322h-292z" />
    <glyph glyph-name="five" unicode="5" 
d="M541 -29q-178 0 -330 33v219q116 -22 258 -22q173 0 243 57t70 168q0 58 -11.5 96.5t-41 68.5t-84 44t-137.5 14h-285q-13 54 -10 158l25 594h766v-209h-515l-12 -315h74q274 0 404 -107.5t130 -331.5q0 -229 -129.5 -348t-414.5 -119z" />
    <glyph glyph-name="six" unicode="6" 
d="M637 -29q-272 0 -391 166.5t-119 497.5q0 467 190 657q135 135 412 135q136 0 289 -26v-223q-120 20 -221 20q-104 0 -169.5 -17t-105.5 -57q-82 -82 -88 -299q135 72 303 72q188 0 292 -113t104 -323q0 -235 -127 -362.5t-369 -127.5zM643 195q199 0 199 256
q0 131 -46 178t-161 47q-105 0 -205 -21v-77q0 -205 47.5 -294t165.5 -89z" />
    <glyph glyph-name="seven" unicode="7" 
d="M358 0l465 1192h-653v209h913q15 -24 15 -84q0 -111 -33 -201l-393 -1116h-314z" />
    <glyph glyph-name="eight" unicode="8" 
d="M608 -29q-240 0 -367.5 106t-127.5 273q0 236 235 359q-100 64 -144 141t-44 184q0 179 124 286t328 107t322.5 -96.5t118.5 -257.5q0 -96 -54.5 -179.5t-146.5 -141.5q143 -72 203.5 -155.5t60.5 -211.5q0 -194 -133.5 -304t-374.5 -110zM655 844q131 99 131 203
q0 71 -46 115t-130 44q-76 0 -126 -38t-50 -107q0 -60 43.5 -107t147.5 -96zM612 199q100 0 156.5 46t56.5 117q0 64 -42.5 110t-161.5 101l-91 41q-129 -113 -129 -239q0 -81 55 -128.5t156 -47.5z" />
    <glyph glyph-name="nine" unicode="9" 
d="M500 -29q-130 0 -289 27v223q120 -20 221 -20q105 0 170 16.5t105 56.5q82 82 88 299q-133 -71 -303 -71q-188 0 -292 113t-104 323q0 235 126.5 362t369.5 127q272 0 391 -166t119 -497q0 -467 -191 -658q-135 -135 -411 -135zM594 723q110 0 205 20v78q0 205 -47.5 294
t-165.5 89q-199 0 -199 -256q0 -131 46 -178t161 -47z" />
    <glyph glyph-name="colon" unicode=":" horiz-adv-x="489" 
d="M238 545q-76 0 -113 33t-37 108v25q0 75 37 108t113 33h14q75 0 112 -33t37 -108v-25q0 -75 -37 -108t-112 -33h-14zM238 -29q-75 0 -112.5 33.5t-37.5 108.5v24q0 75 37.5 108.5t112.5 33.5h14q75 0 112 -33.5t37 -108.5v-24q0 -75 -37 -108.5t-112 -33.5h-14z" />
    <glyph glyph-name="semicolon" unicode=";" horiz-adv-x="489" 
d="M238 545q-76 0 -113 33t-37 108v25q0 75 37 108t113 33h14q75 0 112 -33t37 -108v-25q0 -75 -37 -108t-112 -33h-14zM209 -326v291q-67 23 -94 58.5t-27 101.5q0 74 38.5 114t111.5 40h14q73 0 111 -40t38 -114v-55q0 -103 -14 -223t-31 -173h-147z" />
    <glyph glyph-name="less" unicode="&#x3c;" 
d="M997 190l-766 379v189l766 379v-217l-551 -254l551 -246v-230z" />
    <glyph glyph-name="equal" unicode="=" 
d="M231 764v192h766v-192h-766zM231 371v192h766v-192h-766z" />
    <glyph glyph-name="greater" unicode="&#x3e;" 
d="M231 190v230l551 246l-551 254v217l766 -379v-189z" />
    <glyph glyph-name="question" unicode="?" horiz-adv-x="890" 
d="M299 440q-6 34 -6 64q0 21 3.5 42t13.5 44t17 39.5t23.5 43t23.5 37.5t27.5 40.5t24.5 35.5q49 69 74.5 122.5t25.5 117.5q0 78 -41 119q-48 45 -159 45q-91 0 -213 -37l-39 213q69 27 158.5 44t166.5 17q217 0 328 -94.5t111 -269.5q0 -63 -16 -117.5t-42 -96t-58.5 -79
t-67 -74t-64.5 -73.5t-54 -84t-34 -99h-203zM395 -29q-75 0 -112 33.5t-37 108.5v24q0 75 37 108.5t112 33.5h15q75 0 112 -33.5t37 -108.5v-24q0 -75 -37 -108.5t-112 -33.5h-15z" />
    <glyph glyph-name="at" unicode="@" horiz-adv-x="1617" 
d="M887 -29q-390 0 -588 174q-221 195 -221 549q0 336 202 534.5t554 198.5q167 0 302 -50.5t223 -140t134.5 -209.5t46.5 -261q0 -101 -22.5 -184t-67.5 -146.5t-119 -99t-172 -35.5q-129 0 -196 76h-5q-39 -31 -99 -51.5t-116 -20.5q-112 0 -178.5 65t-66.5 173
q0 131 74 191.5t243 60.5h117v8q0 63 -32 83.5t-109 20.5q-115 0 -209 -22l-11 172q143 30 265 30q170 0 241 -86q56 -65 56 -196v-326q18 -6 43 -6q84 0 122.5 63t38.5 189q0 244 -130 377t-378 133q-250 0 -389 -138.5t-139 -391.5q0 -279 150 -412q151 -139 481 -139
q164 0 323 30l11 -176q-164 -37 -379 -37zM809 479q56 0 123 23v139h-111q-63 0 -88.5 -19.5t-25.5 -64.5q0 -78 102 -78z" />
    <glyph glyph-name="A" unicode="A" horiz-adv-x="1347" 
d="M10 0l469 1401h352l506 -1401h-342l-116 352h-455l-109 -352h-305zM498 584h303l-154 467h-4z" />
    <glyph glyph-name="B" unicode="B" horiz-adv-x="1292" 
d="M152 0v1401h456q148 0 245 -25.5t159 -79.5q98 -86 98 -239q0 -204 -197 -305q133 -19 215 -109.5t82 -226.5q0 -197 -116 -301q-67 -60 -174.5 -87.5t-270.5 -27.5h-497zM471 844h109q68 0 107 9.5t65 33.5q41 41 41 125q0 77 -39 116q-41 41 -166 41h-117v-325z
M471 231h131q180 0 232 52q45 45 45 127q0 110 -54 155q-31 27 -82 37t-141 10h-131v-381z" />
    <glyph glyph-name="C" unicode="C" horiz-adv-x="1206" 
d="M770 -29q-349 0 -508 170q-170 181 -170 553q0 168 39 300t119.5 230t212 150.5t307.5 52.5q92 0 196 -17.5t171 -45.5l-41 -234q-176 50 -301 50q-88 0 -154 -23.5t-107 -64t-66 -102.5t-34.5 -130.5t-9.5 -157.5q0 -272 100 -383q46 -53 117.5 -76.5t189.5 -23.5
q110 0 259 29l32 -234q-62 -19 -163.5 -31t-188.5 -12z" />
    <glyph glyph-name="D" unicode="D" horiz-adv-x="1404" 
d="M152 0v1401h432q206 0 340 -36.5t219 -121.5q170 -167 170 -536q0 -373 -170 -549q-155 -158 -516 -158h-475zM471 233h135q217 0 301 125q41 61 57.5 140t16.5 209q0 147 -23 229t-75 139q-46 50 -120 71t-194 21h-98v-934z" />
    <glyph glyph-name="E" unicode="E" horiz-adv-x="1193" 
d="M152 0v1401h946l-25 -232h-602v-340h481v-239h-481v-359h637v-231h-956z" />
    <glyph glyph-name="F" unicode="F" horiz-adv-x="1132" 
d="M152 0v1401h923l-24 -232h-580v-340h459v-239h-459v-590h-319z" />
    <glyph glyph-name="G" unicode="G" horiz-adv-x="1374" 
d="M764 -29q-185 0 -316.5 49.5t-208.5 145.5t-112 225t-35 301q0 166 44 300t131 231.5t222.5 150.5t311.5 53q104 0 216 -19t179 -48l-41 -234q-179 52 -332 52q-208 0 -303.5 -119t-95.5 -354q0 -257 82 -373q80 -113 270 -113q84 0 170 14v295h-196v230h514v-715
q-100 -31 -242.5 -51.5t-257.5 -20.5z" />
    <glyph glyph-name="H" unicode="H" horiz-adv-x="1435" 
d="M152 0v1401h319v-572h494v572h319v-1401h-319v590h-494v-590h-319z" />
    <glyph glyph-name="I" unicode="I" horiz-adv-x="630" 
d="M156 0v1401h319v-1401h-319z" />
    <glyph glyph-name="J" unicode="J" horiz-adv-x="847" 
d="M281 -29q-82 0 -218 19l-22 243q84 -16 166 -16q103 0 140.5 39t37.5 154v991h320v-1000q0 -130 -23.5 -208t-77.5 -132q-93 -90 -323 -90z" />
    <glyph glyph-name="K" unicode="K" horiz-adv-x="1335" 
d="M152 0v1401h319v-586l469 586h365l-496 -567l510 -834h-379l-338 596l-131 -150v-446h-319z" />
    <glyph glyph-name="L" unicode="L" horiz-adv-x="1128" 
d="M152 0v1401h319v-1170h621v-231h-940z" />
    <glyph glyph-name="M" unicode="M" horiz-adv-x="1699" 
d="M152 0v1401h251l443 -783l457 783h245v-1401h-293v807l-290 -488h-246l-299 496v-815h-268z" />
    <glyph glyph-name="N" unicode="N" horiz-adv-x="1482" 
d="M152 0v1401h235l664 -897v897h280v-1401h-256l-643 850v-850h-280z" />
    <glyph glyph-name="O" unicode="O" horiz-adv-x="1425" 
d="M713 -29q-317 0 -469 183.5t-152 543.5q0 729 621 729q316 0 468 -184t152 -545q0 -360 -152 -543.5t-468 -183.5zM713 221q155 0 221.5 111.5t66.5 365.5q0 255 -67 367.5t-221 112.5q-155 0 -222 -112.5t-67 -367.5q0 -254 67 -365.5t222 -111.5z" />
    <glyph glyph-name="P" unicode="P" horiz-adv-x="1267" 
d="M152 0v1401h481q168 0 275 -26.5t173 -88.5q113 -104 113 -328t-104 -340q-120 -135 -394 -135h-225v-483h-319zM471 723h158q75 0 115 11.5t71 41.5q55 55 55 178q0 116 -53 166q-55 49 -196 49h-150v-446z" />
    <glyph glyph-name="Q" unicode="Q" horiz-adv-x="1429" 
d="M1356 -240l-416 177q-54 23 -86.5 28.5t-114.5 5.5h-26q-317 0 -469 183.5t-152 543.5q0 729 621 729q316 0 468 -184t152 -545q0 -430 -217 -606q223 -3 350 -51q-13 -58 -49 -153t-61 -128zM713 221q155 0 221.5 111.5t66.5 365.5q0 255 -67 367.5t-221 112.5
q-155 0 -222 -112.5t-67 -367.5q0 -254 67 -365.5t222 -111.5z" />
    <glyph glyph-name="R" unicode="R" horiz-adv-x="1327" 
d="M152 0v1401h481q174 0 278.5 -25t171.5 -88q117 -110 117 -321q0 -145 -60 -253t-177 -163l303 -551h-361l-258 508h-176v-508h-319zM471 739h141q148 0 205 49q60 51 60 175q0 105 -50 155q-54 51 -213 51h-143v-430z" />
    <glyph glyph-name="S" unicode="S" horiz-adv-x="1208" 
d="M565 -29q-258 0 -465 72l50 244q90 -31 199 -50.5t188 -19.5q143 0 209.5 41.5t66.5 136.5q0 46 -30.5 79.5t-81 51t-114.5 36.5t-131.5 36t-131.5 50t-114.5 77t-81 119t-30.5 174q0 104 39.5 183.5t110.5 128t165 73t208 24.5q223 0 391 -57l-49 -237q-182 49 -336 49
q-228 0 -228 -150q0 -44 24.5 -76t66 -52t95 -36t113 -33t118.5 -37t112.5 -53t95 -77t66 -112.5t24.5 -156.5q0 -184 -117 -295q-74 -69 -177.5 -101t-254.5 -32z" />
    <glyph glyph-name="T" unicode="T" horiz-adv-x="1245" 
d="M463 0v1169h-434v232h1202l-25 -232h-424v-1169h-319z" />
    <glyph glyph-name="U" unicode="U" horiz-adv-x="1421" 
d="M715 -29q-303 0 -441 135q-70 69 -102.5 164.5t-32.5 243.5v887h318v-887q0 -164 67 -231q65 -68 205 -68t203 66q67 67 67 231v889h283v-873q0 -288 -137 -417q-69 -66 -182 -103t-248 -37z" />
    <glyph glyph-name="V" unicode="V" horiz-adv-x="1335" 
d="M512 0l-487 1401h342l327 -1016l305 1016h312l-465 -1401h-334z" />
    <glyph glyph-name="W" unicode="W" horiz-adv-x="1972" 
d="M434 0l-409 1401h337l261 -1012l251 1012h261l274 -1010l250 1010h289l-379 -1401h-348l-230 817l-211 -817h-346z" />
    <glyph glyph-name="X" unicode="X" horiz-adv-x="1300" 
d="M29 0l465 698l-428 703h333l279 -463l254 463h340l-459 -686l447 -715h-355l-278 475l-252 -475h-346z" />
    <glyph glyph-name="Y" unicode="Y" horiz-adv-x="1355" 
d="M508 0v571l-483 830h360l307 -565l320 565h319l-504 -832v-569h-319z" />
    <glyph glyph-name="Z" unicode="Z" horiz-adv-x="1220" 
d="M70 0v188l680 977h-660v236h1053v-197l-670 -968h674v-236h-1077z" />
    <glyph glyph-name="bracketleft" unicode="[" horiz-adv-x="761" 
d="M199 -424v1913h518v-205h-217v-1503h217v-205h-518z" />
    <glyph glyph-name="backslash" unicode="\" horiz-adv-x="983" 
d="M670 -29l-617 1456h260l617 -1456h-260z" />
    <glyph glyph-name="bracketright" unicode="]" horiz-adv-x="761" 
d="M45 -424v205h217v1503h-217v205h518v-1913h-518z" />
    <glyph glyph-name="asciicircum" unicode="^" 
d="M174 776l358 627h162l361 -627h-242l-199 408l-204 -408h-236z" />
    <glyph glyph-name="underscore" unicode="_" horiz-adv-x="880" 
d="M0 -256v199h881v-199h-881z" />
    <glyph glyph-name="grave" unicode="`" horiz-adv-x="876" 
d="M594 1145l-416 280l144 195l374 -348z" />
    <glyph glyph-name="a" unicode="a" horiz-adv-x="1087" 
d="M414 -29q-168 0 -260.5 90t-92.5 240q0 141 89 227q53 50 139.5 71.5t228.5 21.5h160v32q0 79 -37 113q-46 41 -170 41q-146 0 -281 -27l-14 215q189 37 356 37q264 0 361 -114q78 -90 78 -267v-651h-232l-24 61q-141 -90 -301 -90zM498 195q79 0 180 30v207h-156
q-104 0 -139 -35q-29 -29 -29 -84q0 -58 33.5 -88t110.5 -30z" />
    <glyph glyph-name="b" unicode="b" horiz-adv-x="1146" 
d="M678 -29q-158 0 -299 92l-14 -63h-242v1464h293v-499q52 31 127.5 49t148.5 18q383 0 383 -526q0 -137 -28.5 -246.5t-83.5 -171.5q-102 -117 -285 -117zM590 201q100 0 139 66t39 235q0 118 -19.5 183t-56.5 88.5t-102 23.5q-104 0 -174 -27v-520q85 -49 174 -49z" />
    <glyph glyph-name="c" unicode="c" horiz-adv-x="948" 
d="M621 -29q-338 0 -467 201q-82 125 -82 307q0 264 129 404q67 72 171.5 110.5t229.5 38.5q163 0 295 -37l-18 -217q-111 29 -232 29q-134 0 -203 -72q-67 -72 -67 -233q0 -158 69.5 -232.5t225.5 -74.5q104 0 209 20l22 -211q-141 -33 -282 -33z" />
    <glyph glyph-name="d" unicode="d" horiz-adv-x="1150" 
d="M451 -29q-151 0 -240 86q-139 136 -139 443q0 248 107.5 390t289.5 142q143 0 266 -74v506h293v-1464h-254l-6 72q-152 -101 -317 -101zM561 201q85 0 174 35v542q-74 23 -139 23q-110 0 -163.5 -68t-53.5 -241q0 -165 40.5 -228t141.5 -63z" />
    <glyph glyph-name="e" unicode="e" horiz-adv-x="1081" 
d="M623 -29q-281 0 -416 129q-135 130 -135 400q0 261 127 396.5t360 135.5q229 0 345 -124t116 -382v-92q0 -22 -25 -22h-616q6 -122 80 -169.5t229 -47.5q120 0 250 24l23 -213q-187 -35 -338 -35zM379 602h354q0 97 -45 153t-131 56q-168 0 -178 -209z" />
    <glyph glyph-name="f" unicode="f" horiz-adv-x="735" 
d="M201 0v813h-172v158l172 30v140q0 179 84 266q89 92 299 92q103 0 213 -22v-209q-82 12 -138 12q-100 0 -137 -37q-28 -28 -28 -119v-120h237v-191h-237v-813h-293z" />
    <glyph glyph-name="g" unicode="g" horiz-adv-x="1107" 
d="M549 -489q-258 0 -376 64t-118 200q0 60 31.5 106.5t87.5 75.5q-51 42 -51 131q0 63 35 127.5t98 116.5q-154 100 -154 315q0 195 117.5 290t335.5 95q49 0 98 -6l99 250q134 -31 227 -102l-145 -203q172 -96 172 -324q0 -196 -116.5 -291.5t-334.5 -95.5q-76 0 -131 8
q-27 -50 -27 -80q0 -26 29 -26h197q144 0 234 -25.5t144 -81.5q74 -77 74 -213q0 -331 -510 -331h-16zM555 469q98 0 142 44t44 134q0 88 -44 132t-142 44q-99 0 -143.5 -44t-44.5 -132q0 -90 44.5 -134t143.5 -44zM557 -268h31q110 0 167.5 25.5t57.5 72.5q0 50 -37.5 69
t-138.5 19h-293q-29 -32 -29 -76q0 -58 53.5 -84t188.5 -26z" />
    <glyph glyph-name="h" unicode="h" horiz-adv-x="1173" 
d="M123 0v1464h293v-514q147 82 313 82q71 0 137 -19.5t105 -58.5q86 -83 86 -264v-690h-293v655q0 70 -31 101q-35 32 -127 32q-42 0 -98.5 -9.5t-91.5 -22.5v-756h-293z" />
    <glyph glyph-name="i" unicode="i" horiz-adv-x="550" 
d="M268 1171q-77 0 -115 33.5t-38 106.5v26q0 74 38.5 108t114.5 34h15q76 0 114.5 -34t38.5 -108v-26q0 -73 -38 -106.5t-115 -33.5h-15zM129 0v1004h293v-1004h-293z" />
    <glyph glyph-name="j" unicode="j" horiz-adv-x="550" 
d="M268 1171q-77 0 -115 33.5t-38 106.5v26q0 74 38.5 108t114.5 34h15q76 0 114.5 -34t38.5 -108v-26q0 -73 -38 -106.5t-115 -33.5h-15zM-43 -485q-41 0 -111 4l-28 219q54 -4 94 -4q123 0 170 47q47 44 47 162v1061h293v-957q0 -138 -21.5 -233t-74 -164.5t-143 -102
t-226.5 -32.5z" />
    <glyph glyph-name="k" unicode="k" horiz-adv-x="1114" 
d="M123 0v1464h293v-843l313 383h336l-354 -402l391 -602h-330l-252 399l-104 -131v-268h-293z" />
    <glyph glyph-name="l" unicode="l" horiz-adv-x="550" 
d="M129 0v1464h293v-1464h-293z" />
    <glyph glyph-name="m" unicode="m" horiz-adv-x="1769" 
d="M123 0v1004h254l6 -72q151 100 326 100q191 0 266 -106q158 106 350 106q71 0 137 -19.5t105 -58.5q86 -83 86 -264v-690h-293v655q0 70 -31 101q-35 32 -127 32q-79 0 -170 -26q4 -46 4 -72v-690h-293v655q0 71 -30 101q-35 32 -123 32q-87 0 -174 -32v-756h-293z" />
    <glyph glyph-name="n" unicode="n" horiz-adv-x="1173" 
d="M123 0v1004h254l6 -72q154 100 346 100q71 0 137 -19.5t105 -58.5q86 -83 86 -264v-690h-293v655q0 70 -31 101q-35 32 -127 32q-42 0 -98.5 -9.5t-91.5 -22.5v-756h-293z" />
    <glyph glyph-name="o" unicode="o" horiz-adv-x="1163" 
d="M582 -29q-254 0 -382 141t-128 390t128 389.5t382 140.5t382 -140.5t128 -389.5t-128 -390t-382 -141zM582 195q108 0 156 74.5t48 232.5t-48 232.5t-156 74.5q-109 0 -157 -74.5t-48 -232.5t48 -232.5t157 -74.5z" />
    <glyph glyph-name="p" unicode="p" horiz-adv-x="1146" 
d="M123 -461v1465h254l8 -74q154 102 315 102q151 0 240 -86q135 -132 135 -438q0 -144 -28.5 -249.5t-82 -167.5t-123 -91t-157.5 -29q-148 0 -268 74v-506h-293zM598 203q64 0 99.5 27t53 94t17.5 188q0 161 -39 222t-139 61q-80 0 -174 -27v-537q66 -28 182 -28z" />
    <glyph glyph-name="q" unicode="q" horiz-adv-x="1148" 
d="M733 -479v518q-54 -30 -129 -49t-145 -19q-387 0 -387 527q0 278 127 417q108 117 282 117q148 0 289 -92l14 64h242v-1446zM563 201q86 0 170 32v537q-85 29 -155 29q-110 0 -154.5 -72.5t-44.5 -228.5q0 -118 21.5 -184t59.5 -89.5t103 -23.5z" />
    <glyph glyph-name="r" unicode="r" horiz-adv-x="778" 
d="M123 0v1004h254l10 -82q55 51 142 79.5t165 28.5q27 0 51 -4v-256q-66 8 -129 8q-92 0 -200 -24v-754h-293z" />
    <glyph glyph-name="s" unicode="s" horiz-adv-x="972" 
d="M449 -29q-87 0 -189 16.5t-164 39.5l23 217q59 -19 151 -33t172 -14q90 0 135.5 20.5t45.5 71.5q0 32 -23.5 52.5t-62 29.5t-87.5 19.5t-100.5 19.5t-100.5 30.5t-87.5 52t-62 86t-23.5 130.5q0 147 109.5 235t326.5 88q172 0 334 -55l-23 -215q-161 45 -309 45
q-162 0 -162 -82q0 -30 23.5 -50t62 -29.5t88 -20t101 -20t101 -32.5t88 -54t62 -87t23.5 -131q0 -159 -114.5 -244.5t-337.5 -85.5z" />
    <glyph glyph-name="t" unicode="t" horiz-adv-x="821" 
d="M516 -29q-182 0 -256 80t-74 252v510h-170v160l170 31v223q140 43 293 43v-266h260v-191h-260v-469q0 -88 28 -121t114 -33q27 0 141 13l10 -207q-118 -25 -256 -25z" />
    <glyph glyph-name="u" unicode="u" horiz-adv-x="1165" 
d="M444 -27q-71 0 -136.5 19.5t-104.5 58.5q-86 83 -86 264v689h293v-648q0 -76 30 -106q36 -33 127 -33q94 0 183 29v758h292v-1004h-254l-8 68q-152 -95 -336 -95z" />
    <glyph glyph-name="v" unicode="v" horiz-adv-x="1085" 
d="M379 0l-359 1004h316l223 -697l213 697h293l-346 -1004h-340z" />
    <glyph glyph-name="w" unicode="w" horiz-adv-x="1619" 
d="M315 0l-295 1004h310l178 -715l178 715h264l193 -715l168 715h288l-288 -1004h-340l-160 532l-158 -532h-338z" />
    <glyph glyph-name="x" unicode="x" horiz-adv-x="1089" 
d="M27 0l356 494l-363 510h334l217 -304l164 304h320l-346 -496l360 -508h-342l-209 301l-166 -301h-325z" />
    <glyph glyph-name="y" unicode="y" horiz-adv-x="1169" 
d="M582 -489q-132 0 -256 26l-21 217q125 -22 230 -22q123 0 170 47q49 46 49 162v122q-144 -81 -316 -81q-156 0 -233 77q-88 88 -88 254v691h293v-650q0 -70 30 -100q36 -33 125 -33q40 0 96 11.5t93 25.5v746h293v-961q0 -138 -21.5 -233t-74 -164.5t-143 -102
t-226.5 -32.5z" />
    <glyph glyph-name="z" unicode="z" horiz-adv-x="905" 
d="M37 0v166l467 651h-455v187h799v-170l-465 -648h489v-186h-835z" />
    <glyph glyph-name="braceleft" unicode="{" horiz-adv-x="804" 
d="M612 -424q-172 0 -246.5 80t-74.5 264v291q0 113 -54.5 158.5t-183.5 58.5v213q129 13 183.5 58.5t54.5 158.5v287q0 184 74.5 264t246.5 80h123v-205h-22q-72 0 -96.5 -22t-24.5 -93v-313q0 -129 -51 -204.5t-168 -116.5q117 -41 168 -117t51 -205v-317q0 -71 24.5 -93
t96.5 -22h22v-205h-123z" />
    <glyph glyph-name="bar" unicode="|" horiz-adv-x="516" 
d="M131 -518v2040h254v-2040h-254z" />
    <glyph glyph-name="braceright" unicode="}" horiz-adv-x="804" 
d="M70 -424v205h22q72 0 96.5 22t24.5 93v317q0 129 51 205t168 117q-117 41 -168 116.5t-51 204.5v313q0 71 -24.5 93t-96.5 22h-22v205h123q172 0 246.5 -80t74.5 -264v-287q0 -113 54.5 -158.5t183.5 -58.5v-213q-129 -13 -183.5 -58.5t-54.5 -158.5v-291
q0 -184 -74.5 -264t-246.5 -80h-123z" />
    <glyph glyph-name="asciitilde" unicode="~" 
d="M336 588l-172 26q0 153 66 223t192 70q59 0 130 -25t134.5 -50t104.5 -25q77 0 102 113l172 -23q0 -156 -66 -226.5t-192 -70.5q-60 0 -130.5 25.5t-134 51t-104.5 25.5q-78 0 -102 -114z" />
    <glyph glyph-name="uni00A0" unicode="&#xa0;" horiz-adv-x="460" 
 />
    <glyph glyph-name="exclamdown" unicode="&#xa1;" horiz-adv-x="593" 
d="M303 1032q76 0 113 -33t37 -108v-25q0 -75 -37 -108t-113 -33h-14q-76 0 -113 33t-37 108v25q0 75 37 108t113 33h14zM410 565l45 -962h-308l46 962h217z" />
    <glyph glyph-name="cent" unicode="&#xa2;" 
d="M600 -262v242q-239 32 -340 192q-82 125 -82 307q0 264 129 404q107 113 293 141v242h186v-236q114 -6 218 -33v-223q-143 33 -250 33q-134 0 -203 -72q-68 -74 -68 -233q0 -158 69.5 -233.5t225.5 -75.5q111 0 232 22v-211q-127 -29 -224 -31v-235h-186z" />
    <glyph glyph-name="sterling" unicode="&#xa3;" 
d="M197 0q-11 50 -11 117q0 46 14 88t34 75t40 66.5t34 77.5t14 94q0 35 -13 137h-196v170l170 11q-13 89 -13 178q0 182 99 289q118 124 407 124q167 0 320 -36v-222q-167 29 -277 29q-146 0 -203 -51q-49 -43 -49 -146q0 -62 11 -163h321v-183h-295q8 -90 8 -127
q0 -181 -137 -315h668v-213h-946z" />
    <glyph glyph-name="currency" unicode="&#xa4;" 
d="M252 199l-148 149l144 141q-49 88 -49 209t49 209l-144 142l148 149l151 -154q87 43 211 43t211 -43l152 154l147 -149l-143 -142q49 -88 49 -209t-49 -209l143 -141l-147 -149l-152 153q-87 -43 -211 -43t-211 43zM614 516q72 0 112 46t40 136t-40 136.5t-112 46.5
t-111.5 -46t-39.5 -137q0 -90 39.5 -136t111.5 -46z" />
    <glyph glyph-name="yen" unicode="&#xa5;" 
d="M455 0v281h-258v168h258v77h-258v168h192l-377 707h344l267 -565l278 565h316l-388 -707h189v-168h-258v-77h258v-168h-258v-281h-305z" />
    <glyph glyph-name="brokenbar" unicode="&#xa6;" horiz-adv-x="516" 
d="M131 731v791h254v-791h-254zM131 -518v790h254v-790h-254z" />
    <glyph glyph-name="section" unicode="&#xa7;" horiz-adv-x="1226" 
d="M604 -29q-212 0 -383 60l41 205q73 -27 163.5 -42.5t156.5 -15.5q109 0 153.5 20.5t44.5 71.5q0 42 -29.5 64t-95.5 31l-178 30q-165 27 -233 101t-68 204q0 117 68 195q-68 77 -68 203q0 136 90 223q112 106 365 106q175 0 317 -49l-41 -198q-154 41 -276 41
q-103 0 -144 -23.5t-41 -71.5q0 -43 28 -66t108 -36l174 -29q154 -25 224.5 -94.5t70.5 -204.5q0 -113 -70 -196q70 -80 70 -201q0 -157 -113.5 -242.5t-333.5 -85.5zM752 600q32 19 32 68q0 40 -31 61.5t-98 32.5l-186 31q-27 -24 -27 -64q0 -43 29.5 -65t110.5 -35z" />
    <glyph glyph-name="dieresis" unicode="&#xa8;" horiz-adv-x="876" 
d="M217 1208q-70 0 -103.5 31.5t-33.5 99.5v23q0 69 33.5 100t103.5 31h12q70 0 105 -31t35 -100v-23q0 -131 -140 -131h-12zM645 1208q-139 0 -139 131v23q0 131 139 131h12q70 0 104 -31t34 -100v-23q0 -68 -34 -99.5t-104 -31.5h-12z" />
    <glyph glyph-name="copyright" unicode="&#xa9;" horiz-adv-x="1617" 
d="M809 -29q-156 0 -287.5 48.5t-228 139t-151 229.5t-54.5 312t54.5 311.5t151 229t228 138.5t287.5 48t287.5 -48t228 -138.5t151 -229t54.5 -311.5t-54.5 -312t-151 -229.5t-228 -139t-287.5 -48.5zM809 154q249 0 380.5 141.5t131.5 404.5q0 262 -131.5 403.5
t-380.5 141.5t-380.5 -141.5t-131.5 -403.5q0 -263 131.5 -404.5t380.5 -141.5zM850 344q-180 0 -260 86q-84 90 -84 275q0 170 83 266t261 96q100 0 172 -35l-21 -123q-87 23 -147 23q-91 0 -129.5 -49.5t-38.5 -177.5q0 -135 47 -185q23 -23 52.5 -32t82.5 -9q63 0 131 10
l15 -127q-74 -18 -164 -18z" />
    <glyph glyph-name="ordfeminine" unicode="&#xaa;" horiz-adv-x="847" 
d="M344 696q-107 0 -174.5 61t-67.5 169q0 119 75 172t235 53h104v23q0 54 -26.5 72t-110.5 18q-106 0 -195 -19l-10 160q125 25 252 25q171 0 238 -64q61 -58 61 -184v-467h-166l-18 41q-88 -60 -197 -60zM401 862q53 0 115 15v129h-108q-57 0 -79 -15.5t-22 -54.5
q0 -74 94 -74z" />
    <glyph glyph-name="guillemotleft" unicode="&#xab;" horiz-adv-x="1165" 
d="M469 68l-303 329q-40 41 -57 71.5t-17 66.5t17 66t57 71l303 329l119 -114l-238 -352l238 -353zM936 68l-303 329q-40 41 -57 71.5t-17 66.5t17 66t57 71l303 329l119 -114l-238 -352l238 -353z" />
    <glyph glyph-name="logicalnot" unicode="&#xac;" 
d="M807 371v393h-574v192h766v-585h-192z" />
    <glyph glyph-name="uni00AD" unicode="&#xad;" horiz-adv-x="684" 
d="M94 410v243h496v-243h-496z" />
    <glyph glyph-name="registered" unicode="&#xae;" horiz-adv-x="1617" 
d="M809 -29q-156 0 -287.5 48.5t-228 139t-151 229.5t-54.5 312t54.5 311.5t151 229t228 138.5t287.5 48t287.5 -48t228 -138.5t151 -229t54.5 -311.5t-54.5 -312t-151 -229.5t-228 -139t-287.5 -48.5zM809 154q249 0 380.5 141.5t131.5 404.5q0 262 -131.5 403.5
t-380.5 141.5t-380.5 -141.5t-131.5 -403.5q0 -263 131.5 -404.5t380.5 -141.5zM575 360v699h236q147 0 215 -48.5t68 -170.5q0 -152 -115 -201l149 -279h-190l-127 248h-66v-248h-170zM745 729h70q57 0 82 25.5t25 79.5q0 61 -25 81.5t-88 20.5h-64v-207z" />
    <glyph glyph-name="macron" unicode="&#xaf;" horiz-adv-x="876" 
d="M135 1239v201h604v-201h-604z" />
    <glyph glyph-name="degree" unicode="&#xb0;" horiz-adv-x="1095" 
d="M549 649q-192 0 -295.5 106.5t-103.5 282.5t103.5 282.5t295.5 106.5t295.5 -106.5t103.5 -282.5t-103.5 -282.5t-295.5 -106.5zM549 846q78 0 119 50.5t41 141.5t-41 142t-119 51t-119 -51t-41 -142t41 -141.5t119 -50.5z" />
    <glyph glyph-name="plusminus" unicode="&#xb1;" 
d="M518 389v287h-287v192h287v287h193v-287h286v-192h-286v-287h-193zM231 0v193h766v-193h-766z" />
    <glyph glyph-name="uni00B2" unicode="&#xb2;" horiz-adv-x="1024" 
d="M209 705q-8 36 -8 75q0 43 16.5 76t61.5 84l137 150q69 74 98 116t29 78q0 74 -127 74q-74 0 -168 -15v175q102 20 229 20q141 0 219 -57.5t78 -163.5q0 -77 -43 -146t-162 -188l-114 -115h344v-163h-590z" />
    <glyph glyph-name="uni00B3" unicode="&#xb3;" horiz-adv-x="1024" 
d="M444 702q-98 0 -198 21v164q70 -13 157 -13q90 0 127 22t37 75q0 50 -33 68t-112 18h-51v149h57q123 0 123 80q0 42 -32.5 61t-106.5 19q-91 0 -156 -10v162q78 20 205 20q150 0 233.5 -54.5t83.5 -162.5q0 -134 -110 -184q135 -39 135 -187q0 -120 -93.5 -184
t-265.5 -64z" />
    <glyph glyph-name="acute" unicode="&#xb4;" horiz-adv-x="876" 
d="M281 1145l-103 127l375 348l143 -195z" />
    <glyph glyph-name="uni00B5" unicode="&#xb5;" horiz-adv-x="1171" 
d="M123 -461v1465h293v-648q0 -76 30 -106q36 -33 127 -33q94 0 183 29v758h293v-1004h-254l-9 68q-152 -95 -335 -95q-23 0 -43 2v-436h-285z" />
    <glyph glyph-name="paragraph" unicode="&#xb6;" horiz-adv-x="1337" 
d="M479 -416v1075q-176 0 -279.5 97t-103.5 274t105.5 274t277.5 97h756v-203h-139v-1614h-232v1614h-155v-1614h-230z" />
    <glyph glyph-name="periodcentered" unicode="&#xb7;" horiz-adv-x="489" 
d="M238 545q-76 0 -113 33t-37 108v25q0 75 37 108t113 33h14q75 0 112 -33t37 -108v-25q0 -75 -37 -108t-112 -33h-14z" />
    <glyph glyph-name="cedilla" unicode="&#xb8;" horiz-adv-x="876" 
d="M408 -516q-101 0 -183 29v153q78 -20 142 -20q90 0 90 47q0 21 -21.5 37t-93.5 39q-61 20 -87 46.5t-26 75.5q0 27 12.5 61.5t30.5 57.5h146q-10 -35 -10 -53t13 -28.5t62 -28.5q97 -36 132.5 -76t35.5 -111q0 -98 -55 -159q-29 -33 -80 -51.5t-108 -18.5z" />
    <glyph glyph-name="uni00B9" unicode="&#xb9;" horiz-adv-x="1024" 
d="M279 713v164h147v489h-139v162q122 12 233 12q73 0 100 -22t27 -78v-563h115v-164h-483z" />
    <glyph glyph-name="ordmasculine" unicode="&#xba;" horiz-adv-x="860" 
d="M430 696q-178 0 -265 97t-87 270t87 270t265 97t265 -97t87 -270t-87 -270t-265 -97zM430 866q65 0 98 46.5t33 150.5t-33 150.5t-98 46.5t-98 -46.5t-33 -150.5t33 -150.5t98 -46.5z" />
    <glyph glyph-name="guillemotright" unicode="&#xbb;" horiz-adv-x="1165" 
d="M229 68l-118 114l237 353l-237 352l118 114l303 -329q40 -41 57 -71t17 -66t-17 -66.5t-57 -71.5zM696 68l-118 114l237 353l-237 352l118 114l303 -329q40 -41 57 -71t17 -66t-17 -66.5t-57 -71.5z" />
    <glyph glyph-name="onequarter" unicode="&#xbc;" horiz-adv-x="2045" 
d="M502 -29l747 1456h252l-747 -1456h-252zM188 584v164h148v489h-139v162q122 12 233 12q73 0 100 -22t27 -78v-563h111v-164h-480zM1612 0v176h-389q-9 31 -9 57q0 50 29 136l152 452h231l-162 -473h148v180h203v-180h71v-172h-71v-176h-203z" />
    <glyph glyph-name="onehalf" unicode="&#xbd;" horiz-adv-x="2045" 
d="M502 -29l747 1456h252l-747 -1456h-252zM188 584v164h148v489h-139v162q122 12 233 12q73 0 100 -22t27 -78v-563h111v-164h-480zM1288 0q-8 36 -8 76q0 43 16.5 76t61.5 84l137 149q69 74 98 116.5t29 78.5q0 39 -31 56t-96 17q-80 0 -168 -14v174q107 21 229 21
q140 0 218.5 -57.5t78.5 -164.5q0 -77 -42.5 -145.5t-161.5 -187.5l-115 -115h344v-164h-590z" />
    <glyph glyph-name="threequarters" unicode="&#xbe;" horiz-adv-x="2045" 
d="M420 592q-104 0 -199 20v164q64 -12 158 -12q90 0 127 21.5t37 74.5q0 49 -33.5 67.5t-112.5 18.5h-51v150h57q123 0 123 80q0 42 -32.5 60.5t-106.5 18.5q-91 0 -156 -10v162q78 20 205 20q150 0 234 -54.5t84 -162.5q0 -134 -111 -184q135 -39 135 -186
q0 -120 -93 -184t-265 -64zM541 -29l747 1456h252l-747 -1456h-252zM1628 0v176h-389q-8 28 -8 57q0 50 29 136l151 452h231l-161 -473h147v180h203v-180h72v-172h-72v-176h-203z" />
    <glyph glyph-name="questiondown" unicode="&#xbf;" horiz-adv-x="888" 
d="M494 1032q75 0 112 -33t37 -108v-25q0 -75 -37 -108t-112 -33h-15q-75 0 -112 33t-37 108v25q0 75 37 108t112 33h15zM590 563q6 -35 6 -63q0 -21 -3.5 -41.5t-13.5 -44.5t-16.5 -39.5t-24 -43.5t-23.5 -37.5t-27.5 -41t-24.5 -35.5q-33 -46 -51 -76t-34 -75t-16 -89
q0 -77 41 -118q48 -45 160 -45q94 0 213 36l39 -212q-69 -27 -159.5 -44.5t-166.5 -17.5q-217 0 -327.5 94.5t-110.5 270.5q0 63 16 117.5t42 95.5t58.5 79t67 74t64.5 73t54 84t34 99h203z" />
    <glyph glyph-name="Agrave" unicode="&#xc0;" horiz-adv-x="1347" 
d="M815 1554l-416 281l144 195l375 -349zM10 0l469 1401h352l506 -1401h-342l-116 352h-455l-109 -352h-305zM498 584h303l-154 467h-4z" />
    <glyph glyph-name="Aacute" unicode="&#xc1;" horiz-adv-x="1347" 
d="M502 1554l-103 127l375 349l144 -195zM10 0l469 1401h352l506 -1401h-342l-116 352h-455l-109 -352h-305zM498 584h303l-154 467h-4z" />
    <glyph glyph-name="Acircumflex" unicode="&#xc2;" horiz-adv-x="1347" 
d="M408 1561l-103 104l256 295h197l256 -295l-103 -104l-252 200zM10 0l469 1401h352l506 -1401h-342l-116 352h-455l-109 -352h-305zM498 584h303l-154 467h-4z" />
    <glyph glyph-name="Atilde" unicode="&#xc3;" horiz-adv-x="1347" 
d="M430 1622l-145 23q0 133 57.5 206.5t159.5 73.5q51 0 108.5 -21.5t108 -43t84.5 -21.5q68 0 86 94l145 -22q0 -133 -57.5 -207t-159.5 -74q-65 0 -163.5 43t-137.5 43q-68 0 -86 -94zM10 0l469 1401h352l506 -1401h-342l-116 352h-455l-109 -352h-305zM498 584h303
l-154 467h-4z" />
    <glyph glyph-name="Adieresis" unicode="&#xc4;" horiz-adv-x="1347" 
d="M438 1618q-70 0 -103.5 31.5t-33.5 99.5v23q0 69 33.5 100t103.5 31h13q69 0 104 -31t35 -100v-23q0 -131 -139 -131h-13zM866 1618q-139 0 -139 131v23q0 131 139 131h13q70 0 103.5 -31t33.5 -100v-23q0 -68 -33.5 -99.5t-103.5 -31.5h-13zM10 0l469 1401h352
l506 -1401h-342l-116 352h-455l-109 -352h-305zM498 584h303l-154 467h-4z" />
    <glyph glyph-name="Aring" unicode="&#xc5;" horiz-adv-x="1347" 
d="M653 1575q-123 0 -185 54.5t-62 172.5v29q0 119 62 173t185 54h15q122 0 183.5 -54t61.5 -173v-29q0 -117 -62 -172t-183 -55h-15zM657 1704h7q55 0 79.5 24t24.5 82v9q0 60 -24 82t-80 22h-7q-58 0 -83 -22.5t-25 -81.5v-9q0 -57 25.5 -81.5t82.5 -24.5zM10 0l469 1401
h352l506 -1401h-342l-116 352h-455l-109 -352h-305zM498 584h303l-154 467h-4z" />
    <glyph glyph-name="AE" unicode="&#xc6;" horiz-adv-x="2054" 
d="M4 0l864 1401h1090l-25 -230h-602v-340h481v-243h-481v-359h637v-229h-956v383h-455l-225 -383h-328zM696 610h316v539z" />
    <glyph glyph-name="Ccedilla" unicode="&#xc7;" horiz-adv-x="1206" 
d="M776 -516q-100 0 -182 29v153q78 -20 141 -20q90 0 90 47q0 21 -21 37t-93 39q-61 20 -87 46.5t-26 75.5q0 41 23 89q-236 29 -359 161q-170 181 -170 553q0 168 39 300t119.5 230t212 150.5t307.5 52.5q92 0 196 -17.5t171 -45.5l-41 -234q-176 50 -301 50
q-88 0 -154 -23.5t-107 -64t-66 -102.5t-34.5 -130.5t-9.5 -157.5q0 -272 100 -383q46 -53 117.5 -76.5t189.5 -23.5q110 0 259 29l32 -234q-129 -39 -346 -43v-14q0 -18 13.5 -28.5t62.5 -28.5q97 -36 132.5 -76t35.5 -111q0 -98 -55 -159q-29 -33 -80.5 -51.5
t-108.5 -18.5z" />
    <glyph glyph-name="Egrave" unicode="&#xc8;" horiz-adv-x="1193" 
d="M786 1554l-415 281l143 195l375 -349zM152 0v1401h946l-25 -232h-602v-340h481v-239h-481v-359h637v-231h-956z" />
    <glyph glyph-name="Eacute" unicode="&#xc9;" horiz-adv-x="1193" 
d="M473 1554l-102 127l374 349l144 -195zM152 0v1401h946l-25 -232h-602v-340h481v-239h-481v-359h637v-231h-956z" />
    <glyph glyph-name="Ecircumflex" unicode="&#xca;" horiz-adv-x="1193" 
d="M379 1561l-103 104l256 295h197l256 -295l-102 -104l-252 200zM152 0v1401h946l-25 -232h-602v-340h481v-239h-481v-359h637v-231h-956z" />
    <glyph glyph-name="Edieresis" unicode="&#xcb;" horiz-adv-x="1193" 
d="M410 1618q-70 0 -104 31.5t-34 99.5v23q0 69 34 100t104 31h12q69 0 104 -31t35 -100v-23q0 -131 -139 -131h-12zM838 1618q-140 0 -140 131v23q0 131 140 131h12q70 0 103.5 -31t33.5 -100v-23q0 -68 -33.5 -99.5t-103.5 -31.5h-12zM152 0v1401h946l-25 -232h-602v-340
h481v-239h-481v-359h637v-231h-956z" />
    <glyph glyph-name="Igrave" unicode="&#xcc;" horiz-adv-x="630" 
d="M471 1554l-416 281l144 195l374 -349zM156 0v1401h319v-1401h-319z" />
    <glyph glyph-name="Iacute" unicode="&#xcd;" horiz-adv-x="630" 
d="M158 1554l-103 127l375 349l143 -195zM156 0v1401h319v-1401h-319z" />
    <glyph glyph-name="Icircumflex" unicode="&#xce;" horiz-adv-x="630" 
d="M63 1561l-102 104l256 295h197l256 -295l-103 -104l-252 200zM156 0v1401h319v-1401h-319z" />
    <glyph glyph-name="Idieresis" unicode="&#xcf;" horiz-adv-x="630" 
d="M94 1618q-70 0 -103.5 31.5t-33.5 99.5v23q0 69 33.5 100t103.5 31h12q70 0 105 -31t35 -100v-23q0 -131 -140 -131h-12zM522 1618q-139 0 -139 131v23q0 131 139 131h13q70 0 103.5 -31t33.5 -100v-23q0 -68 -33.5 -99.5t-103.5 -31.5h-13zM156 0v1401h319v-1401h-319z
" />
    <glyph glyph-name="Eth" unicode="&#xd0;" horiz-adv-x="1404" 
d="M152 0v590h-148v209l148 24v578h432q206 0 340 -36.5t219 -121.5q170 -167 170 -536q0 -373 -170 -549q-155 -158 -516 -158h-475zM471 233h135q217 0 301 125q41 61 57.5 140t16.5 209q0 147 -23 229t-75 139q-46 50 -120 71t-194 21h-98v-338h285v-239h-285v-357z" />
    <glyph glyph-name="Ntilde" unicode="&#xd1;" horiz-adv-x="1482" 
d="M516 1622l-145 23q0 133 57.5 206.5t159.5 73.5q51 0 108.5 -21.5t108 -43t84.5 -21.5q68 0 86 94l145 -22q0 -133 -57.5 -207t-159.5 -74q-65 0 -163.5 43t-137.5 43q-68 0 -86 -94zM152 0v1401h235l664 -897v897h280v-1401h-256l-643 850v-850h-280z" />
    <glyph glyph-name="Ograve" unicode="&#xd2;" horiz-adv-x="1425" 
d="M868 1554l-415 281l143 195l375 -349zM713 -29q-317 0 -469 183.5t-152 543.5q0 729 621 729q316 0 468 -184t152 -545q0 -360 -152 -543.5t-468 -183.5zM713 221q155 0 221.5 111.5t66.5 365.5q0 255 -67 367.5t-221 112.5q-155 0 -222 -112.5t-67 -367.5
q0 -254 67 -365.5t222 -111.5z" />
    <glyph glyph-name="Oacute" unicode="&#xd3;" horiz-adv-x="1425" 
d="M555 1554l-102 127l374 349l144 -195zM713 -29q-317 0 -469 183.5t-152 543.5q0 729 621 729q316 0 468 -184t152 -545q0 -360 -152 -543.5t-468 -183.5zM713 221q155 0 221.5 111.5t66.5 365.5q0 255 -67 367.5t-221 112.5q-155 0 -222 -112.5t-67 -367.5
q0 -254 67 -365.5t222 -111.5z" />
    <glyph glyph-name="Ocircumflex" unicode="&#xd4;" horiz-adv-x="1425" 
d="M461 1561l-103 104l256 295h197l256 -295l-102 -104l-252 200zM713 -29q-317 0 -469 183.5t-152 543.5q0 729 621 729q316 0 468 -184t152 -545q0 -360 -152 -543.5t-468 -183.5zM713 221q155 0 221.5 111.5t66.5 365.5q0 255 -67 367.5t-221 112.5q-155 0 -222 -112.5
t-67 -367.5q0 -254 67 -365.5t222 -111.5z" />
    <glyph glyph-name="Otilde" unicode="&#xd5;" horiz-adv-x="1425" 
d="M483 1622l-145 23q0 133 57.5 206.5t159.5 73.5q51 0 108.5 -21.5t108 -43t84.5 -21.5q68 0 86 94l145 -22q0 -133 -57.5 -207t-159.5 -74q-65 0 -163.5 43t-137.5 43q-68 0 -86 -94zM713 -29q-317 0 -469 183.5t-152 543.5q0 729 621 729q316 0 468 -184t152 -545
q0 -360 -152 -543.5t-468 -183.5zM713 221q155 0 221.5 111.5t66.5 365.5q0 255 -67 367.5t-221 112.5q-155 0 -222 -112.5t-67 -367.5q0 -254 67 -365.5t222 -111.5z" />
    <glyph glyph-name="Odieresis" unicode="&#xd6;" horiz-adv-x="1425" 
d="M492 1618q-70 0 -104 31.5t-34 99.5v23q0 69 34 100t104 31h12q69 0 104 -31t35 -100v-23q0 -131 -139 -131h-12zM920 1618q-140 0 -140 131v23q0 131 140 131h12q70 0 103.5 -31t33.5 -100v-23q0 -68 -33.5 -99.5t-103.5 -31.5h-12zM713 -29q-317 0 -469 183.5
t-152 543.5q0 729 621 729q316 0 468 -184t152 -545q0 -360 -152 -543.5t-468 -183.5zM713 221q155 0 221.5 111.5t66.5 365.5q0 255 -67 367.5t-221 112.5q-155 0 -222 -112.5t-67 -367.5q0 -254 67 -365.5t222 -111.5z" />
    <glyph glyph-name="multiply" unicode="&#xd7;" 
d="M410 324l-136 135l205 205l-205 204l136 136l204 -205l205 205l135 -136l-204 -204l204 -205l-135 -135l-205 204z" />
    <glyph glyph-name="Oslash" unicode="&#xd8;" horiz-adv-x="1429" 
d="M317 -152l70 193q-295 153 -295 657q0 729 623 729q86 0 168 -16l51 139h178l-70 -192q295 -156 295 -660q0 -360 -152.5 -543.5t-469.5 -183.5q-83 0 -170 17l-49 -140h-179zM492 332l303 837q-38 9 -80 9q-155 0 -223 -113t-68 -367q0 -256 68 -366zM715 221
q155 0 223 111.5t68 365.5q0 258 -70 369l-303 -838q33 -8 82 -8z" />
    <glyph glyph-name="Ugrave" unicode="&#xd9;" horiz-adv-x="1421" 
d="M881 1554l-416 281l143 195l375 -349zM715 -29q-303 0 -441 135q-70 69 -102.5 164.5t-32.5 243.5v887h318v-887q0 -164 67 -231q65 -68 205 -68t203 66q67 67 67 231v889h283v-873q0 -288 -137 -417q-69 -66 -182 -103t-248 -37z" />
    <glyph glyph-name="Uacute" unicode="&#xda;" horiz-adv-x="1421" 
d="M567 1554l-102 127l375 349l143 -195zM715 -29q-303 0 -441 135q-70 69 -102.5 164.5t-32.5 243.5v887h318v-887q0 -164 67 -231q65 -68 205 -68t203 66q67 67 67 231v889h283v-873q0 -288 -137 -417q-69 -66 -182 -103t-248 -37z" />
    <glyph glyph-name="Ucircumflex" unicode="&#xdb;" horiz-adv-x="1421" 
d="M473 1561l-102 104l256 295h196l256 -295l-102 -104l-252 200zM715 -29q-303 0 -441 135q-70 69 -102.5 164.5t-32.5 243.5v887h318v-887q0 -164 67 -231q65 -68 205 -68t203 66q67 67 67 231v889h283v-873q0 -288 -137 -417q-69 -66 -182 -103t-248 -37z" />
    <glyph glyph-name="Udieresis" unicode="&#xdc;" horiz-adv-x="1421" 
d="M504 1618q-70 0 -103.5 31.5t-33.5 99.5v23q0 69 33.5 100t103.5 31h12q69 0 104 -31t35 -100v-23q0 -131 -139 -131h-12zM932 1618q-139 0 -139 131v23q0 131 139 131h12q70 0 103.5 -31t33.5 -100v-23q0 -68 -33.5 -99.5t-103.5 -31.5h-12zM715 -29q-303 0 -441 135
q-70 69 -102.5 164.5t-32.5 243.5v887h318v-887q0 -164 67 -231q65 -68 205 -68t203 66q67 67 67 231v889h283v-873q0 -288 -137 -417q-69 -66 -182 -103t-248 -37z" />
    <glyph glyph-name="Yacute" unicode="&#xdd;" horiz-adv-x="1355" 
d="M530 1554l-102 127l375 349l143 -195zM508 0v571l-483 830h360l307 -565l320 565h319l-504 -832v-569h-319z" />
    <glyph glyph-name="Thorn" unicode="&#xde;" horiz-adv-x="1267" 
d="M152 0v1401h319v-232h162q168 0 275 -26t173 -88q113 -104 113 -328t-104 -340q-120 -135 -394 -135h-225v-252h-319zM471 492h158q75 0 115 11.5t71 41.5q55 55 55 178q0 116 -53 166q-55 49 -196 49h-150v-446z" />
    <glyph glyph-name="germandbls" unicode="&#xdf;" horiz-adv-x="1460" 
d="M961 -29q-86 0 -185 16.5t-162 39.5l23 217q59 -20 148.5 -33.5t168.5 -13.5q95 0 132.5 17t37.5 54q0 32 -26 53.5t-68 34.5t-93 25t-101.5 31t-92.5 47t-68 78.5t-26 119.5q0 47 15 90.5t38.5 77t52.5 65t57.5 60.5t52 57t38.5 61t15 67q0 70 -49.5 108.5t-139.5 38.5
q-119 0 -177 -70.5t-58 -201.5v-1010h-293v813h-172v158l172 30v43q0 206 133.5 330.5t382.5 124.5q221 0 348 -89.5t127 -254.5q0 -72 -26.5 -132t-64.5 -99t-76 -72t-64.5 -65t-26.5 -62q0 -28 20 -47.5t52.5 -30t74.5 -23t85.5 -24t85.5 -35.5t74.5 -55.5t52.5 -85
t20 -123.5q0 -330 -438 -330z" />
    <glyph glyph-name="agrave" unicode="&#xe0;" horiz-adv-x="1087" 
d="M717 1145l-416 280l143 195l375 -348zM414 -29q-168 0 -260.5 90t-92.5 240q0 141 89 227q53 50 139.5 71.5t228.5 21.5h160v32q0 79 -37 113q-46 41 -170 41q-146 0 -281 -27l-14 215q189 37 356 37q264 0 361 -114q78 -90 78 -267v-651h-232l-24 61q-141 -90 -301 -90z
M498 195q79 0 180 30v207h-156q-104 0 -139 -35q-29 -29 -29 -84q0 -58 33.5 -88t110.5 -30z" />
    <glyph glyph-name="aacute" unicode="&#xe1;" horiz-adv-x="1087" 
d="M403 1145l-102 127l375 348l143 -195zM414 -29q-168 0 -260.5 90t-92.5 240q0 141 89 227q53 50 139.5 71.5t228.5 21.5h160v32q0 79 -37 113q-46 41 -170 41q-146 0 -281 -27l-14 215q189 37 356 37q264 0 361 -114q78 -90 78 -267v-651h-232l-24 61q-141 -90 -301 -90z
M498 195q79 0 180 30v207h-156q-104 0 -139 -35q-29 -29 -29 -84q0 -58 33.5 -88t110.5 -30z" />
    <glyph glyph-name="acircumflex" unicode="&#xe2;" horiz-adv-x="1087" 
d="M309 1151l-102 104l256 295h196l256 -295l-102 -104l-252 201zM414 -29q-168 0 -260.5 90t-92.5 240q0 141 89 227q53 50 139.5 71.5t228.5 21.5h160v32q0 79 -37 113q-46 41 -170 41q-146 0 -281 -27l-14 215q189 37 356 37q264 0 361 -114q78 -90 78 -267v-651h-232
l-24 61q-141 -90 -301 -90zM498 195q79 0 180 30v207h-156q-104 0 -139 -35q-29 -29 -29 -84q0 -58 33.5 -88t110.5 -30z" />
    <glyph glyph-name="atilde" unicode="&#xe3;" horiz-adv-x="1087" 
d="M332 1212l-146 23q0 133 57.5 207t159.5 74q51 0 109 -21.5t108.5 -43t84.5 -21.5q68 0 86 94l145 -23q0 -133 -57.5 -206.5t-159.5 -73.5q-65 0 -163.5 43t-137.5 43q-68 0 -86 -95zM414 -29q-168 0 -260.5 90t-92.5 240q0 141 89 227q53 50 139.5 71.5t228.5 21.5h160
v32q0 79 -37 113q-46 41 -170 41q-146 0 -281 -27l-14 215q189 37 356 37q264 0 361 -114q78 -90 78 -267v-651h-232l-24 61q-141 -90 -301 -90zM498 195q79 0 180 30v207h-156q-104 0 -139 -35q-29 -29 -29 -84q0 -58 33.5 -88t110.5 -30z" />
    <glyph glyph-name="adieresis" unicode="&#xe4;" horiz-adv-x="1087" 
d="M340 1208q-70 0 -103.5 31.5t-33.5 99.5v23q0 69 33.5 100t103.5 31h12q70 0 105 -31t35 -100v-23q0 -131 -140 -131h-12zM768 1208q-139 0 -139 131v23q0 131 139 131h12q70 0 104 -31t34 -100v-23q0 -68 -34 -99.5t-104 -31.5h-12zM414 -29q-168 0 -260.5 90t-92.5 240
q0 141 89 227q53 50 139.5 71.5t228.5 21.5h160v32q0 79 -37 113q-46 41 -170 41q-146 0 -281 -27l-14 215q189 37 356 37q264 0 361 -114q78 -90 78 -267v-651h-232l-24 61q-141 -90 -301 -90zM498 195q79 0 180 30v207h-156q-104 0 -139 -35q-29 -29 -29 -84
q0 -58 33.5 -88t110.5 -30z" />
    <glyph glyph-name="aring" unicode="&#xe5;" horiz-adv-x="1087" 
d="M555 1165q-248 0 -248 228v28q0 119 62.5 173.5t185.5 54.5h14q122 0 184 -54.5t62 -173.5v-28q0 -228 -246 -228h-14zM559 1294h6q55 0 80 24.5t25 82.5v8q0 59 -24.5 81.5t-80.5 22.5h-6q-58 0 -83 -22.5t-25 -81.5v-8q0 -58 26 -82.5t82 -24.5zM414 -29
q-168 0 -260.5 90t-92.5 240q0 141 89 227q53 50 139.5 71.5t228.5 21.5h160v32q0 79 -37 113q-46 41 -170 41q-146 0 -281 -27l-14 215q189 37 356 37q264 0 361 -114q78 -90 78 -267v-651h-232l-24 61q-141 -90 -301 -90zM498 195q79 0 180 30v207h-156q-104 0 -139 -35
q-29 -29 -29 -84q0 -58 33.5 -88t110.5 -30z" />
    <glyph glyph-name="ae" unicode="&#xe6;" horiz-adv-x="1673" 
d="M414 -29q-168 0 -260.5 90t-92.5 240q0 141 89 227q53 50 139.5 71.5t228.5 21.5h160v36q-3 75 -37 109q-46 41 -170 41q-146 0 -281 -27l-14 215q189 37 356 37q213 0 324 -80q118 80 295 80q229 0 345 -124t116 -382v-92q0 -22 -25 -22h-616q6 -122 80 -169.5
t229 -47.5q120 0 250 24l22 -213q-187 -35 -338 -35q-275 0 -411 123q-68 -51 -180.5 -87t-208.5 -36zM971 602h354q0 97 -45 153t-131 56q-168 0 -178 -209zM498 195q99 0 211 38q-25 70 -31 199h-156q-104 0 -139 -35q-29 -29 -29 -84q0 -58 33.5 -88t110.5 -30z" />
    <glyph glyph-name="ccedilla" unicode="&#xe7;" horiz-adv-x="948" 
d="M586 -516q-101 0 -183 29v153q78 -20 142 -20q90 0 90 47q0 21 -21.5 37t-93.5 39q-61 19 -86.5 46t-25.5 76q0 51 28 99q-188 38 -282 182q-82 125 -82 307q0 264 129 404q67 72 171.5 110.5t229.5 38.5q163 0 295 -37l-18 -217q-111 29 -232 29q-134 0 -203 -72
q-67 -72 -67 -233q0 -158 69.5 -232.5t225.5 -74.5q104 0 209 20l22 -211q-141 -33 -282 -33h-35v-14q0 -18 13.5 -28.5t62.5 -28.5q97 -36 132 -76t35 -111q0 -98 -55 -159q-29 -33 -80 -51.5t-108 -18.5z" />
    <glyph glyph-name="egrave" unicode="&#xe8;" horiz-adv-x="1081" 
d="M696 1145l-415 280l143 195l375 -348zM623 -29q-281 0 -416 129q-135 130 -135 400q0 261 127 396.5t360 135.5q229 0 345 -124t116 -382v-92q0 -22 -25 -22h-616q6 -122 80 -169.5t229 -47.5q120 0 250 24l23 -213q-187 -35 -338 -35zM379 602h354q0 97 -45 153t-131 56
q-168 0 -178 -209z" />
    <glyph glyph-name="eacute" unicode="&#xe9;" horiz-adv-x="1081" 
d="M383 1145l-102 127l374 348l144 -195zM623 -29q-281 0 -416 129q-135 130 -135 400q0 261 127 396.5t360 135.5q229 0 345 -124t116 -382v-92q0 -22 -25 -22h-616q6 -122 80 -169.5t229 -47.5q120 0 250 24l23 -213q-187 -35 -338 -35zM379 602h354q0 97 -45 153t-131 56
q-168 0 -178 -209z" />
    <glyph glyph-name="ecircumflex" unicode="&#xea;" horiz-adv-x="1081" 
d="M289 1151l-103 104l256 295h197l256 -295l-102 -104l-252 201zM623 -29q-281 0 -416 129q-135 130 -135 400q0 261 127 396.5t360 135.5q229 0 345 -124t116 -382v-92q0 -22 -25 -22h-616q6 -122 80 -169.5t229 -47.5q120 0 250 24l23 -213q-187 -35 -338 -35zM379 602
h354q0 97 -45 153t-131 56q-168 0 -178 -209z" />
    <glyph glyph-name="edieresis" unicode="&#xeb;" horiz-adv-x="1081" 
d="M319 1208q-70 0 -103.5 31.5t-33.5 99.5v23q0 69 33.5 100t103.5 31h13q69 0 104 -31t35 -100v-23q0 -131 -139 -131h-13zM748 1208q-140 0 -140 131v23q0 131 140 131h12q70 0 103.5 -31t33.5 -100v-23q0 -68 -33.5 -99.5t-103.5 -31.5h-12zM623 -29q-281 0 -416 129
q-135 130 -135 400q0 261 127 396.5t360 135.5q229 0 345 -124t116 -382v-92q0 -22 -25 -22h-616q6 -122 80 -169.5t229 -47.5q120 0 250 24l23 -213q-187 -35 -338 -35zM379 602h354q0 97 -45 153t-131 56q-168 0 -178 -209z" />
    <glyph glyph-name="igrave" unicode="&#xec;" horiz-adv-x="550" 
d="M432 1145l-416 280l144 195l375 -348zM129 0v1004h293v-1004h-293z" />
    <glyph glyph-name="iacute" unicode="&#xed;" horiz-adv-x="550" 
d="M119 1145l-103 127l375 348l144 -195zM129 0v1004h293v-1004h-293z" />
    <glyph glyph-name="icircumflex" unicode="&#xee;" horiz-adv-x="550" 
d="M25 1151l-103 104l256 295h197l256 -295l-103 -104l-252 201zM129 0v1004h293v-1004h-293z" />
    <glyph glyph-name="idieresis" unicode="&#xef;" horiz-adv-x="550" 
d="M55 1208q-70 0 -103.5 31.5t-33.5 99.5v23q0 69 33.5 100t103.5 31h13q69 0 104 -31t35 -100v-23q0 -131 -139 -131h-13zM483 1208q-139 0 -139 131v23q0 131 139 131h13q70 0 103.5 -31t33.5 -100v-23q0 -68 -33.5 -99.5t-103.5 -31.5h-13zM129 0v1004h293v-1004h-293z
" />
    <glyph glyph-name="eth" unicode="&#xf0;" horiz-adv-x="1167" 
d="M721 1368q177 -166 266.5 -365.5t89.5 -447.5q0 -133 -29.5 -238.5t-89 -183.5t-157 -120t-226.5 -42q-124 0 -220 37t-155 104t-88.5 155.5t-29.5 195.5q0 230 118.5 357.5t311.5 127.5q108 0 217 -53q-51 162 -178 307l-135 -131l-119 119l135 133q-48 44 -156 129
q144 139 146 143q122 -80 170 -116l143 139l119 -119zM582 195q104 0 148 92.5t44 265.5q0 60 -8 158q-89 26 -162 26q-217 0 -217 -270q0 -124 48.5 -198t146.5 -74z" />
    <glyph glyph-name="ntilde" unicode="&#xf1;" horiz-adv-x="1173" 
d="M375 1212l-146 23q0 133 57.5 207t159.5 74q51 0 109 -21.5t108.5 -43t84.5 -21.5q68 0 86 94l145 -23q0 -133 -57.5 -206.5t-159.5 -73.5q-65 0 -163.5 43t-137.5 43q-68 0 -86 -95zM123 0v1004h254l6 -72q154 100 346 100q71 0 137 -19.5t105 -58.5q86 -83 86 -264
v-690h-293v655q0 70 -31 101q-35 32 -127 32q-42 0 -98.5 -9.5t-91.5 -22.5v-756h-293z" />
    <glyph glyph-name="ograve" unicode="&#xf2;" horiz-adv-x="1163" 
d="M737 1145l-415 280l143 195l375 -348zM582 -29q-254 0 -382 141t-128 390t128 389.5t382 140.5t382 -140.5t128 -389.5t-128 -390t-382 -141zM582 195q108 0 156 74.5t48 232.5t-48 232.5t-156 74.5q-109 0 -157 -74.5t-48 -232.5t48 -232.5t157 -74.5z" />
    <glyph glyph-name="oacute" unicode="&#xf3;" horiz-adv-x="1163" 
d="M424 1145l-102 127l374 348l144 -195zM582 -29q-254 0 -382 141t-128 390t128 389.5t382 140.5t382 -140.5t128 -389.5t-128 -390t-382 -141zM582 195q108 0 156 74.5t48 232.5t-48 232.5t-156 74.5q-109 0 -157 -74.5t-48 -232.5t48 -232.5t157 -74.5z" />
    <glyph glyph-name="ocircumflex" unicode="&#xf4;" horiz-adv-x="1163" 
d="M330 1151l-103 104l256 295h197l256 -295l-102 -104l-252 201zM582 -29q-254 0 -382 141t-128 390t128 389.5t382 140.5t382 -140.5t128 -389.5t-128 -390t-382 -141zM582 195q108 0 156 74.5t48 232.5t-48 232.5t-156 74.5q-109 0 -157 -74.5t-48 -232.5t48 -232.5
t157 -74.5z" />
    <glyph glyph-name="otilde" unicode="&#xf5;" horiz-adv-x="1163" 
d="M352 1212l-145 23q0 133 57.5 207t159.5 74q51 0 108.5 -21.5t108 -43t84.5 -21.5q68 0 86 94l145 -23q0 -133 -57.5 -206.5t-159.5 -73.5q-65 0 -163.5 43t-137.5 43q-68 0 -86 -95zM582 -29q-254 0 -382 141t-128 390t128 389.5t382 140.5t382 -140.5t128 -389.5
t-128 -390t-382 -141zM582 195q108 0 156 74.5t48 232.5t-48 232.5t-156 74.5q-109 0 -157 -74.5t-48 -232.5t48 -232.5t157 -74.5z" />
    <glyph glyph-name="odieresis" unicode="&#xf6;" horiz-adv-x="1163" 
d="M360 1208q-70 0 -103.5 31.5t-33.5 99.5v23q0 69 33.5 100t103.5 31h13q69 0 104 -31t35 -100v-23q0 -131 -139 -131h-13zM788 1208q-139 0 -139 131v23q0 131 139 131h13q70 0 103.5 -31t33.5 -100v-23q0 -68 -33.5 -99.5t-103.5 -31.5h-13zM582 -29q-254 0 -382 141
t-128 390t128 389.5t382 140.5t382 -140.5t128 -389.5t-128 -390t-382 -141zM582 195q108 0 156 74.5t48 232.5t-48 232.5t-156 74.5q-109 0 -157 -74.5t-48 -232.5t48 -232.5t157 -74.5z" />
    <glyph glyph-name="divide" unicode="&#xf7;" 
d="M608 924q-68 0 -100.5 30.5t-32.5 96.5v26q0 66 32 95.5t101 29.5h15q69 0 102 -29.5t33 -95.5v-26q0 -127 -135 -127h-15zM231 567v193h766v-193h-766zM608 123q-68 0 -100.5 30t-32.5 97v26q0 66 32 95.5t101 29.5h15q69 0 102 -29.5t33 -95.5v-26q0 -66 -33 -96.5
t-102 -30.5h-15z" />
    <glyph glyph-name="oslash" unicode="&#xf8;" horiz-adv-x="1163" 
d="M248 -172l71 197q-124 59 -185.5 182t-61.5 295q0 249 128 389.5t382 140.5q62 0 106 -8l55 152h172l-71 -197q124 -60 186 -182.5t62 -294.5q0 -249 -128 -390t-382 -141q-58 0 -107 9l-55 -152h-172zM416 285l192 522q-8 2 -26 2q-109 0 -157 -74.5t-48 -232.5
q0 -143 39 -217zM555 195h27q108 0 156 74.5t48 232.5q0 145 -38 217z" />
    <glyph glyph-name="ugrave" unicode="&#xf9;" horiz-adv-x="1165" 
d="M752 1145l-416 280l143 195l375 -348zM444 -27q-71 0 -136.5 19.5t-104.5 58.5q-86 83 -86 264v689h293v-648q0 -76 30 -106q36 -33 127 -33q94 0 183 29v758h292v-1004h-254l-8 68q-152 -95 -336 -95z" />
    <glyph glyph-name="uacute" unicode="&#xfa;" horiz-adv-x="1165" 
d="M438 1145l-102 127l375 348l143 -195zM444 -27q-71 0 -136.5 19.5t-104.5 58.5q-86 83 -86 264v689h293v-648q0 -76 30 -106q36 -33 127 -33q94 0 183 29v758h292v-1004h-254l-8 68q-152 -95 -336 -95z" />
    <glyph glyph-name="ucircumflex" unicode="&#xfb;" horiz-adv-x="1165" 
d="M344 1151l-102 104l256 295h196l256 -295l-102 -104l-252 201zM444 -27q-71 0 -136.5 19.5t-104.5 58.5q-86 83 -86 264v689h293v-648q0 -76 30 -106q36 -33 127 -33q94 0 183 29v758h292v-1004h-254l-8 68q-152 -95 -336 -95z" />
    <glyph glyph-name="udieresis" unicode="&#xfc;" horiz-adv-x="1165" 
d="M375 1208q-70 0 -103.5 31.5t-33.5 99.5v23q0 69 33.5 100t103.5 31h12q69 0 104 -31t35 -100v-23q0 -131 -139 -131h-12zM803 1208q-139 0 -139 131v23q0 131 139 131h12q70 0 103.5 -31t33.5 -100v-23q0 -68 -33.5 -99.5t-103.5 -31.5h-12zM444 -27q-71 0 -136.5 19.5
t-104.5 58.5q-86 83 -86 264v689h293v-648q0 -76 30 -106q36 -33 127 -33q94 0 183 29v758h292v-1004h-254l-8 68q-152 -95 -336 -95z" />
    <glyph glyph-name="yacute" unicode="&#xfd;" horiz-adv-x="1169" 
d="M469 1145l-102 127l374 348l144 -195zM582 -489q-132 0 -256 26l-21 217q125 -22 230 -22q123 0 170 47q49 46 49 162v122q-144 -81 -316 -81q-156 0 -233 77q-88 88 -88 254v691h293v-650q0 -70 30 -100q36 -33 125 -33q40 0 96 11.5t93 25.5v746h293v-961
q0 -138 -21.5 -233t-74 -164.5t-143 -102t-226.5 -32.5z" />
    <glyph glyph-name="thorn" unicode="&#xfe;" horiz-adv-x="1146" 
d="M123 -461v1925h293v-514q140 82 284 82q151 0 240 -86q135 -132 135 -438q0 -144 -28.5 -249.5t-82 -167.5t-123 -91t-157.5 -29q-148 0 -268 74v-506h-293zM598 203q64 0 99.5 27t53 94t17.5 188q0 161 -39 223t-139 62q-80 0 -174 -27v-539q66 -28 182 -28z" />
    <glyph glyph-name="ydieresis" unicode="&#xff;" horiz-adv-x="1169" 
d="M365 1208q-70 0 -104 31.5t-34 99.5v23q0 69 34 100t104 31h12q69 0 104 -31t35 -100v-23q0 -131 -139 -131h-12zM793 1208q-140 0 -140 131v23q0 131 140 131h12q70 0 103.5 -31t33.5 -100v-23q0 -68 -33.5 -99.5t-103.5 -31.5h-12zM582 -489q-132 0 -256 26l-21 217
q125 -22 230 -22q123 0 170 47q49 46 49 162v122q-144 -81 -316 -81q-156 0 -233 77q-88 88 -88 254v691h293v-650q0 -70 30 -100q36 -33 125 -33q40 0 96 11.5t93 25.5v746h293v-961q0 -138 -21.5 -233t-74 -164.5t-143 -102t-226.5 -32.5z" />
    <glyph glyph-name="Amacron" unicode="&#x100;" horiz-adv-x="1347" 
d="M356 1649v200h605v-200h-605zM10 0l469 1401h352l506 -1401h-342l-116 352h-455l-109 -352h-305zM498 584h303l-154 467h-4z" />
    <glyph glyph-name="amacron" unicode="&#x101;" horiz-adv-x="1087" 
d="M258 1239v201h604v-201h-604zM414 -29q-168 0 -260.5 90t-92.5 240q0 141 89 227q53 50 139.5 71.5t228.5 21.5h160v32q0 79 -37 113q-46 41 -170 41q-146 0 -281 -27l-14 215q189 37 356 37q264 0 361 -114q78 -90 78 -267v-651h-232l-24 61q-141 -90 -301 -90zM498 195
q79 0 180 30v207h-156q-104 0 -139 -35q-29 -29 -29 -84q0 -58 33.5 -88t110.5 -30z" />
    <glyph glyph-name="Abreve" unicode="&#x102;" horiz-adv-x="1347" 
d="M659 1587q-90 0 -155.5 26t-102.5 73t-54 103.5t-17 125.5l178 6q19 -156 151 -156q133 0 152 156l176 -6q0 -69 -17 -125.5t-53.5 -103.5t-102 -73t-155.5 -26zM10 0l469 1401h352l506 -1401h-342l-116 352h-455l-109 -352h-305zM498 584h303l-154 467h-4z" />
    <glyph glyph-name="abreve" unicode="&#x103;" horiz-adv-x="1087" 
d="M561 1178q-72 0 -129 17.5t-94.5 47.5t-61.5 72t-34.5 89t-10.5 101l179 6q19 -155 151 -155q133 0 152 155l176 -6q0 -69 -17 -125t-53.5 -103t-102 -73t-155.5 -26zM414 -29q-168 0 -260.5 90t-92.5 240q0 141 89 227q53 50 139.5 71.5t228.5 21.5h160v32q0 79 -37 113
q-46 41 -170 41q-146 0 -281 -27l-14 215q189 37 356 37q264 0 361 -114q78 -90 78 -267v-651h-232l-24 61q-141 -90 -301 -90zM498 195q79 0 180 30v207h-156q-104 0 -139 -35q-29 -29 -29 -84q0 -58 33.5 -88t110.5 -30z" />
    <glyph glyph-name="Aogonek" unicode="&#x104;" horiz-adv-x="1347" 
d="M1067 -510q-114 0 -185 62.5t-71 177.5q0 172 178 286l-110 336h-455l-109 -352h-305l469 1401h352l506 -1401h-82q-96 0 -167.5 -63.5t-71.5 -161.5q0 -117 125 -117q55 0 114 18v-157q-98 -29 -188 -29zM498 584h303l-154 467h-4z" />
    <glyph glyph-name="aogonek" unicode="&#x105;" horiz-adv-x="1087" 
d="M823 -510q-114 0 -185 62.5t-71 177.5q0 75 45.5 146.5t122.5 131.5l-20 53q-141 -90 -301 -90q-168 0 -260.5 90t-92.5 240q0 141 89 227q53 50 139.5 71.5t228.5 21.5h160v32q0 79 -37 113q-46 41 -170 41q-146 0 -281 -27l-14 215q189 37 356 37q264 0 361 -114
q78 -90 78 -267v-651h-31q-30 0 -53 -23q-115 -115 -115 -225q0 -94 125 -94q56 0 115 18v-157q-98 -29 -189 -29zM498 195q79 0 180 30v207h-156q-104 0 -139 -35q-29 -29 -29 -84q0 -58 33.5 -88t110.5 -30z" />
    <glyph glyph-name="Cacute" unicode="&#x106;" horiz-adv-x="1206" 
d="M612 1554l-102 127l375 349l143 -195zM770 -29q-349 0 -508 170q-170 181 -170 553q0 168 39 300t119.5 230t212 150.5t307.5 52.5q92 0 196 -17.5t171 -45.5l-41 -234q-176 50 -301 50q-88 0 -154 -23.5t-107 -64t-66 -102.5t-34.5 -130.5t-9.5 -157.5q0 -272 100 -383
q46 -53 117.5 -76.5t189.5 -23.5q110 0 259 29l32 -234q-62 -19 -163.5 -31t-188.5 -12z" />
    <glyph glyph-name="cacute" unicode="&#x107;" horiz-adv-x="948" 
d="M442 1145l-102 127l375 348l143 -195zM621 -29q-338 0 -467 201q-82 125 -82 307q0 264 129 404q67 72 171.5 110.5t229.5 38.5q163 0 295 -37l-18 -217q-111 29 -232 29q-134 0 -203 -72q-67 -72 -67 -233q0 -158 69.5 -232.5t225.5 -74.5q104 0 209 20l22 -211
q-141 -33 -282 -33z" />
    <glyph glyph-name="Ccircumflex" unicode="&#x108;" horiz-adv-x="1206" 
d="M518 1561l-102 104l256 295h196l256 -295l-102 -104l-252 200zM770 -29q-349 0 -508 170q-170 181 -170 553q0 168 39 300t119.5 230t212 150.5t307.5 52.5q92 0 196 -17.5t171 -45.5l-41 -234q-176 50 -301 50q-88 0 -154 -23.5t-107 -64t-66 -102.5t-34.5 -130.5
t-9.5 -157.5q0 -272 100 -383q46 -53 117.5 -76.5t189.5 -23.5q110 0 259 29l32 -234q-62 -19 -163.5 -31t-188.5 -12z" />
    <glyph glyph-name="ccircumflex" unicode="&#x109;" horiz-adv-x="948" 
d="M348 1151l-102 104l256 295h196l256 -295l-102 -104l-252 201zM621 -29q-338 0 -467 201q-82 125 -82 307q0 264 129 404q67 72 171.5 110.5t229.5 38.5q163 0 295 -37l-18 -217q-111 29 -232 29q-134 0 -203 -72q-67 -72 -67 -233q0 -158 69.5 -232.5t225.5 -74.5
q104 0 209 20l22 -211q-141 -33 -282 -33z" />
    <glyph glyph-name="Cdotaccent" unicode="&#x10a;" horiz-adv-x="1206" 
d="M764 1614q-75 0 -111.5 32.5t-36.5 106.5v23q0 75 36 107t112 32h12q74 0 111 -32.5t37 -106.5v-23q0 -73 -37 -106t-111 -33h-12zM770 -29q-349 0 -508 170q-170 181 -170 553q0 168 39 300t119.5 230t212 150.5t307.5 52.5q92 0 196 -17.5t171 -45.5l-41 -234
q-176 50 -301 50q-88 0 -154 -23.5t-107 -64t-66 -102.5t-34.5 -130.5t-9.5 -157.5q0 -272 100 -383q46 -53 117.5 -76.5t189.5 -23.5q110 0 259 29l32 -234q-62 -19 -163.5 -31t-188.5 -12z" />
    <glyph glyph-name="cdotaccent" unicode="&#x10b;" horiz-adv-x="948" 
d="M594 1204q-75 0 -111.5 32.5t-36.5 106.5v23q0 75 36 107t112 32h12q74 0 111 -32.5t37 -106.5v-23q0 -73 -37 -106t-111 -33h-12zM621 -29q-338 0 -467 201q-82 125 -82 307q0 264 129 404q67 72 171.5 110.5t229.5 38.5q163 0 295 -37l-18 -217q-111 29 -232 29
q-134 0 -203 -72q-67 -72 -67 -233q0 -158 69.5 -232.5t225.5 -74.5q104 0 209 20l22 -211q-141 -33 -282 -33z" />
    <glyph glyph-name="Ccaron" unicode="&#x10c;" horiz-adv-x="1206" 
d="M672 1585l-256 295l102 105l252 -201l252 201l102 -105l-256 -295h-196zM770 -29q-349 0 -508 170q-170 181 -170 553q0 168 39 300t119.5 230t212 150.5t307.5 52.5q92 0 196 -17.5t171 -45.5l-41 -234q-176 50 -301 50q-88 0 -154 -23.5t-107 -64t-66 -102.5
t-34.5 -130.5t-9.5 -157.5q0 -272 100 -383q46 -53 117.5 -76.5t189.5 -23.5q110 0 259 29l32 -234q-62 -19 -163.5 -31t-188.5 -12z" />
    <glyph glyph-name="ccaron" unicode="&#x10d;" horiz-adv-x="948" 
d="M502 1176l-256 294l102 105l252 -201l252 201l102 -105l-256 -294h-196zM621 -29q-338 0 -467 201q-82 125 -82 307q0 264 129 404q67 72 171.5 110.5t229.5 38.5q163 0 295 -37l-18 -217q-111 29 -232 29q-134 0 -203 -72q-67 -72 -67 -233q0 -158 69.5 -232.5
t225.5 -74.5q104 0 209 20l22 -211q-141 -33 -282 -33z" />
    <glyph glyph-name="Dcaron" unicode="&#x10e;" horiz-adv-x="1404" 
d="M604 1585l-256 295l103 105l251 -201l252 201l103 -105l-256 -295h-197zM152 0v1401h432q206 0 340 -36.5t219 -121.5q170 -167 170 -536q0 -373 -170 -549q-155 -158 -516 -158h-475zM471 233h135q217 0 301 125q41 61 57.5 140t16.5 209q0 147 -23 229t-75 139
q-46 50 -120 71t-194 21h-98v-934z" />
    <glyph glyph-name="dcaron" unicode="&#x10f;" horiz-adv-x="1462" 
d="M451 -29q-151 0 -240 86q-139 136 -139 443q0 248 107.5 390t289.5 142q143 0 266 -74v506h293v-1464h-254l-6 72q-152 -101 -317 -101zM1241 864v271q-63 22 -88 55t-25 94q0 69 35.5 106t104.5 37h14q67 0 103 -37t36 -106v-51q0 -97 -13 -208.5t-30 -160.5h-137z
M561 201q85 0 174 35v542q-74 23 -139 23q-110 0 -163.5 -68t-53.5 -241q0 -165 40.5 -228t141.5 -63z" />
    <glyph glyph-name="Dcroat" unicode="&#x110;" horiz-adv-x="1404" 
d="M152 0v590h-148v209l148 24v578h432q206 0 340 -36.5t219 -121.5q170 -167 170 -536q0 -373 -170 -549q-155 -158 -516 -158h-475zM471 233h135q217 0 301 125q41 61 57.5 140t16.5 209q0 147 -23 229t-75 139q-46 50 -120 71t-194 21h-98v-338h285v-239h-285v-357z" />
    <glyph glyph-name="dcroat" unicode="&#x111;" horiz-adv-x="1150" 
d="M451 -29q-151 0 -240 86q-139 136 -139 443q0 248 107.5 390t289.5 142q143 0 266 -74v205h-325v168h325v133h293v-141l162 -12v-148h-162v-1163h-254l-6 72q-152 -101 -317 -101zM561 201q85 0 174 35v542q-74 23 -139 23q-110 0 -163.5 -68t-53.5 -241
q0 -165 40.5 -228t141.5 -63z" />
    <glyph glyph-name="Emacron" unicode="&#x112;" horiz-adv-x="1193" 
d="M328 1649v200h604v-200h-604zM152 0v1401h946l-25 -232h-602v-340h481v-239h-481v-359h637v-231h-956z" />
    <glyph glyph-name="emacron" unicode="&#x113;" horiz-adv-x="1081" 
d="M238 1239v201h604v-201h-604zM623 -29q-281 0 -416 129q-135 130 -135 400q0 261 127 396.5t360 135.5q229 0 345 -124t116 -382v-92q0 -22 -25 -22h-616q6 -122 80 -169.5t229 -47.5q120 0 250 24l23 -213q-187 -35 -338 -35zM379 602h354q0 97 -45 153t-131 56
q-168 0 -178 -209z" />
    <glyph glyph-name="Ebreve" unicode="&#x114;" horiz-adv-x="1193" 
d="M631 1587q-72 0 -129 17.5t-94.5 47.5t-61.5 72.5t-34.5 89.5t-10.5 101l178 6q19 -156 152 -156q132 0 151 156l176 -6q0 -54 -10 -101t-34 -89.5t-60.5 -72.5t-93.5 -47.5t-129 -17.5zM152 0v1401h946l-25 -232h-602v-340h481v-239h-481v-359h637v-231h-956z" />
    <glyph glyph-name="ebreve" unicode="&#x115;" horiz-adv-x="1081" 
d="M553 1178q-72 0 -129 17.5t-94.5 47.5t-61.5 72t-34.5 89t-10.5 101l178 6q19 -155 152 -155t152 155l176 -6q0 -69 -17 -125t-53.5 -103t-102 -73t-155.5 -26zM623 -29q-281 0 -416 129q-135 130 -135 400q0 261 127 396.5t360 135.5q229 0 345 -124t116 -382v-92
q0 -22 -25 -22h-616q6 -122 80 -169.5t229 -47.5q120 0 250 24l23 -213q-187 -35 -338 -35zM379 602h354q0 97 -45 153t-131 56q-168 0 -178 -209z" />
    <glyph glyph-name="Edotaccent" unicode="&#x116;" horiz-adv-x="1193" 
d="M625 1614q-75 0 -111.5 32.5t-36.5 106.5v23q0 75 36 107t112 32h12q74 0 110.5 -32.5t36.5 -106.5v-23q0 -73 -36.5 -106t-110.5 -33h-12zM152 0v1401h946l-25 -232h-602v-340h481v-239h-481v-359h637v-231h-956z" />
    <glyph glyph-name="edotaccent" unicode="&#x117;" horiz-adv-x="1081" 
d="M535 1204q-75 0 -111.5 32.5t-36.5 106.5v23q0 75 36 107t112 32h12q74 0 110.5 -32.5t36.5 -106.5v-23q0 -73 -36.5 -106t-110.5 -33h-12zM623 -29q-281 0 -416 129q-135 130 -135 400q0 261 127 396.5t360 135.5q229 0 345 -124t116 -382v-92q0 -22 -25 -22h-616
q6 -122 80 -169.5t229 -47.5q120 0 250 24l23 -213q-187 -35 -338 -35zM379 602h354q0 97 -45 153t-131 56q-168 0 -178 -209z" />
    <glyph glyph-name="Eogonek" unicode="&#x118;" horiz-adv-x="1193" 
d="M899 -510q-114 0 -185 62.5t-71 177.5q0 78 41.5 153.5t114.5 116.5h-647v1401h946l-25 -232h-602v-340h481v-239h-481v-359h637v-231h-21q-96 0 -167.5 -63.5t-71.5 -161.5q0 -117 125 -117q55 0 114 18v-157q-98 -29 -188 -29z" />
    <glyph glyph-name="eogonek" unicode="&#x119;" horiz-adv-x="1081" 
d="M791 -510q-114 0 -185 62.5t-71 177.5q0 73 32 135.5t90 105.5h-34q-281 0 -416 129q-135 130 -135 400q0 261 127 396.5t360 135.5q229 0 345 -124t116 -382v-92q0 -22 -25 -22h-616q6 -122 80 -169.5t229 -47.5q120 0 250 24l23 -213q-92 -20 -157 -77.5t-65 -151.5
q0 -57 31.5 -88t93.5 -31q56 0 115 18v-157q-98 -29 -188 -29zM379 602h354q0 97 -45 153t-131 56q-168 0 -178 -209z" />
    <glyph glyph-name="Ecaron" unicode="&#x11a;" horiz-adv-x="1193" 
d="M532 1585l-256 295l103 105l252 -201l252 201l102 -105l-256 -295h-197zM152 0v1401h946l-25 -232h-602v-340h481v-239h-481v-359h637v-231h-956z" />
    <glyph glyph-name="ecaron" unicode="&#x11b;" horiz-adv-x="1081" 
d="M453 1176l-256 294l102 105l252 -201l252 201l102 -105l-256 -294h-196zM623 -29q-281 0 -416 129q-135 130 -135 400q0 261 127 396.5t360 135.5q229 0 345 -124t116 -382v-92q0 -22 -25 -22h-616q6 -122 80 -169.5t229 -47.5q120 0 250 24l23 -213q-187 -35 -338 -35z
M379 602h354q0 97 -45 153t-131 56q-168 0 -178 -209z" />
    <glyph glyph-name="Gcircumflex" unicode="&#x11c;" horiz-adv-x="1374" 
d="M526 1561l-102 104l256 295h197l256 -295l-103 -104l-252 200zM764 -29q-185 0 -316.5 49.5t-208.5 145.5t-112 225t-35 301q0 166 44 300t131 231.5t222.5 150.5t311.5 53q104 0 216 -19t179 -48l-41 -234q-179 52 -332 52q-208 0 -303.5 -119t-95.5 -354
q0 -257 82 -373q80 -113 270 -113q84 0 170 14v295h-196v230h514v-715q-100 -31 -242.5 -51.5t-257.5 -20.5z" />
    <glyph glyph-name="gcircumflex" unicode="&#x11d;" horiz-adv-x="1107" 
d="M303 1151l-102 104l256 295h196l256 -295l-102 -104l-252 201zM549 -489q-258 0 -376 64t-118 200q0 60 31.5 106.5t87.5 75.5q-51 42 -51 131q0 63 35 127.5t98 116.5q-154 100 -154 315q0 195 117.5 290t335.5 95q132 0 238 -39l127 146q78 -49 159 -174l-133 -91
q62 -94 62 -227h-2q0 -196 -116.5 -291.5t-334.5 -95.5q-76 0 -131 8q-27 -50 -27 -80q0 -26 29 -26h197q144 0 234 -25.5t144 -81.5q74 -77 74 -213q0 -331 -510 -331h-16zM555 469q98 0 142 44t44 134q0 88 -44 132t-142 44q-99 0 -143.5 -44t-44.5 -132q0 -90 44.5 -134
t143.5 -44zM557 -268h31q110 0 167.5 25.5t57.5 72.5q0 50 -37.5 69t-138.5 19h-293q-29 -32 -29 -76q0 -58 53.5 -84t188.5 -26z" />
    <glyph glyph-name="Gbreve" unicode="&#x11e;" horiz-adv-x="1374" 
d="M778 1587q-90 0 -155.5 26t-102.5 73t-54 103.5t-17 125.5l178 6q19 -156 151 -156q133 0 152 156l176 -6q0 -69 -17 -125.5t-53.5 -103.5t-102 -73t-155.5 -26zM764 -29q-185 0 -316.5 49.5t-208.5 145.5t-112 225t-35 301q0 166 44 300t131 231.5t222.5 150.5t311.5 53
q104 0 216 -19t179 -48l-41 -234q-179 52 -332 52q-208 0 -303.5 -119t-95.5 -354q0 -257 82 -373q80 -113 270 -113q84 0 170 14v295h-196v230h514v-715q-100 -31 -242.5 -51.5t-257.5 -20.5z" />
    <glyph glyph-name="gbreve" unicode="&#x11f;" horiz-adv-x="1107" 
d="M555 1178q-72 0 -129 17.5t-94.5 47.5t-61.5 72t-34.5 89t-10.5 101l178 6q19 -155 152 -155t152 155l176 -6q0 -69 -17 -125t-53.5 -103t-102 -73t-155.5 -26zM549 -489q-258 0 -376 64t-118 200q0 60 31.5 106.5t87.5 75.5q-51 42 -51 131q0 63 35 127.5t98 116.5
q-154 100 -154 315q0 195 117.5 290t335.5 95q132 0 238 -39l127 146q78 -49 159 -174l-133 -91q62 -94 62 -227h-2q0 -196 -116.5 -291.5t-334.5 -95.5q-76 0 -131 8q-27 -50 -27 -80q0 -26 29 -26h197q144 0 234 -25.5t144 -81.5q74 -77 74 -213q0 -331 -510 -331h-16z
M555 469q98 0 142 44t44 134q0 88 -44 132t-142 44q-99 0 -143.5 -44t-44.5 -132q0 -90 44.5 -134t143.5 -44zM557 -268h31q110 0 167.5 25.5t57.5 72.5q0 50 -37.5 69t-138.5 19h-293q-29 -32 -29 -76q0 -58 53.5 -84t188.5 -26z" />
    <glyph glyph-name="Gdotaccent" unicode="&#x120;" horiz-adv-x="1374" 
d="M772 1614q-75 0 -111 32.5t-36 106.5v23q0 75 36 107t111 32h12q74 0 111 -32.5t37 -106.5v-23q0 -73 -37 -106t-111 -33h-12zM764 -29q-185 0 -316.5 49.5t-208.5 145.5t-112 225t-35 301q0 166 44 300t131 231.5t222.5 150.5t311.5 53q104 0 216 -19t179 -48l-41 -234
q-179 52 -332 52q-208 0 -303.5 -119t-95.5 -354q0 -257 82 -373q80 -113 270 -113q84 0 170 14v295h-196v230h514v-715q-100 -31 -242.5 -51.5t-257.5 -20.5z" />
    <glyph glyph-name="gdotaccent" unicode="&#x121;" horiz-adv-x="1107" 
d="M549 1204q-75 0 -111.5 32.5t-36.5 106.5v23q0 75 36 107t112 32h12q74 0 111 -32.5t37 -106.5v-23q0 -73 -37 -106t-111 -33h-12zM549 -489q-258 0 -376 64t-118 200q0 60 31.5 106.5t87.5 75.5q-51 42 -51 131q0 63 35 127.5t98 116.5q-154 100 -154 315
q0 195 117.5 290t335.5 95q132 0 238 -39l127 146q78 -49 159 -174l-133 -91q62 -94 62 -227h-2q0 -196 -116.5 -291.5t-334.5 -95.5q-76 0 -131 8q-27 -50 -27 -80q0 -26 29 -26h197q144 0 234 -25.5t144 -81.5q74 -77 74 -213q0 -331 -510 -331h-16zM555 469q98 0 142 44
t44 134q0 88 -44 132t-142 44q-99 0 -143.5 -44t-44.5 -132q0 -90 44.5 -134t143.5 -44zM557 -268h31q110 0 167.5 25.5t57.5 72.5q0 50 -37.5 69t-138.5 19h-293q-29 -32 -29 -76q0 -58 53.5 -84t188.5 -26z" />
    <glyph glyph-name="Gcommaaccent" unicode="&#x122;" horiz-adv-x="1374" 
d="M764 -29q-185 0 -316.5 49.5t-208.5 145.5t-112 225t-35 301q0 166 44 300t131 231.5t222.5 150.5t311.5 53q104 0 216 -19t179 -48l-41 -234q-179 52 -332 52q-208 0 -303.5 -119t-95.5 -354q0 -257 82 -373q80 -113 270 -113q84 0 170 14v295h-196v230h514v-715
q-100 -31 -242.5 -51.5t-257.5 -20.5zM729 -737v270q-63 22 -88 55t-25 95q0 69 35.5 106t104.5 37h14q67 0 103 -37t36 -106v-52q0 -97 -13 -208t-30 -160h-137z" />
    <glyph glyph-name="gcommaaccent" unicode="&#x123;" horiz-adv-x="1107" 
d="M547 1159q-68 0 -103.5 38t-35.5 108v49q0 97 13 208t30 160h137v-270q63 -22 87.5 -54.5t24.5 -94.5q0 -70 -35.5 -107t-103.5 -37h-14zM549 -489q-258 0 -376 64t-118 200q0 60 31.5 106.5t87.5 75.5q-51 42 -51 131q0 63 35 127.5t98 116.5q-154 100 -154 315
q0 195 117.5 290t335.5 95q132 0 238 -39l127 146q78 -49 159 -174l-133 -91q62 -94 62 -227h-2q0 -196 -116.5 -291.5t-334.5 -95.5q-76 0 -131 8q-27 -50 -27 -80q0 -26 29 -26h197q144 0 234 -25.5t144 -81.5q74 -77 74 -213q0 -331 -510 -331h-16zM555 469q98 0 142 44
t44 134q0 88 -44 132t-142 44q-99 0 -143.5 -44t-44.5 -132q0 -90 44.5 -134t143.5 -44zM557 -268h31q110 0 167.5 25.5t57.5 72.5q0 50 -37.5 69t-138.5 19h-293q-29 -32 -29 -76q0 -58 53.5 -84t188.5 -26z" />
    <glyph glyph-name="Hcircumflex" unicode="&#x124;" horiz-adv-x="1435" 
d="M467 1561l-102 104l256 295h196l256 -295l-102 -104l-252 200zM152 0v1401h319v-572h494v572h319v-1401h-319v590h-494v-590h-319z" />
    <glyph glyph-name="hcircumflex" unicode="&#x125;" horiz-adv-x="1173" 
d="M16 1513l-102 105l256 295h197l256 -295l-103 -105l-252 201zM123 0v1464h293v-514q147 82 313 82q71 0 137 -19.5t105 -58.5q86 -83 86 -264v-690h-293v655q0 70 -31 101q-35 32 -127 32q-42 0 -98.5 -9.5t-91.5 -22.5v-756h-293z" />
    <glyph glyph-name="Hbar" unicode="&#x126;" horiz-adv-x="1507" 
d="M186 0v1022h-145v201h145v178h320v-178h493v178h320v-178h147v-201h-147v-1022h-320v590h-493v-590h-320zM506 829h493v193h-493v-193z" />
    <glyph glyph-name="hbar" unicode="&#x127;" horiz-adv-x="1173" 
d="M123 0v1163h-162v148l162 12v141h293v-133h325v-168h-325v-213q147 82 313 82q71 0 137 -19.5t105 -58.5q86 -83 86 -264v-690h-293v655q0 70 -31 101q-35 32 -127 32q-42 0 -98.5 -9.5t-91.5 -22.5v-756h-293z" />
    <glyph glyph-name="Itilde" unicode="&#x128;" horiz-adv-x="630" 
d="M86 1622l-145 23q0 133 57.5 206.5t159.5 73.5q51 0 108.5 -21.5t108 -43t84.5 -21.5q68 0 86 94l145 -22q0 -133 -57.5 -207t-159.5 -74q-65 0 -163.5 43t-137.5 43q-68 0 -86 -94zM156 0v1401h319v-1401h-319z" />
    <glyph glyph-name="itilde" unicode="&#x129;" horiz-adv-x="550" 
d="M47 1212l-145 23q0 133 57.5 207t159.5 74q51 0 108.5 -21.5t108 -43t84.5 -21.5q68 0 86 94l145 -23q0 -133 -57.5 -206.5t-159.5 -73.5q-65 0 -163.5 43t-137.5 43q-68 0 -86 -95zM129 0v1004h293v-1004h-293z" />
    <glyph glyph-name="Imacron" unicode="&#x12a;" horiz-adv-x="630" 
d="M12 1649v200h604v-200h-604zM156 0v1401h319v-1401h-319z" />
    <glyph glyph-name="imacron" unicode="&#x12b;" horiz-adv-x="550" 
d="M-27 1239v201h605v-201h-605zM129 0v1004h293v-1004h-293z" />
    <glyph glyph-name="Ibreve" unicode="&#x12c;" horiz-adv-x="630" 
d="M315 1587q-90 0 -155.5 26t-102.5 73t-54 103.5t-17 125.5l178 6q19 -156 151 -156q133 0 152 156l176 -6q0 -69 -17 -125.5t-53.5 -103.5t-102 -73t-155.5 -26zM156 0v1401h319v-1401h-319z" />
    <glyph glyph-name="ibreve" unicode="&#x12d;" horiz-adv-x="550" 
d="M276 1178q-90 0 -155.5 26t-102.5 72.5t-54 103t-17 125.5l178 6q19 -155 151 -155q133 0 152 155l176 -6q0 -69 -17 -125t-53.5 -103t-102 -73t-155.5 -26zM129 0v1004h293v-1004h-293z" />
    <glyph glyph-name="Iogonek" unicode="&#x12e;" horiz-adv-x="630" 
d="M246 -510q-114 0 -185 62.5t-71 177.5q0 79 46 155.5t120 120.5v1395h319v-1401h-41q-96 0 -167.5 -63.5t-71.5 -161.5q0 -117 124 -117q56 0 115 18v-157q-98 -29 -188 -29z" />
    <glyph glyph-name="iogonek" unicode="&#x12f;" horiz-adv-x="550" 
d="M268 1171q-77 0 -115 33.5t-38 106.5v26q0 74 38.5 108t114.5 34h15q76 0 114.5 -34t38.5 -108v-26q0 -73 -38 -106.5t-115 -33.5h-15zM242 -510q-114 0 -185 62.5t-71 177.5q0 138 143 258v1016h293v-1004h-64q-30 0 -53 -23q-115 -115 -115 -225q0 -94 125 -94
q56 0 115 18v-157q-98 -29 -188 -29z" />
    <glyph glyph-name="Idotaccent" unicode="&#x130;" horiz-adv-x="630" 
d="M309 1614q-75 0 -111 32.5t-36 106.5v23q0 75 36 107t111 32h13q74 0 110.5 -32.5t36.5 -106.5v-23q0 -73 -36.5 -106t-110.5 -33h-13zM156 0v1401h319v-1401h-319z" />
    <glyph glyph-name="dotlessi" unicode="&#x131;" horiz-adv-x="550" 
d="M129 0v1004h293v-1004h-293z" />
    <glyph glyph-name="IJ" unicode="&#x132;" horiz-adv-x="1478" 
d="M156 0v1401h319v-1401h-319zM911 -29q-81 0 -217 19l-22 243q84 -16 166 -16q103 0 140.5 39t37.5 154v991h319v-1000q0 -130 -23 -208t-77 -132q-93 -90 -324 -90z" />
    <glyph glyph-name="ij" unicode="&#x133;" horiz-adv-x="1101" 
d="M268 1171q-77 0 -115 33.5t-38 106.5v26q0 74 38.5 108t114.5 34h15q76 0 114.5 -34t38.5 -108v-26q0 -73 -38 -106.5t-115 -33.5h-15zM819 1171q-77 0 -115 33.5t-38 106.5v26q0 74 38.5 108t114.5 34h15q76 0 114.5 -34t38.5 -108v-26q0 -73 -38 -106.5t-115 -33.5h-15
zM129 0v1004h293v-1004h-293zM508 -485q-41 0 -111 4l-28 219q54 -4 94 -4q123 0 170 47q47 44 47 162v1061h293v-957q0 -138 -21.5 -233t-74 -164.5t-143 -102t-226.5 -32.5z" />
    <glyph glyph-name="Jcircumflex" unicode="&#x134;" horiz-adv-x="847" 
d="M289 1561l-103 104l256 295h197l256 -295l-102 -104l-252 200zM281 -29q-82 0 -218 19l-22 243q84 -16 166 -16q103 0 140.5 39t37.5 154v991h320v-1000q0 -130 -23.5 -208t-77.5 -132q-93 -90 -323 -90z" />
    <glyph glyph-name="jcircumflex" unicode="&#x135;" horiz-adv-x="550" 
d="M25 1151l-103 104l256 295h197l256 -295l-103 -104l-252 201zM-43 -485q-41 0 -111 4l-28 219q54 -4 94 -4q123 0 170 47q47 44 47 162v1061h293v-957q0 -138 -21.5 -233t-74 -164.5t-143 -102t-226.5 -32.5z" />
    <glyph glyph-name="Kcommaaccent" unicode="&#x136;" horiz-adv-x="1335" 
d="M152 0v1401h319v-586l469 586h365l-496 -567l510 -834h-379l-338 596l-131 -150v-446h-319zM674 -737v270q-63 22 -88 55t-25 95q0 69 35 106t104 37h15q67 0 103 -37t36 -106v-52q0 -97 -13 -208t-30 -160h-137z" />
    <glyph glyph-name="kcommaaccent" unicode="&#x137;" horiz-adv-x="1114" 
d="M123 0v1464h293v-843l313 383h336l-354 -402l391 -602h-330l-252 399l-104 -131v-268h-293zM559 -737v270q-63 22 -88 55t-25 95q0 69 35.5 106t104.5 37h14q67 0 103 -37t36 -106v-52q0 -97 -13 -208t-30 -160h-137z" />
    <glyph glyph-name="kgreenlandic" unicode="&#x138;" horiz-adv-x="1114" 
d="M123 0v1004h293v-383l313 383h336l-354 -402l391 -602h-330l-252 399l-104 -131v-268h-293z" />
    <glyph glyph-name="Lacute" unicode="&#x139;" horiz-adv-x="1128" 
d="M205 1554l-103 127l375 349l144 -195zM152 0v1401h319v-1170h621v-231h-940z" />
    <glyph glyph-name="lacute" unicode="&#x13a;" horiz-adv-x="550" 
d="M119 1534l-103 127l375 348l144 -194zM129 0v1464h293v-1464h-293z" />
    <glyph glyph-name="Lcommaaccent" unicode="&#x13b;" horiz-adv-x="1128" 
d="M152 0v1401h319v-1170h621v-231h-940zM631 -737v270q-63 22 -88 55t-25 95q0 69 35 106t104 37h15q67 0 103 -37t36 -106v-52q0 -97 -13 -208t-30 -160h-137z" />
    <glyph glyph-name="lcommaaccent" unicode="&#x13c;" horiz-adv-x="550" 
d="M129 0v1464h293v-1464h-293zM242 -737v270q-63 22 -88 55t-25 95q0 69 35 106t104 37h15q67 0 103 -37t36 -106v-52q0 -97 -13 -208t-30 -160h-137z" />
    <glyph glyph-name="Lcaron" unicode="&#x13d;" horiz-adv-x="1128" 
d="M735 864v271q-63 22 -87.5 54.5t-24.5 94.5q0 69 35 106t104 37h14q67 0 103 -37t36 -106v-51q0 -97 -13 -208.5t-30 -160.5h-137zM152 0v1401h319v-1170h621v-231h-940z" />
    <glyph glyph-name="lcaron" unicode="&#x13e;" horiz-adv-x="856" 
d="M129 0v1464h293v-1464h-293zM635 864v271q-63 22 -88 55t-25 94q0 69 35.5 106t104.5 37h14q67 0 103 -37t36 -106v-51q0 -97 -13 -208.5t-30 -160.5h-137z" />
    <glyph glyph-name="Ldot" unicode="&#x13f;" horiz-adv-x="1128" 
d="M152 0v1401h319v-1170h621v-231h-940zM850 662q-75 0 -111.5 32.5t-36.5 106.5v22q0 75 36.5 107.5t111.5 32.5h12q74 0 111 -33t37 -107v-22q0 -73 -37 -106t-111 -33h-12z" />
    <glyph glyph-name="ldot" unicode="&#x140;" horiz-adv-x="882" 
d="M129 0v1464h293v-1464h-293zM702 555q-75 0 -111 32.5t-36 106.5v23q0 75 36 107t111 32h13q74 0 110.5 -32.5t36.5 -106.5v-23q0 -73 -36.5 -106t-110.5 -33h-13z" />
    <glyph glyph-name="Lslash" unicode="&#x141;" horiz-adv-x="1128" 
d="M152 0v375l-70 -45l-119 198l189 121v752h319v-545l203 137l117 -198l-320 -211v-353h621v-231h-940z" />
    <glyph glyph-name="lslash" unicode="&#x142;" horiz-adv-x="774" 
d="M217 0v524l-84 -55l-113 190l197 127v678h293v-485l133 84l111 -191l-244 -157v-715h-293z" />
    <glyph glyph-name="Nacute" unicode="&#x143;" horiz-adv-x="1482" 
d="M618 1554l-102 127l375 349l143 -195zM152 0v1401h235l664 -897v897h280v-1401h-256l-643 850v-850h-280z" />
    <glyph glyph-name="nacute" unicode="&#x144;" horiz-adv-x="1173" 
d="M508 1145l-102 127l374 348l144 -195zM123 0v1004h254l6 -72q154 100 346 100q71 0 137 -19.5t105 -58.5q86 -83 86 -264v-690h-293v655q0 70 -31 101q-35 32 -127 32q-42 0 -98.5 -9.5t-91.5 -22.5v-756h-293z" />
    <glyph glyph-name="Ncommaaccent" unicode="&#x145;" horiz-adv-x="1482" 
d="M152 0v1401h235l664 -897v897h280v-1401h-256l-643 850v-850h-280zM729 -737v270q-63 22 -88 55t-25 95q0 69 35.5 106t104.5 37h14q67 0 103 -37t36 -106v-52q0 -97 -13 -208t-30 -160h-137z" />
    <glyph glyph-name="ncommaaccent" unicode="&#x146;" horiz-adv-x="1173" 
d="M123 0v1004h254l6 -72q154 100 346 100q71 0 137 -19.5t105 -58.5q86 -83 86 -264v-690h-293v655q0 70 -31 101q-35 32 -127 32q-42 0 -98.5 -9.5t-91.5 -22.5v-756h-293zM553 -737v270q-63 22 -88 55t-25 95q0 69 35.5 106t104.5 37h14q67 0 103 -37t36 -106v-52
q0 -97 -13 -208t-30 -160h-137z" />
    <glyph glyph-name="Ncaron" unicode="&#x147;" horiz-adv-x="1482" 
d="M647 1585l-256 295l103 105l251 -201l252 201l103 -105l-256 -295h-197zM152 0v1401h235l664 -897v897h280v-1401h-256l-643 850v-850h-280z" />
    <glyph glyph-name="ncaron" unicode="&#x148;" horiz-adv-x="1173" 
d="M547 1176l-256 294l102 105l252 -201l252 201l102 -105l-256 -294h-196zM123 0v1004h254l6 -72q154 100 346 100q71 0 137 -19.5t105 -58.5q86 -83 86 -264v-690h-293v655q0 70 -31 101q-35 32 -127 32q-42 0 -98.5 -9.5t-91.5 -22.5v-756h-293z" />
    <glyph glyph-name="napostrophe" unicode="&#x149;" horiz-adv-x="1542" 
d="M162 823v291q-67 23 -94 58.5t-27 99.5v2q0 74 38 113.5t111 39.5h15q151 0 151 -153v-55q0 -257 -32 -347q-15 -49 -80 -49h-82zM492 0v1004h253l7 -72q154 100 346 100q71 0 136.5 -19.5t104.5 -58.5q86 -83 86 -264v-690h-292v655q0 70 -31 101q-35 32 -127 32
q-42 0 -99 -9.5t-92 -22.5v-756h-292z" />
    <glyph glyph-name="Eng" unicode="&#x14a;" horiz-adv-x="1482" 
d="M907 -489q-88 0 -217 18l-22 223q84 -16 204 -16q103 0 141 38.5t38 153.5v105l-619 817v-850h-280v1401h235l664 -897v897h280v-1460q0 -130 -23 -208t-77 -132q-93 -90 -324 -90z" />
    <glyph glyph-name="eng" unicode="&#x14b;" horiz-adv-x="1173" 
d="M592 -485q-41 0 -111 4l-28 219q54 -4 94 -4q123 0 170 47q47 44 47 162v712q0 70 -31 101q-35 32 -127 32q-42 0 -98.5 -9.5t-91.5 -22.5v-756h-293v1004h254l6 -72q154 100 346 100q71 0 137 -19.5t105 -58.5q86 -83 86 -264v-643q0 -138 -21.5 -233t-74 -164.5
t-143 -102t-226.5 -32.5z" />
    <glyph glyph-name="Omacron" unicode="&#x14c;" horiz-adv-x="1425" 
d="M410 1649v200h604v-200h-604zM713 -29q-317 0 -469 183.5t-152 543.5q0 729 621 729q316 0 468 -184t152 -545q0 -360 -152 -543.5t-468 -183.5zM713 221q155 0 221.5 111.5t66.5 365.5q0 255 -67 367.5t-221 112.5q-155 0 -222 -112.5t-67 -367.5q0 -254 67 -365.5
t222 -111.5z" />
    <glyph glyph-name="omacron" unicode="&#x14d;" horiz-adv-x="1163" 
d="M279 1239v201h604v-201h-604zM582 -29q-254 0 -382 141t-128 390t128 389.5t382 140.5t382 -140.5t128 -389.5t-128 -390t-382 -141zM582 195q108 0 156 74.5t48 232.5t-48 232.5t-156 74.5q-109 0 -157 -74.5t-48 -232.5t48 -232.5t157 -74.5z" />
    <glyph glyph-name="Obreve" unicode="&#x14e;" horiz-adv-x="1425" 
d="M713 1587q-72 0 -129 17.5t-94.5 47.5t-61.5 72.5t-34.5 89.5t-10.5 101l178 6q19 -156 152 -156q132 0 151 156l176 -6q0 -54 -10 -101t-34 -89.5t-60.5 -72.5t-93.5 -47.5t-129 -17.5zM713 -29q-317 0 -469 183.5t-152 543.5q0 729 621 729q316 0 468 -184t152 -545
q0 -360 -152 -543.5t-468 -183.5zM713 221q155 0 221.5 111.5t66.5 365.5q0 255 -67 367.5t-221 112.5q-155 0 -222 -112.5t-67 -367.5q0 -254 67 -365.5t222 -111.5z" />
    <glyph glyph-name="obreve" unicode="&#x14f;" horiz-adv-x="1163" 
d="M582 1178q-72 0 -129 17.5t-94.5 47.5t-61.5 72t-34.5 89t-10.5 101l178 6q19 -155 152 -155q132 0 151 155l176 -6q0 -69 -17 -125t-53 -103t-101.5 -73t-155.5 -26zM582 -29q-254 0 -382 141t-128 390t128 389.5t382 140.5t382 -140.5t128 -389.5t-128 -390t-382 -141z
M582 195q108 0 156 74.5t48 232.5t-48 232.5t-156 74.5q-109 0 -157 -74.5t-48 -232.5t48 -232.5t157 -74.5z" />
    <glyph glyph-name="Ohungarumlaut" unicode="&#x150;" horiz-adv-x="1425" 
d="M430 1573l-113 86l289 414l156 -156zM813 1573l-113 86l289 414l156 -156zM713 -29q-317 0 -469 183.5t-152 543.5q0 729 621 729q316 0 468 -184t152 -545q0 -360 -152 -543.5t-468 -183.5zM713 221q155 0 221.5 111.5t66.5 365.5q0 255 -67 367.5t-221 112.5
q-155 0 -222 -112.5t-67 -367.5q0 -254 67 -365.5t222 -111.5z" />
    <glyph glyph-name="ohungarumlaut" unicode="&#x151;" horiz-adv-x="1163" 
d="M315 1163l-112 86l289 414l155 -156zM698 1163l-112 86l288 414l156 -156zM582 -29q-254 0 -382 141t-128 390t128 389.5t382 140.5t382 -140.5t128 -389.5t-128 -390t-382 -141zM582 195q108 0 156 74.5t48 232.5t-48 232.5t-156 74.5q-109 0 -157 -74.5t-48 -232.5
t48 -232.5t157 -74.5z" />
    <glyph glyph-name="OE" unicode="&#x152;" horiz-adv-x="2007" 
d="M776 0q-364 0 -516 158q-168 168 -168 549q0 365 174 536q84 85 220 121.5t341 36.5h1084l-25 -230h-602v-340h481v-243h-481v-359h637v-229h-1145zM797 207h168v987h-125q-120 0 -191.5 -21t-118.5 -71q-106 -115 -106 -395q0 -263 76 -375q87 -125 297 -125z" />
    <glyph glyph-name="oe" unicode="&#x153;" horiz-adv-x="1796" 
d="M582 -29q-254 0 -382 141t-128 390t128 389.5t382 140.5q224 0 350 -117q123 117 342 117q230 0 345.5 -124t115.5 -382v-92q0 -22 -25 -22h-616q4 -106 59 -156q64 -61 254 -61q88 0 235 22l23 -213q-176 -33 -328 -33q-271 0 -403 117q-126 -117 -352 -117zM1094 602
h354q0 97 -45 153t-131 56q-168 0 -178 -209zM582 195q104 0 151.5 68t52.5 212v27q0 158 -48 232.5t-156 74.5q-109 0 -157 -74.5t-48 -232.5t48 -232.5t157 -74.5z" />
    <glyph glyph-name="Racute" unicode="&#x154;" horiz-adv-x="1327" 
d="M526 1554l-102 127l375 349l143 -195zM152 0v1401h481q174 0 278.5 -25t171.5 -88q117 -110 117 -321q0 -145 -60 -253t-177 -163l303 -551h-361l-258 508h-176v-508h-319zM471 739h141q148 0 205 49q60 51 60 175q0 105 -50 155q-54 51 -213 51h-143v-430z" />
    <glyph glyph-name="racute" unicode="&#x155;" horiz-adv-x="778" 
d="M295 1145l-102 127l374 348l144 -195zM123 0v1004h254l10 -82q55 51 142 79.5t165 28.5q27 0 51 -4v-256q-66 8 -129 8q-92 0 -200 -24v-754h-293z" />
    <glyph glyph-name="Rcommaaccent" unicode="&#x156;" horiz-adv-x="1327" 
d="M152 0v1401h481q174 0 278.5 -25t171.5 -88q117 -110 117 -321q0 -145 -60 -253t-177 -163l303 -551h-361l-258 508h-176v-508h-319zM471 739h141q148 0 205 49q60 51 60 175q0 105 -50 155q-54 51 -213 51h-143v-430zM651 -737v270q-63 22 -87.5 55t-24.5 95
q0 69 35 106t104 37h14q67 0 103 -37t36 -106v-52q0 -97 -13 -208t-30 -160h-137z" />
    <glyph glyph-name="rcommaaccent" unicode="&#x157;" horiz-adv-x="778" 
d="M123 0v1004h254l10 -82q55 51 142 79.5t165 28.5q27 0 51 -4v-256q-66 8 -129 8q-92 0 -200 -24v-754h-293zM229 -737v270q-63 22 -87.5 55t-24.5 95q0 69 35 106t104 37h14q68 0 104 -37t36 -106v-52q0 -97 -13 -208t-30 -160h-138z" />
    <glyph glyph-name="Rcaron" unicode="&#x158;" horiz-adv-x="1327" 
d="M586 1585l-256 295l102 105l252 -201l252 201l102 -105l-256 -295h-196zM152 0v1401h481q174 0 278.5 -25t171.5 -88q117 -110 117 -321q0 -145 -60 -253t-177 -163l303 -551h-361l-258 508h-176v-508h-319zM471 739h141q148 0 205 49q60 51 60 175q0 105 -50 155
q-54 51 -213 51h-143v-430z" />
    <glyph glyph-name="rcaron" unicode="&#x159;" horiz-adv-x="778" 
d="M354 1176l-256 294l103 105l252 -201l252 201l102 -105l-256 -294h-197zM123 0v1004h254l10 -82q55 51 142 79.5t165 28.5q27 0 51 -4v-256q-66 8 -129 8q-92 0 -200 -24v-754h-293z" />
    <glyph glyph-name="Sacute" unicode="&#x15a;" horiz-adv-x="1208" 
d="M469 1554l-102 127l374 349l144 -195zM565 -29q-258 0 -465 72l50 244q90 -31 199 -50.5t188 -19.5q143 0 209.5 41.5t66.5 136.5q0 46 -30.5 79.5t-81 51t-114.5 36.5t-131.5 36t-131.5 50t-114.5 77t-81 119t-30.5 174q0 104 39.5 183.5t110.5 128t165 73t208 24.5
q223 0 391 -57l-49 -237q-182 49 -336 49q-228 0 -228 -150q0 -44 24.5 -76t66 -52t95 -36t113 -33t118.5 -37t112.5 -53t95 -77t66 -112.5t24.5 -156.5q0 -184 -117 -295q-74 -69 -177.5 -101t-254.5 -32z" />
    <glyph glyph-name="sacute" unicode="&#x15b;" horiz-adv-x="972" 
d="M354 1145l-102 127l375 348l143 -195zM449 -29q-87 0 -189 16.5t-164 39.5l23 217q59 -19 151 -33t172 -14q90 0 135.5 20.5t45.5 71.5q0 32 -23.5 52.5t-62 29.5t-87.5 19.5t-100.5 19.5t-100.5 30.5t-87.5 52t-62 86t-23.5 130.5q0 147 109.5 235t326.5 88
q172 0 334 -55l-23 -215q-161 45 -309 45q-162 0 -162 -82q0 -30 23.5 -50t62 -29.5t88 -20t101 -20t101 -32.5t88 -54t62 -87t23.5 -131q0 -159 -114.5 -244.5t-337.5 -85.5z" />
    <glyph glyph-name="Scircumflex" unicode="&#x15c;" horiz-adv-x="1208" 
d="M375 1561l-103 104l256 295h197l256 -295l-102 -104l-252 200zM565 -29q-258 0 -465 72l50 244q90 -31 199 -50.5t188 -19.5q143 0 209.5 41.5t66.5 136.5q0 46 -30.5 79.5t-81 51t-114.5 36.5t-131.5 36t-131.5 50t-114.5 77t-81 119t-30.5 174q0 104 39.5 183.5
t110.5 128t165 73t208 24.5q223 0 391 -57l-49 -237q-182 49 -336 49q-228 0 -228 -150q0 -44 24.5 -76t66 -52t95 -36t113 -33t118.5 -37t112.5 -53t95 -77t66 -112.5t24.5 -156.5q0 -184 -117 -295q-74 -69 -177.5 -101t-254.5 -32z" />
    <glyph glyph-name="scircumflex" unicode="&#x15d;" horiz-adv-x="972" 
d="M260 1151l-102 104l256 295h196l256 -295l-102 -104l-252 201zM449 -29q-87 0 -189 16.5t-164 39.5l23 217q59 -19 151 -33t172 -14q90 0 135.5 20.5t45.5 71.5q0 32 -23.5 52.5t-62 29.5t-87.5 19.5t-100.5 19.5t-100.5 30.5t-87.5 52t-62 86t-23.5 130.5
q0 147 109.5 235t326.5 88q172 0 334 -55l-23 -215q-161 45 -309 45q-162 0 -162 -82q0 -30 23.5 -50t62 -29.5t88 -20t101 -20t101 -32.5t88 -54t62 -87t23.5 -131q0 -159 -114.5 -244.5t-337.5 -85.5z" />
    <glyph glyph-name="Scedilla" unicode="&#x15e;" horiz-adv-x="1208" 
d="M612 -516q-100 0 -182 29v153q78 -20 141 -20q91 0 91 47q0 21 -21.5 37t-93.5 39q-61 20 -87 46.5t-26 75.5q0 33 21 84q-196 12 -355 68l50 244q90 -31 199 -50.5t188 -19.5q143 0 209.5 41.5t66.5 136.5q0 46 -30.5 79.5t-81 51t-114.5 36.5t-131.5 36t-131.5 50
t-114.5 77t-81 119t-30.5 174q0 104 39.5 183.5t110.5 128t165 73t208 24.5q223 0 391 -57l-49 -237q-182 49 -336 49q-228 0 -228 -150q0 -44 24.5 -76t66 -52t95 -36t113 -33t118.5 -37t112.5 -53t95 -77t66 -112.5t24.5 -156.5q0 -184 -117 -295q-67 -64 -160 -95
t-225 -36v-16q0 -18 13.5 -28.5t62.5 -28.5q97 -36 132.5 -76t35.5 -111q0 -98 -55 -159q-29 -33 -80.5 -51.5t-108.5 -18.5z" />
    <glyph glyph-name="scedilla" unicode="&#x15f;" horiz-adv-x="972" 
d="M518 -516q-100 0 -182 29v153q78 -20 141 -20q90 0 90 47q0 21 -21 37t-93 39q-61 20 -87 46.5t-26 75.5q0 39 20 84q-161 13 -264 52l23 217q59 -19 151 -33t172 -14q90 0 135.5 20.5t45.5 71.5q0 32 -23.5 52.5t-62 29.5t-87.5 19.5t-100.5 19.5t-100.5 30.5t-87.5 52
t-62 86t-23.5 130.5q0 147 109.5 235t326.5 88q172 0 334 -55l-23 -215q-161 45 -309 45q-162 0 -162 -82q0 -30 23.5 -50t62 -29.5t88 -20t101 -20t101 -32.5t88 -54t62 -87t23.5 -131q0 -146 -96 -230.5t-285 -97.5q-2 -6 -2 -16q0 -18 13.5 -28.5t62.5 -28.5
q97 -36 132.5 -76t35.5 -111q0 -98 -55 -159q-29 -33 -80.5 -51.5t-108.5 -18.5z" />
    <glyph glyph-name="Scaron" unicode="&#x160;" horiz-adv-x="1208" 
d="M528 1585l-256 295l103 105l252 -201l252 201l102 -105l-256 -295h-197zM565 -29q-258 0 -465 72l50 244q90 -31 199 -50.5t188 -19.5q143 0 209.5 41.5t66.5 136.5q0 46 -30.5 79.5t-81 51t-114.5 36.5t-131.5 36t-131.5 50t-114.5 77t-81 119t-30.5 174
q0 104 39.5 183.5t110.5 128t165 73t208 24.5q223 0 391 -57l-49 -237q-182 49 -336 49q-228 0 -228 -150q0 -44 24.5 -76t66 -52t95 -36t113 -33t118.5 -37t112.5 -53t95 -77t66 -112.5t24.5 -156.5q0 -184 -117 -295q-74 -69 -177.5 -101t-254.5 -32z" />
    <glyph glyph-name="scaron" unicode="&#x161;" horiz-adv-x="972" 
d="M414 1176l-256 294l102 105l252 -201l252 201l102 -105l-256 -294h-196zM449 -29q-87 0 -189 16.5t-164 39.5l23 217q59 -19 151 -33t172 -14q90 0 135.5 20.5t45.5 71.5q0 32 -23.5 52.5t-62 29.5t-87.5 19.5t-100.5 19.5t-100.5 30.5t-87.5 52t-62 86t-23.5 130.5
q0 147 109.5 235t326.5 88q172 0 334 -55l-23 -215q-161 45 -309 45q-162 0 -162 -82q0 -30 23.5 -50t62 -29.5t88 -20t101 -20t101 -32.5t88 -54t62 -87t23.5 -131q0 -159 -114.5 -244.5t-337.5 -85.5z" />
    <glyph glyph-name="uni0162" unicode="&#x162;" horiz-adv-x="1245" 
d="M463 0v1169h-434v232h1202l-25 -232h-424v-1169h-319zM588 -737v270q-63 22 -88 55t-25 95q0 69 35 106t104 37h15q67 0 103 -37t36 -106v-52q0 -97 -13 -208t-30 -160h-137z" />
    <glyph glyph-name="uni0163" unicode="&#x163;" horiz-adv-x="821" 
d="M516 -29q-182 0 -256 80t-74 252v510h-170v160l170 31v223q140 43 293 43v-266h260v-191h-260v-469q0 -88 28 -121t114 -33q27 0 141 13l10 -207q-118 -25 -256 -25zM463 -737v270q-63 22 -88 55t-25 95q0 69 35 106t104 37h15q67 0 103 -37t36 -106v-52q0 -97 -13 -208
t-30 -160h-137z" />
    <glyph glyph-name="Tcaron" unicode="&#x164;" horiz-adv-x="1245" 
d="M524 1585l-256 295l103 105l252 -201l251 201l103 -105l-256 -295h-197zM463 0v1169h-434v232h1202l-25 -232h-424v-1169h-319z" />
    <glyph glyph-name="tcaron" unicode="&#x165;" horiz-adv-x="821" 
d="M618 1159v271q-63 22 -87.5 54.5t-24.5 94.5q0 69 35 106t104 37h14q68 0 104 -37t36 -106v-51q0 -97 -13 -208.5t-30 -160.5h-138zM516 -29q-182 0 -256 80t-74 252v510h-170v160l170 31v223q140 43 293 43v-266h260v-191h-260v-469q0 -88 28 -121t114 -33q27 0 141 13
l10 -207q-118 -25 -256 -25z" />
    <glyph glyph-name="Tbar" unicode="&#x166;" horiz-adv-x="1245" 
d="M463 0v545h-256v200h256v424h-434v232h1202l-25 -232h-424v-424h256v-200h-256v-545h-319z" />
    <glyph glyph-name="tbar" unicode="&#x167;" horiz-adv-x="829" 
d="M524 -29q-182 0 -255.5 80t-73.5 252v131h-150v148l150 10v221h-170v160l170 31v223q140 43 292 43v-266h261v-191h-261v-211h224v-168h-224v-90q0 -88 28 -121t114 -33q27 0 141 13l10 -207q-118 -25 -256 -25z" />
    <glyph glyph-name="Utilde" unicode="&#x168;" horiz-adv-x="1421" 
d="M496 1622l-146 23q0 133 57.5 206.5t159.5 73.5q51 0 108.5 -21.5t108 -43t84.5 -21.5q68 0 86 94l146 -22q0 -133 -57.5 -207t-159.5 -74q-65 0 -163.5 43t-137.5 43q-68 0 -86 -94zM715 -29q-303 0 -441 135q-70 69 -102.5 164.5t-32.5 243.5v887h318v-887
q0 -164 67 -231q65 -68 205 -68t203 66q67 67 67 231v889h283v-873q0 -288 -137 -417q-69 -66 -182 -103t-248 -37z" />
    <glyph glyph-name="utilde" unicode="&#x169;" horiz-adv-x="1165" 
d="M367 1212l-146 23q0 133 57.5 207t159.5 74q51 0 108.5 -21.5t108 -43t84.5 -21.5q68 0 86 94l146 -23q0 -133 -57.5 -206.5t-159.5 -73.5q-65 0 -163.5 43t-137.5 43q-68 0 -86 -95zM444 -27q-71 0 -136.5 19.5t-104.5 58.5q-86 83 -86 264v689h293v-648q0 -76 30 -106
q36 -33 127 -33q94 0 183 29v758h292v-1004h-254l-8 68q-152 -95 -336 -95z" />
    <glyph glyph-name="Umacron" unicode="&#x16a;" horiz-adv-x="1421" 
d="M422 1649v200h604v-200h-604zM715 -29q-303 0 -441 135q-70 69 -102.5 164.5t-32.5 243.5v887h318v-887q0 -164 67 -231q65 -68 205 -68t203 66q67 67 67 231v889h283v-873q0 -288 -137 -417q-69 -66 -182 -103t-248 -37z" />
    <glyph glyph-name="umacron" unicode="&#x16b;" horiz-adv-x="1165" 
d="M293 1239v201h604v-201h-604zM444 -27q-71 0 -136.5 19.5t-104.5 58.5q-86 83 -86 264v689h293v-648q0 -76 30 -106q36 -33 127 -33q94 0 183 29v758h292v-1004h-254l-8 68q-152 -95 -336 -95z" />
    <glyph glyph-name="Ubreve" unicode="&#x16c;" horiz-adv-x="1421" 
d="M725 1587q-72 0 -129 17.5t-94.5 47.5t-61.5 72.5t-34.5 89.5t-10.5 101l178 6q19 -156 152 -156t152 156l176 -6q0 -69 -17 -125.5t-53.5 -103.5t-102 -73t-155.5 -26zM715 -29q-303 0 -441 135q-70 69 -102.5 164.5t-32.5 243.5v887h318v-887q0 -164 67 -231
q65 -68 205 -68t203 66q67 67 67 231v889h283v-873q0 -288 -137 -417q-69 -66 -182 -103t-248 -37z" />
    <glyph glyph-name="ubreve" unicode="&#x16d;" horiz-adv-x="1165" 
d="M596 1178q-72 0 -129 17.5t-94.5 47.5t-61.5 72t-34.5 89t-10.5 101l178 6q19 -155 152 -155t152 155l176 -6q0 -69 -17 -125t-53.5 -103t-102 -73t-155.5 -26zM444 -27q-71 0 -136.5 19.5t-104.5 58.5q-86 83 -86 264v689h293v-648q0 -76 30 -106q36 -33 127 -33
q94 0 183 29v758h292v-1004h-254l-8 68q-152 -95 -336 -95z" />
    <glyph glyph-name="Uring" unicode="&#x16e;" horiz-adv-x="1421" 
d="M719 1575q-123 0 -185.5 54.5t-62.5 172.5v29q0 119 62.5 173t185.5 54h14q122 0 184 -54t62 -173v-29q0 -227 -246 -227h-14zM723 1704h6q55 0 80 24.5t25 81.5v9q0 59 -24.5 81.5t-80.5 22.5h-6q-58 0 -83.5 -22.5t-25.5 -81.5v-9q0 -57 26 -81.5t83 -24.5zM715 -29
q-303 0 -441 135q-70 69 -102.5 164.5t-32.5 243.5v887h318v-887q0 -164 67 -231q65 -68 205 -68t203 66q67 67 67 231v889h283v-873q0 -288 -137 -417q-69 -66 -182 -103t-248 -37z" />
    <glyph glyph-name="uring" unicode="&#x16f;" horiz-adv-x="1165" 
d="M590 1165q-248 0 -248 228v28q0 119 62.5 173.5t185.5 54.5h14q122 0 184 -54.5t62 -173.5v-28q0 -228 -246 -228h-14zM594 1294h6q55 0 80 24.5t25 82.5v8q0 59 -24.5 81.5t-80.5 22.5h-6q-58 0 -83.5 -22.5t-25.5 -81.5v-8q0 -57 26 -82t83 -25zM444 -27
q-71 0 -136.5 19.5t-104.5 58.5q-86 83 -86 264v689h293v-648q0 -76 30 -106q36 -33 127 -33q94 0 183 29v758h292v-1004h-254l-8 68q-152 -95 -336 -95z" />
    <glyph glyph-name="Uhungarumlaut" unicode="&#x170;" horiz-adv-x="1421" 
d="M442 1573l-112 86l288 414l156 -156zM825 1573l-112 86l288 414l156 -156zM715 -29q-303 0 -441 135q-70 69 -102.5 164.5t-32.5 243.5v887h318v-887q0 -164 67 -231q65 -68 205 -68t203 66q67 67 67 231v889h283v-873q0 -288 -137 -417q-69 -66 -182 -103t-248 -37z" />
    <glyph glyph-name="uhungarumlaut" unicode="&#x171;" horiz-adv-x="1165" 
d="M330 1163l-113 86l289 414l156 -156zM713 1163l-113 86l289 414l155 -156zM444 -27q-71 0 -136.5 19.5t-104.5 58.5q-86 83 -86 264v689h293v-648q0 -76 30 -106q36 -33 127 -33q94 0 183 29v758h292v-1004h-254l-8 68q-152 -95 -336 -95z" />
    <glyph glyph-name="Uogonek" unicode="&#x172;" horiz-adv-x="1421" 
d="M766 -510q-114 0 -185 62.5t-71 177.5q0 125 127 245q-248 16 -363 131q-70 69 -102.5 164.5t-32.5 243.5v887h318v-887q0 -164 67 -231q65 -68 205 -68t203 66q67 67 67 231v889h283v-873q0 -288 -137 -417q-113 -106 -311 -131q-119 -131 -119 -230q0 -92 125 -92
q55 0 114 18v-157q-98 -29 -188 -29z" />
    <glyph glyph-name="uogonek" unicode="&#x173;" horiz-adv-x="1165" 
d="M895 -510q-114 0 -185 62.5t-71 177.5q0 82 43.5 148.5t124.5 129.5l-27 60q-155 -97 -336 -97q-71 0 -136.5 19.5t-104.5 58.5q-86 83 -86 264v691h293v-650q0 -76 30 -106q36 -33 127 -33q94 0 183 29v760h292v-1004h-30q-33 0 -56 -23q-112 -109 -112 -219
q0 -51 28.5 -75.5t96.5 -24.5q55 0 114 18v-157q-98 -29 -188 -29z" />
    <glyph glyph-name="Wcircumflex" unicode="&#x174;" horiz-adv-x="1972" 
d="M758 1561l-103 104l256 295h197l256 -295l-102 -104l-252 200zM434 0l-409 1401h337l261 -1012l251 1012h261l274 -1010l250 1010h289l-379 -1401h-348l-230 817l-211 -817h-346z" />
    <glyph glyph-name="wcircumflex" unicode="&#x175;" horiz-adv-x="1619" 
d="M588 1151l-103 104l256 295h197l256 -295l-102 -104l-252 201zM315 0l-295 1004h310l178 -715l178 715h264l193 -715l168 715h288l-288 -1004h-340l-160 532l-158 -532h-338z" />
    <glyph glyph-name="Ycircumflex" unicode="&#x176;" horiz-adv-x="1355" 
d="M436 1561l-102 104l256 295h196l256 -295l-102 -104l-252 200zM508 0v571l-483 830h360l307 -565l320 565h319l-504 -832v-569h-319z" />
    <glyph glyph-name="ycircumflex" unicode="&#x177;" horiz-adv-x="1169" 
d="M334 1151l-103 104l256 295h197l256 -295l-102 -104l-252 201zM582 -489q-132 0 -256 26l-21 217q125 -22 230 -22q123 0 170 47q49 46 49 162v122q-144 -81 -316 -81q-156 0 -233 77q-88 88 -88 254v691h293v-650q0 -70 30 -100q36 -33 125 -33q40 0 96 11.5t93 25.5
v746h293v-961q0 -138 -21.5 -233t-74 -164.5t-143 -102t-226.5 -32.5z" />
    <glyph glyph-name="Ydieresis" unicode="&#x178;" horiz-adv-x="1355" 
d="M467 1618q-70 0 -103.5 31.5t-33.5 99.5v23q0 69 33.5 100t103.5 31h12q69 0 104 -31t35 -100v-23q0 -131 -139 -131h-12zM895 1618q-139 0 -139 131v23q0 131 139 131h12q70 0 103.5 -31t33.5 -100v-23q0 -68 -33.5 -99.5t-103.5 -31.5h-12zM508 0v571l-483 830h360
l307 -565l320 565h319l-504 -832v-569h-319z" />
    <glyph glyph-name="Zacute" unicode="&#x179;" horiz-adv-x="1220" 
d="M494 1554l-103 127l375 349l143 -195zM70 0v188l680 977h-660v236h1053v-197l-670 -968h674v-236h-1077z" />
    <glyph glyph-name="zacute" unicode="&#x17a;" horiz-adv-x="905" 
d="M311 1145l-102 127l375 348l143 -195zM37 0v166l467 651h-455v187h799v-170l-465 -648h489v-186h-835z" />
    <glyph glyph-name="Zdotaccent" unicode="&#x17b;" horiz-adv-x="1220" 
d="M645 1614q-75 0 -111 32.5t-36 106.5v23q0 75 36 107t111 32h12q74 0 111 -32.5t37 -106.5v-23q0 -73 -37 -106t-111 -33h-12zM70 0v188l680 977h-660v236h1053v-197l-670 -968h674v-236h-1077z" />
    <glyph glyph-name="zdotaccent" unicode="&#x17c;" horiz-adv-x="905" 
d="M463 1204q-75 0 -111.5 32.5t-36.5 106.5v23q0 75 36 107t112 32h12q74 0 111 -32.5t37 -106.5v-23q0 -73 -37 -106t-111 -33h-12zM37 0v166l467 651h-455v187h799v-170l-465 -648h489v-186h-835z" />
    <glyph glyph-name="Zcaron" unicode="&#x17d;" horiz-adv-x="1220" 
d="M553 1585l-256 295l102 105l252 -201l252 201l103 -105l-256 -295h-197zM70 0v188l680 977h-660v236h1053v-197l-670 -968h674v-236h-1077z" />
    <glyph glyph-name="zcaron" unicode="&#x17e;" horiz-adv-x="905" 
d="M371 1176l-256 294l102 105l252 -201l252 201l102 -105l-256 -294h-196zM37 0v166l467 651h-455v187h799v-170l-465 -648h489v-186h-835z" />
    <glyph glyph-name="longs" unicode="&#x17f;" horiz-adv-x="735" 
d="M201 0v813h-172v158l172 30v140q0 179 84 266q89 92 299 92q103 0 213 -22v-209q-82 12 -138 12q-100 0 -137 -37q-28 -28 -28 -119v-1124h-293z" />
    <glyph glyph-name="florin" unicode="&#x192;" 
d="M274 -524q-103 0 -213 22v209q82 -12 138 -12q98 0 143 38.5t51 123.5l58 710h-215v156l227 8l39 430q15 182 113.5 271.5t297.5 89.5q98 0 213 -23v-209q-89 13 -137 13q-97 0 -141.5 -38t-52.5 -124l-37 -408h248v-166h-261l-57 -727q-14 -182 -114.5 -273t-299.5 -91z
" />
    <glyph glyph-name="uni01CD" unicode="&#x1cd;" horiz-adv-x="1347" 
d="M561 1585l-256 295l103 105l251 -201l252 201l103 -105l-256 -295h-197zM10 0l469 1401h352l506 -1401h-342l-116 352h-455l-109 -352h-305zM498 584h303l-154 467h-4z" />
    <glyph glyph-name="uni01CE" unicode="&#x1ce;" horiz-adv-x="1087" 
d="M463 1176l-256 294l102 105l252 -201l252 201l102 -105l-256 -294h-196zM414 -29q-168 0 -260.5 90t-92.5 240q0 141 89 227q53 50 139.5 71.5t228.5 21.5h160v32q0 79 -37 113q-46 41 -170 41q-146 0 -281 -27l-14 215q189 37 356 37q264 0 361 -114q78 -90 78 -267
v-651h-232l-24 61q-141 -90 -301 -90zM498 195q79 0 180 30v207h-156q-104 0 -139 -35q-29 -29 -29 -84q0 -58 33.5 -88t110.5 -30z" />
    <glyph glyph-name="Aringacute" unicode="&#x1fa;" horiz-adv-x="1347" 
d="M502 2071l-103 127l375 348l144 -195zM653 1520q-123 0 -185 54.5t-62 172.5v29q0 119 62 173t185 54h15q122 0 183.5 -54t61.5 -173v-29q0 -117 -62 -172t-183 -55h-15zM657 1649h7q55 0 79.5 24t24.5 82v8q0 60 -24 82.5t-80 22.5h-7q-58 0 -83 -22.5t-25 -82.5v-8
q0 -57 25.5 -81.5t82.5 -24.5zM10 0l469 1401h352l506 -1401h-342l-116 352h-455l-109 -352h-305zM498 584h303l-154 467h-4z" />
    <glyph glyph-name="aringacute" unicode="&#x1fb;" horiz-adv-x="1087" 
d="M403 1663l-102 127l375 348l143 -194zM555 1124q-248 0 -248 228v28q0 119 62.5 173.5t185.5 54.5h14q122 0 184 -54.5t62 -173.5v-28q0 -228 -246 -228h-14zM559 1253h6q55 0 80 24.5t25 82.5v8q0 60 -24.5 82.5t-80.5 22.5h-6q-58 0 -83 -22.5t-25 -82.5v-8
q0 -58 26 -82.5t82 -24.5zM414 -29q-168 0 -260.5 90t-92.5 240q0 141 89 227q53 50 139.5 71.5t228.5 21.5h160v32q0 79 -37 113q-46 41 -170 41q-146 0 -281 -27l-14 215q189 37 356 37q264 0 361 -114q78 -90 78 -267v-651h-232l-24 61q-141 -90 -301 -90zM498 195
q79 0 180 30v207h-156q-104 0 -139 -35q-29 -29 -29 -84q0 -58 33.5 -88t110.5 -30z" />
    <glyph glyph-name="AEacute" unicode="&#x1fc;" horiz-adv-x="2054" 
d="M1282 1554l-102 127l374 349l144 -195zM4 0l864 1401h1090l-25 -230h-602v-340h481v-243h-481v-359h637v-229h-956v383h-455l-225 -383h-328zM696 610h316v539z" />
    <glyph glyph-name="aeacute" unicode="&#x1fd;" horiz-adv-x="1673" 
d="M795 1145l-103 127l375 348l143 -195zM414 -29q-168 0 -260.5 90t-92.5 240q0 141 89 227q53 50 139.5 71.5t228.5 21.5h160v36q-3 75 -37 109q-46 41 -170 41q-146 0 -281 -27l-14 215q189 37 356 37q213 0 324 -80q118 80 295 80q229 0 345 -124t116 -382v-92
q0 -22 -25 -22h-616q6 -122 80 -169.5t229 -47.5q120 0 250 24l22 -213q-187 -35 -338 -35q-275 0 -411 123q-68 -51 -180.5 -87t-208.5 -36zM971 602h354q0 97 -45 153t-131 56q-168 0 -178 -209zM498 195q99 0 211 38q-25 70 -31 199h-156q-104 0 -139 -35
q-29 -29 -29 -84q0 -58 33.5 -88t110.5 -30z" />
    <glyph glyph-name="Oslashacute" unicode="&#x1fe;" horiz-adv-x="1429" 
d="M557 1554l-102 127l374 349l144 -195zM317 -152l70 193q-295 153 -295 657q0 729 623 729q86 0 168 -16l51 139h178l-70 -192q295 -156 295 -660q0 -360 -152.5 -543.5t-469.5 -183.5q-83 0 -170 17l-49 -140h-179zM492 332l303 837q-38 9 -80 9q-155 0 -223 -113
t-68 -367q0 -256 68 -366zM715 221q155 0 223 111.5t68 365.5q0 258 -70 369l-303 -838q33 -8 82 -8z" />
    <glyph glyph-name="oslashacute" unicode="&#x1ff;" horiz-adv-x="1163" 
d="M424 1145l-102 127l374 348l144 -195zM248 -172l71 197q-124 59 -185.5 182t-61.5 295q0 249 128 389.5t382 140.5q62 0 106 -8l55 152h172l-71 -197q124 -60 186 -182.5t62 -294.5q0 -249 -128 -390t-382 -141q-58 0 -107 9l-55 -152h-172zM416 285l192 522q-8 2 -26 2
q-109 0 -157 -74.5t-48 -232.5q0 -143 39 -217zM555 195h27q108 0 156 74.5t48 232.5q0 145 -38 217z" />
    <glyph glyph-name="Scommaaccent" unicode="&#x218;" horiz-adv-x="1208" 
d="M565 -29q-258 0 -465 72l50 244q90 -31 199 -50.5t188 -19.5q143 0 209.5 41.5t66.5 136.5q0 46 -30.5 79.5t-81 51t-114.5 36.5t-131.5 36t-131.5 50t-114.5 77t-81 119t-30.5 174q0 104 39.5 183.5t110.5 128t165 73t208 24.5q223 0 391 -57l-49 -237q-182 49 -336 49
q-228 0 -228 -150q0 -44 24.5 -76t66 -52t95 -36t113 -33t118.5 -37t112.5 -53t95 -77t66 -112.5t24.5 -156.5q0 -184 -117 -295q-74 -69 -177.5 -101t-254.5 -32zM569 -737v270q-63 22 -87.5 55t-24.5 95q0 69 35 106t104 37h14q68 0 104 -37t36 -106v-52q0 -97 -13 -208
t-30 -160h-138z" />
    <glyph glyph-name="scommaaccent" unicode="&#x219;" horiz-adv-x="972" 
d="M449 -29q-87 0 -189 16.5t-164 39.5l23 217q59 -19 151 -33t172 -14q90 0 135.5 20.5t45.5 71.5q0 32 -23.5 52.5t-62 29.5t-87.5 19.5t-100.5 19.5t-100.5 30.5t-87.5 52t-62 86t-23.5 130.5q0 147 109.5 235t326.5 88q172 0 334 -55l-23 -215q-161 45 -309 45
q-162 0 -162 -82q0 -30 23.5 -50t62 -29.5t88 -20t101 -20t101 -32.5t88 -54t62 -87t23.5 -131q0 -159 -114.5 -244.5t-337.5 -85.5zM453 -737v270q-63 22 -88 55t-25 95q0 69 35 106t104 37h15q67 0 103 -37t36 -106v-52q0 -97 -13 -208t-30 -160h-137z" />
    <glyph glyph-name="uni021A" unicode="&#x21a;" horiz-adv-x="1245" 
d="M463 0v1169h-434v232h1202l-25 -232h-424v-1169h-319zM588 -737v270q-63 22 -88 55t-25 95q0 69 35 106t104 37h15q67 0 103 -37t36 -106v-52q0 -97 -13 -208t-30 -160h-137z" />
    <glyph glyph-name="uni021B" unicode="&#x21b;" horiz-adv-x="821" 
d="M516 -29q-182 0 -256 80t-74 252v510h-170v160l170 31v223q140 43 293 43v-266h260v-191h-260v-469q0 -88 28 -121t114 -33q27 0 141 13l10 -207q-118 -25 -256 -25zM463 -737v270q-63 22 -88 55t-25 95q0 69 35 106t104 37h15q67 0 103 -37t36 -106v-52q0 -97 -13 -208
t-30 -160h-137z" />
    <glyph glyph-name="uni0237" unicode="&#x237;" horiz-adv-x="550" 
d="M-43 -485q-41 0 -111 4l-28 219q54 -4 94 -4q123 0 170 47q47 44 47 162v1061h293v-957q0 -138 -21.5 -233t-74 -164.5t-143 -102t-226.5 -32.5z" />
    <glyph glyph-name="circumflex" unicode="&#x2c6;" horiz-adv-x="876" 
d="M186 1151l-102 104l256 295h197l256 -295l-103 -104l-252 201z" />
    <glyph glyph-name="caron" unicode="&#x2c7;" horiz-adv-x="876" 
d="M340 1176l-256 294l102 105l252 -201l252 201l103 -105l-256 -294h-197z" />
    <glyph glyph-name="breve" unicode="&#x2d8;" horiz-adv-x="876" 
d="M438 1178q-90 0 -155.5 26t-102.5 72.5t-54 103t-17 125.5l178 6q19 -155 151 -155q133 0 152 155l176 -6q0 -69 -17 -125t-53.5 -103t-102 -73t-155.5 -26z" />
    <glyph glyph-name="dotaccent" unicode="&#x2d9;" horiz-adv-x="876" 
d="M432 1204q-75 0 -111 32.5t-36 106.5v23q0 75 36 107t111 32h12q74 0 111 -32.5t37 -106.5v-23q0 -73 -37 -106t-111 -33h-12z" />
    <glyph glyph-name="ring" unicode="&#x2da;" horiz-adv-x="876" 
d="M432 1165q-248 0 -248 228v28q0 119 62.5 173.5t185.5 54.5h14q122 0 184 -54.5t62 -173.5v-28q0 -228 -246 -228h-14zM436 1294h6q55 0 80 24.5t25 82.5v8q0 59 -24.5 81.5t-80.5 22.5h-6q-58 0 -83 -22.5t-25 -81.5v-8q0 -58 26 -82.5t82 -24.5z" />
    <glyph glyph-name="ogonek" unicode="&#x2db;" horiz-adv-x="876" 
d="M471 -510q-114 0 -185 62.5t-71 177.5q0 82 53.5 159.5t143.5 141.5h176q-88 -90 -128 -155.5t-40 -125.5q0 -92 125 -92q55 0 114 18v-157q-98 -29 -188 -29z" />
    <glyph glyph-name="tilde" unicode="&#x2dc;" horiz-adv-x="876" 
d="M209 1212l-146 23q0 133 58 207t160 74q51 0 108.5 -21.5t108 -43t84.5 -21.5q68 0 86 94l145 -23q0 -133 -57.5 -206.5t-159.5 -73.5q-65 0 -163.5 43t-137.5 43q-68 0 -86 -95z" />
    <glyph glyph-name="hungarumlaut" unicode="&#x2dd;" horiz-adv-x="876" 
d="M137 1163l-112 86l288 414l156 -156zM520 1163l-112 86l288 414l156 -156z" />
    <glyph glyph-name="gravecomb" unicode="&#x300;" horiz-adv-x="0" 
d="M-283 1145l-415 280l143 195l375 -348z" />
    <glyph glyph-name="acutecomb" unicode="&#x301;" horiz-adv-x="0" 
d="M-596 1145l-102 127l374 348l144 -195z" />
    <glyph glyph-name="uni0302" unicode="&#x302;" horiz-adv-x="0" 
d="M-690 1151l-103 104l256 295h197l256 -295l-102 -104l-252 201z" />
    <glyph glyph-name="tildecomb" unicode="&#x303;" horiz-adv-x="0" 
d="M-668 1212l-145 23q0 133 57.5 207t159.5 74q51 0 108.5 -21.5t108 -43t84.5 -21.5q68 0 86 94l146 -23q0 -133 -58 -206.5t-160 -73.5q-65 0 -163.5 43t-137.5 43q-68 0 -86 -95z" />
    <glyph glyph-name="uni0304" unicode="&#x304;" horiz-adv-x="0" 
d="M-741 1239v201h604v-201h-604z" />
    <glyph glyph-name="uni0306" unicode="&#x306;" horiz-adv-x="0" 
d="M-438 1178q-72 0 -129 17.5t-94.5 47.5t-61.5 72t-34.5 89t-10.5 101l178 6q19 -155 152 -155q132 0 151 155l176 -6q0 -69 -17 -125t-53 -103t-101.5 -73t-155.5 -26z" />
    <glyph glyph-name="uni0307" unicode="&#x307;" horiz-adv-x="0" 
d="M-444 1204q-75 0 -111.5 32.5t-36.5 106.5v23q0 75 36 107t112 32h12q74 0 110.5 -32.5t36.5 -106.5v-23q0 -73 -36.5 -106t-110.5 -33h-12z" />
    <glyph glyph-name="uni0308" unicode="&#x308;" horiz-adv-x="0" 
d="M-659 1208q-70 0 -104 31.5t-34 99.5v23q0 69 34 100t104 31h12q69 0 104 -31t35 -100v-23q0 -131 -139 -131h-12zM-231 1208q-140 0 -140 131v23q0 131 140 131h12q70 0 103.5 -31t33.5 -100v-23q0 -68 -33.5 -99.5t-103.5 -31.5h-12z" />
    <glyph glyph-name="uni030A" unicode="&#x30a;" horiz-adv-x="0" 
d="M-444 1165q-248 0 -248 228v28q0 119 62.5 173.5t185.5 54.5h14q122 0 184 -54.5t62 -173.5v-28q0 -228 -246 -228h-14zM-440 1294h6q55 0 79.5 24.5t24.5 82.5v8q0 60 -24 82t-80 22h-6q-58 0 -83.5 -22.5t-25.5 -81.5v-8q0 -57 26 -82t83 -25z" />
    <glyph glyph-name="uni030B" unicode="&#x30b;" horiz-adv-x="0" 
d="M-739 1163l-113 86l289 414l155 -156zM-356 1163l-113 86l289 414l155 -156z" />
    <glyph glyph-name="uni030C" unicode="&#x30c;" horiz-adv-x="0" 
d="M-537 1176l-256 294l103 105l252 -201l252 201l102 -105l-256 -294h-197z" />
    <glyph glyph-name="uni0326" unicode="&#x326;" horiz-adv-x="0" 
d="M-473 -737v270q-63 22 -88 55t-25 95q0 69 35.5 106t104.5 37h14q67 0 103 -37t36 -106v-52q0 -97 -13 -208t-30 -160h-137z" />
    <glyph glyph-name="uni0327" unicode="&#x327;" horiz-adv-x="0" 
d="M-469 -516q-100 0 -182 29v153q78 -20 141 -20q90 0 90 47q0 21 -21.5 37t-93.5 39q-61 19 -86.5 46t-25.5 76q0 27 12.5 61.5t30.5 57.5h145q-10 -35 -10 -53t13.5 -28.5t62.5 -28.5q97 -36 132.5 -76t35.5 -111q0 -97 -56 -159q-29 -33 -80 -51.5t-108 -18.5z" />
    <glyph glyph-name="uni0328" unicode="&#x328;" horiz-adv-x="0" 
d="M-406 -510q-114 0 -185 62.5t-71 177.5q0 82 53.5 159.5t143.5 141.5h176q-88 -90 -128 -155.5t-40 -125.5q0 -92 125 -92q56 0 115 18v-157q-98 -29 -189 -29z" />
    <glyph glyph-name="uni0394" unicode="&#x394;" horiz-adv-x="1378" 
d="M90 0v156q0 45 19 98l405 1147h334l418 -1141q22 -68 22 -119v-141h-1198zM377 203h590l-297 874z" />
    <glyph glyph-name="uni03A9" unicode="&#x3a9;" horiz-adv-x="1490" 
d="M143 0v203h236q-135 100 -199.5 251.5t-64.5 329.5q0 192 71 335.5t214.5 225.5t344.5 82t344.5 -81.5t215 -225.5t71.5 -336q0 -178 -64.5 -329.5t-199.5 -251.5h236v-203h-535v133q0 32 10 54t43 61q99 119 146 243t47 275q0 205 -79 310.5t-235 105.5t-234.5 -105.5
t-78.5 -310.5q0 -151 47 -275t146 -243q33 -39 43 -61t10 -54v-133h-535z" />
    <glyph glyph-name="uni03BC" unicode="&#x3bc;" horiz-adv-x="1171" 
d="M123 -461v1465h293v-648q0 -76 30 -106q36 -33 127 -33q94 0 183 29v758h293v-1004h-254l-9 68q-152 -95 -335 -95q-23 0 -43 2v-436h-285z" />
    <glyph glyph-name="pi" unicode="&#x3c0;" horiz-adv-x="1323" 
d="M195 0v807h-162v197h1257v-197h-162v-807h-292v807h-349v-807h-292z" />
    <glyph glyph-name="Wgrave" unicode="&#x1e80;" horiz-adv-x="1972" 
d="M1165 1554l-415 281l143 195l375 -349zM434 0l-409 1401h337l261 -1012l251 1012h261l274 -1010l250 1010h289l-379 -1401h-348l-230 817l-211 -817h-346z" />
    <glyph glyph-name="wgrave" unicode="&#x1e81;" horiz-adv-x="1619" 
d="M995 1145l-415 280l143 195l375 -348zM315 0l-295 1004h310l178 -715l178 715h264l193 -715l168 715h288l-288 -1004h-340l-160 532l-158 -532h-338z" />
    <glyph glyph-name="Wacute" unicode="&#x1e82;" horiz-adv-x="1972" 
d="M852 1554l-102 127l374 349l144 -195zM434 0l-409 1401h337l261 -1012l251 1012h261l274 -1010l250 1010h289l-379 -1401h-348l-230 817l-211 -817h-346z" />
    <glyph glyph-name="wacute" unicode="&#x1e83;" horiz-adv-x="1619" 
d="M682 1145l-102 127l374 348l144 -195zM315 0l-295 1004h310l178 -715l178 715h264l193 -715l168 715h288l-288 -1004h-340l-160 532l-158 -532h-338z" />
    <glyph glyph-name="Wdieresis" unicode="&#x1e84;" horiz-adv-x="1972" 
d="M788 1618q-70 0 -103.5 31.5t-33.5 99.5v23q0 69 33.5 100t103.5 31h13q69 0 104 -31t35 -100v-23q0 -131 -139 -131h-13zM1217 1618q-140 0 -140 131v23q0 131 140 131h12q70 0 103.5 -31t33.5 -100v-23q0 -68 -33.5 -99.5t-103.5 -31.5h-12zM434 0l-409 1401h337
l261 -1012l251 1012h261l274 -1010l250 1010h289l-379 -1401h-348l-230 817l-211 -817h-346z" />
    <glyph glyph-name="wdieresis" unicode="&#x1e85;" horiz-adv-x="1619" 
d="M618 1208q-70 0 -103.5 31.5t-33.5 99.5v23q0 69 33.5 100t103.5 31h13q69 0 104 -31t35 -100v-23q0 -131 -139 -131h-13zM1047 1208q-140 0 -140 131v23q0 131 140 131h12q70 0 103.5 -31t33.5 -100v-23q0 -68 -33.5 -99.5t-103.5 -31.5h-12zM315 0l-295 1004h310
l178 -715l178 715h264l193 -715l168 715h288l-288 -1004h-340l-160 532l-158 -532h-338z" />
    <glyph glyph-name="Ygrave" unicode="&#x1ef2;" horiz-adv-x="1355" 
d="M844 1554l-416 281l143 195l375 -349zM508 0v571l-483 830h360l307 -565l320 565h319l-504 -832v-569h-319z" />
    <glyph glyph-name="ygrave" unicode="&#x1ef3;" horiz-adv-x="1169" 
d="M680 1145l-416 280l144 195l374 -348zM582 -489q-132 0 -256 26l-21 217q125 -22 230 -22q123 0 170 47q49 46 49 162v122q-144 -81 -316 -81q-156 0 -233 77q-88 88 -88 254v691h293v-650q0 -70 30 -100q36 -33 125 -33q40 0 96 11.5t93 25.5v746h293v-961
q0 -138 -21.5 -233t-74 -164.5t-143 -102t-226.5 -32.5z" />
    <glyph glyph-name="endash" unicode="&#x2013;" horiz-adv-x="1024" 
d="M0 410v243h1024v-243h-1024z" />
    <glyph glyph-name="emdash" unicode="&#x2014;" horiz-adv-x="2048" 
d="M0 410v243h2048v-243h-2048z" />
    <glyph glyph-name="quoteleft" unicode="&#x2018;" horiz-adv-x="473" 
d="M240 823q-73 0 -111.5 40t-38.5 114v55q0 103 14 222.5t31 172.5h148v-290q67 -23 93.5 -58.5t26.5 -101.5q0 -74 -38 -114t-111 -40h-14z" />
    <glyph glyph-name="quoteright" unicode="&#x2019;" horiz-adv-x="473" 
d="M190 823v291q-67 23 -93.5 58.5t-26.5 99.5v2q0 74 38 113.5t111 39.5h14q152 0 152 -153v-55q0 -255 -33 -347q-15 -49 -80 -49h-82z" />
    <glyph glyph-name="quotesinglbase" unicode="&#x201a;" horiz-adv-x="473" 
d="M190 -326v291q-67 23 -93.5 58.5t-26.5 101.5q0 74 38 114t111 40h14q73 0 111.5 -40t38.5 -114v-55q0 -103 -14 -223t-31 -173h-148z" />
    <glyph glyph-name="quotedblleft" unicode="&#x201c;" horiz-adv-x="890" 
d="M240 823q-73 0 -111.5 40t-38.5 114v55q0 103 14 222.5t31 172.5h148v-290q67 -23 93.5 -58.5t26.5 -101.5q0 -74 -38 -114t-111 -40h-14zM657 823q-73 0 -111 40t-38 114v55q0 103 14 222.5t31 172.5h147v-290q67 -23 94 -58.5t27 -101.5q0 -74 -38 -114t-111 -40h-15z
" />
    <glyph glyph-name="quotedblright" unicode="&#x201d;" horiz-adv-x="890" 
d="M190 823v291q-67 23 -93.5 58.5t-26.5 101.5q0 74 38 113.5t111 39.5h14q73 0 111.5 -39.5t38.5 -113.5v-55q0 -103 -14 -223t-31 -173h-148zM608 823v291q-67 23 -94 58.5t-27 101.5q0 74 38.5 113.5t111.5 39.5h14q73 0 111.5 -39.5t38.5 -113.5v-55q0 -103 -14 -223
t-31 -173h-148z" />
    <glyph glyph-name="quotedblbase" unicode="&#x201e;" horiz-adv-x="890" 
d="M190 -326v291q-67 23 -93.5 58.5t-26.5 101.5q0 74 38 114t111 40h14q73 0 111.5 -40t38.5 -114v-55q0 -103 -14 -223t-31 -173h-148zM608 -326v291q-67 23 -94 58.5t-27 101.5q0 74 38.5 114t111.5 40h14q73 0 111.5 -40t38.5 -114v-55q0 -103 -14 -223t-31 -173h-148z
" />
    <glyph glyph-name="dagger" unicode="&#x2020;" horiz-adv-x="1148" 
d="M438 -485l31 1204l-383 -19v267l385 -31l-39 465h287l-39 -465l383 18v-266l-385 31l31 -1204h-271z" />
    <glyph glyph-name="daggerdbl" unicode="&#x2021;" horiz-adv-x="1150" 
d="M430 -485l39 460l-383 -16v264l385 -30v526l-383 -17v265l385 -31l-37 465h285l-39 -465l383 16v-264l-385 31v-526l383 16v-264l-385 30l35 -460h-283z" />
    <glyph glyph-name="bullet" unicode="&#x2022;" horiz-adv-x="772" 
d="M373 408q-145 0 -216 62.5t-71 203.5v51q0 141 71 203.5t216 62.5h26q145 0 216 -62.5t71 -203.5v-51q0 -141 -71 -203.5t-216 -62.5h-26z" />
    <glyph glyph-name="ellipsis" unicode="&#x2026;" horiz-adv-x="1464" 
d="M236 -29q-75 0 -112.5 33.5t-37.5 108.5v24q0 75 37.5 108.5t112.5 33.5h16q75 0 111 -33.5t36 -108.5v-24q0 -75 -36 -108.5t-111 -33.5h-16zM725 -29q-75 0 -112.5 33.5t-37.5 108.5v24q0 75 37.5 108.5t112.5 33.5h14q75 0 112.5 -33.5t37.5 -108.5v-24
q0 -75 -37.5 -108.5t-112.5 -33.5h-14zM1212 -29q-75 0 -111 33.5t-36 108.5v24q0 75 36 108.5t111 33.5h17q75 0 112 -33.5t37 -108.5v-24q0 -75 -37 -108.5t-112 -33.5h-17z" />
    <glyph glyph-name="perthousand" unicode="&#x2030;" horiz-adv-x="2873" 
d="M469 573q-182 0 -274.5 110t-92.5 318q0 207 92.5 316.5t274.5 109.5q183 0 276 -110t93 -316q0 -208 -93 -318t-276 -110zM524 -29l748 1456h252l-748 -1456h-252zM469 768q72 0 100.5 57t28.5 176q0 117 -28.5 174.5t-100.5 57.5q-71 0 -99 -57t-28 -175
q0 -119 27.5 -176t99.5 -57zM1579 -29q-182 0 -274.5 109.5t-92.5 316.5q0 208 92.5 318t274.5 110q181 0 274 -110.5t93 -317.5q0 -206 -93 -316t-274 -110zM2402 -29q-182 0 -274 109.5t-92 316.5q0 208 92 318t274 110q183 0 276 -110t93 -318q0 -206 -93 -316t-276 -110
zM1579 166q72 0 100.5 57t28.5 174q0 119 -28.5 176.5t-100.5 57.5q-73 0 -101 -57t-28 -177q0 -118 28 -174.5t101 -56.5zM2402 166q72 0 100.5 57t28.5 174q0 119 -28.5 176.5t-100.5 57.5t-99.5 -57t-27.5 -177q0 -117 28 -174t99 -57z" />
    <glyph glyph-name="guilsinglleft" unicode="&#x2039;" horiz-adv-x="700" 
d="M469 68l-303 329q-39 43 -56.5 72.5t-17.5 65.5t17 65t57 72l303 329l121 -114l-240 -352l240 -353z" />
    <glyph glyph-name="guilsinglright" unicode="&#x203a;" horiz-adv-x="700" 
d="M231 68l-120 114l239 353l-239 352l120 114l304 -329q39 -42 56 -71.5t17 -65.5t-17 -66t-56 -72z" />
    <glyph glyph-name="fraction" unicode="&#x2044;" horiz-adv-x="983" 
d="M-8 -29l747 1456h252l-747 -1456h-252z" />
    <glyph glyph-name="Euro" unicode="&#x20ac;" 
d="M815 -29q-273 0 -423 121t-199 359h-175v143l154 20q-2 25 -2 103h-152v145l164 21q88 544 609 544q73 0 166 -13t161 -34v-229q-155 31 -270 31q-161 0 -238.5 -71t-99.5 -228h309v-166h-323q0 -74 2 -103h321v-163h-293q55 -234 336 -234q127 0 293 35v-234
q-158 -47 -340 -47z" />
    <glyph glyph-name="uni2113" unicode="&#x2113;" horiz-adv-x="550" 
d="M129 0v1464h293v-1464h-293z" />
    <glyph glyph-name="uni2116" unicode="&#x2116;" horiz-adv-x="2367" 
d="M152 0v1401h235l664 -897v897h280v-1401h-256l-643 850v-850h-280zM1878 469q-192 0 -300 104t-108 285t108 285t300 104t300 -104t108 -285t-108 -285t-300 -104zM1878 674q69 0 112.5 46t43.5 138t-43.5 138t-112.5 46t-112.5 -46t-43.5 -138t43.5 -138t112.5 -46z" />
    <glyph glyph-name="trademark" unicode="&#x2122;" horiz-adv-x="1527" 
d="M225 721v532h-200v148h610v-148h-205v-532h-205zM719 721v680h180l176 -383l180 383h175v-680h-185v317l-110 -225h-123l-117 229v-321h-176z" />
    <glyph glyph-name="uni2126" unicode="&#x2126;" horiz-adv-x="1490" 
d="M143 0v203h236q-135 100 -199.5 251.5t-64.5 329.5q0 192 71 335.5t214.5 225.5t344.5 82t344.5 -81.5t215 -225.5t71.5 -336q0 -178 -64.5 -329.5t-199.5 -251.5h236v-203h-535v133q0 32 10 54t43 61q99 119 146 243t47 275q0 205 -79 310.5t-235 105.5t-234.5 -105.5
t-78.5 -310.5q0 -151 47 -275t146 -243q33 -39 43 -61t10 -54v-133h-535z" />
    <glyph glyph-name="estimated" unicode="&#x212e;" horiz-adv-x="1789" 
d="M897 -29q-221 0 -408.5 97t-297 264.5t-109.5 365.5q0 199 109.5 367t297 265t408.5 97q164 0 313.5 -57.5t259 -154.5t174 -232.5t64.5 -284.5v-16h-1315q-14 0 -14 -12v-398q0 -22 22 -47q94 -98 223.5 -153.5t274.5 -55.5q155 0 290.5 63.5t229.5 174.5h121
q-117 -131 -285 -207t-358 -76zM393 721h1004q14 0 14 12v402q0 24 -25 49q-95 95 -221.5 147.5t-265.5 52.5q-146 0 -273.5 -54t-224.5 -152q-22 -25 -22 -54v-391q0 -12 14 -12z" />
    <glyph glyph-name="partialdiff" unicode="&#x2202;" 
d="M592 -29q-244 0 -370 125.5t-126 364.5q0 213 103.5 324.5t292.5 111.5q168 0 303 -72q-6 217 -88 299q-40 40 -104 57t-169 17q-117 0 -223 -20v223q136 26 293 26q272 0 407 -135q191 -191 191 -657q0 -331 -119 -497.5t-391 -166.5zM586 195q118 0 165.5 89t47.5 294
v77q-100 21 -205 21q-115 0 -159 -47t-44 -178q0 -256 195 -256z" />
    <glyph glyph-name="uni2206" unicode="&#x2206;" horiz-adv-x="1378" 
d="M90 0v156q0 45 19 98l405 1147h334l418 -1141q22 -68 22 -119v-141h-1198zM377 203h590l-297 874z" />
    <glyph glyph-name="product" unicode="&#x220f;" horiz-adv-x="1527" 
d="M248 -461v1653h-162v209h1356v-209h-162v-1653h-317v1653h-398v-1653h-317z" />
    <glyph glyph-name="summation" unicode="&#x2211;" horiz-adv-x="1331" 
d="M115 -461v193l583 731l-587 747v191h1079v-203h-729l547 -711l-572 -720h760v-228h-1081z" />
    <glyph glyph-name="minus" unicode="&#x2212;" 
d="M231 567v193h766v-193h-766z" />
    <glyph glyph-name="radical" unicode="&#x221a;" horiz-adv-x="1431" 
d="M614 0l-301 813h-163v191h397l235 -730l369 1221h262l-483 -1495h-316z" />
    <glyph glyph-name="infinity" unicode="&#x221e;" horiz-adv-x="1413" 
d="M434 289q-139 0 -231 109t-92 296q0 185 96 299.5t252 114.5q169 0 256 -147q110 147 264 147q139 0 231.5 -110.5t92.5 -297.5q0 -183 -96 -297t-251 -114q-88 0 -154.5 37.5t-105.5 107.5q-109 -145 -262 -145zM967 547q54 0 82 44t28 116t-32.5 113.5t-88.5 41.5
q-80 0 -155 -84q49 -128 83 -179.5t83 -51.5zM457 532q78 0 155 86q-49 129 -82.5 179.5t-83.5 50.5q-54 0 -82 -43.5t-28 -116.5q0 -72 32.5 -114t88.5 -42z" />
    <glyph glyph-name="integral" unicode="&#x222b;" horiz-adv-x="1095" 
d="M334 -489q-128 0 -232 22v209q61 -14 134 -14q56 0 85 7.5t50 26.5q35 35 35 123v1276q0 183 83 269q92 92 275 92q123 0 231 -23v-209q-66 15 -133 15q-56 0 -85 -8t-50 -27q-35 -35 -35 -123v-1276q0 -181 -84 -268q-92 -92 -274 -92z" />
    <glyph glyph-name="approxequal" unicode="&#x2248;" 
d="M381 745l-131 21q0 119 51.5 182.5t144.5 63.5q57 0 171.5 -38t146.5 -38q63 0 78 84l131 -19q0 -120 -52 -184.5t-145 -64.5q-57 0 -170 39.5t-147 39.5q-63 0 -78 -86zM381 352l-131 21q0 119 51.5 183.5t144.5 64.5q57 0 171.5 -39t146.5 -39q63 0 78 84l131 -17
q0 -122 -52 -186t-145 -64q-57 0 -170 39t-147 39q-63 0 -78 -86z" />
    <glyph glyph-name="notequal" unicode="&#x2260;" horiz-adv-x="1851" 
d="M1626 850v-299h-541v-551h-319v551h-541v299h541v551h319v-551h541z" />
    <glyph glyph-name="lessequal" unicode="&#x2264;" 
d="M997 301l-766 379v188l766 379v-217l-551 -254l551 -246v-229zM231 0v193h766v-193h-766z" />
    <glyph glyph-name="greaterequal" unicode="&#x2265;" 
d="M231 301v229l551 246l-551 254v217l766 -379v-188zM231 0v193h766v-193h-766z" />
    <glyph glyph-name="lozenge" unicode="&#x25ca;" 
d="M463 0l-346 551q-51 86 -51 151q0 62 51 148l346 551h305l346 -551q51 -86 51 -148q0 -65 -51 -151l-346 -551h-305zM614 250l287 450l-287 451l-284 -451z" />
    <glyph glyph-name="uniF8FF" unicode="&#xf8ff;" horiz-adv-x="1241" 
d="M205 0v1401h831v-135h-692v-1127h154v-139h-293zM481 430v137h420v142h-420v415h555v-139h-413v-137h413v-418h-555z" />
    <glyph glyph-name="i.loclTRK" horiz-adv-x="550" 
d="M270 1204q-75 0 -111 32.5t-36 106.5v23q0 75 36 107t111 32h13q74 0 110.5 -32.5t36.5 -106.5v-23q0 -73 -36.5 -106t-110.5 -33h-13zM129 0v1004h293v-1004h-293z" />
    <glyph glyph-name="notequal.ss01" 
d="M315 96l95 275h-179v192h246l68 201h-314v192h381l95 275h192l-94 -275h192v-192h-260l-67 -201h327v-192h-393l-94 -275h-195z" />
    <glyph glyph-name="plus.ss01" horiz-adv-x="1851" 
d="M1626 850v-299h-541v-551h-319v551h-541v299h541v551h319v-551h541z" />
    <glyph glyph-name="uni0308.case" horiz-adv-x="0" 
d="M-659 1618q-70 0 -104 31.5t-34 99.5v23q0 69 34 100t104 31h12q69 0 104 -31t35 -100v-23q0 -131 -139 -131h-12zM-231 1618q-140 0 -140 131v23q0 131 140 131h12q70 0 103.5 -31t33.5 -100v-23q0 -68 -33.5 -99.5t-103.5 -31.5h-12z" />
    <glyph glyph-name="uni0307.case" horiz-adv-x="0" 
d="M-444 1614q-75 0 -111.5 32.5t-36.5 106.5v23q0 75 36 107t112 32h12q74 0 110.5 -32.5t36.5 -106.5v-23q0 -73 -36.5 -106t-110.5 -33h-12z" />
    <glyph glyph-name="gravecomb.case" horiz-adv-x="0" 
d="M-283 1554l-415 281l143 195l375 -349z" />
    <glyph glyph-name="acutecomb.case" horiz-adv-x="0" 
d="M-596 1554l-102 127l374 349l144 -195z" />
    <glyph glyph-name="uni030B.case" horiz-adv-x="0" 
d="M-739 1573l-113 86l289 414l155 -156zM-356 1573l-113 86l289 414l155 -156z" />
    <glyph glyph-name="uni0302.case" horiz-adv-x="0" 
d="M-690 1561l-103 104l256 295h197l256 -295l-102 -104l-252 200z" />
    <glyph glyph-name="uni030C.case" horiz-adv-x="0" 
d="M-537 1585l-256 295l103 105l252 -201l252 201l102 -105l-256 -295h-197z" />
    <glyph glyph-name="uni0306.case" horiz-adv-x="0" 
d="M-438 1587q-72 0 -129 17.5t-94.5 47.5t-61.5 72.5t-34.5 89.5t-10.5 101l178 6q19 -156 152 -156q132 0 151 156l176 -6q0 -54 -10 -101t-34 -89.5t-60.5 -72.5t-93.5 -47.5t-129 -17.5z" />
    <glyph glyph-name="uni030A.case" horiz-adv-x="0" 
d="M-444 1575q-123 0 -185.5 54.5t-62.5 172.5v29q0 119 62.5 173t185.5 54h14q122 0 184 -54t62 -173v-29q0 -227 -246 -227h-14zM-440 1704h6q55 0 79.5 24t24.5 82v9q0 60 -24 82t-80 22h-6q-58 0 -83.5 -22.5t-25.5 -81.5v-9q0 -57 26 -81.5t83 -24.5z" />
    <glyph glyph-name="tildecomb.case" horiz-adv-x="0" 
d="M-668 1622l-145 23q0 133 57.5 206.5t159.5 73.5q51 0 108.5 -21.5t108 -43t84.5 -21.5q68 0 86 94l146 -22q0 -133 -58 -207t-160 -74q-65 0 -163.5 43t-137.5 43q-68 0 -86 -94z" />
    <glyph glyph-name="uni0304.case" horiz-adv-x="0" 
d="M-741 1649v200h604v-200h-604z" />
    <glyph glyph-name="acute.case" horiz-adv-x="876" 
d="M281 1554l-103 127l375 349l143 -195z" />
    <glyph glyph-name="breve.case" horiz-adv-x="876" 
d="M438 1587q-90 0 -155.5 26t-102.5 73t-54 103.5t-17 125.5l178 6q19 -156 151 -156q133 0 152 156l176 -6q0 -69 -17 -125.5t-53.5 -103.5t-102 -73t-155.5 -26z" />
    <glyph glyph-name="caron.case" horiz-adv-x="876" 
d="M340 1585l-256 295l102 105l252 -201l252 201l103 -105l-256 -295h-197z" />
    <glyph glyph-name="circumflex.case" horiz-adv-x="876" 
d="M186 1561l-102 104l256 295h197l256 -295l-103 -104l-252 200z" />
    <glyph glyph-name="dieresis.case" horiz-adv-x="876" 
d="M217 1618q-70 0 -103.5 31.5t-33.5 99.5v23q0 69 33.5 100t103.5 31h12q70 0 105 -31t35 -100v-23q0 -131 -140 -131h-12zM645 1618q-139 0 -139 131v23q0 131 139 131h12q70 0 104 -31t34 -100v-23q0 -68 -34 -99.5t-104 -31.5h-12z" />
    <glyph glyph-name="dotaccent.case" horiz-adv-x="876" 
d="M432 1614q-75 0 -111 32.5t-36 106.5v23q0 75 36 107t111 32h12q74 0 111 -32.5t37 -106.5v-23q0 -73 -37 -106t-111 -33h-12z" />
    <glyph glyph-name="grave.case" horiz-adv-x="876" 
d="M594 1554l-416 281l144 195l374 -349z" />
    <glyph glyph-name="hungarumlaut.case" horiz-adv-x="876" 
d="M137 1573l-112 86l288 414l156 -156zM520 1573l-112 86l288 414l156 -156z" />
    <glyph glyph-name="macron.case" horiz-adv-x="876" 
d="M135 1649v200h604v-200h-604z" />
    <glyph glyph-name="ring.case" horiz-adv-x="876" 
d="M432 1575q-123 0 -185.5 54.5t-62.5 172.5v29q0 119 62.5 173t185.5 54h14q122 0 184 -54t62 -173v-29q0 -227 -246 -227h-14zM436 1704h6q55 0 80 24.5t25 81.5v9q0 59 -24.5 81.5t-80.5 22.5h-6q-58 0 -83 -22.5t-25 -81.5v-9q0 -57 25.5 -81.5t82.5 -24.5z" />
    <glyph glyph-name="tilde.case" horiz-adv-x="876" 
d="M209 1622l-146 23q0 133 58 206.5t160 73.5q51 0 108.5 -21.5t108 -43t84.5 -21.5q68 0 86 94l145 -22q0 -133 -57.5 -207t-159.5 -74q-65 0 -163.5 43t-137.5 43q-68 0 -86 -94z" />
    </font>
</defs>
</svg>
