<?xml version="1.0" standalone="no"?>
<!DOCTYPE svg PUBLIC "-//W3C//DTD SVG 1.1//EN" "http://www.w3.org/Graphics/SVG/1.1/DTD/svg11.dtd" >
<svg xmlns="http://www.w3.org/2000/svg" xmlns:xlink="http://www.w3.org/1999/xlink" version="1.1">
<metadata>
Created by FontForge 20170731 at Tue Nov 30 23:39:29 2021
 By Aleksey,,,
Copyright (c) 2009 by Fontsmith Ltd. All rights reserved. This font may not be altered in any way without prior permission of Fontsmith Ltd.
</metadata>
<defs>
<font id="Telefonica-Regular" horiz-adv-x="0" >
  <font-face 
    font-family="Telefonica"
    font-weight="400"
    font-stretch="normal"
    units-per-em="2048"
    panose-1="0 0 5 0 0 0 0 0 0 0"
    ascent="1536"
    descent="-512"
    x-height="1004"
    cap-height="1401"
    bbox="-807 -596 2568 2433"
    underline-thickness="124"
    underline-position="-329"
    unicode-range="U+000D-FB02"
  />
<missing-glyph horiz-adv-x="1314" 
d="M176 0v1352h963v-1352h-963zM657 762l326 491h-655zM274 184l326 494l-326 489v-983zM1044 184v983l-327 -489zM328 100h655l-326 490z" />
    <glyph glyph-name="fi" unicode="fi" horiz-adv-x="1110" 
d="M211 0v879h-182v96l182 26v103q0 192 90 289q98 106 309 106q101 0 226 -22v-129q-122 12 -199 12q-142 0 -199 -60q-57 -57 -57 -196v-100h582v-1004h-170v879h-412v-879h-170z" />
    <glyph glyph-name="fl" unicode="fl" horiz-adv-x="1114" 
d="M211 0v879h-182v96l182 26v117q0 183 84 273q102 108 344 108q152 0 330 -31v-1468h-170v1352q-97 10 -160 10q-151 0 -207 -62q-51 -54 -51 -192v-104h264v-125h-264v-879h-170z" />
    <glyph glyph-name=".notdef" horiz-adv-x="1314" 
d="M176 0v1352h963v-1352h-963zM657 762l326 491h-655zM274 184l326 494l-326 489v-983zM1044 184v983l-327 -489zM328 100h655l-326 490z" />
    <glyph glyph-name=".null" 
 />
    <glyph glyph-name="nonmarkingreturn" horiz-adv-x="682" 
 />
    <glyph glyph-name="CR" unicode="&#xd;" horiz-adv-x="417" 
 />
    <glyph glyph-name="space" unicode=" " horiz-adv-x="417" 
 />
    <glyph glyph-name="exclam" unicode="!" horiz-adv-x="559" 
d="M215 375l-29 1026h183l-29 -1026h-125zM274 -29q-102 0 -102 101v16q0 53 25.5 76.5t76.5 23.5h11q51 0 76.5 -23.5t25.5 -76.5v-16q0 -101 -102 -101h-11z" />
    <glyph glyph-name="quotedbl" unicode="&#x22;" horiz-adv-x="790" 
d="M170 971l-20 430h174l-21 -430h-133zM485 971l-20 430h176l-20 -430h-136z" />
    <glyph glyph-name="numbersign" unicode="#" horiz-adv-x="1130" 
d="M160 0l82 420h-140v135h164l56 287h-220v137h248l82 422h154l-84 -422h235l84 422h152l-84 -422h139v-137h-166l-53 -287h221v-135h-248l-80 -420h-151l78 420h-236l-80 -420h-153zM420 555h235l56 287h-236z" />
    <glyph glyph-name="dollar" unicode="$" horiz-adv-x="1130" 
d="M530 -279v250q-226 7 -374 68l30 139q185 -55 344 -55v524q-41 16 -64 25.5t-61 26.5t-61 30.5t-54 34.5t-50 40.5t-40 47.5t-32.5 57t-19 66t-7.5 78q0 164 103.5 259.5t285.5 110.5v254h121v-252q170 -6 299 -51l-26 -139q-138 35 -273 41v-492q49 -19 80.5 -33t76 -37
t73 -44t60.5 -53t50.5 -66t30.5 -79t12 -97q0 -181 -110 -285q-103 -95 -273 -113v-256h-121zM530 834v436q-217 -25 -217 -205q0 -82 55 -133.5t162 -97.5zM651 131q81 15 133 55q76 60 76 170q0 88 -54.5 143t-154.5 99v-467z" />
    <glyph glyph-name="percent" unicode="%" horiz-adv-x="1890" 
d="M449 600q-88 0 -154.5 33t-105.5 91t-58.5 131t-19.5 159t19.5 159t58.5 131t105.5 90.5t154.5 32.5q71 0 128 -21.5t95.5 -59.5t64.5 -90.5t37.5 -112.5t11.5 -129q0 -86 -19 -159t-58 -131t-105.5 -91t-154.5 -33zM510 -29l719 1456h151l-716 -1456h-154zM449 741
q99 0 139.5 69t40.5 204t-40.5 203.5t-139.5 68.5t-140 -69t-41 -203t41 -203.5t140 -69.5zM1442 -29q-88 0 -154.5 33t-105.5 91t-58.5 131t-19.5 159t19.5 159t58.5 131t105.5 91t154.5 33t154.5 -33t105.5 -91t58.5 -131t19.5 -159t-19.5 -159t-58.5 -131t-105.5 -91
t-154.5 -33zM1442 113q99 0 139.5 68.5t40.5 203.5t-40.5 203.5t-139.5 68.5t-139.5 -68.5t-40.5 -203.5t40.5 -203.5t139.5 -68.5z" />
    <glyph glyph-name="ampersand" unicode="&#x26;" horiz-adv-x="1378" 
d="M1186 -68l-195 209q-179 -170 -438 -170q-201 0 -325 108t-124 288q0 135 77.5 235.5t224.5 179.5q-94 106 -131 181.5t-37 160.5q0 139 91.5 221t233.5 82q137 0 226.5 -77.5t89.5 -208.5q0 -106 -64 -201.5t-194 -169.5l378 -416q40 65 66.5 156.5t32.5 185.5h137
q-4 -122 -43 -238t-100 -204l206 -225zM545 852q103 73 147.5 139.5t44.5 143.5q0 75 -46 121.5t-126 46.5q-82 0 -130 -44.5t-48 -123.5q0 -67 34.5 -127t123.5 -156zM578 113q186 0 323 127l-418 454q-204 -114 -204 -313q0 -128 79 -198t220 -70z" />
    <glyph glyph-name="quotesingle" unicode="'" horiz-adv-x="473" 
d="M170 971l-20 430h174l-21 -430h-133z" />
    <glyph glyph-name="parenleft" unicode="(" horiz-adv-x="681" 
d="M578 -465q-200 178 -313 433t-113 560t113 560.5t313 433.5l92 -70q-326 -395 -326 -924q0 -528 326 -923z" />
    <glyph glyph-name="parenright" unicode=")" horiz-adv-x="681" 
d="M104 -465l-92 70q326 395 326 923q0 529 -326 924l92 70q200 -178 313 -433.5t113 -560.5t-113 -560t-313 -433z" />
    <glyph glyph-name="asterisk" unicode="*" horiz-adv-x="897" 
d="M279 643l-115 90l203 240l-297 88l49 139l278 -129l-24 330h147l-20 -330l278 129l49 -139l-297 -88l203 -240l-115 -90l-169 264z" />
    <glyph glyph-name="plus" unicode="+" horiz-adv-x="1105" 
d="M487 334v276h-274v129h274v275h129v-275h277v-129h-277v-276h-129z" />
    <glyph glyph-name="comma" unicode="," horiz-adv-x="464" 
d="M211 -289v256q-96 20 -96 117v6q0 111 104 111h2q61 0 89 -33t28 -109q0 -61 -14.5 -166.5t-32.5 -181.5h-80z" />
    <glyph glyph-name="hyphen" unicode="-" horiz-adv-x="659" 
d="M123 459v145h414v-145h-414z" />
    <glyph glyph-name="period" unicode="." horiz-adv-x="464" 
d="M225 -29q-102 0 -102 111v8q0 111 102 111h15q102 0 102 -111v-8q0 -111 -102 -111h-15z" />
    <glyph glyph-name="slash" unicode="/" horiz-adv-x="925" 
d="M78 -29l604 1456h166l-604 -1456h-166z" />
    <glyph glyph-name="zero" unicode="0" horiz-adv-x="1130" 
d="M565 -29q-103 0 -183.5 32t-136.5 92t-92 150t-52.5 201.5t-16.5 251.5q0 175 26.5 307t83 228t149.5 145t222 49q171 0 279.5 -88.5t155.5 -247t47 -393.5q0 -175 -26.5 -307t-83.5 -227.5t-150 -144t-222 -48.5zM565 117q166 0 234.5 139.5t68.5 441.5
q0 303 -68.5 443.5t-234.5 140.5t-234.5 -140.5t-68.5 -443.5q0 -302 68.5 -441.5t234.5 -139.5z" />
    <glyph glyph-name="one" unicode="1" horiz-adv-x="1130" 
d="M262 0v131h242v1147h-238v115q154 22 289 22q66 0 91.5 -20.5t25.5 -75.5v-1188h213v-131h-623z" />
    <glyph glyph-name="two" unicode="2" horiz-adv-x="1130" 
d="M147 0q-8 24 -8 47q0 43 16.5 78.5t65.5 95.5l322 393q124 152 172.5 247t48.5 190q0 126 -76 180.5t-225 54.5q-143 0 -295 -31v134q149 38 319 38q236 0 349 -102q106 -92 106 -266q0 -125 -56 -233t-216 -296l-336 -395h633v-135h-820z" />
    <glyph glyph-name="three" unicode="3" horiz-adv-x="1130" 
d="M455 -29q-157 0 -301 35v135q127 -26 278 -26q184 0 268 63q91 67 91 209q0 121 -70 188q-82 76 -285 76h-37v127h35q322 0 322 262q0 122 -70 183q-74 63 -254 63q-121 0 -256 -22v133q135 30 289 30q247 0 360 -110q103 -98 103 -268q0 -120 -57 -200.5t-154 -117.5
q119 -41 185.5 -129t66.5 -217q0 -196 -131 -305q-133 -109 -383 -109z" />
    <glyph glyph-name="four" unicode="4" horiz-adv-x="1130" 
d="M721 0v342h-633q-4 28 -4 53q0 55 37 160l295 846h166l-326 -922h465v355h168v-355h170v-137h-170v-342h-168z" />
    <glyph glyph-name="five" unicode="5" horiz-adv-x="1130" 
d="M471 -29q-157 0 -293 33v133q136 -22 260 -22q196 0 281 71q84 72 84 220q0 140 -70 210q-41 41 -112.5 58.5t-188.5 17.5h-229q-6 15 -6 43q0 31 2 76l26 590h670v-135h-526l-19 -437h107q158 0 256 -28.5t161 -93.5q107 -110 107 -297q0 -197 -113 -310
q-126 -129 -397 -129z" />
    <glyph glyph-name="six" unicode="6" horiz-adv-x="1130" 
d="M590 -29q-126 0 -216.5 45.5t-144 133t-78 205t-24.5 272.5q0 455 164 649q127 151 379 151q112 0 229 -24v-131q-122 16 -215 16q-102 0 -173.5 -31.5t-115.5 -97.5t-65.5 -156.5t-26.5 -218.5q182 76 338 76q185 0 289 -108t104 -312q0 -209 -116 -339t-328 -130z
M594 111q130 0 199 85t69 234q0 147 -60 220t-196 73q-144 0 -305 -53v-82q0 -234 67 -355.5t226 -121.5z" />
    <glyph glyph-name="seven" unicode="7" horiz-adv-x="1130" 
d="M367 0l456 1266h-676v135h842q6 -15 6 -45q0 -58 -22 -123l-420 -1233h-186z" />
    <glyph glyph-name="eight" unicode="8" horiz-adv-x="1130" 
d="M559 -29q-211 0 -333 102.5t-122 270.5q0 125 76.5 226.5t202.5 164.5q-105 61 -164 140t-59 196q0 158 113.5 257t293.5 99q179 0 290.5 -97.5t111.5 -237.5q0 -115 -66.5 -206t-187.5 -149q70 -35 118.5 -67t96 -77.5t72 -103.5t24.5 -127q0 -178 -128 -284.5
t-339 -106.5zM590 799q221 113 221 280q0 90 -67.5 149.5t-174.5 59.5q-113 0 -181.5 -56.5t-68.5 -150.5q0 -49 20.5 -90.5t62.5 -76t82.5 -59t105.5 -56.5zM561 113q136 0 215.5 61t79.5 172q0 47 -18.5 87.5t-44 68.5t-72 58.5t-82 48.5t-95.5 46q-21 10 -32 15
q-110 -55 -175 -134t-65 -180q0 -117 77 -180t212 -63z" />
    <glyph glyph-name="nine" unicode="9" horiz-adv-x="1130" 
d="M461 -29q-109 0 -230 25v131q122 -16 215 -16q200 0 285 122t96 381q-179 -75 -338 -75q-185 0 -289 107.5t-104 311.5q0 209 116.5 339t328.5 130q101 0 179.5 -30t131.5 -85t87.5 -136.5t49.5 -181t15 -222.5q0 -455 -164 -649q-128 -152 -379 -152zM524 676
q144 0 305 53v82q0 234 -66.5 355.5t-225.5 121.5q-130 0 -199.5 -85t-69.5 -234q0 -147 60 -220t196 -73z" />
    <glyph glyph-name="colon" unicode=":" horiz-adv-x="464" 
d="M225 608q-102 0 -102 111v8q0 111 102 111h15q102 0 102 -111v-8q0 -111 -102 -111h-15zM225 -29q-102 0 -102 111v8q0 111 102 111h15q102 0 102 -111v-8q0 -111 -102 -111h-15z" />
    <glyph glyph-name="semicolon" unicode=";" horiz-adv-x="464" 
d="M225 608q-102 0 -102 111v8q0 111 102 111h15q102 0 102 -111v-8q0 -111 -102 -111h-15zM217 -289v256q-96 20 -96 117v6q0 111 104 111h2q61 0 89 -33t28 -109q0 -61 -14.5 -166.5t-32.5 -181.5h-80z" />
    <glyph glyph-name="less" unicode="&#x3c;" horiz-adv-x="1105" 
d="M893 268l-680 338v139l680 340v-147l-535 -262l535 -256v-152z" />
    <glyph glyph-name="equal" unicode="=" horiz-adv-x="1105" 
d="M213 795v129h680v-129h-680zM213 426v129h680v-129h-680z" />
    <glyph glyph-name="greater" unicode="&#x3e;" horiz-adv-x="1105" 
d="M213 268v152l535 256l-535 262v147l680 -340v-139z" />
    <glyph glyph-name="question" unicode="?" horiz-adv-x="847" 
d="M293 375q-6 34 -6 63q0 82 28 147.5t107 157.5l24 29q81 95 116.5 162.5t35.5 148.5q0 98 -57 146q-60 51 -195 51q-122 0 -246 -31l-26 133q145 45 297 45q213 0 319 -98q88 -85 88 -223q0 -105 -42 -189.5t-136 -191.5q-51 -58 -71.5 -83.5t-47.5 -63t-36.5 -63.5
t-17 -60.5t-9.5 -79.5h-125zM358 -29q-102 0 -102 101v16q0 53 25.5 76.5t76.5 23.5h11q51 0 76.5 -23.5t25.5 -76.5v-16q0 -101 -102 -101h-11z" />
    <glyph glyph-name="at" unicode="@" horiz-adv-x="1562" 
d="M840 -29q-370 0 -564 192.5t-194 530.5q0 217 85.5 383t247 258t378.5 92q313 0 498.5 -184t185.5 -483q0 -204 -90 -319t-250 -115q-133 0 -197 57q-94 -59 -211 -59q-107 0 -170 60t-63 159t59 155q74 68 244 68h116v47q0 81 -30 111q-35 32 -131 32q-88 0 -193 -20
l-6 108q107 29 215 29q155 0 221 -69q58 -61 58 -187v-373q36 -8 79 -8q106 0 160 78q53 82 53 227q0 265 -144 413.5t-404 148.5q-271 0 -419.5 -163t-148.5 -442q0 -294 159.5 -451t471.5 -157q188 0 373 39v-113q-163 -45 -389 -45zM766 434q73 0 149 37v193h-116
q-102 0 -140 -35q-30 -27 -30 -78q0 -117 137 -117z" />
    <glyph glyph-name="A" unicode="A" horiz-adv-x="1210" 
d="M37 0l444 1401h209l484 -1401h-191l-123 373h-530l-115 -373h-178zM375 516h438l-225 692h-2z" />
    <glyph glyph-name="B" unicode="B" horiz-adv-x="1212" 
d="M170 0v1401h375q270 0 375 -105q88 -88 88 -243q0 -110 -48.5 -189t-138.5 -119q132 -31 204.5 -121.5t72.5 -228.5q0 -186 -107 -284q-123 -111 -397 -111h-424zM352 795h180q174 0 238 67q55 58 55 168q0 114 -57 168q-62 59 -238 59h-178v-462zM352 143h187
q124 0 192 15t109 51q69 63 69 188q0 122 -61 183q-41 39 -106 55t-179 16h-211v-508z" />
    <glyph glyph-name="C" unicode="C" horiz-adv-x="1136" 
d="M741 -29q-316 0 -471 179.5t-155 541.5q0 395 182 580q73 76 182.5 115.5t241.5 39.5q181 0 326 -53l-25 -139q-144 39 -281 39q-212 0 -313 -113q-123 -134 -123 -465q0 -326 129 -458q112 -115 352 -115q103 0 248 29l17 -140q-134 -41 -310 -41z" />
    <glyph glyph-name="D" unicode="D" horiz-adv-x="1323" 
d="M170 0v1401h354q195 0 323.5 -41t211.5 -131q149 -165 149 -520q0 -386 -168 -557q-149 -152 -477 -152h-393zM352 145h205q117 0 195 25t133 78q135 129 135 459q0 290 -102 415q-58 70 -152.5 101.5t-251.5 31.5h-162v-1110z" />
    <glyph glyph-name="E" unicode="E" horiz-adv-x="1087" 
d="M170 0v1401h803l-17 -144h-604v-475h490v-147h-490v-492h633v-143h-815z" />
    <glyph glyph-name="F" unicode="F" horiz-adv-x="987" 
d="M170 0v1401h788l-16 -144h-590v-475h475v-147h-475v-635h-182z" />
    <glyph glyph-name="G" unicode="G" horiz-adv-x="1310" 
d="M764 -29q-334 0 -490 179q-159 182 -159 528q0 398 194 592q160 157 453 157q184 0 338 -53l-25 -139q-148 41 -297 41q-235 0 -348 -131q-125 -142 -125 -457q0 -290 109 -428q109 -139 364 -139q98 0 191 14v430h-238v144h416v-684q-72 -23 -180 -38.5t-203 -15.5z" />
    <glyph glyph-name="H" unicode="H" horiz-adv-x="1347" 
d="M170 0v1401h182v-619h643v619h183v-1401h-183v635h-643v-635h-182z" />
    <glyph glyph-name="I" unicode="I" horiz-adv-x="534" 
d="M176 0v1401h182v-1401h-182z" />
    <glyph glyph-name="J" unicode="J" horiz-adv-x="761" 
d="M246 -29q-83 0 -156 17l-16 143q72 -10 149 -10q66 0 106.5 16t63.5 53q31 53 31 175v1036h182v-1034q0 -217 -82 -308q-80 -88 -278 -88z" />
    <glyph glyph-name="K" unicode="K" horiz-adv-x="1214" 
d="M170 0v1401h182v-723l584 723h205l-475 -580l497 -821h-207l-405 686l-199 -240v-446h-182z" />
    <glyph glyph-name="L" unicode="L" horiz-adv-x="1032" 
d="M170 0v1401h182v-1258h611v-143h-793z" />
    <glyph glyph-name="M" unicode="M" horiz-adv-x="1636" 
d="M170 0v1401h160l487 -922l494 922h155v-1401h-172v1042l-407 -745h-152l-403 754v-1051h-162z" />
    <glyph glyph-name="N" unicode="N" horiz-adv-x="1396" 
d="M170 0v1401h127l768 -1090v1090h162v-1401h-140l-755 1067v-1067h-162z" />
    <glyph glyph-name="O" unicode="O" horiz-adv-x="1347" 
d="M674 -29q-123 0 -219 36.5t-159.5 100.5t-104.5 157t-58.5 199.5t-17.5 233.5t17.5 233.5t58.5 200t104.5 157.5t159.5 101t219 37t219 -37t159.5 -101t104.5 -157.5t58.5 -200t17.5 -233.5t-17.5 -233.5t-58.5 -199.5t-104.5 -157t-159.5 -100.5t-219 -36.5zM674 129
q106 0 179 39.5t113.5 117t58 177t17.5 235.5t-17.5 235.5t-58 178t-113.5 118.5t-179 40q-85 0 -149 -27t-105.5 -75t-67.5 -121t-36.5 -157t-10.5 -192q0 -136 17.5 -235.5t58.5 -177t114 -117t179 -39.5z" />
    <glyph glyph-name="P" unicode="P" horiz-adv-x="1159" 
d="M170 0v1401h401q296 0 412 -119q102 -102 102 -305q0 -226 -114 -340q-118 -115 -359 -115h-260v-522h-182zM352 670h199q196 0 270 69q76 73 76 234q0 143 -66 209q-75 75 -274 75h-205v-587z" />
    <glyph glyph-name="Q" unicode="Q" horiz-adv-x="1347" 
d="M1241 -217l-305 137q-69 31 -112.5 41t-118.5 10h-31q-123 0 -219 36.5t-159.5 100.5t-104.5 157t-58.5 199.5t-17.5 233.5t17.5 233.5t58.5 200t104.5 157.5t159.5 101t219 37t219 -37t159.5 -101t104.5 -157.5t58.5 -200t17.5 -233.5q0 -495 -264 -655
q91 -6 188.5 -36.5t159.5 -69.5q-7 -27 -33 -78t-43 -76zM674 129q106 0 179 39.5t113.5 117t58 177t17.5 235.5t-17.5 235.5t-58 178t-113.5 118.5t-179 40q-85 0 -149 -27t-105.5 -75t-67.5 -121t-36.5 -157t-10.5 -192q0 -136 17.5 -235.5t58.5 -177t114 -117t179 -39.5z
" />
    <glyph glyph-name="R" unicode="R" horiz-adv-x="1232" 
d="M170 0v1401h408q296 0 409 -113q105 -102 105 -311q0 -159 -68 -261.5t-195 -146.5l301 -569h-202q-229 453 -273 539q-50 -4 -90 -4h-213v-535h-182zM352 682h217q198 0 273 84q61 70 61 211q0 144 -63 207q-73 73 -283 73h-205v-575z" />
    <glyph glyph-name="S" unicode="S" horiz-adv-x="1112" 
d="M520 -29q-100 0 -210 18.5t-187 49.5l31 139q188 -55 350 -55q167 0 248 63q75 60 75 170q0 56 -24.5 100.5t-66 74.5t-95.5 55t-113.5 47.5t-119 46.5t-113.5 57t-95.5 74.5t-66 103t-24.5 138.5q0 182 124.5 278t339.5 96q191 0 345 -53l-27 -139q-155 41 -303 41
q-307 0 -307 -211q0 -57 31 -102t81.5 -73t115.5 -57t132 -53t132 -60.5t115.5 -79.5t81.5 -111t31 -154q0 -181 -110 -285q-125 -119 -371 -119z" />
    <glyph glyph-name="T" unicode="T" horiz-adv-x="1165" 
d="M492 0v1257h-447v144h1083l-16 -144h-438v-1257h-182z" />
    <glyph glyph-name="U" unicode="U" horiz-adv-x="1329" 
d="M672 -29q-246 0 -375 117q-143 128 -143 416v897h182v-887q0 -116 20.5 -186.5t67.5 -116.5q87 -84 252 -84q158 0 242 84q92 92 92 303v887h166v-897q0 -278 -138 -410q-129 -123 -366 -123z" />
    <glyph glyph-name="V" unicode="V" horiz-adv-x="1204" 
d="M512 0l-471 1401h188l387 -1202h5l362 1202h180l-448 -1401h-203z" />
    <glyph glyph-name="W" unicode="W" horiz-adv-x="1812" 
d="M432 0l-391 1401h186l318 -1186h4l272 1186h191l299 -1178h4l287 1178h170l-359 -1401h-215l-280 1116h-5l-260 -1116h-221z" />
    <glyph glyph-name="X" unicode="X" horiz-adv-x="1103" 
d="M45 0l418 698l-400 703h193l311 -565l301 565h191l-410 -694l406 -707h-199l-313 565l-299 -565h-199z" />
    <glyph glyph-name="Y" unicode="Y" horiz-adv-x="1177" 
d="M487 0v573l-454 828h200l357 -674l371 674h184l-475 -832v-569h-183z" />
    <glyph glyph-name="Z" unicode="Z" horiz-adv-x="1148" 
d="M102 0v104l723 1153h-710v144h929v-109l-720 -1149h723v-143h-945z" />
    <glyph glyph-name="bracketleft" unicode="[" horiz-adv-x="700" 
d="M233 -424v1913h408v-133h-229v-1647h229v-133h-408z" />
    <glyph glyph-name="backslash" unicode="\" horiz-adv-x="925" 
d="M682 -29l-604 1456h166l604 -1456h-166z" />
    <glyph glyph-name="bracketright" unicode="]" horiz-adv-x="700" 
d="M59 -424v133h230v1647h-230v133h408v-1913h-408z" />
    <glyph glyph-name="asciicircum" unicode="^" horiz-adv-x="1105" 
d="M150 815l333 586h138l333 -586h-157l-246 457l-246 -457h-155z" />
    <glyph glyph-name="underscore" unicode="_" horiz-adv-x="880" 
d="M45 -182v125h791v-125h-791z" />
    <glyph glyph-name="grave" unicode="`" horiz-adv-x="839" 
d="M582 1165l-392 281l97 129l360 -320z" />
    <glyph glyph-name="a" unicode="a" horiz-adv-x="1034" 
d="M432 -29q-168 0 -262 97q-80 83 -80 217q0 137 86 217q104 96 340 96h209v64q0 118 -51 169q-63 60 -209 60q-117 0 -270 -25l-7 131q143 35 306 35q215 0 313 -92q47 -46 67.5 -109.5t20.5 -162.5v-668h-137l-10 68q-150 -97 -316 -97zM469 109q126 0 256 65v299h-184
q-159 0 -224 -51q-55 -46 -55 -133q0 -89 53.5 -134.5t153.5 -45.5z" />
    <glyph glyph-name="b" unicode="b" horiz-adv-x="1081" 
d="M600 -29q-80 0 -164.5 27t-146.5 70l-8 -68h-138v1464h170v-512q146 80 289 80q187 0 288 -130.5t101 -395.5q0 -270 -100 -402.5t-291 -132.5zM561 113q131 0 191.5 90t60.5 303q0 202 -61 291.5t-195 89.5q-124 0 -244 -58v-645q52 -31 120 -51t128 -20z" />
    <glyph glyph-name="c" unicode="c" horiz-adv-x="921" 
d="M588 -29q-243 0 -365 125q-133 136 -133 393q0 266 131 406q128 137 369 137q118 0 239 -31l-10 -131q-131 25 -209 25q-175 0 -258.5 -100.5t-83.5 -302.5q0 -191 84 -287q81 -94 266 -94q107 0 209 20l13 -127q-121 -33 -252 -33z" />
    <glyph glyph-name="d" unicode="d" horiz-adv-x="1085" 
d="M494 -29q-194 0 -299 133.5t-105 391.5q0 250 110 393t306 143q140 0 266 -71v503h170v-1464h-139l-12 61q-62 -40 -144.5 -65t-152.5 -25zM541 111q110 0 231 59v670q-125 49 -231 49q-146 0 -209.5 -103t-63.5 -292q0 -196 68 -289.5t205 -93.5z" />
    <glyph glyph-name="e" unicode="e" horiz-adv-x="1036" 
d="M580 -29q-238 0 -359 121q-131 131 -131 408q0 261 117.5 396.5t316.5 135.5q207 0 311.5 -137.5t104.5 -390.5v-39q0 -23 -25 -23h-647q0 -174 88 -256q81 -75 256 -75q121 0 248 26l17 -127q-134 -39 -297 -39zM268 567h504q-5 152 -66 240t-182 88q-125 0 -189.5 -86
t-66.5 -242z" />
    <glyph glyph-name="f" unicode="f" horiz-adv-x="653" 
d="M211 0v879h-182v96l182 26v138q0 180 74 266q82 94 262 94q90 0 168 -16v-129q-82 8 -144 8q-107 0 -149 -45q-23 -24 -32 -64t-9 -110v-139h264v-125h-264v-879h-170z" />
    <glyph glyph-name="g" unicode="g" horiz-adv-x="1046" 
d="M530 -489q-227 0 -337.5 72.5t-110.5 209.5q0 66 31 126t84 97q-47 38 -47 109q0 116 118 231q-141 99 -141 303q0 170 102 271.5t301 101.5q41 0 103 -8l121 262q83 -18 141 -65l-139 -238q89 -45 133.5 -129.5t44.5 -194.5q0 -169 -102.5 -270.5t-301.5 -101.5
q-90 0 -157 20q-24 -27 -40 -62t-16 -61q0 -61 82 -61h193q131 0 210.5 -22t129.5 -72q74 -74 74 -203q0 -157 -113.5 -236t-362.5 -79zM530 422q242 0 242 237q0 238 -242 238q-241 0 -241 -238q0 -237 241 -237zM547 -346q299 0 299 166q0 73 -49 110q-55 41 -205 41h-217
q-44 0 -74 6q-59 -72 -59 -153q0 -85 71.5 -127.5t233.5 -42.5z" />
    <glyph glyph-name="h" unicode="h" horiz-adv-x="1114" 
d="M143 0v1464h170v-524q167 92 326 92q167 0 252 -88q84 -84 84 -262v-682h-170v662q0 120 -49 169q-52 52 -162 52q-142 0 -281 -66v-817h-170z" />
    <glyph glyph-name="i" unicode="i" horiz-adv-x="464" 
d="M227 1194q-100 0 -100 109v4q0 108 100 108h11q100 0 100 -108v-4q0 -109 -100 -109h-11zM147 0v1004h170v-1004h-170z" />
    <glyph glyph-name="j" unicode="j" horiz-adv-x="464" 
d="M227 1194q-100 0 -100 109v4q0 108 100 108h11q100 0 100 -108v-4q0 -109 -100 -109h-11zM-125 -483l-18 137q172 3 233 72q32 36 44.5 92t12.5 149v1037h170v-1010q0 -146 -23.5 -230t-80.5 -143q-101 -104 -338 -104z" />
    <glyph glyph-name="k" unicode="k" horiz-adv-x="1024" 
d="M143 0v1464h170v-970l449 510h196l-354 -390l391 -614h-194l-307 498l-181 -201v-297h-170z" />
    <glyph glyph-name="l" unicode="l" horiz-adv-x="460" 
d="M145 0v1464h170v-1464h-170z" />
    <glyph glyph-name="m" unicode="m" horiz-adv-x="1724" 
d="M143 0v1004h142l8 -74q161 102 323 102q189 0 273 -112q184 112 360 112q167 0 252 -88q84 -84 84 -262v-682h-170v662q0 120 -49 169q-52 52 -158 52q-131 0 -270 -68q14 -65 14 -133v-682h-170v662q0 120 -49 169q-52 52 -158 52q-123 0 -262 -66v-817h-170z" />
    <glyph glyph-name="n" unicode="n" horiz-adv-x="1114" 
d="M143 0v1004h142l8 -74q168 102 346 102q167 0 252 -88q84 -84 84 -262v-682h-170v662q0 120 -49 169q-52 52 -162 52q-142 0 -281 -66v-817h-170z" />
    <glyph glyph-name="o" unicode="o" horiz-adv-x="1093" 
d="M547 -29q-229 0 -343 137.5t-114 393.5t114 393t343 137t343 -137t114 -393t-114 -393.5t-343 -137.5zM547 111q149 0 213.5 96.5t64.5 294.5t-64.5 294.5t-213.5 96.5q-150 0 -214.5 -96.5t-64.5 -294.5t64.5 -294.5t214.5 -96.5z" />
    <glyph glyph-name="p" unicode="p" horiz-adv-x="1081" 
d="M143 -461v1465h142l8 -74q152 102 313 102q190 0 287.5 -140t97.5 -386q0 -274 -102 -404.5t-289 -130.5q-78 0 -154.5 20.5t-132.5 55.5v-508h-170zM557 113q137 0 196.5 90.5t59.5 304.5q0 193 -59.5 286t-184.5 93q-127 0 -256 -68v-645q45 -27 112.5 -44t131.5 -17z
" />
    <glyph glyph-name="q" unicode="q" horiz-adv-x="1087" 
d="M774 -479v526q-59 -34 -136 -55t-144 -21q-191 0 -297.5 135.5t-106.5 389.5q0 251 113 393.5t309 142.5q149 0 281 -96l10 68h141v-1453zM541 111q115 0 233 59v649q-120 70 -242 70q-129 0 -196.5 -98t-67.5 -291q0 -389 273 -389z" />
    <glyph glyph-name="r" unicode="r" horiz-adv-x="686" 
d="M143 0v1004h142l10 -86q137 114 285 114q30 0 65 -6v-152q-57 5 -88 5q-135 0 -244 -68v-811h-170z" />
    <glyph glyph-name="s" unicode="s" horiz-adv-x="909" 
d="M408 -29q-164 0 -295 43l8 131q128 -36 280 -36q123 0 187.5 40t64.5 117q0 45 -31 77.5t-80 51.5t-108.5 36.5t-119.5 40.5t-109 54t-80 86.5t-31 130.5q0 142 99.5 215.5t265.5 73.5q155 0 293 -43l-15 -125q-148 33 -264 33q-219 0 -219 -141q0 -45 31 -78t80 -53
t109 -38t119.5 -41.5t108.5 -54.5t80 -85t31 -127q0 -155 -108 -231.5t-297 -76.5z" />
    <glyph glyph-name="t" unicode="t" horiz-adv-x="747" 
d="M492 -29q-155 0 -224 78q-36 42 -49.5 98t-13.5 152v580h-182v96l182 26v238q95 31 170 31v-266h264v-125h-264v-557q0 -76 7 -115.5t28 -61.5q36 -39 129 -39q68 0 151 17l8 -125q-102 -27 -206 -27z" />
    <glyph glyph-name="u" unicode="u" horiz-adv-x="1110" 
d="M475 -29q-167 0 -252 88q-84 84 -84 263v682h170v-662q0 -121 49 -170q51 -51 162 -51q140 0 277 65v818h170v-1004h-142l-8 74q-170 -103 -342 -103z" />
    <glyph glyph-name="v" unicode="v" horiz-adv-x="962" 
d="M391 0l-358 1004h178l278 -830l269 830h172l-352 -1004h-187z" />
    <glyph glyph-name="w" unicode="w" horiz-adv-x="1466" 
d="M326 0l-293 1004h172l225 -826l215 826h172l244 -836l215 836h158l-279 -1004h-194l-230 768l-209 -768h-196z" />
    <glyph glyph-name="x" unicode="x" horiz-adv-x="944" 
d="M45 0l334 496l-338 508h190l256 -383l226 383h186l-332 -502l336 -502h-192l-252 379l-226 -379h-188z" />
    <glyph glyph-name="y" unicode="y" horiz-adv-x="1110" 
d="M549 -489q-113 0 -203 20l-14 133q98 -12 192 -12q149 0 209 55q64 61 64 217v137q-158 -90 -322 -90q-167 0 -252 88q-84 84 -84 263v682h170v-662q0 -121 49 -170q51 -51 162 -51q140 0 277 65v818h170v-1082q0 -201 -93 -301q-101 -110 -325 -110z" />
    <glyph glyph-name="z" unicode="z" horiz-adv-x="870" 
d="M74 0v92l518 787h-514v125h717v-99l-514 -780h528v-125h-735z" />
    <glyph glyph-name="braceleft" unicode="{" horiz-adv-x="735" 
d="M627 -424q-162 0 -230 62q-61 55 -61 200v334q0 166 -57 223q-43 46 -164 68v139q121 22 164 68q57 57 57 223v334q0 145 61 200q68 62 230 62h51v-133h-35q-83 0 -108 -25t-25 -106v-336q0 -100 -13 -159.5t-44 -100.5q-45 -60 -129 -97q86 -38 129 -96
q31 -41 44 -100.5t13 -159.5v-336q0 -81 25 -106t108 -25h35v-133h-51z" />
    <glyph glyph-name="bar" unicode="|" horiz-adv-x="499" 
d="M176 -518v2040h148v-2040h-148z" />
    <glyph glyph-name="braceright" unicode="}" horiz-adv-x="735" 
d="M57 -424v133h35q84 0 109 25q24 24 24 106v336q0 99 13.5 158.5t44.5 101.5q43 58 129 96q-84 37 -129 97q-31 42 -44.5 101.5t-13.5 158.5v336q0 82 -24 106q-25 25 -109 25h-35v133h52q161 0 229 -62q61 -55 61 -200v-334q0 -165 58 -223q43 -46 164 -68v-139
q-121 -22 -164 -68q-58 -58 -58 -223v-334q0 -145 -61 -200q-68 -62 -229 -62h-52z" />
    <glyph glyph-name="asciitilde" unicode="~" horiz-adv-x="1105" 
d="M272 635l-106 22q6 199 188 199q69 0 203.5 -41t187.5 -41q40 0 59 20t30 68l106 -22q-6 -199 -188 -199q-69 0 -204 41t-188 41q-40 0 -58.5 -20t-29.5 -68z" />
    <glyph glyph-name="uni00A0" unicode="&#xa0;" horiz-adv-x="417" 
 />
    <glyph glyph-name="exclamdown" unicode="&#xa1;" horiz-adv-x="559" 
d="M285 1032q51 0 76.5 -23.5t25.5 -76.5v-17q0 -53 -25.5 -76.5t-76.5 -23.5h-11q-51 0 -76.5 23.5t-25.5 76.5v17q0 53 25.5 76.5t76.5 23.5h11zM344 629l29 -1026h-183l29 1026h125z" />
    <glyph glyph-name="cent" unicode="&#xa2;" horiz-adv-x="1130" 
d="M602 -258v235q-181 18 -276 119q-133 136 -133 393q0 266 131 406q101 109 278 131v236h119v-230q104 -3 211 -31l-10 -131q-140 23 -201 25v-784q107 0 209 20l12 -127q-92 -26 -221 -33v-229h-119zM602 121v762q-231 -56 -231 -391q0 -191 84 -287q55 -63 147 -84z" />
    <glyph glyph-name="sterling" unicode="&#xa3;" horiz-adv-x="1130" 
d="M172 0q-10 30 -10 78q0 51 45 106q67 83 96 146.5t29 144.5q0 22 -3.5 50.5t-6 45t-10 53.5t-9.5 46h-180v92l158 18q-33 143 -33 246q0 200 119.5 300.5t330.5 100.5q140 0 293 -32v-133q-144 24 -274 24q-155 0 -227 -66t-72 -200q0 -89 33 -232h360v-118h-336
q25 -131 25 -181q0 -106 -40.5 -185.5t-129.5 -168.5h706v-135h-864z" />
    <glyph glyph-name="currency" unicode="&#xa4;" horiz-adv-x="1130" 
d="M199 233l-93 93l156 155q-57 86 -57 217t57 217l-156 156l93 92l153 -155q86 59 213 59q128 0 211 -59l156 155l92 -92l-156 -156q58 -92 58 -217t-58 -217l156 -155l-92 -93l-156 154q-85 -57 -211 -57q-125 0 -213 57zM565 465q199 0 199 233q0 234 -199 234
q-198 0 -198 -234q0 -233 198 -233z" />
    <glyph glyph-name="yen" unicode="&#xa5;" horiz-adv-x="1130" 
d="M469 0v301h-274v117h274v96h-274v117h245l-383 770h195l313 -674l330 674h178l-397 -770h242v-117h-277v-96h277v-117h-277v-301h-172z" />
    <glyph glyph-name="brokenbar" unicode="&#xa6;" horiz-adv-x="499" 
d="M176 731v791h148v-791h-148zM176 -518v792h148v-792h-148z" />
    <glyph glyph-name="section" unicode="&#xa7;" horiz-adv-x="1136" 
d="M569 -29q-76 0 -166 12t-151 29l22 131q156 -37 289 -37q120 0 175 34.5t55 107.5q0 63 -38 96t-132 55l-148 33q-153 33 -223 97t-70 184q0 130 101 217q-103 74 -103 213q0 77 30 133t84 88.5t122 47.5t151 15q165 0 297 -38l-22 -129q-135 32 -269 32
q-119 0 -174 -33.5t-55 -107.5q0 -62 38 -96t132 -56l148 -32q157 -34 225.5 -95t68.5 -190q0 -131 -100 -217q100 -74 100 -209q0 -62 -20 -110.5t-55 -81t-84.5 -54t-106 -30.5t-121.5 -9zM745 522q56 59 56 142q-2 68 -43.5 101.5t-157.5 59.5l-129 29q-46 9 -76 20
q-57 -57 -57 -143q0 -65 41.5 -98.5t157.5 -59.5l129 -28q34 -7 79 -23z" />
    <glyph glyph-name="dieresis" unicode="&#xa8;" horiz-adv-x="839" 
d="M217 1241q-50 0 -74 23.5t-24 74.5v23q0 51 24 74.5t74 23.5h19q50 0 74 -23.5t24 -74.5v-23q0 -51 -24 -74.5t-74 -23.5h-19zM604 1241q-50 0 -74 23.5t-24 74.5v23q0 51 24 74.5t74 23.5h19q50 0 74 -23.5t24 -74.5v-23q0 -51 -24 -74.5t-74 -23.5h-19z" />
    <glyph glyph-name="copyright" unicode="&#xa9;" horiz-adv-x="1572" 
d="M786 -29q-165 0 -299.5 57.5t-222 157.5t-135 232t-47.5 282t47.5 282t135 231t222 156.5t299.5 57.5t300 -57.5t222.5 -156.5t135 -231t47.5 -282q0 -120 -29.5 -229t-89 -200t-143 -158t-197.5 -104.5t-246 -37.5zM786 100q260 0 411 160.5t151 439.5t-151 438.5
t-411 159.5t-410.5 -159.5t-150.5 -438.5t150.5 -439.5t410.5 -160.5zM817 342q-311 0 -311 363q0 173 82.5 267.5t226.5 94.5q91 0 172 -31l-12 -92q-77 23 -146 23q-104 0 -150 -66.5t-46 -195.5q0 -136 49 -199.5t152 -63.5q48 0 145 19l4 -94q-80 -25 -166 -25z" />
    <glyph glyph-name="ordfeminine" unicode="&#xaa;" horiz-adv-x="833" 
d="M358 711q-108 0 -171.5 56.5t-63.5 158.5q0 209 287 209h135v55q0 70 -35 98.5t-121 28.5q-91 0 -194 -21l-7 107q114 24 218 24q145 0 208.5 -58.5t63.5 -184.5v-459h-105l-12 45q-93 -59 -203 -59zM389 825q81 0 156 33v174h-127q-84 0 -122 -25t-38 -79
q0 -103 131 -103z" />
    <glyph glyph-name="guillemotleft" unicode="&#xab;" horiz-adv-x="1077" 
d="M479 113l-270 307q-36 40 -49 65t-13 52t13 51.5t49 64.5l270 308l80 -66l-244 -358l244 -359zM866 113l-270 307q-35 40 -48 64.5t-13 52.5t13 52t48 64l270 308l80 -66l-244 -358l244 -359z" />
    <glyph glyph-name="logicalnot" unicode="&#xac;" horiz-adv-x="1105" 
d="M764 426v369h-551v129h680v-498h-129z" />
    <glyph glyph-name="uni00AD" unicode="&#xad;" horiz-adv-x="659" 
d="M123 459v145h414v-145h-414z" />
    <glyph glyph-name="registered" unicode="&#xae;" horiz-adv-x="1572" 
d="M786 -29q-165 0 -299.5 57.5t-222 157.5t-135 232t-47.5 282t47.5 282t135 231t222 156.5t299.5 57.5t300 -57.5t222.5 -156.5t135 -231t47.5 -282q0 -120 -29.5 -229t-89 -200t-143 -158t-197.5 -104.5t-246 -37.5zM786 100q260 0 411 160.5t151 439.5t-151 438.5
t-411 159.5t-410.5 -159.5t-150.5 -438.5t150.5 -439.5t410.5 -160.5zM555 358v701h215q151 0 211 -60q53 -53 53 -151q0 -151 -123 -201l146 -289h-127l-129 269h-127v-269h-119zM674 721h96q81 0 109 22q34 27 34 105q0 62 -28 90q-31 27 -115 27h-96v-244z" />
    <glyph glyph-name="macron" unicode="&#xaf;" horiz-adv-x="839" 
d="M152 1272v137h536v-137h-536z" />
    <glyph glyph-name="degree" unicode="&#xb0;" horiz-adv-x="966" 
d="M483 707q-165 0 -256.5 96t-91.5 264t91.5 264t256.5 96t256.5 -96t91.5 -264t-91.5 -264t-256.5 -96zM483 838q197 0 197 229t-197 229q-196 0 -196 -229t196 -229z" />
    <glyph glyph-name="plusminus" unicode="&#xb1;" horiz-adv-x="1105" 
d="M487 334v276h-274v129h274v275h129v-275h277v-129h-277v-276h-129zM213 0v129h680v-129h-680z" />
    <glyph glyph-name="uni00B2" unicode="&#xb2;" horiz-adv-x="966" 
d="M219 733q-6 18 -6 45q0 37 13 64t46 65l164 191q78 90 105.5 136.5t27.5 96.5q0 53 -32 78q-37 29 -123 29q-64 0 -185 -17v109q114 24 207 24q157 0 228 -71q57 -57 57 -146q0 -88 -67 -181t-277 -306h350v-117h-508z" />
    <glyph glyph-name="uni00B3" unicode="&#xb3;" horiz-adv-x="966" 
d="M408 719q-105 0 -187 20v115q85 -18 160 -18q109 0 156 41q36 29 36 92t-36 92q-42 37 -160 37h-21v104h21q110 0 149 39q33 29 33 90q0 54 -35 78q-39 29 -135 29q-54 0 -160 -13v111q81 18 193 18q129 0 203.5 -57.5t74.5 -161.5q0 -134 -112 -180q137 -47 137 -199
q0 -114 -86.5 -175.5t-230.5 -61.5z" />
    <glyph glyph-name="acute" unicode="&#xb4;" horiz-adv-x="839" 
d="M256 1165l-66 90l361 320l96 -129z" />
    <glyph glyph-name="uni00B5" unicode="&#xb5;" horiz-adv-x="1114" 
d="M143 -461v1465h170v-662q0 -121 49 -170q51 -51 162 -51q140 0 277 65v818h170v-1004h-142l-8 74q-170 -103 -342 -103q-90 0 -166 29v-461h-170z" />
    <glyph glyph-name="paragraph" unicode="&#xb6;" horiz-adv-x="1232" 
d="M508 -416v1084q-180 0 -284.5 96t-104.5 270q0 157 86 252q106 115 327 115h576v-135h-143v-1682h-148v1682h-162v-1682h-147z" />
    <glyph glyph-name="periodcentered" unicode="&#xb7;" horiz-adv-x="464" 
d="M225 612q-102 0 -102 111v8q0 111 102 111h15q102 0 102 -111v-8q0 -111 -102 -111h-15z" />
    <glyph glyph-name="cedilla" unicode="&#xb8;" horiz-adv-x="839" 
d="M391 -469q-74 0 -158 25v106q72 -16 138 -16q104 0 104 57q0 23 -24 39.5t-58.5 28t-69.5 26t-59 42t-24 65.5q0 57 53 110h94q-18 -36 -18 -67q0 -18 17.5 -32.5t44 -23.5t57 -23t57 -31t44 -49t17.5 -75q0 -87 -56.5 -134.5t-158.5 -47.5z" />
    <glyph glyph-name="uni00B9" unicode="&#xb9;" horiz-adv-x="966" 
d="M272 733v115h164v577h-155v109q142 10 211 10q50 0 69 -16t19 -55v-625h137v-115h-445z" />
    <glyph glyph-name="ordmasculine" unicode="&#xba;" horiz-adv-x="860" 
d="M430 711q-155 0 -238 94.5t-83 263.5t83 263.5t238 94.5t238.5 -94.5t83.5 -263.5t-83.5 -263.5t-238.5 -94.5zM430 829q178 0 178 240t-178 240t-178 -240t178 -240z" />
    <glyph glyph-name="guillemotright" unicode="&#xbb;" horiz-adv-x="1077" 
d="M211 113l-80 65l244 359l-244 358l80 66l270 -308q36 -40 49 -64.5t13 -51.5t-13 -52t-49 -65zM598 113l-80 65l244 359l-244 358l80 66l270 -308q36 -40 49 -64.5t13 -51.5t-13 -52t-49 -65z" />
    <glyph glyph-name="onequarter" unicode="&#xbc;" horiz-adv-x="1945" 
d="M528 -29l719 1456h156l-717 -1456h-158zM221 608v115h164v577h-156v109q142 10 211 10q50 0 69 -16t19 -55v-625h138v-115h-445zM1534 0v195h-371q-4 16 -4 38q0 35 21 97l170 489h137l-172 -506h219v176h139v-176h96v-118h-96v-195h-139z" />
    <glyph glyph-name="onehalf" unicode="&#xbd;" horiz-adv-x="1945" 
d="M520 -29l719 1456h156l-717 -1456h-158zM213 608v115h164v577h-156v109q143 10 211 10q50 0 69 -16t19 -55v-625h137v-115h-444zM1221 0q-7 21 -7 45q0 37 13 63.5t47 65.5l164 191q78 90 105.5 136.5t27.5 96.5q0 52 -33 78q-37 29 -123 29q-63 0 -184 -17v109
q114 24 207 24q156 0 227 -71q57 -57 57 -146q0 -88 -67 -181t-277 -306h351v-117h-508z" />
    <glyph glyph-name="threequarters" unicode="&#xbe;" horiz-adv-x="1945" 
d="M387 594q-104 0 -186 20v115q85 -18 159 -18q109 0 156 41q37 30 37 92t-37 92q-42 37 -160 37h-20v104h20q111 0 150 39q33 29 33 90q0 54 -35 78q-39 29 -135 29q-54 0 -160 -13v111q85 19 192 19q129 0 204 -57.5t75 -162.5q0 -134 -113 -180q138 -48 138 -199
q0 -114 -87 -175.5t-231 -61.5zM532 -29l719 1456h156l-717 -1456h-158zM1534 0v195h-371q-4 16 -4 38q0 35 21 97l170 489h137l-172 -506h219v176h139v-176h96v-118h-96v-195h-139z" />
    <glyph glyph-name="questiondown" unicode="&#xbf;" horiz-adv-x="847" 
d="M489 1032q103 0 103 -100v-17q0 -100 -103 -100h-10q-51 0 -76.5 23.5t-25.5 76.5v17q0 53 25.5 76.5t76.5 23.5h10zM555 629q6 -34 6 -64q0 -82 -28 -147.5t-107 -157.5l-25 -29q-80 -94 -115.5 -162t-35.5 -149q0 -97 57 -145q60 -51 195 -51q126 0 246 30l26 -133
q-145 -45 -297 -45q-213 0 -319 98q-88 85 -88 224q0 105 42 189.5t136 191.5q51 58 71.5 83.5t47.5 63t36.5 63.5t17 60.5t9.5 79.5h125z" />
    <glyph glyph-name="Agrave" unicode="&#xc0;" horiz-adv-x="1210" 
d="M748 1554l-392 281l97 129l360 -319zM37 0l444 1401h209l484 -1401h-191l-123 373h-530l-115 -373h-178zM375 516h438l-225 692h-2z" />
    <glyph glyph-name="Aacute" unicode="&#xc1;" horiz-adv-x="1210" 
d="M422 1554l-66 91l361 319l96 -129zM37 0l444 1401h209l484 -1401h-191l-123 373h-530l-115 -373h-178zM375 516h438l-225 692h-2z" />
    <glyph glyph-name="Acircumflex" unicode="&#xc2;" horiz-adv-x="1210" 
d="M332 1559l-62 61l244 301h145l242 -301l-61 -61l-254 219zM37 0l444 1401h209l484 -1401h-191l-123 373h-530l-115 -373h-178zM375 516h438l-225 692h-2z" />
    <glyph glyph-name="Atilde" unicode="&#xc3;" horiz-adv-x="1210" 
d="M365 1651l-97 16q8 101 52.5 157t119.5 56q57 0 153.5 -40t129.5 -40q32 0 52 18.5t30 63.5l96 -16q-8 -101 -52.5 -157t-119.5 -56q-57 0 -153.5 40t-129.5 40q-32 0 -51.5 -18.5t-29.5 -63.5zM37 0l444 1401h209l484 -1401h-191l-123 373h-530l-115 -373h-178zM375 516
h438l-225 692h-2z" />
    <glyph glyph-name="Adieresis" unicode="&#xc4;" horiz-adv-x="1210" 
d="M383 1630q-98 0 -98 99v22q0 51 24 74.5t74 23.5h18q99 0 99 -98v-22q0 -99 -99 -99h-18zM770 1630q-98 0 -98 99v22q0 51 24 74.5t74 23.5h18q99 0 99 -98v-22q0 -99 -99 -99h-18zM37 0l444 1401h209l484 -1401h-191l-123 373h-530l-115 -373h-178zM375 516h438
l-225 692h-2z" />
    <glyph glyph-name="Aring" unicode="&#xc5;" horiz-adv-x="1210" 
d="M582 1567q-106 0 -168 54.5t-62 162.5v18q0 108 62 162.5t168 54.5h8q106 0 167.5 -54t61.5 -163v-18q0 -109 -61.5 -163t-167.5 -54h-8zM584 1671h4q59 0 88 27.5t29 89.5v10q0 62 -29 89.5t-88 27.5h-4q-59 0 -88 -27.5t-29 -89.5v-10q0 -62 29 -89.5t88 -27.5zM37 0
l444 1401h209l484 -1401h-191l-123 373h-530l-115 -373h-178zM375 516h438l-225 692h-2z" />
    <glyph glyph-name="AE" unicode="&#xc6;" horiz-adv-x="1845" 
d="M20 0l820 1401h891l-17 -144h-604v-475h489v-147h-489v-492h633v-143h-815v373h-502l-215 -373h-191zM508 516h420v725z" />
    <glyph glyph-name="Ccedilla" unicode="&#xc7;" horiz-adv-x="1136" 
d="M690 -469q-74 0 -158 25v106q72 -16 138 -16q104 0 104 57q0 23 -24 39.5t-59 28t-69.5 26t-58.5 42t-24 65.5q0 47 24 86q-448 91 -448 702q0 395 182 580q73 76 182.5 115.5t241.5 39.5q181 0 326 -53l-25 -139q-144 39 -281 39q-212 0 -313 -113q-123 -134 -123 -465
q0 -326 129 -458q112 -115 352 -115q103 0 248 29l17 -140q-134 -41 -310 -41q-53 0 -71 2q-2 -10 -2 -26q0 -18 17.5 -32.5t44 -23.5t57 -23t57 -31t44 -49t17.5 -75q0 -87 -56.5 -134.5t-158.5 -47.5z" />
    <glyph glyph-name="Egrave" unicode="&#xc8;" horiz-adv-x="1087" 
d="M754 1554l-392 281l97 129l360 -319zM170 0v1401h803l-17 -144h-604v-475h490v-147h-490v-492h633v-143h-815z" />
    <glyph glyph-name="Eacute" unicode="&#xc9;" horiz-adv-x="1087" 
d="M428 1554l-66 91l361 319l96 -129zM170 0v1401h803l-17 -144h-604v-475h490v-147h-490v-492h633v-143h-815z" />
    <glyph glyph-name="Ecircumflex" unicode="&#xca;" horiz-adv-x="1087" 
d="M338 1559l-62 61l244 301h146l241 -301l-61 -61l-254 219zM170 0v1401h803l-17 -144h-604v-475h490v-147h-490v-492h633v-143h-815z" />
    <glyph glyph-name="Edieresis" unicode="&#xcb;" horiz-adv-x="1087" 
d="M389 1630q-98 0 -98 99v22q0 51 24 74.5t74 23.5h19q50 0 74 -23.5t24 -74.5v-22q0 -99 -98 -99h-19zM776 1630q-98 0 -98 99v22q0 51 24 74.5t74 23.5h19q50 0 74 -23.5t24 -74.5v-22q0 -99 -98 -99h-19zM170 0v1401h803l-17 -144h-604v-475h490v-147h-490v-492h633
v-143h-815z" />
    <glyph glyph-name="Igrave" unicode="&#xcc;" horiz-adv-x="534" 
d="M430 1554l-391 281l96 129l361 -319zM176 0v1401h182v-1401h-182z" />
    <glyph glyph-name="Iacute" unicode="&#xcd;" horiz-adv-x="534" 
d="M104 1554l-65 91l360 319l97 -129zM176 0v1401h182v-1401h-182z" />
    <glyph glyph-name="Icircumflex" unicode="&#xce;" horiz-adv-x="534" 
d="M14 1559l-61 61l244 301h145l242 -301l-62 -61l-254 219zM176 0v1401h182v-1401h-182z" />
    <glyph glyph-name="Idieresis" unicode="&#xcf;" horiz-adv-x="534" 
d="M66 1630q-99 0 -99 99v22q0 98 99 98h18q50 0 74 -23.5t24 -74.5v-22q0 -99 -98 -99h-18zM453 1630q-99 0 -99 99v22q0 98 99 98h18q50 0 74 -23.5t24 -74.5v-22q0 -99 -98 -99h-18zM176 0v1401h182v-1401h-182z" />
    <glyph glyph-name="Eth" unicode="&#xd0;" horiz-adv-x="1351" 
d="M199 0v635h-174v147h174v619h354q195 0 323 -41t211 -131q150 -167 150 -520q0 -386 -168 -557q-149 -152 -477 -152h-393zM381 145h205q117 0 194.5 25t132.5 78q136 130 136 459q0 289 -103 415q-58 70 -152 101.5t-251 31.5h-162v-473h244v-147h-244v-490z" />
    <glyph glyph-name="Ntilde" unicode="&#xd1;" horiz-adv-x="1396" 
d="M512 1651l-96 16q8 101 52.5 157t119.5 56q57 0 153 -40t129 -40q32 0 52 18.5t30 63.5l97 -16q-8 -101 -52.5 -157t-119.5 -56q-57 0 -153.5 40t-129.5 40q-32 0 -52 -18.5t-30 -63.5zM170 0v1401h127l768 -1090v1090h162v-1401h-140l-755 1067v-1067h-162z" />
    <glyph glyph-name="Ograve" unicode="&#xd2;" horiz-adv-x="1347" 
d="M836 1554l-392 281l97 129l360 -319zM674 -29q-123 0 -219 36.5t-159.5 100.5t-104.5 157t-58.5 199.5t-17.5 233.5t17.5 233.5t58.5 200t104.5 157.5t159.5 101t219 37t219 -37t159.5 -101t104.5 -157.5t58.5 -200t17.5 -233.5t-17.5 -233.5t-58.5 -199.5t-104.5 -157
t-159.5 -100.5t-219 -36.5zM674 129q106 0 179 39.5t113.5 117t58 177t17.5 235.5t-17.5 235.5t-58 178t-113.5 118.5t-179 40q-85 0 -149 -27t-105.5 -75t-67.5 -121t-36.5 -157t-10.5 -192q0 -136 17.5 -235.5t58.5 -177t114 -117t179 -39.5z" />
    <glyph glyph-name="Oacute" unicode="&#xd3;" horiz-adv-x="1347" 
d="M510 1554l-66 91l361 319l96 -129zM674 -29q-123 0 -219 36.5t-159.5 100.5t-104.5 157t-58.5 199.5t-17.5 233.5t17.5 233.5t58.5 200t104.5 157.5t159.5 101t219 37t219 -37t159.5 -101t104.5 -157.5t58.5 -200t17.5 -233.5t-17.5 -233.5t-58.5 -199.5t-104.5 -157
t-159.5 -100.5t-219 -36.5zM674 129q106 0 179 39.5t113.5 117t58 177t17.5 235.5t-17.5 235.5t-58 178t-113.5 118.5t-179 40q-85 0 -149 -27t-105.5 -75t-67.5 -121t-36.5 -157t-10.5 -192q0 -136 17.5 -235.5t58.5 -177t114 -117t179 -39.5z" />
    <glyph glyph-name="Ocircumflex" unicode="&#xd4;" horiz-adv-x="1347" 
d="M420 1559l-62 61l244 301h146l241 -301l-61 -61l-254 219zM674 -29q-123 0 -219 36.5t-159.5 100.5t-104.5 157t-58.5 199.5t-17.5 233.5t17.5 233.5t58.5 200t104.5 157.5t159.5 101t219 37t219 -37t159.5 -101t104.5 -157.5t58.5 -200t17.5 -233.5t-17.5 -233.5
t-58.5 -199.5t-104.5 -157t-159.5 -100.5t-219 -36.5zM674 129q106 0 179 39.5t113.5 117t58 177t17.5 235.5t-17.5 235.5t-58 178t-113.5 118.5t-179 40q-85 0 -149 -27t-105.5 -75t-67.5 -121t-36.5 -157t-10.5 -192q0 -136 17.5 -235.5t58.5 -177t114 -117t179 -39.5z
" />
    <glyph glyph-name="Otilde" unicode="&#xd5;" horiz-adv-x="1347" 
d="M453 1651l-97 16q8 101 52.5 157t119.5 56q57 0 153.5 -40t129.5 -40q32 0 52 18.5t30 63.5l96 -16q-8 -101 -52.5 -157t-119.5 -56q-57 0 -153 40t-129 40q-32 0 -52 -18.5t-30 -63.5zM674 -29q-123 0 -219 36.5t-159.5 100.5t-104.5 157t-58.5 199.5t-17.5 233.5
t17.5 233.5t58.5 200t104.5 157.5t159.5 101t219 37t219 -37t159.5 -101t104.5 -157.5t58.5 -200t17.5 -233.5t-17.5 -233.5t-58.5 -199.5t-104.5 -157t-159.5 -100.5t-219 -36.5zM674 129q106 0 179 39.5t113.5 117t58 177t17.5 235.5t-17.5 235.5t-58 178t-113.5 118.5
t-179 40q-85 0 -149 -27t-105.5 -75t-67.5 -121t-36.5 -157t-10.5 -192q0 -136 17.5 -235.5t58.5 -177t114 -117t179 -39.5z" />
    <glyph glyph-name="Odieresis" unicode="&#xd6;" horiz-adv-x="1347" 
d="M471 1630q-98 0 -98 99v22q0 51 24 74.5t74 23.5h18q99 0 99 -98v-22q0 -99 -99 -99h-18zM858 1630q-98 0 -98 99v22q0 51 24 74.5t74 23.5h19q50 0 74 -23.5t24 -74.5v-22q0 -99 -98 -99h-19zM674 -29q-123 0 -219 36.5t-159.5 100.5t-104.5 157t-58.5 199.5
t-17.5 233.5t17.5 233.5t58.5 200t104.5 157.5t159.5 101t219 37t219 -37t159.5 -101t104.5 -157.5t58.5 -200t17.5 -233.5t-17.5 -233.5t-58.5 -199.5t-104.5 -157t-159.5 -100.5t-219 -36.5zM674 129q106 0 179 39.5t113.5 117t58 177t17.5 235.5t-17.5 235.5t-58 178
t-113.5 118.5t-179 40q-85 0 -149 -27t-105.5 -75t-67.5 -121t-36.5 -157t-10.5 -192q0 -136 17.5 -235.5t58.5 -177t114 -117t179 -39.5z" />
    <glyph glyph-name="multiply" unicode="&#xd7;" horiz-adv-x="1105" 
d="M748 387l-197 195l-193 -193l-92 90l195 195l-195 194l92 90l193 -192l197 195l90 -93l-195 -194l195 -195z" />
    <glyph glyph-name="Oslash" unicode="&#xd8;" horiz-adv-x="1347" 
d="M287 -152l78 205q-250 163 -250 645q0 127 17.5 233.5t58.5 200t104.5 157.5t159.5 101t219 37q112 0 198 -30l60 153h141l-82 -211q242 -169 242 -641q0 -127 -17.5 -233.5t-58.5 -199.5t-104.5 -157t-159.5 -100.5t-219 -36.5q-108 0 -191 27l-55 -150h-141zM428 219
l387 1026q-64 25 -141 25q-85 0 -149 -27t-105.5 -75t-67.5 -121t-36.5 -157t-10.5 -192q0 -351 123 -479zM674 129q106 0 179 39.5t113.5 117t58 177t17.5 235.5q0 339 -114 469l-387 -1017q58 -21 133 -21z" />
    <glyph glyph-name="Ugrave" unicode="&#xd9;" horiz-adv-x="1329" 
d="M834 1554l-392 281l97 129l360 -319zM672 -29q-246 0 -375 117q-143 128 -143 416v897h182v-887q0 -116 20.5 -186.5t67.5 -116.5q87 -84 252 -84q158 0 242 84q92 92 92 303v887h166v-897q0 -278 -138 -410q-129 -123 -366 -123z" />
    <glyph glyph-name="Uacute" unicode="&#xda;" horiz-adv-x="1329" 
d="M530 1554l-65 91l360 319l97 -129zM672 -29q-246 0 -375 117q-143 128 -143 416v897h182v-887q0 -116 20.5 -186.5t67.5 -116.5q87 -84 252 -84q158 0 242 84q92 92 92 303v887h166v-897q0 -278 -138 -410q-129 -123 -366 -123z" />
    <glyph glyph-name="Ucircumflex" unicode="&#xdb;" horiz-adv-x="1329" 
d="M418 1559l-62 61l244 301h145l242 -301l-61 -61l-254 219zM672 -29q-246 0 -375 117q-143 128 -143 416v897h182v-887q0 -116 20.5 -186.5t67.5 -116.5q87 -84 252 -84q158 0 242 84q92 92 92 303v887h166v-897q0 -278 -138 -410q-129 -123 -366 -123z" />
    <glyph glyph-name="Udieresis" unicode="&#xdc;" horiz-adv-x="1329" 
d="M469 1630q-98 0 -98 99v22q0 51 24 74.5t74 23.5h18q99 0 99 -98v-22q0 -99 -99 -99h-18zM856 1630q-98 0 -98 99v22q0 51 24 74.5t74 23.5h18q99 0 99 -98v-22q0 -99 -99 -99h-18zM672 -29q-246 0 -375 117q-143 128 -143 416v897h182v-887q0 -116 20.5 -186.5
t67.5 -116.5q87 -84 252 -84q158 0 242 84q92 92 92 303v887h166v-897q0 -278 -138 -410q-129 -123 -366 -123z" />
    <glyph glyph-name="Yacute" unicode="&#xdd;" horiz-adv-x="1177" 
d="M459 1554l-66 91l361 319l96 -129zM487 0v573l-454 828h200l357 -674l371 674h184l-475 -832v-569h-183z" />
    <glyph glyph-name="Thorn" unicode="&#xde;" horiz-adv-x="1187" 
d="M170 0v1401h182v-256h219q296 0 412 -119q102 -102 102 -305q0 -226 -114 -340q-118 -115 -359 -115h-260v-266h-182zM352 414h199q196 0 270 69q76 73 76 234q0 143 -66 209q-75 75 -274 75h-205v-587z" />
    <glyph glyph-name="germandbls" unicode="&#xdf;" horiz-adv-x="1323" 
d="M840 -29q-162 0 -297 41l10 131q143 -34 281 -34q239 0 239 151q0 40 -21 72t-54.5 52t-77 39.5t-89 35t-89 38.5t-77 50t-54.5 70t-21 98q0 45 16 85t42 69.5t57 57.5t62.5 56t57.5 57t42 67t16 81q0 80 -56.5 127t-160.5 47q-137 0 -211 -86q-38 -44 -56 -107.5
t-18 -164.5v-1004h-170v879h-182v96l182 26v23q0 232 116.5 353.5t331.5 121.5q183 0 287.5 -83.5t104.5 -223.5q0 -54 -16 -100.5t-42 -80t-57.5 -62.5t-62.5 -53.5t-57 -48t-42 -50.5t-16 -56q0 -37 26.5 -64.5t68.5 -47t93.5 -38.5t102.5 -44.5t93 -59t68.5 -88.5
t26.5 -127q0 -143 -99.5 -222t-297.5 -79z" />
    <glyph glyph-name="agrave" unicode="&#xe0;" horiz-adv-x="1034" 
d="M692 1165l-391 281l96 129l361 -320zM432 -29q-168 0 -262 97q-80 83 -80 217q0 137 86 217q104 96 340 96h209v64q0 118 -51 169q-63 60 -209 60q-117 0 -270 -25l-7 131q143 35 306 35q215 0 313 -92q47 -46 67.5 -109.5t20.5 -162.5v-668h-137l-10 68
q-150 -97 -316 -97zM469 109q126 0 256 65v299h-184q-159 0 -224 -51q-55 -46 -55 -133q0 -89 53.5 -134.5t153.5 -45.5z" />
    <glyph glyph-name="aacute" unicode="&#xe1;" horiz-adv-x="1034" 
d="M367 1165l-66 90l361 320l96 -129zM432 -29q-168 0 -262 97q-80 83 -80 217q0 137 86 217q104 96 340 96h209v64q0 118 -51 169q-63 60 -209 60q-117 0 -270 -25l-7 131q143 35 306 35q215 0 313 -92q47 -46 67.5 -109.5t20.5 -162.5v-668h-137l-10 68q-150 -97 -316 -97
zM469 109q126 0 256 65v299h-184q-159 0 -224 -51q-55 -46 -55 -133q0 -89 53.5 -134.5t153.5 -45.5z" />
    <glyph glyph-name="acircumflex" unicode="&#xe2;" horiz-adv-x="1034" 
d="M276 1167l-61 62l244 301h145l242 -301l-62 -62l-254 219zM432 -29q-168 0 -262 97q-80 83 -80 217q0 137 86 217q104 96 340 96h209v64q0 118 -51 169q-63 60 -209 60q-117 0 -270 -25l-7 131q143 35 306 35q215 0 313 -92q47 -46 67.5 -109.5t20.5 -162.5v-668h-137
l-10 68q-150 -97 -316 -97zM469 109q126 0 256 65v299h-184q-159 0 -224 -51q-55 -46 -55 -133q0 -89 53.5 -134.5t153.5 -45.5z" />
    <glyph glyph-name="atilde" unicode="&#xe3;" horiz-adv-x="1034" 
d="M309 1251l-96 17q8 101 52.5 157t119.5 56q57 0 153.5 -40t129.5 -40q32 0 52 18.5t30 63.5l96 -17q-8 -101 -52.5 -157t-119.5 -56q-57 0 -153.5 40t-129.5 40q-32 0 -52 -18.5t-30 -63.5zM432 -29q-168 0 -262 97q-80 83 -80 217q0 137 86 217q104 96 340 96h209v64
q0 118 -51 169q-63 60 -209 60q-117 0 -270 -25l-7 131q143 35 306 35q215 0 313 -92q47 -46 67.5 -109.5t20.5 -162.5v-668h-137l-10 68q-150 -97 -316 -97zM469 109q126 0 256 65v299h-184q-159 0 -224 -51q-55 -46 -55 -133q0 -89 53.5 -134.5t153.5 -45.5z" />
    <glyph glyph-name="adieresis" unicode="&#xe4;" horiz-adv-x="1034" 
d="M328 1241q-99 0 -99 98v23q0 98 99 98h18q50 0 74 -23.5t24 -74.5v-23q0 -51 -24 -74.5t-74 -23.5h-18zM715 1241q-99 0 -99 98v23q0 98 99 98h18q50 0 74 -23.5t24 -74.5v-23q0 -51 -24 -74.5t-74 -23.5h-18zM432 -29q-168 0 -262 97q-80 83 -80 217q0 137 86 217
q104 96 340 96h209v64q0 118 -51 169q-63 60 -209 60q-117 0 -270 -25l-7 131q143 35 306 35q215 0 313 -92q47 -46 67.5 -109.5t20.5 -162.5v-668h-137l-10 68q-150 -97 -316 -97zM469 109q126 0 256 65v299h-184q-159 0 -224 -51q-55 -46 -55 -133q0 -89 53.5 -134.5
t153.5 -45.5z" />
    <glyph glyph-name="aring" unicode="&#xe5;" horiz-adv-x="1034" 
d="M526 1178q-106 0 -167.5 54t-61.5 163v18q0 109 61.5 163t167.5 54h9q106 0 167.5 -54t61.5 -163v-18q0 -109 -61.5 -163t-167.5 -54h-9zM528 1282h4q59 0 88 27.5t29 89.5v10q0 62 -29 89.5t-88 27.5h-4q-58 0 -87 -27.5t-29 -89.5v-10q0 -62 29 -89.5t87 -27.5z
M432 -29q-168 0 -262 97q-80 83 -80 217q0 137 86 217q104 96 340 96h209v64q0 118 -51 169q-63 60 -209 60q-117 0 -270 -25l-7 131q143 35 306 35q215 0 313 -92q47 -46 67.5 -109.5t20.5 -162.5v-668h-137l-10 68q-150 -97 -316 -97zM469 109q126 0 256 65v299h-184
q-159 0 -224 -51q-55 -46 -55 -133q0 -89 53.5 -134.5t153.5 -45.5z" />
    <glyph glyph-name="ae" unicode="&#xe6;" horiz-adv-x="1671" 
d="M442 -29q-175 0 -272 97q-80 80 -80 217t86 217q104 96 340 96h209v64q0 118 -51 169q-63 60 -209 60q-117 0 -270 -25l-7 131q143 35 306 35q215 0 313 -92q22 -22 37 -43q114 135 315 135q207 0 311.5 -137.5t104.5 -390.5v-39q0 -23 -25 -23h-647q0 -174 88 -256
q81 -75 256 -75q121 0 248 26l16 -127q-134 -39 -297 -39q-237 0 -358 121l-12 12q-187 -133 -402 -133zM903 567h504q-5 152 -66 240t-182 88q-125 0 -189.5 -86t-66.5 -242zM469 109q160 0 309 94q-50 112 -53 270h-184q-159 0 -224 -51q-55 -46 -55 -133
q0 -89 53.5 -134.5t153.5 -45.5z" />
    <glyph glyph-name="ccedilla" unicode="&#xe7;" horiz-adv-x="921" 
d="M559 -469q-74 0 -158 25v106q72 -16 138 -16q104 0 104 57q0 23 -24 39.5t-58.5 28t-69.5 26t-59 42t-24 65.5q0 44 28 82q-133 27 -213 110q-133 136 -133 393q0 266 131 406q128 137 369 137q118 0 239 -31l-10 -131q-131 25 -209 25q-175 0 -258.5 -100.5
t-83.5 -302.5q0 -191 84 -287q81 -94 266 -94q107 0 209 20l13 -127q-121 -33 -252 -33q-31 0 -47 2q-4 -12 -4 -26q0 -18 17.5 -32.5t44 -23.5t57 -23t57 -31t44 -49t17.5 -75q0 -87 -56.5 -134.5t-158.5 -47.5z" />
    <glyph glyph-name="egrave" unicode="&#xe8;" horiz-adv-x="1036" 
d="M702 1165l-391 281l97 129l360 -320zM580 -29q-238 0 -359 121q-131 131 -131 408q0 261 117.5 396.5t316.5 135.5q207 0 311.5 -137.5t104.5 -390.5v-39q0 -23 -25 -23h-647q0 -174 88 -256q81 -75 256 -75q121 0 248 26l17 -127q-134 -39 -297 -39zM268 567h504
q-5 152 -66 240t-182 88q-125 0 -189.5 -86t-66.5 -242z" />
    <glyph glyph-name="eacute" unicode="&#xe9;" horiz-adv-x="1036" 
d="M377 1165l-66 90l361 320l96 -129zM580 -29q-238 0 -359 121q-131 131 -131 408q0 261 117.5 396.5t316.5 135.5q207 0 311.5 -137.5t104.5 -390.5v-39q0 -23 -25 -23h-647q0 -174 88 -256q81 -75 256 -75q121 0 248 26l17 -127q-134 -39 -297 -39zM268 567h504
q-5 152 -66 240t-182 88q-125 0 -189.5 -86t-66.5 -242z" />
    <glyph glyph-name="ecircumflex" unicode="&#xea;" horiz-adv-x="1036" 
d="M287 1167l-62 62l244 301h145l242 -301l-61 -62l-254 219zM580 -29q-238 0 -359 121q-131 131 -131 408q0 261 117.5 396.5t316.5 135.5q207 0 311.5 -137.5t104.5 -390.5v-39q0 -23 -25 -23h-647q0 -174 88 -256q81 -75 256 -75q121 0 248 26l17 -127q-134 -39 -297 -39
zM268 567h504q-5 152 -66 240t-182 88q-125 0 -189.5 -86t-66.5 -242z" />
    <glyph glyph-name="edieresis" unicode="&#xeb;" horiz-adv-x="1036" 
d="M338 1241q-50 0 -74 23.5t-24 74.5v23q0 51 24 74.5t74 23.5h18q99 0 99 -98v-23q0 -98 -99 -98h-18zM725 1241q-50 0 -74 23.5t-24 74.5v23q0 51 24 74.5t74 23.5h18q99 0 99 -98v-23q0 -98 -99 -98h-18zM580 -29q-238 0 -359 121q-131 131 -131 408q0 261 117.5 396.5
t316.5 135.5q207 0 311.5 -137.5t104.5 -390.5v-39q0 -23 -25 -23h-647q0 -174 88 -256q81 -75 256 -75q121 0 248 26l17 -127q-134 -39 -297 -39zM268 567h504q-5 152 -66 240t-182 88q-125 0 -189.5 -86t-66.5 -242z" />
    <glyph glyph-name="igrave" unicode="&#xec;" horiz-adv-x="464" 
d="M395 1165l-391 281l96 129l361 -320zM147 0v1004h170v-1004h-170z" />
    <glyph glyph-name="iacute" unicode="&#xed;" horiz-adv-x="464" 
d="M70 1165l-66 90l361 320l96 -129zM147 0v1004h170v-1004h-170z" />
    <glyph glyph-name="icircumflex" unicode="&#xee;" horiz-adv-x="464" 
d="M-20 1167l-62 62l244 301h145l242 -301l-62 -62l-254 219zM147 0v1004h170v-1004h-170z" />
    <glyph glyph-name="idieresis" unicode="&#xef;" horiz-adv-x="464" 
d="M31 1241q-99 0 -99 98v23q0 98 99 98h18q50 0 74 -23.5t24 -74.5v-23q0 -51 -24 -74.5t-74 -23.5h-18zM418 1241q-99 0 -99 98v23q0 98 99 98h18q99 0 99 -98v-23q0 -98 -99 -98h-18zM147 0v1004h170v-1004h-170z" />
    <glyph glyph-name="eth" unicode="&#xf0;" horiz-adv-x="1097" 
d="M541 -29q-215 0 -333 132.5t-118 355.5q0 229 110.5 361t309.5 132q142 0 270 -55q-58 194 -205 373l-157 -125l-66 82l152 121q-72 75 -172 159l80 82q106 -75 192 -155l166 133l66 -82l-154 -125q317 -341 317 -791q0 -135 -26 -242.5t-79.5 -188t-143 -124
t-209.5 -43.5zM543 109q78 0 133.5 32.5t87.5 95t46.5 143.5t14.5 187q0 107 -18 195q-53 23 -124.5 38t-131.5 15q-287 0 -287 -348q0 -163 69 -260.5t210 -97.5z" />
    <glyph glyph-name="ntilde" unicode="&#xf1;" horiz-adv-x="1114" 
d="M387 1251l-96 17q8 101 52.5 157t119.5 56q57 0 153 -40t129 -40q32 0 52 18.5t30 63.5l97 -17q-8 -101 -52.5 -157t-119.5 -56q-57 0 -153.5 40t-129.5 40q-32 0 -52 -18.5t-30 -63.5zM143 0v1004h142l8 -74q168 102 346 102q167 0 252 -88q84 -84 84 -262v-682h-170
v662q0 120 -49 169q-52 52 -162 52q-142 0 -281 -66v-817h-170z" />
    <glyph glyph-name="ograve" unicode="&#xf2;" horiz-adv-x="1093" 
d="M709 1165l-392 281l97 129l360 -320zM547 -29q-229 0 -343 137.5t-114 393.5t114 393t343 137t343 -137t114 -393t-114 -393.5t-343 -137.5zM547 111q149 0 213.5 96.5t64.5 294.5t-64.5 294.5t-213.5 96.5q-150 0 -214.5 -96.5t-64.5 -294.5t64.5 -294.5t214.5 -96.5z
" />
    <glyph glyph-name="oacute" unicode="&#xf3;" horiz-adv-x="1093" 
d="M383 1165l-66 90l361 320l96 -129zM547 -29q-229 0 -343 137.5t-114 393.5t114 393t343 137t343 -137t114 -393t-114 -393.5t-343 -137.5zM547 111q149 0 213.5 96.5t64.5 294.5t-64.5 294.5t-213.5 96.5q-150 0 -214.5 -96.5t-64.5 -294.5t64.5 -294.5t214.5 -96.5z" />
    <glyph glyph-name="ocircumflex" unicode="&#xf4;" horiz-adv-x="1093" 
d="M293 1167l-62 62l244 301h146l241 -301l-61 -62l-254 219zM547 -29q-229 0 -343 137.5t-114 393.5t114 393t343 137t343 -137t114 -393t-114 -393.5t-343 -137.5zM547 111q149 0 213.5 96.5t64.5 294.5t-64.5 294.5t-213.5 96.5q-150 0 -214.5 -96.5t-64.5 -294.5
t64.5 -294.5t214.5 -96.5z" />
    <glyph glyph-name="otilde" unicode="&#xf5;" horiz-adv-x="1093" 
d="M326 1251l-97 17q8 101 52.5 157t119.5 56q57 0 153.5 -40t129.5 -40q32 0 52 18.5t30 63.5l96 -17q-8 -101 -52.5 -157t-119.5 -56q-57 0 -153 40t-129 40q-32 0 -52 -18.5t-30 -63.5zM547 -29q-229 0 -343 137.5t-114 393.5t114 393t343 137t343 -137t114 -393
t-114 -393.5t-343 -137.5zM547 111q149 0 213.5 96.5t64.5 294.5t-64.5 294.5t-213.5 96.5q-150 0 -214.5 -96.5t-64.5 -294.5t64.5 -294.5t214.5 -96.5z" />
    <glyph glyph-name="odieresis" unicode="&#xf6;" horiz-adv-x="1093" 
d="M344 1241q-50 0 -74 23.5t-24 74.5v23q0 51 24 74.5t74 23.5h18q99 0 99 -98v-23q0 -98 -99 -98h-18zM731 1241q-50 0 -74 23.5t-24 74.5v23q0 51 24 74.5t74 23.5h19q50 0 74 -23.5t24 -74.5v-23q0 -51 -24 -74.5t-74 -23.5h-19zM547 -29q-229 0 -343 137.5t-114 393.5
t114 393t343 137t343 -137t114 -393t-114 -393.5t-343 -137.5zM547 111q149 0 213.5 96.5t64.5 294.5t-64.5 294.5t-213.5 96.5q-150 0 -214.5 -96.5t-64.5 -294.5t64.5 -294.5t214.5 -96.5z" />
    <glyph glyph-name="divide" unicode="&#xf7;" horiz-adv-x="1105" 
d="M557 883q-102 0 -102 106v2q0 107 102 107h6q103 0 103 -107v-2q0 -106 -103 -106h-6zM213 610v129h680v-129h-680zM557 252q-102 0 -102 106v2q0 107 102 107h6q103 0 103 -107v-2q0 -106 -103 -106h-6z" />
    <glyph glyph-name="oslash" unicode="&#xf8;" horiz-adv-x="1093" 
d="M242 -158l65 183q-217 118 -217 477q0 256 114 393t343 137q67 0 125 -12l51 141h135l-67 -186q213 -119 213 -473q0 -256 -114 -393.5t-343 -137.5q-59 0 -119 13l-51 -142h-135zM362 172l261 713q-31 8 -76 8q-150 0 -214.5 -96.5t-64.5 -294.5q0 -243 94 -330z
M547 111q149 0 213.5 96.5t64.5 294.5q0 233 -90 323l-258 -708q30 -6 70 -6z" />
    <glyph glyph-name="ugrave" unicode="&#xf9;" horiz-adv-x="1110" 
d="M696 1165l-391 281l96 129l361 -320zM475 -29q-167 0 -252 88q-84 84 -84 263v682h170v-662q0 -121 49 -170q51 -51 162 -51q140 0 277 65v818h170v-1004h-142l-8 74q-170 -103 -342 -103z" />
    <glyph glyph-name="uacute" unicode="&#xfa;" horiz-adv-x="1110" 
d="M426 1165l-66 90l361 320l96 -129zM475 -29q-167 0 -252 88q-84 84 -84 263v682h170v-662q0 -121 49 -170q51 -51 162 -51q140 0 277 65v818h170v-1004h-142l-8 74q-170 -103 -342 -103z" />
    <glyph glyph-name="ucircumflex" unicode="&#xfb;" horiz-adv-x="1110" 
d="M301 1167l-61 62l243 301h146l241 -301l-61 -62l-254 219zM475 -29q-167 0 -252 88q-84 84 -84 263v682h170v-662q0 -121 49 -170q51 -51 162 -51q140 0 277 65v818h170v-1004h-142l-8 74q-170 -103 -342 -103z" />
    <glyph glyph-name="udieresis" unicode="&#xfc;" horiz-adv-x="1110" 
d="M352 1241q-50 0 -74 23.5t-24 74.5v23q0 51 24 74.5t74 23.5h19q50 0 74 -23.5t24 -74.5v-23q0 -51 -24 -74.5t-74 -23.5h-19zM739 1241q-50 0 -74 23.5t-24 74.5v23q0 51 24 74.5t74 23.5h19q50 0 74 -23.5t24 -74.5v-23q0 -51 -24 -74.5t-74 -23.5h-19zM475 -29
q-167 0 -252 88q-84 84 -84 263v682h170v-662q0 -121 49 -170q51 -51 162 -51q140 0 277 65v818h170v-1004h-142l-8 74q-170 -103 -342 -103z" />
    <glyph glyph-name="yacute" unicode="&#xfd;" horiz-adv-x="1110" 
d="M418 1165l-66 90l361 320l96 -129zM549 -489q-113 0 -203 20l-14 133q98 -12 192 -12q149 0 209 55q64 61 64 217v137q-158 -90 -322 -90q-167 0 -252 88q-84 84 -84 263v682h170v-662q0 -121 49 -170q51 -51 162 -51q140 0 277 65v818h170v-1082q0 -201 -93 -301
q-101 -110 -325 -110z" />
    <glyph glyph-name="thorn" unicode="&#xfe;" horiz-adv-x="1081" 
d="M143 -461v1925h170v-522q145 90 293 90q190 0 287.5 -140t97.5 -386q0 -274 -102 -404.5t-289 -130.5q-78 0 -154.5 20.5t-132.5 55.5v-508h-170zM557 113q137 0 196.5 90.5t59.5 304.5q0 193 -59.5 286t-184.5 93q-127 0 -256 -68v-645q45 -27 112.5 -44t131.5 -17z" />
    <glyph glyph-name="ydieresis" unicode="&#xff;" horiz-adv-x="1110" 
d="M352 1241q-50 0 -74 23.5t-24 74.5v23q0 51 24 74.5t74 23.5h19q50 0 74 -23.5t24 -74.5v-23q0 -51 -24 -74.5t-74 -23.5h-19zM739 1241q-50 0 -74 23.5t-24 74.5v23q0 51 24 74.5t74 23.5h19q50 0 74 -23.5t24 -74.5v-23q0 -51 -24 -74.5t-74 -23.5h-19zM549 -489
q-113 0 -203 20l-14 133q98 -12 192 -12q149 0 209 55q64 61 64 217v137q-158 -90 -322 -90q-167 0 -252 88q-84 84 -84 263v682h170v-662q0 -121 49 -170q51 -51 162 -51q140 0 277 65v818h170v-1082q0 -201 -93 -301q-101 -110 -325 -110z" />
    <glyph glyph-name="Amacron" unicode="&#x100;" horiz-adv-x="1210" 
d="M317 1661v137h537v-137h-537zM37 0l444 1401h209l484 -1401h-191l-123 373h-530l-115 -373h-178zM375 516h438l-225 692h-2z" />
    <glyph glyph-name="amacron" unicode="&#x101;" horiz-adv-x="1034" 
d="M262 1272v137h537v-137h-537zM432 -29q-168 0 -262 97q-80 83 -80 217q0 137 86 217q104 96 340 96h209v64q0 118 -51 169q-63 60 -209 60q-117 0 -270 -25l-7 131q143 35 306 35q215 0 313 -92q47 -46 67.5 -109.5t20.5 -162.5v-668h-137l-10 68q-150 -97 -316 -97z
M469 109q126 0 256 65v299h-184q-159 0 -224 -51q-55 -46 -55 -133q0 -89 53.5 -134.5t153.5 -45.5z" />
    <glyph glyph-name="Abreve" unicode="&#x102;" horiz-adv-x="1210" 
d="M586 1583q-142 0 -211 77t-72 202l115 2q10 -75 49 -114.5t119 -39.5t119 39.5t49 114.5l114 -2q-3 -125 -71.5 -202t-210.5 -77zM37 0l444 1401h209l484 -1401h-191l-123 373h-530l-115 -373h-178zM375 516h438l-225 692h-2z" />
    <glyph glyph-name="abreve" unicode="&#x103;" horiz-adv-x="1034" 
d="M530 1194q-142 0 -210.5 77t-71.5 202l114 2q10 -75 49 -114.5t119 -39.5t119 39.5t49 114.5l115 -2q-3 -125 -72 -202t-211 -77zM432 -29q-168 0 -262 97q-80 83 -80 217q0 137 86 217q104 96 340 96h209v64q0 118 -51 169q-63 60 -209 60q-117 0 -270 -25l-7 131
q143 35 306 35q215 0 313 -92q47 -46 67.5 -109.5t20.5 -162.5v-668h-137l-10 68q-150 -97 -316 -97zM469 109q126 0 256 65v299h-184q-159 0 -224 -51q-55 -46 -55 -133q0 -89 53.5 -134.5t153.5 -45.5z" />
    <glyph glyph-name="Aogonek" unicode="&#x104;" horiz-adv-x="1210" 
d="M1040 -455q-109 0 -166 52.5t-57 146.5q0 77 44.5 144.5t119.5 115.5l-121 369h-530l-115 -373h-178l444 1401h209l484 -1401h-13q-74 0 -141 -78q-62 -76 -62 -160q0 -49 31 -75.5t90 -26.5q61 0 129 14v-106q-94 -23 -168 -23zM375 516h438l-225 692h-2z" />
    <glyph glyph-name="aogonek" unicode="&#x105;" horiz-adv-x="1034" 
d="M809 -455q-108 0 -163.5 52.5t-55.5 146.5q0 77 45 146t121 116l-8 62q-150 -97 -316 -97q-168 0 -262 97q-80 83 -80 217q0 137 86 217q104 96 340 96h209v64q0 118 -51 169q-63 60 -209 60q-117 0 -270 -25l-7 131q143 35 306 35q215 0 313 -92q47 -46 67.5 -109.5
t20.5 -162.5v-668q-29 0 -45 -14q-119 -102 -119 -224q0 -102 111 -102q55 0 98 6v-106q-77 -15 -131 -15zM469 109q126 0 256 65v299h-184q-159 0 -224 -51q-55 -46 -55 -133q0 -89 53.5 -134.5t153.5 -45.5z" />
    <glyph glyph-name="Cacute" unicode="&#x106;" horiz-adv-x="1136" 
d="M559 1554l-65 91l360 319l96 -129zM741 -29q-316 0 -471 179.5t-155 541.5q0 395 182 580q73 76 182.5 115.5t241.5 39.5q181 0 326 -53l-25 -139q-144 39 -281 39q-212 0 -313 -113q-123 -134 -123 -465q0 -326 129 -458q112 -115 352 -115q103 0 248 29l17 -140
q-134 -41 -310 -41z" />
    <glyph glyph-name="cacute" unicode="&#x107;" horiz-adv-x="921" 
d="M395 1165l-65 90l360 320l96 -129zM588 -29q-243 0 -365 125q-133 136 -133 393q0 266 131 406q128 137 369 137q118 0 239 -31l-10 -131q-131 25 -209 25q-175 0 -258.5 -100.5t-83.5 -302.5q0 -191 84 -287q81 -94 266 -94q107 0 209 20l13 -127q-121 -33 -252 -33z
" />
    <glyph glyph-name="Ccircumflex" unicode="&#x108;" horiz-adv-x="1136" 
d="M469 1559l-61 61l243 301h146l241 -301l-61 -61l-254 219zM741 -29q-316 0 -471 179.5t-155 541.5q0 395 182 580q73 76 182.5 115.5t241.5 39.5q181 0 326 -53l-25 -139q-144 39 -281 39q-212 0 -313 -113q-123 -134 -123 -465q0 -326 129 -458q112 -115 352 -115
q103 0 248 29l17 -140q-134 -41 -310 -41z" />
    <glyph glyph-name="ccircumflex" unicode="&#x109;" horiz-adv-x="921" 
d="M305 1167l-61 62l243 301h146l241 -301l-61 -62l-254 219zM588 -29q-243 0 -365 125q-133 136 -133 393q0 266 131 406q128 137 369 137q118 0 239 -31l-10 -131q-131 25 -209 25q-175 0 -258.5 -100.5t-83.5 -302.5q0 -191 84 -287q81 -94 266 -94q107 0 209 20l13 -127
q-121 -33 -252 -33z" />
    <glyph glyph-name="Cdotaccent" unicode="&#x10a;" horiz-adv-x="1136" 
d="M709 1620q-103 0 -103 111v12q0 110 103 110h26q103 0 103 -110v-12q0 -111 -103 -111h-26zM741 -29q-316 0 -471 179.5t-155 541.5q0 395 182 580q73 76 182.5 115.5t241.5 39.5q181 0 326 -53l-25 -139q-144 39 -281 39q-212 0 -313 -113q-123 -134 -123 -465
q0 -326 129 -458q112 -115 352 -115q103 0 248 29l17 -140q-134 -41 -310 -41z" />
    <glyph glyph-name="cdotaccent" unicode="&#x10b;" horiz-adv-x="921" 
d="M545 1231q-103 0 -103 110v13q0 110 103 110h26q103 0 103 -110v-13q0 -110 -103 -110h-26zM588 -29q-243 0 -365 125q-133 136 -133 393q0 266 131 406q128 137 369 137q118 0 239 -31l-10 -131q-131 25 -209 25q-175 0 -258.5 -100.5t-83.5 -302.5q0 -191 84 -287
q81 -94 266 -94q107 0 209 20l13 -127q-121 -33 -252 -33z" />
    <glyph glyph-name="Ccaron" unicode="&#x10c;" horiz-adv-x="1136" 
d="M651 1579l-243 301l61 62l254 -220l254 220l61 -62l-241 -301h-146zM741 -29q-316 0 -471 179.5t-155 541.5q0 395 182 580q73 76 182.5 115.5t241.5 39.5q181 0 326 -53l-25 -139q-144 39 -281 39q-212 0 -313 -113q-123 -134 -123 -465q0 -326 129 -458
q112 -115 352 -115q103 0 248 29l17 -140q-134 -41 -310 -41z" />
    <glyph glyph-name="ccaron" unicode="&#x10d;" horiz-adv-x="921" 
d="M487 1190l-243 301l61 61l254 -219l254 219l61 -61l-241 -301h-146zM588 -29q-243 0 -365 125q-133 136 -133 393q0 266 131 406q128 137 369 137q118 0 239 -31l-10 -131q-131 25 -209 25q-175 0 -258.5 -100.5t-83.5 -302.5q0 -191 84 -287q81 -94 266 -94
q107 0 209 20l13 -127q-121 -33 -252 -33z" />
    <glyph glyph-name="Dcaron" unicode="&#x10e;" horiz-adv-x="1323" 
d="M590 1579l-244 301l62 62l254 -220l253 220l62 -62l-242 -301h-145zM170 0v1401h354q195 0 323.5 -41t211.5 -131q149 -165 149 -520q0 -386 -168 -557q-149 -152 -477 -152h-393zM352 145h205q117 0 195 25t133 78q135 129 135 459q0 290 -102 415q-58 70 -152.5 101.5
t-251.5 31.5h-162v-1110z" />
    <glyph glyph-name="dcaron" unicode="&#x10f;" horiz-adv-x="1323" 
d="M494 -29q-194 0 -299 133.5t-105 391.5q0 250 110 393t306 143q140 0 266 -71v503h170v-1464h-139l-12 61q-62 -40 -144.5 -65t-152.5 -25zM1163 987v223q-90 17 -90 107v6q0 53 28 78.5t73 25.5h2q56 0 81 -31.5t25 -101.5q0 -114 -43 -307h-76zM541 111q110 0 231 59
v670q-125 49 -231 49q-146 0 -209.5 -103t-63.5 -292q0 -196 68 -289.5t205 -93.5z" />
    <glyph glyph-name="Dcroat" unicode="&#x110;" horiz-adv-x="1351" 
d="M199 0v635h-174v147h174v619h354q195 0 323 -41t211 -131q150 -167 150 -520q0 -386 -168 -557q-149 -152 -477 -152h-393zM381 145h205q117 0 194.5 25t132.5 78q136 130 136 459q0 289 -103 415q-58 70 -152 101.5t-251 31.5h-162v-473h244v-147h-244v-490z" />
    <glyph glyph-name="dcroat" unicode="&#x111;" horiz-adv-x="1085" 
d="M494 -29q-194 0 -299 133.5t-105 391.5q0 250 110 393t306 143q140 0 266 -71v221h-354v114h354v168h170v-168l156 -16v-98h-156v-1182h-139l-12 61q-62 -40 -144.5 -65t-152.5 -25zM541 111q110 0 231 59v670q-125 49 -231 49q-146 0 -209.5 -103t-63.5 -292
q0 -196 68 -289.5t205 -93.5z" />
    <glyph glyph-name="Emacron" unicode="&#x112;" horiz-adv-x="1087" 
d="M324 1661v137h536v-137h-536zM170 0v1401h803l-17 -144h-604v-475h490v-147h-490v-492h633v-143h-815z" />
    <glyph glyph-name="emacron" unicode="&#x113;" horiz-adv-x="1036" 
d="M272 1272v137h537v-137h-537zM580 -29q-238 0 -359 121q-131 131 -131 408q0 261 117.5 396.5t316.5 135.5q207 0 311.5 -137.5t104.5 -390.5v-39q0 -23 -25 -23h-647q0 -174 88 -256q81 -75 256 -75q121 0 248 26l17 -127q-134 -39 -297 -39zM268 567h504
q-5 152 -66 240t-182 88q-125 0 -189.5 -86t-66.5 -242z" />
    <glyph glyph-name="Ebreve" unicode="&#x114;" horiz-adv-x="1087" 
d="M592 1583q-142 0 -211 77t-72 202l115 2q10 -75 49 -114.5t119 -39.5t119 39.5t49 114.5l114 -2q-3 -125 -71.5 -202t-210.5 -77zM170 0v1401h803l-17 -144h-604v-475h490v-147h-490v-492h633v-143h-815z" />
    <glyph glyph-name="ebreve" unicode="&#x115;" horiz-adv-x="1036" 
d="M541 1194q-142 0 -211 77t-72 202l115 2q10 -75 49 -114.5t119 -39.5t119 39.5t49 114.5l114 -2q-3 -125 -71.5 -202t-210.5 -77zM580 -29q-238 0 -359 121q-131 131 -131 408q0 261 117.5 396.5t316.5 135.5q207 0 311.5 -137.5t104.5 -390.5v-39q0 -23 -25 -23h-647
q0 -174 88 -256q81 -75 256 -75q121 0 248 26l17 -127q-134 -39 -297 -39zM268 567h504q-5 152 -66 240t-182 88q-125 0 -189.5 -86t-66.5 -242z" />
    <glyph glyph-name="Edotaccent" unicode="&#x116;" horiz-adv-x="1087" 
d="M578 1620q-103 0 -103 111v12q0 110 103 110h26q103 0 103 -110v-12q0 -111 -103 -111h-26zM170 0v1401h803l-17 -144h-604v-475h490v-147h-490v-492h633v-143h-815z" />
    <glyph glyph-name="edotaccent" unicode="&#x117;" horiz-adv-x="1036" 
d="M526 1231q-102 0 -102 110v13q0 110 102 110h27q102 0 102 -110v-13q0 -110 -102 -110h-27zM580 -29q-238 0 -359 121q-131 131 -131 408q0 261 117.5 396.5t316.5 135.5q207 0 311.5 -137.5t104.5 -390.5v-39q0 -23 -25 -23h-647q0 -174 88 -256q81 -75 256 -75
q121 0 248 26l17 -127q-134 -39 -297 -39zM268 567h504q-5 152 -66 240t-182 88q-125 0 -189.5 -86t-66.5 -242z" />
    <glyph glyph-name="Eogonek" unicode="&#x118;" horiz-adv-x="1087" 
d="M817 -455q-109 0 -166 52.5t-57 146.5q0 74 42 140.5t114 115.5h-580v1401h803l-17 -144h-604v-475h490v-147h-490v-492h633v-143h-41q-66 0 -123 -57q-86 -92 -86 -181q0 -49 31 -75.5t90 -26.5q61 0 129 14v-106q-94 -23 -168 -23z" />
    <glyph glyph-name="eogonek" unicode="&#x119;" horiz-adv-x="1036" 
d="M711 -455q-108 0 -166 56t-58 151q0 71 33.5 128t93.5 91h-34q-238 0 -359 121q-131 131 -131 408q0 261 117.5 396.5t316.5 135.5q207 0 311.5 -137.5t104.5 -390.5v-39q0 -23 -25 -23h-647q0 -174 88 -256q81 -75 256 -75q121 0 248 26l17 -127q-128 -29 -189 -88
q-59 -59 -59 -151q0 -53 32.5 -82t92.5 -29q57 0 125 14v-106q-94 -23 -168 -23zM268 567h504q-5 152 -66 240t-182 88q-125 0 -189.5 -86t-66.5 -242z" />
    <glyph glyph-name="Ecaron" unicode="&#x11a;" horiz-adv-x="1087" 
d="M520 1579l-244 301l62 62l254 -220l254 220l61 -62l-241 -301h-146zM170 0v1401h803l-17 -144h-604v-475h490v-147h-490v-492h633v-143h-815z" />
    <glyph glyph-name="ecaron" unicode="&#x11b;" horiz-adv-x="1036" 
d="M469 1190l-244 301l62 61l254 -219l254 219l61 -61l-242 -301h-145zM580 -29q-238 0 -359 121q-131 131 -131 408q0 261 117.5 396.5t316.5 135.5q207 0 311.5 -137.5t104.5 -390.5v-39q0 -23 -25 -23h-647q0 -174 88 -256q81 -75 256 -75q121 0 248 26l17 -127
q-134 -39 -297 -39zM268 567h504q-5 152 -66 240t-182 88q-125 0 -189.5 -86t-66.5 -242z" />
    <glyph glyph-name="Gcircumflex" unicode="&#x11c;" horiz-adv-x="1310" 
d="M483 1559l-61 61l244 301h145l242 -301l-62 -61l-254 219zM764 -29q-334 0 -490 179q-159 182 -159 528q0 398 194 592q160 157 453 157q184 0 338 -53l-25 -139q-148 41 -297 41q-235 0 -348 -131q-125 -142 -125 -457q0 -290 109 -428q109 -139 364 -139q98 0 191 14
v430h-238v144h416v-684q-72 -23 -180 -38.5t-203 -15.5z" />
    <glyph glyph-name="gcircumflex" unicode="&#x11d;" horiz-adv-x="1046" 
d="M270 1167l-61 62l244 301h145l242 -301l-62 -62l-254 219zM530 -489q-227 0 -337.5 72.5t-110.5 209.5q0 66 31 126t84 97q-47 38 -47 109q0 116 118 231q-141 99 -141 303q0 170 102 271.5t301 101.5q117 0 203 -39l133 166q63 -35 105 -96l-137 -135q100 -97 100 -269
q0 -169 -102.5 -270.5t-301.5 -101.5q-90 0 -157 20q-24 -27 -40 -62t-16 -61q0 -61 82 -61h193q131 0 210.5 -22t129.5 -72q74 -74 74 -203q0 -157 -113.5 -236t-362.5 -79zM530 422q242 0 242 237q0 238 -242 238q-241 0 -241 -238q0 -237 241 -237zM547 -346
q299 0 299 166q0 73 -49 110q-55 41 -205 41h-217q-44 0 -74 6q-59 -72 -59 -153q0 -85 71.5 -127.5t233.5 -42.5z" />
    <glyph glyph-name="Gbreve" unicode="&#x11e;" horiz-adv-x="1310" 
d="M737 1583q-142 0 -210.5 77t-71.5 202l114 2q10 -75 49 -114.5t119 -39.5t119 39.5t49 114.5l115 -2q-3 -125 -72 -202t-211 -77zM764 -29q-334 0 -490 179q-159 182 -159 528q0 398 194 592q160 157 453 157q184 0 338 -53l-25 -139q-148 41 -297 41q-235 0 -348 -131
q-125 -142 -125 -457q0 -290 109 -428q109 -139 364 -139q98 0 191 14v430h-238v144h416v-684q-72 -23 -180 -38.5t-203 -15.5z" />
    <glyph glyph-name="gbreve" unicode="&#x11f;" horiz-adv-x="1046" 
d="M524 1194q-142 0 -210.5 77t-71.5 202l114 2q10 -75 49 -114.5t119 -39.5t119 39.5t49 114.5l115 -2q-3 -125 -72 -202t-211 -77zM530 -489q-227 0 -337.5 72.5t-110.5 209.5q0 66 31 126t84 97q-47 38 -47 109q0 116 118 231q-141 99 -141 303q0 170 102 271.5
t301 101.5q117 0 203 -39l133 166q63 -35 105 -96l-137 -135q100 -97 100 -269q0 -169 -102.5 -270.5t-301.5 -101.5q-90 0 -157 20q-24 -27 -40 -62t-16 -61q0 -61 82 -61h193q131 0 210.5 -22t129.5 -72q74 -74 74 -203q0 -157 -113.5 -236t-362.5 -79zM530 422
q242 0 242 237q0 238 -242 238q-241 0 -241 -238q0 -237 241 -237zM547 -346q299 0 299 166q0 73 -49 110q-55 41 -205 41h-217q-44 0 -74 6q-59 -72 -59 -153q0 -85 71.5 -127.5t233.5 -42.5z" />
    <glyph glyph-name="Gdotaccent" unicode="&#x120;" horiz-adv-x="1310" 
d="M723 1620q-102 0 -102 111v12q0 110 102 110h27q102 0 102 -110v-12q0 -111 -102 -111h-27zM764 -29q-334 0 -490 179q-159 182 -159 528q0 398 194 592q160 157 453 157q184 0 338 -53l-25 -139q-148 41 -297 41q-235 0 -348 -131q-125 -142 -125 -457q0 -290 109 -428
q109 -139 364 -139q98 0 191 14v430h-238v144h416v-684q-72 -23 -180 -38.5t-203 -15.5z" />
    <glyph glyph-name="gdotaccent" unicode="&#x121;" horiz-adv-x="1046" 
d="M510 1231q-102 0 -102 110v13q0 110 102 110h27q102 0 102 -110v-13q0 -110 -102 -110h-27zM530 -489q-227 0 -337.5 72.5t-110.5 209.5q0 66 31 126t84 97q-47 38 -47 109q0 116 118 231q-141 99 -141 303q0 170 102 271.5t301 101.5q117 0 203 -39l133 166
q63 -35 105 -96l-137 -135q100 -97 100 -269q0 -169 -102.5 -270.5t-301.5 -101.5q-90 0 -157 20q-24 -27 -40 -62t-16 -61q0 -61 82 -61h193q131 0 210.5 -22t129.5 -72q74 -74 74 -203q0 -157 -113.5 -236t-362.5 -79zM530 422q242 0 242 237q0 238 -242 238
q-241 0 -241 -238q0 -237 241 -237zM547 -346q299 0 299 166q0 73 -49 110q-55 41 -205 41h-217q-44 0 -74 6q-59 -72 -59 -153q0 -85 71.5 -127.5t233.5 -42.5z" />
    <glyph glyph-name="Gcommaaccent" unicode="&#x122;" horiz-adv-x="1310" 
d="M764 -29q-334 0 -490 179q-159 182 -159 528q0 398 194 592q160 157 453 157q184 0 338 -53l-25 -139q-148 41 -297 41q-235 0 -348 -131q-125 -142 -125 -457q0 -290 109 -428q109 -139 364 -139q98 0 191 14v430h-238v144h416v-684q-72 -23 -180 -38.5t-203 -15.5z
M754 -596v223q-90 17 -90 107v6q0 53 28 78.5t72 25.5h2q56 0 81 -31.5t25 -101.5q0 -113 -43 -307h-75z" />
    <glyph glyph-name="gcommaaccent" unicode="&#x123;" horiz-adv-x="1046" 
d="M541 1147q-56 0 -81.5 31.5t-25.5 101.5q0 108 43 301h76v-217q90 -17 90 -107v-6q0 -53 -28 -78.5t-72 -25.5h-2zM530 -489q-227 0 -337.5 72.5t-110.5 209.5q0 66 31 126t84 97q-47 38 -47 109q0 116 118 231q-141 99 -141 303q0 170 102 271.5t301 101.5
q117 0 203 -39l133 166q63 -35 105 -96l-137 -135q100 -97 100 -269q0 -169 -102.5 -270.5t-301.5 -101.5q-90 0 -157 20q-24 -27 -40 -62t-16 -61q0 -61 82 -61h193q131 0 210.5 -22t129.5 -72q74 -74 74 -203q0 -157 -113.5 -236t-362.5 -79zM530 422q242 0 242 237
q0 238 -242 238q-241 0 -241 -238q0 -237 241 -237zM547 -346q299 0 299 166q0 73 -49 110q-55 41 -205 41h-217q-44 0 -74 6q-59 -72 -59 -153q0 -85 71.5 -127.5t233.5 -42.5z" />
    <glyph glyph-name="Hcircumflex" unicode="&#x124;" horiz-adv-x="1347" 
d="M420 1559l-62 61l244 301h146l241 -301l-61 -61l-254 219zM170 0v1401h182v-619h643v619h183v-1401h-183v635h-643v-635h-182z" />
    <glyph glyph-name="hcircumflex" unicode="&#x125;" horiz-adv-x="1114" 
d="M-25 1446l-61 61l244 301h145l242 -301l-62 -61l-254 219zM143 0v1464h170v-524q167 92 326 92q167 0 252 -88q84 -84 84 -262v-682h-170v662q0 120 -49 169q-52 52 -162 52q-142 0 -281 -66v-817h-170z" />
    <glyph glyph-name="Hbar" unicode="&#x126;" horiz-adv-x="1347" 
d="M170 0v1034h-141v131h141v236h182v-236h643v236h183v-236h141v-131h-141v-1034h-183v635h-643v-635h-182zM352 782h643v252h-643v-252z" />
    <glyph glyph-name="hbar" unicode="&#x127;" horiz-adv-x="1114" 
d="M143 0v1182h-155v98l155 16v168h170v-168h355v-114h-355v-242q167 92 326 92q167 0 252 -88q84 -84 84 -262v-682h-170v662q0 120 -49 169q-52 52 -162 52q-142 0 -281 -66v-817h-170z" />
    <glyph glyph-name="Itilde" unicode="&#x128;" horiz-adv-x="534" 
d="M47 1651l-96 16q8 101 52.5 157t119.5 56q57 0 153.5 -40t129.5 -40q32 0 51.5 18.5t29.5 63.5l97 -16q-8 -101 -52.5 -157t-119.5 -56q-57 0 -153.5 40t-129.5 40q-32 0 -52 -18.5t-30 -63.5zM176 0v1401h182v-1401h-182z" />
    <glyph glyph-name="itilde" unicode="&#x129;" horiz-adv-x="464" 
d="M12 1251l-96 17q8 101 52.5 157t119.5 56q57 0 153.5 -40t129.5 -40q32 0 52 18.5t30 63.5l96 -17q-8 -101 -52.5 -157t-119.5 -56q-57 0 -153.5 40t-129.5 40q-32 0 -52 -18.5t-30 -63.5zM147 0v1004h170v-1004h-170z" />
    <glyph glyph-name="Imacron" unicode="&#x12a;" horiz-adv-x="534" 
d="M0 1661v137h537v-137h-537zM176 0v1401h182v-1401h-182z" />
    <glyph glyph-name="imacron" unicode="&#x12b;" horiz-adv-x="464" 
d="M-35 1272v137h537v-137h-537zM147 0v1004h170v-1004h-170z" />
    <glyph glyph-name="Ibreve" unicode="&#x12c;" horiz-adv-x="534" 
d="M268 1583q-142 0 -210.5 77t-71.5 202l114 2q10 -75 49 -114.5t119 -39.5t119 39.5t49 114.5l115 -2q-3 -125 -72 -202t-211 -77zM176 0v1401h182v-1401h-182z" />
    <glyph glyph-name="ibreve" unicode="&#x12d;" horiz-adv-x="464" 
d="M233 1194q-142 0 -210.5 77t-71.5 202l115 2q10 -75 49 -114.5t118 -39.5q80 0 119 39.5t49 114.5l115 -2q-3 -125 -72 -202t-211 -77zM147 0v1004h170v-1004h-170z" />
    <glyph glyph-name="Iogonek" unicode="&#x12e;" horiz-adv-x="534" 
d="M233 -455q-106 0 -164.5 54.5t-58.5 148.5q0 89 43 164t123 117v1372h182v-1401h-18q-85 0 -136.5 -65t-51.5 -158q0 -117 120 -117q61 0 129 14v-106q-94 -23 -168 -23z" />
    <glyph glyph-name="iogonek" unicode="&#x12f;" horiz-adv-x="464" 
d="M227 1194q-100 0 -100 109v4q0 108 100 108h11q100 0 100 -108v-4q0 -109 -100 -109h-11zM209 -455q-108 0 -163.5 52.5t-55.5 146.5q0 76 41.5 142.5t115.5 113.5v1004h170v-1004h-22q-29 0 -45 -14q-119 -102 -119 -224q0 -102 111 -102q54 0 98 6v-106
q-77 -15 -131 -15z" />
    <glyph glyph-name="Idotaccent" unicode="&#x130;" horiz-adv-x="534" 
d="M254 1620q-102 0 -102 111v12q0 110 102 110h27q102 0 102 -110v-12q0 -111 -102 -111h-27zM176 0v1401h182v-1401h-182z" />
    <glyph glyph-name="dotlessi" unicode="&#x131;" horiz-adv-x="464" 
d="M147 0v1004h170v-1004h-170z" />
    <glyph glyph-name="IJ" unicode="&#x132;" horiz-adv-x="1296" 
d="M176 0v1401h182v-1401h-182zM780 -29q-82 0 -155 17l-17 143q72 -10 150 -10q66 0 106.5 16t63.5 53q30 51 30 175v1036h183v-1034q0 -217 -82 -308q-80 -88 -279 -88z" />
    <glyph glyph-name="ij" unicode="&#x133;" horiz-adv-x="929" 
d="M227 1194q-100 0 -100 109v4q0 108 100 108h11q100 0 100 -108v-4q0 -109 -100 -109h-11zM692 1194q-100 0 -100 109v4q0 108 100 108h10q101 0 101 -108v-4q0 -109 -101 -109h-10zM147 0v1004h170v-1004h-170zM340 -483l-18 137q172 3 233 72q32 36 44.5 92t12.5 149
v1037h170v-1010q0 -146 -23.5 -230t-80.5 -143q-101 -104 -338 -104z" />
    <glyph glyph-name="Jcircumflex" unicode="&#x134;" horiz-adv-x="761" 
d="M262 1559l-61 61l243 301h146l241 -301l-61 -61l-254 219zM246 -29q-83 0 -156 17l-16 143q72 -10 149 -10q66 0 106.5 16t63.5 53q31 53 31 175v1036h182v-1034q0 -217 -82 -308q-80 -88 -278 -88z" />
    <glyph glyph-name="jcircumflex" unicode="&#x135;" horiz-adv-x="464" 
d="M-20 1167l-62 62l244 301h145l242 -301l-62 -62l-254 219zM-125 -483l-18 137q172 3 233 72q32 36 44.5 92t12.5 149v1037h170v-1010q0 -146 -23.5 -230t-80.5 -143q-101 -104 -338 -104z" />
    <glyph glyph-name="Kcommaaccent" unicode="&#x136;" horiz-adv-x="1214" 
d="M170 0v1401h182v-723l584 723h205l-475 -580l497 -821h-207l-405 686l-199 -240v-446h-182zM623 -596v223q-42 8 -66.5 35t-24.5 72v6q0 53 28 78.5t73 25.5h2q56 0 81 -31.5t25 -101.5q0 -113 -43 -307h-75z" />
    <glyph glyph-name="kcommaaccent" unicode="&#x137;" horiz-adv-x="1024" 
d="M143 0v1464h170v-970l449 510h196l-354 -390l391 -614h-194l-307 498l-181 -201v-297h-170zM537 -596v223q-42 8 -66.5 35t-24.5 72v6q0 53 28 78.5t73 25.5h2q56 0 81 -31.5t25 -101.5q0 -113 -43 -307h-75z" />
    <glyph glyph-name="kgreenlandic" unicode="&#x138;" horiz-adv-x="1024" 
d="M143 0v1004h170v-510l449 510h196l-354 -390l391 -614h-194l-307 498l-181 -201v-297h-170z" />
    <glyph glyph-name="Lacute" unicode="&#x139;" horiz-adv-x="1032" 
d="M137 1554l-65 91l360 319l96 -129zM170 0v1401h182v-1258h611v-143h-793z" />
    <glyph glyph-name="lacute" unicode="&#x13a;" horiz-adv-x="460" 
d="M68 1501l-66 90l360 320l97 -129zM145 0v1464h170v-1464h-170z" />
    <glyph glyph-name="Lcommaaccent" unicode="&#x13b;" horiz-adv-x="1032" 
d="M170 0v1401h182v-1258h611v-143h-793zM584 -596v223q-90 17 -90 107v6q0 53 28 78.5t72 25.5h2q56 0 81 -31.5t25 -101.5q0 -113 -43 -307h-75z" />
    <glyph glyph-name="lcommaaccent" unicode="&#x13c;" horiz-adv-x="460" 
d="M145 0v1464h170v-1464h-170zM217 -596v223q-90 17 -90 107v6q0 53 28 78.5t72 25.5h2q56 0 81.5 -31.5t25.5 -101.5q0 -113 -43 -307h-76z" />
    <glyph glyph-name="Lcaron" unicode="&#x13d;" horiz-adv-x="1032" 
d="M635 987v223q-90 17 -90 107v6q0 53 28 78.5t72 25.5h2q56 0 81.5 -31.5t25.5 -101.5q0 -114 -43 -307h-76zM170 0v1401h182v-1258h611v-143h-793z" />
    <glyph glyph-name="lcaron" unicode="&#x13e;" horiz-adv-x="696" 
d="M145 0v1464h170v-1464h-170zM537 987v223q-42 8 -66.5 35t-24.5 72v6q0 53 28 78.5t73 25.5h2q56 0 81 -31.5t25 -101.5q0 -114 -43 -307h-75z" />
    <glyph glyph-name="Ldot" unicode="&#x13f;" horiz-adv-x="1032" 
d="M170 0v1401h182v-1258h611v-143h-793zM754 645q-103 0 -103 111v12q0 111 103 111h26q103 0 103 -111v-12q0 -111 -103 -111h-26z" />
    <glyph glyph-name="ldot" unicode="&#x140;" horiz-adv-x="761" 
d="M145 0v1464h170v-1464h-170zM588 557q-103 0 -103 111v12q0 111 103 111h26q103 0 103 -111v-12q0 -111 -103 -111h-26z" />
    <glyph glyph-name="Lslash" unicode="&#x141;" horiz-adv-x="1062" 
d="M201 0v500l-144 -94l-69 116l213 142v737h182v-617l258 172l70 -116l-328 -219v-478h610v-143h-792z" />
    <glyph glyph-name="lslash" unicode="&#x142;" horiz-adv-x="661" 
d="M256 0v612l-147 -98l-72 119l219 147v684h170v-571l188 127l72 -119l-260 -174v-727h-170z" />
    <glyph glyph-name="Nacute" unicode="&#x143;" horiz-adv-x="1396" 
d="M569 1554l-65 91l360 319l97 -129zM170 0v1401h127l768 -1090v1090h162v-1401h-140l-755 1067v-1067h-162z" />
    <glyph glyph-name="nacute" unicode="&#x144;" horiz-adv-x="1114" 
d="M444 1165l-65 90l360 320l97 -129zM143 0v1004h142l8 -74q168 102 346 102q167 0 252 -88q84 -84 84 -262v-682h-170v662q0 120 -49 169q-52 52 -162 52q-142 0 -281 -66v-817h-170z" />
    <glyph glyph-name="Ncommaaccent" unicode="&#x145;" horiz-adv-x="1396" 
d="M170 0v1401h127l768 -1090v1090h162v-1401h-140l-755 1067v-1067h-162zM719 -596v223q-90 17 -90 107v6q0 53 28 78.5t72 25.5h2q56 0 81.5 -31.5t25.5 -101.5q0 -113 -43 -307h-76z" />
    <glyph glyph-name="ncommaaccent" unicode="&#x146;" horiz-adv-x="1114" 
d="M143 0v1004h142l8 -74q168 102 346 102q167 0 252 -88q84 -84 84 -262v-682h-170v662q0 120 -49 169q-52 52 -162 52q-142 0 -281 -66v-817h-170zM543 -596v223q-90 17 -90 107v6q0 53 28 78.5t72 25.5h2q56 0 81.5 -31.5t25.5 -101.5q0 -109 -44 -307h-75z" />
    <glyph glyph-name="Ncaron" unicode="&#x147;" horiz-adv-x="1396" 
d="M662 1579l-244 301l61 62l254 -220l254 220l62 -62l-242 -301h-145zM170 0v1401h127l768 -1090v1090h162v-1401h-140l-755 1067v-1067h-162z" />
    <glyph glyph-name="ncaron" unicode="&#x148;" horiz-adv-x="1114" 
d="M537 1190l-244 301l61 61l254 -219l254 219l62 -61l-242 -301h-145zM143 0v1004h142l8 -74q168 102 346 102q167 0 252 -88q84 -84 84 -262v-682h-170v662q0 120 -49 169q-52 52 -162 52q-142 0 -281 -66v-817h-170z" />
    <glyph glyph-name="napostrophe" unicode="&#x149;" horiz-adv-x="1409" 
d="M199 938v256q-97 20 -97 117v6q0 110 105 110h2q61 0 89 -33t28 -108q0 -61 -14.5 -166.5t-32.5 -181.5h-80zM438 0v1004h142l8 -74q168 102 346 102q167 0 252 -88q84 -84 84 -262v-682h-170v662q0 120 -49 169q-52 52 -162 52q-142 0 -281 -66v-817h-170z" />
    <glyph glyph-name="Eng" unicode="&#x14a;" horiz-adv-x="1396" 
d="M866 -489q-86 0 -155 16l-17 143q72 -10 170 -10q66 0 106.5 16t63.5 54q31 53 31 174v127l-733 1036v-1067h-162v1401h127l768 -1090v1090h162v-1495q0 -116 -20 -188t-62 -119q-80 -88 -279 -88z" />
    <glyph glyph-name="eng" unicode="&#x14b;" horiz-adv-x="1114" 
d="M532 -483l-18 137q173 3 234 72q32 36 44.5 92t12.5 149v695q0 120 -49 169q-52 52 -162 52q-142 0 -281 -66v-817h-170v1004h142l8 -74q168 102 346 102q167 0 252 -88q84 -84 84 -262v-688q0 -146 -24 -230t-81 -143q-101 -104 -338 -104z" />
    <glyph glyph-name="Omacron" unicode="&#x14c;" horiz-adv-x="1347" 
d="M406 1661v137h536v-137h-536zM674 -29q-123 0 -219 36.5t-159.5 100.5t-104.5 157t-58.5 199.5t-17.5 233.5t17.5 233.5t58.5 200t104.5 157.5t159.5 101t219 37t219 -37t159.5 -101t104.5 -157.5t58.5 -200t17.5 -233.5t-17.5 -233.5t-58.5 -199.5t-104.5 -157
t-159.5 -100.5t-219 -36.5zM674 129q106 0 179 39.5t113.5 117t58 177t17.5 235.5t-17.5 235.5t-58 178t-113.5 118.5t-179 40q-85 0 -149 -27t-105.5 -75t-67.5 -121t-36.5 -157t-10.5 -192q0 -136 17.5 -235.5t58.5 -177t114 -117t179 -39.5z" />
    <glyph glyph-name="omacron" unicode="&#x14d;" horiz-adv-x="1093" 
d="M279 1272v137h536v-137h-536zM547 -29q-229 0 -343 137.5t-114 393.5t114 393t343 137t343 -137t114 -393t-114 -393.5t-343 -137.5zM547 111q149 0 213.5 96.5t64.5 294.5t-64.5 294.5t-213.5 96.5q-150 0 -214.5 -96.5t-64.5 -294.5t64.5 -294.5t214.5 -96.5z" />
    <glyph glyph-name="Obreve" unicode="&#x14e;" horiz-adv-x="1347" 
d="M674 1583q-142 0 -211 77t-72 202l115 2q10 -75 49 -114.5t119 -39.5t119 39.5t49 114.5l114 -2q-3 -125 -71.5 -202t-210.5 -77zM674 -29q-123 0 -219 36.5t-159.5 100.5t-104.5 157t-58.5 199.5t-17.5 233.5t17.5 233.5t58.5 200t104.5 157.5t159.5 101t219 37t219 -37
t159.5 -101t104.5 -157.5t58.5 -200t17.5 -233.5t-17.5 -233.5t-58.5 -199.5t-104.5 -157t-159.5 -100.5t-219 -36.5zM674 129q106 0 179 39.5t113.5 117t58 177t17.5 235.5t-17.5 235.5t-58 178t-113.5 118.5t-179 40q-85 0 -149 -27t-105.5 -75t-67.5 -121t-36.5 -157
t-10.5 -192q0 -136 17.5 -235.5t58.5 -177t114 -117t179 -39.5z" />
    <glyph glyph-name="obreve" unicode="&#x14f;" horiz-adv-x="1093" 
d="M547 1194q-142 0 -211 77t-72 202l115 2q10 -75 49 -114.5t119 -39.5t119 39.5t49 114.5l114 -2q-3 -125 -71.5 -202t-210.5 -77zM547 -29q-229 0 -343 137.5t-114 393.5t114 393t343 137t343 -137t114 -393t-114 -393.5t-343 -137.5zM547 111q149 0 213.5 96.5
t64.5 294.5t-64.5 294.5t-213.5 96.5q-150 0 -214.5 -96.5t-64.5 -294.5t64.5 -294.5t214.5 -96.5z" />
    <glyph glyph-name="Ohungarumlaut" unicode="&#x150;" horiz-adv-x="1347" 
d="M418 1573l-78 63l293 385l112 -108zM786 1573l-77 63l292 385l113 -108zM674 -29q-123 0 -219 36.5t-159.5 100.5t-104.5 157t-58.5 199.5t-17.5 233.5t17.5 233.5t58.5 200t104.5 157.5t159.5 101t219 37t219 -37t159.5 -101t104.5 -157.5t58.5 -200t17.5 -233.5
t-17.5 -233.5t-58.5 -199.5t-104.5 -157t-159.5 -100.5t-219 -36.5zM674 129q106 0 179 39.5t113.5 117t58 177t17.5 235.5t-17.5 235.5t-58 178t-113.5 118.5t-179 40q-85 0 -149 -27t-105.5 -75t-67.5 -121t-36.5 -157t-10.5 -192q0 -136 17.5 -235.5t58.5 -177t114 -117
t179 -39.5z" />
    <glyph glyph-name="ohungarumlaut" unicode="&#x151;" horiz-adv-x="1093" 
d="M260 1184l-78 63l293 385l113 -108zM629 1184l-78 63l293 385l112 -108zM547 -29q-229 0 -343 137.5t-114 393.5t114 393t343 137t343 -137t114 -393t-114 -393.5t-343 -137.5zM547 111q149 0 213.5 96.5t64.5 294.5t-64.5 294.5t-213.5 96.5q-150 0 -214.5 -96.5
t-64.5 -294.5t64.5 -294.5t214.5 -96.5z" />
    <glyph glyph-name="OE" unicode="&#x152;" horiz-adv-x="1873" 
d="M858 0q-367 0 -547 162q-196 174 -196 538q0 346 192 529q181 172 567 172h885l-16 -144h-604v-475h489v-147h-489v-492h633v-143h-914zM893 139h63v1123h-59q-327 0 -463 -144q-129 -138 -129 -418q0 -287 139 -426q135 -135 449 -135z" />
    <glyph glyph-name="oe" unicode="&#x153;" horiz-adv-x="1771" 
d="M547 -29q-229 0 -343 137.5t-114 393.5t114 393t343 137q253 0 368 -172q117 172 345 172q207 0 311 -137.5t104 -390.5v-39q0 -23 -24 -23h-647q0 -174 88 -256q81 -75 256 -75q120 0 247 26l17 -127q-134 -39 -297 -39q-238 0 -359 121q-25 22 -43 49
q-113 -170 -366 -170zM1004 567h503q-5 152 -65.5 240t-181.5 88q-125 0 -189.5 -86t-66.5 -242zM547 111q146 0 210.5 91t67.5 279v21q0 198 -64.5 294.5t-213.5 96.5q-150 0 -214.5 -96.5t-64.5 -294.5t64.5 -294.5t214.5 -96.5z" />
    <glyph glyph-name="Racute" unicode="&#x154;" horiz-adv-x="1232" 
d="M479 1554l-65 91l360 319l96 -129zM170 0v1401h408q296 0 409 -113q105 -102 105 -311q0 -159 -68 -261.5t-195 -146.5l301 -569h-202q-229 453 -273 539q-50 -4 -90 -4h-213v-535h-182zM352 682h217q198 0 273 84q61 70 61 211q0 144 -63 207q-73 73 -283 73h-205v-575z
" />
    <glyph glyph-name="racute" unicode="&#x155;" horiz-adv-x="686" 
d="M266 1165l-65 90l360 320l96 -129zM143 0v1004h142l10 -86q137 114 285 114q30 0 65 -6v-152q-57 5 -88 5q-135 0 -244 -68v-811h-170z" />
    <glyph glyph-name="Rcommaaccent" unicode="&#x156;" horiz-adv-x="1232" 
d="M170 0v1401h408q296 0 409 -113q105 -102 105 -311q0 -159 -68 -261.5t-195 -146.5l301 -569h-202q-229 453 -273 539q-50 -4 -90 -4h-213v-535h-182zM352 682h217q198 0 273 84q61 70 61 211q0 144 -63 207q-73 73 -283 73h-205v-575zM633 -596v223q-90 17 -90 107v6
q0 53 28 78.5t72 25.5h2q56 0 81.5 -31.5t25.5 -101.5q0 -113 -43 -307h-76z" />
    <glyph glyph-name="rcommaaccent" unicode="&#x157;" horiz-adv-x="686" 
d="M143 0v1004h142l10 -86q137 114 285 114q30 0 65 -6v-152q-57 5 -88 5q-135 0 -244 -68v-811h-170zM221 -596v223q-90 17 -90 107v6q0 53 28 78.5t72 25.5h2q56 0 81.5 -31.5t25.5 -101.5q0 -113 -43 -307h-76z" />
    <glyph glyph-name="Rcaron" unicode="&#x158;" horiz-adv-x="1232" 
d="M571 1579l-243 301l61 62l254 -220l254 220l61 -62l-241 -301h-146zM170 0v1401h408q296 0 409 -113q105 -102 105 -311q0 -159 -68 -261.5t-195 -146.5l301 -569h-202q-229 453 -273 539q-50 -4 -90 -4h-213v-535h-182zM352 682h217q198 0 273 84q61 70 61 211
q0 144 -63 207q-73 73 -283 73h-205v-575z" />
    <glyph glyph-name="rcaron" unicode="&#x159;" horiz-adv-x="686" 
d="M358 1190l-243 301l61 61l254 -219l254 219l61 -61l-241 -301h-146zM143 0v1004h142l10 -86q137 114 285 114q30 0 65 -6v-152q-57 5 -88 5q-135 0 -244 -68v-811h-170z" />
    <glyph glyph-name="Sacute" unicode="&#x15a;" horiz-adv-x="1112" 
d="M403 1554l-65 91l360 319l97 -129zM520 -29q-100 0 -210 18.5t-187 49.5l31 139q188 -55 350 -55q167 0 248 63q75 60 75 170q0 56 -24.5 100.5t-66 74.5t-95.5 55t-113.5 47.5t-119 46.5t-113.5 57t-95.5 74.5t-66 103t-24.5 138.5q0 182 124.5 278t339.5 96
q191 0 345 -53l-27 -139q-155 41 -303 41q-307 0 -307 -211q0 -57 31 -102t81.5 -73t115.5 -57t132 -53t132 -60.5t115.5 -79.5t81.5 -111t31 -154q0 -181 -110 -285q-125 -119 -371 -119z" />
    <glyph glyph-name="sacute" unicode="&#x15b;" horiz-adv-x="909" 
d="M299 1165l-66 90l361 320l96 -129zM408 -29q-164 0 -295 43l8 131q128 -36 280 -36q123 0 187.5 40t64.5 117q0 45 -31 77.5t-80 51.5t-108.5 36.5t-119.5 40.5t-109 54t-80 86.5t-31 130.5q0 142 99.5 215.5t265.5 73.5q155 0 293 -43l-15 -125q-148 33 -264 33
q-219 0 -219 -141q0 -45 31 -78t80 -53t109 -38t119.5 -41.5t108.5 -54.5t80 -85t31 -127q0 -155 -108 -231.5t-297 -76.5z" />
    <glyph glyph-name="Scircumflex" unicode="&#x15c;" horiz-adv-x="1112" 
d="M313 1559l-61 61l244 301h145l242 -301l-62 -61l-254 219zM520 -29q-100 0 -210 18.5t-187 49.5l31 139q188 -55 350 -55q167 0 248 63q75 60 75 170q0 56 -24.5 100.5t-66 74.5t-95.5 55t-113.5 47.5t-119 46.5t-113.5 57t-95.5 74.5t-66 103t-24.5 138.5
q0 182 124.5 278t339.5 96q191 0 345 -53l-27 -139q-155 41 -303 41q-307 0 -307 -211q0 -57 31 -102t81.5 -73t115.5 -57t132 -53t132 -60.5t115.5 -79.5t81.5 -111t31 -154q0 -181 -110 -285q-125 -119 -371 -119z" />
    <glyph glyph-name="scircumflex" unicode="&#x15d;" horiz-adv-x="909" 
d="M209 1167l-62 62l244 301h146l241 -301l-61 -62l-254 219zM408 -29q-164 0 -295 43l8 131q128 -36 280 -36q123 0 187.5 40t64.5 117q0 45 -31 77.5t-80 51.5t-108.5 36.5t-119.5 40.5t-109 54t-80 86.5t-31 130.5q0 142 99.5 215.5t265.5 73.5q155 0 293 -43l-15 -125
q-148 33 -264 33q-219 0 -219 -141q0 -45 31 -78t80 -53t109 -38t119.5 -41.5t108.5 -54.5t80 -85t31 -127q0 -155 -108 -231.5t-297 -76.5z" />
    <glyph glyph-name="Scedilla" unicode="&#x15e;" horiz-adv-x="1112" 
d="M604 -469q-74 0 -158 25v106q72 -16 138 -16q104 0 104 57q0 23 -24 39.5t-59 28t-69.5 26t-58.5 42t-24 65.5q0 34 18 69q-206 7 -348 66l31 139q188 -55 350 -55q167 0 248 63q75 60 75 170q0 56 -24.5 100.5t-66 74.5t-95.5 55t-113.5 47.5t-119 46.5t-113.5 57
t-95.5 74.5t-66 103t-24.5 138.5q0 182 124.5 278t339.5 96q191 0 345 -53l-27 -139q-155 41 -303 41q-307 0 -307 -211q0 -57 31 -102t81.5 -73t115.5 -57t132 -53t132 -60.5t115.5 -79.5t81.5 -111t31 -154q0 -181 -110 -285q-108 -102 -307 -117q-2 -8 -2 -26t17.5 -32.5
t44 -23.5t57 -23t57 -31t44 -49t17.5 -75q0 -87 -56.5 -134.5t-158.5 -47.5z" />
    <glyph glyph-name="scedilla" unicode="&#x15f;" horiz-adv-x="909" 
d="M487 -469q-73 0 -157 25v106q72 -16 137 -16q104 0 104 57q0 23 -24 39.5t-58.5 28t-69.5 26t-59 42t-24 65.5q0 34 18 69q-136 6 -241 41l8 131q128 -36 280 -36q123 0 187.5 40t64.5 117q0 45 -31 77.5t-80 51.5t-108.5 36.5t-119.5 40.5t-109 54t-80 86.5t-31 130.5
q0 142 99.5 215.5t265.5 73.5q155 0 293 -43l-15 -125q-148 33 -264 33q-219 0 -219 -141q0 -45 31 -78t80 -53t109 -38t119.5 -41.5t108.5 -54.5t80 -85t31 -127q0 -142 -91.5 -218t-254.5 -88q-2 -8 -2 -26t17.5 -32.5t44 -23.5t57 -23t57 -31t44 -49t17.5 -75
q0 -87 -56.5 -134.5t-158.5 -47.5z" />
    <glyph glyph-name="Scaron" unicode="&#x160;" horiz-adv-x="1112" 
d="M496 1579l-244 301l61 62l254 -220l254 220l62 -62l-242 -301h-145zM520 -29q-100 0 -210 18.5t-187 49.5l31 139q188 -55 350 -55q167 0 248 63q75 60 75 170q0 56 -24.5 100.5t-66 74.5t-95.5 55t-113.5 47.5t-119 46.5t-113.5 57t-95.5 74.5t-66 103t-24.5 138.5
q0 182 124.5 278t339.5 96q191 0 345 -53l-27 -139q-155 41 -303 41q-307 0 -307 -211q0 -57 31 -102t81.5 -73t115.5 -57t132 -53t132 -60.5t115.5 -79.5t81.5 -111t31 -154q0 -181 -110 -285q-125 -119 -371 -119z" />
    <glyph glyph-name="scaron" unicode="&#x161;" horiz-adv-x="909" 
d="M391 1190l-244 301l62 61l254 -219l254 219l61 -61l-241 -301h-146zM408 -29q-164 0 -295 43l8 131q128 -36 280 -36q123 0 187.5 40t64.5 117q0 45 -31 77.5t-80 51.5t-108.5 36.5t-119.5 40.5t-109 54t-80 86.5t-31 130.5q0 142 99.5 215.5t265.5 73.5q155 0 293 -43
l-15 -125q-148 33 -264 33q-219 0 -219 -141q0 -45 31 -78t80 -53t109 -38t119.5 -41.5t108.5 -54.5t80 -85t31 -127q0 -155 -108 -231.5t-297 -76.5z" />
    <glyph glyph-name="uni0162" unicode="&#x162;" horiz-adv-x="1165" 
d="M492 0v1257h-447v144h1083l-16 -144h-438v-1257h-182zM569 -596v223q-90 17 -90 107v6q0 53 28 78.5t73 25.5h2q56 0 81 -31.5t25 -101.5q0 -113 -43 -307h-76z" />
    <glyph glyph-name="uni0163" unicode="&#x163;" horiz-adv-x="747" 
d="M492 -29q-155 0 -224 78q-36 42 -49.5 98t-13.5 152v580h-182v96l182 26v238q95 31 170 31v-266h264v-125h-264v-557q0 -76 7 -115.5t28 -61.5q36 -39 129 -39q68 0 151 17l8 -125q-102 -27 -206 -27zM451 -596v223q-42 8 -66.5 35t-24.5 72v6q0 53 28 78.5t73 25.5h2
q56 0 81 -31.5t25 -101.5q0 -113 -43 -307h-75z" />
    <glyph glyph-name="Tcaron" unicode="&#x164;" horiz-adv-x="1165" 
d="M512 1579l-244 301l62 62l254 -220l254 220l61 -62l-242 -301h-145zM492 0v1257h-447v144h1083l-16 -144h-438v-1257h-182z" />
    <glyph glyph-name="tcaron" unicode="&#x165;" horiz-adv-x="747" 
d="M541 1157v223q-90 17 -90 107v6q0 53 28 78.5t72 25.5h2q56 0 81 -31.5t25 -101.5q0 -114 -43 -307h-75zM492 -29q-155 0 -224 78q-36 42 -49.5 98t-13.5 152v580h-182v96l182 26v238q95 31 170 31v-266h264v-125h-264v-557q0 -76 7 -115.5t28 -61.5q36 -39 129 -39
q68 0 151 17l8 -125q-102 -27 -206 -27z" />
    <glyph glyph-name="Tbar" unicode="&#x166;" horiz-adv-x="1165" 
d="M492 0v608h-267v131h267v518h-447v144h1083l-16 -144h-438v-518h266v-131h-266v-608h-182z" />
    <glyph glyph-name="tbar" unicode="&#x167;" horiz-adv-x="747" 
d="M492 -29q-155 0 -224 78q-36 42 -49.5 98t-13.5 152v141h-156v95l156 20v324h-182v96l182 26v238q95 31 170 31v-266h264v-125h-264v-324h246v-115h-246v-118q0 -76 7 -115.5t28 -61.5q36 -39 129 -39q68 0 151 17l8 -125q-102 -27 -206 -27z" />
    <glyph glyph-name="Utilde" unicode="&#x168;" horiz-adv-x="1329" 
d="M451 1651l-97 16q8 101 52.5 157t119.5 56q57 0 153.5 -40t129.5 -40q32 0 52 18.5t30 63.5l96 -16q-8 -101 -52.5 -157t-119.5 -56q-57 0 -153.5 40t-129.5 40q-32 0 -51.5 -18.5t-29.5 -63.5zM672 -29q-246 0 -375 117q-143 128 -143 416v897h182v-887
q0 -116 20.5 -186.5t67.5 -116.5q87 -84 252 -84q158 0 242 84q92 92 92 303v887h166v-897q0 -278 -138 -410q-129 -123 -366 -123z" />
    <glyph glyph-name="utilde" unicode="&#x169;" horiz-adv-x="1110" 
d="M334 1251l-96 17q8 101 52.5 157t119.5 56q57 0 153 -40t129 -40q32 0 52 18.5t30 63.5l96 -17q-8 -101 -52.5 -157t-119.5 -56q-57 0 -153 40t-129 40q-32 0 -52 -18.5t-30 -63.5zM475 -29q-167 0 -252 88q-84 84 -84 263v682h170v-662q0 -121 49 -170q51 -51 162 -51
q140 0 277 65v818h170v-1004h-142l-8 74q-170 -103 -342 -103z" />
    <glyph glyph-name="Umacron" unicode="&#x16a;" horiz-adv-x="1329" 
d="M403 1661v137h537v-137h-537zM672 -29q-246 0 -375 117q-143 128 -143 416v897h182v-887q0 -116 20.5 -186.5t67.5 -116.5q87 -84 252 -84q158 0 242 84q92 92 92 303v887h166v-897q0 -278 -138 -410q-129 -123 -366 -123z" />
    <glyph glyph-name="umacron" unicode="&#x16b;" horiz-adv-x="1110" 
d="M287 1272v137h536v-137h-536zM475 -29q-167 0 -252 88q-84 84 -84 263v682h170v-662q0 -121 49 -170q51 -51 162 -51q140 0 277 65v818h170v-1004h-142l-8 74q-170 -103 -342 -103z" />
    <glyph glyph-name="Ubreve" unicode="&#x16c;" horiz-adv-x="1329" 
d="M672 1583q-142 0 -211 77t-72 202l115 2q10 -75 49 -114.5t119 -39.5t119 39.5t49 114.5l114 -2q-3 -125 -71.5 -202t-210.5 -77zM672 -29q-246 0 -375 117q-143 128 -143 416v897h182v-887q0 -116 20.5 -186.5t67.5 -116.5q87 -84 252 -84q158 0 242 84q92 92 92 303
v887h166v-897q0 -278 -138 -410q-129 -123 -366 -123z" />
    <glyph glyph-name="ubreve" unicode="&#x16d;" horiz-adv-x="1110" 
d="M555 1194q-142 0 -211 77t-72 202l115 2q10 -75 49 -114.5t119 -39.5t119 39.5t49 114.5l115 -2q-3 -125 -72 -202t-211 -77zM475 -29q-167 0 -252 88q-84 84 -84 263v682h170v-662q0 -121 49 -170q51 -51 162 -51q140 0 277 65v818h170v-1004h-142l-8 74
q-170 -103 -342 -103z" />
    <glyph glyph-name="Uring" unicode="&#x16e;" horiz-adv-x="1329" 
d="M668 1567q-106 0 -168 54.5t-62 162.5v18q0 108 62 162.5t168 54.5h8q106 0 167.5 -54t61.5 -163v-18q0 -109 -61.5 -163t-167.5 -54h-8zM670 1671h4q59 0 88 27.5t29 89.5v10q0 62 -29 89.5t-88 27.5h-4q-59 0 -88 -27.5t-29 -89.5v-10q0 -62 29 -89.5t88 -27.5z
M672 -29q-246 0 -375 117q-143 128 -143 416v897h182v-887q0 -116 20.5 -186.5t67.5 -116.5q87 -84 252 -84q158 0 242 84q92 92 92 303v887h166v-897q0 -278 -138 -410q-129 -123 -366 -123z" />
    <glyph glyph-name="uring" unicode="&#x16f;" horiz-adv-x="1110" 
d="M551 1178q-106 0 -167.5 54t-61.5 163v18q0 109 61.5 163t167.5 54h8q106 0 167.5 -54t61.5 -163v-18q0 -109 -61.5 -163t-167.5 -54h-8zM553 1282h4q59 0 88 27.5t29 89.5v10q0 62 -29 89.5t-88 27.5h-4q-59 0 -88 -27.5t-29 -89.5v-10q0 -62 29 -89.5t88 -27.5z
M475 -29q-167 0 -252 88q-84 84 -84 263v682h170v-662q0 -121 49 -170q51 -51 162 -51q140 0 277 65v818h170v-1004h-142l-8 74q-170 -103 -342 -103z" />
    <glyph glyph-name="Uhungarumlaut" unicode="&#x170;" horiz-adv-x="1329" 
d="M416 1573l-78 63l293 385l112 -108zM784 1573l-77 63l292 385l113 -108zM672 -29q-246 0 -375 117q-143 128 -143 416v897h182v-887q0 -116 20.5 -186.5t67.5 -116.5q87 -84 252 -84q158 0 242 84q92 92 92 303v887h166v-897q0 -278 -138 -410q-129 -123 -366 -123z" />
    <glyph glyph-name="uhungarumlaut" unicode="&#x171;" horiz-adv-x="1110" 
d="M287 1184l-78 63l293 385l112 -108zM655 1184l-77 63l292 385l113 -108zM475 -29q-167 0 -252 88q-84 84 -84 263v682h170v-662q0 -121 49 -170q51 -51 162 -51q140 0 277 65v818h170v-1004h-142l-8 74q-170 -103 -342 -103z" />
    <glyph glyph-name="Uogonek" unicode="&#x172;" horiz-adv-x="1329" 
d="M743 -455q-109 0 -166 52.5t-57 146.5q0 128 101 229q-209 9 -324 115q-143 128 -143 416v897h182v-887q0 -116 20.5 -186.5t67.5 -116.5q87 -84 252 -84q158 0 242 84q92 92 92 303v887h166v-897q0 -278 -138 -410q-108 -100 -274 -117q-102 -105 -102 -215
q0 -50 31 -76t89 -26q61 0 129 14v-106q-94 -23 -168 -23z" />
    <glyph glyph-name="uogonek" unicode="&#x173;" horiz-adv-x="1110" 
d="M881 -455q-108 0 -163.5 52.5t-55.5 146.5q0 78 43.5 145.5t119.5 114.5l-8 70q-170 -103 -342 -103q-167 0 -252 88q-84 84 -84 263v682h170v-662q0 -121 49 -170q51 -51 162 -51q140 0 277 65v818h170v-1004q-29 0 -45 -14q-119 -102 -119 -224q0 -102 110 -102
q55 0 99 6v-106q-77 -15 -131 -15z" />
    <glyph glyph-name="Wcircumflex" unicode="&#x174;" horiz-adv-x="1812" 
d="M664 1559l-62 61l244 301h145l242 -301l-62 -61l-253 219zM432 0l-391 1401h186l318 -1186h4l272 1186h191l299 -1178h4l287 1178h170l-359 -1401h-215l-280 1116h-5l-260 -1116h-221z" />
    <glyph glyph-name="wcircumflex" unicode="&#x175;" horiz-adv-x="1466" 
d="M479 1167l-61 62l244 301h145l242 -301l-62 -62l-254 219zM326 0l-293 1004h172l225 -826l215 826h172l244 -836l215 836h158l-279 -1004h-194l-230 768l-209 -768h-196z" />
    <glyph glyph-name="Ycircumflex" unicode="&#x176;" horiz-adv-x="1177" 
d="M336 1559l-62 61l244 301h146l241 -301l-61 -61l-254 219zM487 0v573l-454 828h200l357 -674l371 674h184l-475 -832v-569h-183z" />
    <glyph glyph-name="ycircumflex" unicode="&#x177;" horiz-adv-x="1110" 
d="M301 1167l-61 62l243 301h146l241 -301l-61 -62l-254 219zM549 -489q-113 0 -203 20l-14 133q98 -12 192 -12q149 0 209 55q64 61 64 217v137q-158 -90 -322 -90q-167 0 -252 88q-84 84 -84 263v682h170v-662q0 -121 49 -170q51 -51 162 -51q140 0 277 65v818h170v-1082
q0 -201 -93 -301q-101 -110 -325 -110z" />
    <glyph glyph-name="Ydieresis" unicode="&#x178;" horiz-adv-x="1177" 
d="M387 1630q-98 0 -98 99v22q0 51 24 74.5t74 23.5h19q50 0 74 -23.5t24 -74.5v-22q0 -99 -98 -99h-19zM774 1630q-98 0 -98 99v22q0 51 24 74.5t74 23.5h19q50 0 74 -23.5t24 -74.5v-22q0 -99 -98 -99h-19zM487 0v573l-454 828h200l357 -674l371 674h184l-475 -832v-569
h-183z" />
    <glyph glyph-name="Zacute" unicode="&#x179;" horiz-adv-x="1148" 
d="M412 1554l-66 91l361 319l96 -129zM102 0v104l723 1153h-710v144h929v-109l-720 -1149h723v-143h-945z" />
    <glyph glyph-name="zacute" unicode="&#x17a;" horiz-adv-x="870" 
d="M289 1165l-66 90l361 320l96 -129zM74 0v92l518 787h-514v125h717v-99l-514 -780h528v-125h-735z" />
    <glyph glyph-name="Zdotaccent" unicode="&#x17b;" horiz-adv-x="1148" 
d="M561 1620q-102 0 -102 111v12q0 110 102 110h27q102 0 102 -110v-12q0 -111 -102 -111h-27zM102 0v104l723 1153h-710v144h929v-109l-720 -1149h723v-143h-945z" />
    <glyph glyph-name="zdotaccent" unicode="&#x17c;" horiz-adv-x="870" 
d="M420 1231q-103 0 -103 110v13q0 110 103 110h26q103 0 103 -110v-13q0 -110 -103 -110h-26zM74 0v92l518 787h-514v125h717v-99l-514 -780h528v-125h-735z" />
    <glyph glyph-name="Zcaron" unicode="&#x17d;" horiz-adv-x="1148" 
d="M504 1579l-244 301l62 62l253 -220l254 220l62 -62l-242 -301h-145zM102 0v104l723 1153h-710v144h929v-109l-720 -1149h723v-143h-945z" />
    <glyph glyph-name="zcaron" unicode="&#x17e;" horiz-adv-x="870" 
d="M381 1190l-244 301l62 61l254 -219l254 219l61 -61l-242 -301h-145zM74 0v92l518 787h-514v125h717v-99l-514 -780h528v-125h-735z" />
    <glyph glyph-name="longs" unicode="&#x17f;" horiz-adv-x="653" 
d="M211 0v879h-182v96l182 26v138q0 180 74 266q82 94 262 94q90 0 168 -16v-129q-82 8 -144 8q-107 0 -149 -45q-23 -24 -32 -64t-9 -110v-1143h-170z" />
    <glyph glyph-name="florin" unicode="&#x192;" horiz-adv-x="1130" 
d="M197 -489q-75 0 -154 14v129q82 -10 135 -10q114 0 164 53q31 33 46.5 90t23.5 160l53 649h-229v92l237 23l31 381q17 224 108 315q92 92 275 92q74 0 153 -14v-129q-83 10 -135 10q-114 0 -164 -53q-31 -33 -46 -89.5t-23 -160.5l-29 -348h262v-119h-270l-55 -678
q-17 -223 -109 -315t-274 -92z" />
    <glyph glyph-name="uni01CD" unicode="&#x1cd;" horiz-adv-x="1210" 
d="M514 1579l-244 301l62 62l254 -220l254 220l61 -62l-242 -301h-145zM37 0l444 1401h209l484 -1401h-191l-123 373h-530l-115 -373h-178zM375 516h438l-225 692h-2z" />
    <glyph glyph-name="uni01CE" unicode="&#x1ce;" horiz-adv-x="1034" 
d="M459 1190l-244 301l61 61l254 -219l254 219l62 -61l-242 -301h-145zM432 -29q-168 0 -262 97q-80 83 -80 217q0 137 86 217q104 96 340 96h209v64q0 118 -51 169q-63 60 -209 60q-117 0 -270 -25l-7 131q143 35 306 35q215 0 313 -92q47 -46 67.5 -109.5t20.5 -162.5
v-668h-137l-10 68q-150 -97 -316 -97zM469 109q126 0 256 65v299h-184q-159 0 -224 -51q-55 -46 -55 -133q0 -89 53.5 -134.5t153.5 -45.5z" />
    <glyph glyph-name="Aringacute" unicode="&#x1fa;" horiz-adv-x="1210" 
d="M422 2023l-66 91l361 319l96 -129zM582 1526q-106 0 -168 54.5t-62 162.5v18q0 108 62 162.5t168 54.5h8q106 0 167.5 -54t61.5 -163v-18q0 -109 -61.5 -163t-167.5 -54h-8zM584 1630h4q59 0 88 27.5t29 89.5v10q0 62 -29 89.5t-88 27.5h-4q-59 0 -88 -27.5t-29 -89.5
v-10q0 -62 29 -89.5t88 -27.5zM37 0l444 1401h209l484 -1401h-191l-123 373h-530l-115 -373h-178zM375 516h438l-225 692h-2z" />
    <glyph glyph-name="aringacute" unicode="&#x1fb;" horiz-adv-x="1034" 
d="M367 1616l-66 90l361 319l96 -129zM526 1114q-106 0 -167.5 54t-61.5 163v19q0 109 61.5 163t167.5 54h9q106 0 167.5 -54t61.5 -163v-19q0 -109 -61.5 -163t-167.5 -54h-9zM528 1219h4q59 0 88 27.5t29 88.5v11q0 61 -29 88.5t-88 27.5h-4q-59 0 -87.5 -27t-28.5 -89
v-11q0 -62 28.5 -89t87.5 -27zM432 -29q-168 0 -262 97q-80 83 -80 217q0 137 86 217q104 96 340 96h209v64q0 118 -51 169q-63 60 -209 60q-117 0 -270 -25l-7 131q143 35 306 35q215 0 313 -92q47 -46 67.5 -109.5t20.5 -162.5v-668h-137l-10 68q-150 -97 -316 -97z
M469 109q126 0 256 65v299h-184q-159 0 -224 -51q-55 -46 -55 -133q0 -89 53.5 -134.5t153.5 -45.5z" />
    <glyph glyph-name="AEacute" unicode="&#x1fc;" horiz-adv-x="1845" 
d="M1104 1554l-66 91l361 319l96 -129zM20 0l820 1401h891l-17 -144h-604v-475h489v-147h-489v-492h633v-143h-815v373h-502l-215 -373h-191zM508 516h420v725z" />
    <glyph glyph-name="aeacute" unicode="&#x1fd;" horiz-adv-x="1671" 
d="M729 1165l-65 90l360 320l96 -129zM442 -29q-175 0 -272 97q-80 80 -80 217t86 217q104 96 340 96h209v64q0 118 -51 169q-63 60 -209 60q-117 0 -270 -25l-7 131q143 35 306 35q215 0 313 -92q22 -22 37 -43q114 135 315 135q207 0 311.5 -137.5t104.5 -390.5v-39
q0 -23 -25 -23h-647q0 -174 88 -256q81 -75 256 -75q121 0 248 26l16 -127q-134 -39 -297 -39q-237 0 -358 121l-12 12q-187 -133 -402 -133zM903 567h504q-5 152 -66 240t-182 88q-125 0 -189.5 -86t-66.5 -242zM469 109q160 0 309 94q-50 112 -53 270h-184
q-159 0 -224 -51q-55 -46 -55 -133q0 -89 53.5 -134.5t153.5 -45.5z" />
    <glyph glyph-name="Oslashacute" unicode="&#x1fe;" horiz-adv-x="1347" 
d="M510 1554l-66 91l361 319l96 -129zM287 -152l78 205q-250 163 -250 645q0 127 17.5 233.5t58.5 200t104.5 157.5t159.5 101t219 37q112 0 198 -30l60 153h141l-82 -211q242 -169 242 -641q0 -127 -17.5 -233.5t-58.5 -199.5t-104.5 -157t-159.5 -100.5t-219 -36.5
q-108 0 -191 27l-55 -150h-141zM428 219l387 1026q-64 25 -141 25q-85 0 -149 -27t-105.5 -75t-67.5 -121t-36.5 -157t-10.5 -192q0 -351 123 -479zM674 129q106 0 179 39.5t113.5 117t58 177t17.5 235.5q0 339 -114 469l-387 -1017q58 -21 133 -21z" />
    <glyph glyph-name="oslashacute" unicode="&#x1ff;" horiz-adv-x="1093" 
d="M383 1165l-66 90l361 320l96 -129zM242 -158l65 183q-217 118 -217 477q0 256 114 393t343 137q67 0 125 -12l51 141h135l-67 -186q213 -119 213 -473q0 -256 -114 -393.5t-343 -137.5q-59 0 -119 13l-51 -142h-135zM362 172l261 713q-31 8 -76 8q-150 0 -214.5 -96.5
t-64.5 -294.5q0 -243 94 -330zM547 111q149 0 213.5 96.5t64.5 294.5q0 233 -90 323l-258 -708q30 -6 70 -6z" />
    <glyph glyph-name="Scommaaccent" unicode="&#x218;" horiz-adv-x="1112" 
d="M520 -29q-100 0 -210 18.5t-187 49.5l31 139q188 -55 350 -55q167 0 248 63q75 60 75 170q0 56 -24.5 100.5t-66 74.5t-95.5 55t-113.5 47.5t-119 46.5t-113.5 57t-95.5 74.5t-66 103t-24.5 138.5q0 182 124.5 278t339.5 96q191 0 345 -53l-27 -139q-155 41 -303 41
q-307 0 -307 -211q0 -57 31 -102t81.5 -73t115.5 -57t132 -53t132 -60.5t115.5 -79.5t81.5 -111t31 -154q0 -181 -110 -285q-125 -119 -371 -119zM543 -596v223q-90 17 -90 107v6q0 53 28 78.5t72 25.5h2q56 0 81.5 -31.5t25.5 -101.5q0 -109 -44 -307h-75z" />
    <glyph glyph-name="scommaaccent" unicode="&#x219;" horiz-adv-x="909" 
d="M408 -29q-164 0 -295 43l8 131q128 -36 280 -36q123 0 187.5 40t64.5 117q0 45 -31 77.5t-80 51.5t-108.5 36.5t-119.5 40.5t-109 54t-80 86.5t-31 130.5q0 142 99.5 215.5t265.5 73.5q155 0 293 -43l-15 -125q-148 33 -264 33q-219 0 -219 -141q0 -45 31 -78t80 -53
t109 -38t119.5 -41.5t108.5 -54.5t80 -85t31 -127q0 -155 -108 -231.5t-297 -76.5zM440 -596v223q-90 17 -90 107v6q0 53 28 78.5t73 25.5h2q56 0 81 -31.5t25 -101.5q0 -113 -43 -307h-76z" />
    <glyph glyph-name="uni021A" unicode="&#x21a;" horiz-adv-x="1165" 
d="M492 0v1257h-447v144h1083l-16 -144h-438v-1257h-182zM569 -596v223q-90 17 -90 107v6q0 53 28 78.5t73 25.5h2q56 0 81 -31.5t25 -101.5q0 -113 -43 -307h-76z" />
    <glyph glyph-name="uni021B" unicode="&#x21b;" horiz-adv-x="747" 
d="M492 -29q-155 0 -224 78q-36 42 -49.5 98t-13.5 152v580h-182v96l182 26v238q95 31 170 31v-266h264v-125h-264v-557q0 -76 7 -115.5t28 -61.5q36 -39 129 -39q68 0 151 17l8 -125q-102 -27 -206 -27zM451 -596v223q-42 8 -66.5 35t-24.5 72v6q0 53 28 78.5t73 25.5h2
q56 0 81 -31.5t25 -101.5q0 -113 -43 -307h-75z" />
    <glyph glyph-name="uni0237" unicode="&#x237;" horiz-adv-x="464" 
d="M-125 -483l-18 137q172 3 233 72q32 36 44.5 92t12.5 149v1037h170v-1010q0 -146 -23.5 -230t-80.5 -143q-101 -104 -338 -104z" />
    <glyph glyph-name="circumflex" unicode="&#x2c6;" horiz-adv-x="839" 
d="M166 1167l-62 62l244 301h146l241 -301l-61 -62l-254 219z" />
    <glyph glyph-name="caron" unicode="&#x2c7;" horiz-adv-x="839" 
d="M348 1190l-244 301l62 61l254 -219l254 219l61 -61l-241 -301h-146z" />
    <glyph glyph-name="breve" unicode="&#x2d8;" horiz-adv-x="839" 
d="M420 1194q-142 0 -211 77t-72 202l115 2q10 -75 49 -114.5t119 -39.5t119 39.5t49 114.5l114 -2q-3 -125 -71.5 -202t-210.5 -77z" />
    <glyph glyph-name="dotaccent" unicode="&#x2d9;" horiz-adv-x="839" 
d="M406 1231q-103 0 -103 110v13q0 110 103 110h26q103 0 103 -110v-13q0 -110 -103 -110h-26z" />
    <glyph glyph-name="ring" unicode="&#x2da;" horiz-adv-x="839" 
d="M416 1178q-106 0 -168 54.5t-62 162.5v18q0 108 62 162.5t168 54.5h8q106 0 167.5 -54t61.5 -163v-18q0 -109 -61.5 -163t-167.5 -54h-8zM418 1282h4q59 0 88 27.5t29 89.5v10q0 62 -29 89.5t-88 27.5h-4q-59 0 -88 -27.5t-29 -89.5v-10q0 -62 29 -89.5t88 -27.5z" />
    <glyph glyph-name="ogonek" unicode="&#x2db;" horiz-adv-x="839" 
d="M446 -455q-109 0 -166 52.5t-57 146.5q0 87 57 162.5t150 124.5h123q-188 -138 -188 -269q0 -50 31 -76t89 -26q61 0 129 14v-106q-94 -23 -168 -23z" />
    <glyph glyph-name="tilde" unicode="&#x2dc;" horiz-adv-x="839" 
d="M199 1251l-97 17q8 101 52.5 157t119.5 56q57 0 153.5 -40t129.5 -40q32 0 52 18.5t30 63.5l96 -17q-8 -101 -52.5 -157t-119.5 -56q-57 0 -153 40t-129 40q-32 0 -52 -18.5t-30 -63.5z" />
    <glyph glyph-name="hungarumlaut" unicode="&#x2dd;" horiz-adv-x="839" 
d="M111 1184l-78 63l293 385l112 -108zM479 1184l-78 63l293 385l113 -108z" />
    <glyph glyph-name="gravecomb" unicode="&#x300;" 
d="M-258 1165l-391 281l96 129l360 -320z" />
    <glyph glyph-name="acutecomb" unicode="&#x301;" 
d="M-584 1165l-65 90l360 320l96 -129z" />
    <glyph glyph-name="uni0302" unicode="&#x302;" 
d="M-674 1167l-61 62l243 301h146l242 -301l-62 -62l-254 219z" />
    <glyph glyph-name="tildecomb" unicode="&#x303;" 
d="M-641 1251l-96 17q8 101 52.5 157t119.5 56q57 0 153 -40t129 -40q32 0 52 18.5t30 63.5l97 -17q-8 -101 -52.5 -157t-119.5 -56q-57 0 -153.5 40t-129.5 40q-32 0 -52 -18.5t-30 -63.5z" />
    <glyph glyph-name="uni0304" unicode="&#x304;" 
d="M-688 1272v137h536v-137h-536z" />
    <glyph glyph-name="uni0306" unicode="&#x306;" 
d="M-420 1194q-142 0 -210.5 77t-71.5 202l114 2q10 -75 49 -114.5t119 -39.5t119 39.5t49 114.5l115 -2q-3 -125 -72 -202t-211 -77z" />
    <glyph glyph-name="uni0307" unicode="&#x307;" 
d="M-434 1231q-103 0 -103 110v13q0 110 103 110h26q103 0 103 -110v-13q0 -110 -103 -110h-26z" />
    <glyph glyph-name="uni0308" unicode="&#x308;" 
d="M-623 1241q-50 0 -74 23.5t-24 74.5v23q0 51 24 74.5t74 23.5h19q50 0 74 -23.5t24 -74.5v-23q0 -51 -24 -74.5t-74 -23.5h-19zM-236 1241q-50 0 -74 23.5t-24 74.5v23q0 51 24 74.5t74 23.5h19q50 0 74 -23.5t24 -74.5v-23q0 -51 -24 -74.5t-74 -23.5h-19z" />
    <glyph glyph-name="uni030A" unicode="&#x30a;" 
d="M-424 1178q-106 0 -167.5 54t-61.5 163v18q0 109 61.5 163t167.5 54h8q106 0 168 -54.5t62 -162.5v-18q0 -108 -62 -162.5t-168 -54.5h-8zM-422 1282h4q59 0 88 27.5t29 89.5v10q0 62 -29 89.5t-88 27.5h-4q-59 0 -88 -27.5t-29 -89.5v-10q0 -62 29 -89.5t88 -27.5z" />
    <glyph glyph-name="uni030B" unicode="&#x30b;" 
d="M-729 1184l-78 63l293 385l113 -108zM-360 1184l-78 63l293 385l112 -108z" />
    <glyph glyph-name="uni030C" unicode="&#x30c;" 
d="M-492 1190l-243 301l61 61l254 -219l254 219l62 -61l-242 -301h-146z" />
    <glyph glyph-name="uni0326" unicode="&#x326;" 
d="M-434 -596v223q-90 17 -90 107v6q0 53 28 78.5t72 25.5h2q56 0 81.5 -31.5t25.5 -101.5q0 -113 -43 -307h-76z" />
    <glyph glyph-name="uni0327" unicode="&#x327;" 
d="M-449 -469q-73 0 -157 25v106q72 -16 137 -16q104 0 104 57q0 23 -24 39.5t-59 28t-69.5 26t-58.5 42t-24 65.5q0 57 53 110h94q-18 -36 -18 -67q0 -21 24.5 -36.5t59.5 -28.5t70 -30.5t59.5 -52.5t24.5 -86q0 -87 -57 -134.5t-159 -47.5z" />
    <glyph glyph-name="uni0328" unicode="&#x328;" 
d="M-393 -455q-109 0 -166 52.5t-57 146.5q0 88 56.5 163t149.5 124h123q-188 -138 -188 -269q0 -49 31 -75.5t90 -26.5q61 0 129 14v-106q-94 -23 -168 -23z" />
    <glyph glyph-name="uni0394" unicode="&#x394;" horiz-adv-x="1280" 
d="M82 0v66q0 49 18 102l430 1233h207l441 -1233q20 -56 20 -125v-43h-1116zM266 133h742l-375 1088z" />
    <glyph glyph-name="uni03A9" unicode="&#x3a9;" horiz-adv-x="1392" 
d="M160 0v135h270q-144 108 -225.5 275t-81.5 368q0 296 155 472.5t418 176.5t418.5 -176.5t155.5 -472.5q0 -201 -81.5 -368t-225.5 -275h270v-135h-467v78q0 30 8 46.5t37 43.5q274 249 274 600q0 237 -102.5 370.5t-286.5 133.5t-286.5 -133.5t-102.5 -370.5
q0 -350 275 -600q29 -27 37 -43.5t8 -46.5v-78h-467z" />
    <glyph glyph-name="uni03BC" unicode="&#x3bc;" horiz-adv-x="1114" 
d="M143 -461v1465h170v-662q0 -121 49 -170q51 -51 162 -51q140 0 277 65v818h170v-1004h-142l-8 74q-170 -103 -342 -103q-90 0 -166 29v-461h-170z" />
    <glyph glyph-name="pi" unicode="&#x3c0;" horiz-adv-x="1255" 
d="M223 0v879h-170v125h1149v-125h-170v-879h-170v879h-469v-879h-170z" />
    <glyph glyph-name="Wgrave" unicode="&#x1e80;" horiz-adv-x="1812" 
d="M1079 1554l-391 281l96 129l361 -319zM432 0l-391 1401h186l318 -1186h4l272 1186h191l299 -1178h4l287 1178h170l-359 -1401h-215l-280 1116h-5l-260 -1116h-221z" />
    <glyph glyph-name="wgrave" unicode="&#x1e81;" horiz-adv-x="1466" 
d="M895 1165l-391 281l96 129l361 -320zM326 0l-293 1004h172l225 -826l215 826h172l244 -836l215 836h158l-279 -1004h-194l-230 768l-209 -768h-196z" />
    <glyph glyph-name="Wacute" unicode="&#x1e82;" horiz-adv-x="1812" 
d="M754 1554l-66 91l361 319l96 -129zM432 0l-391 1401h186l318 -1186h4l272 1186h191l299 -1178h4l287 1178h170l-359 -1401h-215l-280 1116h-5l-260 -1116h-221z" />
    <glyph glyph-name="wacute" unicode="&#x1e83;" horiz-adv-x="1466" 
d="M569 1165l-65 90l360 320l97 -129zM326 0l-293 1004h172l225 -826l215 826h172l244 -836l215 836h158l-279 -1004h-194l-230 768l-209 -768h-196z" />
    <glyph glyph-name="Wdieresis" unicode="&#x1e84;" horiz-adv-x="1812" 
d="M715 1630q-99 0 -99 99v22q0 98 99 98h18q50 0 74 -23.5t24 -74.5v-22q0 -99 -98 -99h-18zM1102 1630q-98 0 -98 99v22q0 51 24 74.5t74 23.5h18q99 0 99 -98v-22q0 -99 -99 -99h-18zM432 0l-391 1401h186l318 -1186h4l272 1186h191l299 -1178h4l287 1178h170l-359 -1401
h-215l-280 1116h-5l-260 -1116h-221z" />
    <glyph glyph-name="wdieresis" unicode="&#x1e85;" horiz-adv-x="1466" 
d="M530 1241q-50 0 -74 23.5t-24 74.5v23q0 51 24 74.5t74 23.5h19q50 0 74 -23.5t24 -74.5v-23q0 -51 -24 -74.5t-74 -23.5h-19zM918 1241q-99 0 -99 98v23q0 98 99 98h18q50 0 74 -23.5t24 -74.5v-23q0 -51 -24 -74.5t-74 -23.5h-18zM326 0l-293 1004h172l225 -826
l215 826h172l244 -836l215 836h158l-279 -1004h-194l-230 768l-209 -768h-196z" />
    <glyph glyph-name="Ygrave" unicode="&#x1ef2;" horiz-adv-x="1177" 
d="M711 1554l-392 281l97 129l360 -319zM487 0v573l-454 828h200l357 -674l371 674h184l-475 -832v-569h-183z" />
    <glyph glyph-name="ygrave" unicode="&#x1ef3;" horiz-adv-x="1110" 
d="M670 1165l-391 281l96 129l360 -320zM549 -489q-113 0 -203 20l-14 133q98 -12 192 -12q149 0 209 55q64 61 64 217v137q-158 -90 -322 -90q-167 0 -252 88q-84 84 -84 263v682h170v-662q0 -121 49 -170q51 -51 162 -51q140 0 277 65v818h170v-1082q0 -201 -93 -301
q-101 -110 -325 -110z" />
    <glyph glyph-name="endash" unicode="&#x2013;" horiz-adv-x="1024" 
d="M0 459v145h1024v-145h-1024z" />
    <glyph glyph-name="emdash" unicode="&#x2014;" horiz-adv-x="2048" 
d="M0 459v145h2048v-145h-2048z" />
    <glyph glyph-name="quoteleft" unicode="&#x2018;" horiz-adv-x="448" 
d="M240 938q-61 0 -89 33t-28 108q0 61 14.5 166.5t32.5 181.5h80v-256q96 -20 96 -116v-6q0 -111 -104 -111h-2z" />
    <glyph glyph-name="quoteright" unicode="&#x2019;" horiz-adv-x="448" 
d="M199 938v256q-97 20 -97 117v6q0 110 105 110h2q61 0 89 -33t28 -108q0 -61 -14.5 -166.5t-32.5 -181.5h-80z" />
    <glyph glyph-name="quotesinglbase" unicode="&#x201a;" horiz-adv-x="448" 
d="M199 -313v256q-97 20 -97 116v7q0 110 105 110h2q61 0 89 -33t28 -108q0 -61 -14.5 -166.5t-32.5 -181.5h-80z" />
    <glyph glyph-name="quotedblleft" unicode="&#x201c;" horiz-adv-x="788" 
d="M240 938q-61 0 -89 33t-28 108q0 61 14.5 166.5t32.5 181.5h80v-256q96 -20 96 -116v-6q0 -111 -104 -111h-2zM580 938q-61 0 -89 33t-28 108q0 61 14.5 166.5t32.5 181.5h80v-256q96 -20 96 -116v-6q0 -111 -104 -111h-2z" />
    <glyph glyph-name="quotedblright" unicode="&#x201d;" horiz-adv-x="788" 
d="M199 938v256q-97 20 -97 117v6q0 110 105 110h2q61 0 89 -33t28 -108q0 -61 -14.5 -166.5t-32.5 -181.5h-80zM539 938v256q-97 20 -97 117v6q0 110 105 110h2q61 0 89 -33t28 -108q0 -60 -15 -165.5t-33 -182.5h-79z" />
    <glyph glyph-name="quotedblbase" unicode="&#x201e;" horiz-adv-x="788" 
d="M199 -313v256q-97 20 -97 116v7q0 110 105 110h2q61 0 89 -33t28 -108q0 -61 -14.5 -166.5t-32.5 -181.5h-80zM539 -313v256q-97 20 -97 116v7q0 110 105 110h2q61 0 89 -33t28 -108q0 -60 -15 -165.5t-33 -182.5h-79z" />
    <glyph glyph-name="dagger" unicode="&#x2020;" horiz-adv-x="1054" 
d="M442 -485l19 1259l-391 -18v159l391 -22l-21 508h174l-20 -508l391 22v-159l-391 18l18 -1259h-170z" />
    <glyph glyph-name="daggerdbl" unicode="&#x2021;" horiz-adv-x="1054" 
d="M440 -485l21 508l-391 -23v160l391 -19v633l-391 -18v159l391 -22l-21 508h174l-20 -508l391 22v-159l-391 18v-633l391 19v-160l-391 23l20 -508h-174z" />
    <glyph glyph-name="bullet" unicode="&#x2022;" horiz-adv-x="745" 
d="M354 438q-119 0 -178 57.5t-59 186.5v33q0 129 59 186t178 57h37q119 0 178.5 -57t59.5 -186v-33q0 -129 -59.5 -186.5t-178.5 -57.5h-37z" />
    <glyph glyph-name="ellipsis" unicode="&#x2026;" horiz-adv-x="1394" 
d="M225 -29q-102 0 -102 111v8q0 111 102 111h15q102 0 102 -111v-8q0 -111 -102 -111h-15zM690 -29q-102 0 -102 111v8q0 111 102 111h15q102 0 102 -111v-8q0 -111 -102 -111h-15zM1155 -29q-102 0 -102 111v8q0 111 102 111h14q103 0 103 -111v-8q0 -111 -103 -111h-14z
" />
    <glyph glyph-name="perthousand" unicode="&#x2030;" horiz-adv-x="2682" 
d="M449 600q-88 0 -154.5 33t-105.5 91t-58.5 131t-19.5 159t19.5 159t58.5 131t105.5 90.5t154.5 32.5q71 0 128 -21.5t95.5 -59.5t64.5 -90.5t37.5 -112.5t11.5 -129q0 -86 -19 -159t-58 -131t-105.5 -91t-154.5 -33zM510 -29l719 1456h151l-716 -1456h-154zM449 741
q99 0 139.5 69t40.5 204t-40.5 203.5t-139.5 68.5t-140 -69t-41 -203t41 -203.5t140 -69.5zM1442 -29q-88 0 -154.5 33t-105.5 91t-58.5 131t-19.5 159t19.5 159t58.5 131t105.5 91t154.5 33t154.5 -33t105.5 -91t58.5 -131t19.5 -159t-19.5 -159t-58.5 -131t-105.5 -91
t-154.5 -33zM2230 -29q-88 0 -154.5 33t-105.5 91t-58.5 131t-19.5 159t19.5 159t58.5 131t105.5 91t154.5 33t154.5 -33t105.5 -91t58.5 -131t19.5 -159t-19.5 -159t-58.5 -131t-105.5 -91t-154.5 -33zM1442 113q99 0 139.5 68.5t40.5 203.5t-40.5 203.5t-139.5 68.5
t-139.5 -68.5t-40.5 -203.5t40.5 -203.5t139.5 -68.5zM2230 113q99 0 139.5 68.5t40.5 203.5t-40.5 203.5t-139.5 68.5t-139.5 -68.5t-40.5 -203.5t40.5 -203.5t139.5 -68.5z" />
    <glyph glyph-name="guilsinglleft" unicode="&#x2039;" horiz-adv-x="690" 
d="M479 113l-270 307q-36 40 -49 65t-13 52t13 51.5t49 64.5l270 308l80 -66l-244 -358l244 -359z" />
    <glyph glyph-name="guilsinglright" unicode="&#x203a;" horiz-adv-x="690" 
d="M211 113l-80 65l244 359l-244 358l80 66l270 -308q36 -40 49 -64.5t13 -51.5t-13 -52t-49 -65z" />
    <glyph glyph-name="fraction" unicode="&#x2044;" horiz-adv-x="837" 
d="M-18 -29l718 1456h156l-717 -1456h-157z" />
    <glyph glyph-name="Euro" unicode="&#x20ac;" horiz-adv-x="1130" 
d="M799 -29q-255 0 -388 129t-169 394h-160v94l147 18q-2 25 -2 125h-145v94l154 19q28 286 165 434.5t385 148.5q154 0 279 -38v-136q-139 29 -256 29q-190 0 -282 -107t-113 -327h411v-117h-419q0 -96 2 -121h417v-116h-403q25 -197 122 -289t281 -92q127 0 265 32v-135
q-164 -39 -291 -39z" />
    <glyph glyph-name="uni2113" unicode="&#x2113;" horiz-adv-x="460" 
d="M145 0v1464h170v-1464h-170z" />
    <glyph glyph-name="uni2116" unicode="&#x2116;" horiz-adv-x="2174" 
d="M170 0v1401h127l768 -1090v1090h162v-1401h-140l-755 1067v-1067h-162zM1731 485q-164 0 -259.5 98.5t-95.5 274.5t95.5 274.5t259.5 98.5t259 -98.5t95 -274.5t-95 -274.5t-259 -98.5zM1731 610q98 0 151 64.5t53 183.5t-53 183.5t-151 64.5t-151.5 -64.5t-53.5 -183.5
t53.5 -183.5t151.5 -64.5z" />
    <glyph glyph-name="trademark" unicode="&#x2122;" horiz-adv-x="1390" 
d="M227 739v557h-202v105h534v-105h-203v-557h-129zM659 739v662h123l197 -414l205 414h116v-662h-122v416l-158 -317h-88l-156 321v-420h-117z" />
    <glyph glyph-name="uni2126" unicode="&#x2126;" horiz-adv-x="1392" 
d="M160 0v135h270q-144 108 -225.5 275t-81.5 368q0 296 155 472.5t418 176.5t418.5 -176.5t155.5 -472.5q0 -201 -81.5 -368t-225.5 -275h270v-135h-467v78q0 30 8 46.5t37 43.5q274 249 274 600q0 237 -102.5 370.5t-286.5 133.5t-286.5 -133.5t-102.5 -370.5
q0 -350 275 -600q29 -27 37 -43.5t8 -46.5v-78h-467z" />
    <glyph glyph-name="estimated" unicode="&#x212e;" horiz-adv-x="1830" 
d="M918 -29q-166 0 -316.5 57.5t-260 154.5t-174.5 232t-65 283q0 199 109.5 367t297.5 265t409 97q164 0 313.5 -57.5t259 -154.5t174 -232.5t64.5 -284.5v-16h-1315q-15 0 -15 -12v-398q0 -21 23 -47q94 -98 223.5 -153.5t274.5 -55.5q155 0 290.5 63.5t229.5 174.5h121
q-117 -131 -285 -207t-358 -76zM414 721h1003q15 0 15 12v402q0 24 -25 49q-95 95 -221.5 147.5t-265.5 52.5q-146 0 -273.5 -54t-224.5 -152q-23 -26 -23 -54v-391q0 -12 15 -12z" />
    <glyph glyph-name="partialdiff" unicode="&#x2202;" horiz-adv-x="1130" 
d="M541 -29q-212 0 -328.5 130t-116.5 339q0 204 104 312t289 108q156 0 338 -76q-5 128 -26.5 218.5t-65.5 156.5t-115.5 97.5t-173.5 31.5q-93 0 -215 -16v131q117 24 230 24q252 0 379 -151q164 -194 164 -649q0 -155 -24.5 -272.5t-78 -205t-144 -133t-216.5 -45.5z
M537 111q159 0 225.5 121.5t66.5 355.5v82q-161 53 -305 53q-136 0 -196 -73t-60 -220q0 -149 69.5 -234t199.5 -85z" />
    <glyph glyph-name="uni2206" unicode="&#x2206;" horiz-adv-x="1280" 
d="M82 0v66q0 49 18 102l430 1233h207l441 -1233q20 -56 20 -125v-43h-1116zM266 133h742l-375 1088z" />
    <glyph glyph-name="product" unicode="&#x220f;" horiz-adv-x="1486" 
d="M281 -461v1723h-183v139h1291v-139h-183v-1723h-182v1723h-561v-1723h-182z" />
    <glyph glyph-name="summation" unicode="&#x2211;" horiz-adv-x="1259" 
d="M135 -461v103l598 833l-606 823v103h997v-139h-768l570 -779l-580 -805h799v-139h-1010z" />
    <glyph glyph-name="minus" unicode="&#x2212;" horiz-adv-x="1105" 
d="M213 610v129h680v-129h-680z" />
    <glyph glyph-name="radical" unicode="&#x221a;" horiz-adv-x="1349" 
d="M631 0l-330 879h-145v125h278l297 -826l426 1319h160l-500 -1497h-186z" />
    <glyph glyph-name="infinity" unicode="&#x221e;" horiz-adv-x="1404" 
d="M987 330q-169 0 -276 192q-131 -188 -297 -188q-144 0 -222.5 101t-78.5 261q0 157 79.5 260t225.5 103q169 0 276 -193q132 189 297 189q144 0 222.5 -101.5t78.5 -261.5q0 -157 -79.5 -259.5t-225.5 -102.5zM991 477q75 0 117.5 58t42.5 159q0 104 -44.5 162.5
t-125.5 58.5q-68 0 -120 -40.5t-109 -126.5q64 -139 94 -182q62 -89 145 -89zM424 473q68 0 120 41t109 127q-65 140 -96 183q-61 87 -143 87q-75 0 -117.5 -58t-42.5 -159q0 -104 44.5 -162.5t125.5 -58.5z" />
    <glyph glyph-name="integral" unicode="&#x222b;" horiz-adv-x="1069" 
d="M285 -489q-66 0 -156 12v129q70 -8 135 -8q105 0 148 49q24 28 32.5 72t8.5 122v1260q0 204 84 291q84 84 249 84q58 0 156 -13v-129q-79 9 -135 9q-104 0 -148 -50q-24 -28 -32.5 -72t-8.5 -122v-1260q0 -205 -83 -291q-83 -83 -250 -83z" />
    <glyph glyph-name="approxequal" unicode="&#x2248;" horiz-adv-x="1105" 
d="M729 764q-62 0 -183 39t-161 39q-30 0 -46.5 -16t-23.5 -54l-90 14q4 92 43 138.5t109 46.5q61 0 181.5 -38t162.5 -38q30 0 46.5 16t23.5 54l90 -17q-9 -184 -152 -184zM729 387q-62 0 -183 39t-161 39q-29 0 -46 -17t-24 -55l-90 17q9 184 152 184q61 0 181.5 -39
t162.5 -39q30 0 46.5 16t23.5 54q38 -5 90 -15q-9 -184 -152 -184z" />
    <glyph glyph-name="notequal" unicode="&#x2260;" horiz-adv-x="1814" 
d="M1608 788v-174h-611v-614h-182v614h-608v174h608v613h182v-613h611z" />
    <glyph glyph-name="lessequal" unicode="&#x2264;" horiz-adv-x="1105" 
d="M893 268l-680 338v139l680 340v-147l-535 -262l535 -256v-152zM213 0v129h680v-129h-680z" />
    <glyph glyph-name="greaterequal" unicode="&#x2265;" horiz-adv-x="1105" 
d="M213 268v152l535 256l-535 262v147l680 -340v-139zM213 0v129h680v-129h-680z" />
    <glyph glyph-name="lozenge" unicode="&#x25ca;" horiz-adv-x="1183" 
d="M500 0l-361 575q-49 79 -49 125t49 125l361 576h184l360 -576q50 -81 50 -125t-50 -125l-360 -575h-184zM592 147l342 553l-342 553l-342 -553z" />
    <glyph glyph-name="uniF8FF" unicode="&#xf8ff;" horiz-adv-x="1241" 
d="M205 0v1401h831v-135h-692v-1127h154v-139h-293zM481 430v137h420v142h-420v415h555v-139h-413v-137h413v-418h-555z" />
    <glyph glyph-name="i.loclTRK" horiz-adv-x="464" 
d="M219 1231q-102 0 -102 110v13q0 110 102 110h27q102 0 102 -110v-13q0 -110 -102 -110h-27zM147 0v1004h170v-1004h-170z" />
    <glyph glyph-name="notequal.ss01" horiz-adv-x="1105" 
d="M305 139l98 287h-190v129h233l82 240h-315v129h360l99 288h133l-100 -288h188v-129h-234l-81 -240h315v-129h-361l-98 -287h-129z" />
    <glyph glyph-name="plus.ss01" horiz-adv-x="1814" 
d="M1608 788v-174h-611v-614h-182v614h-608v174h608v613h182v-613h611z" />
    <glyph glyph-name="uni0308.case" 
d="M-623 1630q-98 0 -98 99v22q0 51 24 74.5t74 23.5h19q50 0 74 -23.5t24 -74.5v-22q0 -99 -98 -99h-19zM-236 1630q-98 0 -98 99v22q0 51 24 74.5t74 23.5h19q50 0 74 -23.5t24 -74.5v-22q0 -99 -98 -99h-19z" />
    <glyph glyph-name="uni0307.case" 
d="M-434 1620q-103 0 -103 111v12q0 110 103 110h26q103 0 103 -110v-12q0 -111 -103 -111h-26z" />
    <glyph glyph-name="gravecomb.case" 
d="M-258 1554l-391 281l96 129l360 -319z" />
    <glyph glyph-name="acutecomb.case" 
d="M-584 1554l-65 91l360 319l96 -129z" />
    <glyph glyph-name="uni030B.case" 
d="M-729 1573l-78 63l293 385l113 -108zM-360 1573l-78 63l293 385l112 -108z" />
    <glyph glyph-name="uni0302.case" 
d="M-674 1559l-61 61l243 301h146l242 -301l-62 -61l-254 219z" />
    <glyph glyph-name="uni030C.case" 
d="M-492 1579l-243 301l61 62l254 -220l254 220l62 -62l-242 -301h-146z" />
    <glyph glyph-name="uni0306.case" 
d="M-420 1583q-142 0 -210.5 77t-71.5 202l114 2q10 -75 49 -114.5t119 -39.5t119 39.5t49 114.5l115 -2q-3 -125 -72 -202t-211 -77z" />
    <glyph glyph-name="uni030A.case" 
d="M-424 1567q-106 0 -167.5 54t-61.5 163v18q0 109 61.5 163t167.5 54h8q106 0 168 -54.5t62 -162.5v-18q0 -108 -62 -162.5t-168 -54.5h-8zM-422 1671h4q59 0 88 27.5t29 89.5v10q0 62 -29 89.5t-88 27.5h-4q-59 0 -88 -27.5t-29 -89.5v-10q0 -62 29 -89.5t88 -27.5z" />
    <glyph glyph-name="tildecomb.case" 
d="M-641 1651l-96 16q8 101 52.5 157t119.5 56q57 0 153 -40t129 -40q32 0 52 18.5t30 63.5l97 -16q-8 -101 -52.5 -157t-119.5 -56q-57 0 -153.5 40t-129.5 40q-32 0 -52 -18.5t-30 -63.5z" />
    <glyph glyph-name="uni0304.case" 
d="M-688 1661v137h536v-137h-536z" />
    <glyph glyph-name="acute.case" horiz-adv-x="839" 
d="M256 1554l-66 91l361 319l96 -129z" />
    <glyph glyph-name="breve.case" horiz-adv-x="839" 
d="M420 1583q-142 0 -211 77t-72 202l115 2q10 -75 49 -114.5t119 -39.5t119 39.5t49 114.5l114 -2q-3 -125 -71.5 -202t-210.5 -77z" />
    <glyph glyph-name="caron.case" horiz-adv-x="839" 
d="M348 1579l-244 301l62 62l254 -220l254 220l61 -62l-241 -301h-146z" />
    <glyph glyph-name="circumflex.case" horiz-adv-x="839" 
d="M166 1559l-62 61l244 301h146l241 -301l-61 -61l-254 219z" />
    <glyph glyph-name="dieresis.case" horiz-adv-x="839" 
d="M217 1630q-98 0 -98 99v22q0 51 24 74.5t74 23.5h19q50 0 74 -23.5t24 -74.5v-22q0 -99 -98 -99h-19zM604 1630q-98 0 -98 99v22q0 51 24 74.5t74 23.5h19q50 0 74 -23.5t24 -74.5v-22q0 -99 -98 -99h-19z" />
    <glyph glyph-name="dotaccent.case" horiz-adv-x="839" 
d="M406 1620q-103 0 -103 111v12q0 110 103 110h26q103 0 103 -110v-12q0 -111 -103 -111h-26z" />
    <glyph glyph-name="grave.case" horiz-adv-x="839" 
d="M582 1554l-392 281l97 129l360 -319z" />
    <glyph glyph-name="hungarumlaut.case" horiz-adv-x="839" 
d="M111 1573l-78 63l293 385l112 -108zM479 1573l-78 63l293 385l113 -108z" />
    <glyph glyph-name="macron.case" horiz-adv-x="839" 
d="M152 1661v137h536v-137h-536z" />
    <glyph glyph-name="ring.case" horiz-adv-x="839" 
d="M416 1567q-106 0 -168 54.5t-62 162.5v18q0 108 62 162.5t168 54.5h8q106 0 167.5 -54t61.5 -163v-18q0 -109 -61.5 -163t-167.5 -54h-8zM418 1671h4q59 0 88 27.5t29 89.5v10q0 62 -29 89.5t-88 27.5h-4q-59 0 -88 -27.5t-29 -89.5v-10q0 -62 29 -89.5t88 -27.5z" />
    <glyph glyph-name="tilde.case" horiz-adv-x="839" 
d="M199 1651l-97 16q8 101 52.5 157t119.5 56q57 0 153.5 -40t129.5 -40q32 0 52 18.5t30 63.5l96 -16q-8 -101 -52.5 -157t-119.5 -56q-57 0 -153 40t-129 40q-32 0 -52 -18.5t-30 -63.5z" />
    </font>
</defs>
</svg>
