<svg xmlns="http://www.w3.org/2000/svg" viewBox="0 0 344.17 106.69">
<defs><style>.cls-1{fill:#00B5E2;}</style></defs><title>Asset 1</title>
<g id="Layer_2" data-name="Layer 2"><g id="Layer_1-2" data-name="Layer 1">
<path class="cls-1" d="M292.54,38.81,240.91,3.74v103H344.17V3.46Z"/>
<path class="cls-1" d="M344,23.79a0,0,0,0,0,0,0s0,0,0,0a0,0,0,0,0,0,0S344,23.79,344,23.79Z"/>
<path class="cls-1" d="M51.6,3.46v14.3c0,.13,0,.25,0,.38V63.66L39,55.09H0a51.6,51.6,0,0,0,103.2,0h0V3.46Z"/>
<path class="cls-1" d="M170.81,0a53.35,53.35,0,0,0,0,106.69h53.35V53.34A53.34,53.34,0,0,0,170.81,0"/></g></g></svg>