<svg xmlns="http://www.w3.org/2000/svg" xmlns:xlink="http://www.w3.org/1999/xlink" width="500" height="4900" focusable="false">
	
	<defs>
		<!-- CSS -->
		<style type="text/css">
			.cx-icon {
				fill: #000;
			}
			.cx-icon.white {
				fill: #fff;
			}
			.cx-icon.blue {
				fill: #006da4;
			}
			.cx-icon.red {
				fill: #d70000;
			}
			.cx-icon.green {
				fill: #84bd00;
			}
		</style>
		
		<!-- ICON DEFINITIONS -->
		<symbol id="activity-beach">
			<path d="M75.71,34c-6.94-7.57-13.31-8.26-17.55-7.43,2.11-10.43,5.54-10.68,5.54-10.68-6.06,0-11.39,5.46-14.32,9.17-3.37-2.48-9.6-5.3-20.49-5.3A35.64,35.64,0,0,1,41,29.75C26.93,27.57,23.47,45.18,24.44,44,30.59,36.92,41,39.16,41,39.16c-6.75,6.27-3.7,18-3.7,18C42.26,49.67,47,46.22,51.24,45.06c-2.37,12.48-8,34.58-18.66,39H51s9.81-11.57,3.77-39.5c8.13,0,13.64,7.73,13.64,7.73a17.29,17.29,0,0,0-9.32-15.53C63.71,30.4,75.71,34,75.71,34" />
		</symbol>
		<symbol id="activity-camping">
			<path d="M85.16,56.5,39.43,81.7,27.64,32.32l46.74-14ZM14.84,68.7,23,72.56l2.54-33Zm11.1,5.17L35,79.16l-7.3-34.31Z" />
		</symbol>
		<symbol id="activity-chef">
			<path d="M63.13,13.17H58.78V48.71h-3V13.17H51.48V48.71H48.53V13.17H44.19V48.71h-3V13.17H36.89V48.71h0V63.85H37a13.11,13.11,0,0,0,8.75,10.54V86.83h8.43V74.39A13.12,13.12,0,0,0,63,63.85h.17Z" />
		</symbol>
		<symbol id="activity-gardening">
			<path d="M30.47,62.4a92.84,92.84,0,0,0,39.21-.31L63.47,86.51c-1.86,2.28-25.66,1.86-27.31-.21L30.47,62.4M26,51.75l1.86,8.48c11.38,3.73,28.66,4.14,44,0l1.76-8.9c-3.73,5-43.14,5.38-47.59.42m24.59-3.3V45.86l15.92-9.41.22-.85-.85-.22-15.29,9V32l0,0v-8.5L50,22.85l-.62.62V34.4l0,0v10l-15.26-9-.85.22.22.85,15.89,9.39v2.6c-12.23,0-22.1,1.16-22.1,2.58s9.9,3,22.24,3S72,52.45,72,51,62.48,48.51,50.61,48.45ZM76.27,30.31c-4.59-4.22-17.3-2.53-19.57,9l8.56-5a1.86,1.86,0,0,1,1.89,3.21l-8.52,5C69.7,46,77.37,36.26,76.27,30.31M48.1,33.41V23.47a1.86,1.86,0,1,1,3.72,0v9.89C60.4,25.56,55.92,14,50.23,12c-6,1.81-11,13.63-2.13,21.45M32.19,35a1.87,1.87,0,0,1,2.55-.66l8.56,5c-2.27-11.57-15-13.27-19.57-9-1.1,6,6.57,15.67,17.64,12.23l-8.52-5A1.86,1.86,0,0,1,32.19,35" />
		</symbol>
		<symbol id="activity-nursing">
			<path d="M58.65,76a1.08,1.08,0,0,0,1.09-1.09V59.74H74.89A1.08,1.08,0,0,0,76,58.65V41.35a1.08,1.08,0,0,0-1.09-1.09H59.74V25.11A1.08,1.08,0,0,0,58.65,24H41.35a1.08,1.08,0,0,0-1.09,1.09V40.26H25.11A1.08,1.08,0,0,0,24,41.35v17.3a1.08,1.08,0,0,0,1.09,1.09H40.26V74.89A1.08,1.08,0,0,0,41.35,76Z" />
		</symbol>
		<symbol id="activity-shower">
			<path d="M60.92,64.7a2.27,2.27,0,0,1,0,2.85,2.44,2.44,0,0,1-2.47,1,2.26,2.26,0,0,1-1.94-2,30.85,30.85,0,0,1,.33-5.8l.24-.11c.68.65,3.29,3.35,3.84,4.1m8.17-11.81c-.86-.35-4.52-1.24-5.44-1.44l-.14.22a31.24,31.24,0,0,0,2.82,5.11,2.26,2.26,0,0,0,2.73.68,2.44,2.44,0,0,0,1.57-2.15,2.3,2.3,0,0,0-1.53-2.42m-3.85,24c-.53-.76-3.1-3.49-3.77-4.16l-.24.1a31.46,31.46,0,0,0-.43,5.79,2.25,2.25,0,0,0,1.91,2,2.44,2.44,0,0,0,2.49-.93,2.26,2.26,0,0,0,0-2.85M88.92,42.51c-.92.13-4.53,1.18-5.44,1.47v.26a31.56,31.56,0,0,0,5,3,2.25,2.25,0,0,0,2.7-.77,2.44,2.44,0,0,0,.29-2.64,2.3,2.3,0,0,0-2.53-1.34M76,39.91c-.92.11-4.56,1.07-5.47,1.34l0,.26a31.68,31.68,0,0,0,4.92,3.13,2.26,2.26,0,0,0,2.72-.71,2.43,2.43,0,0,0,.35-2.64A2.28,2.28,0,0,0,76,39.91m2.83,21c-.86-.35-4.52-1.24-5.44-1.43l-.15.22a31.75,31.75,0,0,0,2.83,5.11,2.27,2.27,0,0,0,2.73.68,2.44,2.44,0,0,0,1.57-2.15A2.29,2.29,0,0,0,78.82,61M37.55,68a4.31,4.31,0,0,0,6.05-.58L73.23,31.6a4.3,4.3,0,0,0-6.63-5.48L37,62A4.31,4.31,0,0,0,37.55,68h0M49.66,19.26A23,23,0,0,0,29.41,31.31H19.64a3.86,3.86,0,0,0-.41.08c-.84-4.69-2.87-8-5.26-8-3.13,0-5.67,5.7-5.67,12.72S10.83,48.83,14,48.83c2.6,0,4.77-4,5.44-9.31.08,0,.15,0,.23,0H26.8A23,23,0,0,0,35,60L64.32,24.54A22.93,22.93,0,0,0,49.66,19.26Z" />
		</symbol>
		<symbol id="activity-summer">
			<path d="M50,64.74A14.74,14.74,0,1,1,64.74,50,14.74,14.74,0,0,1,50,64.74Zm2-35.24v-7a2,2,0,0,0-3.91,0v7a2,2,0,1,0,3.91,0Zm-2,50a2,2,0,0,1-2-2v-7a2,2,0,0,1,3.91,0v7A2,2,0,0,1,50,79.49ZM65.88,36.88l5-5a2,2,0,0,0-2.76-2.76l-5,5a2,2,0,0,0,2.76,2.76Zm-36.74,34a2,2,0,0,1,0-2.76l5-5a2,2,0,0,1,2.76,2.76l-5,5A2,2,0,0,1,29.15,70.85ZM70.51,52h7a2,2,0,0,0,0-3.91h-7a2,2,0,0,0,0,3.91Zm-50-2a2,2,0,0,1,2-2h7a2,2,0,1,1,0,3.91h-7A2,2,0,0,1,20.51,50ZM63.12,65.88l5,5a2,2,0,0,0,2.76-2.76l-5-5a2,2,0,0,0-2.76,2.76Zm-34-36.74a2,2,0,0,1,2.76,0l5,5a2,2,0,0,1-2.76,2.76l-5-5A2,2,0,0,1,29.15,29.15Z" />
		</symbol>
		<symbol id="activity-walking">
			<path d="M71.92,41.23c1.79.07,2.15-.92,2.22-1.22l-.08-7.63a5.26,5.26,0,0,0-4.13.89v6.26c0,.26.13,1.63,2,1.7m18.14-1c-.46,6.14-7.34,3-11.45,4.16a18.47,18.47,0,0,1-1.07,4.54h0l.16.09a2.73,2.73,0,0,1-2.64,4.78h0c-1,1.58-2.22,3.48-3.43,5.51l7.25-.08c1.82,0,7.15,6.51-1.38,8.07l.18-4.49-8-.09A4.44,4.44,0,0,1,67,64.4L67.12,72s4.49-1.2,4.59,3.85l-8.35-.09-.1-11.14L31,64.67v7s5-.39,4.48,4.2l-8.12,0V64.9s-3.13-.26-3.91-1S17.71,68,17.71,68s4.24,3.92.69,7L12,68.8l8.15-7.62S16.93,58.61,19,52.67c-3.64.07-10.43-6.16-8.85-16.13,1.9,4.46,3.64,8.59,10.15,10.15,5.88,1.41,37.83,1.12,43.87,1.05h0L63,47.06a2.73,2.73,0,0,1-1.41-2.39l.05-.39-31.12-18a1.17,1.17,0,0,1-.58-1l.16-.58a1.17,1.17,0,0,1,1.6-.43l31.23,18h0a2.73,2.73,0,0,1,2.71,0l.79.44h0c.27-.45.59-1,.77-1.24.21-3.35-.24-4.48,1.2-6.45v4.5a3.32,3.32,0,0,0,3.5,3.26h.21c2.58,0,3.5-1.69,3.63-2.61v-.06l-.08-7.48c2.07.48,3.92,1.38,4.29,2.07C81,34.71,90.32,36.27,90.06,40.18ZM75.81,52.38c.36-.64.8-1.46,1.1-2.07L65.66,44.1h0c-.34.71-.7,1.57-.92,2.16h0Z" />
		</symbol>
		<symbol id="activity-water">
			<path d="M50,79.42A19.63,19.63,0,0,0,69.62,59.8a19.89,19.89,0,0,0-2.53-9.6l-16-29a1.38,1.38,0,0,0-1.09-.6,1.26,1.26,0,0,0-1.09.6l-16,29a19,19,0,0,0-2.53,9.6A19.63,19.63,0,0,0,50,79.42" />
		</symbol>
		<symbol id="activity-work">
			<path d="M86.81,48.5A12.52,12.52,0,0,1,75.54,61c-.62-.05-1.29-.15-1.93-.27a16.54,16.54,0,0,1-1.9-.46A9.92,9.92,0,0,1,70,59.53a6.27,6.27,0,0,1-.59-.35A20.07,20.07,0,0,0,73,54.4a34.4,34.4,0,0,1-8.74,5.93,28.88,28.88,0,0,1-20,1.63,34.24,34.24,0,0,1-9.58-4.46c.24.32.5.63.76.94a4.83,4.83,0,0,1-.9,1,6.75,6.75,0,0,1-1.27.79,9.53,9.53,0,0,1-1.47.55,10.31,10.31,0,0,1-1.26.26H30a17.53,17.53,0,0,1-.32-35,.93.93,0,0,0,.56-.23A23.53,23.53,0,0,1,63,27.46a.94.94,0,0,0,.59.29,15.84,15.84,0,0,1,12,7.9,1,1,0,0,0,.69.47A12.52,12.52,0,0,1,86.81,48.5Zm-56.09,30a1.56,1.56,0,0,0,1.56,1.56H72.73a1.56,1.56,0,0,0,1.56-1.56V77H30.72ZM74.29,65.07,73.37,65a18.5,18.5,0,0,1-2.15-.29A12.08,12.08,0,0,1,69,64.12a7.94,7.94,0,0,1-1.5-.78,23.19,23.19,0,0,1-2.2,1.56,24.14,24.14,0,0,1-21.9,1.78,22.29,22.29,0,0,1-6.66-4.31,6.62,6.62,0,0,1-1.3,1,8.43,8.43,0,0,1-1.71.74A11,11,0,0,1,32,64.5a11.78,11.78,0,0,1-1.29.08v11H74.29Z" />
		</symbol>
		<symbol id="collection-characters">
			<path d="M75.14,46.83a1.77,1.77,0,1,1,1.77-1.77,1.77,1.77,0,0,1-1.77,1.77m0,7.18a1.77,1.77,0,1,1,1.77-1.77A1.77,1.77,0,0,1,75.14,54m0,7.18a1.77,1.77,0,1,1,1.77-1.77,1.77,1.77,0,0,1-1.77,1.77M76.91,72H73.37V68.45h3.54Zm-8.46,0A3.46,3.46,0,0,1,65,75.45H28A3.46,3.46,0,0,1,24.5,72V43.28A3.46,3.46,0,0,1,28,39.83H65a3.46,3.46,0,0,1,3.45,3.45ZM75,33.93H54.7a5.64,5.64,0,0,0-2.64-2.11l7.27-10a1.66,1.66,0,1,0-.67-.49L51.22,31.55a5.68,5.68,0,0,0-2.44,0L41.34,21.36a1.67,1.67,0,1,0-.67.49l7.27,10a5.65,5.65,0,0,0-2.64,2.11H25a7.82,7.82,0,0,0-7.79,7.8V73.56A7.82,7.82,0,0,0,25,81.35H75a7.82,7.82,0,0,0,7.8-7.8V41.72a7.82,7.82,0,0,0-7.8-7.8" />
		</symbol>
		<symbol id="collection-crocslights">
			<path d="M30.21,66.11l-5,5A2,2,0,1,0,28,73.84l5-5a2,2,0,0,0-2.76-2.76ZM24,47.13h-7a2,2,0,0,0,0,3.91h7a2,2,0,1,0,0-3.91ZM52,23V16A2,2,0,0,0,48,16v7A2,2,0,1,0,52,23ZM67,68.87l5,5a2,2,0,0,0,2.76-2.76l-5-5A2,2,0,0,0,67,68.87ZM76,51h7a2,2,0,0,0,0-3.91H76A2,2,0,0,0,76,51ZM33,29.29l-5-5a2,2,0,1,0-2.76,2.76l5,5A2,2,0,0,0,33,29.29Zm36.82,2.76,5-5A2,2,0,1,0,72,24.32l-5,5a2,2,0,1,0,2.76,2.76ZM62.16,60.18c-2.77,3.69-2.89,11.25-2.89,14.49a7.83,7.83,0,0,1-2.72,6.54A9.23,9.23,0,0,1,50,83.93h0a9.23,9.23,0,0,1-6.54-2.72,7.83,7.83,0,0,1-2.72-6.54c0-3.24-.12-10.79-2.89-14.49q-.31-.34-.6-.69a2.61,2.61,0,0,1-.52-.68,16.46,16.46,0,1,1,26.56,0,2.61,2.61,0,0,1-.52.68Q62.46,59.84,62.16,60.18ZM50,73.1a39.67,39.67,0,0,1-5.38-.36c0,.66,0,1.31,0,1.92a4.1,4.1,0,0,0,1.58,3.78,5.32,5.32,0,0,0,7.56,0,4.1,4.1,0,0,0,1.58-3.78c0-.62,0-1.26,0-1.92A39.67,39.67,0,0,1,50,73.1Z" />
		</symbol>
		<symbol id="collection-realtree">
			<path d="M24.19,38.14c-2.16,2.45-5,4-5.25,7.55,2.18-.35,4.61-3.88,5.25-7.55M34.72,20.2,30.31,31l7.24-2.33.29.6c-1,.71-1.9,1.47-2.9,2.13-1.17.77-2.43,1.4-3.58,2.2S28.8,35,28.37,36c-1.1,2.73-2,5.63-1.36,8.65a1.92,1.92,0,0,0,1.2,1.23c8.68,2.08,14.15,7.8,17.91,15.53,1,2,2.07,4,3.1,6l.09.47c0,4,0,7.94-.37,12.08a19.68,19.68,0,0,1-2.31-2.77c-2.71-4.77-5.55-9.48-7.9-14.43C35,55,28.94,51.17,20.36,51.95c-6.3.57-8,5-5.94,10.24.7,1.76,2.4,2.53,4.55,2.27,4-.5,7.32-2.43,10.69-4.38a8.21,8.21,0,0,1,1.84-.55c-.3.68-.4,1.64-.92,2-3.2,2.09-6.44,4.11-9.75,6-2.76,1.59-2.92,3.09-.3,4.89a19.12,19.12,0,0,0,10.24,3.05c.84,0,1.67.14,2.68.22-.62,1.44-1.81,1.36-2.77,1.51A17.57,17.57,0,0,1,15,72.08C8.16,65.48,6.77,58,10.84,49.3A34.78,34.78,0,0,1,24.23,34.53a8.54,8.54,0,0,0,3.15-3.67c1.55-3.06,3.37-6,5.16-8.93A12.62,12.62,0,0,1,34.36,20ZM76,38.49c1.25,2.67,1.79,5.83,5,7.11-.15-3.43-2.82-5.1-5-7.11M66.85,75.7c.82-.08,1.63-.22,2.45-.25a19.05,19.05,0,0,0,10.53-3.16c2.44-1.72,2.27-3.2-.32-4.7Q74.68,64.8,70,61.8a8.45,8.45,0,0,1-1.64-2l.49-.54a15,15,0,0,1,1.6.73c3.3,2,6.61,3.85,10.49,4.43,2.86.42,4.52-.67,5.28-3.47,1.38-5.1-1-8.52-6.22-9-8.69-.79-14.85,3.06-18.58,11-2.35,5-5.3,9.72-8,14.53a12.9,12.9,0,0,1-1.66,2A7.46,7.46,0,0,1,51,80c0-2.24.11-4.16,0-6.06A19.13,19.13,0,0,1,53,63.5c2.4-4.63,4.81-9.15,8.88-12.57a21.8,21.8,0,0,1,9.43-4.76c1.36-.3,2.16-1,2-2.23-.4-2.81-1-5.59-1.6-8.36-.08-.37-.66-.67-1.06-.92-2.06-1.28-4.14-2.52-6.2-3.8a11.11,11.11,0,0,1-2.11-1.73c2.69-.28,4.93,1,7.6,2.08l-4.23-11L66,20a26.05,26.05,0,0,1,2.69,3.25A91.63,91.63,0,0,1,73,31.35a6.76,6.76,0,0,0,2.71,3c6.31,4,11.26,9.17,14.13,16.16,4.46,10.89-1.07,22.81-12.09,26.12a17.44,17.44,0,0,1-9.41.29,9.24,9.24,0,0,1-1.61-.75Z" />
		</symbol>
		<symbol id="features-best-sellers">
			<path d="M71.26,55c9.74-9.74,10.35-19.83,4.14-26a15.85,15.85,0,0,0-22.53,0A17.09,17.09,0,0,0,50,32.77a17.09,17.09,0,0,0-2.87-3.82,15.94,15.94,0,0,0-22.47,0c-6.26,6.2-5.66,16.29,4.08,26L49.11,75.41a1.31,1.31,0,0,0,.89.34,1.51,1.51,0,0,0,.89-.34Z" />
		</symbol>
		<symbol id="features-new-arrivals">
			<path d="M79.08,44.74a1.4,1.4,0,0,0,.29-1.35,1.25,1.25,0,0,0-1.18-.75H59.39L51.15,21.38a1.22,1.22,0,0,0-2.3,0L40.6,42.64H21.82a1.25,1.25,0,0,0-1.18.75,1.41,1.41,0,0,0,.29,1.35L35.23,59,31.61,78a1.3,1.3,0,0,0,.54,1.24,1.28,1.28,0,0,0,1.35,0L50,68.59,66.49,79.22a1.19,1.19,0,0,0,.66.2,1.27,1.27,0,0,0,.69-.2A1.31,1.31,0,0,0,68.39,78L64.77,59Z" />
		</symbol>
		<symbol id="features-price-dollar">
			<path d="M50,20.58A29.42,29.42,0,1,0,79.42,50,29.37,29.37,0,0,0,50,20.58M41.54,56.74c2,1.88,4.6,4.34,8,4.34,4,0,5.59-1.51,5.59-3.87,0-3-4.07-3.87-8.15-5.38s-8.15-3.76-8.15-9.4c0-6.43,4.28-9.77,10-10.29V29h4.7v3.22a20.41,20.41,0,0,1,9.2,4.08L58.15,42c-2.19-1.72-4.54-3.19-7.52-3.19-1.83,0-3.71,1.1-3.71,3.19,0,2.25,4.07,3,8.2,4.6s8.57,4.18,8.57,10.19c0,6.48-5,9.93-10.55,10.87V71h-4.7V67.82c-4.86-.37-8.51-2.46-12.12-6Z" />
		</symbol>
		<symbol id="features-price-euro">
			<path d="M50,20.58A29.42,29.42,0,1,0,79.42,50,29.37,29.37,0,0,0,50,20.58M32.31,43.68H36.7c3-8.1,11.39-11.39,16.82-11.39a22.53,22.53,0,0,1,11.54,3.6l-3.61,6a11.39,11.39,0,0,0-7.52-3,9.82,9.82,0,0,0-8.62,4.86h11.6V49H43.59a12.34,12.34,0,0,0-.05,1.36,14.77,14.77,0,0,0,.05,1.57H56.92v5.28H45.11c2.2,3.81,6.17,4.6,8.78,4.6a10.77,10.77,0,0,0,7.52-3.13l4.28,5.43a20.31,20.31,0,0,1-12.43,4.23c-5.8,0-13.74-3-16.61-11.13H32.31V51.93H35.6a15.28,15.28,0,0,1-.05-1.57A11.88,11.88,0,0,1,35.6,49H32.31Z" />
		</symbol>
		<symbol id="features-price-pound">
			<path d="M50,20.58A29.42,29.42,0,1,0,79.42,50,29.37,29.37,0,0,0,50,20.58M38.11,67.71v-7h2.77v-8.2H38.11v-7h2.77v-1.1c0-7,4.86-12.12,11.65-12.12a18.76,18.76,0,0,1,9.35,2.77L58.7,41.28a8.57,8.57,0,0,0-5.12-2c-2.51,0-4.49,1.67-4.49,5.38v.84h6.53v7H49.08v8.2H61.52v7Z" />
		</symbol>
		<symbol id="features-price-yen">
			<path d="M50,20.58A29.42,29.42,0,1,0,79.42,50,29.37,29.37,0,0,0,50,20.58M37.51,49h6.17l-8.93-16H44.1l6.06,11h.11l5.64-11h9.35L56.11,49h6.16v5.33H54V57h8.31v5.28H54v5.43h-8.2V62.28H37.51V57h8.25V54.28H37.51Z" />
		</symbol>
		<symbol id="features-sale-percent">
			<path d="M69.79,62.79v-.14c0-3.32-1.84-6.22-4.67-6.22s-4.52,2.83-4.52,6.08v.14c0,3.32,1.84,6.23,4.67,6.23s4.52-2.9,4.52-6.09m-16.61,0v-.14c0-7,4.87-12.65,12.09-12.65s11.95,5.59,11.95,12.51v.14c0,6.93-4.88,12.66-12.09,12.66S53.18,69.72,53.18,62.79M31.48,69.58l31.6-43.26A3.6,3.6,0,0,1,66,24.83a3.32,3.32,0,0,1,3.33,3.33,3.53,3.53,0,0,1-.78,2.26L36.92,73.68A3.6,3.6,0,0,1,34,75.17a3.32,3.32,0,0,1-3.32-3.33,4,4,0,0,1,.78-2.26M39.4,37.49v-.15c0-3.32-1.84-6.22-4.67-6.22S30.21,34,30.21,37.21v.14c0,3.32,1.84,6.22,4.67,6.22s4.52-2.9,4.52-6.08m-16.61,0v-.15c0-7,4.88-12.65,12.09-12.65s11.94,5.58,11.94,12.51v.14C46.82,44.27,41.94,50,34.73,50S22.78,44.41,22.78,37.49" />
		</symbol>
		<symbol id="features-sale-tag">
			<path d="M61,33.46A5.52,5.52,0,1,1,66.54,39,5.48,5.48,0,0,1,61,33.46M21.66,57.85,42.15,78.34a3.74,3.74,0,0,0,5.26,0L79.07,46.67a1.28,1.28,0,0,0,.35-.83V24.26a3.67,3.67,0,0,0-3.68-3.68H54.16a1.28,1.28,0,0,0-.83.35L21.66,52.59a3.74,3.74,0,0,0,0,5.26" />
		</symbol>
		<symbol id="gender-boys">
			<path d="M55,32.73a7,7,0,0,1,7,6.9V53.9a2.33,2.33,0,0,1-4.67,0V41.6h0a.41.41,0,0,0-.4-.39.41.41,0,0,0-.41.39h0V75.7a3,3,0,0,1-6,0V58.39h-1V75.7a3,3,0,0,1-6,0V41.61a.41.41,0,0,0-.82,0h0V53.9a2.33,2.33,0,0,1-4.67,0V39.64a7,7,0,0,1,7-6.9H55M50,32a5.37,5.37,0,1,0-5.37-5.37A5.37,5.37,0,0,0,50,32" />
		</symbol>
		<symbol id="gender-girls">
			<path d="M64.25,52a2.3,2.3,0,0,1-1.57,2.85A2.26,2.26,0,0,1,62,55a2.31,2.31,0,0,1-2.21-1.66L56,41.47h0a.41.41,0,0,0-.39-.32.42.42,0,0,0-.41.45l0,.06h0l.14.51,6.4,21.65.11.39a1.2,1.2,0,0,1,0,.16,1.26,1.26,0,0,1-1.15,1.26H55.33V76.44a2.3,2.3,0,1,1-4.6,0V65.62H49.27V76.44a2.3,2.3,0,1,1-4.6,0V65.62H39.29a1.26,1.26,0,0,1-1.15-1.26.9.9,0,0,1,0-.14l.13-.42,6.4-21.66.12-.41h0l0-.06h0a.37.37,0,0,0,0-.09.41.41,0,0,0-.41-.41.41.41,0,0,0-.39.32h0L40.18,53.29A2.3,2.3,0,0,1,35.76,52l4.55-14.32A6.17,6.17,0,0,1,46,33.38H54a6.16,6.16,0,0,1,5.74,4.31ZM50,32a5.37,5.37,0,1,0-5.37-5.37A5.37,5.37,0,0,0,50,32" />
		</symbol>
		<symbol id="gender-men">
			<path d="M57.6,23.63A10.63,10.63,0,0,1,68.29,34.17V56a3.57,3.57,0,0,1-7.13,0V37.16h0a.62.62,0,0,0-1.24,0h0V89.25a4.57,4.57,0,1,1-9.14,0V62.82H49.24V89.25a4.57,4.57,0,1,1-9.14,0V37.19a.63.63,0,0,0-.63-.63.62.62,0,0,0-.62.6h0V56a3.56,3.56,0,0,1-7.13,0V34.17A10.63,10.63,0,0,1,42.4,23.63H57.6M50,22.58a8.2,8.2,0,1,0-8.2-8.2,8.2,8.2,0,0,0,8.2,8.2" />
		</symbol>
		<symbol id="gender-women">
			<path d="M71.76,53.07A3.51,3.51,0,1,1,65,55L59.15,37h0a.61.61,0,0,0-.6-.48.62.62,0,0,0-.63.63.65.65,0,0,0,0,.14h0l.21.77L67.91,71.1l.18.59a1.85,1.85,0,0,1-1.74,2.17H58.14V90.38a3.51,3.51,0,1,1-7,0V73.85H48.89V90.38a3.51,3.51,0,1,1-7,0V73.85H33.64a1.93,1.93,0,0,1-1.77-1.92,2.17,2.17,0,0,1,0-.22c.06-.2.13-.42.19-.65L41.86,38l.18-.64h0l0-.08h0a.85.85,0,0,0,0-.14.62.62,0,0,0-.63-.63.62.62,0,0,0-.6.49h0L35,55a3.51,3.51,0,0,1-6.75-2l7-21.86A9.4,9.4,0,0,1,44,24.62H56a9.41,9.41,0,0,1,8.76,6.59ZM50,22.51a8.2,8.2,0,1,0-8.2-8.2,8.2,8.2,0,0,0,8.2,8.2" />
		</symbol>
		<symbol id="orders-shipping">
			<path d="M79,49.35l-5.63-7.41c-.29-.38-.5-.54-.76-.54H69.9c-.2,0-.41.29-.41.59v7.3c0,.76.23,1.06.9,1.12l8.22.15c.64,0,.79-.71.42-1.2m3.33,1V61.51a2.7,2.7,0,0,1-2.73,2.67H76.68a7.41,7.41,0,0,0-14.81,0h-1a2.71,2.71,0,0,1-2.74-2.67V41.69A2.71,2.71,0,0,1,60.85,39H73a2.76,2.76,0,0,1,2.19,1.08l6.61,8.69a2.66,2.66,0,0,1,.54,1.59M69.27,58.61a5.57,5.57,0,1,0,5.57,5.57,5.57,5.57,0,0,0-5.57-5.57M54.75,30.25h-35a2.09,2.09,0,0,0-2.11,2.06V62.18a2.09,2.09,0,0,0,2.11,2.07H24s0,0,0-.06a7.41,7.41,0,0,1,14.81,0s0,0,0,.06H54.75a2.09,2.09,0,0,0,2.11-2.07V32.32a2.09,2.09,0,0,0-2.11-2.06M37,64.18a5.57,5.57,0,1,1-5.57-5.57A5.57,5.57,0,0,1,37,64.18" />
		</symbol>
		<symbol id="product-360">
			<path d="M51,66.67a.33.33,0,0,1,0,.58,111.27,111.27,0,0,1-14,7.6.31.31,0,0,1-.47-.26l.27-4.67C17.07,67.16,2.64,58.38,2.64,48,2.64,35.34,23.84,25.1,50,25.1c11.65,0,22.3,2,30.55,5.41a5.86,5.86,0,0,0-1.31,1.27C71.56,28.64,61.3,26.7,50,26.7c-23.79,0-43.08,8.5-43.08,19,0,8.46,12.95,15.73,30.29,18.18l.27-4.44a.32.32,0,0,1,.47-.26A87.37,87.37,0,0,0,51,66.67ZM90,35.73a5.51,5.51,0,0,1-.72,2.16c2.44,2.38,3.83,5,3.83,7.8,0,8.28-12,15.32-28.79,17.92l.81,6C83.86,66.59,97.36,58,97.36,48,97.36,43.46,94.63,39.27,90,35.73Zm-6.13,1.75c1.54,0,3.09-.85,3.09-2.47s-1.54-2.5-3.09-2.5-3.12.85-3.12,2.5S82.26,37.48,83.83,37.48Zm0-1.39A1,1,0,0,1,82.72,35a1.12,1.12,0,1,1,1.12,1.08ZM70.07,57c6.37,0,8.48-5.18,8.48-11.63s-2.1-11.57-8.48-11.57-8.45,5.12-8.45,11.57S63.7,57,70.07,57Zm0-3.73c-3.19,0-4.11-3.48-4.11-7.9s.92-7.81,4.11-7.81,4.11,3.45,4.11,7.81S73.26,53.25,70.07,53.25ZM23.52,54.8A11.59,11.59,0,0,0,30.26,57c5.23,0,8.21-3.54,8.21-7.36s-3.12-6.1-6.38-6.54l5.09-5.66a2.09,2.09,0,0,0,.62-1.61v-.35c0-.85-.46-1.3-1.38-1.3H24.93a1.2,1.2,0,0,0-1.35,1.33v.88a1.18,1.18,0,0,0,1.35,1.3h5.62a17.55,17.55,0,0,0,2.07-.1v.06a15.94,15.94,0,0,0-1.67,1.71l-3.58,4.08a1.42,1.42,0,0,0-.29,1.71l.13.25a1.47,1.47,0,0,0,1.51.92h.49c2.73,0,5,1.1,5,3.48,0,1.93-1.77,3.35-4.21,3.35a7.62,7.62,0,0,1-4.21-1.42c-.76-.47-1.38-.44-1.87.28l-.66,1A1.18,1.18,0,0,0,23.52,54.8Zm18.23-8.34c0,6.6,4.14,10.52,9,10.52a7.55,7.55,0,0,0,7.69-7.81A7,7,0,0,0,51.21,42a6.16,6.16,0,0,0-4.7,1.77h-.07c.59-3.19,2.5-6.19,6.28-6.19a7.15,7.15,0,0,1,2.1.32c.79.16,1.31,0,1.61-.85l.39-1A1.15,1.15,0,0,0,56,34.29a12.09,12.09,0,0,0-3.52-.51C45.3,33.78,41.75,40.36,41.75,46.46Zm4.4,1.48c0-1.58,1.58-2.62,3.65-2.62,3,0,4.47,1.86,4.47,4.11a3.5,3.5,0,0,1-3.52,3.82C48.09,53.25,46.15,50.22,46.15,47.94Z" />
		</symbol>
		<symbol id="style-accessories">
			<path d="M50,13.05c4.16,0,7.64,4.44,8.6,10.44a25.61,25.61,0,0,0-4.16-1c-.6-3.94-2.36-6.79-4.44-6.79s-3.84,2.85-4.44,6.79a25.61,25.61,0,0,0-4.16,1c1-6,4.44-10.44,8.6-10.44M67.89,65.62H32.11v11.7a2.76,2.76,0,0,0,2.75,2.75H65.13a2.76,2.76,0,0,0,2.75-2.75ZM43.64,41.22a1.55,1.55,0,0,0,1.55,1.54h9.63a1.55,1.55,0,0,0,1.55-1.54V36.74a1.56,1.56,0,0,0-1.55-1.55H45.19a1.55,1.55,0,0,0-1.55,1.55ZM50,25.44c27.68,0,26.62,33.17,26.21,55.8-.12,3.58-2.38,5.72-5.71,5.71h-41c-3.33,0-5.59-2.13-5.71-5.71-.4-22.63-1.47-55.8,26.21-55.8" />
		</symbol>
		<symbol id="style-bigandtall">
			<path d="M74.79,53.44H68.95a3.41,3.41,0,1,1,0-6.83h5.84v-5.7a3.51,3.51,0,0,1,7,0v5.7h5.84a3.41,3.41,0,1,1,0,6.83H81.82v5.7a3.51,3.51,0,0,1-7,0Zm-36,.35L48,43V53.78ZM48,64.13a3.57,3.57,0,0,0,3.61,3.62,3.61,3.61,0,0,0,3.66-3.62V60h1.84a3.07,3.07,0,0,0,3.12-3.07,3.1,3.1,0,0,0-3.12-3.12H55.32V35.87a3.61,3.61,0,0,0-3.66-3.62c-2.23,0-3.31.89-4.75,2.57l-15,17.47a6.17,6.17,0,0,0-1.78,4.16A3.58,3.58,0,0,0,33.79,60H48ZM16.25,64a3.76,3.76,0,1,0,7.52,0V36.07A3.76,3.76,0,0,0,20,32.3h-.1a13.58,13.58,0,0,0-3.56.65l-4.9,1.43a3.37,3.37,0,0,0-2.53,3.27,3.34,3.34,0,0,0,3.32,3.27,6,6,0,0,0,1.34-.2L16.25,40Z" />
		</symbol>
		<symbol id="style-boot">
			<path d="M89.51,65c-.28-1.3-.93-7.1-6.61-6.62s-12.09.11-16-1.94a92.84,92.84,0,0,1-9.28-5.35c-2.33-2.1-5.23-4.42-7.1-12.6-1.16-5.08-.13-10.85.26-15.8.52-6.51,1.18-13,1.88-19.52-23.32-2.9-36.52-1-42.43.49,1.21,8.91,2.45,17.81,3.6,26.73q.79,6.1,1.56,12.21a28,28,0,0,1-.19,7.48c-.11.84-.25,1.69-.38,2.56a71.94,71.94,0,0,0-1.34,11c0,.29,0,.59,0,.88s.07.73.1,1.1-.08.84-.08,1.26c0,.22,0,.44,0,.66a31.31,31.31,0,0,0,.59,4c0,.11,0,.25,0,.37a4.22,4.22,0,0,0,1.17,1.88,11.49,11.49,0,0,0,5.63,2.53c1.86.21,9.92.12,12.16,0s13.39-3,18.85-2.63C56,74,73,76.85,77.6,76.23c11.88-1.62,12.16-6.69,12.08-7.3A13.28,13.28,0,0,0,89.51,65" />
		</symbol>
		<symbol id="style-boot2">
			<path d="M85.08,63.77c-.28-1.3-.93-7.1-6.61-6.62s-9.42-1.23-13.33-3.28A22.75,22.75,0,0,1,60.41,51c-2.32-2.1-5.23-4.42-7.1-12.6-1.16-5.08-.13-10.85.26-15.8.52-6.51-.1-1.36.6-7.85-17.88-3.17-31.24-1.89-39.5.83,1.21,8.91.79,5.8,1.95,14.72q.79,6.1,1.56,12.21A28,28,0,0,1,18,50c-.11.84-.25,1.69-.38,2.56-.56,3.62-1.35,7.32-1.34,11,0,.29,0,.59,0,.88s.07.73.1,1.1-.08.84-.08,1.26c0,.22,0,.44,0,.66a31.31,31.31,0,0,0,.59,4c0,.11,0,.25,0,.37A4.24,4.24,0,0,0,18,73.67a11.5,11.5,0,0,0,5.63,2.53c1.86.21,9.93.12,12.16,0s13.39-3,18.85-2.63c4.06.26,13.9,2.06,18.49,1.43,11.88-1.62,12.16-6.69,12.08-7.3a13.28,13.28,0,0,0-.17-3.92" />
		</symbol>
		<symbol id="style-clog">
			<path d="M34.26,50.52,12.13,42a2.06,2.06,0,0,0-3,1.9,31.22,31.22,0,0,0,0,6.19s.36.95,2.61,1.9,9.28,4.4,9.28,4.4S6.3,57.3,4,57.89s-3,1-2.85,3.33.36,8.09,2.38,10.35,4.64,2.61,7,3,20.82.71,23.67.48,12.37-1,16.18.07,29.39,1,32.83.64S96.59,71,97.9,69.08s.95-5.95.6-7.61S97.31,52.39,90.05,53s-15.46.14-20.46-2.48-11.3-6.07-13-7.73-3.45-3.21-8.57.48-10,7-13.8,7.26" />
		</symbol>
		<symbol id="style-flat-maryjane">
			<path d="M89.36,53.37H78c-2.06,0-8.1,1.11-16.44,1.24a21.62,21.62,0,0,0,2.78-4.08,30.06,30.06,0,0,0,2.06-5.88c-1.74-.92-3.49-1.85-5.23-2.69C58.75,46.48,53.92,50.35,50,52.9c-.58.38-1.21.64-1.81,1-1.59-.2-3.21-.43-4.87-.74A176.13,176.13,0,0,1,8.88,43S4.06,52.65,5.51,61.57s5.54,12.53,6.26,13,12.77,1,16.63,0,7.47-4.09,17.11-2.89,18.55,5,29.64,3.45C88.43,73.31,90.29,67.89,93,64.94c2.41-2.65,3.37-11.57-3.62-11.57" />
		</symbol>
		<symbol id="style-flat">
			<path d="M8.88,43.1S4.06,52.74,5.51,61.65s5.54,12.53,6.26,13,12.77,1,16.63,0,7.47-4.1,17.11-2.89,18.55,5,29.64,3.45C88.43,73.4,90.29,68,93,65c2.41-2.65,3.37-11.57-3.62-11.57H78c-3.38,0-17.34,3-34.7-.24A176,176,0,0,1,8.88,43.1" />
		</symbol>
		<symbol id="style-flip">
			<path d="M61.29,64a118.08,118.08,0,0,1-12.23-3.38s5.45-6.53,12.62-7.08,9.83,1.9,11.61,2.91c2.49,1.42,4,5.5,4,7.08,0,.55-11.53,1.26-16,.47M98,60.12A7.25,7.25,0,0,0,92,59.33c-3.35,1-10.2,3.13-11.53,3.18s-1.79-5.78-4.91-8.14S67,47,62.84,46.5a29.09,29.09,0,0,0-14.41,2.21s-12,5.43-19.55,10c-6.18-.61-12.74-.95-18.88.11a16.64,16.64,0,0,0-5.33,1.33A10.38,10.38,0,0,0,2,61.93a3.31,3.31,0,0,0-1,2.6,13.88,13.88,0,0,0,1.11,3.65c.84,1.4,1.82,2.72,2.62,4.13.94,1.65,8,2.28,11.76,2.6a46.11,46.11,0,0,0,18.54-2c8.72-2.67,14.18-.55,21.65,1.26s18.77,2.6,22.59,2,13.94-3.54,16.59-6.61,2.57-4,3-5.74S98,60.12,98,60.12" />
		</symbol>
		<symbol id="style-flipflops">
			<path d="M65,63.45A122.09,122.09,0,0,1,52.35,60s5.64-6.68,13-7.25,10.17,1.95,12,3c2.58,1.45,4.1,5.63,4.11,7.25,0,.57-11.92,1.29-16.51.48m31.29-1.58a7.54,7.54,0,0,0-6.12-.81,13.64,13.64,0,0,1-5.27.89C83.53,62,83,56,79.82,53.62S70.88,46,66.61,45.56a30.31,30.31,0,0,0-14.9,2.25s-3.45,1.55-7.85,3.7h0a69.75,69.75,0,0,0-7.64-4.13l-22-8.52a2.06,2.06,0,0,0-3,1.9,31.19,31.19,0,0,0,0,6.19s.36,1,2.61,1.91,9.28,4.4,9.28,4.4a23.54,23.54,0,0,1,5.24,4.54A67.62,67.62,0,0,0,12,58.16c-2,.33-3.73.43-5.52,1.36A10.62,10.62,0,0,0,3.7,61.35a3.37,3.37,0,0,0-1,2.66A14.17,14.17,0,0,0,3.8,67.75c.86,1.44,1.88,2.78,2.71,4.23,1,1.7,8.3,2.34,12.17,2.66a48.16,48.16,0,0,0,19.17-2.1c9-2.74,14.66-.57,22.39,1.29s19.41,2.66,23.36,2,7.77-1.26,10.51-4.4,2.66-4.11,3.14-5.88-1-3.71-1-3.71" />
		</symbol>
		<symbol id="style-fuzz">
			<path d="M20.4,49.68q-3.57-.57-7.16-1c0-1.2,14,.48,14,0,0-.3-9.8-.77-9.78-1.06.06-.77,11.75-.89,13.06-.77-.1.57-16-3.79-17.22-4.46.15-.72,14.18,2.49,14.27,2.13,0-.14-12.2-5.67-11-5.18.26-.8,14.18,4.32,14.45,3.64.41-1.06-11.63-4.75-11.38-5.33s11.71,4.51,12,3.9c.07-.15-22.12-12-5.5-4.22.16-.3-8.71-5-8.55-5.25.29-.52,11.56,6.54,11.87,6,.16-.26-8-5-7.87-5.25.58-.93,9.27,4.94,9.73,4.3s-9.42-8.4-8.81-9.15c.26-.31,10.74,8.07,10.93,7.87.48-.54-9-9.43-8.47-10,1,.93,10.61,10,10.94,9.69S24.46,23,24.69,22.82s8.92,8.46,9.63,9.18c.53-.45-4.7-5-3.76-5.71.7-.56,4.72,5.65,5.07,5.38.91-.69-8-11.31,1.79,1,.24-.16-4.75-7-4.52-7.19,5.79,6.83-.85-1.26.2-1.91,1.26-.78,6.09,10.23,6.72,9.86s-5.81-12-5.2-12.3c5.42,8.09-2.12-4.44-.91-5,.3-.14,3.77,8,4.09,7.87-5.31-14.83,4.65,7,4.61,7,.36-.14-4.7-12.87-4.36-13,.81-.29,4.14,13.27,5.7,12.81.3-.09-.72-7.18-.77-7.68q.91,2.86,2,5.68c.38-.08-2.43-11.74-2.07-11.81.58-.12,2.86,13.22,3.44,13.13.38-.06-2.07-13.61-1.71-13.66,3.63,18,0,.37,1.38.22.37,0,1.19,12.38,1.58,12.34q0-4.25.58.28c.4,0-.86-14.56-.48-14.58a20.91,20.91,0,0,1,1.09,5.79c.53-7.67,1.21-5.07,1.54,1l.54-4.17L51,22.87c.69,0-.21-6.81,1.69-6.64.31,0-.75,8.35-.43,8.39s1.26-11.18,1.66-11.13-1.2,10.26-.87,10.3a23.58,23.58,0,0,0,1.51-5.06c.29,0-1.21,7.67-.9,7.72s2.53-13.59,3.81-13.31c1.92.41-3.83,15.84-2.85,16.07.35.08,3.85-15.22,4.16-15.14.1,0-3.57,18.83-3,16,1.2.38,3.63-12.72,5.22-12.15.65.23-4.44,11.84-3.47,12.23.33.13,5.77-13.89,6.07-13.76.68.29-4.24,10.74-3.86,10.91s5.3-11.54,5.67-11.37-7.61,16-7.25,16.17c.69.33,7.32-12.67,8.36-12.08.66.37-4.44,8.29-3.79,8.69.28.17,5.38-8.39,5.65-8.22a18.31,18.31,0,0,0-2,4.57q1.66-1.84,3.49-3.51c.26.19-4.39,6.18-4.12,6.37.92.68,6.3-8,7.19-7.25.31.25-8.87,10.93-8.55,11.2s7.93-9.9,8.77-9.18c.25.21-5.75,6.68-5.5,6.9.83.74,5.21-5.51,5.71-5,.27.26-9.24,9.69-9,10a60.46,60.46,0,0,0,5-3.59q-2.15,2.78-4.25,5.6c.46.53,7.5-6,7.77-5.66-11.34,10.43,6.12-4,7.12-2.64.79,1.1-14.79,10.61-14.38,11.23.19.28,14.08-9.06,14.25-8.8s-9.27,5.82-9.05,6.17S79.43,31.72,79.6,32c.81,1.35-8.12,5.17-7.75,5.84,8.73-3.56-4.25,2.3-4,2.81q1.95-.62,3.88-1.27A40.39,40.39,0,0,1,67,42.24c.22.49,9.32-3.31,9.45-3,.33.82-7.33,3.09-7.18,3.49s10.93-4,11.06-3.66-8.2,2.94-8.1,3.23c.3.88,12.9-3.94-2.28,1.67.08.27,8-2.27,8.08-2-7.93,3.66,11.92-2.92-5.62,2.56.24,1,13.73-3,13.87-2.33s-10.61,2.49-10.53,3c.15.8,10.43-1.45,10.51-1,.19,1.21-13.51,2.22-13.44,2.76s13.57-1.83,13.67-.81c.21,2-16.58,1.76-16.53,2.55,0,.64,13.93-.5,13.95,0,0,.82-11.76,0-11.76,1.36,0,1.22,14.69.34,14.67,1-.05,2-18-.94-18.05.3,0,.55,15.2.75,8.92,1.33,0,.43,8.1.79,8,1.7-.06.49-14.64-1.67-14.77-.88-.06.38,11.44,1.89,11.38,2.25s-8.41-1.44-8.47-1.13c-.21,1.15,11.47,2.46,11.34,3.09s-15.75-3.46-15.9-2.85c-.09.38,13.1,3.25,13,3.6s-9.22-2.35-9.31-2c-.23.85,10.94,3.35,10.78,3.88-.11.37-12-3.69-12.14-3.31l5.67,2.18-3.89-.92c16.2,6.68-4.09-.94-4.58.18q4.66.31,6.11,3.87c-.12.24-7.22-3.5-7.34-3.25,0,0,13.5,7,12.69,8.42-.15.27-9-5.08-9.12-4.8S78,66.82,77.8,67.08Q69.13,62,75.6,66.7c-.19.3-9.21-6-9.41-5.71s7,4.1,6.08,5.32c-.15.21-6.83-4.91-7-4.69-.58.79,11.34,8.67,10.95,9.17s-10.77-8.18-11-7.89S76,71.85,75.73,72.13c-.58.69-9-7.36-9.29-7S76.28,74,76,74.24c-.7.77-10.93-12.15-13-10.14-.28.27,10,10.55,9.75,10.8-.44.42-7.22-8.45-8-7.71-.65.58,9.82,11.8-1.9-.89-.23.19,6.68,8.36,6.46,8.54s-5.49-6.88-5.73-6.69,6.5,8.61,6.27,8.79c-12.43-14.84.16.27-.54.77-.45.32-6.57-9.36-7.15-9-.33.22,6.76,10.13,6.44,10.34S60.62,66.79,60.3,67c-1,.63,6.65,11.89,5.8,12.38-8.1-12.19,2,3.23.09,4.16-1.44.72-7.08-14.73-2.85-2.73C62.82,81,57.38,67.89,57,68s4.43,10.75,4.11,10.88c2.53,5.57-3.91-9.22-4.79-8.92s5.08,16,4.49,16.2c-.79.25-6.38-22.31-2.31-4.48-.34.1-3.48-12.67-3.84-12.58S57.22,79,57,79.07c.06,0-3.41-8.22-3.26-8.25-.38.08,2.3,11.91,1.94,12-1.33.25-1.86-9.79-2.43-9.7S55,86.79,54.4,86.86c-2.25.3-2.3-11.95-2.9-11.9-.41,0,.79,11.07.39,11.09-.58,0-.85-13.62-1.48-13.6s.76,7.29-.5,7.31l-.39-6.19-.36,4-.21-5.82c-.75,0,.3,12.81-1.24,12.73-.31,0,.55-10.6.24-10.62l-.8,6.22L47.39,73c-.3,0-.93,8.74-1.22,8.71.85-17-.18,1.14-1,1a17.2,17.2,0,0,1-.43-7.22c-.33-.06-2.15,10.66-2.47,10.6-1.87-.37,3.47-13.73,1.91-14.11-.31-.08-2.5,9.4-3.11,9.23-1.31-.35,5-16.93-1.37.08-.49-.15,2.82-7.4,1.75-7.77-.39-.13-3.66,10.43-4,10.29q1.35-4.94-.87-.39c-.3-.12,3.45-8.95,3.15-9.07q-1.94,3.75-.64-.26c-.39-.17-4.55,10.26-4.93,10.09-.54-.24,7.39-16.77,7.07-16.92s-6.78,13-7.17,12.8c.15.08,1.57-7.51,2.13-7.18-.28-.16-4.15,6.83-4.42,6.66S35.7,73,35.43,72.82s-6.6,8.54-6.92,8.32c-1.29-.88,7.87-11.36,7.24-11.81-.37-.26-8.09,10.71-8.6,10.33s8.61-10.95,7.93-11.49c-.49-.39-9.87,10.88-10.3,10.5-.25-.22,6.15-7.14,5.89-7.37-5.71,4.62,3.59-4,3.15-4.45s-9.5,10-9.78,9.73c-.46-.45,9.63-10.27,9.34-10.57s-8.45,8.23-8.72,8,5.47-5.3,5.25-5.53c-1-1.11-7.46,6.1-8,5.5-.73-.84,13.19-11,12.51-11.83-.23-.28-10.71,8.61-11.27,7.88a56,56,0,0,1,5.09-4.71c-.25-.35-9.48,6.68-9.72,6.34C17.91,70.72,31,62.42,30.17,61c-.28-.5-11.49,5.68-11.79,5.09-.46-.89,8.29-4.53,8.1-4.93s-9.52,4.6-9.92,3.72c-.16-.36,11.2-4.93,11-5.31s-12.87,5.48-13,5.11c-.25-.61,15.64-6.7,15.4-7.34s-13.9,4.75-14.07,4.24,15.39-5.13,15.27-5.5S18,60.3,17.94,60c-.16-.52,11.21-4.58,12.44-5-.08-.33-15.68,3.84-15.75,3.54-.13-.54,11.93-3,11.82-3.49-.07-.3-9.75,1.94-9.81,1.64A8.29,8.29,0,0,0,22,54.09c-.08-.53-7.42.63-7.47.15s14.74-1.63,14.7-2-8.66.72-8.7.14c0-.28,7.54-.59,7.52-.87s-10.56-.56-10.91-.57C24.84,49.63,14.75,50,20.4,49.68Z" />
		</symbol>
		<symbol id="style-heel">
			<path d="M90.56,59.17A3,3,0,0,0,90,57.91,2.54,2.54,0,0,0,88,57a11.53,11.53,0,0,0-3.16.29s-2.44.75-6,1.54c.1-.3.21-.62.32-.92a11.71,11.71,0,0,0,.67-2.4A3.14,3.14,0,0,0,78.64,53C77.23,51.73,70,46.8,67.51,47.28c-.76.14-2.35.45-9.33,7.9a49.76,49.76,0,0,1-3.81,3.6l-.17-.11a42.31,42.31,0,0,1-5.6-4.46C45.08,51,41.77,48,32,44.94a14.93,14.93,0,0,1,.65-3.44c0-.06.86-1.56,9.23-6.23,5.06-2.82,10.21-5.09,10.26-5.12a2.2,2.2,0,0,0,1.2-1.43c.47-1.61-.54-5.36-1.62-7a3.39,3.39,0,0,0-2.32-1.61,2.7,2.7,0,0,0-1.92.43c-5.76,3.39-15,8.2-17.5,8.29-2,0-5.3-2.24-9.7-6.65l-.23-.24c-1.3-1.27-2.19-2.09-3.41-1.9A2.27,2.27,0,0,0,15,21.52l-.18.41C14.35,23,13.61,24.68,13,25.77a3.26,3.26,0,0,0-.47,2.61A2.61,2.61,0,0,0,14.06,30a14.34,14.34,0,0,1,6.47,6.59,10,10,0,0,1,1,5.52l-.07.4c-2.31-.39-4.94-.79-8.38-1.26a3,3,0,0,0-2.23.7,3.06,3.06,0,0,0-1,2.43A15.88,15.88,0,0,0,10,46a2.59,2.59,0,0,0-.87.84A2.44,2.44,0,0,0,9,49.09c.24,1.22,1.32,11.77,2.2,21.1a4.32,4.32,0,0,0,.63,2,2.53,2.53,0,0,0,1.79,2.34,14.68,14.68,0,0,0,2.2.26h.29a3,3,0,0,0,1-.3,2.76,2.76,0,0,0,1.06.3c.41,0,.82,0,1.24,0a2.17,2.17,0,0,0,1.36-.25,2.36,2.36,0,0,0,1.11.27h1.23a2.35,2.35,0,0,0,1.25-.23,2.58,2.58,0,0,0,1.13.24h1.09a2.19,2.19,0,0,0,1.64-.63h.77c4.69.24,18.78.94,26,.87a2.19,2.19,0,0,0,1.78.82h1a2.16,2.16,0,0,0,.83-.14,2.45,2.45,0,0,0,.85.15h1a1.89,1.89,0,0,0,.75,0l.25-.08a2.34,2.34,0,0,0,.79.13h1.18a2.46,2.46,0,0,0,1-.12,2.34,2.34,0,0,0,.79.13h1.18a2.26,2.26,0,0,0,.85-.17,2.66,2.66,0,0,0,.84.16h.13c.15,0,15.85-.65,21.9-8.7l.15-.22a3.59,3.59,0,0,0,.34-1.37A6.21,6.21,0,0,0,91.16,63v-.65A4,4,0,0,0,90.56,59.17Z" />
		</symbol>
		<symbol id="style-jibbitz">
			<path d="M82.24,44.67c-.66-6.23-6.73-10.63-15.36-8.46a38.42,38.42,0,0,0-10.78,4.87,37.22,37.22,0,0,0,7.11-8C68,25.57,65.68,18.43,60,15.86s-10.1,4-10.1,4-4.38-6.57-10.09-4-8,9.71-3.24,17.23a36.31,36.31,0,0,0,6.58,7.52A37.6,37.6,0,0,0,33,36.35c-8.67-2-14.67,2.46-15.23,8.7s7.08,8.23,7.08,8.23-4.78,6.29-.48,10.85S36.15,68.5,41.7,61.54a37.6,37.6,0,0,0,5.41-9.82c-.11,8.95,1.75,23.09,13,32.36a2.81,2.81,0,1,0,3.57-4.34c-9.6-7.91-11-20.64-10.91-28.45a38.35,38.35,0,0,0,5.77,10.24c5.66,6.87,13.16,6.93,17.38,2.31S75.29,53,75.29,53s7.61-2.11,6.95-8.34" />
		</symbol>
		<symbol id="style-loafer">
			<path d="M32.57,49.51s-15-3.8-20.72-6c-2.63-1-4.67,16.2-4.47,22.07S12.55,75.85,16.92,76c6.53.29,18.8-1.65,23.41-2.07S68,75.81,71.5,75.65c7-.33,17-2.79,20.56-6.51,1.07-1.13.72-14.42-1.62-14.65C77.46,53.25,58,39.36,55.2,39.17S48.52,42,44.26,45.23c-3.94,3-4,4.6-11.69,4.28" />
		</symbol>
		<symbol id="style-loafer2">
			<path d="M32.51,51.65S17,47.43,13.75,45.1C11.46,43.46,8.27,59.17,8.47,65S13.64,75.27,18,75.48c6.53.3,18.8-1.65,23.41-2.07S66.54,75.67,70,75.51c7-.33,17-2.79,20.56-6.51,1.07-1.13,3.2-16.27-6.26-16.19-17.66.17-25.23-9.19-28-9.39s-6.68,2.87-10.94,6.06c-3.93,3-7.33,3.32-12.84,2.17" />
		</symbol>
		<symbol id="style-sandal">
			<path d="M48.26,34.53l5.25,6.61L43.21,53.39s1.75,7,12.64,4.28,13-10.31,16.92-9.14c1.42.42,3.88,3.07,5.73,4.57,1.39,1.13.56,5.74,2.24,6.51,2.33,1.17,14-1.75,15.76,1.56,2.4,4.53-2.92,8.16-2.92,8.16C83.26,75.95,77.43,76.73,68.1,76s-11.67-2-19.83-2.75-17.69.2-25.08,1.36S10,75.37,6.65,72.25,1.4,59,4.32,58.64,48.26,34.53,48.26,34.53" />
		</symbol>
		<symbol id="style-sandal2">
			<path d="M96.49,61c-1.75-3.31-13.42-.39-15.76-1.56-1.68-.76-.84-5.38-2.23-6.51-1.85-1.49-4.32-4.14-5.73-4.57-3.89-1.16-6,6.42-16.92,9.14s-12.64-4.27-12.64-4.27L53.51,40.93l-5.25-6.61s-8.68,5-18.34,10.47L8.37,36.46a2.06,2.06,0,0,0-3,1.9,31.2,31.2,0,0,0,0,6.19s.36.95,2.62,1.91,9.28,4.4,9.28,4.4.33.21.82.55c-7,3.87-12.77,6.9-13.8,7-2.92.39-1,10.5,2.33,13.61s9.14,3.5,16.53,2.33S40.1,72.24,48.26,73s10.5,2,19.83,2.75,15.17,0,25.47-6.63c0,0,5.32-3.63,2.92-8.16" />
		</symbol>
		<symbol id="style-shoe">
			<path d="M52.8,49.53s.14,6.47-3,7.45S26.92,56,15.1,43.2c0,0-2.81,1-7.18,9,0,0-3.8,11.39-2.11,15.9s3.1,5.77,9.14,6.61,14.49.09,16.74.32,18.85.8,22.36.66c3.15-.13,10.27,0,14.49,0s12.24-1.13,16.74-3.24,9-5.34,9.28-7.17-1.12-6.75-1.12-6.75-1-1.41-5.49-1.27S78.4,58.39,73.48,56,57.3,48.55,54.77,48.13s-1.95.56-2,1.4" />
		</symbol>
		<symbol id="style-slide">
			<path d="M97.95,60.88a7.44,7.44,0,0,0-6-.79,81.65,81.65,0,0,1-14.19,3.53s-2.13.61-2.6-.64,1.61-7.64,1.61-7.64C76.24,52.66,68,45.77,61.9,42.59c-9,6.27-16,13.34-24.29,16.32-6.31-.62-21.14-1.42-27.42-.35A17.12,17.12,0,0,0,4.74,59.9,10.5,10.5,0,0,0,2,61.71a3.33,3.33,0,0,0-1,2.63A14,14,0,0,0,2.14,68C3,69.44,4,70.77,4.82,72.2c1,1.67,8.19,2.3,12,2.63s10.34.22,19.63-.3c7.6-.43,11.23.18,20.65.54,7.84.3,21.46.45,25.36-.18S93.1,73.44,95.8,70.34s2.63-4.06,3.1-5.81-1-3.66-1-3.66" />
		</symbol>
		<symbol id="style-slide2">
			<path d="M97.95,60.89a7.44,7.44,0,0,0-6-.79,81.53,81.53,0,0,1-14.18,3.54s-2.14.6-2.6-.64,1.61-7.64,1.61-7.64C76.24,52.67,68,45.78,61.9,42.59c-6.63,4.6-12.15,9.62-17.9,13.15a70.38,70.38,0,0,0-7.58-4.09L14.54,43.18a2,2,0,0,0-3,1.89,31,31,0,0,0,0,6.15s.35.94,2.6,1.89,9.21,4.37,9.21,4.37.39.25,1,.65a85,85,0,0,0-14.18.44A17.15,17.15,0,0,0,4.74,59.9,10.5,10.5,0,0,0,2,61.72a3.34,3.34,0,0,0-1,2.63A14,14,0,0,0,2.14,68C3,69.45,4,70.78,4.82,72.22c1,1.67,8.19,2.3,12,2.62s10.34.22,19.63-.3c7.6-.43,11.23.18,20.65.54,7.84.3,21.46.45,25.36-.18S93.1,73.45,95.8,70.35s2.62-4.06,3.1-5.81-1-3.66-1-3.66" />
		</symbol>
		<symbol id="style-slipper">
			<path d="M93.85,68.5s.61,3.81-5.41,5.37-19.77,1.68-36.56,1.7-41,0-41,0-2.21.14-2.34-1.6c0,0-3.16.1-3.22-1.84a13.44,13.44,0,0,1,.78-4.94c.31-.55.43-1.43,2.93-1s9.92.88,19.26-1.86,16.48-6,21.43-10.82c3.34-3.26,4-4.61,5.16-4.61,3.77,0,7.38,7,28.59,11.29,2.4.49,7.17,1.09,9.26,3.18a2.62,2.62,0,0,1,1.91,1.93A3.24,3.24,0,0,1,93.85,68.5Z"/>
		</symbol>
		<symbol id="style-sneaker">
			<path d="M56.14,38c.54-.65,2-2.38,3.4-2.46a2.74,2.74,0,0,1,2,.93,2.17,2.17,0,0,1,.71,1.72,7.48,7.48,0,0,1-2.57,4.65,16.56,16.56,0,0,1-3.05,2c-.68-.28-1.37-.55-2-.81,0-1.72.78-5,1.58-6M87,55.41c-4.11-1.3-13.33-2.84-18.33-4.94,2.95-1.1,5.2-3.49,6.7-7.12a1.62,1.62,0,1,0-3-1.24c-2,4.88-5,5.65-7.11,5.8a12.68,12.68,0,0,1-2.11,0l-.31-.17c-.8-.45-1.67-.89-2.58-1.33a13.27,13.27,0,0,0,1.52-1.13c1.79-1.57,3.63-4.35,3.68-7a5.4,5.4,0,0,0-1.73-4.14,5.84,5.84,0,0,0-4.39-1.81c-2.48.15-4.35,2-5.7,3.62-1,1.18-2.39,5.5-2.61,8.16-2.37.4-3.46-.88-4.55-1.4-2.95-1.38-3.59-5.58-8.05.24-1.77,2.31-5,3.17-8,3.3-5,.22-6.49-2.16-6.49-2.16s-1.51-4.54-3.67-4.54-3,1.08-4.76,2.38a14.31,14.31,0,0,0-4.76,7.57,32.11,32.11,0,0,0-.9,10.8A7.46,7.46,0,0,1,9.36,65c-.61,1.32-.56,5.36-.21,6.88,0,0,1.17,2,5.27,2.67S37.13,76.46,44.69,76s13.19.17,20.11.09,14.06.44,21-2.77C94.17,69.47,91.12,56.7,87,55.41" />
		</symbol>
		<symbol id="info-size">
			<path d="M66.09,55.62a37.88,37.88,0,0,0,6.35-2.88,24.57,24.57,0,0,0,7.43-6.34l0,9.22Zm4.69-30.25c5.87,3.39,9.11,7.81,9.11,12.44s-3.17,9-9,12.34c-12.57,7.3-33.1,7.3-45.76,0-5.87-3.39-9.11-7.81-9.11-12.44s3.18-9,9-12.34c6.29-3.66,14.56-5.48,22.85-5.48S64.45,21.72,70.78,25.37ZM60,45.58c3.47-2,5.38-4.79,5.38-7.8S63.47,32,60,29.93c-6.75-3.9-17.31-3.9-24,0-3.47,2-5.38,4.78-5.38,7.8s2,5.81,5.46,7.84a24.52,24.52,0,0,0,12,2.93A24.35,24.35,0,0,0,60,45.58Zm-1.58-13c2.55,1.47,4,3.34,4,5.25S61,41.53,58.52,43c-5.77,3.35-15.2,3.35-21,0-2.55-1.47-4-3.33-4-5.25s1.38-3.74,3.89-5.2A21.34,21.34,0,0,1,47.92,30,21.49,21.49,0,0,1,58.45,32.53ZM47.94,58.61c-9.13,0-17.74-2.1-24.27-5.87A24.83,24.83,0,0,1,16,46.22l0,11.83a12,12,0,0,0,3.5,8.1V57.83a25,25,0,0,0,3,2.4v8.58a25.75,25.75,0,0,0,2.62,1.71A31.28,31.28,0,0,0,28.5,72.2V63.42c1,.41,2,.79,3,1.13v8.82a46.09,46.09,0,0,0,8,1.95V66.45c1,.15,2,.28,3,.38v8.88c1.78.17,3.6.28,5.45.28h4.1V67.12h3V76H92V58.62C85,58.62,55.46,58.63,47.94,58.61Z"/>
		</symbol>
	</defs>
	
	<!-- ICON SPRITE PLACEMENT -->
	<g id="cx-icons">
		
		<use xlink:href="#activity-beach" x="0"   y="0" class="cx-icon gray"></use>
		<use xlink:href="#activity-beach" x="100" y="0" class="cx-icon white"></use>
		<use xlink:href="#activity-beach" x="200" y="0" class="cx-icon blue"></use>
		<use xlink:href="#activity-beach" x="300" y="0" class="cx-icon red"></use>
		<use xlink:href="#activity-beach" x="400" y="0" class="cx-icon green"></use>
		
		<use xlink:href="#activity-camping" x="0"   y="100" class="cx-icon gray"></use>
		<use xlink:href="#activity-camping" x="100" y="100" class="cx-icon white"></use>
		<use xlink:href="#activity-camping" x="200" y="100" class="cx-icon blue"></use>
		<use xlink:href="#activity-camping" x="300" y="100" class="cx-icon red"></use>
		<use xlink:href="#activity-camping" x="400" y="100" class="cx-icon green"></use>
		
		<use xlink:href="#activity-chef" x="0"   y="200" class="cx-icon gray"></use>
		<use xlink:href="#activity-chef" x="100" y="200" class="cx-icon white"></use>
		<use xlink:href="#activity-chef" x="200" y="200" class="cx-icon blue"></use>
		<use xlink:href="#activity-chef" x="300" y="200" class="cx-icon red"></use>
		<use xlink:href="#activity-chef" x="400" y="200" class="cx-icon green"></use>
		
		<use xlink:href="#activity-gardening" x="0"   y="300" class="cx-icon gray"></use>
		<use xlink:href="#activity-gardening" x="100" y="300" class="cx-icon white"></use>
		<use xlink:href="#activity-gardening" x="200" y="300" class="cx-icon blue"></use>
		<use xlink:href="#activity-gardening" x="300" y="300" class="cx-icon red"></use>
		<use xlink:href="#activity-gardening" x="400" y="300" class="cx-icon green"></use>
		
		<use xlink:href="#activity-nursing" x="0"   y="400" class="cx-icon gray"></use>
		<use xlink:href="#activity-nursing" x="100" y="400" class="cx-icon white"></use>
		<use xlink:href="#activity-nursing" x="200" y="400" class="cx-icon blue"></use>
		<use xlink:href="#activity-nursing" x="300" y="400" class="cx-icon red"></use>
		<use xlink:href="#activity-nursing" x="400" y="400" class="cx-icon green"></use>
		
		<use xlink:href="#activity-shower" x="0"   y="500" class="cx-icon gray"></use>
		<use xlink:href="#activity-shower" x="100" y="500" class="cx-icon white"></use>
		<use xlink:href="#activity-shower" x="200" y="500" class="cx-icon blue"></use>
		<use xlink:href="#activity-shower" x="300" y="500" class="cx-icon red"></use>
		<use xlink:href="#activity-shower" x="400" y="500" class="cx-icon green"></use>
		
		<use xlink:href="#activity-summer" x="0"   y="600" class="cx-icon gray"></use>
		<use xlink:href="#activity-summer" x="100" y="600" class="cx-icon white"></use>
		<use xlink:href="#activity-summer" x="200" y="600" class="cx-icon blue"></use>
		<use xlink:href="#activity-summer" x="300" y="600" class="cx-icon red"></use>
		<use xlink:href="#activity-summer" x="400" y="600" class="cx-icon green"></use>
		
		<use xlink:href="#activity-walking" x="0"   y="700" class="cx-icon gray"></use>
		<use xlink:href="#activity-walking" x="100" y="700" class="cx-icon white"></use>
		<use xlink:href="#activity-walking" x="200" y="700" class="cx-icon blue"></use>
		<use xlink:href="#activity-walking" x="300" y="700" class="cx-icon red"></use>
		<use xlink:href="#activity-walking" x="400" y="700" class="cx-icon green"></use>
		
		<use xlink:href="#activity-water" x="0"   y="800" class="cx-icon gray"></use>
		<use xlink:href="#activity-water" x="100" y="800" class="cx-icon white"></use>
		<use xlink:href="#activity-water" x="200" y="800" class="cx-icon blue"></use>
		<use xlink:href="#activity-water" x="300" y="800" class="cx-icon red"></use>
		<use xlink:href="#activity-water" x="400" y="800" class="cx-icon green"></use>
		
		<use xlink:href="#activity-work" x="0"   y="900" class="cx-icon gray"></use>
		<use xlink:href="#activity-work" x="100" y="900" class="cx-icon white"></use>
		<use xlink:href="#activity-work" x="200" y="900" class="cx-icon blue"></use>
		<use xlink:href="#activity-work" x="300" y="900" class="cx-icon red"></use>
		<use xlink:href="#activity-work" x="400" y="900" class="cx-icon green"></use>
		
		<use xlink:href="#collection-characters" x="0"   y="1000" class="cx-icon gray"></use>
		<use xlink:href="#collection-characters" x="100" y="1000" class="cx-icon white"></use>
		<use xlink:href="#collection-characters" x="200" y="1000" class="cx-icon blue"></use>
		<use xlink:href="#collection-characters" x="300" y="1000" class="cx-icon red"></use>
		<use xlink:href="#collection-characters" x="400" y="1000" class="cx-icon green"></use>
		
		<use xlink:href="#collection-crocslights" x="0"   y="1100" class="cx-icon gray"></use>
		<use xlink:href="#collection-crocslights" x="100" y="1100" class="cx-icon white"></use>
		<use xlink:href="#collection-crocslights" x="200" y="1100" class="cx-icon blue"></use>
		<use xlink:href="#collection-crocslights" x="300" y="1100" class="cx-icon red"></use>
		<use xlink:href="#collection-crocslights" x="400" y="1100" class="cx-icon green"></use>
		
		<use xlink:href="#collection-realtree" x="0"   y="1200" class="cx-icon gray"></use>
		<use xlink:href="#collection-realtree" x="100" y="1200" class="cx-icon white"></use>
		<use xlink:href="#collection-realtree" x="200" y="1200" class="cx-icon blue"></use>
		<use xlink:href="#collection-realtree" x="300" y="1200" class="cx-icon red"></use>
		<use xlink:href="#collection-realtree" x="400" y="1200" class="cx-icon green"></use>
		
		<use xlink:href="#features-best-sellers" x="0"   y="1300" class="cx-icon gray"></use>
		<use xlink:href="#features-best-sellers" x="100" y="1300" class="cx-icon white"></use>
		<use xlink:href="#features-best-sellers" x="200" y="1300" class="cx-icon blue"></use>
		<use xlink:href="#features-best-sellers" x="300" y="1300" class="cx-icon red"></use>
		<use xlink:href="#features-best-sellers" x="400" y="1300" class="cx-icon green"></use>
		
		<use xlink:href="#features-new-arrivals" x="0"   y="1400" class="cx-icon gray"></use>
		<use xlink:href="#features-new-arrivals" x="100" y="1400" class="cx-icon white"></use>
		<use xlink:href="#features-new-arrivals" x="200" y="1400" class="cx-icon blue"></use>
		<use xlink:href="#features-new-arrivals" x="300" y="1400" class="cx-icon red"></use>
		<use xlink:href="#features-new-arrivals" x="400" y="1400" class="cx-icon green"></use>
		
		<use xlink:href="#features-price-dollar" x="0"   y="1500" class="cx-icon gray"></use>
		<use xlink:href="#features-price-dollar" x="100" y="1500" class="cx-icon white"></use>
		<use xlink:href="#features-price-dollar" x="200" y="1500" class="cx-icon blue"></use>
		<use xlink:href="#features-price-dollar" x="300" y="1500" class="cx-icon red"></use>
		<use xlink:href="#features-price-dollar" x="400" y="1500" class="cx-icon green"></use>
		
		<use xlink:href="#features-price-euro" x="0"   y="1600" class="cx-icon gray"></use>
		<use xlink:href="#features-price-euro" x="100" y="1600" class="cx-icon white"></use>
		<use xlink:href="#features-price-euro" x="200" y="1600" class="cx-icon blue"></use>
		<use xlink:href="#features-price-euro" x="300" y="1600" class="cx-icon red"></use>
		<use xlink:href="#features-price-euro" x="400" y="1600" class="cx-icon green"></use>
		
		<use xlink:href="#features-price-pound" x="0"   y="1700" class="cx-icon gray"></use>
		<use xlink:href="#features-price-pound" x="100" y="1700" class="cx-icon white"></use>
		<use xlink:href="#features-price-pound" x="200" y="1700" class="cx-icon blue"></use>
		<use xlink:href="#features-price-pound" x="300" y="1700" class="cx-icon red"></use>
		<use xlink:href="#features-price-pound" x="400" y="1700" class="cx-icon green"></use>
		
		<use xlink:href="#features-price-yen" x="0"   y="1800" class="cx-icon gray"></use>
		<use xlink:href="#features-price-yen" x="100" y="1800" class="cx-icon white"></use>
		<use xlink:href="#features-price-yen" x="200" y="1800" class="cx-icon blue"></use>
		<use xlink:href="#features-price-yen" x="300" y="1800" class="cx-icon red"></use>
		<use xlink:href="#features-price-yen" x="400" y="1800" class="cx-icon green"></use>
		
		<use xlink:href="#features-sale-percent" x="0"   y="1900" class="cx-icon gray"></use>
		<use xlink:href="#features-sale-percent" x="100" y="1900" class="cx-icon white"></use>
		<use xlink:href="#features-sale-percent" x="200" y="1900" class="cx-icon blue"></use>
		<use xlink:href="#features-sale-percent" x="300" y="1900" class="cx-icon red"></use>
		<use xlink:href="#features-sale-percent" x="400" y="1900" class="cx-icon green"></use>
		
		<use xlink:href="#features-sale-tag" x="0"   y="2000" class="cx-icon gray"></use>
		<use xlink:href="#features-sale-tag" x="100" y="2000" class="cx-icon white"></use>
		<use xlink:href="#features-sale-tag" x="200" y="2000" class="cx-icon blue"></use>
		<use xlink:href="#features-sale-tag" x="300" y="2000" class="cx-icon red"></use>
		<use xlink:href="#features-sale-tag" x="400" y="2000" class="cx-icon green"></use>
		
		<use xlink:href="#gender-women" x="0"   y="2100" class="cx-icon gray"></use>
		<use xlink:href="#gender-women" x="100" y="2100" class="cx-icon white"></use>
		<use xlink:href="#gender-women" x="200" y="2100" class="cx-icon blue"></use>
		<use xlink:href="#gender-women" x="300" y="2100" class="cx-icon red"></use>
		<use xlink:href="#gender-women" x="400" y="2100" class="cx-icon green"></use>
		
		<use xlink:href="#gender-men" x="0"   y="2200" class="cx-icon gray"></use>
		<use xlink:href="#gender-men" x="100" y="2200" class="cx-icon white"></use>
		<use xlink:href="#gender-men" x="200" y="2200" class="cx-icon blue"></use>
		<use xlink:href="#gender-men" x="300" y="2200" class="cx-icon red"></use>
		<use xlink:href="#gender-men" x="400" y="2200" class="cx-icon green"></use>
		
		<use xlink:href="#gender-girls" x="0"   y="2300" class="cx-icon gray"></use>
		<use xlink:href="#gender-girls" x="100" y="2300" class="cx-icon white"></use>
		<use xlink:href="#gender-girls" x="200" y="2300" class="cx-icon blue"></use>
		<use xlink:href="#gender-girls" x="300" y="2300" class="cx-icon red"></use>
		<use xlink:href="#gender-girls" x="400" y="2300" class="cx-icon green"></use>
		
		<use xlink:href="#gender-boys" x="0"   y="2400" class="cx-icon gray"></use>
		<use xlink:href="#gender-boys" x="100" y="2400" class="cx-icon white"></use>
		<use xlink:href="#gender-boys" x="200" y="2400" class="cx-icon blue"></use>
		<use xlink:href="#gender-boys" x="300" y="2400" class="cx-icon red"></use>
		<use xlink:href="#gender-boys" x="400" y="2400" class="cx-icon green"></use>
		
		<use xlink:href="#orders-shipping" x="0"   y="2500" class="cx-icon gray"></use>
		<use xlink:href="#orders-shipping" x="100" y="2500" class="cx-icon white"></use>
		<use xlink:href="#orders-shipping" x="200" y="2500" class="cx-icon blue"></use>
		<use xlink:href="#orders-shipping" x="300" y="2500" class="cx-icon red"></use>
		<use xlink:href="#orders-shipping" x="400" y="2500" class="cx-icon green"></use>
		
		<use xlink:href="#product-360" x="0"   y="2600" class="cx-icon gray"></use>
		<use xlink:href="#product-360" x="100" y="2600" class="cx-icon white"></use>
		<use xlink:href="#product-360" x="200" y="2600" class="cx-icon blue"></use>
		<use xlink:href="#product-360" x="300" y="2600" class="cx-icon red"></use>
		<use xlink:href="#product-360" x="400" y="2600" class="cx-icon green"></use>
		
		<use xlink:href="#style-accessories" x="0"   y="2700" class="cx-icon gray"></use>
		<use xlink:href="#style-accessories" x="100" y="2700" class="cx-icon white"></use>
		<use xlink:href="#style-accessories" x="200" y="2700" class="cx-icon blue"></use>
		<use xlink:href="#style-accessories" x="300" y="2700" class="cx-icon red"></use>
		<use xlink:href="#style-accessories" x="400" y="2700" class="cx-icon green"></use>
		
		<use xlink:href="#style-bigandtall" x="0"   y="2800" class="cx-icon gray"></use>
		<use xlink:href="#style-bigandtall" x="100" y="2800" class="cx-icon white"></use>
		<use xlink:href="#style-bigandtall" x="200" y="2800" class="cx-icon blue"></use>
		<use xlink:href="#style-bigandtall" x="300" y="2800" class="cx-icon red"></use>
		<use xlink:href="#style-bigandtall" x="400" y="2800" class="cx-icon green"></use>
		
		<use xlink:href="#style-boot" x="0"   y="2900" class="cx-icon gray"></use>
		<use xlink:href="#style-boot" x="100" y="2900" class="cx-icon white"></use>
		<use xlink:href="#style-boot" x="200" y="2900" class="cx-icon blue"></use>
		<use xlink:href="#style-boot" x="300" y="2900" class="cx-icon red"></use>
		<use xlink:href="#style-boot" x="400" y="2900" class="cx-icon green"></use>
		
		<use xlink:href="#style-boot2" x="0"   y="3000" class="cx-icon gray"></use>
		<use xlink:href="#style-boot2" x="100" y="3000" class="cx-icon white"></use>
		<use xlink:href="#style-boot2" x="200" y="3000" class="cx-icon blue"></use>
		<use xlink:href="#style-boot2" x="300" y="3000" class="cx-icon red"></use>
		<use xlink:href="#style-boot2" x="400" y="3000" class="cx-icon green"></use>
		
		<use xlink:href="#style-clog" x="0"   y="3100" class="cx-icon gray"></use>
		<use xlink:href="#style-clog" x="100" y="3100" class="cx-icon white"></use>
		<use xlink:href="#style-clog" x="200" y="3100" class="cx-icon blue"></use>
		<use xlink:href="#style-clog" x="300" y="3100" class="cx-icon red"></use>
		<use xlink:href="#style-clog" x="400" y="3100" class="cx-icon green"></use>
		
		<use xlink:href="#style-flat-maryjane" x="0"   y="3200" class="cx-icon gray"></use>
		<use xlink:href="#style-flat-maryjane" x="100" y="3200" class="cx-icon white"></use>
		<use xlink:href="#style-flat-maryjane" x="200" y="3200" class="cx-icon blue"></use>
		<use xlink:href="#style-flat-maryjane" x="300" y="3200" class="cx-icon red"></use>
		<use xlink:href="#style-flat-maryjane" x="400" y="3200" class="cx-icon green"></use>
		
		<use xlink:href="#style-flat" x="0"   y="3300" class="cx-icon gray"></use>
		<use xlink:href="#style-flat" x="100" y="3300" class="cx-icon white"></use>
		<use xlink:href="#style-flat" x="200" y="3300" class="cx-icon blue"></use>
		<use xlink:href="#style-flat" x="300" y="3300" class="cx-icon red"></use>
		<use xlink:href="#style-flat" x="400" y="3300" class="cx-icon green"></use>
		
		<use xlink:href="#style-flip" x="0"   y="3400" class="cx-icon gray"></use>
		<use xlink:href="#style-flip" x="100" y="3400" class="cx-icon white"></use>
		<use xlink:href="#style-flip" x="200" y="3400" class="cx-icon blue"></use>
		<use xlink:href="#style-flip" x="300" y="3400" class="cx-icon red"></use>
		<use xlink:href="#style-flip" x="400" y="3400" class="cx-icon green"></use>
		
		<use xlink:href="#style-flipflops" x="0"   y="3500" class="cx-icon gray"></use>
		<use xlink:href="#style-flipflops" x="100" y="3500" class="cx-icon white"></use>
		<use xlink:href="#style-flipflops" x="200" y="3500" class="cx-icon blue"></use>
		<use xlink:href="#style-flipflops" x="300" y="3500" class="cx-icon red"></use>
		<use xlink:href="#style-flipflops" x="400" y="3500" class="cx-icon green"></use>
		
		<use xlink:href="#style-fuzz" x="0"   y="3600" class="cx-icon gray"></use>
		<use xlink:href="#style-fuzz" x="100" y="3600" class="cx-icon white"></use>
		<use xlink:href="#style-fuzz" x="200" y="3600" class="cx-icon blue"></use>
		<use xlink:href="#style-fuzz" x="300" y="3600" class="cx-icon red"></use>
		<use xlink:href="#style-fuzz" x="400" y="3600" class="cx-icon green"></use>
		
		<use xlink:href="#style-heel" x="0"   y="3700" class="cx-icon gray"></use>
		<use xlink:href="#style-heel" x="100" y="3700" class="cx-icon white"></use>
		<use xlink:href="#style-heel" x="200" y="3700" class="cx-icon blue"></use>
		<use xlink:href="#style-heel" x="300" y="3700" class="cx-icon red"></use>
		<use xlink:href="#style-heel" x="400" y="3700" class="cx-icon green"></use>
		
		<use xlink:href="#style-jibbitz" x="0"   y="3800" class="cx-icon gray"></use>
		<use xlink:href="#style-jibbitz" x="100" y="3800" class="cx-icon white"></use>
		<use xlink:href="#style-jibbitz" x="200" y="3800" class="cx-icon blue"></use>
		<use xlink:href="#style-jibbitz" x="300" y="3800" class="cx-icon red"></use>
		<use xlink:href="#style-jibbitz" x="400" y="3800" class="cx-icon green"></use>
		
		<use xlink:href="#style-loafer" x="0"   y="3900" class="cx-icon gray"></use>
		<use xlink:href="#style-loafer" x="100" y="3900" class="cx-icon white"></use>
		<use xlink:href="#style-loafer" x="200" y="3900" class="cx-icon blue"></use>
		<use xlink:href="#style-loafer" x="300" y="3900" class="cx-icon red"></use>
		<use xlink:href="#style-loafer" x="400" y="3900" class="cx-icon green"></use>
		
		<use xlink:href="#style-loafer2" x="0"   y="4000" class="cx-icon gray"></use>
		<use xlink:href="#style-loafer2" x="100" y="4000" class="cx-icon white"></use>
		<use xlink:href="#style-loafer2" x="200" y="4000" class="cx-icon blue"></use>
		<use xlink:href="#style-loafer2" x="300" y="4000" class="cx-icon red"></use>
		<use xlink:href="#style-loafer2" x="400" y="4000" class="cx-icon green"></use>
		
		<use xlink:href="#style-sandal" x="0"   y="4100" class="cx-icon gray"></use>
		<use xlink:href="#style-sandal" x="100" y="4100" class="cx-icon white"></use>
		<use xlink:href="#style-sandal" x="200" y="4100" class="cx-icon blue"></use>
		<use xlink:href="#style-sandal" x="300" y="4100" class="cx-icon red"></use>
		<use xlink:href="#style-sandal" x="400" y="4100" class="cx-icon green"></use>
		
		<use xlink:href="#style-sandal2" x="0"   y="4200" class="cx-icon gray"></use>
		<use xlink:href="#style-sandal2" x="100" y="4200" class="cx-icon white"></use>
		<use xlink:href="#style-sandal2" x="200" y="4200" class="cx-icon blue"></use>
		<use xlink:href="#style-sandal2" x="300" y="4200" class="cx-icon red"></use>
		<use xlink:href="#style-sandal2" x="400" y="4200" class="cx-icon green"></use>
		
		<use xlink:href="#style-shoe" x="0"   y="4300" class="cx-icon gray"></use>
		<use xlink:href="#style-shoe" x="100" y="4300" class="cx-icon white"></use>
		<use xlink:href="#style-shoe" x="200" y="4300" class="cx-icon blue"></use>
		<use xlink:href="#style-shoe" x="300" y="4300" class="cx-icon red"></use>
		<use xlink:href="#style-shoe" x="400" y="4300" class="cx-icon green"></use>
		
		<use xlink:href="#style-slide" x="0"   y="4400" class="cx-icon gray"></use>
		<use xlink:href="#style-slide" x="100" y="4400" class="cx-icon white"></use>
		<use xlink:href="#style-slide" x="200" y="4400" class="cx-icon blue"></use>
		<use xlink:href="#style-slide" x="300" y="4400" class="cx-icon red"></use>
		<use xlink:href="#style-slide" x="400" y="4400" class="cx-icon green"></use>
		
		<use xlink:href="#style-slide2" x="0"   y="4500" class="cx-icon gray"></use>
		<use xlink:href="#style-slide2" x="100" y="4500" class="cx-icon white"></use>
		<use xlink:href="#style-slide2" x="200" y="4500" class="cx-icon blue"></use>
		<use xlink:href="#style-slide2" x="300" y="4500" class="cx-icon red"></use>
		<use xlink:href="#style-slide2" x="400" y="4500" class="cx-icon green"></use>
		
		<use xlink:href="#style-sneaker" x="0"   y="4600" class="cx-icon gray"></use>
		<use xlink:href="#style-sneaker" x="100" y="4600" class="cx-icon white"></use>
		<use xlink:href="#style-sneaker" x="200" y="4600" class="cx-icon blue"></use>
		<use xlink:href="#style-sneaker" x="300" y="4600" class="cx-icon red"></use>
		<use xlink:href="#style-sneaker" x="400" y="4600" class="cx-icon green"></use>
		
		<use xlink:href="#style-slipper" x="0"   y="4700" class="cx-icon gray"></use>
		<use xlink:href="#style-slipper" x="100" y="4700" class="cx-icon white"></use>
		<use xlink:href="#style-slipper" x="200" y="4700" class="cx-icon blue"></use>
		<use xlink:href="#style-slipper" x="300" y="4700" class="cx-icon red"></use>
		<use xlink:href="#style-slipper" x="400" y="4700" class="cx-icon green"></use>
		
		<use xlink:href="#info-size" x="0"   y="4800" class="cx-icon gray"></use>
		<use xlink:href="#info-size" x="100" y="4800" class="cx-icon white"></use>
		<use xlink:href="#info-size" x="200" y="4800" class="cx-icon blue"></use>
		<use xlink:href="#info-size" x="300" y="4800" class="cx-icon red"></use>
		<use xlink:href="#info-size" x="400" y="4800" class="cx-icon green"></use>
	</g>
	
</svg>