<svg xmlns="http://www.w3.org/2000/svg" viewBox="0 0 44.43 39.15"><title>Help</title><g id="Layer_2" data-name="Layer 2"><g id="Layer_1-2" data-name="Layer 1"><path d="M39.12,31.32V19.56A19.56,19.56,0,1,0,19.56,39.12l24.87,0Zm-17.31.05a3,3,0,0,1-2.09.75,3,3,0,0,1-2.08-.75,2.56,2.56,0,0,1,0-3.79,3,3,0,0,1,2.08-.75,3,3,0,0,1,2.09.75,2.56,2.56,0,0,1,0,3.79Zm4.94-14a7.71,7.71,0,0,1-1.65,2.17l-1.8,1.68a4.28,4.28,0,0,0-1.06,1.5,5.93,5.93,0,0,0-.33,2H17.44A10,10,0,0,1,18,21.12a5.63,5.63,0,0,1,1.67-2.29,10.75,10.75,0,0,0,1.76-1.77,2.91,2.91,0,0,0,.6-1.77c0-1.58-.68-2.36-2-2.36a1.89,1.89,0,0,0-1.52.69,2.92,2.92,0,0,0-.61,1.86H12.55a6.3,6.3,0,0,1,2-4.87A7.85,7.85,0,0,1,20,8.87a8.13,8.13,0,0,1,5.4,1.61,5.64,5.64,0,0,1,1.91,4.57A5.24,5.24,0,0,1,26.75,17.41Z"/></g></g></svg>