<?xml version="1.0" encoding="utf-8"?>
<!-- Generator: Adobe Illustrator 23.0.1, SVG Export Plug-In . SVG Version: 6.00 Build 0)  -->
<svg version="1.1" id="Capa_1" xmlns="http://www.w3.org/2000/svg" xmlns:xlink="http://www.w3.org/1999/xlink" x="0px" y="0px"
	 viewBox="0 0 40 40" style="enable-background:new 0 0 40 40;" xml:space="preserve">
<style type="text/css">
	.st0{fill:#CCCCCC;}
</style>
<path class="st0" d="M19.7,20.05c1.45,1.49,2.86,2.93,4.27,4.37c2.14,2.17,4.29,4.34,6.42,6.52c2.05,2.1,2.28,4.77,0.61,6.75
	c-1.96,2.3-5.26,2.46-7.52,0.2c-4.81-4.81-9.55-9.69-14.28-14.58c-1.86-1.93-1.76-4.74,0.25-6.82c4.66-4.83,9.35-9.63,14.08-14.4
	c1.97-1.99,4.95-2.09,6.91-0.36c2.08,1.83,2.32,4.69,0.36,6.83c-2.79,3.04-5.73,5.95-8.61,8.92C21.37,18.3,20.56,19.15,19.7,20.05z"
	/>
</svg>
